%TF.GenerationSoftware,KiCad,Pcbnew,5.1.10-88a1d61d58~90~ubuntu20.04.1*%
%TF.CreationDate,2022-02-10T11:47:54-08:00*%
%TF.ProjectId,RP2040_WEDS,52503230-3430-45f5-9745-44532e6b6963,rev?*%
%TF.SameCoordinates,Original*%
%TF.FileFunction,Copper,L2,Bot*%
%TF.FilePolarity,Positive*%
%FSLAX46Y46*%
G04 Gerber Fmt 4.6, Leading zero omitted, Abs format (unit mm)*
G04 Created by KiCad (PCBNEW 5.1.10-88a1d61d58~90~ubuntu20.04.1) date 2022-02-10 11:47:54*
%MOMM*%
%LPD*%
G01*
G04 APERTURE LIST*
%TA.AperFunction,ComponentPad*%
%ADD10C,3.000000*%
%TD*%
%TA.AperFunction,SMDPad,CuDef*%
%ADD11R,1.500000X5.080000*%
%TD*%
%TA.AperFunction,ComponentPad*%
%ADD12O,1.000000X1.000000*%
%TD*%
%TA.AperFunction,ComponentPad*%
%ADD13R,1.000000X1.000000*%
%TD*%
%TA.AperFunction,ComponentPad*%
%ADD14O,2.700000X1.200000*%
%TD*%
%TA.AperFunction,ComponentPad*%
%ADD15C,1.900000*%
%TD*%
%TA.AperFunction,ViaPad*%
%ADD16C,0.800000*%
%TD*%
%TA.AperFunction,Conductor*%
%ADD17C,0.250000*%
%TD*%
%TA.AperFunction,Conductor*%
%ADD18C,0.200000*%
%TD*%
%TA.AperFunction,Conductor*%
%ADD19C,1.000000*%
%TD*%
%TA.AperFunction,Conductor*%
%ADD20C,0.254000*%
%TD*%
%TA.AperFunction,Conductor*%
%ADD21C,0.100000*%
%TD*%
G04 APERTURE END LIST*
D10*
%TO.P,TP1,1*%
%TO.N,VDC*%
X163600000Y-91600000D03*
%TD*%
%TO.P,TP7,1*%
%TO.N,LORA_RX*%
X163200000Y-77000000D03*
%TD*%
%TO.P,TP6,1*%
%TO.N,LORA_TX*%
X169400000Y-70600000D03*
%TD*%
%TO.P,TP5,1*%
%TO.N,SOIL_SIG*%
X193200000Y-97400000D03*
%TD*%
%TO.P,TP4,1*%
%TO.N,VDD*%
X152400000Y-69800000D03*
%TD*%
%TO.P,TP3,1*%
%TO.N,+3V3*%
X179600000Y-89200000D03*
%TD*%
%TO.P,TP2,1*%
%TO.N,+BATT*%
X179600000Y-96400000D03*
%TD*%
D11*
%TO.P,J6,5*%
%TO.N,GND*%
X181750000Y-42000000D03*
%TO.P,J6,4*%
X173250000Y-42000000D03*
%TD*%
D12*
%TO.P,J4,4*%
%TO.N,SDA_SOIL*%
X190190000Y-102500000D03*
%TO.P,J4,3*%
%TO.N,SCL_SOIL*%
X191460000Y-102500000D03*
%TO.P,J4,2*%
%TO.N,GND*%
X192730000Y-102500000D03*
D13*
%TO.P,J4,1*%
%TO.N,VDD*%
X194000000Y-102500000D03*
%TD*%
D12*
%TO.P,J3,2*%
%TO.N,GND*%
X184000000Y-101270000D03*
D13*
%TO.P,J3,1*%
%TO.N,+BATT*%
X184000000Y-100000000D03*
%TD*%
D12*
%TO.P,J2,3*%
%TO.N,GND*%
X201790000Y-102500000D03*
%TO.P,J2,2*%
%TO.N,SOIL_SIG*%
X200520000Y-102500000D03*
D13*
%TO.P,J2,1*%
%TO.N,VDD*%
X199250000Y-102500000D03*
%TD*%
D14*
%TO.P,J1,3*%
%TO.N,GND*%
X158000000Y-103000000D03*
%TO.P,J1,2*%
X158000000Y-99000000D03*
%TO.P,J1,1*%
%TO.N,Net-(D1-Pad2)*%
X158000000Y-95500000D03*
D15*
%TO.P,J1,*%
%TO.N,*%
X153000000Y-99000000D03*
%TD*%
D16*
%TO.N,GND*%
X187200000Y-55050000D03*
X187200000Y-59800000D03*
X178250000Y-75750000D03*
X175750000Y-75750000D03*
X178250000Y-78250000D03*
X175000000Y-99200000D03*
X182230000Y-101270000D03*
X194500000Y-89500000D03*
X199350000Y-94850000D03*
X199250000Y-78500000D03*
X191000000Y-76000000D03*
X191000000Y-80500000D03*
X173250000Y-46250000D03*
X181750000Y-46250000D03*
X167750000Y-74250000D03*
X167750000Y-77500000D03*
X178750000Y-68250000D03*
X182250000Y-68250000D03*
X184000000Y-68250000D03*
X185750000Y-78500000D03*
X185750000Y-74000000D03*
X173750000Y-83750000D03*
X175500000Y-81500000D03*
X173750000Y-85750000D03*
X177000000Y-68250000D03*
X172250000Y-83750000D03*
X183345000Y-60845000D03*
X157750000Y-83000000D03*
X154000000Y-80750000D03*
X154000000Y-89500000D03*
X200500002Y-89250000D03*
X200500000Y-84750000D03*
X180500000Y-68250000D03*
X169250000Y-54000000D03*
X176000000Y-54000000D03*
X162250000Y-47750000D03*
X156200000Y-53000000D03*
X157250000Y-60250000D03*
X201200000Y-43200000D03*
%TO.N,SOIL_SIG*%
X182750000Y-75249974D03*
%TO.N,SCL_SOIL*%
X182750000Y-76249987D03*
%TO.N,SDA_SOIL*%
X182749996Y-77250000D03*
%TO.N,QSPI_CSN*%
X171750000Y-69500000D03*
X181950002Y-65799998D03*
%TO.N,LORA_RX*%
X166000000Y-67400000D03*
X168200000Y-65200000D03*
%TO.N,RESET*%
X161000000Y-53000000D03*
X188600000Y-56200000D03*
%TO.N,QSPI_SD1*%
X172750000Y-70000000D03*
X179725001Y-66524999D03*
%TO.N,QSPI_SD2*%
X173750000Y-70500000D03*
X177750000Y-67250000D03*
%TO.N,DONE*%
X192600000Y-59800000D03*
X195800000Y-59800000D03*
%TO.N,VDD*%
X194500000Y-66750000D03*
X172250000Y-74250000D03*
X177500000Y-72500000D03*
X183250000Y-72500000D03*
X182500000Y-58250000D03*
X152250000Y-84750000D03*
X152250000Y-82000000D03*
X163500000Y-87249996D03*
X158000000Y-88250000D03*
X189750000Y-72500000D03*
X195999982Y-97750000D03*
X184999992Y-72500000D03*
X181750004Y-72500000D03*
X188500000Y-58250000D03*
X154975000Y-64775000D03*
X172250000Y-77699990D03*
X164600000Y-83400000D03*
%TD*%
D17*
%TO.N,SOIL_SIG*%
X193774999Y-85388589D02*
X193774999Y-97524999D01*
X183636384Y-75249974D02*
X193774999Y-85388589D01*
X182750000Y-75249974D02*
X183636384Y-75249974D01*
X193774999Y-97524999D02*
X196250000Y-100000000D01*
X200520000Y-101792894D02*
X200520000Y-102500000D01*
X198727106Y-100000000D02*
X200520000Y-101792894D01*
X196250000Y-100000000D02*
X198727106Y-100000000D01*
%TO.N,SCL_SOIL*%
X191460000Y-101460000D02*
X191460000Y-102500000D01*
X184549990Y-94549990D02*
X191460000Y-101460000D01*
X184549990Y-77149990D02*
X184549990Y-94549990D01*
X183649987Y-76249987D02*
X184549990Y-77149990D01*
X182750000Y-76249987D02*
X183649987Y-76249987D01*
%TO.N,SDA_SOIL*%
X182999996Y-95309996D02*
X190190000Y-102500000D01*
X182999996Y-77500000D02*
X182999996Y-95309996D01*
X182749996Y-77250000D02*
X182999996Y-77500000D01*
%TO.N,QSPI_CSN*%
X175450002Y-65799998D02*
X181950002Y-65799998D01*
X171750000Y-69500000D02*
X175450002Y-65799998D01*
X181950002Y-65799998D02*
X181950002Y-65799998D01*
D18*
%TO.N,LORA_RX*%
X166000000Y-67400000D02*
X168200000Y-65200000D01*
X168200000Y-65200000D02*
X168200000Y-65200000D01*
D17*
%TO.N,RESET*%
X163000000Y-56200000D02*
X188600000Y-56200000D01*
X161000000Y-54200000D02*
X163000000Y-56200000D01*
X161000000Y-53000000D02*
X161000000Y-54200000D01*
%TO.N,QSPI_SD1*%
X176225001Y-66524999D02*
X179475001Y-66524999D01*
X172750000Y-70000000D02*
X176225001Y-66524999D01*
X179475001Y-66524999D02*
X179725001Y-66524999D01*
X179725001Y-66524999D02*
X179725001Y-66524999D01*
%TO.N,QSPI_SD2*%
X176926998Y-67250000D02*
X177750000Y-67250000D01*
X173750000Y-70426998D02*
X176926998Y-67250000D01*
X173750000Y-70500000D02*
X173750000Y-70426998D01*
X177750000Y-67250000D02*
X177750000Y-67250000D01*
D18*
%TO.N,DONE*%
X192600000Y-59800000D02*
X195800000Y-59800000D01*
X195800000Y-59800000D02*
X195800000Y-59800000D01*
D19*
%TO.N,VDD*%
X194500000Y-66750000D02*
X194500000Y-67750000D01*
X194500000Y-67750000D02*
X189750000Y-72500000D01*
X172250000Y-74250000D02*
X172250000Y-78000000D01*
X182500000Y-58250000D02*
X182500000Y-58250000D01*
X185750000Y-58250000D02*
X182500000Y-58250000D01*
X188500000Y-58250000D02*
X188500000Y-58250000D01*
X194500000Y-64250000D02*
X188500000Y-58250000D01*
X194500000Y-66750000D02*
X194500000Y-64250000D01*
X152250000Y-67500000D02*
X152250000Y-82000000D01*
X161500000Y-58250000D02*
X155250000Y-64500000D01*
X182500000Y-58250000D02*
X161500000Y-58250000D01*
X152250000Y-84750000D02*
X152250000Y-84750000D01*
X174000000Y-72500000D02*
X172500000Y-74000000D01*
X177750000Y-72500000D02*
X174000000Y-72500000D01*
X152250000Y-82000000D02*
X152250000Y-84750000D01*
X162499996Y-88250000D02*
X163500000Y-87249996D01*
X155750000Y-88250000D02*
X158000000Y-88250000D01*
X152250000Y-84750000D02*
X155750000Y-88250000D01*
X158000000Y-88250000D02*
X162499996Y-88250000D01*
X189750000Y-72500000D02*
X189750000Y-72500000D01*
X189750000Y-72500000D02*
X195999982Y-78749982D01*
X195999982Y-78749982D02*
X195999982Y-97750000D01*
X155250000Y-64500000D02*
X154975000Y-64775000D01*
X189750000Y-72500000D02*
X184999992Y-72500000D01*
X177750000Y-72500000D02*
X179000000Y-72500000D01*
X184999992Y-72500000D02*
X181750004Y-72500000D01*
X179000000Y-72500000D02*
X181750004Y-72500000D01*
X154975000Y-64775000D02*
X152250000Y-67500000D01*
X188500000Y-58250000D02*
X185750000Y-58250000D01*
X154975000Y-64775000D02*
X154975000Y-64775000D01*
X166549990Y-83400000D02*
X164600000Y-83400000D01*
X172250000Y-77699990D02*
X166549990Y-83400000D01*
X163500000Y-87249996D02*
X163500000Y-84500000D01*
X163500000Y-84500000D02*
X164600000Y-83400000D01*
%TD*%
D20*
%TO.N,GND*%
X171865000Y-41714250D02*
X172023750Y-41873000D01*
X173123000Y-41873000D01*
X173123000Y-41853000D01*
X173377000Y-41853000D01*
X173377000Y-41873000D01*
X174476250Y-41873000D01*
X174635000Y-41714250D01*
X174637163Y-40127000D01*
X180362837Y-40127000D01*
X180365000Y-41714250D01*
X180523750Y-41873000D01*
X181623000Y-41873000D01*
X181623000Y-41853000D01*
X181877000Y-41853000D01*
X181877000Y-41873000D01*
X182976250Y-41873000D01*
X183135000Y-41714250D01*
X183137163Y-40127000D01*
X203873000Y-40127000D01*
X203873000Y-103873000D01*
X159624319Y-103873000D01*
X159713078Y-103783474D01*
X159847421Y-103580533D01*
X159939591Y-103355282D01*
X159943462Y-103317609D01*
X159818731Y-103127000D01*
X158127000Y-103127000D01*
X158127000Y-103147000D01*
X157873000Y-103147000D01*
X157873000Y-103127000D01*
X156181269Y-103127000D01*
X156056538Y-103317609D01*
X156060409Y-103355282D01*
X156152579Y-103580533D01*
X156286922Y-103783474D01*
X156375681Y-103873000D01*
X151127000Y-103873000D01*
X151127000Y-102682391D01*
X156056538Y-102682391D01*
X156181269Y-102873000D01*
X157873000Y-102873000D01*
X157873000Y-101765000D01*
X158127000Y-101765000D01*
X158127000Y-102873000D01*
X159818731Y-102873000D01*
X159943462Y-102682391D01*
X159939591Y-102644718D01*
X159847421Y-102419467D01*
X159713078Y-102216526D01*
X159541725Y-102043693D01*
X159339946Y-101907610D01*
X159115496Y-101813507D01*
X158877000Y-101765000D01*
X158127000Y-101765000D01*
X157873000Y-101765000D01*
X157123000Y-101765000D01*
X156884504Y-101813507D01*
X156660054Y-101907610D01*
X156458275Y-102043693D01*
X156286922Y-102216526D01*
X156152579Y-102419467D01*
X156060409Y-102644718D01*
X156056538Y-102682391D01*
X151127000Y-102682391D01*
X151127000Y-101571876D01*
X182905874Y-101571876D01*
X182985790Y-101779529D01*
X183104682Y-101967601D01*
X183257980Y-102128865D01*
X183439794Y-102257123D01*
X183643136Y-102347446D01*
X183698126Y-102364119D01*
X183873000Y-102237954D01*
X183873000Y-101397000D01*
X184127000Y-101397000D01*
X184127000Y-102237954D01*
X184301874Y-102364119D01*
X184356864Y-102347446D01*
X184560206Y-102257123D01*
X184742020Y-102128865D01*
X184895318Y-101967601D01*
X185014210Y-101779529D01*
X185094126Y-101571876D01*
X184969129Y-101397000D01*
X184127000Y-101397000D01*
X183873000Y-101397000D01*
X183030871Y-101397000D01*
X182905874Y-101571876D01*
X151127000Y-101571876D01*
X151127000Y-98843891D01*
X151415000Y-98843891D01*
X151415000Y-99156109D01*
X151475911Y-99462327D01*
X151595391Y-99750779D01*
X151768850Y-100010379D01*
X151989621Y-100231150D01*
X152249221Y-100404609D01*
X152537673Y-100524089D01*
X152843891Y-100585000D01*
X153156109Y-100585000D01*
X153462327Y-100524089D01*
X153750779Y-100404609D01*
X154010379Y-100231150D01*
X154231150Y-100010379D01*
X154404609Y-99750779D01*
X154524089Y-99462327D01*
X154552875Y-99317609D01*
X156056538Y-99317609D01*
X156060409Y-99355282D01*
X156152579Y-99580533D01*
X156286922Y-99783474D01*
X156458275Y-99956307D01*
X156660054Y-100092390D01*
X156884504Y-100186493D01*
X157123000Y-100235000D01*
X157873000Y-100235000D01*
X157873000Y-99127000D01*
X158127000Y-99127000D01*
X158127000Y-100235000D01*
X158877000Y-100235000D01*
X159115496Y-100186493D01*
X159339946Y-100092390D01*
X159541725Y-99956307D01*
X159713078Y-99783474D01*
X159847421Y-99580533D01*
X159880374Y-99500000D01*
X182861928Y-99500000D01*
X182861928Y-100500000D01*
X182874188Y-100624482D01*
X182910498Y-100744180D01*
X182957918Y-100832894D01*
X182905874Y-100968124D01*
X183030871Y-101143000D01*
X183873000Y-101143000D01*
X183873000Y-101138072D01*
X184127000Y-101138072D01*
X184127000Y-101143000D01*
X184969129Y-101143000D01*
X185094126Y-100968124D01*
X185042082Y-100832894D01*
X185089502Y-100744180D01*
X185125812Y-100624482D01*
X185138072Y-100500000D01*
X185138072Y-99500000D01*
X185125812Y-99375518D01*
X185089502Y-99255820D01*
X185030537Y-99145506D01*
X184951185Y-99048815D01*
X184854494Y-98969463D01*
X184744180Y-98910498D01*
X184624482Y-98874188D01*
X184500000Y-98861928D01*
X183500000Y-98861928D01*
X183375518Y-98874188D01*
X183255820Y-98910498D01*
X183145506Y-98969463D01*
X183048815Y-99048815D01*
X182969463Y-99145506D01*
X182910498Y-99255820D01*
X182874188Y-99375518D01*
X182861928Y-99500000D01*
X159880374Y-99500000D01*
X159939591Y-99355282D01*
X159943462Y-99317609D01*
X159818731Y-99127000D01*
X158127000Y-99127000D01*
X157873000Y-99127000D01*
X156181269Y-99127000D01*
X156056538Y-99317609D01*
X154552875Y-99317609D01*
X154585000Y-99156109D01*
X154585000Y-98843891D01*
X154552876Y-98682391D01*
X156056538Y-98682391D01*
X156181269Y-98873000D01*
X157873000Y-98873000D01*
X157873000Y-97765000D01*
X158127000Y-97765000D01*
X158127000Y-98873000D01*
X159818731Y-98873000D01*
X159943462Y-98682391D01*
X159939591Y-98644718D01*
X159847421Y-98419467D01*
X159713078Y-98216526D01*
X159541725Y-98043693D01*
X159339946Y-97907610D01*
X159115496Y-97813507D01*
X158877000Y-97765000D01*
X158127000Y-97765000D01*
X157873000Y-97765000D01*
X157123000Y-97765000D01*
X156884504Y-97813507D01*
X156660054Y-97907610D01*
X156458275Y-98043693D01*
X156286922Y-98216526D01*
X156152579Y-98419467D01*
X156060409Y-98644718D01*
X156056538Y-98682391D01*
X154552876Y-98682391D01*
X154524089Y-98537673D01*
X154404609Y-98249221D01*
X154231150Y-97989621D01*
X154010379Y-97768850D01*
X153750779Y-97595391D01*
X153462327Y-97475911D01*
X153156109Y-97415000D01*
X152843891Y-97415000D01*
X152537673Y-97475911D01*
X152249221Y-97595391D01*
X151989621Y-97768850D01*
X151768850Y-97989621D01*
X151595391Y-98249221D01*
X151475911Y-98537673D01*
X151415000Y-98843891D01*
X151127000Y-98843891D01*
X151127000Y-95500000D01*
X156009025Y-95500000D01*
X156032870Y-95742102D01*
X156103489Y-95974901D01*
X156218167Y-96189449D01*
X156372498Y-96377502D01*
X156560551Y-96531833D01*
X156775099Y-96646511D01*
X157007898Y-96717130D01*
X157189335Y-96735000D01*
X158810665Y-96735000D01*
X158992102Y-96717130D01*
X159224901Y-96646511D01*
X159439449Y-96531833D01*
X159627502Y-96377502D01*
X159781609Y-96189721D01*
X177465000Y-96189721D01*
X177465000Y-96610279D01*
X177547047Y-97022756D01*
X177707988Y-97411302D01*
X177941637Y-97760983D01*
X178239017Y-98058363D01*
X178588698Y-98292012D01*
X178977244Y-98452953D01*
X179389721Y-98535000D01*
X179810279Y-98535000D01*
X180222756Y-98452953D01*
X180611302Y-98292012D01*
X180960983Y-98058363D01*
X181258363Y-97760983D01*
X181492012Y-97411302D01*
X181652953Y-97022756D01*
X181735000Y-96610279D01*
X181735000Y-96189721D01*
X181652953Y-95777244D01*
X181492012Y-95388698D01*
X181258363Y-95039017D01*
X180960983Y-94741637D01*
X180611302Y-94507988D01*
X180222756Y-94347047D01*
X179810279Y-94265000D01*
X179389721Y-94265000D01*
X178977244Y-94347047D01*
X178588698Y-94507988D01*
X178239017Y-94741637D01*
X177941637Y-95039017D01*
X177707988Y-95388698D01*
X177547047Y-95777244D01*
X177465000Y-96189721D01*
X159781609Y-96189721D01*
X159781833Y-96189449D01*
X159896511Y-95974901D01*
X159967130Y-95742102D01*
X159990975Y-95500000D01*
X159967130Y-95257898D01*
X159896511Y-95025099D01*
X159781833Y-94810551D01*
X159627502Y-94622498D01*
X159439449Y-94468167D01*
X159224901Y-94353489D01*
X158992102Y-94282870D01*
X158810665Y-94265000D01*
X157189335Y-94265000D01*
X157007898Y-94282870D01*
X156775099Y-94353489D01*
X156560551Y-94468167D01*
X156372498Y-94622498D01*
X156218167Y-94810551D01*
X156103489Y-95025099D01*
X156032870Y-95257898D01*
X156009025Y-95500000D01*
X151127000Y-95500000D01*
X151127000Y-91389721D01*
X161465000Y-91389721D01*
X161465000Y-91810279D01*
X161547047Y-92222756D01*
X161707988Y-92611302D01*
X161941637Y-92960983D01*
X162239017Y-93258363D01*
X162588698Y-93492012D01*
X162977244Y-93652953D01*
X163389721Y-93735000D01*
X163810279Y-93735000D01*
X164222756Y-93652953D01*
X164611302Y-93492012D01*
X164960983Y-93258363D01*
X165258363Y-92960983D01*
X165492012Y-92611302D01*
X165652953Y-92222756D01*
X165735000Y-91810279D01*
X165735000Y-91389721D01*
X165652953Y-90977244D01*
X165492012Y-90588698D01*
X165258363Y-90239017D01*
X164960983Y-89941637D01*
X164611302Y-89707988D01*
X164222756Y-89547047D01*
X163810279Y-89465000D01*
X163389721Y-89465000D01*
X162977244Y-89547047D01*
X162588698Y-89707988D01*
X162239017Y-89941637D01*
X161941637Y-90239017D01*
X161707988Y-90588698D01*
X161547047Y-90977244D01*
X161465000Y-91389721D01*
X151127000Y-91389721D01*
X151127000Y-84927591D01*
X151131423Y-84972499D01*
X151196324Y-85186447D01*
X151301716Y-85383623D01*
X151443551Y-85556449D01*
X151486865Y-85591996D01*
X154908009Y-89013141D01*
X154943551Y-89056449D01*
X155116377Y-89198284D01*
X155313553Y-89303676D01*
X155527501Y-89368577D01*
X155694248Y-89385000D01*
X155694257Y-89385000D01*
X155749999Y-89390490D01*
X155805741Y-89385000D01*
X162444245Y-89385000D01*
X162499996Y-89390491D01*
X162555747Y-89385000D01*
X162555748Y-89385000D01*
X162722495Y-89368577D01*
X162936443Y-89303676D01*
X163133619Y-89198284D01*
X163306445Y-89056449D01*
X163341992Y-89013136D01*
X163365407Y-88989721D01*
X177465000Y-88989721D01*
X177465000Y-89410279D01*
X177547047Y-89822756D01*
X177707988Y-90211302D01*
X177941637Y-90560983D01*
X178239017Y-90858363D01*
X178588698Y-91092012D01*
X178977244Y-91252953D01*
X179389721Y-91335000D01*
X179810279Y-91335000D01*
X180222756Y-91252953D01*
X180611302Y-91092012D01*
X180960983Y-90858363D01*
X181258363Y-90560983D01*
X181492012Y-90211302D01*
X181652953Y-89822756D01*
X181735000Y-89410279D01*
X181735000Y-88989721D01*
X181652953Y-88577244D01*
X181492012Y-88188698D01*
X181258363Y-87839017D01*
X180960983Y-87541637D01*
X180611302Y-87307988D01*
X180222756Y-87147047D01*
X179810279Y-87065000D01*
X179389721Y-87065000D01*
X178977244Y-87147047D01*
X178588698Y-87307988D01*
X178239017Y-87541637D01*
X177941637Y-87839017D01*
X177707988Y-88188698D01*
X177547047Y-88577244D01*
X177465000Y-88989721D01*
X163365407Y-88989721D01*
X164263140Y-88091988D01*
X164306449Y-88056445D01*
X164448284Y-87883619D01*
X164553676Y-87686443D01*
X164603471Y-87522291D01*
X164618577Y-87472496D01*
X164634779Y-87307988D01*
X164635000Y-87305748D01*
X164635000Y-87305741D01*
X164640490Y-87249997D01*
X164635000Y-87194253D01*
X164635000Y-84970131D01*
X165070132Y-84535000D01*
X166494239Y-84535000D01*
X166549990Y-84540491D01*
X166605741Y-84535000D01*
X166605742Y-84535000D01*
X166772489Y-84518577D01*
X166986437Y-84453676D01*
X167183613Y-84348284D01*
X167356439Y-84206449D01*
X167391986Y-84163135D01*
X172432617Y-79122505D01*
X172472499Y-79118577D01*
X172686447Y-79053676D01*
X172883623Y-78948284D01*
X173056449Y-78806449D01*
X173198284Y-78633623D01*
X173303676Y-78436447D01*
X173368577Y-78222499D01*
X173385000Y-78055752D01*
X173385000Y-77755733D01*
X173390490Y-77699991D01*
X173385000Y-77644249D01*
X173385000Y-74720131D01*
X174470132Y-73635000D01*
X189279869Y-73635000D01*
X194864982Y-79220114D01*
X194864983Y-96048924D01*
X194858363Y-96039017D01*
X194560983Y-95741637D01*
X194534999Y-95724275D01*
X194534999Y-85425912D01*
X194538675Y-85388589D01*
X194534999Y-85351266D01*
X194534999Y-85351256D01*
X194524002Y-85239603D01*
X194480545Y-85096342D01*
X194409973Y-84964313D01*
X194315000Y-84848588D01*
X194286003Y-84824791D01*
X184200188Y-74738977D01*
X184176385Y-74709973D01*
X184060660Y-74615000D01*
X183928631Y-74544428D01*
X183785370Y-74500971D01*
X183673717Y-74489974D01*
X183673706Y-74489974D01*
X183636384Y-74486298D01*
X183599062Y-74489974D01*
X183453711Y-74489974D01*
X183409774Y-74446037D01*
X183240256Y-74332769D01*
X183051898Y-74254748D01*
X182851939Y-74214974D01*
X182648061Y-74214974D01*
X182448102Y-74254748D01*
X182259744Y-74332769D01*
X182090226Y-74446037D01*
X181946063Y-74590200D01*
X181832795Y-74759718D01*
X181754774Y-74948076D01*
X181715000Y-75148035D01*
X181715000Y-75351913D01*
X181754774Y-75551872D01*
X181832795Y-75740230D01*
X181839310Y-75749981D01*
X181832795Y-75759731D01*
X181754774Y-75948089D01*
X181715000Y-76148048D01*
X181715000Y-76351926D01*
X181754774Y-76551885D01*
X181832795Y-76740243D01*
X181839308Y-76749991D01*
X181832791Y-76759744D01*
X181754770Y-76948102D01*
X181714996Y-77148061D01*
X181714996Y-77351939D01*
X181754770Y-77551898D01*
X181832791Y-77740256D01*
X181946059Y-77909774D01*
X182090222Y-78053937D01*
X182239996Y-78154013D01*
X182239997Y-95272663D01*
X182236320Y-95309996D01*
X182250994Y-95458981D01*
X182294450Y-95602242D01*
X182365022Y-95734272D01*
X182400289Y-95777244D01*
X182459996Y-95849997D01*
X182488994Y-95873795D01*
X189055000Y-102439802D01*
X189055000Y-102611788D01*
X189098617Y-102831067D01*
X189184176Y-103037624D01*
X189308388Y-103223520D01*
X189466480Y-103381612D01*
X189652376Y-103505824D01*
X189858933Y-103591383D01*
X190078212Y-103635000D01*
X190301788Y-103635000D01*
X190521067Y-103591383D01*
X190727624Y-103505824D01*
X190825000Y-103440759D01*
X190922376Y-103505824D01*
X191128933Y-103591383D01*
X191348212Y-103635000D01*
X191571788Y-103635000D01*
X191791067Y-103591383D01*
X191997624Y-103505824D01*
X192099658Y-103437647D01*
X192169794Y-103487123D01*
X192373136Y-103577446D01*
X192428126Y-103594119D01*
X192603000Y-103467954D01*
X192603000Y-102627000D01*
X192591974Y-102627000D01*
X192595000Y-102611788D01*
X192595000Y-102388212D01*
X192591974Y-102373000D01*
X192603000Y-102373000D01*
X192603000Y-101532046D01*
X192857000Y-101532046D01*
X192857000Y-102373000D01*
X192861928Y-102373000D01*
X192861928Y-102627000D01*
X192857000Y-102627000D01*
X192857000Y-103467954D01*
X193031874Y-103594119D01*
X193086864Y-103577446D01*
X193166820Y-103541930D01*
X193255820Y-103589502D01*
X193375518Y-103625812D01*
X193500000Y-103638072D01*
X194500000Y-103638072D01*
X194624482Y-103625812D01*
X194744180Y-103589502D01*
X194854494Y-103530537D01*
X194951185Y-103451185D01*
X195030537Y-103354494D01*
X195089502Y-103244180D01*
X195125812Y-103124482D01*
X195138072Y-103000000D01*
X195138072Y-102000000D01*
X195125812Y-101875518D01*
X195089502Y-101755820D01*
X195030537Y-101645506D01*
X194951185Y-101548815D01*
X194854494Y-101469463D01*
X194744180Y-101410498D01*
X194624482Y-101374188D01*
X194500000Y-101361928D01*
X193500000Y-101361928D01*
X193375518Y-101374188D01*
X193255820Y-101410498D01*
X193166820Y-101458070D01*
X193086864Y-101422554D01*
X193031874Y-101405881D01*
X192857000Y-101532046D01*
X192603000Y-101532046D01*
X192428126Y-101405881D01*
X192373136Y-101422554D01*
X192220695Y-101490267D01*
X192223676Y-101460000D01*
X192220000Y-101422677D01*
X192220000Y-101422667D01*
X192209003Y-101311014D01*
X192165546Y-101167753D01*
X192094974Y-101035724D01*
X192000001Y-100919999D01*
X191971004Y-100896202D01*
X185309990Y-94235189D01*
X185309990Y-77998381D01*
X193014999Y-85703391D01*
X193015000Y-95265000D01*
X192989721Y-95265000D01*
X192577244Y-95347047D01*
X192188698Y-95507988D01*
X191839017Y-95741637D01*
X191541637Y-96039017D01*
X191307988Y-96388698D01*
X191147047Y-96777244D01*
X191065000Y-97189721D01*
X191065000Y-97610279D01*
X191147047Y-98022756D01*
X191307988Y-98411302D01*
X191541637Y-98760983D01*
X191839017Y-99058363D01*
X192188698Y-99292012D01*
X192577244Y-99452953D01*
X192989721Y-99535000D01*
X193410279Y-99535000D01*
X193822756Y-99452953D01*
X194211302Y-99292012D01*
X194364708Y-99189510D01*
X195686200Y-100511002D01*
X195709999Y-100540001D01*
X195738997Y-100563799D01*
X195825723Y-100634974D01*
X195940498Y-100696323D01*
X195957753Y-100705546D01*
X196101014Y-100749003D01*
X196212667Y-100760000D01*
X196212677Y-100760000D01*
X196250000Y-100763676D01*
X196287322Y-100760000D01*
X198412305Y-100760000D01*
X199014233Y-101361928D01*
X198750000Y-101361928D01*
X198625518Y-101374188D01*
X198505820Y-101410498D01*
X198395506Y-101469463D01*
X198298815Y-101548815D01*
X198219463Y-101645506D01*
X198160498Y-101755820D01*
X198124188Y-101875518D01*
X198111928Y-102000000D01*
X198111928Y-103000000D01*
X198124188Y-103124482D01*
X198160498Y-103244180D01*
X198219463Y-103354494D01*
X198298815Y-103451185D01*
X198395506Y-103530537D01*
X198505820Y-103589502D01*
X198625518Y-103625812D01*
X198750000Y-103638072D01*
X199750000Y-103638072D01*
X199874482Y-103625812D01*
X199994180Y-103589502D01*
X200077226Y-103545112D01*
X200188933Y-103591383D01*
X200408212Y-103635000D01*
X200631788Y-103635000D01*
X200851067Y-103591383D01*
X201057624Y-103505824D01*
X201159658Y-103437647D01*
X201229794Y-103487123D01*
X201433136Y-103577446D01*
X201488126Y-103594119D01*
X201663000Y-103467954D01*
X201663000Y-102627000D01*
X201917000Y-102627000D01*
X201917000Y-103467954D01*
X202091874Y-103594119D01*
X202146864Y-103577446D01*
X202350206Y-103487123D01*
X202532020Y-103358865D01*
X202685318Y-103197601D01*
X202804210Y-103009529D01*
X202884126Y-102801876D01*
X202759129Y-102627000D01*
X201917000Y-102627000D01*
X201663000Y-102627000D01*
X201651974Y-102627000D01*
X201655000Y-102611788D01*
X201655000Y-102388212D01*
X201651974Y-102373000D01*
X201663000Y-102373000D01*
X201663000Y-101532046D01*
X201917000Y-101532046D01*
X201917000Y-102373000D01*
X202759129Y-102373000D01*
X202884126Y-102198124D01*
X202804210Y-101990471D01*
X202685318Y-101802399D01*
X202532020Y-101641135D01*
X202350206Y-101512877D01*
X202146864Y-101422554D01*
X202091874Y-101405881D01*
X201917000Y-101532046D01*
X201663000Y-101532046D01*
X201488126Y-101405881D01*
X201433136Y-101422554D01*
X201229794Y-101512877D01*
X201229351Y-101513190D01*
X201225546Y-101500647D01*
X201208878Y-101469463D01*
X201154974Y-101368617D01*
X201083799Y-101281891D01*
X201060001Y-101252893D01*
X201031004Y-101229096D01*
X199290910Y-99489003D01*
X199267107Y-99459999D01*
X199151382Y-99365026D01*
X199019353Y-99294454D01*
X198876092Y-99250997D01*
X198764439Y-99240000D01*
X198764428Y-99240000D01*
X198727106Y-99236324D01*
X198689784Y-99240000D01*
X196564802Y-99240000D01*
X196195988Y-98871186D01*
X196222481Y-98868577D01*
X196436429Y-98803676D01*
X196633605Y-98698284D01*
X196806431Y-98556449D01*
X196948266Y-98383623D01*
X197053658Y-98186447D01*
X197118559Y-97972499D01*
X197134982Y-97805752D01*
X197134982Y-78805723D01*
X197140472Y-78749981D01*
X197134982Y-78694239D01*
X197134982Y-78694230D01*
X197118559Y-78527483D01*
X197053658Y-78313535D01*
X196948266Y-78116359D01*
X196806431Y-77943533D01*
X196763123Y-77907991D01*
X191355131Y-72500000D01*
X195263141Y-68591991D01*
X195306449Y-68556449D01*
X195448284Y-68383623D01*
X195553676Y-68186447D01*
X195618577Y-67972499D01*
X195635000Y-67805752D01*
X195635000Y-67805743D01*
X195640490Y-67750001D01*
X195635000Y-67694259D01*
X195635000Y-64305741D01*
X195640490Y-64249999D01*
X195635000Y-64194257D01*
X195635000Y-64194248D01*
X195618577Y-64027501D01*
X195553676Y-63813553D01*
X195448284Y-63616377D01*
X195306449Y-63443551D01*
X195263141Y-63408009D01*
X192690132Y-60835000D01*
X192701939Y-60835000D01*
X192901898Y-60795226D01*
X193090256Y-60717205D01*
X193259774Y-60603937D01*
X193328711Y-60535000D01*
X195071289Y-60535000D01*
X195140226Y-60603937D01*
X195309744Y-60717205D01*
X195498102Y-60795226D01*
X195698061Y-60835000D01*
X195901939Y-60835000D01*
X196101898Y-60795226D01*
X196290256Y-60717205D01*
X196459774Y-60603937D01*
X196603937Y-60459774D01*
X196717205Y-60290256D01*
X196795226Y-60101898D01*
X196835000Y-59901939D01*
X196835000Y-59698061D01*
X196795226Y-59498102D01*
X196717205Y-59309744D01*
X196603937Y-59140226D01*
X196459774Y-58996063D01*
X196290256Y-58882795D01*
X196101898Y-58804774D01*
X195901939Y-58765000D01*
X195698061Y-58765000D01*
X195498102Y-58804774D01*
X195309744Y-58882795D01*
X195140226Y-58996063D01*
X195071289Y-59065000D01*
X193328711Y-59065000D01*
X193259774Y-58996063D01*
X193090256Y-58882795D01*
X192901898Y-58804774D01*
X192701939Y-58765000D01*
X192498061Y-58765000D01*
X192298102Y-58804774D01*
X192109744Y-58882795D01*
X191940226Y-58996063D01*
X191796063Y-59140226D01*
X191682795Y-59309744D01*
X191604774Y-59498102D01*
X191565000Y-59698061D01*
X191565000Y-59709869D01*
X189341996Y-57486865D01*
X189306449Y-57443551D01*
X189133623Y-57301716D01*
X188936447Y-57196324D01*
X188914973Y-57189810D01*
X189090256Y-57117205D01*
X189259774Y-57003937D01*
X189403937Y-56859774D01*
X189517205Y-56690256D01*
X189595226Y-56501898D01*
X189635000Y-56301939D01*
X189635000Y-56098061D01*
X189595226Y-55898102D01*
X189517205Y-55709744D01*
X189403937Y-55540226D01*
X189259774Y-55396063D01*
X189090256Y-55282795D01*
X188901898Y-55204774D01*
X188701939Y-55165000D01*
X188498061Y-55165000D01*
X188298102Y-55204774D01*
X188109744Y-55282795D01*
X187940226Y-55396063D01*
X187896289Y-55440000D01*
X163314802Y-55440000D01*
X161760000Y-53885199D01*
X161760000Y-53703711D01*
X161803937Y-53659774D01*
X161917205Y-53490256D01*
X161995226Y-53301898D01*
X162035000Y-53101939D01*
X162035000Y-52898061D01*
X161995226Y-52698102D01*
X161917205Y-52509744D01*
X161803937Y-52340226D01*
X161659774Y-52196063D01*
X161490256Y-52082795D01*
X161301898Y-52004774D01*
X161101939Y-51965000D01*
X160898061Y-51965000D01*
X160698102Y-52004774D01*
X160509744Y-52082795D01*
X160340226Y-52196063D01*
X160196063Y-52340226D01*
X160082795Y-52509744D01*
X160004774Y-52698102D01*
X159965000Y-52898061D01*
X159965000Y-53101939D01*
X160004774Y-53301898D01*
X160082795Y-53490256D01*
X160196063Y-53659774D01*
X160240001Y-53703712D01*
X160240001Y-54162668D01*
X160236324Y-54200000D01*
X160250998Y-54348985D01*
X160294454Y-54492246D01*
X160365026Y-54624276D01*
X160436201Y-54711002D01*
X160460000Y-54740001D01*
X160488998Y-54763799D01*
X162436201Y-56711003D01*
X162459999Y-56740001D01*
X162488997Y-56763799D01*
X162575723Y-56834974D01*
X162707753Y-56905546D01*
X162851014Y-56949003D01*
X162962667Y-56960000D01*
X162962676Y-56960000D01*
X162999999Y-56963676D01*
X163037322Y-56960000D01*
X187896289Y-56960000D01*
X187940226Y-57003937D01*
X188106444Y-57115000D01*
X161555752Y-57115000D01*
X161500000Y-57109509D01*
X161444248Y-57115000D01*
X161277501Y-57131423D01*
X161063553Y-57196324D01*
X160866377Y-57301716D01*
X160693551Y-57443551D01*
X160658009Y-57486859D01*
X154486863Y-63658006D01*
X154486857Y-63658011D01*
X154211864Y-63933005D01*
X154168551Y-63968551D01*
X154133011Y-64011857D01*
X151486865Y-66658004D01*
X151443551Y-66693551D01*
X151301716Y-66866377D01*
X151222140Y-67015255D01*
X151196324Y-67063554D01*
X151131423Y-67277502D01*
X151127000Y-67322410D01*
X151127000Y-44540000D01*
X171861928Y-44540000D01*
X171874188Y-44664482D01*
X171910498Y-44784180D01*
X171969463Y-44894494D01*
X172048815Y-44991185D01*
X172145506Y-45070537D01*
X172255820Y-45129502D01*
X172375518Y-45165812D01*
X172500000Y-45178072D01*
X172964250Y-45175000D01*
X173123000Y-45016250D01*
X173123000Y-42127000D01*
X173377000Y-42127000D01*
X173377000Y-45016250D01*
X173535750Y-45175000D01*
X174000000Y-45178072D01*
X174124482Y-45165812D01*
X174244180Y-45129502D01*
X174354494Y-45070537D01*
X174451185Y-44991185D01*
X174530537Y-44894494D01*
X174589502Y-44784180D01*
X174625812Y-44664482D01*
X174638072Y-44540000D01*
X180361928Y-44540000D01*
X180374188Y-44664482D01*
X180410498Y-44784180D01*
X180469463Y-44894494D01*
X180548815Y-44991185D01*
X180645506Y-45070537D01*
X180755820Y-45129502D01*
X180875518Y-45165812D01*
X181000000Y-45178072D01*
X181464250Y-45175000D01*
X181623000Y-45016250D01*
X181623000Y-42127000D01*
X181877000Y-42127000D01*
X181877000Y-45016250D01*
X182035750Y-45175000D01*
X182500000Y-45178072D01*
X182624482Y-45165812D01*
X182744180Y-45129502D01*
X182854494Y-45070537D01*
X182951185Y-44991185D01*
X183030537Y-44894494D01*
X183089502Y-44784180D01*
X183125812Y-44664482D01*
X183138072Y-44540000D01*
X183135000Y-42285750D01*
X182976250Y-42127000D01*
X181877000Y-42127000D01*
X181623000Y-42127000D01*
X180523750Y-42127000D01*
X180365000Y-42285750D01*
X180361928Y-44540000D01*
X174638072Y-44540000D01*
X174635000Y-42285750D01*
X174476250Y-42127000D01*
X173377000Y-42127000D01*
X173123000Y-42127000D01*
X172023750Y-42127000D01*
X171865000Y-42285750D01*
X171861928Y-44540000D01*
X151127000Y-44540000D01*
X151127000Y-40127000D01*
X171862837Y-40127000D01*
X171865000Y-41714250D01*
%TA.AperFunction,Conductor*%
D21*
G36*
X171865000Y-41714250D02*
G01*
X172023750Y-41873000D01*
X173123000Y-41873000D01*
X173123000Y-41853000D01*
X173377000Y-41853000D01*
X173377000Y-41873000D01*
X174476250Y-41873000D01*
X174635000Y-41714250D01*
X174637163Y-40127000D01*
X180362837Y-40127000D01*
X180365000Y-41714250D01*
X180523750Y-41873000D01*
X181623000Y-41873000D01*
X181623000Y-41853000D01*
X181877000Y-41853000D01*
X181877000Y-41873000D01*
X182976250Y-41873000D01*
X183135000Y-41714250D01*
X183137163Y-40127000D01*
X203873000Y-40127000D01*
X203873000Y-103873000D01*
X159624319Y-103873000D01*
X159713078Y-103783474D01*
X159847421Y-103580533D01*
X159939591Y-103355282D01*
X159943462Y-103317609D01*
X159818731Y-103127000D01*
X158127000Y-103127000D01*
X158127000Y-103147000D01*
X157873000Y-103147000D01*
X157873000Y-103127000D01*
X156181269Y-103127000D01*
X156056538Y-103317609D01*
X156060409Y-103355282D01*
X156152579Y-103580533D01*
X156286922Y-103783474D01*
X156375681Y-103873000D01*
X151127000Y-103873000D01*
X151127000Y-102682391D01*
X156056538Y-102682391D01*
X156181269Y-102873000D01*
X157873000Y-102873000D01*
X157873000Y-101765000D01*
X158127000Y-101765000D01*
X158127000Y-102873000D01*
X159818731Y-102873000D01*
X159943462Y-102682391D01*
X159939591Y-102644718D01*
X159847421Y-102419467D01*
X159713078Y-102216526D01*
X159541725Y-102043693D01*
X159339946Y-101907610D01*
X159115496Y-101813507D01*
X158877000Y-101765000D01*
X158127000Y-101765000D01*
X157873000Y-101765000D01*
X157123000Y-101765000D01*
X156884504Y-101813507D01*
X156660054Y-101907610D01*
X156458275Y-102043693D01*
X156286922Y-102216526D01*
X156152579Y-102419467D01*
X156060409Y-102644718D01*
X156056538Y-102682391D01*
X151127000Y-102682391D01*
X151127000Y-101571876D01*
X182905874Y-101571876D01*
X182985790Y-101779529D01*
X183104682Y-101967601D01*
X183257980Y-102128865D01*
X183439794Y-102257123D01*
X183643136Y-102347446D01*
X183698126Y-102364119D01*
X183873000Y-102237954D01*
X183873000Y-101397000D01*
X184127000Y-101397000D01*
X184127000Y-102237954D01*
X184301874Y-102364119D01*
X184356864Y-102347446D01*
X184560206Y-102257123D01*
X184742020Y-102128865D01*
X184895318Y-101967601D01*
X185014210Y-101779529D01*
X185094126Y-101571876D01*
X184969129Y-101397000D01*
X184127000Y-101397000D01*
X183873000Y-101397000D01*
X183030871Y-101397000D01*
X182905874Y-101571876D01*
X151127000Y-101571876D01*
X151127000Y-98843891D01*
X151415000Y-98843891D01*
X151415000Y-99156109D01*
X151475911Y-99462327D01*
X151595391Y-99750779D01*
X151768850Y-100010379D01*
X151989621Y-100231150D01*
X152249221Y-100404609D01*
X152537673Y-100524089D01*
X152843891Y-100585000D01*
X153156109Y-100585000D01*
X153462327Y-100524089D01*
X153750779Y-100404609D01*
X154010379Y-100231150D01*
X154231150Y-100010379D01*
X154404609Y-99750779D01*
X154524089Y-99462327D01*
X154552875Y-99317609D01*
X156056538Y-99317609D01*
X156060409Y-99355282D01*
X156152579Y-99580533D01*
X156286922Y-99783474D01*
X156458275Y-99956307D01*
X156660054Y-100092390D01*
X156884504Y-100186493D01*
X157123000Y-100235000D01*
X157873000Y-100235000D01*
X157873000Y-99127000D01*
X158127000Y-99127000D01*
X158127000Y-100235000D01*
X158877000Y-100235000D01*
X159115496Y-100186493D01*
X159339946Y-100092390D01*
X159541725Y-99956307D01*
X159713078Y-99783474D01*
X159847421Y-99580533D01*
X159880374Y-99500000D01*
X182861928Y-99500000D01*
X182861928Y-100500000D01*
X182874188Y-100624482D01*
X182910498Y-100744180D01*
X182957918Y-100832894D01*
X182905874Y-100968124D01*
X183030871Y-101143000D01*
X183873000Y-101143000D01*
X183873000Y-101138072D01*
X184127000Y-101138072D01*
X184127000Y-101143000D01*
X184969129Y-101143000D01*
X185094126Y-100968124D01*
X185042082Y-100832894D01*
X185089502Y-100744180D01*
X185125812Y-100624482D01*
X185138072Y-100500000D01*
X185138072Y-99500000D01*
X185125812Y-99375518D01*
X185089502Y-99255820D01*
X185030537Y-99145506D01*
X184951185Y-99048815D01*
X184854494Y-98969463D01*
X184744180Y-98910498D01*
X184624482Y-98874188D01*
X184500000Y-98861928D01*
X183500000Y-98861928D01*
X183375518Y-98874188D01*
X183255820Y-98910498D01*
X183145506Y-98969463D01*
X183048815Y-99048815D01*
X182969463Y-99145506D01*
X182910498Y-99255820D01*
X182874188Y-99375518D01*
X182861928Y-99500000D01*
X159880374Y-99500000D01*
X159939591Y-99355282D01*
X159943462Y-99317609D01*
X159818731Y-99127000D01*
X158127000Y-99127000D01*
X157873000Y-99127000D01*
X156181269Y-99127000D01*
X156056538Y-99317609D01*
X154552875Y-99317609D01*
X154585000Y-99156109D01*
X154585000Y-98843891D01*
X154552876Y-98682391D01*
X156056538Y-98682391D01*
X156181269Y-98873000D01*
X157873000Y-98873000D01*
X157873000Y-97765000D01*
X158127000Y-97765000D01*
X158127000Y-98873000D01*
X159818731Y-98873000D01*
X159943462Y-98682391D01*
X159939591Y-98644718D01*
X159847421Y-98419467D01*
X159713078Y-98216526D01*
X159541725Y-98043693D01*
X159339946Y-97907610D01*
X159115496Y-97813507D01*
X158877000Y-97765000D01*
X158127000Y-97765000D01*
X157873000Y-97765000D01*
X157123000Y-97765000D01*
X156884504Y-97813507D01*
X156660054Y-97907610D01*
X156458275Y-98043693D01*
X156286922Y-98216526D01*
X156152579Y-98419467D01*
X156060409Y-98644718D01*
X156056538Y-98682391D01*
X154552876Y-98682391D01*
X154524089Y-98537673D01*
X154404609Y-98249221D01*
X154231150Y-97989621D01*
X154010379Y-97768850D01*
X153750779Y-97595391D01*
X153462327Y-97475911D01*
X153156109Y-97415000D01*
X152843891Y-97415000D01*
X152537673Y-97475911D01*
X152249221Y-97595391D01*
X151989621Y-97768850D01*
X151768850Y-97989621D01*
X151595391Y-98249221D01*
X151475911Y-98537673D01*
X151415000Y-98843891D01*
X151127000Y-98843891D01*
X151127000Y-95500000D01*
X156009025Y-95500000D01*
X156032870Y-95742102D01*
X156103489Y-95974901D01*
X156218167Y-96189449D01*
X156372498Y-96377502D01*
X156560551Y-96531833D01*
X156775099Y-96646511D01*
X157007898Y-96717130D01*
X157189335Y-96735000D01*
X158810665Y-96735000D01*
X158992102Y-96717130D01*
X159224901Y-96646511D01*
X159439449Y-96531833D01*
X159627502Y-96377502D01*
X159781609Y-96189721D01*
X177465000Y-96189721D01*
X177465000Y-96610279D01*
X177547047Y-97022756D01*
X177707988Y-97411302D01*
X177941637Y-97760983D01*
X178239017Y-98058363D01*
X178588698Y-98292012D01*
X178977244Y-98452953D01*
X179389721Y-98535000D01*
X179810279Y-98535000D01*
X180222756Y-98452953D01*
X180611302Y-98292012D01*
X180960983Y-98058363D01*
X181258363Y-97760983D01*
X181492012Y-97411302D01*
X181652953Y-97022756D01*
X181735000Y-96610279D01*
X181735000Y-96189721D01*
X181652953Y-95777244D01*
X181492012Y-95388698D01*
X181258363Y-95039017D01*
X180960983Y-94741637D01*
X180611302Y-94507988D01*
X180222756Y-94347047D01*
X179810279Y-94265000D01*
X179389721Y-94265000D01*
X178977244Y-94347047D01*
X178588698Y-94507988D01*
X178239017Y-94741637D01*
X177941637Y-95039017D01*
X177707988Y-95388698D01*
X177547047Y-95777244D01*
X177465000Y-96189721D01*
X159781609Y-96189721D01*
X159781833Y-96189449D01*
X159896511Y-95974901D01*
X159967130Y-95742102D01*
X159990975Y-95500000D01*
X159967130Y-95257898D01*
X159896511Y-95025099D01*
X159781833Y-94810551D01*
X159627502Y-94622498D01*
X159439449Y-94468167D01*
X159224901Y-94353489D01*
X158992102Y-94282870D01*
X158810665Y-94265000D01*
X157189335Y-94265000D01*
X157007898Y-94282870D01*
X156775099Y-94353489D01*
X156560551Y-94468167D01*
X156372498Y-94622498D01*
X156218167Y-94810551D01*
X156103489Y-95025099D01*
X156032870Y-95257898D01*
X156009025Y-95500000D01*
X151127000Y-95500000D01*
X151127000Y-91389721D01*
X161465000Y-91389721D01*
X161465000Y-91810279D01*
X161547047Y-92222756D01*
X161707988Y-92611302D01*
X161941637Y-92960983D01*
X162239017Y-93258363D01*
X162588698Y-93492012D01*
X162977244Y-93652953D01*
X163389721Y-93735000D01*
X163810279Y-93735000D01*
X164222756Y-93652953D01*
X164611302Y-93492012D01*
X164960983Y-93258363D01*
X165258363Y-92960983D01*
X165492012Y-92611302D01*
X165652953Y-92222756D01*
X165735000Y-91810279D01*
X165735000Y-91389721D01*
X165652953Y-90977244D01*
X165492012Y-90588698D01*
X165258363Y-90239017D01*
X164960983Y-89941637D01*
X164611302Y-89707988D01*
X164222756Y-89547047D01*
X163810279Y-89465000D01*
X163389721Y-89465000D01*
X162977244Y-89547047D01*
X162588698Y-89707988D01*
X162239017Y-89941637D01*
X161941637Y-90239017D01*
X161707988Y-90588698D01*
X161547047Y-90977244D01*
X161465000Y-91389721D01*
X151127000Y-91389721D01*
X151127000Y-84927591D01*
X151131423Y-84972499D01*
X151196324Y-85186447D01*
X151301716Y-85383623D01*
X151443551Y-85556449D01*
X151486865Y-85591996D01*
X154908009Y-89013141D01*
X154943551Y-89056449D01*
X155116377Y-89198284D01*
X155313553Y-89303676D01*
X155527501Y-89368577D01*
X155694248Y-89385000D01*
X155694257Y-89385000D01*
X155749999Y-89390490D01*
X155805741Y-89385000D01*
X162444245Y-89385000D01*
X162499996Y-89390491D01*
X162555747Y-89385000D01*
X162555748Y-89385000D01*
X162722495Y-89368577D01*
X162936443Y-89303676D01*
X163133619Y-89198284D01*
X163306445Y-89056449D01*
X163341992Y-89013136D01*
X163365407Y-88989721D01*
X177465000Y-88989721D01*
X177465000Y-89410279D01*
X177547047Y-89822756D01*
X177707988Y-90211302D01*
X177941637Y-90560983D01*
X178239017Y-90858363D01*
X178588698Y-91092012D01*
X178977244Y-91252953D01*
X179389721Y-91335000D01*
X179810279Y-91335000D01*
X180222756Y-91252953D01*
X180611302Y-91092012D01*
X180960983Y-90858363D01*
X181258363Y-90560983D01*
X181492012Y-90211302D01*
X181652953Y-89822756D01*
X181735000Y-89410279D01*
X181735000Y-88989721D01*
X181652953Y-88577244D01*
X181492012Y-88188698D01*
X181258363Y-87839017D01*
X180960983Y-87541637D01*
X180611302Y-87307988D01*
X180222756Y-87147047D01*
X179810279Y-87065000D01*
X179389721Y-87065000D01*
X178977244Y-87147047D01*
X178588698Y-87307988D01*
X178239017Y-87541637D01*
X177941637Y-87839017D01*
X177707988Y-88188698D01*
X177547047Y-88577244D01*
X177465000Y-88989721D01*
X163365407Y-88989721D01*
X164263140Y-88091988D01*
X164306449Y-88056445D01*
X164448284Y-87883619D01*
X164553676Y-87686443D01*
X164603471Y-87522291D01*
X164618577Y-87472496D01*
X164634779Y-87307988D01*
X164635000Y-87305748D01*
X164635000Y-87305741D01*
X164640490Y-87249997D01*
X164635000Y-87194253D01*
X164635000Y-84970131D01*
X165070132Y-84535000D01*
X166494239Y-84535000D01*
X166549990Y-84540491D01*
X166605741Y-84535000D01*
X166605742Y-84535000D01*
X166772489Y-84518577D01*
X166986437Y-84453676D01*
X167183613Y-84348284D01*
X167356439Y-84206449D01*
X167391986Y-84163135D01*
X172432617Y-79122505D01*
X172472499Y-79118577D01*
X172686447Y-79053676D01*
X172883623Y-78948284D01*
X173056449Y-78806449D01*
X173198284Y-78633623D01*
X173303676Y-78436447D01*
X173368577Y-78222499D01*
X173385000Y-78055752D01*
X173385000Y-77755733D01*
X173390490Y-77699991D01*
X173385000Y-77644249D01*
X173385000Y-74720131D01*
X174470132Y-73635000D01*
X189279869Y-73635000D01*
X194864982Y-79220114D01*
X194864983Y-96048924D01*
X194858363Y-96039017D01*
X194560983Y-95741637D01*
X194534999Y-95724275D01*
X194534999Y-85425912D01*
X194538675Y-85388589D01*
X194534999Y-85351266D01*
X194534999Y-85351256D01*
X194524002Y-85239603D01*
X194480545Y-85096342D01*
X194409973Y-84964313D01*
X194315000Y-84848588D01*
X194286003Y-84824791D01*
X184200188Y-74738977D01*
X184176385Y-74709973D01*
X184060660Y-74615000D01*
X183928631Y-74544428D01*
X183785370Y-74500971D01*
X183673717Y-74489974D01*
X183673706Y-74489974D01*
X183636384Y-74486298D01*
X183599062Y-74489974D01*
X183453711Y-74489974D01*
X183409774Y-74446037D01*
X183240256Y-74332769D01*
X183051898Y-74254748D01*
X182851939Y-74214974D01*
X182648061Y-74214974D01*
X182448102Y-74254748D01*
X182259744Y-74332769D01*
X182090226Y-74446037D01*
X181946063Y-74590200D01*
X181832795Y-74759718D01*
X181754774Y-74948076D01*
X181715000Y-75148035D01*
X181715000Y-75351913D01*
X181754774Y-75551872D01*
X181832795Y-75740230D01*
X181839310Y-75749981D01*
X181832795Y-75759731D01*
X181754774Y-75948089D01*
X181715000Y-76148048D01*
X181715000Y-76351926D01*
X181754774Y-76551885D01*
X181832795Y-76740243D01*
X181839308Y-76749991D01*
X181832791Y-76759744D01*
X181754770Y-76948102D01*
X181714996Y-77148061D01*
X181714996Y-77351939D01*
X181754770Y-77551898D01*
X181832791Y-77740256D01*
X181946059Y-77909774D01*
X182090222Y-78053937D01*
X182239996Y-78154013D01*
X182239997Y-95272663D01*
X182236320Y-95309996D01*
X182250994Y-95458981D01*
X182294450Y-95602242D01*
X182365022Y-95734272D01*
X182400289Y-95777244D01*
X182459996Y-95849997D01*
X182488994Y-95873795D01*
X189055000Y-102439802D01*
X189055000Y-102611788D01*
X189098617Y-102831067D01*
X189184176Y-103037624D01*
X189308388Y-103223520D01*
X189466480Y-103381612D01*
X189652376Y-103505824D01*
X189858933Y-103591383D01*
X190078212Y-103635000D01*
X190301788Y-103635000D01*
X190521067Y-103591383D01*
X190727624Y-103505824D01*
X190825000Y-103440759D01*
X190922376Y-103505824D01*
X191128933Y-103591383D01*
X191348212Y-103635000D01*
X191571788Y-103635000D01*
X191791067Y-103591383D01*
X191997624Y-103505824D01*
X192099658Y-103437647D01*
X192169794Y-103487123D01*
X192373136Y-103577446D01*
X192428126Y-103594119D01*
X192603000Y-103467954D01*
X192603000Y-102627000D01*
X192591974Y-102627000D01*
X192595000Y-102611788D01*
X192595000Y-102388212D01*
X192591974Y-102373000D01*
X192603000Y-102373000D01*
X192603000Y-101532046D01*
X192857000Y-101532046D01*
X192857000Y-102373000D01*
X192861928Y-102373000D01*
X192861928Y-102627000D01*
X192857000Y-102627000D01*
X192857000Y-103467954D01*
X193031874Y-103594119D01*
X193086864Y-103577446D01*
X193166820Y-103541930D01*
X193255820Y-103589502D01*
X193375518Y-103625812D01*
X193500000Y-103638072D01*
X194500000Y-103638072D01*
X194624482Y-103625812D01*
X194744180Y-103589502D01*
X194854494Y-103530537D01*
X194951185Y-103451185D01*
X195030537Y-103354494D01*
X195089502Y-103244180D01*
X195125812Y-103124482D01*
X195138072Y-103000000D01*
X195138072Y-102000000D01*
X195125812Y-101875518D01*
X195089502Y-101755820D01*
X195030537Y-101645506D01*
X194951185Y-101548815D01*
X194854494Y-101469463D01*
X194744180Y-101410498D01*
X194624482Y-101374188D01*
X194500000Y-101361928D01*
X193500000Y-101361928D01*
X193375518Y-101374188D01*
X193255820Y-101410498D01*
X193166820Y-101458070D01*
X193086864Y-101422554D01*
X193031874Y-101405881D01*
X192857000Y-101532046D01*
X192603000Y-101532046D01*
X192428126Y-101405881D01*
X192373136Y-101422554D01*
X192220695Y-101490267D01*
X192223676Y-101460000D01*
X192220000Y-101422677D01*
X192220000Y-101422667D01*
X192209003Y-101311014D01*
X192165546Y-101167753D01*
X192094974Y-101035724D01*
X192000001Y-100919999D01*
X191971004Y-100896202D01*
X185309990Y-94235189D01*
X185309990Y-77998381D01*
X193014999Y-85703391D01*
X193015000Y-95265000D01*
X192989721Y-95265000D01*
X192577244Y-95347047D01*
X192188698Y-95507988D01*
X191839017Y-95741637D01*
X191541637Y-96039017D01*
X191307988Y-96388698D01*
X191147047Y-96777244D01*
X191065000Y-97189721D01*
X191065000Y-97610279D01*
X191147047Y-98022756D01*
X191307988Y-98411302D01*
X191541637Y-98760983D01*
X191839017Y-99058363D01*
X192188698Y-99292012D01*
X192577244Y-99452953D01*
X192989721Y-99535000D01*
X193410279Y-99535000D01*
X193822756Y-99452953D01*
X194211302Y-99292012D01*
X194364708Y-99189510D01*
X195686200Y-100511002D01*
X195709999Y-100540001D01*
X195738997Y-100563799D01*
X195825723Y-100634974D01*
X195940498Y-100696323D01*
X195957753Y-100705546D01*
X196101014Y-100749003D01*
X196212667Y-100760000D01*
X196212677Y-100760000D01*
X196250000Y-100763676D01*
X196287322Y-100760000D01*
X198412305Y-100760000D01*
X199014233Y-101361928D01*
X198750000Y-101361928D01*
X198625518Y-101374188D01*
X198505820Y-101410498D01*
X198395506Y-101469463D01*
X198298815Y-101548815D01*
X198219463Y-101645506D01*
X198160498Y-101755820D01*
X198124188Y-101875518D01*
X198111928Y-102000000D01*
X198111928Y-103000000D01*
X198124188Y-103124482D01*
X198160498Y-103244180D01*
X198219463Y-103354494D01*
X198298815Y-103451185D01*
X198395506Y-103530537D01*
X198505820Y-103589502D01*
X198625518Y-103625812D01*
X198750000Y-103638072D01*
X199750000Y-103638072D01*
X199874482Y-103625812D01*
X199994180Y-103589502D01*
X200077226Y-103545112D01*
X200188933Y-103591383D01*
X200408212Y-103635000D01*
X200631788Y-103635000D01*
X200851067Y-103591383D01*
X201057624Y-103505824D01*
X201159658Y-103437647D01*
X201229794Y-103487123D01*
X201433136Y-103577446D01*
X201488126Y-103594119D01*
X201663000Y-103467954D01*
X201663000Y-102627000D01*
X201917000Y-102627000D01*
X201917000Y-103467954D01*
X202091874Y-103594119D01*
X202146864Y-103577446D01*
X202350206Y-103487123D01*
X202532020Y-103358865D01*
X202685318Y-103197601D01*
X202804210Y-103009529D01*
X202884126Y-102801876D01*
X202759129Y-102627000D01*
X201917000Y-102627000D01*
X201663000Y-102627000D01*
X201651974Y-102627000D01*
X201655000Y-102611788D01*
X201655000Y-102388212D01*
X201651974Y-102373000D01*
X201663000Y-102373000D01*
X201663000Y-101532046D01*
X201917000Y-101532046D01*
X201917000Y-102373000D01*
X202759129Y-102373000D01*
X202884126Y-102198124D01*
X202804210Y-101990471D01*
X202685318Y-101802399D01*
X202532020Y-101641135D01*
X202350206Y-101512877D01*
X202146864Y-101422554D01*
X202091874Y-101405881D01*
X201917000Y-101532046D01*
X201663000Y-101532046D01*
X201488126Y-101405881D01*
X201433136Y-101422554D01*
X201229794Y-101512877D01*
X201229351Y-101513190D01*
X201225546Y-101500647D01*
X201208878Y-101469463D01*
X201154974Y-101368617D01*
X201083799Y-101281891D01*
X201060001Y-101252893D01*
X201031004Y-101229096D01*
X199290910Y-99489003D01*
X199267107Y-99459999D01*
X199151382Y-99365026D01*
X199019353Y-99294454D01*
X198876092Y-99250997D01*
X198764439Y-99240000D01*
X198764428Y-99240000D01*
X198727106Y-99236324D01*
X198689784Y-99240000D01*
X196564802Y-99240000D01*
X196195988Y-98871186D01*
X196222481Y-98868577D01*
X196436429Y-98803676D01*
X196633605Y-98698284D01*
X196806431Y-98556449D01*
X196948266Y-98383623D01*
X197053658Y-98186447D01*
X197118559Y-97972499D01*
X197134982Y-97805752D01*
X197134982Y-78805723D01*
X197140472Y-78749981D01*
X197134982Y-78694239D01*
X197134982Y-78694230D01*
X197118559Y-78527483D01*
X197053658Y-78313535D01*
X196948266Y-78116359D01*
X196806431Y-77943533D01*
X196763123Y-77907991D01*
X191355131Y-72500000D01*
X195263141Y-68591991D01*
X195306449Y-68556449D01*
X195448284Y-68383623D01*
X195553676Y-68186447D01*
X195618577Y-67972499D01*
X195635000Y-67805752D01*
X195635000Y-67805743D01*
X195640490Y-67750001D01*
X195635000Y-67694259D01*
X195635000Y-64305741D01*
X195640490Y-64249999D01*
X195635000Y-64194257D01*
X195635000Y-64194248D01*
X195618577Y-64027501D01*
X195553676Y-63813553D01*
X195448284Y-63616377D01*
X195306449Y-63443551D01*
X195263141Y-63408009D01*
X192690132Y-60835000D01*
X192701939Y-60835000D01*
X192901898Y-60795226D01*
X193090256Y-60717205D01*
X193259774Y-60603937D01*
X193328711Y-60535000D01*
X195071289Y-60535000D01*
X195140226Y-60603937D01*
X195309744Y-60717205D01*
X195498102Y-60795226D01*
X195698061Y-60835000D01*
X195901939Y-60835000D01*
X196101898Y-60795226D01*
X196290256Y-60717205D01*
X196459774Y-60603937D01*
X196603937Y-60459774D01*
X196717205Y-60290256D01*
X196795226Y-60101898D01*
X196835000Y-59901939D01*
X196835000Y-59698061D01*
X196795226Y-59498102D01*
X196717205Y-59309744D01*
X196603937Y-59140226D01*
X196459774Y-58996063D01*
X196290256Y-58882795D01*
X196101898Y-58804774D01*
X195901939Y-58765000D01*
X195698061Y-58765000D01*
X195498102Y-58804774D01*
X195309744Y-58882795D01*
X195140226Y-58996063D01*
X195071289Y-59065000D01*
X193328711Y-59065000D01*
X193259774Y-58996063D01*
X193090256Y-58882795D01*
X192901898Y-58804774D01*
X192701939Y-58765000D01*
X192498061Y-58765000D01*
X192298102Y-58804774D01*
X192109744Y-58882795D01*
X191940226Y-58996063D01*
X191796063Y-59140226D01*
X191682795Y-59309744D01*
X191604774Y-59498102D01*
X191565000Y-59698061D01*
X191565000Y-59709869D01*
X189341996Y-57486865D01*
X189306449Y-57443551D01*
X189133623Y-57301716D01*
X188936447Y-57196324D01*
X188914973Y-57189810D01*
X189090256Y-57117205D01*
X189259774Y-57003937D01*
X189403937Y-56859774D01*
X189517205Y-56690256D01*
X189595226Y-56501898D01*
X189635000Y-56301939D01*
X189635000Y-56098061D01*
X189595226Y-55898102D01*
X189517205Y-55709744D01*
X189403937Y-55540226D01*
X189259774Y-55396063D01*
X189090256Y-55282795D01*
X188901898Y-55204774D01*
X188701939Y-55165000D01*
X188498061Y-55165000D01*
X188298102Y-55204774D01*
X188109744Y-55282795D01*
X187940226Y-55396063D01*
X187896289Y-55440000D01*
X163314802Y-55440000D01*
X161760000Y-53885199D01*
X161760000Y-53703711D01*
X161803937Y-53659774D01*
X161917205Y-53490256D01*
X161995226Y-53301898D01*
X162035000Y-53101939D01*
X162035000Y-52898061D01*
X161995226Y-52698102D01*
X161917205Y-52509744D01*
X161803937Y-52340226D01*
X161659774Y-52196063D01*
X161490256Y-52082795D01*
X161301898Y-52004774D01*
X161101939Y-51965000D01*
X160898061Y-51965000D01*
X160698102Y-52004774D01*
X160509744Y-52082795D01*
X160340226Y-52196063D01*
X160196063Y-52340226D01*
X160082795Y-52509744D01*
X160004774Y-52698102D01*
X159965000Y-52898061D01*
X159965000Y-53101939D01*
X160004774Y-53301898D01*
X160082795Y-53490256D01*
X160196063Y-53659774D01*
X160240001Y-53703712D01*
X160240001Y-54162668D01*
X160236324Y-54200000D01*
X160250998Y-54348985D01*
X160294454Y-54492246D01*
X160365026Y-54624276D01*
X160436201Y-54711002D01*
X160460000Y-54740001D01*
X160488998Y-54763799D01*
X162436201Y-56711003D01*
X162459999Y-56740001D01*
X162488997Y-56763799D01*
X162575723Y-56834974D01*
X162707753Y-56905546D01*
X162851014Y-56949003D01*
X162962667Y-56960000D01*
X162962676Y-56960000D01*
X162999999Y-56963676D01*
X163037322Y-56960000D01*
X187896289Y-56960000D01*
X187940226Y-57003937D01*
X188106444Y-57115000D01*
X161555752Y-57115000D01*
X161500000Y-57109509D01*
X161444248Y-57115000D01*
X161277501Y-57131423D01*
X161063553Y-57196324D01*
X160866377Y-57301716D01*
X160693551Y-57443551D01*
X160658009Y-57486859D01*
X154486863Y-63658006D01*
X154486857Y-63658011D01*
X154211864Y-63933005D01*
X154168551Y-63968551D01*
X154133011Y-64011857D01*
X151486865Y-66658004D01*
X151443551Y-66693551D01*
X151301716Y-66866377D01*
X151222140Y-67015255D01*
X151196324Y-67063554D01*
X151131423Y-67277502D01*
X151127000Y-67322410D01*
X151127000Y-44540000D01*
X171861928Y-44540000D01*
X171874188Y-44664482D01*
X171910498Y-44784180D01*
X171969463Y-44894494D01*
X172048815Y-44991185D01*
X172145506Y-45070537D01*
X172255820Y-45129502D01*
X172375518Y-45165812D01*
X172500000Y-45178072D01*
X172964250Y-45175000D01*
X173123000Y-45016250D01*
X173123000Y-42127000D01*
X173377000Y-42127000D01*
X173377000Y-45016250D01*
X173535750Y-45175000D01*
X174000000Y-45178072D01*
X174124482Y-45165812D01*
X174244180Y-45129502D01*
X174354494Y-45070537D01*
X174451185Y-44991185D01*
X174530537Y-44894494D01*
X174589502Y-44784180D01*
X174625812Y-44664482D01*
X174638072Y-44540000D01*
X180361928Y-44540000D01*
X180374188Y-44664482D01*
X180410498Y-44784180D01*
X180469463Y-44894494D01*
X180548815Y-44991185D01*
X180645506Y-45070537D01*
X180755820Y-45129502D01*
X180875518Y-45165812D01*
X181000000Y-45178072D01*
X181464250Y-45175000D01*
X181623000Y-45016250D01*
X181623000Y-42127000D01*
X181877000Y-42127000D01*
X181877000Y-45016250D01*
X182035750Y-45175000D01*
X182500000Y-45178072D01*
X182624482Y-45165812D01*
X182744180Y-45129502D01*
X182854494Y-45070537D01*
X182951185Y-44991185D01*
X183030537Y-44894494D01*
X183089502Y-44784180D01*
X183125812Y-44664482D01*
X183138072Y-44540000D01*
X183135000Y-42285750D01*
X182976250Y-42127000D01*
X181877000Y-42127000D01*
X181623000Y-42127000D01*
X180523750Y-42127000D01*
X180365000Y-42285750D01*
X180361928Y-44540000D01*
X174638072Y-44540000D01*
X174635000Y-42285750D01*
X174476250Y-42127000D01*
X173377000Y-42127000D01*
X173123000Y-42127000D01*
X172023750Y-42127000D01*
X171865000Y-42285750D01*
X171861928Y-44540000D01*
X151127000Y-44540000D01*
X151127000Y-40127000D01*
X171862837Y-40127000D01*
X171865000Y-41714250D01*
G37*
%TD.AperFunction*%
D20*
X193365001Y-64720133D02*
X193365000Y-66694248D01*
X193365000Y-67279868D01*
X189279869Y-71365000D01*
X174318387Y-71365000D01*
X174409774Y-71303937D01*
X174553937Y-71159774D01*
X174667205Y-70990256D01*
X174745226Y-70801898D01*
X174785000Y-70601939D01*
X174785000Y-70466799D01*
X177154750Y-68097050D01*
X177259744Y-68167205D01*
X177448102Y-68245226D01*
X177648061Y-68285000D01*
X177851939Y-68285000D01*
X178051898Y-68245226D01*
X178240256Y-68167205D01*
X178409774Y-68053937D01*
X178553937Y-67909774D01*
X178667205Y-67740256D01*
X178745226Y-67551898D01*
X178785000Y-67351939D01*
X178785000Y-67284999D01*
X179021290Y-67284999D01*
X179065227Y-67328936D01*
X179234745Y-67442204D01*
X179423103Y-67520225D01*
X179623062Y-67559999D01*
X179826940Y-67559999D01*
X180026899Y-67520225D01*
X180215257Y-67442204D01*
X180384775Y-67328936D01*
X180528938Y-67184773D01*
X180642206Y-67015255D01*
X180720227Y-66826897D01*
X180760001Y-66626938D01*
X180760001Y-66559998D01*
X181246291Y-66559998D01*
X181290228Y-66603935D01*
X181459746Y-66717203D01*
X181648104Y-66795224D01*
X181848063Y-66834998D01*
X182051941Y-66834998D01*
X182251900Y-66795224D01*
X182440258Y-66717203D01*
X182609776Y-66603935D01*
X182753939Y-66459772D01*
X182867207Y-66290254D01*
X182945228Y-66101896D01*
X182985002Y-65901937D01*
X182985002Y-65698059D01*
X182945228Y-65498100D01*
X182867207Y-65309742D01*
X182753939Y-65140224D01*
X182609776Y-64996061D01*
X182440258Y-64882793D01*
X182251900Y-64804772D01*
X182051941Y-64764998D01*
X181848063Y-64764998D01*
X181648104Y-64804772D01*
X181459746Y-64882793D01*
X181290228Y-64996061D01*
X181246291Y-65039998D01*
X175487324Y-65039998D01*
X175450001Y-65036322D01*
X175412679Y-65039998D01*
X175412669Y-65039998D01*
X175301016Y-65050995D01*
X175165878Y-65091988D01*
X175157755Y-65094452D01*
X175025725Y-65165024D01*
X174969159Y-65211447D01*
X174910001Y-65259997D01*
X174886203Y-65288995D01*
X171710199Y-68465000D01*
X171648061Y-68465000D01*
X171448102Y-68504774D01*
X171259744Y-68582795D01*
X171090226Y-68696063D01*
X170946063Y-68840226D01*
X170832795Y-69009744D01*
X170831710Y-69012364D01*
X170760983Y-68941637D01*
X170411302Y-68707988D01*
X170022756Y-68547047D01*
X169610279Y-68465000D01*
X169189721Y-68465000D01*
X168777244Y-68547047D01*
X168388698Y-68707988D01*
X168039017Y-68941637D01*
X167741637Y-69239017D01*
X167507988Y-69588698D01*
X167347047Y-69977244D01*
X167265000Y-70389721D01*
X167265000Y-70810279D01*
X167347047Y-71222756D01*
X167507988Y-71611302D01*
X167741637Y-71960983D01*
X168039017Y-72258363D01*
X168388698Y-72492012D01*
X168777244Y-72652953D01*
X169189721Y-72735000D01*
X169610279Y-72735000D01*
X170022756Y-72652953D01*
X170411302Y-72492012D01*
X170760983Y-72258363D01*
X171058363Y-71960983D01*
X171292012Y-71611302D01*
X171452953Y-71222756D01*
X171535000Y-70810279D01*
X171535000Y-70512511D01*
X171648061Y-70535000D01*
X171851939Y-70535000D01*
X171861430Y-70533112D01*
X171946063Y-70659774D01*
X172090226Y-70803937D01*
X172259744Y-70917205D01*
X172448102Y-70995226D01*
X172648061Y-71035000D01*
X172851939Y-71035000D01*
X172861430Y-71033112D01*
X172946063Y-71159774D01*
X173090226Y-71303937D01*
X173259744Y-71417205D01*
X173448102Y-71495226D01*
X173465565Y-71498700D01*
X173366377Y-71551716D01*
X173193551Y-71693551D01*
X173158011Y-71736857D01*
X171658012Y-73236857D01*
X171580867Y-73330858D01*
X171443551Y-73443551D01*
X171301716Y-73616377D01*
X171196324Y-73813554D01*
X171131423Y-74027502D01*
X171115000Y-74194249D01*
X171115001Y-77229857D01*
X166079859Y-82265000D01*
X164655751Y-82265000D01*
X164600000Y-82259509D01*
X164544248Y-82265000D01*
X164377501Y-82281423D01*
X164163553Y-82346324D01*
X163966377Y-82451716D01*
X163793551Y-82593551D01*
X163758011Y-82636857D01*
X162736860Y-83658009D01*
X162693552Y-83693551D01*
X162551717Y-83866377D01*
X162509124Y-83946063D01*
X162446324Y-84063554D01*
X162381423Y-84277502D01*
X162359509Y-84500000D01*
X162365001Y-84555761D01*
X162365000Y-86779864D01*
X162029865Y-87115000D01*
X156220132Y-87115000D01*
X153385000Y-84279869D01*
X153385000Y-76789721D01*
X161065000Y-76789721D01*
X161065000Y-77210279D01*
X161147047Y-77622756D01*
X161307988Y-78011302D01*
X161541637Y-78360983D01*
X161839017Y-78658363D01*
X162188698Y-78892012D01*
X162577244Y-79052953D01*
X162989721Y-79135000D01*
X163410279Y-79135000D01*
X163822756Y-79052953D01*
X164211302Y-78892012D01*
X164560983Y-78658363D01*
X164858363Y-78360983D01*
X165092012Y-78011302D01*
X165252953Y-77622756D01*
X165335000Y-77210279D01*
X165335000Y-76789721D01*
X165252953Y-76377244D01*
X165092012Y-75988698D01*
X164858363Y-75639017D01*
X164560983Y-75341637D01*
X164211302Y-75107988D01*
X163822756Y-74947047D01*
X163410279Y-74865000D01*
X162989721Y-74865000D01*
X162577244Y-74947047D01*
X162188698Y-75107988D01*
X161839017Y-75341637D01*
X161541637Y-75639017D01*
X161307988Y-75988698D01*
X161147047Y-76377244D01*
X161065000Y-76789721D01*
X153385000Y-76789721D01*
X153385000Y-71702907D01*
X153411302Y-71692012D01*
X153760983Y-71458363D01*
X154058363Y-71160983D01*
X154292012Y-70811302D01*
X154452953Y-70422756D01*
X154535000Y-70010279D01*
X154535000Y-69589721D01*
X154452953Y-69177244D01*
X154292012Y-68788698D01*
X154058363Y-68439017D01*
X153760983Y-68141637D01*
X153432787Y-67922344D01*
X154057070Y-67298061D01*
X164965000Y-67298061D01*
X164965000Y-67501939D01*
X165004774Y-67701898D01*
X165082795Y-67890256D01*
X165196063Y-68059774D01*
X165340226Y-68203937D01*
X165509744Y-68317205D01*
X165698102Y-68395226D01*
X165898061Y-68435000D01*
X166101939Y-68435000D01*
X166301898Y-68395226D01*
X166490256Y-68317205D01*
X166659774Y-68203937D01*
X166803937Y-68059774D01*
X166917205Y-67890256D01*
X166995226Y-67701898D01*
X167035000Y-67501939D01*
X167035000Y-67404446D01*
X168204447Y-66235000D01*
X168301939Y-66235000D01*
X168501898Y-66195226D01*
X168690256Y-66117205D01*
X168859774Y-66003937D01*
X169003937Y-65859774D01*
X169117205Y-65690256D01*
X169195226Y-65501898D01*
X169235000Y-65301939D01*
X169235000Y-65098061D01*
X169195226Y-64898102D01*
X169117205Y-64709744D01*
X169003937Y-64540226D01*
X168859774Y-64396063D01*
X168690256Y-64282795D01*
X168501898Y-64204774D01*
X168301939Y-64165000D01*
X168098061Y-64165000D01*
X167898102Y-64204774D01*
X167709744Y-64282795D01*
X167540226Y-64396063D01*
X167396063Y-64540226D01*
X167282795Y-64709744D01*
X167204774Y-64898102D01*
X167165000Y-65098061D01*
X167165000Y-65195553D01*
X165995554Y-66365000D01*
X165898061Y-66365000D01*
X165698102Y-66404774D01*
X165509744Y-66482795D01*
X165340226Y-66596063D01*
X165196063Y-66740226D01*
X165082795Y-66909744D01*
X165004774Y-67098102D01*
X164965000Y-67298061D01*
X154057070Y-67298061D01*
X155738141Y-65616991D01*
X155781449Y-65581449D01*
X155816995Y-65538136D01*
X156091989Y-65263143D01*
X156091994Y-65263137D01*
X161970132Y-59385000D01*
X188029869Y-59385000D01*
X193365001Y-64720133D01*
%TA.AperFunction,Conductor*%
D21*
G36*
X193365001Y-64720133D02*
G01*
X193365000Y-66694248D01*
X193365000Y-67279868D01*
X189279869Y-71365000D01*
X174318387Y-71365000D01*
X174409774Y-71303937D01*
X174553937Y-71159774D01*
X174667205Y-70990256D01*
X174745226Y-70801898D01*
X174785000Y-70601939D01*
X174785000Y-70466799D01*
X177154750Y-68097050D01*
X177259744Y-68167205D01*
X177448102Y-68245226D01*
X177648061Y-68285000D01*
X177851939Y-68285000D01*
X178051898Y-68245226D01*
X178240256Y-68167205D01*
X178409774Y-68053937D01*
X178553937Y-67909774D01*
X178667205Y-67740256D01*
X178745226Y-67551898D01*
X178785000Y-67351939D01*
X178785000Y-67284999D01*
X179021290Y-67284999D01*
X179065227Y-67328936D01*
X179234745Y-67442204D01*
X179423103Y-67520225D01*
X179623062Y-67559999D01*
X179826940Y-67559999D01*
X180026899Y-67520225D01*
X180215257Y-67442204D01*
X180384775Y-67328936D01*
X180528938Y-67184773D01*
X180642206Y-67015255D01*
X180720227Y-66826897D01*
X180760001Y-66626938D01*
X180760001Y-66559998D01*
X181246291Y-66559998D01*
X181290228Y-66603935D01*
X181459746Y-66717203D01*
X181648104Y-66795224D01*
X181848063Y-66834998D01*
X182051941Y-66834998D01*
X182251900Y-66795224D01*
X182440258Y-66717203D01*
X182609776Y-66603935D01*
X182753939Y-66459772D01*
X182867207Y-66290254D01*
X182945228Y-66101896D01*
X182985002Y-65901937D01*
X182985002Y-65698059D01*
X182945228Y-65498100D01*
X182867207Y-65309742D01*
X182753939Y-65140224D01*
X182609776Y-64996061D01*
X182440258Y-64882793D01*
X182251900Y-64804772D01*
X182051941Y-64764998D01*
X181848063Y-64764998D01*
X181648104Y-64804772D01*
X181459746Y-64882793D01*
X181290228Y-64996061D01*
X181246291Y-65039998D01*
X175487324Y-65039998D01*
X175450001Y-65036322D01*
X175412679Y-65039998D01*
X175412669Y-65039998D01*
X175301016Y-65050995D01*
X175165878Y-65091988D01*
X175157755Y-65094452D01*
X175025725Y-65165024D01*
X174969159Y-65211447D01*
X174910001Y-65259997D01*
X174886203Y-65288995D01*
X171710199Y-68465000D01*
X171648061Y-68465000D01*
X171448102Y-68504774D01*
X171259744Y-68582795D01*
X171090226Y-68696063D01*
X170946063Y-68840226D01*
X170832795Y-69009744D01*
X170831710Y-69012364D01*
X170760983Y-68941637D01*
X170411302Y-68707988D01*
X170022756Y-68547047D01*
X169610279Y-68465000D01*
X169189721Y-68465000D01*
X168777244Y-68547047D01*
X168388698Y-68707988D01*
X168039017Y-68941637D01*
X167741637Y-69239017D01*
X167507988Y-69588698D01*
X167347047Y-69977244D01*
X167265000Y-70389721D01*
X167265000Y-70810279D01*
X167347047Y-71222756D01*
X167507988Y-71611302D01*
X167741637Y-71960983D01*
X168039017Y-72258363D01*
X168388698Y-72492012D01*
X168777244Y-72652953D01*
X169189721Y-72735000D01*
X169610279Y-72735000D01*
X170022756Y-72652953D01*
X170411302Y-72492012D01*
X170760983Y-72258363D01*
X171058363Y-71960983D01*
X171292012Y-71611302D01*
X171452953Y-71222756D01*
X171535000Y-70810279D01*
X171535000Y-70512511D01*
X171648061Y-70535000D01*
X171851939Y-70535000D01*
X171861430Y-70533112D01*
X171946063Y-70659774D01*
X172090226Y-70803937D01*
X172259744Y-70917205D01*
X172448102Y-70995226D01*
X172648061Y-71035000D01*
X172851939Y-71035000D01*
X172861430Y-71033112D01*
X172946063Y-71159774D01*
X173090226Y-71303937D01*
X173259744Y-71417205D01*
X173448102Y-71495226D01*
X173465565Y-71498700D01*
X173366377Y-71551716D01*
X173193551Y-71693551D01*
X173158011Y-71736857D01*
X171658012Y-73236857D01*
X171580867Y-73330858D01*
X171443551Y-73443551D01*
X171301716Y-73616377D01*
X171196324Y-73813554D01*
X171131423Y-74027502D01*
X171115000Y-74194249D01*
X171115001Y-77229857D01*
X166079859Y-82265000D01*
X164655751Y-82265000D01*
X164600000Y-82259509D01*
X164544248Y-82265000D01*
X164377501Y-82281423D01*
X164163553Y-82346324D01*
X163966377Y-82451716D01*
X163793551Y-82593551D01*
X163758011Y-82636857D01*
X162736860Y-83658009D01*
X162693552Y-83693551D01*
X162551717Y-83866377D01*
X162509124Y-83946063D01*
X162446324Y-84063554D01*
X162381423Y-84277502D01*
X162359509Y-84500000D01*
X162365001Y-84555761D01*
X162365000Y-86779864D01*
X162029865Y-87115000D01*
X156220132Y-87115000D01*
X153385000Y-84279869D01*
X153385000Y-76789721D01*
X161065000Y-76789721D01*
X161065000Y-77210279D01*
X161147047Y-77622756D01*
X161307988Y-78011302D01*
X161541637Y-78360983D01*
X161839017Y-78658363D01*
X162188698Y-78892012D01*
X162577244Y-79052953D01*
X162989721Y-79135000D01*
X163410279Y-79135000D01*
X163822756Y-79052953D01*
X164211302Y-78892012D01*
X164560983Y-78658363D01*
X164858363Y-78360983D01*
X165092012Y-78011302D01*
X165252953Y-77622756D01*
X165335000Y-77210279D01*
X165335000Y-76789721D01*
X165252953Y-76377244D01*
X165092012Y-75988698D01*
X164858363Y-75639017D01*
X164560983Y-75341637D01*
X164211302Y-75107988D01*
X163822756Y-74947047D01*
X163410279Y-74865000D01*
X162989721Y-74865000D01*
X162577244Y-74947047D01*
X162188698Y-75107988D01*
X161839017Y-75341637D01*
X161541637Y-75639017D01*
X161307988Y-75988698D01*
X161147047Y-76377244D01*
X161065000Y-76789721D01*
X153385000Y-76789721D01*
X153385000Y-71702907D01*
X153411302Y-71692012D01*
X153760983Y-71458363D01*
X154058363Y-71160983D01*
X154292012Y-70811302D01*
X154452953Y-70422756D01*
X154535000Y-70010279D01*
X154535000Y-69589721D01*
X154452953Y-69177244D01*
X154292012Y-68788698D01*
X154058363Y-68439017D01*
X153760983Y-68141637D01*
X153432787Y-67922344D01*
X154057070Y-67298061D01*
X164965000Y-67298061D01*
X164965000Y-67501939D01*
X165004774Y-67701898D01*
X165082795Y-67890256D01*
X165196063Y-68059774D01*
X165340226Y-68203937D01*
X165509744Y-68317205D01*
X165698102Y-68395226D01*
X165898061Y-68435000D01*
X166101939Y-68435000D01*
X166301898Y-68395226D01*
X166490256Y-68317205D01*
X166659774Y-68203937D01*
X166803937Y-68059774D01*
X166917205Y-67890256D01*
X166995226Y-67701898D01*
X167035000Y-67501939D01*
X167035000Y-67404446D01*
X168204447Y-66235000D01*
X168301939Y-66235000D01*
X168501898Y-66195226D01*
X168690256Y-66117205D01*
X168859774Y-66003937D01*
X169003937Y-65859774D01*
X169117205Y-65690256D01*
X169195226Y-65501898D01*
X169235000Y-65301939D01*
X169235000Y-65098061D01*
X169195226Y-64898102D01*
X169117205Y-64709744D01*
X169003937Y-64540226D01*
X168859774Y-64396063D01*
X168690256Y-64282795D01*
X168501898Y-64204774D01*
X168301939Y-64165000D01*
X168098061Y-64165000D01*
X167898102Y-64204774D01*
X167709744Y-64282795D01*
X167540226Y-64396063D01*
X167396063Y-64540226D01*
X167282795Y-64709744D01*
X167204774Y-64898102D01*
X167165000Y-65098061D01*
X167165000Y-65195553D01*
X165995554Y-66365000D01*
X165898061Y-66365000D01*
X165698102Y-66404774D01*
X165509744Y-66482795D01*
X165340226Y-66596063D01*
X165196063Y-66740226D01*
X165082795Y-66909744D01*
X165004774Y-67098102D01*
X164965000Y-67298061D01*
X154057070Y-67298061D01*
X155738141Y-65616991D01*
X155781449Y-65581449D01*
X155816995Y-65538136D01*
X156091989Y-65263143D01*
X156091994Y-65263137D01*
X161970132Y-59385000D01*
X188029869Y-59385000D01*
X193365001Y-64720133D01*
G37*
%TD.AperFunction*%
%TD*%
M02*
