M48
; DRILL file {KiCad 5.1.10-88a1d61d58~90~ubuntu20.04.1} date Thu Feb 10 11:47:36 2022
; FORMAT={-:-/ absolute / inch / decimal}
; #@! TF.CreationDate,2022-02-10T11:47:36-08:00
; #@! TF.GenerationSoftware,Kicad,Pcbnew,5.1.10-88a1d61d58~90~ubuntu20.04.1
; #@! TF.FileFunction,Plated,1,2,PTH
FMAT,2
INCH
T1C0.0157
T2C0.0236
T3C0.0256
T4C0.0512
T5C0.0787
%
G90
G05
T1
X5.9941Y-3.2283
X5.9941Y-3.3366
X6.063Y-3.1791
X6.063Y-3.5236
X6.1014Y-2.5502
X6.1496Y-2.0866
X6.1909Y-2.372
X6.2106Y-3.2677
X6.2205Y-3.4744
X6.3386Y-2.0866
X6.3878Y-1.8799
X6.437Y-3.435
X6.4803Y-3.2835
X6.5354Y-2.6535
X6.6043Y-2.9232
X6.6043Y-3.0512
X6.622Y-2.5669
X6.6634Y-2.126
X6.7618Y-2.7362
X6.7815Y-2.9232
X6.7815Y-3.0591
X6.7815Y-3.2972
X6.8012Y-2.7559
X6.8209Y-1.8209
X6.8406Y-2.7756
X6.8406Y-3.2972
X6.8406Y-3.376
X6.8898Y-3.9055
X6.9094Y-3.2087
X6.9193Y-2.9823
X6.9291Y-2.126
X6.9685Y-2.687
X6.9882Y-2.8543
X6.998Y-2.6476
X7.0177Y-2.9823
X7.0177Y-3.0807
X7.0374Y-2.687
X7.0758Y-2.6191
X7.1063Y-2.687
X7.1555Y-1.8209
X7.1555Y-2.8543
X7.1634Y-2.5906
X7.1744Y-3.987
X7.1752Y-2.687
X7.185Y-2.2933
X7.1949Y-3.0413
X7.1949Y-2.9626
X7.1949Y-3.002
X7.2146Y-2.8543
X7.2183Y-2.3955
X7.2441Y-2.687
X7.2835Y-2.8543
X7.313Y-2.9134
X7.313Y-3.0906
X7.3701Y-2.1673
X7.3701Y-2.3543
X7.4213Y-2.2933
X7.4252Y-2.2126
X7.4705Y-2.8543
X7.5197Y-2.9921
X7.5197Y-3.1693
X7.5827Y-2.3543
X7.6575Y-2.628
X7.6575Y-3.5236
X7.7087Y-2.3543
X7.7165Y-3.8484
X7.8445Y-3.0906
X7.8484Y-3.7343
X7.8937Y-3.3366
X7.8937Y-3.5138
X7.9213Y-1.7008
T3
X7.2441Y-3.937
X7.2441Y-3.987
X7.4878Y-4.0354
X7.5378Y-4.0354
X7.5878Y-4.0354
X7.6378Y-4.0354
X7.8445Y-4.0354
X7.8945Y-4.0354
X7.9445Y-4.0354
T4
X6.0236Y-3.8976
T5
X6.0Y-2.748
X6.4252Y-3.0315
X6.4409Y-3.6063
X6.6693Y-2.7795
X7.0709Y-3.5118
X7.0709Y-3.7953
X7.6063Y-3.8346
T2
G00X6.1969Y-3.7598
M15
G01X6.2441Y-3.7598
M16
G05
G00X6.1969Y-3.8976
M15
G01X6.2441Y-3.8976
M16
G05
G00X6.1969Y-4.0551
M15
G01X6.2441Y-4.0551
M16
G05
T0
M30
