%TF.GenerationSoftware,KiCad,Pcbnew,5.1.10-88a1d61d58~90~ubuntu20.04.1*%
%TF.CreationDate,2022-02-11T12:02:36-08:00*%
%TF.ProjectId,RP2040_WEDS,52503230-3430-45f5-9745-44532e6b6963,rev?*%
%TF.SameCoordinates,Original*%
%TF.FileFunction,Soldermask,Bot*%
%TF.FilePolarity,Negative*%
%FSLAX46Y46*%
G04 Gerber Fmt 4.6, Leading zero omitted, Abs format (unit mm)*
G04 Created by KiCad (PCBNEW 5.1.10-88a1d61d58~90~ubuntu20.04.1) date 2022-02-11 12:02:36*
%MOMM*%
%LPD*%
G01*
G04 APERTURE LIST*
%ADD10C,2.101600*%
%ADD11O,1.101600X1.101600*%
%ADD12O,2.801600X1.301600*%
%ADD13C,2.001600*%
G04 APERTURE END LIST*
D10*
%TO.C,LORA_RX*%
X163400000Y-70000000D03*
%TD*%
%TO.C,LORA_TX*%
X169200000Y-69800000D03*
%TD*%
%TO.C,SOIL SIG*%
X193200000Y-97400000D03*
%TD*%
%TO.C,VDD*%
X154100000Y-72800000D03*
%TD*%
%TO.C,3V3*%
X179600000Y-89200000D03*
%TD*%
%TO.C,BATT*%
X179600000Y-96400000D03*
%TD*%
%TO.C,VDC*%
X163600000Y-91600000D03*
%TD*%
%TO.C,J6*%
G36*
G01*
X182550800Y-39460000D02*
X182550800Y-44540000D01*
G75*
G02*
X182500000Y-44590800I-50800J0D01*
G01*
X181000000Y-44590800D01*
G75*
G02*
X180949200Y-44540000I0J50800D01*
G01*
X180949200Y-39460000D01*
G75*
G02*
X181000000Y-39409200I50800J0D01*
G01*
X182500000Y-39409200D01*
G75*
G02*
X182550800Y-39460000I0J-50800D01*
G01*
G37*
G36*
G01*
X174050800Y-39460000D02*
X174050800Y-44540000D01*
G75*
G02*
X174000000Y-44590800I-50800J0D01*
G01*
X172500000Y-44590800D01*
G75*
G02*
X172449200Y-44540000I0J50800D01*
G01*
X172449200Y-39460000D01*
G75*
G02*
X172500000Y-39409200I50800J0D01*
G01*
X174000000Y-39409200D01*
G75*
G02*
X174050800Y-39460000I0J-50800D01*
G01*
G37*
%TD*%
D11*
%TO.C,I2C*%
X190190000Y-102500000D03*
X191460000Y-102500000D03*
X192730000Y-102500000D03*
G36*
G01*
X193500000Y-101949200D02*
X194500000Y-101949200D01*
G75*
G02*
X194550800Y-102000000I0J-50800D01*
G01*
X194550800Y-103000000D01*
G75*
G02*
X194500000Y-103050800I-50800J0D01*
G01*
X193500000Y-103050800D01*
G75*
G02*
X193449200Y-103000000I0J50800D01*
G01*
X193449200Y-102000000D01*
G75*
G02*
X193500000Y-101949200I50800J0D01*
G01*
G37*
%TD*%
%TO.C,J3*%
X184000000Y-101270000D03*
G36*
G01*
X183500000Y-99449200D02*
X184500000Y-99449200D01*
G75*
G02*
X184550800Y-99500000I0J-50800D01*
G01*
X184550800Y-100500000D01*
G75*
G02*
X184500000Y-100550800I-50800J0D01*
G01*
X183500000Y-100550800D01*
G75*
G02*
X183449200Y-100500000I0J50800D01*
G01*
X183449200Y-99500000D01*
G75*
G02*
X183500000Y-99449200I50800J0D01*
G01*
G37*
%TD*%
%TO.C,ANALOG*%
X201790000Y-102500000D03*
X200520000Y-102500000D03*
G36*
G01*
X199750000Y-103050800D02*
X198750000Y-103050800D01*
G75*
G02*
X198699200Y-103000000I0J50800D01*
G01*
X198699200Y-102000000D01*
G75*
G02*
X198750000Y-101949200I50800J0D01*
G01*
X199750000Y-101949200D01*
G75*
G02*
X199800800Y-102000000I0J-50800D01*
G01*
X199800800Y-103000000D01*
G75*
G02*
X199750000Y-103050800I-50800J0D01*
G01*
G37*
%TD*%
D12*
%TO.C,J1*%
X158000000Y-103000000D03*
X158000000Y-99000000D03*
X158000000Y-95500000D03*
D13*
X153000000Y-99000000D03*
%TD*%
M02*
