%TF.GenerationSoftware,KiCad,Pcbnew,6.0.2-378541a8eb~116~ubuntu20.04.1*%
%TF.CreationDate,2022-03-07T12:50:51-08:00*%
%TF.ProjectId,RP2040_WEDS,52503230-3430-45f5-9745-44532e6b6963,rev?*%
%TF.SameCoordinates,Original*%
%TF.FileFunction,Legend,Bot*%
%TF.FilePolarity,Positive*%
%FSLAX46Y46*%
G04 Gerber Fmt 4.6, Leading zero omitted, Abs format (unit mm)*
G04 Created by KiCad (PCBNEW 6.0.2-378541a8eb~116~ubuntu20.04.1) date 2022-03-07 12:50:51*
%MOMM*%
%LPD*%
G01*
G04 APERTURE LIST*
%ADD10C,0.150000*%
%ADD11C,0.120000*%
G04 APERTURE END LIST*
D10*
X173404642Y-68942380D02*
X173166547Y-69942380D01*
X172976071Y-69228095D01*
X172785595Y-69942380D01*
X172547500Y-68942380D01*
X172166547Y-69942380D02*
X172166547Y-69275714D01*
X172166547Y-68942380D02*
X172214166Y-68990000D01*
X172166547Y-69037619D01*
X172118928Y-68990000D01*
X172166547Y-68942380D01*
X172166547Y-69037619D01*
X171547500Y-69942380D02*
X171642738Y-69894761D01*
X171690357Y-69799523D01*
X171690357Y-68942380D01*
X170737976Y-69942380D02*
X170737976Y-68942380D01*
X170737976Y-69894761D02*
X170833214Y-69942380D01*
X171023690Y-69942380D01*
X171118928Y-69894761D01*
X171166547Y-69847142D01*
X171214166Y-69751904D01*
X171214166Y-69466190D01*
X171166547Y-69370952D01*
X171118928Y-69323333D01*
X171023690Y-69275714D01*
X170833214Y-69275714D01*
X170737976Y-69323333D01*
X170261785Y-69418571D02*
X169928452Y-69418571D01*
X169785595Y-69942380D02*
X170261785Y-69942380D01*
X170261785Y-68942380D01*
X169785595Y-68942380D01*
X169357023Y-69942380D02*
X169357023Y-68942380D01*
X169118928Y-68942380D01*
X168976071Y-68990000D01*
X168880833Y-69085238D01*
X168833214Y-69180476D01*
X168785595Y-69370952D01*
X168785595Y-69513809D01*
X168833214Y-69704285D01*
X168880833Y-69799523D01*
X168976071Y-69894761D01*
X169118928Y-69942380D01*
X169357023Y-69942380D01*
X168404642Y-69894761D02*
X168261785Y-69942380D01*
X168023690Y-69942380D01*
X167928452Y-69894761D01*
X167880833Y-69847142D01*
X167833214Y-69751904D01*
X167833214Y-69656666D01*
X167880833Y-69561428D01*
X167928452Y-69513809D01*
X168023690Y-69466190D01*
X168214166Y-69418571D01*
X168309404Y-69370952D01*
X168357023Y-69323333D01*
X168404642Y-69228095D01*
X168404642Y-69132857D01*
X168357023Y-69037619D01*
X168309404Y-68990000D01*
X168214166Y-68942380D01*
X167976071Y-68942380D01*
X167833214Y-68990000D01*
X166737976Y-69275714D02*
X166499880Y-69942380D01*
X166261785Y-69275714D01*
X165357023Y-69942380D02*
X165928452Y-69942380D01*
X165642738Y-69942380D02*
X165642738Y-68942380D01*
X165737976Y-69085238D01*
X165833214Y-69180476D01*
X165928452Y-69228095D01*
X164928452Y-69847142D02*
X164880833Y-69894761D01*
X164928452Y-69942380D01*
X164976071Y-69894761D01*
X164928452Y-69847142D01*
X164928452Y-69942380D01*
X164499880Y-69037619D02*
X164452261Y-68990000D01*
X164357023Y-68942380D01*
X164118928Y-68942380D01*
X164023690Y-68990000D01*
X163976071Y-69037619D01*
X163928452Y-69132857D01*
X163928452Y-69228095D01*
X163976071Y-69370952D01*
X164547500Y-69942380D01*
X163928452Y-69942380D01*
X172976071Y-71028571D02*
X172833214Y-71076190D01*
X172785595Y-71123809D01*
X172737976Y-71219047D01*
X172737976Y-71361904D01*
X172785595Y-71457142D01*
X172833214Y-71504761D01*
X172928452Y-71552380D01*
X173309404Y-71552380D01*
X173309404Y-70552380D01*
X172976071Y-70552380D01*
X172880833Y-70600000D01*
X172833214Y-70647619D01*
X172785595Y-70742857D01*
X172785595Y-70838095D01*
X172833214Y-70933333D01*
X172880833Y-70980952D01*
X172976071Y-71028571D01*
X173309404Y-71028571D01*
X171880833Y-71552380D02*
X171880833Y-71028571D01*
X171928452Y-70933333D01*
X172023690Y-70885714D01*
X172214166Y-70885714D01*
X172309404Y-70933333D01*
X171880833Y-71504761D02*
X171976071Y-71552380D01*
X172214166Y-71552380D01*
X172309404Y-71504761D01*
X172357023Y-71409523D01*
X172357023Y-71314285D01*
X172309404Y-71219047D01*
X172214166Y-71171428D01*
X171976071Y-71171428D01*
X171880833Y-71123809D01*
X171261785Y-71552380D02*
X171357023Y-71504761D01*
X171404642Y-71409523D01*
X171404642Y-70552380D01*
X170452261Y-71552380D02*
X170452261Y-70552380D01*
X170452261Y-71504761D02*
X170547500Y-71552380D01*
X170737976Y-71552380D01*
X170833214Y-71504761D01*
X170880833Y-71457142D01*
X170928452Y-71361904D01*
X170928452Y-71076190D01*
X170880833Y-70980952D01*
X170833214Y-70933333D01*
X170737976Y-70885714D01*
X170547500Y-70885714D01*
X170452261Y-70933333D01*
X169595119Y-71504761D02*
X169690357Y-71552380D01*
X169880833Y-71552380D01*
X169976071Y-71504761D01*
X170023690Y-71409523D01*
X170023690Y-71028571D01*
X169976071Y-70933333D01*
X169880833Y-70885714D01*
X169690357Y-70885714D01*
X169595119Y-70933333D01*
X169547500Y-71028571D01*
X169547500Y-71123809D01*
X170023690Y-71219047D01*
X168737976Y-71504761D02*
X168833214Y-71552380D01*
X169023690Y-71552380D01*
X169118928Y-71504761D01*
X169166547Y-71409523D01*
X169166547Y-71028571D01*
X169118928Y-70933333D01*
X169023690Y-70885714D01*
X168833214Y-70885714D01*
X168737976Y-70933333D01*
X168690357Y-71028571D01*
X168690357Y-71123809D01*
X169166547Y-71219047D01*
X168261785Y-70885714D02*
X168261785Y-71885714D01*
X168261785Y-70933333D02*
X168166547Y-70885714D01*
X167976071Y-70885714D01*
X167880833Y-70933333D01*
X167833214Y-70980952D01*
X167785595Y-71076190D01*
X167785595Y-71361904D01*
X167833214Y-71457142D01*
X167880833Y-71504761D01*
X167976071Y-71552380D01*
X168166547Y-71552380D01*
X168261785Y-71504761D01*
X166595119Y-71552380D02*
X166595119Y-70552380D01*
X166214166Y-70552380D01*
X166118928Y-70600000D01*
X166071309Y-70647619D01*
X166023690Y-70742857D01*
X166023690Y-70885714D01*
X166071309Y-70980952D01*
X166118928Y-71028571D01*
X166214166Y-71076190D01*
X166595119Y-71076190D01*
X165166547Y-71552380D02*
X165166547Y-71028571D01*
X165214166Y-70933333D01*
X165309404Y-70885714D01*
X165499880Y-70885714D01*
X165595119Y-70933333D01*
X165166547Y-71504761D02*
X165261785Y-71552380D01*
X165499880Y-71552380D01*
X165595119Y-71504761D01*
X165642738Y-71409523D01*
X165642738Y-71314285D01*
X165595119Y-71219047D01*
X165499880Y-71171428D01*
X165261785Y-71171428D01*
X165166547Y-71123809D01*
X164690357Y-70885714D02*
X164690357Y-71552380D01*
X164690357Y-70980952D02*
X164642738Y-70933333D01*
X164547500Y-70885714D01*
X164404642Y-70885714D01*
X164309404Y-70933333D01*
X164261785Y-71028571D01*
X164261785Y-71552380D01*
X163785595Y-70885714D02*
X163785595Y-71552380D01*
X163785595Y-70980952D02*
X163737976Y-70933333D01*
X163642738Y-70885714D01*
X163499880Y-70885714D01*
X163404642Y-70933333D01*
X163357023Y-71028571D01*
X163357023Y-71552380D01*
X162452261Y-70885714D02*
X162452261Y-71552380D01*
X162880833Y-70885714D02*
X162880833Y-71409523D01*
X162833214Y-71504761D01*
X162737976Y-71552380D01*
X162595119Y-71552380D01*
X162499880Y-71504761D01*
X162452261Y-71457142D01*
X173023690Y-72162380D02*
X173023690Y-72876666D01*
X173071309Y-73019523D01*
X173166547Y-73114761D01*
X173309404Y-73162380D01*
X173404642Y-73162380D01*
X172404642Y-73162380D02*
X172499880Y-73114761D01*
X172547500Y-73067142D01*
X172595119Y-72971904D01*
X172595119Y-72686190D01*
X172547500Y-72590952D01*
X172499880Y-72543333D01*
X172404642Y-72495714D01*
X172261785Y-72495714D01*
X172166547Y-72543333D01*
X172118928Y-72590952D01*
X172071309Y-72686190D01*
X172071309Y-72971904D01*
X172118928Y-73067142D01*
X172166547Y-73114761D01*
X172261785Y-73162380D01*
X172404642Y-73162380D01*
X171690357Y-73114761D02*
X171595119Y-73162380D01*
X171404642Y-73162380D01*
X171309404Y-73114761D01*
X171261785Y-73019523D01*
X171261785Y-72971904D01*
X171309404Y-72876666D01*
X171404642Y-72829047D01*
X171547500Y-72829047D01*
X171642738Y-72781428D01*
X171690357Y-72686190D01*
X171690357Y-72638571D01*
X171642738Y-72543333D01*
X171547500Y-72495714D01*
X171404642Y-72495714D01*
X171309404Y-72543333D01*
X170880833Y-73114761D02*
X170785595Y-73162380D01*
X170595119Y-73162380D01*
X170499880Y-73114761D01*
X170452261Y-73019523D01*
X170452261Y-72971904D01*
X170499880Y-72876666D01*
X170595119Y-72829047D01*
X170737976Y-72829047D01*
X170833214Y-72781428D01*
X170880833Y-72686190D01*
X170880833Y-72638571D01*
X170833214Y-72543333D01*
X170737976Y-72495714D01*
X170595119Y-72495714D01*
X170499880Y-72543333D01*
X168690357Y-73067142D02*
X168737976Y-73114761D01*
X168880833Y-73162380D01*
X168976071Y-73162380D01*
X169118928Y-73114761D01*
X169214166Y-73019523D01*
X169261785Y-72924285D01*
X169309404Y-72733809D01*
X169309404Y-72590952D01*
X169261785Y-72400476D01*
X169214166Y-72305238D01*
X169118928Y-72210000D01*
X168976071Y-72162380D01*
X168880833Y-72162380D01*
X168737976Y-72210000D01*
X168690357Y-72257619D01*
X168261785Y-73162380D02*
X168261785Y-72162380D01*
X167833214Y-73162380D02*
X167833214Y-72638571D01*
X167880833Y-72543333D01*
X167976071Y-72495714D01*
X168118928Y-72495714D01*
X168214166Y-72543333D01*
X168261785Y-72590952D01*
X166928452Y-73162380D02*
X166928452Y-72638571D01*
X166976071Y-72543333D01*
X167071309Y-72495714D01*
X167261785Y-72495714D01*
X167357023Y-72543333D01*
X166928452Y-73114761D02*
X167023690Y-73162380D01*
X167261785Y-73162380D01*
X167357023Y-73114761D01*
X167404642Y-73019523D01*
X167404642Y-72924285D01*
X167357023Y-72829047D01*
X167261785Y-72781428D01*
X167023690Y-72781428D01*
X166928452Y-72733809D01*
X166452261Y-72495714D02*
X166452261Y-73162380D01*
X166452261Y-72590952D02*
X166404642Y-72543333D01*
X166309404Y-72495714D01*
X166166547Y-72495714D01*
X166071309Y-72543333D01*
X166023690Y-72638571D01*
X166023690Y-73162380D01*
X165118928Y-73162380D02*
X165118928Y-72162380D01*
X165118928Y-73114761D02*
X165214166Y-73162380D01*
X165404642Y-73162380D01*
X165499880Y-73114761D01*
X165547500Y-73067142D01*
X165595119Y-72971904D01*
X165595119Y-72686190D01*
X165547500Y-72590952D01*
X165499880Y-72543333D01*
X165404642Y-72495714D01*
X165214166Y-72495714D01*
X165118928Y-72543333D01*
X164499880Y-73162380D02*
X164595119Y-73114761D01*
X164642738Y-73019523D01*
X164642738Y-72162380D01*
X163737976Y-73114761D02*
X163833214Y-73162380D01*
X164023690Y-73162380D01*
X164118928Y-73114761D01*
X164166547Y-73019523D01*
X164166547Y-72638571D01*
X164118928Y-72543333D01*
X164023690Y-72495714D01*
X163833214Y-72495714D01*
X163737976Y-72543333D01*
X163690357Y-72638571D01*
X163690357Y-72733809D01*
X164166547Y-72829047D01*
X163261785Y-73162380D02*
X163261785Y-72495714D01*
X163261785Y-72686190D02*
X163214166Y-72590952D01*
X163166547Y-72543333D01*
X163071309Y-72495714D01*
X162976071Y-72495714D01*
%TO.C,G\u002A\u002A\u002A*%
G36*
X157191350Y-118925890D02*
G01*
X157259778Y-118956557D01*
X157334173Y-119005093D01*
X157346255Y-119014369D01*
X157535448Y-119160754D01*
X157692450Y-119285181D01*
X157826691Y-119395831D01*
X157947601Y-119500885D01*
X158064612Y-119608522D01*
X158187151Y-119726922D01*
X158324650Y-119864264D01*
X158398008Y-119938584D01*
X158535294Y-120080694D01*
X158640874Y-120197364D01*
X158718879Y-120295848D01*
X158773436Y-120383402D01*
X158808676Y-120467283D01*
X158828727Y-120554744D01*
X158837718Y-120653043D01*
X158839780Y-120769436D01*
X158839777Y-120774576D01*
X158837350Y-120900906D01*
X158828792Y-120990774D01*
X158811712Y-121059181D01*
X158783719Y-121121128D01*
X158767233Y-121150161D01*
X158660484Y-121283087D01*
X158519290Y-121380556D01*
X158339231Y-121445796D01*
X158190192Y-121464399D01*
X158008564Y-121444404D01*
X157829647Y-121383725D01*
X157663575Y-121287164D01*
X157520481Y-121159525D01*
X157410497Y-121005609D01*
X157405601Y-120996507D01*
X157370466Y-120920323D01*
X157345578Y-120837744D01*
X157327307Y-120733538D01*
X157312022Y-120592467D01*
X157291598Y-120408941D01*
X157263382Y-120250411D01*
X157225390Y-120121759D01*
X157174168Y-120011497D01*
X157106262Y-119908137D01*
X157047358Y-119821122D01*
X156987361Y-119700678D01*
X156962865Y-119597971D01*
X156976386Y-119520504D01*
X156989063Y-119502674D01*
X157038817Y-119474778D01*
X157127156Y-119461780D01*
X157166308Y-119458896D01*
X157221350Y-119449523D01*
X157242449Y-119429902D01*
X157242128Y-119392485D01*
X157238222Y-119372667D01*
X157216479Y-119300084D01*
X157184891Y-119217695D01*
X157173960Y-119190963D01*
X157140756Y-119095500D01*
X157118966Y-119012031D01*
X157118600Y-119010071D01*
X157110861Y-118949937D01*
X157123319Y-118925030D01*
X157163177Y-118920426D01*
X157191350Y-118925890D01*
G37*
G36*
X126659727Y-119910154D02*
G01*
X126727621Y-119927527D01*
X126830833Y-119967810D01*
X126961612Y-120027324D01*
X127112205Y-120102393D01*
X127274862Y-120189337D01*
X127441831Y-120284478D01*
X127445595Y-120286691D01*
X127565949Y-120355389D01*
X127713856Y-120436902D01*
X127870912Y-120521217D01*
X128018716Y-120598323D01*
X128071272Y-120625443D01*
X128275329Y-120736427D01*
X128444354Y-120840225D01*
X128589877Y-120944980D01*
X128723427Y-121058833D01*
X128856537Y-121189926D01*
X128924575Y-121262871D01*
X129107812Y-121488732D01*
X129252335Y-121722050D01*
X129366015Y-121976963D01*
X129456725Y-122267606D01*
X129482694Y-122373338D01*
X129504001Y-122484097D01*
X129517150Y-122596325D01*
X129524026Y-122726878D01*
X129526509Y-122892615D01*
X129526556Y-122909927D01*
X129524227Y-123061019D01*
X129517670Y-123208214D01*
X129507816Y-123335451D01*
X129495595Y-123426666D01*
X129431294Y-123667780D01*
X129316621Y-123943655D01*
X129165307Y-124204840D01*
X128984766Y-124436678D01*
X128976994Y-124445209D01*
X128891863Y-124534104D01*
X128802758Y-124617392D01*
X128704318Y-124698619D01*
X128591182Y-124781333D01*
X128457987Y-124869081D01*
X128299375Y-124965410D01*
X128109981Y-125073868D01*
X127884447Y-125198000D01*
X127617410Y-125341356D01*
X127466954Y-125422142D01*
X127267567Y-125532486D01*
X127103726Y-125628435D01*
X126968313Y-125714599D01*
X126854212Y-125795585D01*
X126754306Y-125876004D01*
X126661477Y-125960465D01*
X126519987Y-126109737D01*
X126389226Y-126291588D01*
X126301456Y-126481553D01*
X126252224Y-126689769D01*
X126237077Y-126926372D01*
X126247020Y-127135783D01*
X126291073Y-127381478D01*
X126373584Y-127601797D01*
X126498098Y-127805585D01*
X126668162Y-128001685D01*
X126812550Y-128130018D01*
X127045078Y-128282735D01*
X127315086Y-128404895D01*
X127624787Y-128497446D01*
X127976394Y-128561334D01*
X128013142Y-128565911D01*
X128221510Y-128581919D01*
X128452297Y-128585717D01*
X128694900Y-128578256D01*
X128938715Y-128560488D01*
X129173138Y-128533364D01*
X129387566Y-128497836D01*
X129571394Y-128454855D01*
X129714020Y-128405374D01*
X129759709Y-128383561D01*
X129839753Y-128328579D01*
X129885285Y-128259331D01*
X129901923Y-128164232D01*
X129895288Y-128031697D01*
X129893262Y-128012102D01*
X129881490Y-127851884D01*
X129884042Y-127738148D01*
X129901724Y-127667402D01*
X129935345Y-127636151D01*
X129985714Y-127640902D01*
X130015129Y-127655037D01*
X130083200Y-127695319D01*
X130169569Y-127751117D01*
X130261717Y-127813843D01*
X130347121Y-127874911D01*
X130413263Y-127925732D01*
X130447623Y-127957719D01*
X130458678Y-127972119D01*
X130503507Y-128025861D01*
X130559953Y-128089846D01*
X130633708Y-128174475D01*
X130755729Y-128331895D01*
X130875746Y-128511563D01*
X131003172Y-128727011D01*
X131009147Y-128737574D01*
X131075755Y-128854258D01*
X131118021Y-128937084D01*
X131132555Y-128996163D01*
X131115969Y-129041608D01*
X131064876Y-129083530D01*
X130975887Y-129132043D01*
X130845614Y-129197259D01*
X130803623Y-129218042D01*
X130517075Y-129340088D01*
X130195250Y-129447777D01*
X129851781Y-129537473D01*
X129500299Y-129605539D01*
X129154436Y-129648341D01*
X129039667Y-129657139D01*
X128514536Y-129671047D01*
X128003170Y-129641275D01*
X127511205Y-129568345D01*
X127044282Y-129452781D01*
X126757541Y-129354269D01*
X126392947Y-129188930D01*
X126066323Y-128990790D01*
X125778873Y-128761000D01*
X125531805Y-128500706D01*
X125326323Y-128211058D01*
X125163635Y-127893205D01*
X125044944Y-127548295D01*
X125032868Y-127502582D01*
X125011275Y-127412148D01*
X124995928Y-127327326D01*
X124985731Y-127236576D01*
X124979584Y-127128356D01*
X124976391Y-126991122D01*
X124975054Y-126813333D01*
X124974869Y-126748769D01*
X124975457Y-126585909D01*
X124978450Y-126460971D01*
X124984731Y-126363329D01*
X124995187Y-126282360D01*
X125010703Y-126207439D01*
X125032164Y-126127942D01*
X125088048Y-125959467D01*
X125216377Y-125683926D01*
X125386178Y-125431854D01*
X125602543Y-125194925D01*
X125679744Y-125123675D01*
X125781964Y-125038488D01*
X125896741Y-124953440D01*
X126029873Y-124864884D01*
X126187159Y-124769172D01*
X126374397Y-124662657D01*
X126597386Y-124541689D01*
X126861923Y-124402623D01*
X127027534Y-124315782D01*
X127196692Y-124225564D01*
X127350847Y-124141836D01*
X127482154Y-124068909D01*
X127582766Y-124011091D01*
X127644837Y-123972690D01*
X127735162Y-123906169D01*
X127911345Y-123742429D01*
X128059545Y-123557019D01*
X128172033Y-123360434D01*
X128241080Y-123163167D01*
X128243708Y-123151117D01*
X128260416Y-123023909D01*
X128266949Y-122867831D01*
X128263638Y-122702723D01*
X128250813Y-122548424D01*
X128228803Y-122424775D01*
X128225877Y-122413741D01*
X128135347Y-122175535D01*
X128000202Y-121961239D01*
X127823254Y-121773355D01*
X127607312Y-121614386D01*
X127355191Y-121486833D01*
X127069699Y-121393199D01*
X126988354Y-121375482D01*
X126797876Y-121347635D01*
X126576946Y-121328988D01*
X126339402Y-121319926D01*
X126099083Y-121320834D01*
X125869826Y-121332097D01*
X125665472Y-121354102D01*
X125558571Y-121371749D01*
X125311765Y-121426057D01*
X125069118Y-121496729D01*
X124842617Y-121579588D01*
X124644247Y-121670456D01*
X124485993Y-121765156D01*
X124457742Y-121781469D01*
X124432016Y-121784514D01*
X124429356Y-121780420D01*
X124405665Y-121740944D01*
X124361189Y-121665540D01*
X124299887Y-121560958D01*
X124225718Y-121433946D01*
X124142642Y-121291253D01*
X124055109Y-121141729D01*
X123981770Y-121015023D01*
X123932311Y-120921071D01*
X123906570Y-120852856D01*
X123904388Y-120803362D01*
X123925604Y-120765574D01*
X123970058Y-120732473D01*
X124037589Y-120697045D01*
X124128038Y-120652273D01*
X124133169Y-120649653D01*
X124222133Y-120600744D01*
X124294482Y-120554963D01*
X124334984Y-120521906D01*
X124348946Y-120508158D01*
X124407413Y-120466823D01*
X124482782Y-120425894D01*
X124536514Y-120397311D01*
X124590414Y-120348667D01*
X124620039Y-120280784D01*
X124623508Y-120267566D01*
X124634946Y-120204172D01*
X124633001Y-120167769D01*
X124626460Y-120140545D01*
X124630227Y-120080678D01*
X124644854Y-120013392D01*
X124665651Y-119958495D01*
X124687928Y-119935795D01*
X124704153Y-119939752D01*
X124761688Y-119963108D01*
X124846352Y-120002758D01*
X124946293Y-120053310D01*
X124955372Y-120058046D01*
X125073996Y-120115797D01*
X125158725Y-120145106D01*
X125218522Y-120146279D01*
X125262348Y-120119625D01*
X125299165Y-120065454D01*
X125306389Y-120053655D01*
X125345039Y-120023514D01*
X125406515Y-120017980D01*
X125498305Y-120037434D01*
X125627898Y-120082259D01*
X125727641Y-120118656D01*
X125843153Y-120157639D01*
X125937102Y-120186155D01*
X126000943Y-120199660D01*
X126105685Y-120212785D01*
X126219386Y-120220023D01*
X126326921Y-120220922D01*
X126413171Y-120215029D01*
X126463011Y-120201891D01*
X126488504Y-120174350D01*
X126518449Y-120115846D01*
X126536606Y-120053437D01*
X126534225Y-120010621D01*
X126529240Y-119997683D01*
X126543025Y-119957084D01*
X126588795Y-119923643D01*
X126652080Y-119909743D01*
X126659727Y-119910154D01*
G37*
G36*
X153744485Y-127233060D02*
G01*
X153739677Y-127477641D01*
X153734606Y-127658950D01*
X153723809Y-127848672D01*
X153705784Y-128007607D01*
X153678075Y-128147572D01*
X153638227Y-128280381D01*
X153583783Y-128417850D01*
X153512289Y-128571795D01*
X153468875Y-128655985D01*
X153299614Y-128914215D01*
X153094800Y-129134913D01*
X152855821Y-129317145D01*
X152584068Y-129459976D01*
X152280928Y-129562473D01*
X151947793Y-129623701D01*
X151768937Y-129639438D01*
X151411079Y-129640444D01*
X151068566Y-129600518D01*
X150748202Y-129520673D01*
X150456791Y-129401920D01*
X150308345Y-129322884D01*
X150112410Y-129206343D01*
X149929881Y-129084837D01*
X149778553Y-128969708D01*
X149716177Y-128922568D01*
X149661181Y-128891128D01*
X149632346Y-128887698D01*
X149632232Y-128887827D01*
X149616015Y-128923612D01*
X149593298Y-128994800D01*
X149568961Y-129086112D01*
X149544755Y-129174344D01*
X149504545Y-129297813D01*
X149464231Y-129401557D01*
X149402407Y-129541351D01*
X148884831Y-129464368D01*
X148852350Y-129459526D01*
X148697904Y-129436209D01*
X148563681Y-129415469D01*
X148457514Y-129398549D01*
X148387235Y-129386694D01*
X148360676Y-129381146D01*
X148363889Y-129359833D01*
X148380538Y-129301762D01*
X148407094Y-129220864D01*
X148493753Y-128910953D01*
X148553539Y-128543904D01*
X148574986Y-128162063D01*
X148557511Y-127776800D01*
X148500531Y-127399487D01*
X148497884Y-127387016D01*
X148480084Y-127307316D01*
X148451514Y-127183204D01*
X148413020Y-127018201D01*
X148365448Y-126815830D01*
X148309645Y-126579612D01*
X148246456Y-126313071D01*
X148176727Y-126019727D01*
X148101306Y-125703103D01*
X148021037Y-125366722D01*
X147936767Y-125014104D01*
X147849342Y-124648773D01*
X147759609Y-124274251D01*
X147668412Y-123894058D01*
X147607115Y-123638796D01*
X148827142Y-123638796D01*
X148837118Y-123703338D01*
X148858832Y-123814002D01*
X148891709Y-123968213D01*
X148935171Y-124163397D01*
X148988644Y-124396978D01*
X149051550Y-124666382D01*
X149123315Y-124969034D01*
X149203361Y-125302359D01*
X149251255Y-125501119D01*
X149339368Y-125869800D01*
X149415858Y-126194734D01*
X149481674Y-126480408D01*
X149537768Y-126731310D01*
X149585090Y-126951929D01*
X149624590Y-127146754D01*
X149657219Y-127320272D01*
X149683928Y-127476971D01*
X149705666Y-127621341D01*
X149723385Y-127757869D01*
X149731552Y-127810819D01*
X149748311Y-127860637D01*
X149780683Y-127908134D01*
X149836962Y-127965011D01*
X149925443Y-128042970D01*
X150019582Y-128121261D01*
X150259430Y-128296288D01*
X150492462Y-128431698D01*
X150711872Y-128523336D01*
X150840486Y-128556803D01*
X151019858Y-128585903D01*
X151212737Y-128602598D01*
X151403304Y-128606140D01*
X151575736Y-128595780D01*
X151714214Y-128570769D01*
X151762181Y-128556186D01*
X151974212Y-128460155D01*
X152157458Y-128321151D01*
X152311133Y-128140059D01*
X152434452Y-127917764D01*
X152526629Y-127655153D01*
X152540485Y-127595736D01*
X152565124Y-127429361D01*
X152579918Y-127231402D01*
X152584744Y-127015496D01*
X152579475Y-126795286D01*
X152563988Y-126584412D01*
X152538156Y-126396513D01*
X152536374Y-126386773D01*
X152488214Y-126172631D01*
X152421330Y-125939560D01*
X152341709Y-125705252D01*
X152255343Y-125487398D01*
X152168219Y-125303692D01*
X152057477Y-125110397D01*
X151822446Y-124775047D01*
X151553941Y-124476220D01*
X151255060Y-124216149D01*
X150928900Y-123997070D01*
X150578560Y-123821217D01*
X150207137Y-123690826D01*
X149817729Y-123608130D01*
X149737830Y-123599353D01*
X149616868Y-123591915D01*
X149477952Y-123587712D01*
X149331084Y-123586602D01*
X149186265Y-123588439D01*
X149053496Y-123593079D01*
X148942777Y-123600380D01*
X148864112Y-123610196D01*
X148827500Y-123622384D01*
X148827142Y-123638796D01*
X147607115Y-123638796D01*
X147576599Y-123511719D01*
X147485016Y-123130754D01*
X147394509Y-122754686D01*
X147305923Y-122387036D01*
X147220105Y-122031328D01*
X147137901Y-121691082D01*
X147060158Y-121369822D01*
X146987721Y-121071069D01*
X146921436Y-120798345D01*
X146862150Y-120555173D01*
X146810708Y-120345074D01*
X146767957Y-120171571D01*
X146734744Y-120038185D01*
X146711913Y-119948439D01*
X146700311Y-119905856D01*
X146690715Y-119878971D01*
X146651446Y-119788203D01*
X146597325Y-119678244D01*
X146537073Y-119567189D01*
X146519354Y-119536110D01*
X146438326Y-119389739D01*
X146384936Y-119284407D01*
X146358220Y-119218085D01*
X146357213Y-119188744D01*
X146367863Y-119189525D01*
X146417112Y-119206222D01*
X146496240Y-119238615D01*
X146594445Y-119282436D01*
X146599440Y-119284739D01*
X146788385Y-119362924D01*
X146947571Y-119408399D01*
X147085986Y-119422999D01*
X147212621Y-119408556D01*
X147245666Y-119401486D01*
X147304438Y-119394644D01*
X147362388Y-119400803D01*
X147435680Y-119422639D01*
X147540479Y-119462828D01*
X147575456Y-119476636D01*
X147667782Y-119511564D01*
X147737913Y-119535894D01*
X147772849Y-119545025D01*
X147777266Y-119545680D01*
X147787978Y-119553428D01*
X147800148Y-119572766D01*
X147814727Y-119607251D01*
X147832663Y-119660441D01*
X147854908Y-119735893D01*
X147882411Y-119837166D01*
X147916121Y-119967817D01*
X147956989Y-120131403D01*
X148005965Y-120331482D01*
X148063997Y-120571613D01*
X148132037Y-120855351D01*
X148211033Y-121186256D01*
X148248948Y-121344944D01*
X148309676Y-121597624D01*
X148366501Y-121832247D01*
X148418269Y-122044149D01*
X148463826Y-122228666D01*
X148502016Y-122381134D01*
X148531686Y-122496888D01*
X148551681Y-122571265D01*
X148560847Y-122599601D01*
X148583923Y-122604542D01*
X148649875Y-122605177D01*
X148746868Y-122600338D01*
X148863596Y-122590371D01*
X148991319Y-122581256D01*
X149219864Y-122577741D01*
X149472565Y-122586173D01*
X149733550Y-122605577D01*
X149986951Y-122634980D01*
X150216897Y-122673407D01*
X150327606Y-122696900D01*
X150793964Y-122826842D01*
X151233368Y-123000432D01*
X151644123Y-123215931D01*
X152024536Y-123471604D01*
X152372911Y-123765711D01*
X152687555Y-124096516D01*
X152966772Y-124462282D01*
X153208870Y-124861271D01*
X153412152Y-125291746D01*
X153574926Y-125751970D01*
X153695496Y-126240205D01*
X153711436Y-126322642D01*
X153724822Y-126399205D01*
X153735070Y-126472591D01*
X153742428Y-126549708D01*
X153747141Y-126637466D01*
X153749457Y-126742771D01*
X153749622Y-126872533D01*
X153748078Y-127015496D01*
X153747882Y-127033660D01*
X153744485Y-127233060D01*
G37*
G36*
X169454893Y-119637901D02*
G01*
X169522710Y-119665672D01*
X169604374Y-119710106D01*
X169679115Y-119750836D01*
X169802591Y-119806175D01*
X169916725Y-119845718D01*
X170075496Y-119908296D01*
X170229341Y-120011420D01*
X170410961Y-120149798D01*
X170584951Y-120262346D01*
X170746446Y-120342073D01*
X170905038Y-120393660D01*
X171070323Y-120421789D01*
X171220330Y-120437467D01*
X171236648Y-120662067D01*
X171245022Y-120779396D01*
X171269097Y-121142376D01*
X171291995Y-121528902D01*
X171314260Y-121948493D01*
X171336435Y-122410666D01*
X171342707Y-122571770D01*
X171349175Y-122798422D01*
X171354792Y-123062801D01*
X171359557Y-123359291D01*
X171363471Y-123682279D01*
X171366532Y-124026151D01*
X171368741Y-124385294D01*
X171370098Y-124754093D01*
X171370601Y-125126935D01*
X171370252Y-125498206D01*
X171369048Y-125862292D01*
X171366992Y-126213579D01*
X171364081Y-126546454D01*
X171360315Y-126855302D01*
X171355695Y-127134510D01*
X171350220Y-127378463D01*
X171343890Y-127581549D01*
X171336705Y-127738154D01*
X171333498Y-127792945D01*
X171319942Y-128014082D01*
X171305156Y-128241055D01*
X171289683Y-128466634D01*
X171274066Y-128683587D01*
X171258850Y-128884683D01*
X171244577Y-129062694D01*
X171231791Y-129210386D01*
X171221036Y-129320531D01*
X171212855Y-129385897D01*
X171198844Y-129470564D01*
X169937718Y-129470234D01*
X169895752Y-129398758D01*
X169895481Y-129398299D01*
X169870183Y-129356837D01*
X169821272Y-129277981D01*
X169752830Y-129168264D01*
X169668937Y-129034216D01*
X169573677Y-128882368D01*
X169471129Y-128719252D01*
X169277260Y-128408926D01*
X168943258Y-127864782D01*
X168593850Y-127284537D01*
X168233097Y-126675127D01*
X167865062Y-126043490D01*
X167493805Y-125396565D01*
X167123389Y-124741288D01*
X166757874Y-124084598D01*
X166743111Y-124057885D01*
X166630996Y-123857083D01*
X166541103Y-123700357D01*
X166472134Y-123585616D01*
X166422792Y-123510769D01*
X166391778Y-123473725D01*
X166377793Y-123472393D01*
X166376153Y-123478433D01*
X166368202Y-123530337D01*
X166357566Y-123623381D01*
X166345098Y-123749123D01*
X166331649Y-123899118D01*
X166318068Y-124064923D01*
X166305062Y-124224390D01*
X166270917Y-124601006D01*
X166229897Y-125008577D01*
X166183552Y-125433185D01*
X166133431Y-125860913D01*
X166081082Y-126277841D01*
X166028057Y-126670051D01*
X166015197Y-126760837D01*
X165986814Y-126958467D01*
X165954951Y-127177379D01*
X165920457Y-127411970D01*
X165884180Y-127656637D01*
X165846972Y-127905779D01*
X165809681Y-128153792D01*
X165773157Y-128395074D01*
X165738249Y-128624022D01*
X165705807Y-128835035D01*
X165676681Y-129022510D01*
X165651720Y-129180843D01*
X165631773Y-129304433D01*
X165617690Y-129387678D01*
X165610320Y-129424974D01*
X165605538Y-129435456D01*
X165590966Y-129447459D01*
X165561676Y-129456386D01*
X165511437Y-129462685D01*
X165434018Y-129466804D01*
X165323190Y-129469192D01*
X165172722Y-129470295D01*
X164976383Y-129470564D01*
X164782764Y-129469956D01*
X164615247Y-129467738D01*
X164490889Y-129463669D01*
X164405014Y-129457513D01*
X164352947Y-129449035D01*
X164330013Y-129438000D01*
X164305192Y-129399840D01*
X164258608Y-129320682D01*
X164193553Y-129206382D01*
X164113034Y-129062438D01*
X164020056Y-128894351D01*
X163917625Y-128707619D01*
X163808746Y-128507744D01*
X163696426Y-128300224D01*
X163583670Y-128090559D01*
X163473484Y-127884249D01*
X163368874Y-127686793D01*
X163272846Y-127503692D01*
X163114087Y-127196026D01*
X162780346Y-126530479D01*
X162435653Y-125818748D01*
X162081331Y-125063716D01*
X161718702Y-124268263D01*
X161349090Y-123435272D01*
X160973817Y-122567626D01*
X160594206Y-121668205D01*
X160548256Y-121558246D01*
X160459736Y-121348446D01*
X160385459Y-121176498D01*
X160321897Y-121035174D01*
X160265527Y-120917248D01*
X160212823Y-120815492D01*
X160160259Y-120722679D01*
X160104312Y-120631582D01*
X160041454Y-120534974D01*
X160008561Y-120484870D01*
X159934305Y-120367885D01*
X159872350Y-120264932D01*
X159828399Y-120185672D01*
X159808153Y-120139762D01*
X159800681Y-120067887D01*
X159817368Y-120010145D01*
X159856034Y-119987897D01*
X159864916Y-119989771D01*
X159915632Y-120008962D01*
X159999993Y-120045602D01*
X160108756Y-120095592D01*
X160232678Y-120154838D01*
X160238199Y-120157522D01*
X160448634Y-120254301D01*
X160632314Y-120325221D01*
X160804464Y-120374674D01*
X160980308Y-120407055D01*
X161175071Y-120426755D01*
X161415651Y-120443795D01*
X161492567Y-120639179D01*
X161497586Y-120651924D01*
X161663712Y-121069108D01*
X161846933Y-121521171D01*
X162042843Y-121997650D01*
X162247035Y-122488079D01*
X162455100Y-122981994D01*
X162662632Y-123468932D01*
X162865223Y-123938428D01*
X163058467Y-124380019D01*
X163237955Y-124783239D01*
X163346686Y-125023327D01*
X163478236Y-125309796D01*
X163612337Y-125597916D01*
X163747121Y-125883918D01*
X163880718Y-126164033D01*
X164011260Y-126434493D01*
X164136876Y-126691527D01*
X164255698Y-126931368D01*
X164365856Y-127150246D01*
X164465481Y-127344391D01*
X164552704Y-127510036D01*
X164625655Y-127643410D01*
X164682466Y-127740745D01*
X164721266Y-127798272D01*
X164740188Y-127812222D01*
X164746019Y-127794795D01*
X164758915Y-127729144D01*
X164776719Y-127619642D01*
X164798834Y-127470925D01*
X164824664Y-127287629D01*
X164853614Y-127074392D01*
X164885089Y-126835850D01*
X164918493Y-126576640D01*
X164953230Y-126301398D01*
X164988705Y-126014760D01*
X165024321Y-125721363D01*
X165059484Y-125425845D01*
X165093598Y-125132841D01*
X165126067Y-124846988D01*
X165156296Y-124572923D01*
X165169237Y-124452210D01*
X165198978Y-124164634D01*
X165227789Y-123872571D01*
X165255262Y-123581141D01*
X165280989Y-123295462D01*
X165304562Y-123020652D01*
X165325571Y-122761831D01*
X165343610Y-122524118D01*
X165358270Y-122312630D01*
X165369143Y-122132487D01*
X165375819Y-121988808D01*
X165377892Y-121886712D01*
X165374953Y-121831316D01*
X165374597Y-121829451D01*
X165354237Y-121762228D01*
X165317236Y-121669404D01*
X165271341Y-121570481D01*
X165264482Y-121556691D01*
X165223354Y-121470314D01*
X165194342Y-121403091D01*
X165183359Y-121368584D01*
X165188950Y-121357657D01*
X165232979Y-121344540D01*
X165312494Y-121343838D01*
X165417487Y-121354729D01*
X165537951Y-121376393D01*
X165663878Y-121408008D01*
X165776791Y-121438710D01*
X166097908Y-121502344D01*
X166394743Y-121524498D01*
X166551051Y-121525105D01*
X166809254Y-122013476D01*
X167074174Y-122513373D01*
X167368528Y-123065535D01*
X167643813Y-123577930D01*
X167902164Y-124054342D01*
X168145714Y-124498557D01*
X168376600Y-124914360D01*
X168596956Y-125305535D01*
X168808916Y-125675869D01*
X169014615Y-126029145D01*
X169216189Y-126369150D01*
X169415771Y-126699668D01*
X169615497Y-127024484D01*
X169817501Y-127347384D01*
X170146128Y-127868410D01*
X170162134Y-127555795D01*
X170162807Y-127542099D01*
X170167566Y-127408753D01*
X170171589Y-127230457D01*
X170174882Y-127013536D01*
X170177449Y-126764315D01*
X170179295Y-126489121D01*
X170180424Y-126194278D01*
X170180842Y-125886112D01*
X170180554Y-125570949D01*
X170179564Y-125255113D01*
X170177877Y-124944931D01*
X170175499Y-124646727D01*
X170172433Y-124366827D01*
X170168686Y-124111556D01*
X170164261Y-123887241D01*
X170159164Y-123700205D01*
X170151822Y-123485598D01*
X170141198Y-123200427D01*
X170129352Y-122905193D01*
X170116614Y-122606801D01*
X170103314Y-122312155D01*
X170089784Y-122028158D01*
X170076354Y-121761714D01*
X170063356Y-121519727D01*
X170051119Y-121309102D01*
X170039975Y-121136741D01*
X170030254Y-121009550D01*
X170013599Y-120868815D01*
X169983744Y-120728822D01*
X169937329Y-120596089D01*
X169869503Y-120459376D01*
X169775415Y-120307444D01*
X169650212Y-120129052D01*
X169541299Y-119972743D01*
X169458777Y-119837915D01*
X169409856Y-119735091D01*
X169395399Y-119666098D01*
X169416266Y-119632764D01*
X169454893Y-119637901D01*
G37*
G36*
X157543120Y-122105313D02*
G01*
X157610304Y-122133332D01*
X157702634Y-122177509D01*
X157808679Y-122232594D01*
X158009084Y-122338938D01*
X158185957Y-122427985D01*
X158338508Y-122497795D01*
X158477062Y-122552421D01*
X158611942Y-122595916D01*
X158753470Y-122632332D01*
X158911971Y-122665723D01*
X158927274Y-122668709D01*
X159030701Y-122689871D01*
X159095262Y-122707838D01*
X159131970Y-122728498D01*
X159151834Y-122757735D01*
X159165866Y-122801436D01*
X159165955Y-122801758D01*
X159175448Y-122839411D01*
X159196326Y-122924514D01*
X159227833Y-123053936D01*
X159269214Y-123224547D01*
X159319712Y-123433215D01*
X159378572Y-123676810D01*
X159445039Y-123952201D01*
X159518357Y-124256256D01*
X159597770Y-124585845D01*
X159682522Y-124937837D01*
X159771858Y-125309102D01*
X159865022Y-125696507D01*
X159961258Y-126096923D01*
X159964108Y-126108785D01*
X160060223Y-126508728D01*
X160153204Y-126895486D01*
X160242299Y-127265935D01*
X160326756Y-127616952D01*
X160405822Y-127945415D01*
X160478744Y-128248200D01*
X160544770Y-128522183D01*
X160603148Y-128764243D01*
X160653123Y-128971256D01*
X160693945Y-129140098D01*
X160724860Y-129267647D01*
X160745115Y-129350780D01*
X160753959Y-129386373D01*
X160776755Y-129471515D01*
X160175233Y-129464526D01*
X159573712Y-129457538D01*
X158810582Y-126279282D01*
X158768104Y-126102478D01*
X158640428Y-125572517D01*
X158524272Y-125092737D01*
X158419521Y-124662683D01*
X158326062Y-124281899D01*
X158243780Y-123949930D01*
X158172562Y-123666321D01*
X158112293Y-123430617D01*
X158062859Y-123242363D01*
X158024147Y-123101102D01*
X157996042Y-123006381D01*
X157978430Y-122957743D01*
X157970800Y-122942169D01*
X157889335Y-122794804D01*
X157786703Y-122632888D01*
X157676459Y-122476800D01*
X157572156Y-122346917D01*
X157545673Y-122314694D01*
X157495015Y-122234085D01*
X157471686Y-122164809D01*
X157477833Y-122116315D01*
X157515602Y-122098051D01*
X157543120Y-122105313D01*
G37*
G36*
X139467701Y-129357662D02*
G01*
X139398831Y-129376733D01*
X139238860Y-129410884D01*
X139038582Y-129444121D01*
X138805567Y-129475471D01*
X138547388Y-129503958D01*
X138271615Y-129528607D01*
X137985820Y-129548444D01*
X137814509Y-129556260D01*
X137550845Y-129561667D01*
X137266642Y-129561259D01*
X136976393Y-129555367D01*
X136694596Y-129544322D01*
X136435744Y-129528453D01*
X136214333Y-129508091D01*
X136208290Y-129507401D01*
X135642637Y-129420110D01*
X135103950Y-129291522D01*
X134593712Y-129122753D01*
X134113405Y-128914918D01*
X133664510Y-128669132D01*
X133248509Y-128386511D01*
X132866883Y-128068169D01*
X132521116Y-127715223D01*
X132212688Y-127328786D01*
X131943082Y-126909976D01*
X131713778Y-126459906D01*
X131526260Y-125979692D01*
X131514481Y-125944075D01*
X131435788Y-125680088D01*
X131361536Y-125388460D01*
X131296801Y-125090466D01*
X131246656Y-124807384D01*
X131229537Y-124669103D01*
X131214049Y-124474780D01*
X131203600Y-124256597D01*
X131198189Y-124025373D01*
X131197816Y-123791923D01*
X131199203Y-123725068D01*
X132488862Y-123725068D01*
X132489754Y-124016861D01*
X132506651Y-124324173D01*
X132538797Y-124634777D01*
X132585440Y-124936444D01*
X132645825Y-125216947D01*
X132722677Y-125490906D01*
X132889681Y-125949350D01*
X133095588Y-126374610D01*
X133339101Y-126765438D01*
X133618920Y-127120582D01*
X133933748Y-127438795D01*
X134282284Y-127718826D01*
X134663231Y-127959425D01*
X135075289Y-128159344D01*
X135517160Y-128317331D01*
X135987544Y-128432139D01*
X136016544Y-128437596D01*
X136113222Y-128453924D01*
X136210671Y-128466673D01*
X136317445Y-128476373D01*
X136442099Y-128483553D01*
X136593189Y-128488740D01*
X136779270Y-128492465D01*
X137008897Y-128495254D01*
X137236781Y-128496416D01*
X137472014Y-128494990D01*
X137676618Y-128490801D01*
X137846306Y-128484028D01*
X137976788Y-128474846D01*
X138063778Y-128463434D01*
X138102987Y-128449969D01*
X138101405Y-128437881D01*
X138089315Y-128379832D01*
X138066309Y-128277031D01*
X138033236Y-128133007D01*
X137990945Y-127951291D01*
X137940288Y-127735412D01*
X137882113Y-127488900D01*
X137817270Y-127215285D01*
X137746609Y-126918096D01*
X137670979Y-126600865D01*
X137591232Y-126267119D01*
X137508215Y-125920390D01*
X137422780Y-125564207D01*
X137335775Y-125202099D01*
X137248051Y-124837598D01*
X137160457Y-124474231D01*
X137073842Y-124115530D01*
X136989058Y-123765025D01*
X136906953Y-123426244D01*
X136828378Y-123102718D01*
X136754181Y-122797976D01*
X136685213Y-122515549D01*
X136622324Y-122258966D01*
X136566363Y-122031758D01*
X136518180Y-121837453D01*
X136478625Y-121679582D01*
X136448547Y-121561674D01*
X136428797Y-121487260D01*
X136420223Y-121459869D01*
X136419628Y-121459373D01*
X136382809Y-121451873D01*
X136296819Y-121445559D01*
X136164408Y-121440509D01*
X135988329Y-121436803D01*
X135771332Y-121434522D01*
X135516169Y-121433743D01*
X135352262Y-121433945D01*
X135105295Y-121435565D01*
X134898722Y-121439456D01*
X134725130Y-121446386D01*
X134577101Y-121457123D01*
X134447222Y-121472435D01*
X134328078Y-121493089D01*
X134212252Y-121519854D01*
X134092330Y-121553496D01*
X133960897Y-121594785D01*
X133909099Y-121612202D01*
X133598385Y-121744963D01*
X133325074Y-121913957D01*
X133089385Y-122118923D01*
X132891537Y-122359601D01*
X132731751Y-122635732D01*
X132610244Y-122947055D01*
X132527237Y-123293310D01*
X132504727Y-123461022D01*
X132488862Y-123725068D01*
X131199203Y-123725068D01*
X131202481Y-123567065D01*
X131212183Y-123361615D01*
X131226923Y-123186389D01*
X131246700Y-123052205D01*
X131329820Y-122711889D01*
X131450342Y-122366604D01*
X131605971Y-122042395D01*
X131802166Y-121726230D01*
X131839624Y-121671258D01*
X131908181Y-121562317D01*
X131949042Y-121476311D01*
X131965694Y-121400744D01*
X131961620Y-121323123D01*
X131940306Y-121230951D01*
X131927778Y-121182468D01*
X131918682Y-121113372D01*
X131934303Y-121068881D01*
X131981463Y-121043659D01*
X132066981Y-121032375D01*
X132197678Y-121029694D01*
X132219600Y-121029632D01*
X132343193Y-121026544D01*
X132434051Y-121016845D01*
X132508959Y-120997803D01*
X132584702Y-120966686D01*
X132637331Y-120940478D01*
X132730957Y-120876916D01*
X132780845Y-120806121D01*
X132788416Y-120721005D01*
X132755087Y-120614482D01*
X132682280Y-120479464D01*
X132666911Y-120453702D01*
X132613865Y-120349944D01*
X132596030Y-120276369D01*
X132613002Y-120226537D01*
X132664378Y-120194009D01*
X132690755Y-120186172D01*
X132730619Y-120183166D01*
X132782535Y-120190515D01*
X132853652Y-120210295D01*
X132951121Y-120244578D01*
X133082093Y-120295440D01*
X133253717Y-120364954D01*
X133348818Y-120402228D01*
X133452174Y-120435454D01*
X133536774Y-120450651D01*
X133618435Y-120451575D01*
X133621386Y-120451399D01*
X133705656Y-120440440D01*
X133753018Y-120417308D01*
X133762732Y-120377910D01*
X133734055Y-120318155D01*
X133666246Y-120233950D01*
X133558563Y-120121202D01*
X133548486Y-120111056D01*
X133447731Y-120004533D01*
X133384318Y-119924130D01*
X133355235Y-119863811D01*
X133357472Y-119817540D01*
X133388018Y-119779280D01*
X133388529Y-119778860D01*
X133437262Y-119758550D01*
X133511138Y-119760126D01*
X133615082Y-119784749D01*
X133754019Y-119833582D01*
X133932872Y-119907784D01*
X134044736Y-119954018D01*
X134235478Y-120024222D01*
X134442560Y-120091842D01*
X134659416Y-120155448D01*
X134879484Y-120213613D01*
X135096199Y-120264910D01*
X135302999Y-120307910D01*
X135493319Y-120341185D01*
X135660596Y-120363308D01*
X135798266Y-120372850D01*
X135899766Y-120368383D01*
X135958532Y-120348480D01*
X135995458Y-120307922D01*
X136013970Y-120242883D01*
X135998812Y-120158161D01*
X135948772Y-120048190D01*
X135862641Y-119907407D01*
X135822746Y-119846220D01*
X135769473Y-119761148D01*
X135732928Y-119698366D01*
X135719359Y-119668297D01*
X135731269Y-119655203D01*
X135781749Y-119665020D01*
X135869759Y-119704290D01*
X135993093Y-119771789D01*
X136149547Y-119866292D01*
X136336918Y-119986574D01*
X136553000Y-120131411D01*
X136564735Y-120139411D01*
X136748722Y-120262454D01*
X136899550Y-120357641D01*
X137024702Y-120428947D01*
X137131662Y-120480347D01*
X137227914Y-120515816D01*
X137320939Y-120539328D01*
X137460812Y-120567418D01*
X137514332Y-120766119D01*
X137543489Y-120876805D01*
X137586397Y-121047517D01*
X137628247Y-121222180D01*
X137667034Y-121391731D01*
X137700753Y-121547106D01*
X137727396Y-121679242D01*
X137744959Y-121779073D01*
X137751435Y-121837538D01*
X137751623Y-121847066D01*
X137764148Y-121959486D01*
X137792624Y-122096573D01*
X137832085Y-122237676D01*
X137877565Y-122362142D01*
X137877735Y-122362542D01*
X137891425Y-122406100D01*
X137915764Y-122495289D01*
X137949551Y-122625120D01*
X137991584Y-122790601D01*
X138040661Y-122986741D01*
X138095581Y-123208549D01*
X138155143Y-123451035D01*
X138218143Y-123709208D01*
X138283382Y-123978077D01*
X138349656Y-124252650D01*
X138415765Y-124527937D01*
X138480507Y-124798948D01*
X138542680Y-125060690D01*
X138601082Y-125308174D01*
X138654512Y-125536408D01*
X138701768Y-125740402D01*
X138741648Y-125915164D01*
X138772951Y-126055704D01*
X138794476Y-126157031D01*
X138805019Y-126214154D01*
X138814338Y-126265926D01*
X138836860Y-126366783D01*
X138867407Y-126489475D01*
X138902118Y-126617949D01*
X138919972Y-126683874D01*
X138951438Y-126805203D01*
X138991998Y-126965248D01*
X139040020Y-127157429D01*
X139093868Y-127375165D01*
X139151909Y-127611875D01*
X139212509Y-127860979D01*
X139274035Y-128115897D01*
X139354333Y-128449969D01*
X139565204Y-129327282D01*
X139467701Y-129357662D01*
G37*
G36*
X141334294Y-120025615D02*
G01*
X141489913Y-120082332D01*
X141683050Y-120170504D01*
X141726343Y-120191388D01*
X141956971Y-120291850D01*
X142160182Y-120361303D01*
X142332925Y-120399041D01*
X142472148Y-120404359D01*
X142574797Y-120376552D01*
X142605022Y-120352302D01*
X142620857Y-120306893D01*
X142621825Y-120226757D01*
X142620393Y-120191286D01*
X142618701Y-120115711D01*
X142619587Y-120069023D01*
X142621248Y-120062157D01*
X142655584Y-120043351D01*
X142729740Y-120047618D01*
X142838598Y-120073797D01*
X142977039Y-120120724D01*
X143139946Y-120187237D01*
X143276590Y-120245701D01*
X143432924Y-120306642D01*
X143573448Y-120351406D01*
X143711741Y-120382935D01*
X143861382Y-120404171D01*
X144035948Y-120418056D01*
X144249018Y-120427532D01*
X144715806Y-120443795D01*
X145791670Y-124937641D01*
X145844988Y-125160368D01*
X145956847Y-125627767D01*
X146065121Y-126080357D01*
X146169199Y-126515578D01*
X146268470Y-126930868D01*
X146362323Y-127323665D01*
X146450147Y-127691408D01*
X146531330Y-128031535D01*
X146605263Y-128341486D01*
X146671333Y-128618698D01*
X146728929Y-128860611D01*
X146777441Y-129064662D01*
X146816257Y-129228291D01*
X146844766Y-129348935D01*
X146862358Y-129424034D01*
X146868421Y-129451025D01*
X146868283Y-129451226D01*
X146839129Y-129453845D01*
X146761481Y-129456358D01*
X146638691Y-129458743D01*
X146474115Y-129460975D01*
X146271108Y-129463032D01*
X146033023Y-129464890D01*
X145763217Y-129466527D01*
X145465044Y-129467918D01*
X145141857Y-129469041D01*
X144797013Y-129469871D01*
X144433865Y-129470387D01*
X144055769Y-129470564D01*
X144027054Y-129470563D01*
X143649938Y-129470403D01*
X143288006Y-129469979D01*
X142944616Y-129469308D01*
X142623124Y-129468410D01*
X142326885Y-129467301D01*
X142059256Y-129466001D01*
X141823593Y-129464528D01*
X141623252Y-129462900D01*
X141461589Y-129461136D01*
X141341961Y-129459254D01*
X141267722Y-129457272D01*
X141242230Y-129455208D01*
X141242065Y-129453482D01*
X141234736Y-129416172D01*
X141218138Y-129339818D01*
X141194482Y-129234432D01*
X141165981Y-129110028D01*
X141165671Y-129108688D01*
X141120624Y-128925216D01*
X141077436Y-128778435D01*
X141030564Y-128653565D01*
X140974465Y-128535824D01*
X140903594Y-128410432D01*
X140822793Y-128275121D01*
X140886752Y-128233213D01*
X140898822Y-128225701D01*
X140926524Y-128213670D01*
X140961823Y-128209336D01*
X141013292Y-128213748D01*
X141089507Y-128227956D01*
X141199042Y-128253009D01*
X141350471Y-128289955D01*
X141750230Y-128388606D01*
X145377898Y-128404140D01*
X145288951Y-128032070D01*
X145271225Y-127958100D01*
X145238318Y-127821208D01*
X145196170Y-127646195D01*
X145146500Y-127440184D01*
X145091026Y-127210298D01*
X145031465Y-126963659D01*
X144969538Y-126707391D01*
X144906960Y-126448615D01*
X144613916Y-125237231D01*
X140998048Y-125211179D01*
X140975808Y-125120000D01*
X140955797Y-125041946D01*
X140925146Y-124932727D01*
X140894520Y-124832892D01*
X140868177Y-124756149D01*
X140850375Y-124716205D01*
X140834012Y-124684592D01*
X140812174Y-124625025D01*
X140807596Y-124610751D01*
X140780266Y-124537450D01*
X140745834Y-124455692D01*
X140671684Y-124290563D01*
X140611141Y-124155236D01*
X140568192Y-124056904D01*
X140541114Y-123990030D01*
X140528185Y-123949078D01*
X140527683Y-123928510D01*
X140537888Y-123922790D01*
X140557077Y-123926381D01*
X140583528Y-123933745D01*
X140612990Y-123942953D01*
X140689747Y-123971594D01*
X140791131Y-124012605D01*
X140903130Y-124060432D01*
X141151051Y-124169128D01*
X142762734Y-124176407D01*
X144374417Y-124183687D01*
X144360084Y-124124305D01*
X144359447Y-124121665D01*
X144348771Y-124077383D01*
X144327322Y-123988390D01*
X144296329Y-123859792D01*
X144257022Y-123696695D01*
X144210634Y-123504205D01*
X144158393Y-123287428D01*
X144101531Y-123051469D01*
X144041278Y-122801436D01*
X144029789Y-122753804D01*
X143970078Y-122507707D01*
X143913734Y-122277852D01*
X143862002Y-122069159D01*
X143816125Y-121886549D01*
X143777349Y-121734940D01*
X143746917Y-121619255D01*
X143726073Y-121544412D01*
X143716061Y-121515333D01*
X143713870Y-121514483D01*
X143673559Y-121510882D01*
X143586091Y-121507386D01*
X143455476Y-121504044D01*
X143285723Y-121500908D01*
X143080842Y-121498030D01*
X142844842Y-121495460D01*
X142581734Y-121493249D01*
X142295528Y-121491448D01*
X141990231Y-121490108D01*
X141669856Y-121489281D01*
X139644394Y-121485846D01*
X139587716Y-121238136D01*
X139584448Y-121223874D01*
X139548082Y-121071030D01*
X139515385Y-120953173D01*
X139480261Y-120855407D01*
X139436611Y-120762834D01*
X139378335Y-120660557D01*
X139299338Y-120533680D01*
X139296863Y-120529773D01*
X139233415Y-120426480D01*
X139183777Y-120339807D01*
X139152859Y-120278745D01*
X139145574Y-120252281D01*
X139153698Y-120250210D01*
X139202910Y-120253368D01*
X139284922Y-120265876D01*
X139387344Y-120286004D01*
X139586293Y-120326900D01*
X139798522Y-120364009D01*
X139999001Y-120390002D01*
X140208469Y-120407479D01*
X140447666Y-120419045D01*
X140560810Y-120422898D01*
X140714437Y-120425741D01*
X140826714Y-120421844D01*
X140904346Y-120408743D01*
X140954041Y-120383968D01*
X140982505Y-120345055D01*
X140996444Y-120289537D01*
X141002564Y-120214945D01*
X141004681Y-120180523D01*
X141015208Y-120103503D01*
X141036715Y-120056488D01*
X141075512Y-120022865D01*
X141122082Y-120003257D01*
X141212811Y-119999530D01*
X141334294Y-120025615D01*
G37*
G36*
X153900482Y-119103173D02*
G01*
X154002546Y-119136379D01*
X154142704Y-119190025D01*
X154148715Y-119192414D01*
X154292276Y-119246435D01*
X154464016Y-119306666D01*
X154642901Y-119365930D01*
X154807895Y-119417047D01*
X154844050Y-119427784D01*
X154983447Y-119470735D01*
X155081110Y-119504521D01*
X155144241Y-119532195D01*
X155180042Y-119556810D01*
X155195717Y-119581418D01*
X155211777Y-119624677D01*
X155244128Y-119702511D01*
X155283862Y-119792513D01*
X155287651Y-119802494D01*
X155305793Y-119862789D01*
X155334770Y-119968866D01*
X155373711Y-120117140D01*
X155421747Y-120304023D01*
X155478007Y-120525928D01*
X155541620Y-120779268D01*
X155611717Y-121060457D01*
X155687427Y-121365908D01*
X155767880Y-121692034D01*
X155852204Y-122035248D01*
X155939531Y-122391963D01*
X156028990Y-122758592D01*
X156119710Y-123131550D01*
X156210821Y-123507247D01*
X156301452Y-123882099D01*
X156390734Y-124252518D01*
X156477797Y-124614917D01*
X156561768Y-124965710D01*
X156641779Y-125301309D01*
X156716960Y-125618128D01*
X156786438Y-125912579D01*
X156849346Y-126181077D01*
X156904811Y-126420034D01*
X156951964Y-126625863D01*
X156989934Y-126794978D01*
X157017852Y-126923792D01*
X157034846Y-127008718D01*
X157059767Y-127175855D01*
X157080501Y-127405288D01*
X157089436Y-127643090D01*
X157086462Y-127874508D01*
X157071465Y-128084789D01*
X157044334Y-128259179D01*
X157025439Y-128336617D01*
X156947308Y-128568014D01*
X156843360Y-128784156D01*
X156721793Y-128967049D01*
X156698769Y-128995021D01*
X156521725Y-129165753D01*
X156304071Y-129312028D01*
X156051931Y-129430877D01*
X155771429Y-129519332D01*
X155468689Y-129574425D01*
X155440291Y-129577900D01*
X155336891Y-129590302D01*
X155263136Y-129593041D01*
X155211383Y-129579475D01*
X155173986Y-129542963D01*
X155143302Y-129476863D01*
X155111686Y-129374533D01*
X155071493Y-129229332D01*
X155066764Y-129212515D01*
X155021099Y-129062231D01*
X154970583Y-128913373D01*
X154921035Y-128782317D01*
X154878271Y-128685441D01*
X154784891Y-128500013D01*
X154851361Y-128516696D01*
X154888504Y-128524283D01*
X154972565Y-128537220D01*
X155068287Y-128548653D01*
X155075967Y-128549386D01*
X155255482Y-128540380D01*
X155427711Y-128484458D01*
X155584606Y-128386587D01*
X155718117Y-128251729D01*
X155820197Y-128084850D01*
X155850213Y-128017183D01*
X155871553Y-127957139D01*
X155884903Y-127894709D01*
X155892065Y-127817463D01*
X155894840Y-127712977D01*
X155895031Y-127568820D01*
X155894053Y-127464557D01*
X155888498Y-127317386D01*
X155876105Y-127190475D01*
X155854630Y-127063850D01*
X155821826Y-126917538D01*
X155807630Y-126858391D01*
X155781724Y-126750186D01*
X155745309Y-126597943D01*
X155699197Y-126405060D01*
X155644201Y-126174932D01*
X155581130Y-125910956D01*
X155510796Y-125616527D01*
X155434010Y-125295041D01*
X155351584Y-124949894D01*
X155264328Y-124584482D01*
X155173055Y-124202201D01*
X155078575Y-123806446D01*
X154981699Y-123400615D01*
X154978550Y-123387425D01*
X154882456Y-122985644D01*
X154789033Y-122596483D01*
X154699060Y-122223118D01*
X154613316Y-121868719D01*
X154532581Y-121536461D01*
X154457632Y-121229516D01*
X154389251Y-120951057D01*
X154328214Y-120704257D01*
X154275303Y-120492289D01*
X154231295Y-120318327D01*
X154196971Y-120185542D01*
X154173108Y-120097109D01*
X154160487Y-120056200D01*
X154119748Y-119973913D01*
X154058220Y-119869288D01*
X153991354Y-119769636D01*
X153982921Y-119758024D01*
X153885145Y-119621601D01*
X153814662Y-119518190D01*
X153767230Y-119440134D01*
X153738603Y-119379778D01*
X153724539Y-119329466D01*
X153720795Y-119281543D01*
X153720709Y-119270942D01*
X153715884Y-119196882D01*
X153705931Y-119145835D01*
X153705167Y-119143708D01*
X153713972Y-119111463D01*
X153769636Y-119089844D01*
X153775608Y-119088676D01*
X153827755Y-119088056D01*
X153900482Y-119103173D01*
G37*
D11*
%TO.C,J4*%
X142855000Y-130270000D02*
X142855000Y-132930000D01*
X148055000Y-132870000D02*
X148055000Y-132930000D01*
X145455000Y-132870000D02*
X145455000Y-130270000D01*
X145455000Y-130270000D02*
X142855000Y-130270000D01*
X148055000Y-132870000D02*
X145455000Y-132870000D01*
X148055000Y-132930000D02*
X142855000Y-132930000D01*
X148055000Y-131600000D02*
X148055000Y-130270000D01*
X148055000Y-130270000D02*
X146725000Y-130270000D01*
%TO.C,J9*%
X112125000Y-126760000D02*
X112125000Y-127520000D01*
X121182071Y-126760000D02*
X120785000Y-126760000D01*
X123495000Y-123330000D02*
X122225000Y-123330000D01*
X112125000Y-124980000D02*
X118125000Y-124980000D01*
X120785000Y-125870000D02*
X118125000Y-125870000D01*
X118125000Y-124640000D02*
X112125000Y-124640000D01*
X118125000Y-123270000D02*
X120785000Y-123270000D01*
X118125000Y-124280000D02*
X112125000Y-124280000D01*
X118125000Y-128470000D02*
X118125000Y-123270000D01*
X121115000Y-124980000D02*
X120785000Y-124980000D01*
X121115000Y-124220000D02*
X120785000Y-124220000D01*
X118125000Y-124760000D02*
X112125000Y-124760000D01*
X118125000Y-124220000D02*
X112125000Y-124220000D01*
X123495000Y-124600000D02*
X123495000Y-123330000D01*
X118125000Y-124400000D02*
X112125000Y-124400000D01*
X120785000Y-123270000D02*
X120785000Y-128470000D01*
X118125000Y-126760000D02*
X112125000Y-126760000D01*
X118125000Y-124520000D02*
X112125000Y-124520000D01*
X112125000Y-124220000D02*
X112125000Y-124980000D01*
X120785000Y-128470000D02*
X118125000Y-128470000D01*
X112125000Y-127520000D02*
X118125000Y-127520000D01*
X118125000Y-124880000D02*
X112125000Y-124880000D01*
X121182071Y-127520000D02*
X120785000Y-127520000D01*
%TD*%
M02*
