%TF.GenerationSoftware,KiCad,Pcbnew,6.0.2-378541a8eb~116~ubuntu20.04.1*%
%TF.CreationDate,2022-03-08T20:01:38-08:00*%
%TF.ProjectId,RP2040_WEDS,52503230-3430-45f5-9745-44532e6b6963,rev?*%
%TF.SameCoordinates,Original*%
%TF.FileFunction,Legend,Top*%
%TF.FilePolarity,Positive*%
%FSLAX46Y46*%
G04 Gerber Fmt 4.6, Leading zero omitted, Abs format (unit mm)*
G04 Created by KiCad (PCBNEW 6.0.2-378541a8eb~116~ubuntu20.04.1) date 2022-03-08 20:01:38*
%MOMM*%
%LPD*%
G01*
G04 APERTURE LIST*
%ADD10C,0.150000*%
%ADD11C,0.120000*%
%ADD12C,0.125000*%
%ADD13C,0.127000*%
%ADD14C,0.200000*%
%ADD15C,0.100000*%
G04 APERTURE END LIST*
D10*
X124587857Y-99039285D02*
X124230714Y-99039285D01*
X124230714Y-98289285D01*
X124980714Y-98289285D02*
X125123571Y-98289285D01*
X125195000Y-98325000D01*
X125266428Y-98396428D01*
X125302142Y-98539285D01*
X125302142Y-98789285D01*
X125266428Y-98932142D01*
X125195000Y-99003571D01*
X125123571Y-99039285D01*
X124980714Y-99039285D01*
X124909285Y-99003571D01*
X124837857Y-98932142D01*
X124802142Y-98789285D01*
X124802142Y-98539285D01*
X124837857Y-98396428D01*
X124909285Y-98325000D01*
X124980714Y-98289285D01*
X126052142Y-99039285D02*
X125802142Y-98682142D01*
X125623571Y-99039285D02*
X125623571Y-98289285D01*
X125909285Y-98289285D01*
X125980714Y-98325000D01*
X126016428Y-98360714D01*
X126052142Y-98432142D01*
X126052142Y-98539285D01*
X126016428Y-98610714D01*
X125980714Y-98646428D01*
X125909285Y-98682142D01*
X125623571Y-98682142D01*
X126337857Y-98825000D02*
X126695000Y-98825000D01*
X126266428Y-99039285D02*
X126516428Y-98289285D01*
X126766428Y-99039285D01*
X163923571Y-100389285D02*
X163923571Y-99639285D01*
X164352142Y-100389285D01*
X164352142Y-99639285D01*
X164673571Y-100175000D02*
X165030714Y-100175000D01*
X164602142Y-100389285D02*
X164852142Y-99639285D01*
X165102142Y-100389285D01*
X165352142Y-100389285D02*
X165352142Y-99639285D01*
X165780714Y-100389285D01*
X165780714Y-99639285D01*
X166280714Y-99639285D02*
X166423571Y-99639285D01*
X166495000Y-99675000D01*
X166566428Y-99746428D01*
X166602142Y-99889285D01*
X166602142Y-100139285D01*
X166566428Y-100282142D01*
X166495000Y-100353571D01*
X166423571Y-100389285D01*
X166280714Y-100389285D01*
X166209285Y-100353571D01*
X166137857Y-100282142D01*
X166102142Y-100139285D01*
X166102142Y-99889285D01*
X166137857Y-99746428D01*
X166209285Y-99675000D01*
X166280714Y-99639285D01*
X167584285Y-73689285D02*
X167227142Y-73939285D01*
X167584285Y-74117857D02*
X166834285Y-74117857D01*
X166834285Y-73832142D01*
X166870000Y-73760714D01*
X166905714Y-73725000D01*
X166977142Y-73689285D01*
X167084285Y-73689285D01*
X167155714Y-73725000D01*
X167191428Y-73760714D01*
X167227142Y-73832142D01*
X167227142Y-74117857D01*
X167191428Y-73367857D02*
X167191428Y-73117857D01*
X167584285Y-73010714D02*
X167584285Y-73367857D01*
X166834285Y-73367857D01*
X166834285Y-73010714D01*
X167548571Y-72725000D02*
X167584285Y-72617857D01*
X167584285Y-72439285D01*
X167548571Y-72367857D01*
X167512857Y-72332142D01*
X167441428Y-72296428D01*
X167370000Y-72296428D01*
X167298571Y-72332142D01*
X167262857Y-72367857D01*
X167227142Y-72439285D01*
X167191428Y-72582142D01*
X167155714Y-72653571D01*
X167120000Y-72689285D01*
X167048571Y-72725000D01*
X166977142Y-72725000D01*
X166905714Y-72689285D01*
X166870000Y-72653571D01*
X166834285Y-72582142D01*
X166834285Y-72403571D01*
X166870000Y-72296428D01*
X167191428Y-71975000D02*
X167191428Y-71725000D01*
X167584285Y-71617857D02*
X167584285Y-71975000D01*
X166834285Y-71975000D01*
X166834285Y-71617857D01*
X166834285Y-71403571D02*
X166834285Y-70975000D01*
X167584285Y-71189285D02*
X166834285Y-71189285D01*
D11*
X165345000Y-121350000D02*
X165345000Y-118250000D01*
X165345000Y-108350000D02*
X160345000Y-108350000D01*
X160345000Y-118250000D02*
X160345000Y-121350000D01*
X160345000Y-121350000D02*
X165345000Y-121350000D01*
X165345000Y-111450000D02*
X165345000Y-108350000D01*
X160345000Y-108350000D02*
X160345000Y-111450000D01*
D10*
X168884285Y-86639285D02*
X168884285Y-85889285D01*
X169062857Y-85889285D01*
X169170000Y-85925000D01*
X169241428Y-85996428D01*
X169277142Y-86067857D01*
X169312857Y-86210714D01*
X169312857Y-86317857D01*
X169277142Y-86460714D01*
X169241428Y-86532142D01*
X169170000Y-86603571D01*
X169062857Y-86639285D01*
X168884285Y-86639285D01*
X169634285Y-86353571D02*
X170205714Y-86353571D01*
X168445000Y-80889285D02*
X168695000Y-81639285D01*
X168945000Y-80889285D01*
X169195000Y-81639285D02*
X169195000Y-80889285D01*
X169373571Y-80889285D01*
X169480714Y-80925000D01*
X169552142Y-80996428D01*
X169587857Y-81067857D01*
X169623571Y-81210714D01*
X169623571Y-81317857D01*
X169587857Y-81460714D01*
X169552142Y-81532142D01*
X169480714Y-81603571D01*
X169373571Y-81639285D01*
X169195000Y-81639285D01*
X170373571Y-81567857D02*
X170337857Y-81603571D01*
X170230714Y-81639285D01*
X170159285Y-81639285D01*
X170052142Y-81603571D01*
X169980714Y-81532142D01*
X169945000Y-81460714D01*
X169909285Y-81317857D01*
X169909285Y-81210714D01*
X169945000Y-81067857D01*
X169980714Y-80996428D01*
X170052142Y-80925000D01*
X170159285Y-80889285D01*
X170230714Y-80889285D01*
X170337857Y-80925000D01*
X170373571Y-80960714D01*
X149814047Y-129296428D02*
X150575952Y-129296428D01*
X150195000Y-129677380D02*
X150195000Y-128915476D01*
X124362857Y-129439285D02*
X124362857Y-128689285D01*
X124648571Y-128689285D01*
X124720000Y-128725000D01*
X124755714Y-128760714D01*
X124791428Y-128832142D01*
X124791428Y-128939285D01*
X124755714Y-129010714D01*
X124720000Y-129046428D01*
X124648571Y-129082142D01*
X124362857Y-129082142D01*
X125255714Y-128689285D02*
X125398571Y-128689285D01*
X125470000Y-128725000D01*
X125541428Y-128796428D01*
X125577142Y-128939285D01*
X125577142Y-129189285D01*
X125541428Y-129332142D01*
X125470000Y-129403571D01*
X125398571Y-129439285D01*
X125255714Y-129439285D01*
X125184285Y-129403571D01*
X125112857Y-129332142D01*
X125077142Y-129189285D01*
X125077142Y-128939285D01*
X125112857Y-128796428D01*
X125184285Y-128725000D01*
X125255714Y-128689285D01*
X125827142Y-128689285D02*
X126005714Y-129439285D01*
X126148571Y-128903571D01*
X126291428Y-129439285D01*
X126470000Y-128689285D01*
X126755714Y-129046428D02*
X127005714Y-129046428D01*
X127112857Y-129439285D02*
X126755714Y-129439285D01*
X126755714Y-128689285D01*
X127112857Y-128689285D01*
X127862857Y-129439285D02*
X127612857Y-129082142D01*
X127434285Y-129439285D02*
X127434285Y-128689285D01*
X127720000Y-128689285D01*
X127791428Y-128725000D01*
X127827142Y-128760714D01*
X127862857Y-128832142D01*
X127862857Y-128939285D01*
X127827142Y-129010714D01*
X127791428Y-129046428D01*
X127720000Y-129082142D01*
X127434285Y-129082142D01*
X168784285Y-83939285D02*
X168784285Y-83189285D01*
X168962857Y-83189285D01*
X169070000Y-83225000D01*
X169141428Y-83296428D01*
X169177142Y-83367857D01*
X169212857Y-83510714D01*
X169212857Y-83617857D01*
X169177142Y-83760714D01*
X169141428Y-83832142D01*
X169070000Y-83903571D01*
X168962857Y-83939285D01*
X168784285Y-83939285D01*
X169534285Y-83653571D02*
X170105714Y-83653571D01*
X169820000Y-83939285D02*
X169820000Y-83367857D01*
X165742619Y-117535714D02*
X165742619Y-116964285D01*
X165742619Y-117250000D02*
X166742619Y-117250000D01*
X166599761Y-117154761D01*
X166504523Y-117059523D01*
X166456904Y-116964285D01*
X140052142Y-129046428D02*
X139802142Y-129046428D01*
X139802142Y-129439285D02*
X139802142Y-128689285D01*
X140159285Y-128689285D01*
X140445000Y-128689285D02*
X140445000Y-129296428D01*
X140480714Y-129367857D01*
X140516428Y-129403571D01*
X140587857Y-129439285D01*
X140730714Y-129439285D01*
X140802142Y-129403571D01*
X140837857Y-129367857D01*
X140873571Y-129296428D01*
X140873571Y-128689285D01*
X141587857Y-129439285D02*
X141230714Y-129439285D01*
X141230714Y-128689285D01*
X142195000Y-129439285D02*
X141837857Y-129439285D01*
X141837857Y-128689285D01*
X168873571Y-88625000D02*
X168802142Y-88589285D01*
X168695000Y-88589285D01*
X168587857Y-88625000D01*
X168516428Y-88696428D01*
X168480714Y-88767857D01*
X168445000Y-88910714D01*
X168445000Y-89017857D01*
X168480714Y-89160714D01*
X168516428Y-89232142D01*
X168587857Y-89303571D01*
X168695000Y-89339285D01*
X168766428Y-89339285D01*
X168873571Y-89303571D01*
X168909285Y-89267857D01*
X168909285Y-89017857D01*
X168766428Y-89017857D01*
X169230714Y-89339285D02*
X169230714Y-88589285D01*
X169659285Y-89339285D01*
X169659285Y-88589285D01*
X170016428Y-89339285D02*
X170016428Y-88589285D01*
X170195000Y-88589285D01*
X170302142Y-88625000D01*
X170373571Y-88696428D01*
X170409285Y-88767857D01*
X170445000Y-88910714D01*
X170445000Y-89017857D01*
X170409285Y-89160714D01*
X170373571Y-89232142D01*
X170302142Y-89303571D01*
X170195000Y-89339285D01*
X170016428Y-89339285D01*
%TO.C,Y1*%
X150868809Y-117276190D02*
X150868809Y-117752380D01*
X150535476Y-116752380D02*
X150868809Y-117276190D01*
X151202142Y-116752380D01*
X152059285Y-117752380D02*
X151487857Y-117752380D01*
X151773571Y-117752380D02*
X151773571Y-116752380D01*
X151678333Y-116895238D01*
X151583095Y-116990476D01*
X151487857Y-117038095D01*
%TO.C,R13*%
X144412857Y-111614285D02*
X144162857Y-111257142D01*
X143984285Y-111614285D02*
X143984285Y-110864285D01*
X144270000Y-110864285D01*
X144341428Y-110900000D01*
X144377142Y-110935714D01*
X144412857Y-111007142D01*
X144412857Y-111114285D01*
X144377142Y-111185714D01*
X144341428Y-111221428D01*
X144270000Y-111257142D01*
X143984285Y-111257142D01*
X145127142Y-111614285D02*
X144698571Y-111614285D01*
X144912857Y-111614285D02*
X144912857Y-110864285D01*
X144841428Y-110971428D01*
X144770000Y-111042857D01*
X144698571Y-111078571D01*
X145377142Y-110864285D02*
X145841428Y-110864285D01*
X145591428Y-111150000D01*
X145698571Y-111150000D01*
X145770000Y-111185714D01*
X145805714Y-111221428D01*
X145841428Y-111292857D01*
X145841428Y-111471428D01*
X145805714Y-111542857D01*
X145770000Y-111578571D01*
X145698571Y-111614285D01*
X145484285Y-111614285D01*
X145412857Y-111578571D01*
X145377142Y-111542857D01*
%TO.C,C17*%
X148262857Y-116267857D02*
X148227142Y-116303571D01*
X148120000Y-116339285D01*
X148048571Y-116339285D01*
X147941428Y-116303571D01*
X147870000Y-116232142D01*
X147834285Y-116160714D01*
X147798571Y-116017857D01*
X147798571Y-115910714D01*
X147834285Y-115767857D01*
X147870000Y-115696428D01*
X147941428Y-115625000D01*
X148048571Y-115589285D01*
X148120000Y-115589285D01*
X148227142Y-115625000D01*
X148262857Y-115660714D01*
X148977142Y-116339285D02*
X148548571Y-116339285D01*
X148762857Y-116339285D02*
X148762857Y-115589285D01*
X148691428Y-115696428D01*
X148620000Y-115767857D01*
X148548571Y-115803571D01*
X149227142Y-115589285D02*
X149727142Y-115589285D01*
X149405714Y-116339285D01*
%TO.C,C16*%
X141512857Y-111517857D02*
X141477142Y-111553571D01*
X141370000Y-111589285D01*
X141298571Y-111589285D01*
X141191428Y-111553571D01*
X141120000Y-111482142D01*
X141084285Y-111410714D01*
X141048571Y-111267857D01*
X141048571Y-111160714D01*
X141084285Y-111017857D01*
X141120000Y-110946428D01*
X141191428Y-110875000D01*
X141298571Y-110839285D01*
X141370000Y-110839285D01*
X141477142Y-110875000D01*
X141512857Y-110910714D01*
X142227142Y-111589285D02*
X141798571Y-111589285D01*
X142012857Y-111589285D02*
X142012857Y-110839285D01*
X141941428Y-110946428D01*
X141870000Y-111017857D01*
X141798571Y-111053571D01*
X142870000Y-110839285D02*
X142727142Y-110839285D01*
X142655714Y-110875000D01*
X142620000Y-110910714D01*
X142548571Y-111017857D01*
X142512857Y-111160714D01*
X142512857Y-111446428D01*
X142548571Y-111517857D01*
X142584285Y-111553571D01*
X142655714Y-111589285D01*
X142798571Y-111589285D01*
X142870000Y-111553571D01*
X142905714Y-111517857D01*
X142941428Y-111446428D01*
X142941428Y-111267857D01*
X142905714Y-111196428D01*
X142870000Y-111160714D01*
X142798571Y-111125000D01*
X142655714Y-111125000D01*
X142584285Y-111160714D01*
X142548571Y-111196428D01*
X142512857Y-111267857D01*
%TO.C,J4*%
X162561666Y-118702380D02*
X162561666Y-119416666D01*
X162514047Y-119559523D01*
X162418809Y-119654761D01*
X162275952Y-119702380D01*
X162180714Y-119702380D01*
X163466428Y-119035714D02*
X163466428Y-119702380D01*
X163228333Y-118654761D02*
X162990238Y-119369047D01*
X163609285Y-119369047D01*
%TO.C,C1*%
X147562857Y-95075000D02*
X147598571Y-95110714D01*
X147634285Y-95217857D01*
X147634285Y-95289285D01*
X147598571Y-95396428D01*
X147527142Y-95467857D01*
X147455714Y-95503571D01*
X147312857Y-95539285D01*
X147205714Y-95539285D01*
X147062857Y-95503571D01*
X146991428Y-95467857D01*
X146920000Y-95396428D01*
X146884285Y-95289285D01*
X146884285Y-95217857D01*
X146920000Y-95110714D01*
X146955714Y-95075000D01*
X147634285Y-94360714D02*
X147634285Y-94789285D01*
X147634285Y-94575000D02*
X146884285Y-94575000D01*
X146991428Y-94646428D01*
X147062857Y-94717857D01*
X147098571Y-94789285D01*
%TO.C,C2*%
X153690000Y-106187857D02*
X153654285Y-106223571D01*
X153547142Y-106259285D01*
X153475714Y-106259285D01*
X153368571Y-106223571D01*
X153297142Y-106152142D01*
X153261428Y-106080714D01*
X153225714Y-105937857D01*
X153225714Y-105830714D01*
X153261428Y-105687857D01*
X153297142Y-105616428D01*
X153368571Y-105545000D01*
X153475714Y-105509285D01*
X153547142Y-105509285D01*
X153654285Y-105545000D01*
X153690000Y-105580714D01*
X153975714Y-105580714D02*
X154011428Y-105545000D01*
X154082857Y-105509285D01*
X154261428Y-105509285D01*
X154332857Y-105545000D01*
X154368571Y-105580714D01*
X154404285Y-105652142D01*
X154404285Y-105723571D01*
X154368571Y-105830714D01*
X153940000Y-106259285D01*
X154404285Y-106259285D01*
%TO.C,C3*%
X156965000Y-102437857D02*
X156929285Y-102473571D01*
X156822142Y-102509285D01*
X156750714Y-102509285D01*
X156643571Y-102473571D01*
X156572142Y-102402142D01*
X156536428Y-102330714D01*
X156500714Y-102187857D01*
X156500714Y-102080714D01*
X156536428Y-101937857D01*
X156572142Y-101866428D01*
X156643571Y-101795000D01*
X156750714Y-101759285D01*
X156822142Y-101759285D01*
X156929285Y-101795000D01*
X156965000Y-101830714D01*
X157215000Y-101759285D02*
X157679285Y-101759285D01*
X157429285Y-102045000D01*
X157536428Y-102045000D01*
X157607857Y-102080714D01*
X157643571Y-102116428D01*
X157679285Y-102187857D01*
X157679285Y-102366428D01*
X157643571Y-102437857D01*
X157607857Y-102473571D01*
X157536428Y-102509285D01*
X157322142Y-102509285D01*
X157250714Y-102473571D01*
X157215000Y-102437857D01*
%TO.C,C4*%
X137440000Y-101667857D02*
X137404285Y-101703571D01*
X137297142Y-101739285D01*
X137225714Y-101739285D01*
X137118571Y-101703571D01*
X137047142Y-101632142D01*
X137011428Y-101560714D01*
X136975714Y-101417857D01*
X136975714Y-101310714D01*
X137011428Y-101167857D01*
X137047142Y-101096428D01*
X137118571Y-101025000D01*
X137225714Y-100989285D01*
X137297142Y-100989285D01*
X137404285Y-101025000D01*
X137440000Y-101060714D01*
X138082857Y-101239285D02*
X138082857Y-101739285D01*
X137904285Y-100953571D02*
X137725714Y-101489285D01*
X138190000Y-101489285D01*
%TO.C,C5*%
X147170000Y-111542857D02*
X147134285Y-111578571D01*
X147027142Y-111614285D01*
X146955714Y-111614285D01*
X146848571Y-111578571D01*
X146777142Y-111507142D01*
X146741428Y-111435714D01*
X146705714Y-111292857D01*
X146705714Y-111185714D01*
X146741428Y-111042857D01*
X146777142Y-110971428D01*
X146848571Y-110900000D01*
X146955714Y-110864285D01*
X147027142Y-110864285D01*
X147134285Y-110900000D01*
X147170000Y-110935714D01*
X147848571Y-110864285D02*
X147491428Y-110864285D01*
X147455714Y-111221428D01*
X147491428Y-111185714D01*
X147562857Y-111150000D01*
X147741428Y-111150000D01*
X147812857Y-111185714D01*
X147848571Y-111221428D01*
X147884285Y-111292857D01*
X147884285Y-111471428D01*
X147848571Y-111542857D01*
X147812857Y-111578571D01*
X147741428Y-111614285D01*
X147562857Y-111614285D01*
X147491428Y-111578571D01*
X147455714Y-111542857D01*
%TO.C,C6*%
X137435000Y-107262857D02*
X137399285Y-107298571D01*
X137292142Y-107334285D01*
X137220714Y-107334285D01*
X137113571Y-107298571D01*
X137042142Y-107227142D01*
X137006428Y-107155714D01*
X136970714Y-107012857D01*
X136970714Y-106905714D01*
X137006428Y-106762857D01*
X137042142Y-106691428D01*
X137113571Y-106620000D01*
X137220714Y-106584285D01*
X137292142Y-106584285D01*
X137399285Y-106620000D01*
X137435000Y-106655714D01*
X138077857Y-106584285D02*
X137935000Y-106584285D01*
X137863571Y-106620000D01*
X137827857Y-106655714D01*
X137756428Y-106762857D01*
X137720714Y-106905714D01*
X137720714Y-107191428D01*
X137756428Y-107262857D01*
X137792142Y-107298571D01*
X137863571Y-107334285D01*
X138006428Y-107334285D01*
X138077857Y-107298571D01*
X138113571Y-107262857D01*
X138149285Y-107191428D01*
X138149285Y-107012857D01*
X138113571Y-106941428D01*
X138077857Y-106905714D01*
X138006428Y-106870000D01*
X137863571Y-106870000D01*
X137792142Y-106905714D01*
X137756428Y-106941428D01*
X137720714Y-107012857D01*
%TO.C,C7*%
X156965000Y-104112857D02*
X156929285Y-104148571D01*
X156822142Y-104184285D01*
X156750714Y-104184285D01*
X156643571Y-104148571D01*
X156572142Y-104077142D01*
X156536428Y-104005714D01*
X156500714Y-103862857D01*
X156500714Y-103755714D01*
X156536428Y-103612857D01*
X156572142Y-103541428D01*
X156643571Y-103470000D01*
X156750714Y-103434285D01*
X156822142Y-103434285D01*
X156929285Y-103470000D01*
X156965000Y-103505714D01*
X157215000Y-103434285D02*
X157715000Y-103434285D01*
X157393571Y-104184285D01*
%TO.C,C8*%
X137470000Y-103667857D02*
X137434285Y-103703571D01*
X137327142Y-103739285D01*
X137255714Y-103739285D01*
X137148571Y-103703571D01*
X137077142Y-103632142D01*
X137041428Y-103560714D01*
X137005714Y-103417857D01*
X137005714Y-103310714D01*
X137041428Y-103167857D01*
X137077142Y-103096428D01*
X137148571Y-103025000D01*
X137255714Y-102989285D01*
X137327142Y-102989285D01*
X137434285Y-103025000D01*
X137470000Y-103060714D01*
X137898571Y-103310714D02*
X137827142Y-103275000D01*
X137791428Y-103239285D01*
X137755714Y-103167857D01*
X137755714Y-103132142D01*
X137791428Y-103060714D01*
X137827142Y-103025000D01*
X137898571Y-102989285D01*
X138041428Y-102989285D01*
X138112857Y-103025000D01*
X138148571Y-103060714D01*
X138184285Y-103132142D01*
X138184285Y-103167857D01*
X138148571Y-103239285D01*
X138112857Y-103275000D01*
X138041428Y-103310714D01*
X137898571Y-103310714D01*
X137827142Y-103346428D01*
X137791428Y-103382142D01*
X137755714Y-103453571D01*
X137755714Y-103596428D01*
X137791428Y-103667857D01*
X137827142Y-103703571D01*
X137898571Y-103739285D01*
X138041428Y-103739285D01*
X138112857Y-103703571D01*
X138148571Y-103667857D01*
X138184285Y-103596428D01*
X138184285Y-103453571D01*
X138148571Y-103382142D01*
X138112857Y-103346428D01*
X138041428Y-103310714D01*
%TO.C,C13*%
X146787857Y-129042857D02*
X146752142Y-129078571D01*
X146645000Y-129114285D01*
X146573571Y-129114285D01*
X146466428Y-129078571D01*
X146395000Y-129007142D01*
X146359285Y-128935714D01*
X146323571Y-128792857D01*
X146323571Y-128685714D01*
X146359285Y-128542857D01*
X146395000Y-128471428D01*
X146466428Y-128400000D01*
X146573571Y-128364285D01*
X146645000Y-128364285D01*
X146752142Y-128400000D01*
X146787857Y-128435714D01*
X147502142Y-129114285D02*
X147073571Y-129114285D01*
X147287857Y-129114285D02*
X147287857Y-128364285D01*
X147216428Y-128471428D01*
X147145000Y-128542857D01*
X147073571Y-128578571D01*
X147752142Y-128364285D02*
X148216428Y-128364285D01*
X147966428Y-128650000D01*
X148073571Y-128650000D01*
X148145000Y-128685714D01*
X148180714Y-128721428D01*
X148216428Y-128792857D01*
X148216428Y-128971428D01*
X148180714Y-129042857D01*
X148145000Y-129078571D01*
X148073571Y-129114285D01*
X147859285Y-129114285D01*
X147787857Y-129078571D01*
X147752142Y-129042857D01*
%TO.C,C9*%
X150915000Y-111587857D02*
X150879285Y-111623571D01*
X150772142Y-111659285D01*
X150700714Y-111659285D01*
X150593571Y-111623571D01*
X150522142Y-111552142D01*
X150486428Y-111480714D01*
X150450714Y-111337857D01*
X150450714Y-111230714D01*
X150486428Y-111087857D01*
X150522142Y-111016428D01*
X150593571Y-110945000D01*
X150700714Y-110909285D01*
X150772142Y-110909285D01*
X150879285Y-110945000D01*
X150915000Y-110980714D01*
X151272142Y-111659285D02*
X151415000Y-111659285D01*
X151486428Y-111623571D01*
X151522142Y-111587857D01*
X151593571Y-111480714D01*
X151629285Y-111337857D01*
X151629285Y-111052142D01*
X151593571Y-110980714D01*
X151557857Y-110945000D01*
X151486428Y-110909285D01*
X151343571Y-110909285D01*
X151272142Y-110945000D01*
X151236428Y-110980714D01*
X151200714Y-111052142D01*
X151200714Y-111230714D01*
X151236428Y-111302142D01*
X151272142Y-111337857D01*
X151343571Y-111373571D01*
X151486428Y-111373571D01*
X151557857Y-111337857D01*
X151593571Y-111302142D01*
X151629285Y-111230714D01*
%TO.C,C11*%
X145762857Y-94932142D02*
X145798571Y-94967857D01*
X145834285Y-95075000D01*
X145834285Y-95146428D01*
X145798571Y-95253571D01*
X145727142Y-95325000D01*
X145655714Y-95360714D01*
X145512857Y-95396428D01*
X145405714Y-95396428D01*
X145262857Y-95360714D01*
X145191428Y-95325000D01*
X145120000Y-95253571D01*
X145084285Y-95146428D01*
X145084285Y-95075000D01*
X145120000Y-94967857D01*
X145155714Y-94932142D01*
X145834285Y-94217857D02*
X145834285Y-94646428D01*
X145834285Y-94432142D02*
X145084285Y-94432142D01*
X145191428Y-94503571D01*
X145262857Y-94575000D01*
X145298571Y-94646428D01*
X145834285Y-93503571D02*
X145834285Y-93932142D01*
X145834285Y-93717857D02*
X145084285Y-93717857D01*
X145191428Y-93789285D01*
X145262857Y-93860714D01*
X145298571Y-93932142D01*
%TO.C,C12*%
X153317857Y-97092857D02*
X153282142Y-97128571D01*
X153175000Y-97164285D01*
X153103571Y-97164285D01*
X152996428Y-97128571D01*
X152925000Y-97057142D01*
X152889285Y-96985714D01*
X152853571Y-96842857D01*
X152853571Y-96735714D01*
X152889285Y-96592857D01*
X152925000Y-96521428D01*
X152996428Y-96450000D01*
X153103571Y-96414285D01*
X153175000Y-96414285D01*
X153282142Y-96450000D01*
X153317857Y-96485714D01*
X154032142Y-97164285D02*
X153603571Y-97164285D01*
X153817857Y-97164285D02*
X153817857Y-96414285D01*
X153746428Y-96521428D01*
X153675000Y-96592857D01*
X153603571Y-96628571D01*
X154317857Y-96485714D02*
X154353571Y-96450000D01*
X154425000Y-96414285D01*
X154603571Y-96414285D01*
X154675000Y-96450000D01*
X154710714Y-96485714D01*
X154746428Y-96557142D01*
X154746428Y-96628571D01*
X154710714Y-96735714D01*
X154282142Y-97164285D01*
X154746428Y-97164285D01*
%TO.C,C18*%
X164892857Y-126572857D02*
X164857142Y-126608571D01*
X164750000Y-126644285D01*
X164678571Y-126644285D01*
X164571428Y-126608571D01*
X164500000Y-126537142D01*
X164464285Y-126465714D01*
X164428571Y-126322857D01*
X164428571Y-126215714D01*
X164464285Y-126072857D01*
X164500000Y-126001428D01*
X164571428Y-125930000D01*
X164678571Y-125894285D01*
X164750000Y-125894285D01*
X164857142Y-125930000D01*
X164892857Y-125965714D01*
X165607142Y-126644285D02*
X165178571Y-126644285D01*
X165392857Y-126644285D02*
X165392857Y-125894285D01*
X165321428Y-126001428D01*
X165250000Y-126072857D01*
X165178571Y-126108571D01*
X166035714Y-126215714D02*
X165964285Y-126180000D01*
X165928571Y-126144285D01*
X165892857Y-126072857D01*
X165892857Y-126037142D01*
X165928571Y-125965714D01*
X165964285Y-125930000D01*
X166035714Y-125894285D01*
X166178571Y-125894285D01*
X166250000Y-125930000D01*
X166285714Y-125965714D01*
X166321428Y-126037142D01*
X166321428Y-126072857D01*
X166285714Y-126144285D01*
X166250000Y-126180000D01*
X166178571Y-126215714D01*
X166035714Y-126215714D01*
X165964285Y-126251428D01*
X165928571Y-126287142D01*
X165892857Y-126358571D01*
X165892857Y-126501428D01*
X165928571Y-126572857D01*
X165964285Y-126608571D01*
X166035714Y-126644285D01*
X166178571Y-126644285D01*
X166250000Y-126608571D01*
X166285714Y-126572857D01*
X166321428Y-126501428D01*
X166321428Y-126358571D01*
X166285714Y-126287142D01*
X166250000Y-126251428D01*
X166178571Y-126215714D01*
%TO.C,C15*%
X123937857Y-114817857D02*
X123902142Y-114853571D01*
X123795000Y-114889285D01*
X123723571Y-114889285D01*
X123616428Y-114853571D01*
X123545000Y-114782142D01*
X123509285Y-114710714D01*
X123473571Y-114567857D01*
X123473571Y-114460714D01*
X123509285Y-114317857D01*
X123545000Y-114246428D01*
X123616428Y-114175000D01*
X123723571Y-114139285D01*
X123795000Y-114139285D01*
X123902142Y-114175000D01*
X123937857Y-114210714D01*
X124652142Y-114889285D02*
X124223571Y-114889285D01*
X124437857Y-114889285D02*
X124437857Y-114139285D01*
X124366428Y-114246428D01*
X124295000Y-114317857D01*
X124223571Y-114353571D01*
X125330714Y-114139285D02*
X124973571Y-114139285D01*
X124937857Y-114496428D01*
X124973571Y-114460714D01*
X125045000Y-114425000D01*
X125223571Y-114425000D01*
X125295000Y-114460714D01*
X125330714Y-114496428D01*
X125366428Y-114567857D01*
X125366428Y-114746428D01*
X125330714Y-114817857D01*
X125295000Y-114853571D01*
X125223571Y-114889285D01*
X125045000Y-114889285D01*
X124973571Y-114853571D01*
X124937857Y-114817857D01*
%TO.C,C23*%
X151462857Y-88592857D02*
X151427142Y-88628571D01*
X151320000Y-88664285D01*
X151248571Y-88664285D01*
X151141428Y-88628571D01*
X151070000Y-88557142D01*
X151034285Y-88485714D01*
X150998571Y-88342857D01*
X150998571Y-88235714D01*
X151034285Y-88092857D01*
X151070000Y-88021428D01*
X151141428Y-87950000D01*
X151248571Y-87914285D01*
X151320000Y-87914285D01*
X151427142Y-87950000D01*
X151462857Y-87985714D01*
X151748571Y-87985714D02*
X151784285Y-87950000D01*
X151855714Y-87914285D01*
X152034285Y-87914285D01*
X152105714Y-87950000D01*
X152141428Y-87985714D01*
X152177142Y-88057142D01*
X152177142Y-88128571D01*
X152141428Y-88235714D01*
X151712857Y-88664285D01*
X152177142Y-88664285D01*
X152427142Y-87914285D02*
X152891428Y-87914285D01*
X152641428Y-88200000D01*
X152748571Y-88200000D01*
X152820000Y-88235714D01*
X152855714Y-88271428D01*
X152891428Y-88342857D01*
X152891428Y-88521428D01*
X152855714Y-88592857D01*
X152820000Y-88628571D01*
X152748571Y-88664285D01*
X152534285Y-88664285D01*
X152462857Y-88628571D01*
X152427142Y-88592857D01*
%TO.C,C19*%
X123937857Y-110817857D02*
X123902142Y-110853571D01*
X123795000Y-110889285D01*
X123723571Y-110889285D01*
X123616428Y-110853571D01*
X123545000Y-110782142D01*
X123509285Y-110710714D01*
X123473571Y-110567857D01*
X123473571Y-110460714D01*
X123509285Y-110317857D01*
X123545000Y-110246428D01*
X123616428Y-110175000D01*
X123723571Y-110139285D01*
X123795000Y-110139285D01*
X123902142Y-110175000D01*
X123937857Y-110210714D01*
X124652142Y-110889285D02*
X124223571Y-110889285D01*
X124437857Y-110889285D02*
X124437857Y-110139285D01*
X124366428Y-110246428D01*
X124295000Y-110317857D01*
X124223571Y-110353571D01*
X125009285Y-110889285D02*
X125152142Y-110889285D01*
X125223571Y-110853571D01*
X125259285Y-110817857D01*
X125330714Y-110710714D01*
X125366428Y-110567857D01*
X125366428Y-110282142D01*
X125330714Y-110210714D01*
X125295000Y-110175000D01*
X125223571Y-110139285D01*
X125080714Y-110139285D01*
X125009285Y-110175000D01*
X124973571Y-110210714D01*
X124937857Y-110282142D01*
X124937857Y-110460714D01*
X124973571Y-110532142D01*
X125009285Y-110567857D01*
X125080714Y-110603571D01*
X125223571Y-110603571D01*
X125295000Y-110567857D01*
X125330714Y-110532142D01*
X125366428Y-110460714D01*
%TO.C,C21*%
X168962857Y-115817857D02*
X168927142Y-115853571D01*
X168820000Y-115889285D01*
X168748571Y-115889285D01*
X168641428Y-115853571D01*
X168570000Y-115782142D01*
X168534285Y-115710714D01*
X168498571Y-115567857D01*
X168498571Y-115460714D01*
X168534285Y-115317857D01*
X168570000Y-115246428D01*
X168641428Y-115175000D01*
X168748571Y-115139285D01*
X168820000Y-115139285D01*
X168927142Y-115175000D01*
X168962857Y-115210714D01*
X169248571Y-115210714D02*
X169284285Y-115175000D01*
X169355714Y-115139285D01*
X169534285Y-115139285D01*
X169605714Y-115175000D01*
X169641428Y-115210714D01*
X169677142Y-115282142D01*
X169677142Y-115353571D01*
X169641428Y-115460714D01*
X169212857Y-115889285D01*
X169677142Y-115889285D01*
X170391428Y-115889285D02*
X169962857Y-115889285D01*
X170177142Y-115889285D02*
X170177142Y-115139285D01*
X170105714Y-115246428D01*
X170034285Y-115317857D01*
X169962857Y-115353571D01*
%TO.C,C20*%
X121162857Y-71467857D02*
X121127142Y-71503571D01*
X121020000Y-71539285D01*
X120948571Y-71539285D01*
X120841428Y-71503571D01*
X120770000Y-71432142D01*
X120734285Y-71360714D01*
X120698571Y-71217857D01*
X120698571Y-71110714D01*
X120734285Y-70967857D01*
X120770000Y-70896428D01*
X120841428Y-70825000D01*
X120948571Y-70789285D01*
X121020000Y-70789285D01*
X121127142Y-70825000D01*
X121162857Y-70860714D01*
X121448571Y-70860714D02*
X121484285Y-70825000D01*
X121555714Y-70789285D01*
X121734285Y-70789285D01*
X121805714Y-70825000D01*
X121841428Y-70860714D01*
X121877142Y-70932142D01*
X121877142Y-71003571D01*
X121841428Y-71110714D01*
X121412857Y-71539285D01*
X121877142Y-71539285D01*
X122341428Y-70789285D02*
X122412857Y-70789285D01*
X122484285Y-70825000D01*
X122520000Y-70860714D01*
X122555714Y-70932142D01*
X122591428Y-71075000D01*
X122591428Y-71253571D01*
X122555714Y-71396428D01*
X122520000Y-71467857D01*
X122484285Y-71503571D01*
X122412857Y-71539285D01*
X122341428Y-71539285D01*
X122270000Y-71503571D01*
X122234285Y-71467857D01*
X122198571Y-71396428D01*
X122162857Y-71253571D01*
X122162857Y-71075000D01*
X122198571Y-70932142D01*
X122234285Y-70860714D01*
X122270000Y-70825000D01*
X122341428Y-70789285D01*
%TO.C,C22*%
X139762857Y-79492857D02*
X139727142Y-79528571D01*
X139620000Y-79564285D01*
X139548571Y-79564285D01*
X139441428Y-79528571D01*
X139370000Y-79457142D01*
X139334285Y-79385714D01*
X139298571Y-79242857D01*
X139298571Y-79135714D01*
X139334285Y-78992857D01*
X139370000Y-78921428D01*
X139441428Y-78850000D01*
X139548571Y-78814285D01*
X139620000Y-78814285D01*
X139727142Y-78850000D01*
X139762857Y-78885714D01*
X140048571Y-78885714D02*
X140084285Y-78850000D01*
X140155714Y-78814285D01*
X140334285Y-78814285D01*
X140405714Y-78850000D01*
X140441428Y-78885714D01*
X140477142Y-78957142D01*
X140477142Y-79028571D01*
X140441428Y-79135714D01*
X140012857Y-79564285D01*
X140477142Y-79564285D01*
X140762857Y-78885714D02*
X140798571Y-78850000D01*
X140870000Y-78814285D01*
X141048571Y-78814285D01*
X141120000Y-78850000D01*
X141155714Y-78885714D01*
X141191428Y-78957142D01*
X141191428Y-79028571D01*
X141155714Y-79135714D01*
X140727142Y-79564285D01*
X141191428Y-79564285D01*
%TO.C,C24*%
X145162857Y-79467857D02*
X145127142Y-79503571D01*
X145020000Y-79539285D01*
X144948571Y-79539285D01*
X144841428Y-79503571D01*
X144770000Y-79432142D01*
X144734285Y-79360714D01*
X144698571Y-79217857D01*
X144698571Y-79110714D01*
X144734285Y-78967857D01*
X144770000Y-78896428D01*
X144841428Y-78825000D01*
X144948571Y-78789285D01*
X145020000Y-78789285D01*
X145127142Y-78825000D01*
X145162857Y-78860714D01*
X145448571Y-78860714D02*
X145484285Y-78825000D01*
X145555714Y-78789285D01*
X145734285Y-78789285D01*
X145805714Y-78825000D01*
X145841428Y-78860714D01*
X145877142Y-78932142D01*
X145877142Y-79003571D01*
X145841428Y-79110714D01*
X145412857Y-79539285D01*
X145877142Y-79539285D01*
X146520000Y-79039285D02*
X146520000Y-79539285D01*
X146341428Y-78753571D02*
X146162857Y-79289285D01*
X146627142Y-79289285D01*
%TO.C,D1*%
X127341428Y-126744285D02*
X127341428Y-125994285D01*
X127520000Y-125994285D01*
X127627142Y-126030000D01*
X127698571Y-126101428D01*
X127734285Y-126172857D01*
X127770000Y-126315714D01*
X127770000Y-126422857D01*
X127734285Y-126565714D01*
X127698571Y-126637142D01*
X127627142Y-126708571D01*
X127520000Y-126744285D01*
X127341428Y-126744285D01*
X128484285Y-126744285D02*
X128055714Y-126744285D01*
X128270000Y-126744285D02*
X128270000Y-125994285D01*
X128198571Y-126101428D01*
X128127142Y-126172857D01*
X128055714Y-126208571D01*
%TO.C,D4*%
X158291428Y-123039285D02*
X158291428Y-122289285D01*
X158470000Y-122289285D01*
X158577142Y-122325000D01*
X158648571Y-122396428D01*
X158684285Y-122467857D01*
X158720000Y-122610714D01*
X158720000Y-122717857D01*
X158684285Y-122860714D01*
X158648571Y-122932142D01*
X158577142Y-123003571D01*
X158470000Y-123039285D01*
X158291428Y-123039285D01*
X159362857Y-122539285D02*
X159362857Y-123039285D01*
X159184285Y-122253571D02*
X159005714Y-122789285D01*
X159470000Y-122789285D01*
%TO.C,J5*%
X173234285Y-136235000D02*
X173770000Y-136235000D01*
X173877142Y-136270714D01*
X173948571Y-136342142D01*
X173984285Y-136449285D01*
X173984285Y-136520714D01*
X173234285Y-135520714D02*
X173234285Y-135877857D01*
X173591428Y-135913571D01*
X173555714Y-135877857D01*
X173520000Y-135806428D01*
X173520000Y-135627857D01*
X173555714Y-135556428D01*
X173591428Y-135520714D01*
X173662857Y-135485000D01*
X173841428Y-135485000D01*
X173912857Y-135520714D01*
X173948571Y-135556428D01*
X173984285Y-135627857D01*
X173984285Y-135806428D01*
X173948571Y-135877857D01*
X173912857Y-135913571D01*
%TO.C,J3*%
X163434285Y-136950000D02*
X163970000Y-136950000D01*
X164077142Y-136985714D01*
X164148571Y-137057142D01*
X164184285Y-137164285D01*
X164184285Y-137235714D01*
X163434285Y-136664285D02*
X163434285Y-136200000D01*
X163720000Y-136450000D01*
X163720000Y-136342857D01*
X163755714Y-136271428D01*
X163791428Y-136235714D01*
X163862857Y-136200000D01*
X164041428Y-136200000D01*
X164112857Y-136235714D01*
X164148571Y-136271428D01*
X164184285Y-136342857D01*
X164184285Y-136557142D01*
X164148571Y-136628571D01*
X164112857Y-136664285D01*
%TO.C,L1*%
X142700000Y-82209285D02*
X142342857Y-82209285D01*
X142342857Y-81459285D01*
X143342857Y-82209285D02*
X142914285Y-82209285D01*
X143128571Y-82209285D02*
X143128571Y-81459285D01*
X143057142Y-81566428D01*
X142985714Y-81637857D01*
X142914285Y-81673571D01*
%TO.C,Q1*%
X153098571Y-127885714D02*
X153027142Y-127850000D01*
X152955714Y-127778571D01*
X152848571Y-127671428D01*
X152777142Y-127635714D01*
X152705714Y-127635714D01*
X152741428Y-127814285D02*
X152670000Y-127778571D01*
X152598571Y-127707142D01*
X152562857Y-127564285D01*
X152562857Y-127314285D01*
X152598571Y-127171428D01*
X152670000Y-127100000D01*
X152741428Y-127064285D01*
X152884285Y-127064285D01*
X152955714Y-127100000D01*
X153027142Y-127171428D01*
X153062857Y-127314285D01*
X153062857Y-127564285D01*
X153027142Y-127707142D01*
X152955714Y-127778571D01*
X152884285Y-127814285D01*
X152741428Y-127814285D01*
X153777142Y-127814285D02*
X153348571Y-127814285D01*
X153562857Y-127814285D02*
X153562857Y-127064285D01*
X153491428Y-127171428D01*
X153420000Y-127242857D01*
X153348571Y-127278571D01*
%TO.C,Q2*%
X163773571Y-93760714D02*
X163702142Y-93725000D01*
X163630714Y-93653571D01*
X163523571Y-93546428D01*
X163452142Y-93510714D01*
X163380714Y-93510714D01*
X163416428Y-93689285D02*
X163345000Y-93653571D01*
X163273571Y-93582142D01*
X163237857Y-93439285D01*
X163237857Y-93189285D01*
X163273571Y-93046428D01*
X163345000Y-92975000D01*
X163416428Y-92939285D01*
X163559285Y-92939285D01*
X163630714Y-92975000D01*
X163702142Y-93046428D01*
X163737857Y-93189285D01*
X163737857Y-93439285D01*
X163702142Y-93582142D01*
X163630714Y-93653571D01*
X163559285Y-93689285D01*
X163416428Y-93689285D01*
X164023571Y-93010714D02*
X164059285Y-92975000D01*
X164130714Y-92939285D01*
X164309285Y-92939285D01*
X164380714Y-92975000D01*
X164416428Y-93010714D01*
X164452142Y-93082142D01*
X164452142Y-93153571D01*
X164416428Y-93260714D01*
X163987857Y-93689285D01*
X164452142Y-93689285D01*
%TO.C,R2*%
X141520000Y-126889285D02*
X141270000Y-126532142D01*
X141091428Y-126889285D02*
X141091428Y-126139285D01*
X141377142Y-126139285D01*
X141448571Y-126175000D01*
X141484285Y-126210714D01*
X141520000Y-126282142D01*
X141520000Y-126389285D01*
X141484285Y-126460714D01*
X141448571Y-126496428D01*
X141377142Y-126532142D01*
X141091428Y-126532142D01*
X141805714Y-126210714D02*
X141841428Y-126175000D01*
X141912857Y-126139285D01*
X142091428Y-126139285D01*
X142162857Y-126175000D01*
X142198571Y-126210714D01*
X142234285Y-126282142D01*
X142234285Y-126353571D01*
X142198571Y-126460714D01*
X141770000Y-126889285D01*
X142234285Y-126889285D01*
%TO.C,R22*%
X138162857Y-84739285D02*
X137912857Y-84382142D01*
X137734285Y-84739285D02*
X137734285Y-83989285D01*
X138020000Y-83989285D01*
X138091428Y-84025000D01*
X138127142Y-84060714D01*
X138162857Y-84132142D01*
X138162857Y-84239285D01*
X138127142Y-84310714D01*
X138091428Y-84346428D01*
X138020000Y-84382142D01*
X137734285Y-84382142D01*
X138448571Y-84060714D02*
X138484285Y-84025000D01*
X138555714Y-83989285D01*
X138734285Y-83989285D01*
X138805714Y-84025000D01*
X138841428Y-84060714D01*
X138877142Y-84132142D01*
X138877142Y-84203571D01*
X138841428Y-84310714D01*
X138412857Y-84739285D01*
X138877142Y-84739285D01*
X139162857Y-84060714D02*
X139198571Y-84025000D01*
X139270000Y-83989285D01*
X139448571Y-83989285D01*
X139520000Y-84025000D01*
X139555714Y-84060714D01*
X139591428Y-84132142D01*
X139591428Y-84203571D01*
X139555714Y-84310714D01*
X139127142Y-84739285D01*
X139591428Y-84739285D01*
%TO.C,R9*%
X165220000Y-76239285D02*
X164970000Y-75882142D01*
X164791428Y-76239285D02*
X164791428Y-75489285D01*
X165077142Y-75489285D01*
X165148571Y-75525000D01*
X165184285Y-75560714D01*
X165220000Y-75632142D01*
X165220000Y-75739285D01*
X165184285Y-75810714D01*
X165148571Y-75846428D01*
X165077142Y-75882142D01*
X164791428Y-75882142D01*
X165577142Y-76239285D02*
X165720000Y-76239285D01*
X165791428Y-76203571D01*
X165827142Y-76167857D01*
X165898571Y-76060714D01*
X165934285Y-75917857D01*
X165934285Y-75632142D01*
X165898571Y-75560714D01*
X165862857Y-75525000D01*
X165791428Y-75489285D01*
X165648571Y-75489285D01*
X165577142Y-75525000D01*
X165541428Y-75560714D01*
X165505714Y-75632142D01*
X165505714Y-75810714D01*
X165541428Y-75882142D01*
X165577142Y-75917857D01*
X165648571Y-75953571D01*
X165791428Y-75953571D01*
X165862857Y-75917857D01*
X165898571Y-75882142D01*
X165934285Y-75810714D01*
%TO.C,R10*%
X155709285Y-122107142D02*
X155352142Y-122357142D01*
X155709285Y-122535714D02*
X154959285Y-122535714D01*
X154959285Y-122250000D01*
X154995000Y-122178571D01*
X155030714Y-122142857D01*
X155102142Y-122107142D01*
X155209285Y-122107142D01*
X155280714Y-122142857D01*
X155316428Y-122178571D01*
X155352142Y-122250000D01*
X155352142Y-122535714D01*
X155709285Y-121392857D02*
X155709285Y-121821428D01*
X155709285Y-121607142D02*
X154959285Y-121607142D01*
X155066428Y-121678571D01*
X155137857Y-121750000D01*
X155173571Y-121821428D01*
X154959285Y-120928571D02*
X154959285Y-120857142D01*
X154995000Y-120785714D01*
X155030714Y-120750000D01*
X155102142Y-120714285D01*
X155245000Y-120678571D01*
X155423571Y-120678571D01*
X155566428Y-120714285D01*
X155637857Y-120750000D01*
X155673571Y-120785714D01*
X155709285Y-120857142D01*
X155709285Y-120928571D01*
X155673571Y-121000000D01*
X155637857Y-121035714D01*
X155566428Y-121071428D01*
X155423571Y-121107142D01*
X155245000Y-121107142D01*
X155102142Y-121071428D01*
X155030714Y-121035714D01*
X154995000Y-121000000D01*
X154959285Y-120928571D01*
%TO.C,R14*%
X133537857Y-110189285D02*
X133287857Y-109832142D01*
X133109285Y-110189285D02*
X133109285Y-109439285D01*
X133395000Y-109439285D01*
X133466428Y-109475000D01*
X133502142Y-109510714D01*
X133537857Y-109582142D01*
X133537857Y-109689285D01*
X133502142Y-109760714D01*
X133466428Y-109796428D01*
X133395000Y-109832142D01*
X133109285Y-109832142D01*
X134252142Y-110189285D02*
X133823571Y-110189285D01*
X134037857Y-110189285D02*
X134037857Y-109439285D01*
X133966428Y-109546428D01*
X133895000Y-109617857D01*
X133823571Y-109653571D01*
X134895000Y-109689285D02*
X134895000Y-110189285D01*
X134716428Y-109403571D02*
X134537857Y-109939285D01*
X135002142Y-109939285D01*
%TO.C,R15*%
X133487857Y-113389285D02*
X133237857Y-113032142D01*
X133059285Y-113389285D02*
X133059285Y-112639285D01*
X133345000Y-112639285D01*
X133416428Y-112675000D01*
X133452142Y-112710714D01*
X133487857Y-112782142D01*
X133487857Y-112889285D01*
X133452142Y-112960714D01*
X133416428Y-112996428D01*
X133345000Y-113032142D01*
X133059285Y-113032142D01*
X134202142Y-113389285D02*
X133773571Y-113389285D01*
X133987857Y-113389285D02*
X133987857Y-112639285D01*
X133916428Y-112746428D01*
X133845000Y-112817857D01*
X133773571Y-112853571D01*
X134880714Y-112639285D02*
X134523571Y-112639285D01*
X134487857Y-112996428D01*
X134523571Y-112960714D01*
X134595000Y-112925000D01*
X134773571Y-112925000D01*
X134845000Y-112960714D01*
X134880714Y-112996428D01*
X134916428Y-113067857D01*
X134916428Y-113246428D01*
X134880714Y-113317857D01*
X134845000Y-113353571D01*
X134773571Y-113389285D01*
X134595000Y-113389285D01*
X134523571Y-113353571D01*
X134487857Y-113317857D01*
%TO.C,R17*%
X126862857Y-86239285D02*
X126612857Y-85882142D01*
X126434285Y-86239285D02*
X126434285Y-85489285D01*
X126720000Y-85489285D01*
X126791428Y-85525000D01*
X126827142Y-85560714D01*
X126862857Y-85632142D01*
X126862857Y-85739285D01*
X126827142Y-85810714D01*
X126791428Y-85846428D01*
X126720000Y-85882142D01*
X126434285Y-85882142D01*
X127577142Y-86239285D02*
X127148571Y-86239285D01*
X127362857Y-86239285D02*
X127362857Y-85489285D01*
X127291428Y-85596428D01*
X127220000Y-85667857D01*
X127148571Y-85703571D01*
X127827142Y-85489285D02*
X128327142Y-85489285D01*
X128005714Y-86239285D01*
%TO.C,R18*%
X171462857Y-103189285D02*
X171212857Y-102832142D01*
X171034285Y-103189285D02*
X171034285Y-102439285D01*
X171320000Y-102439285D01*
X171391428Y-102475000D01*
X171427142Y-102510714D01*
X171462857Y-102582142D01*
X171462857Y-102689285D01*
X171427142Y-102760714D01*
X171391428Y-102796428D01*
X171320000Y-102832142D01*
X171034285Y-102832142D01*
X172177142Y-103189285D02*
X171748571Y-103189285D01*
X171962857Y-103189285D02*
X171962857Y-102439285D01*
X171891428Y-102546428D01*
X171820000Y-102617857D01*
X171748571Y-102653571D01*
X172605714Y-102760714D02*
X172534285Y-102725000D01*
X172498571Y-102689285D01*
X172462857Y-102617857D01*
X172462857Y-102582142D01*
X172498571Y-102510714D01*
X172534285Y-102475000D01*
X172605714Y-102439285D01*
X172748571Y-102439285D01*
X172820000Y-102475000D01*
X172855714Y-102510714D01*
X172891428Y-102582142D01*
X172891428Y-102617857D01*
X172855714Y-102689285D01*
X172820000Y-102725000D01*
X172748571Y-102760714D01*
X172605714Y-102760714D01*
X172534285Y-102796428D01*
X172498571Y-102832142D01*
X172462857Y-102903571D01*
X172462857Y-103046428D01*
X172498571Y-103117857D01*
X172534285Y-103153571D01*
X172605714Y-103189285D01*
X172748571Y-103189285D01*
X172820000Y-103153571D01*
X172855714Y-103117857D01*
X172891428Y-103046428D01*
X172891428Y-102903571D01*
X172855714Y-102832142D01*
X172820000Y-102796428D01*
X172748571Y-102760714D01*
%TO.C,R19*%
X129162857Y-87039285D02*
X128912857Y-86682142D01*
X128734285Y-87039285D02*
X128734285Y-86289285D01*
X129020000Y-86289285D01*
X129091428Y-86325000D01*
X129127142Y-86360714D01*
X129162857Y-86432142D01*
X129162857Y-86539285D01*
X129127142Y-86610714D01*
X129091428Y-86646428D01*
X129020000Y-86682142D01*
X128734285Y-86682142D01*
X129877142Y-87039285D02*
X129448571Y-87039285D01*
X129662857Y-87039285D02*
X129662857Y-86289285D01*
X129591428Y-86396428D01*
X129520000Y-86467857D01*
X129448571Y-86503571D01*
X130234285Y-87039285D02*
X130377142Y-87039285D01*
X130448571Y-87003571D01*
X130484285Y-86967857D01*
X130555714Y-86860714D01*
X130591428Y-86717857D01*
X130591428Y-86432142D01*
X130555714Y-86360714D01*
X130520000Y-86325000D01*
X130448571Y-86289285D01*
X130305714Y-86289285D01*
X130234285Y-86325000D01*
X130198571Y-86360714D01*
X130162857Y-86432142D01*
X130162857Y-86610714D01*
X130198571Y-86682142D01*
X130234285Y-86717857D01*
X130305714Y-86753571D01*
X130448571Y-86753571D01*
X130520000Y-86717857D01*
X130555714Y-86682142D01*
X130591428Y-86610714D01*
%TO.C,R21*%
X171177857Y-108039285D02*
X170927857Y-107682142D01*
X170749285Y-108039285D02*
X170749285Y-107289285D01*
X171035000Y-107289285D01*
X171106428Y-107325000D01*
X171142142Y-107360714D01*
X171177857Y-107432142D01*
X171177857Y-107539285D01*
X171142142Y-107610714D01*
X171106428Y-107646428D01*
X171035000Y-107682142D01*
X170749285Y-107682142D01*
X171463571Y-107360714D02*
X171499285Y-107325000D01*
X171570714Y-107289285D01*
X171749285Y-107289285D01*
X171820714Y-107325000D01*
X171856428Y-107360714D01*
X171892142Y-107432142D01*
X171892142Y-107503571D01*
X171856428Y-107610714D01*
X171427857Y-108039285D01*
X171892142Y-108039285D01*
X172606428Y-108039285D02*
X172177857Y-108039285D01*
X172392142Y-108039285D02*
X172392142Y-107289285D01*
X172320714Y-107396428D01*
X172249285Y-107467857D01*
X172177857Y-107503571D01*
%TO.C,R23*%
X121562857Y-84739285D02*
X121312857Y-84382142D01*
X121134285Y-84739285D02*
X121134285Y-83989285D01*
X121420000Y-83989285D01*
X121491428Y-84025000D01*
X121527142Y-84060714D01*
X121562857Y-84132142D01*
X121562857Y-84239285D01*
X121527142Y-84310714D01*
X121491428Y-84346428D01*
X121420000Y-84382142D01*
X121134285Y-84382142D01*
X121848571Y-84060714D02*
X121884285Y-84025000D01*
X121955714Y-83989285D01*
X122134285Y-83989285D01*
X122205714Y-84025000D01*
X122241428Y-84060714D01*
X122277142Y-84132142D01*
X122277142Y-84203571D01*
X122241428Y-84310714D01*
X121812857Y-84739285D01*
X122277142Y-84739285D01*
X122527142Y-83989285D02*
X122991428Y-83989285D01*
X122741428Y-84275000D01*
X122848571Y-84275000D01*
X122920000Y-84310714D01*
X122955714Y-84346428D01*
X122991428Y-84417857D01*
X122991428Y-84596428D01*
X122955714Y-84667857D01*
X122920000Y-84703571D01*
X122848571Y-84739285D01*
X122634285Y-84739285D01*
X122562857Y-84703571D01*
X122527142Y-84667857D01*
D12*
%TO.C,U1*%
X142478571Y-100789285D02*
X142478571Y-101396428D01*
X142514285Y-101467857D01*
X142550000Y-101503571D01*
X142621428Y-101539285D01*
X142764285Y-101539285D01*
X142835714Y-101503571D01*
X142871428Y-101467857D01*
X142907142Y-101396428D01*
X142907142Y-100789285D01*
X143657142Y-101539285D02*
X143228571Y-101539285D01*
X143442857Y-101539285D02*
X143442857Y-100789285D01*
X143371428Y-100896428D01*
X143300000Y-100967857D01*
X143228571Y-101003571D01*
D10*
%TO.C,U2*%
X141623571Y-127139285D02*
X141623571Y-127746428D01*
X141659285Y-127817857D01*
X141695000Y-127853571D01*
X141766428Y-127889285D01*
X141909285Y-127889285D01*
X141980714Y-127853571D01*
X142016428Y-127817857D01*
X142052142Y-127746428D01*
X142052142Y-127139285D01*
X142373571Y-127210714D02*
X142409285Y-127175000D01*
X142480714Y-127139285D01*
X142659285Y-127139285D01*
X142730714Y-127175000D01*
X142766428Y-127210714D01*
X142802142Y-127282142D01*
X142802142Y-127353571D01*
X142766428Y-127460714D01*
X142337857Y-127889285D01*
X142802142Y-127889285D01*
%TO.C,U7*%
X136023571Y-87289285D02*
X136023571Y-87896428D01*
X136059285Y-87967857D01*
X136095000Y-88003571D01*
X136166428Y-88039285D01*
X136309285Y-88039285D01*
X136380714Y-88003571D01*
X136416428Y-87967857D01*
X136452142Y-87896428D01*
X136452142Y-87289285D01*
X136737857Y-87289285D02*
X137237857Y-87289285D01*
X136916428Y-88039285D01*
%TO.C,U3*%
X131198571Y-110189285D02*
X131198571Y-110796428D01*
X131234285Y-110867857D01*
X131270000Y-110903571D01*
X131341428Y-110939285D01*
X131484285Y-110939285D01*
X131555714Y-110903571D01*
X131591428Y-110867857D01*
X131627142Y-110796428D01*
X131627142Y-110189285D01*
X131912857Y-110189285D02*
X132377142Y-110189285D01*
X132127142Y-110475000D01*
X132234285Y-110475000D01*
X132305714Y-110510714D01*
X132341428Y-110546428D01*
X132377142Y-110617857D01*
X132377142Y-110796428D01*
X132341428Y-110867857D01*
X132305714Y-110903571D01*
X132234285Y-110939285D01*
X132020000Y-110939285D01*
X131948571Y-110903571D01*
X131912857Y-110867857D01*
%TO.C,U5*%
X124218571Y-69734285D02*
X124218571Y-70341428D01*
X124254285Y-70412857D01*
X124290000Y-70448571D01*
X124361428Y-70484285D01*
X124504285Y-70484285D01*
X124575714Y-70448571D01*
X124611428Y-70412857D01*
X124647142Y-70341428D01*
X124647142Y-69734285D01*
X125361428Y-69734285D02*
X125004285Y-69734285D01*
X124968571Y-70091428D01*
X125004285Y-70055714D01*
X125075714Y-70020000D01*
X125254285Y-70020000D01*
X125325714Y-70055714D01*
X125361428Y-70091428D01*
X125397142Y-70162857D01*
X125397142Y-70341428D01*
X125361428Y-70412857D01*
X125325714Y-70448571D01*
X125254285Y-70484285D01*
X125075714Y-70484285D01*
X125004285Y-70448571D01*
X124968571Y-70412857D01*
%TO.C,U6*%
X164608571Y-104844285D02*
X164608571Y-105451428D01*
X164644285Y-105522857D01*
X164680000Y-105558571D01*
X164751428Y-105594285D01*
X164894285Y-105594285D01*
X164965714Y-105558571D01*
X165001428Y-105522857D01*
X165037142Y-105451428D01*
X165037142Y-104844285D01*
X165715714Y-104844285D02*
X165572857Y-104844285D01*
X165501428Y-104880000D01*
X165465714Y-104915714D01*
X165394285Y-105022857D01*
X165358571Y-105165714D01*
X165358571Y-105451428D01*
X165394285Y-105522857D01*
X165430000Y-105558571D01*
X165501428Y-105594285D01*
X165644285Y-105594285D01*
X165715714Y-105558571D01*
X165751428Y-105522857D01*
X165787142Y-105451428D01*
X165787142Y-105272857D01*
X165751428Y-105201428D01*
X165715714Y-105165714D01*
X165644285Y-105130000D01*
X165501428Y-105130000D01*
X165430000Y-105165714D01*
X165394285Y-105201428D01*
X165358571Y-105272857D01*
%TO.C,J8*%
X144080000Y-74604285D02*
X144080000Y-75140000D01*
X144044285Y-75247142D01*
X143972857Y-75318571D01*
X143865714Y-75354285D01*
X143794285Y-75354285D01*
X144544285Y-74925714D02*
X144472857Y-74890000D01*
X144437142Y-74854285D01*
X144401428Y-74782857D01*
X144401428Y-74747142D01*
X144437142Y-74675714D01*
X144472857Y-74640000D01*
X144544285Y-74604285D01*
X144687142Y-74604285D01*
X144758571Y-74640000D01*
X144794285Y-74675714D01*
X144830000Y-74747142D01*
X144830000Y-74782857D01*
X144794285Y-74854285D01*
X144758571Y-74890000D01*
X144687142Y-74925714D01*
X144544285Y-74925714D01*
X144472857Y-74961428D01*
X144437142Y-74997142D01*
X144401428Y-75068571D01*
X144401428Y-75211428D01*
X144437142Y-75282857D01*
X144472857Y-75318571D01*
X144544285Y-75354285D01*
X144687142Y-75354285D01*
X144758571Y-75318571D01*
X144794285Y-75282857D01*
X144830000Y-75211428D01*
X144830000Y-75068571D01*
X144794285Y-74997142D01*
X144758571Y-74961428D01*
X144687142Y-74925714D01*
%TO.C,JP1*%
X155020000Y-116239285D02*
X155020000Y-116775000D01*
X154984285Y-116882142D01*
X154912857Y-116953571D01*
X154805714Y-116989285D01*
X154734285Y-116989285D01*
X155377142Y-116989285D02*
X155377142Y-116239285D01*
X155662857Y-116239285D01*
X155734285Y-116275000D01*
X155770000Y-116310714D01*
X155805714Y-116382142D01*
X155805714Y-116489285D01*
X155770000Y-116560714D01*
X155734285Y-116596428D01*
X155662857Y-116632142D01*
X155377142Y-116632142D01*
X156520000Y-116989285D02*
X156091428Y-116989285D01*
X156305714Y-116989285D02*
X156305714Y-116239285D01*
X156234285Y-116346428D01*
X156162857Y-116417857D01*
X156091428Y-116453571D01*
%TO.C,TP5*%
X132495000Y-122089285D02*
X132745000Y-122839285D01*
X132995000Y-122089285D01*
X133245000Y-122839285D02*
X133245000Y-122089285D01*
X133423571Y-122089285D01*
X133530714Y-122125000D01*
X133602142Y-122196428D01*
X133637857Y-122267857D01*
X133673571Y-122410714D01*
X133673571Y-122517857D01*
X133637857Y-122660714D01*
X133602142Y-122732142D01*
X133530714Y-122803571D01*
X133423571Y-122839285D01*
X133245000Y-122839285D01*
X134423571Y-122767857D02*
X134387857Y-122803571D01*
X134280714Y-122839285D01*
X134209285Y-122839285D01*
X134102142Y-122803571D01*
X134030714Y-122732142D01*
X133995000Y-122660714D01*
X133959285Y-122517857D01*
X133959285Y-122410714D01*
X133995000Y-122267857D01*
X134030714Y-122196428D01*
X134102142Y-122125000D01*
X134209285Y-122089285D01*
X134280714Y-122089285D01*
X134387857Y-122125000D01*
X134423571Y-122160714D01*
%TO.C,TP1*%
X170091428Y-111839285D02*
X170555714Y-111839285D01*
X170305714Y-112125000D01*
X170412857Y-112125000D01*
X170484285Y-112160714D01*
X170520000Y-112196428D01*
X170555714Y-112267857D01*
X170555714Y-112446428D01*
X170520000Y-112517857D01*
X170484285Y-112553571D01*
X170412857Y-112589285D01*
X170198571Y-112589285D01*
X170127142Y-112553571D01*
X170091428Y-112517857D01*
X170770000Y-111839285D02*
X171020000Y-112589285D01*
X171270000Y-111839285D01*
X171448571Y-111839285D02*
X171912857Y-111839285D01*
X171662857Y-112125000D01*
X171770000Y-112125000D01*
X171841428Y-112160714D01*
X171877142Y-112196428D01*
X171912857Y-112267857D01*
X171912857Y-112446428D01*
X171877142Y-112517857D01*
X171841428Y-112553571D01*
X171770000Y-112589285D01*
X171555714Y-112589285D01*
X171484285Y-112553571D01*
X171448571Y-112517857D01*
%TO.C,TP7*%
X130395000Y-95239285D02*
X130037857Y-95239285D01*
X130037857Y-94489285D01*
X130752142Y-95239285D02*
X130680714Y-95203571D01*
X130645000Y-95167857D01*
X130609285Y-95096428D01*
X130609285Y-94882142D01*
X130645000Y-94810714D01*
X130680714Y-94775000D01*
X130752142Y-94739285D01*
X130859285Y-94739285D01*
X130930714Y-94775000D01*
X130966428Y-94810714D01*
X131002142Y-94882142D01*
X131002142Y-95096428D01*
X130966428Y-95167857D01*
X130930714Y-95203571D01*
X130859285Y-95239285D01*
X130752142Y-95239285D01*
X131752142Y-95239285D02*
X131502142Y-94882142D01*
X131323571Y-95239285D02*
X131323571Y-94489285D01*
X131609285Y-94489285D01*
X131680714Y-94525000D01*
X131716428Y-94560714D01*
X131752142Y-94632142D01*
X131752142Y-94739285D01*
X131716428Y-94810714D01*
X131680714Y-94846428D01*
X131609285Y-94882142D01*
X131323571Y-94882142D01*
X132395000Y-95239285D02*
X132395000Y-94846428D01*
X132359285Y-94775000D01*
X132287857Y-94739285D01*
X132145000Y-94739285D01*
X132073571Y-94775000D01*
X132395000Y-95203571D02*
X132323571Y-95239285D01*
X132145000Y-95239285D01*
X132073571Y-95203571D01*
X132037857Y-95132142D01*
X132037857Y-95060714D01*
X132073571Y-94989285D01*
X132145000Y-94953571D01*
X132323571Y-94953571D01*
X132395000Y-94917857D01*
X132573571Y-95310714D02*
X133145000Y-95310714D01*
X133216428Y-94489285D02*
X133645000Y-94489285D01*
X133430714Y-95239285D02*
X133430714Y-94489285D01*
X133823571Y-94489285D02*
X134323571Y-95239285D01*
X134323571Y-94489285D02*
X133823571Y-95239285D01*
%TO.C,TP8*%
X130255714Y-101489285D02*
X129898571Y-101489285D01*
X129898571Y-100739285D01*
X130612857Y-101489285D02*
X130541428Y-101453571D01*
X130505714Y-101417857D01*
X130470000Y-101346428D01*
X130470000Y-101132142D01*
X130505714Y-101060714D01*
X130541428Y-101025000D01*
X130612857Y-100989285D01*
X130720000Y-100989285D01*
X130791428Y-101025000D01*
X130827142Y-101060714D01*
X130862857Y-101132142D01*
X130862857Y-101346428D01*
X130827142Y-101417857D01*
X130791428Y-101453571D01*
X130720000Y-101489285D01*
X130612857Y-101489285D01*
X131612857Y-101489285D02*
X131362857Y-101132142D01*
X131184285Y-101489285D02*
X131184285Y-100739285D01*
X131470000Y-100739285D01*
X131541428Y-100775000D01*
X131577142Y-100810714D01*
X131612857Y-100882142D01*
X131612857Y-100989285D01*
X131577142Y-101060714D01*
X131541428Y-101096428D01*
X131470000Y-101132142D01*
X131184285Y-101132142D01*
X132255714Y-101489285D02*
X132255714Y-101096428D01*
X132220000Y-101025000D01*
X132148571Y-100989285D01*
X132005714Y-100989285D01*
X131934285Y-101025000D01*
X132255714Y-101453571D02*
X132184285Y-101489285D01*
X132005714Y-101489285D01*
X131934285Y-101453571D01*
X131898571Y-101382142D01*
X131898571Y-101310714D01*
X131934285Y-101239285D01*
X132005714Y-101203571D01*
X132184285Y-101203571D01*
X132255714Y-101167857D01*
X132434285Y-101560714D02*
X133005714Y-101560714D01*
X133612857Y-101489285D02*
X133362857Y-101132142D01*
X133184285Y-101489285D02*
X133184285Y-100739285D01*
X133470000Y-100739285D01*
X133541428Y-100775000D01*
X133577142Y-100810714D01*
X133612857Y-100882142D01*
X133612857Y-100989285D01*
X133577142Y-101060714D01*
X133541428Y-101096428D01*
X133470000Y-101132142D01*
X133184285Y-101132142D01*
X133862857Y-100739285D02*
X134362857Y-101489285D01*
X134362857Y-100739285D02*
X133862857Y-101489285D01*
%TO.C,C14*%
X138612857Y-125182142D02*
X138648571Y-125217857D01*
X138684285Y-125325000D01*
X138684285Y-125396428D01*
X138648571Y-125503571D01*
X138577142Y-125575000D01*
X138505714Y-125610714D01*
X138362857Y-125646428D01*
X138255714Y-125646428D01*
X138112857Y-125610714D01*
X138041428Y-125575000D01*
X137970000Y-125503571D01*
X137934285Y-125396428D01*
X137934285Y-125325000D01*
X137970000Y-125217857D01*
X138005714Y-125182142D01*
X138684285Y-124467857D02*
X138684285Y-124896428D01*
X138684285Y-124682142D02*
X137934285Y-124682142D01*
X138041428Y-124753571D01*
X138112857Y-124825000D01*
X138148571Y-124896428D01*
X138184285Y-123825000D02*
X138684285Y-123825000D01*
X137898571Y-124003571D02*
X138434285Y-124182142D01*
X138434285Y-123717857D01*
%TO.C,R1*%
X122120000Y-133739285D02*
X121870000Y-133382142D01*
X121691428Y-133739285D02*
X121691428Y-132989285D01*
X121977142Y-132989285D01*
X122048571Y-133025000D01*
X122084285Y-133060714D01*
X122120000Y-133132142D01*
X122120000Y-133239285D01*
X122084285Y-133310714D01*
X122048571Y-133346428D01*
X121977142Y-133382142D01*
X121691428Y-133382142D01*
X122834285Y-133739285D02*
X122405714Y-133739285D01*
X122620000Y-133739285D02*
X122620000Y-132989285D01*
X122548571Y-133096428D01*
X122477142Y-133167857D01*
X122405714Y-133203571D01*
%TO.C,R16*%
X167812857Y-118989285D02*
X167562857Y-118632142D01*
X167384285Y-118989285D02*
X167384285Y-118239285D01*
X167670000Y-118239285D01*
X167741428Y-118275000D01*
X167777142Y-118310714D01*
X167812857Y-118382142D01*
X167812857Y-118489285D01*
X167777142Y-118560714D01*
X167741428Y-118596428D01*
X167670000Y-118632142D01*
X167384285Y-118632142D01*
X168527142Y-118989285D02*
X168098571Y-118989285D01*
X168312857Y-118989285D02*
X168312857Y-118239285D01*
X168241428Y-118346428D01*
X168170000Y-118417857D01*
X168098571Y-118453571D01*
X169170000Y-118239285D02*
X169027142Y-118239285D01*
X168955714Y-118275000D01*
X168920000Y-118310714D01*
X168848571Y-118417857D01*
X168812857Y-118560714D01*
X168812857Y-118846428D01*
X168848571Y-118917857D01*
X168884285Y-118953571D01*
X168955714Y-118989285D01*
X169098571Y-118989285D01*
X169170000Y-118953571D01*
X169205714Y-118917857D01*
X169241428Y-118846428D01*
X169241428Y-118667857D01*
X169205714Y-118596428D01*
X169170000Y-118560714D01*
X169098571Y-118525000D01*
X168955714Y-118525000D01*
X168884285Y-118560714D01*
X168848571Y-118596428D01*
X168812857Y-118667857D01*
%TO.C,TP6*%
X160773571Y-122910714D02*
X160702142Y-122875000D01*
X160630714Y-122803571D01*
X160523571Y-122696428D01*
X160452142Y-122660714D01*
X160380714Y-122660714D01*
X160416428Y-122839285D02*
X160345000Y-122803571D01*
X160273571Y-122732142D01*
X160237857Y-122589285D01*
X160237857Y-122339285D01*
X160273571Y-122196428D01*
X160345000Y-122125000D01*
X160416428Y-122089285D01*
X160559285Y-122089285D01*
X160630714Y-122125000D01*
X160702142Y-122196428D01*
X160737857Y-122339285D01*
X160737857Y-122589285D01*
X160702142Y-122732142D01*
X160630714Y-122803571D01*
X160559285Y-122839285D01*
X160416428Y-122839285D01*
X161452142Y-122839285D02*
X161023571Y-122839285D01*
X161237857Y-122839285D02*
X161237857Y-122089285D01*
X161166428Y-122196428D01*
X161095000Y-122267857D01*
X161023571Y-122303571D01*
%TO.C,TP2*%
X159145000Y-98889285D02*
X159395000Y-99639285D01*
X159645000Y-98889285D01*
X159895000Y-99639285D02*
X159895000Y-98889285D01*
X160073571Y-98889285D01*
X160180714Y-98925000D01*
X160252142Y-98996428D01*
X160287857Y-99067857D01*
X160323571Y-99210714D01*
X160323571Y-99317857D01*
X160287857Y-99460714D01*
X160252142Y-99532142D01*
X160180714Y-99603571D01*
X160073571Y-99639285D01*
X159895000Y-99639285D01*
X160645000Y-99639285D02*
X160645000Y-98889285D01*
X160823571Y-98889285D01*
X160930714Y-98925000D01*
X161002142Y-98996428D01*
X161037857Y-99067857D01*
X161073571Y-99210714D01*
X161073571Y-99317857D01*
X161037857Y-99460714D01*
X161002142Y-99532142D01*
X160930714Y-99603571D01*
X160823571Y-99639285D01*
X160645000Y-99639285D01*
%TO.C,J6*%
X172234285Y-79220000D02*
X172770000Y-79220000D01*
X172877142Y-79255714D01*
X172948571Y-79327142D01*
X172984285Y-79434285D01*
X172984285Y-79505714D01*
X172234285Y-78541428D02*
X172234285Y-78684285D01*
X172270000Y-78755714D01*
X172305714Y-78791428D01*
X172412857Y-78862857D01*
X172555714Y-78898571D01*
X172841428Y-78898571D01*
X172912857Y-78862857D01*
X172948571Y-78827142D01*
X172984285Y-78755714D01*
X172984285Y-78612857D01*
X172948571Y-78541428D01*
X172912857Y-78505714D01*
X172841428Y-78470000D01*
X172662857Y-78470000D01*
X172591428Y-78505714D01*
X172555714Y-78541428D01*
X172520000Y-78612857D01*
X172520000Y-78755714D01*
X172555714Y-78827142D01*
X172591428Y-78862857D01*
X172662857Y-78898571D01*
%TO.C,R3*%
X138520000Y-133839285D02*
X138270000Y-133482142D01*
X138091428Y-133839285D02*
X138091428Y-133089285D01*
X138377142Y-133089285D01*
X138448571Y-133125000D01*
X138484285Y-133160714D01*
X138520000Y-133232142D01*
X138520000Y-133339285D01*
X138484285Y-133410714D01*
X138448571Y-133446428D01*
X138377142Y-133482142D01*
X138091428Y-133482142D01*
X138770000Y-133089285D02*
X139234285Y-133089285D01*
X138984285Y-133375000D01*
X139091428Y-133375000D01*
X139162857Y-133410714D01*
X139198571Y-133446428D01*
X139234285Y-133517857D01*
X139234285Y-133696428D01*
X139198571Y-133767857D01*
X139162857Y-133803571D01*
X139091428Y-133839285D01*
X138877142Y-133839285D01*
X138805714Y-133803571D01*
X138770000Y-133767857D01*
%TO.C,R4*%
X150899285Y-94825000D02*
X150542142Y-95075000D01*
X150899285Y-95253571D02*
X150149285Y-95253571D01*
X150149285Y-94967857D01*
X150185000Y-94896428D01*
X150220714Y-94860714D01*
X150292142Y-94825000D01*
X150399285Y-94825000D01*
X150470714Y-94860714D01*
X150506428Y-94896428D01*
X150542142Y-94967857D01*
X150542142Y-95253571D01*
X150399285Y-94182142D02*
X150899285Y-94182142D01*
X150113571Y-94360714D02*
X150649285Y-94539285D01*
X150649285Y-94075000D01*
%TO.C,U4*%
X172193571Y-117964285D02*
X172193571Y-118571428D01*
X172229285Y-118642857D01*
X172265000Y-118678571D01*
X172336428Y-118714285D01*
X172479285Y-118714285D01*
X172550714Y-118678571D01*
X172586428Y-118642857D01*
X172622142Y-118571428D01*
X172622142Y-117964285D01*
X173300714Y-118214285D02*
X173300714Y-118714285D01*
X173122142Y-117928571D02*
X172943571Y-118464285D01*
X173407857Y-118464285D01*
%TO.C,C10*%
X156962857Y-100742857D02*
X156927142Y-100778571D01*
X156820000Y-100814285D01*
X156748571Y-100814285D01*
X156641428Y-100778571D01*
X156570000Y-100707142D01*
X156534285Y-100635714D01*
X156498571Y-100492857D01*
X156498571Y-100385714D01*
X156534285Y-100242857D01*
X156570000Y-100171428D01*
X156641428Y-100100000D01*
X156748571Y-100064285D01*
X156820000Y-100064285D01*
X156927142Y-100100000D01*
X156962857Y-100135714D01*
X157677142Y-100814285D02*
X157248571Y-100814285D01*
X157462857Y-100814285D02*
X157462857Y-100064285D01*
X157391428Y-100171428D01*
X157320000Y-100242857D01*
X157248571Y-100278571D01*
X158141428Y-100064285D02*
X158212857Y-100064285D01*
X158284285Y-100100000D01*
X158320000Y-100135714D01*
X158355714Y-100207142D01*
X158391428Y-100350000D01*
X158391428Y-100528571D01*
X158355714Y-100671428D01*
X158320000Y-100742857D01*
X158284285Y-100778571D01*
X158212857Y-100814285D01*
X158141428Y-100814285D01*
X158070000Y-100778571D01*
X158034285Y-100742857D01*
X157998571Y-100671428D01*
X157962857Y-100528571D01*
X157962857Y-100350000D01*
X157998571Y-100207142D01*
X158034285Y-100135714D01*
X158070000Y-100100000D01*
X158141428Y-100064285D01*
%TO.C,R12*%
X123762857Y-102839285D02*
X123512857Y-102482142D01*
X123334285Y-102839285D02*
X123334285Y-102089285D01*
X123620000Y-102089285D01*
X123691428Y-102125000D01*
X123727142Y-102160714D01*
X123762857Y-102232142D01*
X123762857Y-102339285D01*
X123727142Y-102410714D01*
X123691428Y-102446428D01*
X123620000Y-102482142D01*
X123334285Y-102482142D01*
X124477142Y-102839285D02*
X124048571Y-102839285D01*
X124262857Y-102839285D02*
X124262857Y-102089285D01*
X124191428Y-102196428D01*
X124120000Y-102267857D01*
X124048571Y-102303571D01*
X124762857Y-102160714D02*
X124798571Y-102125000D01*
X124870000Y-102089285D01*
X125048571Y-102089285D01*
X125120000Y-102125000D01*
X125155714Y-102160714D01*
X125191428Y-102232142D01*
X125191428Y-102303571D01*
X125155714Y-102410714D01*
X124727142Y-102839285D01*
X125191428Y-102839285D01*
%TO.C,TP3*%
X133023571Y-127625000D02*
X132952142Y-127589285D01*
X132845000Y-127589285D01*
X132737857Y-127625000D01*
X132666428Y-127696428D01*
X132630714Y-127767857D01*
X132595000Y-127910714D01*
X132595000Y-128017857D01*
X132630714Y-128160714D01*
X132666428Y-128232142D01*
X132737857Y-128303571D01*
X132845000Y-128339285D01*
X132916428Y-128339285D01*
X133023571Y-128303571D01*
X133059285Y-128267857D01*
X133059285Y-128017857D01*
X132916428Y-128017857D01*
X133380714Y-128339285D02*
X133380714Y-127589285D01*
X133809285Y-128339285D01*
X133809285Y-127589285D01*
X134166428Y-128339285D02*
X134166428Y-127589285D01*
X134345000Y-127589285D01*
X134452142Y-127625000D01*
X134523571Y-127696428D01*
X134559285Y-127767857D01*
X134595000Y-127910714D01*
X134595000Y-128017857D01*
X134559285Y-128160714D01*
X134523571Y-128232142D01*
X134452142Y-128303571D01*
X134345000Y-128339285D01*
X134166428Y-128339285D01*
D12*
%TO.C,R20*%
X142462857Y-84739285D02*
X142212857Y-84382142D01*
X142034285Y-84739285D02*
X142034285Y-83989285D01*
X142320000Y-83989285D01*
X142391428Y-84025000D01*
X142427142Y-84060714D01*
X142462857Y-84132142D01*
X142462857Y-84239285D01*
X142427142Y-84310714D01*
X142391428Y-84346428D01*
X142320000Y-84382142D01*
X142034285Y-84382142D01*
X142748571Y-84060714D02*
X142784285Y-84025000D01*
X142855714Y-83989285D01*
X143034285Y-83989285D01*
X143105714Y-84025000D01*
X143141428Y-84060714D01*
X143177142Y-84132142D01*
X143177142Y-84203571D01*
X143141428Y-84310714D01*
X142712857Y-84739285D01*
X143177142Y-84739285D01*
X143641428Y-83989285D02*
X143712857Y-83989285D01*
X143784285Y-84025000D01*
X143820000Y-84060714D01*
X143855714Y-84132142D01*
X143891428Y-84275000D01*
X143891428Y-84453571D01*
X143855714Y-84596428D01*
X143820000Y-84667857D01*
X143784285Y-84703571D01*
X143712857Y-84739285D01*
X143641428Y-84739285D01*
X143570000Y-84703571D01*
X143534285Y-84667857D01*
X143498571Y-84596428D01*
X143462857Y-84453571D01*
X143462857Y-84275000D01*
X143498571Y-84132142D01*
X143534285Y-84060714D01*
X143570000Y-84025000D01*
X143641428Y-83989285D01*
D10*
%TO.C,R8*%
X157920000Y-128939285D02*
X157670000Y-128582142D01*
X157491428Y-128939285D02*
X157491428Y-128189285D01*
X157777142Y-128189285D01*
X157848571Y-128225000D01*
X157884285Y-128260714D01*
X157920000Y-128332142D01*
X157920000Y-128439285D01*
X157884285Y-128510714D01*
X157848571Y-128546428D01*
X157777142Y-128582142D01*
X157491428Y-128582142D01*
X158348571Y-128510714D02*
X158277142Y-128475000D01*
X158241428Y-128439285D01*
X158205714Y-128367857D01*
X158205714Y-128332142D01*
X158241428Y-128260714D01*
X158277142Y-128225000D01*
X158348571Y-128189285D01*
X158491428Y-128189285D01*
X158562857Y-128225000D01*
X158598571Y-128260714D01*
X158634285Y-128332142D01*
X158634285Y-128367857D01*
X158598571Y-128439285D01*
X158562857Y-128475000D01*
X158491428Y-128510714D01*
X158348571Y-128510714D01*
X158277142Y-128546428D01*
X158241428Y-128582142D01*
X158205714Y-128653571D01*
X158205714Y-128796428D01*
X158241428Y-128867857D01*
X158277142Y-128903571D01*
X158348571Y-128939285D01*
X158491428Y-128939285D01*
X158562857Y-128903571D01*
X158598571Y-128867857D01*
X158634285Y-128796428D01*
X158634285Y-128653571D01*
X158598571Y-128582142D01*
X158562857Y-128546428D01*
X158491428Y-128510714D01*
%TO.C,R5*%
X149299285Y-94825000D02*
X148942142Y-95075000D01*
X149299285Y-95253571D02*
X148549285Y-95253571D01*
X148549285Y-94967857D01*
X148585000Y-94896428D01*
X148620714Y-94860714D01*
X148692142Y-94825000D01*
X148799285Y-94825000D01*
X148870714Y-94860714D01*
X148906428Y-94896428D01*
X148942142Y-94967857D01*
X148942142Y-95253571D01*
X148549285Y-94146428D02*
X148549285Y-94503571D01*
X148906428Y-94539285D01*
X148870714Y-94503571D01*
X148835000Y-94432142D01*
X148835000Y-94253571D01*
X148870714Y-94182142D01*
X148906428Y-94146428D01*
X148977857Y-94110714D01*
X149156428Y-94110714D01*
X149227857Y-94146428D01*
X149263571Y-94182142D01*
X149299285Y-94253571D01*
X149299285Y-94432142D01*
X149263571Y-94503571D01*
X149227857Y-94539285D01*
%TO.C,R11*%
X167062857Y-129039285D02*
X166812857Y-128682142D01*
X166634285Y-129039285D02*
X166634285Y-128289285D01*
X166920000Y-128289285D01*
X166991428Y-128325000D01*
X167027142Y-128360714D01*
X167062857Y-128432142D01*
X167062857Y-128539285D01*
X167027142Y-128610714D01*
X166991428Y-128646428D01*
X166920000Y-128682142D01*
X166634285Y-128682142D01*
X167777142Y-129039285D02*
X167348571Y-129039285D01*
X167562857Y-129039285D02*
X167562857Y-128289285D01*
X167491428Y-128396428D01*
X167420000Y-128467857D01*
X167348571Y-128503571D01*
X168491428Y-129039285D02*
X168062857Y-129039285D01*
X168277142Y-129039285D02*
X168277142Y-128289285D01*
X168205714Y-128396428D01*
X168134285Y-128467857D01*
X168062857Y-128503571D01*
%TO.C,R7*%
X148470000Y-125439285D02*
X148220000Y-125082142D01*
X148041428Y-125439285D02*
X148041428Y-124689285D01*
X148327142Y-124689285D01*
X148398571Y-124725000D01*
X148434285Y-124760714D01*
X148470000Y-124832142D01*
X148470000Y-124939285D01*
X148434285Y-125010714D01*
X148398571Y-125046428D01*
X148327142Y-125082142D01*
X148041428Y-125082142D01*
X148720000Y-124689285D02*
X149220000Y-124689285D01*
X148898571Y-125439285D01*
%TO.C,TP4*%
X159730714Y-93289285D02*
X159302142Y-93289285D01*
X159516428Y-93289285D02*
X159516428Y-92539285D01*
X159445000Y-92646428D01*
X159373571Y-92717857D01*
X159302142Y-92753571D01*
X159945000Y-92539285D02*
X160195000Y-93289285D01*
X160445000Y-92539285D01*
X161087857Y-93289285D02*
X160659285Y-93289285D01*
X160873571Y-93289285D02*
X160873571Y-92539285D01*
X160802142Y-92646428D01*
X160730714Y-92717857D01*
X160659285Y-92753571D01*
%TO.C,J7*%
X154973571Y-73352380D02*
X154973571Y-74161904D01*
X155021190Y-74257142D01*
X155068809Y-74304761D01*
X155164047Y-74352380D01*
X155354523Y-74352380D01*
X155449761Y-74304761D01*
X155497380Y-74257142D01*
X155545000Y-74161904D01*
X155545000Y-73352380D01*
X155973571Y-74304761D02*
X156116428Y-74352380D01*
X156354523Y-74352380D01*
X156449761Y-74304761D01*
X156497380Y-74257142D01*
X156545000Y-74161904D01*
X156545000Y-74066666D01*
X156497380Y-73971428D01*
X156449761Y-73923809D01*
X156354523Y-73876190D01*
X156164047Y-73828571D01*
X156068809Y-73780952D01*
X156021190Y-73733333D01*
X155973571Y-73638095D01*
X155973571Y-73542857D01*
X156021190Y-73447619D01*
X156068809Y-73400000D01*
X156164047Y-73352380D01*
X156402142Y-73352380D01*
X156545000Y-73400000D01*
X157306904Y-73828571D02*
X157449761Y-73876190D01*
X157497380Y-73923809D01*
X157545000Y-74019047D01*
X157545000Y-74161904D01*
X157497380Y-74257142D01*
X157449761Y-74304761D01*
X157354523Y-74352380D01*
X156973571Y-74352380D01*
X156973571Y-73352380D01*
X157306904Y-73352380D01*
X157402142Y-73400000D01*
X157449761Y-73447619D01*
X157497380Y-73542857D01*
X157497380Y-73638095D01*
X157449761Y-73733333D01*
X157402142Y-73780952D01*
X157306904Y-73828571D01*
X156973571Y-73828571D01*
X159068809Y-73828571D02*
X159211666Y-73876190D01*
X159259285Y-73923809D01*
X159306904Y-74019047D01*
X159306904Y-74161904D01*
X159259285Y-74257142D01*
X159211666Y-74304761D01*
X159116428Y-74352380D01*
X158735476Y-74352380D01*
X158735476Y-73352380D01*
X159068809Y-73352380D01*
X159164047Y-73400000D01*
X159211666Y-73447619D01*
X159259285Y-73542857D01*
X159259285Y-73638095D01*
X159211666Y-73733333D01*
X159164047Y-73780952D01*
X159068809Y-73828571D01*
X158735476Y-73828571D01*
X159925952Y-73352380D02*
X160116428Y-73352380D01*
X160211666Y-73400000D01*
X160306904Y-73495238D01*
X160354523Y-73685714D01*
X160354523Y-74019047D01*
X160306904Y-74209523D01*
X160211666Y-74304761D01*
X160116428Y-74352380D01*
X159925952Y-74352380D01*
X159830714Y-74304761D01*
X159735476Y-74209523D01*
X159687857Y-74019047D01*
X159687857Y-73685714D01*
X159735476Y-73495238D01*
X159830714Y-73400000D01*
X159925952Y-73352380D01*
X160973571Y-73352380D02*
X161164047Y-73352380D01*
X161259285Y-73400000D01*
X161354523Y-73495238D01*
X161402142Y-73685714D01*
X161402142Y-74019047D01*
X161354523Y-74209523D01*
X161259285Y-74304761D01*
X161164047Y-74352380D01*
X160973571Y-74352380D01*
X160878333Y-74304761D01*
X160783095Y-74209523D01*
X160735476Y-74019047D01*
X160735476Y-73685714D01*
X160783095Y-73495238D01*
X160878333Y-73400000D01*
X160973571Y-73352380D01*
X161687857Y-73352380D02*
X162259285Y-73352380D01*
X161973571Y-74352380D02*
X161973571Y-73352380D01*
%TO.C,R6*%
X148370000Y-127989285D02*
X148120000Y-127632142D01*
X147941428Y-127989285D02*
X147941428Y-127239285D01*
X148227142Y-127239285D01*
X148298571Y-127275000D01*
X148334285Y-127310714D01*
X148370000Y-127382142D01*
X148370000Y-127489285D01*
X148334285Y-127560714D01*
X148298571Y-127596428D01*
X148227142Y-127632142D01*
X147941428Y-127632142D01*
X149012857Y-127239285D02*
X148870000Y-127239285D01*
X148798571Y-127275000D01*
X148762857Y-127310714D01*
X148691428Y-127417857D01*
X148655714Y-127560714D01*
X148655714Y-127846428D01*
X148691428Y-127917857D01*
X148727142Y-127953571D01*
X148798571Y-127989285D01*
X148941428Y-127989285D01*
X149012857Y-127953571D01*
X149048571Y-127917857D01*
X149084285Y-127846428D01*
X149084285Y-127667857D01*
X149048571Y-127596428D01*
X149012857Y-127560714D01*
X148941428Y-127525000D01*
X148798571Y-127525000D01*
X148727142Y-127560714D01*
X148691428Y-127596428D01*
X148655714Y-127667857D01*
%TO.C,J1*%
X118090000Y-121919285D02*
X118090000Y-122455000D01*
X118125714Y-122562142D01*
X118197142Y-122633571D01*
X118304285Y-122669285D01*
X118375714Y-122669285D01*
X117340000Y-122669285D02*
X117768571Y-122669285D01*
X117554285Y-122669285D02*
X117554285Y-121919285D01*
X117625714Y-122026428D01*
X117697142Y-122097857D01*
X117768571Y-122133571D01*
D13*
%TO.C,Y1*%
X148845000Y-122200000D02*
X137445000Y-122200000D01*
X148845000Y-118430000D02*
X148845000Y-117500000D01*
X137445000Y-122200000D02*
X137445000Y-121270000D01*
X148845000Y-117500000D02*
X137445000Y-117500000D01*
X137445000Y-117500000D02*
X137445000Y-118430000D01*
X148845000Y-121270000D02*
X148845000Y-122200000D01*
D14*
X150195000Y-121500000D02*
G75*
G03*
X150195000Y-121500000I-100000J0D01*
G01*
D11*
%TO.C,R13*%
X144222500Y-113062742D02*
X144222500Y-113537258D01*
X145267500Y-113062742D02*
X145267500Y-113537258D01*
%TO.C,C17*%
X146335580Y-115440000D02*
X146054420Y-115440000D01*
X146335580Y-116460000D02*
X146054420Y-116460000D01*
%TO.C,C16*%
X142805000Y-113440580D02*
X142805000Y-113159420D01*
X141785000Y-113440580D02*
X141785000Y-113159420D01*
%TO.C,J4*%
X162710000Y-117945000D02*
X162507530Y-117945000D01*
X162710000Y-117813471D02*
X162710000Y-117945000D01*
X164600000Y-116490000D02*
X164600000Y-111475000D01*
X161070000Y-117945000D02*
X161070000Y-111475000D01*
X164600000Y-118010000D02*
X163470000Y-118010000D01*
X162710000Y-116543471D02*
X162710000Y-116686529D01*
X164600000Y-117250000D02*
X164600000Y-118010000D01*
X164600000Y-116490000D02*
X164033471Y-116490000D01*
X164600000Y-111475000D02*
X163777530Y-111475000D01*
X162906529Y-116490000D02*
X162763471Y-116490000D01*
X161892470Y-111475000D02*
X161070000Y-111475000D01*
X161892470Y-117945000D02*
X161070000Y-117945000D01*
X163162470Y-111475000D02*
X162507530Y-111475000D01*
%TO.C,C1*%
X147755000Y-97290580D02*
X147755000Y-97009420D01*
X146735000Y-97290580D02*
X146735000Y-97009420D01*
%TO.C,C2*%
X153704420Y-107560000D02*
X153985580Y-107560000D01*
X153704420Y-106540000D02*
X153985580Y-106540000D01*
%TO.C,C3*%
X153704420Y-101690000D02*
X153985580Y-101690000D01*
X153704420Y-102710000D02*
X153985580Y-102710000D01*
%TO.C,C4*%
X139960580Y-101910000D02*
X139679420Y-101910000D01*
X139960580Y-100890000D02*
X139679420Y-100890000D01*
%TO.C,C5*%
X147530000Y-113134420D02*
X147530000Y-113415580D01*
X146510000Y-113134420D02*
X146510000Y-113415580D01*
%TO.C,C6*%
X139985580Y-106540000D02*
X139704420Y-106540000D01*
X139985580Y-107560000D02*
X139704420Y-107560000D01*
%TO.C,C7*%
X153704420Y-104410000D02*
X153985580Y-104410000D01*
X153704420Y-103390000D02*
X153985580Y-103390000D01*
%TO.C,C8*%
X139965580Y-102835000D02*
X139684420Y-102835000D01*
X139965580Y-103855000D02*
X139684420Y-103855000D01*
%TO.C,C13*%
X144840580Y-128190000D02*
X144559420Y-128190000D01*
X144840580Y-129210000D02*
X144559420Y-129210000D01*
%TO.C,C9*%
X151555000Y-113109420D02*
X151555000Y-113390580D01*
X150535000Y-113109420D02*
X150535000Y-113390580D01*
%TO.C,C11*%
X145035000Y-97295580D02*
X145035000Y-97014420D01*
X146055000Y-97295580D02*
X146055000Y-97014420D01*
%TO.C,C12*%
X153689420Y-98565000D02*
X153970580Y-98565000D01*
X153689420Y-97545000D02*
X153970580Y-97545000D01*
%TO.C,C18*%
X165905000Y-124340580D02*
X165905000Y-124059420D01*
X164885000Y-124340580D02*
X164885000Y-124059420D01*
%TO.C,C15*%
X125760000Y-114309420D02*
X125760000Y-114590580D01*
X126780000Y-114309420D02*
X126780000Y-114590580D01*
%TO.C,C23*%
X149335000Y-88184420D02*
X149335000Y-88465580D01*
X150355000Y-88184420D02*
X150355000Y-88465580D01*
%TO.C,C19*%
X126780000Y-110690580D02*
X126780000Y-110409420D01*
X125760000Y-110690580D02*
X125760000Y-110409420D01*
%TO.C,C21*%
X169304420Y-117410000D02*
X169585580Y-117410000D01*
X169304420Y-116390000D02*
X169585580Y-116390000D01*
%TO.C,C20*%
X121135000Y-73559420D02*
X121135000Y-73840580D01*
X122155000Y-73559420D02*
X122155000Y-73840580D01*
%TO.C,C22*%
X140755000Y-81159420D02*
X140755000Y-81440580D01*
X139735000Y-81159420D02*
X139735000Y-81440580D01*
%TO.C,C24*%
X146155000Y-81159420D02*
X146155000Y-81440580D01*
X145135000Y-81159420D02*
X145135000Y-81440580D01*
%TO.C,D1*%
X129395000Y-125405000D02*
X126845000Y-125405000D01*
X129395000Y-125405000D02*
X129395000Y-123705000D01*
X129395000Y-123705000D02*
X126845000Y-123705000D01*
%TO.C,D3*%
X140210000Y-130500000D02*
X140210000Y-132785000D01*
X141680000Y-132785000D02*
X141680000Y-130500000D01*
X140210000Y-132785000D02*
X141680000Y-132785000D01*
%TO.C,D4*%
X156270000Y-125375000D02*
X156270000Y-122825000D01*
X157970000Y-125375000D02*
X157970000Y-122825000D01*
X156270000Y-125375000D02*
X157970000Y-125375000D01*
%TO.C,J5*%
X170995000Y-132710000D02*
X170995000Y-133040000D01*
X171755000Y-132710000D02*
X171755000Y-133040000D01*
X165915000Y-141700000D02*
X165915000Y-135700000D01*
X166675000Y-135700000D02*
X166675000Y-141700000D01*
X171215000Y-135700000D02*
X171215000Y-141700000D01*
X171455000Y-135700000D02*
X171455000Y-141700000D01*
X164965000Y-135700000D02*
X172705000Y-135700000D01*
X171695000Y-135700000D02*
X171695000Y-141700000D01*
X166675000Y-141700000D02*
X165915000Y-141700000D01*
X171095000Y-135700000D02*
X171095000Y-141700000D01*
X166675000Y-132642929D02*
X166675000Y-133040000D01*
X170995000Y-141700000D02*
X170995000Y-135700000D01*
X168455000Y-132642929D02*
X168455000Y-133040000D01*
X171575000Y-135700000D02*
X171575000Y-141700000D01*
X165915000Y-132642929D02*
X165915000Y-133040000D01*
X168455000Y-141700000D02*
X168455000Y-135700000D01*
X171335000Y-135700000D02*
X171335000Y-141700000D01*
X169215000Y-135700000D02*
X169215000Y-141700000D01*
X170105000Y-133040000D02*
X170105000Y-135700000D01*
X172705000Y-133040000D02*
X164965000Y-133040000D01*
X171755000Y-135700000D02*
X171755000Y-141700000D01*
X169215000Y-132642929D02*
X169215000Y-133040000D01*
X171375000Y-130330000D02*
X172645000Y-130330000D01*
X172645000Y-130330000D02*
X172645000Y-131600000D01*
X164965000Y-133040000D02*
X164965000Y-135700000D01*
X169215000Y-141700000D02*
X168455000Y-141700000D01*
X172705000Y-135700000D02*
X172705000Y-133040000D01*
X167565000Y-133040000D02*
X167565000Y-135700000D01*
X171755000Y-141700000D02*
X170995000Y-141700000D01*
%TO.C,J3*%
X154285000Y-132642929D02*
X154285000Y-133040000D01*
X154285000Y-135700000D02*
X154285000Y-141700000D01*
X161365000Y-135700000D02*
X161365000Y-141700000D01*
X161905000Y-135700000D02*
X161905000Y-141700000D01*
X159365000Y-135700000D02*
X159365000Y-141700000D01*
X156825000Y-135700000D02*
X156825000Y-141700000D01*
X161905000Y-132710000D02*
X161905000Y-133040000D01*
X155175000Y-133040000D02*
X155175000Y-135700000D01*
X161245000Y-135700000D02*
X161245000Y-141700000D01*
X160255000Y-133040000D02*
X160255000Y-135700000D01*
X159365000Y-141700000D02*
X158605000Y-141700000D01*
X152575000Y-135700000D02*
X162855000Y-135700000D01*
X161905000Y-141700000D02*
X161145000Y-141700000D01*
X156065000Y-141700000D02*
X156065000Y-135700000D01*
X159365000Y-132642929D02*
X159365000Y-133040000D01*
X161145000Y-132710000D02*
X161145000Y-133040000D01*
X153525000Y-132642929D02*
X153525000Y-133040000D01*
X154285000Y-141700000D02*
X153525000Y-141700000D01*
X157715000Y-133040000D02*
X157715000Y-135700000D01*
X162855000Y-133040000D02*
X152575000Y-133040000D01*
X156825000Y-132642929D02*
X156825000Y-133040000D01*
X158605000Y-132642929D02*
X158605000Y-133040000D01*
X153525000Y-141700000D02*
X153525000Y-135700000D01*
X158605000Y-141700000D02*
X158605000Y-135700000D01*
X161845000Y-135700000D02*
X161845000Y-141700000D01*
X161605000Y-135700000D02*
X161605000Y-141700000D01*
X162795000Y-130330000D02*
X162795000Y-131600000D01*
X156825000Y-141700000D02*
X156065000Y-141700000D01*
X161725000Y-135700000D02*
X161725000Y-141700000D01*
X162855000Y-135700000D02*
X162855000Y-133040000D01*
X152575000Y-133040000D02*
X152575000Y-135700000D01*
X161525000Y-130330000D02*
X162795000Y-130330000D01*
X161145000Y-141700000D02*
X161145000Y-135700000D01*
X161485000Y-135700000D02*
X161485000Y-141700000D01*
X156065000Y-132642929D02*
X156065000Y-133040000D01*
%TO.C,L1*%
X142782221Y-81010000D02*
X143107779Y-81010000D01*
X142782221Y-79990000D02*
X143107779Y-79990000D01*
%TO.C,Q1*%
X153170000Y-126535000D02*
X152520000Y-126535000D01*
X153170000Y-126535000D02*
X154845000Y-126535000D01*
X153170000Y-123415000D02*
X152520000Y-123415000D01*
X153170000Y-123415000D02*
X153820000Y-123415000D01*
%TO.C,Q2*%
X166505000Y-95800000D02*
X166505000Y-95150000D01*
X163385000Y-95800000D02*
X163385000Y-95150000D01*
X163385000Y-95800000D02*
X163385000Y-97475000D01*
X166505000Y-95800000D02*
X166505000Y-96450000D01*
%TO.C,R2*%
X141122500Y-124762258D02*
X141122500Y-124287742D01*
X142167500Y-124762258D02*
X142167500Y-124287742D01*
%TO.C,R22*%
X138182258Y-85177500D02*
X137707742Y-85177500D01*
X138182258Y-86222500D02*
X137707742Y-86222500D01*
%TO.C,R9*%
X165007742Y-76977500D02*
X165482258Y-76977500D01*
X165007742Y-78022500D02*
X165482258Y-78022500D01*
%TO.C,R10*%
X153532258Y-121177500D02*
X153057742Y-121177500D01*
X153532258Y-122222500D02*
X153057742Y-122222500D01*
%TO.C,R14*%
X133782742Y-111872500D02*
X134257258Y-111872500D01*
X133782742Y-110827500D02*
X134257258Y-110827500D01*
%TO.C,R15*%
X133782742Y-113927500D02*
X134257258Y-113927500D01*
X133782742Y-114972500D02*
X134257258Y-114972500D01*
%TO.C,R17*%
X128267500Y-87662742D02*
X128267500Y-88137258D01*
X127222500Y-87662742D02*
X127222500Y-88137258D01*
%TO.C,R18*%
X172332258Y-104672500D02*
X171857742Y-104672500D01*
X172332258Y-103627500D02*
X171857742Y-103627500D01*
%TO.C,R19*%
X128922500Y-88462742D02*
X128922500Y-88937258D01*
X129967500Y-88462742D02*
X129967500Y-88937258D01*
%TO.C,R21*%
X172332258Y-106872500D02*
X171857742Y-106872500D01*
X172332258Y-105827500D02*
X171857742Y-105827500D01*
%TO.C,R23*%
X122282258Y-85177500D02*
X121807742Y-85177500D01*
X122282258Y-86222500D02*
X121807742Y-86222500D01*
%TO.C,SW1*%
X168115000Y-70270000D02*
X168145000Y-70270000D01*
X174575000Y-70270000D02*
X174545000Y-70270000D01*
X174575000Y-76730000D02*
X174575000Y-70270000D01*
X174575000Y-76730000D02*
X174545000Y-76730000D01*
X168145000Y-76730000D02*
X168115000Y-76730000D01*
X170045000Y-70270000D02*
X172645000Y-70270000D01*
X168115000Y-76730000D02*
X168115000Y-70270000D01*
X170045000Y-76730000D02*
X172645000Y-76730000D01*
%TO.C,SW2*%
X174060000Y-99830000D02*
X174030000Y-99830000D01*
X172130000Y-93370000D02*
X169530000Y-93370000D01*
X172130000Y-99830000D02*
X169530000Y-99830000D01*
X167600000Y-93370000D02*
X167630000Y-93370000D01*
X174030000Y-93370000D02*
X174060000Y-93370000D01*
X167600000Y-99830000D02*
X167630000Y-99830000D01*
X174060000Y-93370000D02*
X174060000Y-99830000D01*
X167600000Y-93370000D02*
X167600000Y-99830000D01*
%TO.C,SW3*%
X120215000Y-89270000D02*
X120245000Y-89270000D01*
X126645000Y-89270000D02*
X126675000Y-89270000D01*
X126675000Y-95730000D02*
X126645000Y-95730000D01*
X120215000Y-89270000D02*
X120215000Y-95730000D01*
X124745000Y-95730000D02*
X122145000Y-95730000D01*
X126675000Y-89270000D02*
X126675000Y-95730000D01*
X120215000Y-95730000D02*
X120245000Y-95730000D01*
X124745000Y-89270000D02*
X122145000Y-89270000D01*
D14*
%TO.C,U1*%
X142455000Y-103455000D02*
G75*
G03*
X142455000Y-103455000I-100000J0D01*
G01*
D13*
X150330000Y-102555000D02*
X150330000Y-103035000D01*
X150330000Y-109555000D02*
X150330000Y-109075000D01*
X150330000Y-109555000D02*
X149850000Y-109555000D01*
X143330000Y-102555000D02*
X143810000Y-102555000D01*
X150330000Y-102555000D02*
X149850000Y-102555000D01*
X143330000Y-109555000D02*
X143810000Y-109555000D01*
X143330000Y-109555000D02*
X143330000Y-109075000D01*
X143330000Y-102555000D02*
X143330000Y-103035000D01*
D11*
%TO.C,U2*%
X143140000Y-125100000D02*
X143140000Y-126900000D01*
X146260000Y-125100000D02*
X146260000Y-125900000D01*
X146260000Y-125100000D02*
X146260000Y-124300000D01*
X143140000Y-125100000D02*
X143140000Y-124300000D01*
%TO.C,U7*%
X142345000Y-87575000D02*
X145070000Y-87575000D01*
X145070000Y-87575000D02*
X145070000Y-87835000D01*
X142345000Y-93025000D02*
X145070000Y-93025000D01*
X142345000Y-93025000D02*
X139620000Y-93025000D01*
X145070000Y-93025000D02*
X145070000Y-92765000D01*
X139620000Y-87575000D02*
X139620000Y-87835000D01*
X139620000Y-87835000D02*
X137945000Y-87835000D01*
X139620000Y-93025000D02*
X139620000Y-92765000D01*
X142345000Y-87575000D02*
X139620000Y-87575000D01*
D15*
%TO.C,U3*%
X128220000Y-113875000D02*
X128370000Y-113875000D01*
X128210000Y-111175000D02*
X128210000Y-111325000D01*
X130920000Y-113725000D02*
X130920000Y-113875000D01*
X128220000Y-113875000D02*
X128220000Y-113725000D01*
X130920000Y-113875000D02*
X130770000Y-113875000D01*
X128220000Y-111175000D02*
X128370000Y-111175000D01*
X130770000Y-111175000D02*
X131020000Y-111175000D01*
D10*
%TO.C,U5*%
X124345000Y-82700000D02*
X124345000Y-70700000D01*
X136345000Y-70700000D02*
X136345000Y-82700000D01*
X124345000Y-70700000D02*
X136345000Y-70700000D01*
X136345000Y-82700000D02*
X124345000Y-82700000D01*
X123727353Y-71540000D02*
G75*
G03*
X123727353Y-71540000I-362353J0D01*
G01*
D11*
%TO.C,U6*%
X166670000Y-105255000D02*
X166670000Y-107055000D01*
X166670000Y-105255000D02*
X166670000Y-104455000D01*
X169790000Y-105255000D02*
X169790000Y-106055000D01*
X169790000Y-105255000D02*
X169790000Y-104455000D01*
%TO.C,J8*%
X147330000Y-74265000D02*
X147080000Y-74765000D01*
X147080000Y-74765000D02*
X147580000Y-74765000D01*
X147580000Y-74765000D02*
X147330000Y-74265000D01*
%TO.C,JP1*%
X156345000Y-119550000D02*
G75*
G03*
X157045000Y-118850000I1J699999D01*
G01*
X154245000Y-118850000D02*
G75*
G03*
X154945000Y-119550000I699999J-1D01*
G01*
X154945000Y-117550000D02*
G75*
G03*
X154245000Y-118250000I-1J-699999D01*
G01*
X157045000Y-118250000D02*
G75*
G03*
X156345000Y-117550000I-699999J1D01*
G01*
X154945000Y-117550000D02*
X156345000Y-117550000D01*
X156345000Y-119550000D02*
X154945000Y-119550000D01*
X154245000Y-118850000D02*
X154245000Y-118250000D01*
X157045000Y-118250000D02*
X157045000Y-118850000D01*
%TO.C,TP5*%
X135095000Y-124900000D02*
G75*
G03*
X135095000Y-124900000I-1500000J0D01*
G01*
%TO.C,TP1*%
X169145000Y-112250000D02*
G75*
G03*
X169145000Y-112250000I-1500000J0D01*
G01*
%TO.C,TP7*%
X133645000Y-97700000D02*
G75*
G03*
X133645000Y-97700000I-1500000J0D01*
G01*
%TO.C,TP8*%
X133645000Y-103600000D02*
G75*
G03*
X133645000Y-103600000I-1500000J0D01*
G01*
%TO.C,C14*%
X140205000Y-124384420D02*
X140205000Y-124665580D01*
X139185000Y-124384420D02*
X139185000Y-124665580D01*
%TO.C,R1*%
X121822500Y-131537258D02*
X121822500Y-131062742D01*
X122867500Y-131537258D02*
X122867500Y-131062742D01*
%TO.C,R16*%
X167822500Y-120937258D02*
X167822500Y-120462742D01*
X168867500Y-120937258D02*
X168867500Y-120462742D01*
%TO.C,TP6*%
X162345000Y-125000000D02*
G75*
G03*
X162345000Y-125000000I-1500000J0D01*
G01*
%TO.C,TP2*%
X161645000Y-102100000D02*
G75*
G03*
X161645000Y-102100000I-1500000J0D01*
G01*
%TO.C,J6*%
X171315000Y-82570000D02*
X171315000Y-90250000D01*
X171315000Y-82570000D02*
X173975000Y-82570000D01*
X171315000Y-81300000D02*
X171315000Y-79970000D01*
X173975000Y-82570000D02*
X173975000Y-90250000D01*
X171315000Y-79970000D02*
X172645000Y-79970000D01*
X171315000Y-90250000D02*
X173975000Y-90250000D01*
%TO.C,R3*%
X138222500Y-131537258D02*
X138222500Y-131062742D01*
X139267500Y-131537258D02*
X139267500Y-131062742D01*
%TO.C,R4*%
X150122500Y-97392258D02*
X150122500Y-96917742D01*
X151167500Y-97392258D02*
X151167500Y-96917742D01*
%TO.C,U4*%
X173405000Y-121000000D02*
X173405000Y-120200000D01*
X170285000Y-121000000D02*
X170285000Y-120200000D01*
X170285000Y-121000000D02*
X170285000Y-122800000D01*
X173405000Y-121000000D02*
X173405000Y-121800000D01*
%TO.C,C10*%
X153985580Y-99990000D02*
X153704420Y-99990000D01*
X153985580Y-101010000D02*
X153704420Y-101010000D01*
%TO.C,D2*%
X124810000Y-132785000D02*
X126280000Y-132785000D01*
X126280000Y-132785000D02*
X126280000Y-130500000D01*
X124810000Y-130500000D02*
X124810000Y-132785000D01*
%TO.C,R12*%
X121722500Y-103037258D02*
X121722500Y-102562742D01*
X122767500Y-103037258D02*
X122767500Y-102562742D01*
%TO.C,TP3*%
X135095000Y-130400000D02*
G75*
G03*
X135095000Y-130400000I-1500000J0D01*
G01*
%TO.C,R20*%
X141832742Y-85177500D02*
X142307258Y-85177500D01*
X141832742Y-86222500D02*
X142307258Y-86222500D01*
%TO.C,R8*%
X160482742Y-128077500D02*
X160957258Y-128077500D01*
X160482742Y-129122500D02*
X160957258Y-129122500D01*
%TO.C,R5*%
X149467500Y-97392258D02*
X149467500Y-96917742D01*
X148422500Y-97392258D02*
X148422500Y-96917742D01*
%TO.C,R11*%
X170282742Y-129122500D02*
X170757258Y-129122500D01*
X170282742Y-128077500D02*
X170757258Y-128077500D01*
%TO.C,R7*%
X148782258Y-124322500D02*
X148307742Y-124322500D01*
X148782258Y-123277500D02*
X148307742Y-123277500D01*
%TO.C,TP4*%
X161695000Y-95750000D02*
G75*
G03*
X161695000Y-95750000I-1500000J0D01*
G01*
%TO.C,J7*%
X158515000Y-72130000D02*
X158515000Y-69470000D01*
X155915000Y-70800000D02*
X155915000Y-69470000D01*
X158515000Y-69470000D02*
X161115000Y-69470000D01*
X155915000Y-69470000D02*
X157245000Y-69470000D01*
X161115000Y-72130000D02*
X161115000Y-69470000D01*
X158515000Y-72130000D02*
X161115000Y-72130000D01*
%TO.C,R6*%
X148782258Y-126872500D02*
X148307742Y-126872500D01*
X148782258Y-125827500D02*
X148307742Y-125827500D01*
%TD*%
M02*
