%TF.GenerationSoftware,KiCad,Pcbnew,(6.0.2)*%
%TF.CreationDate,2022-03-02T19:14:53-08:00*%
%TF.ProjectId,RP2040_WEDS,52503230-3430-45f5-9745-44532e6b6963,rev?*%
%TF.SameCoordinates,Original*%
%TF.FileFunction,Legend,Top*%
%TF.FilePolarity,Positive*%
%FSLAX46Y46*%
G04 Gerber Fmt 4.6, Leading zero omitted, Abs format (unit mm)*
G04 Created by KiCad (PCBNEW (6.0.2)) date 2022-03-02 19:14:53*
%MOMM*%
%LPD*%
G01*
G04 APERTURE LIST*
%ADD10C,0.120000*%
%ADD11C,0.150000*%
%ADD12C,0.125000*%
%ADD13C,0.200000*%
%ADD14C,0.127000*%
%ADD15C,0.100000*%
G04 APERTURE END LIST*
D10*
X154275000Y-118100000D02*
X157375000Y-118100000D01*
X167275000Y-118100000D02*
X167275000Y-113100000D01*
X157375000Y-113100000D02*
X154275000Y-113100000D01*
X154275000Y-113100000D02*
X154275000Y-118100000D01*
X164175000Y-118100000D02*
X167275000Y-118100000D01*
X167275000Y-113100000D02*
X164175000Y-113100000D01*
D11*
%TO.C,J9*%
X117431666Y-121647380D02*
X117431666Y-122361666D01*
X117384047Y-122504523D01*
X117288809Y-122599761D01*
X117145952Y-122647380D01*
X117050714Y-122647380D01*
X117955476Y-122647380D02*
X118145952Y-122647380D01*
X118241190Y-122599761D01*
X118288809Y-122552142D01*
X118384047Y-122409285D01*
X118431666Y-122218809D01*
X118431666Y-121837857D01*
X118384047Y-121742619D01*
X118336428Y-121695000D01*
X118241190Y-121647380D01*
X118050714Y-121647380D01*
X117955476Y-121695000D01*
X117907857Y-121742619D01*
X117860238Y-121837857D01*
X117860238Y-122075952D01*
X117907857Y-122171190D01*
X117955476Y-122218809D01*
X118050714Y-122266428D01*
X118241190Y-122266428D01*
X118336428Y-122218809D01*
X118384047Y-122171190D01*
X118431666Y-122075952D01*
D12*
%TO.C,C14*%
X165058571Y-126258571D02*
X165034761Y-126282380D01*
X164963333Y-126306190D01*
X164915714Y-126306190D01*
X164844285Y-126282380D01*
X164796666Y-126234761D01*
X164772857Y-126187142D01*
X164749047Y-126091904D01*
X164749047Y-126020476D01*
X164772857Y-125925238D01*
X164796666Y-125877619D01*
X164844285Y-125830000D01*
X164915714Y-125806190D01*
X164963333Y-125806190D01*
X165034761Y-125830000D01*
X165058571Y-125853809D01*
X165534761Y-126306190D02*
X165249047Y-126306190D01*
X165391904Y-126306190D02*
X165391904Y-125806190D01*
X165344285Y-125877619D01*
X165296666Y-125925238D01*
X165249047Y-125949047D01*
X165963333Y-125972857D02*
X165963333Y-126306190D01*
X165844285Y-125782380D02*
X165725238Y-126139523D01*
X166034761Y-126139523D01*
%TO.C,C1*%
X139766666Y-100078571D02*
X139742857Y-100102380D01*
X139671428Y-100126190D01*
X139623809Y-100126190D01*
X139552380Y-100102380D01*
X139504761Y-100054761D01*
X139480952Y-100007142D01*
X139457142Y-99911904D01*
X139457142Y-99840476D01*
X139480952Y-99745238D01*
X139504761Y-99697619D01*
X139552380Y-99650000D01*
X139623809Y-99626190D01*
X139671428Y-99626190D01*
X139742857Y-99650000D01*
X139766666Y-99673809D01*
X140242857Y-100126190D02*
X139957142Y-100126190D01*
X140100000Y-100126190D02*
X140100000Y-99626190D01*
X140052380Y-99697619D01*
X140004761Y-99745238D01*
X139957142Y-99769047D01*
%TO.C,C2*%
X153316666Y-106603571D02*
X153292857Y-106627380D01*
X153221428Y-106651190D01*
X153173809Y-106651190D01*
X153102380Y-106627380D01*
X153054761Y-106579761D01*
X153030952Y-106532142D01*
X153007142Y-106436904D01*
X153007142Y-106365476D01*
X153030952Y-106270238D01*
X153054761Y-106222619D01*
X153102380Y-106175000D01*
X153173809Y-106151190D01*
X153221428Y-106151190D01*
X153292857Y-106175000D01*
X153316666Y-106198809D01*
X153507142Y-106198809D02*
X153530952Y-106175000D01*
X153578571Y-106151190D01*
X153697619Y-106151190D01*
X153745238Y-106175000D01*
X153769047Y-106198809D01*
X153792857Y-106246428D01*
X153792857Y-106294047D01*
X153769047Y-106365476D01*
X153483333Y-106651190D01*
X153792857Y-106651190D01*
%TO.C,C3*%
X156191666Y-102603571D02*
X156167857Y-102627380D01*
X156096428Y-102651190D01*
X156048809Y-102651190D01*
X155977380Y-102627380D01*
X155929761Y-102579761D01*
X155905952Y-102532142D01*
X155882142Y-102436904D01*
X155882142Y-102365476D01*
X155905952Y-102270238D01*
X155929761Y-102222619D01*
X155977380Y-102175000D01*
X156048809Y-102151190D01*
X156096428Y-102151190D01*
X156167857Y-102175000D01*
X156191666Y-102198809D01*
X156358333Y-102151190D02*
X156667857Y-102151190D01*
X156501190Y-102341666D01*
X156572619Y-102341666D01*
X156620238Y-102365476D01*
X156644047Y-102389285D01*
X156667857Y-102436904D01*
X156667857Y-102555952D01*
X156644047Y-102603571D01*
X156620238Y-102627380D01*
X156572619Y-102651190D01*
X156429761Y-102651190D01*
X156382142Y-102627380D01*
X156358333Y-102603571D01*
%TO.C,C4*%
X146346666Y-94333571D02*
X146322857Y-94357380D01*
X146251428Y-94381190D01*
X146203809Y-94381190D01*
X146132380Y-94357380D01*
X146084761Y-94309761D01*
X146060952Y-94262142D01*
X146037142Y-94166904D01*
X146037142Y-94095476D01*
X146060952Y-94000238D01*
X146084761Y-93952619D01*
X146132380Y-93905000D01*
X146203809Y-93881190D01*
X146251428Y-93881190D01*
X146322857Y-93905000D01*
X146346666Y-93928809D01*
X146775238Y-94047857D02*
X146775238Y-94381190D01*
X146656190Y-93857380D02*
X146537142Y-94214523D01*
X146846666Y-94214523D01*
%TO.C,C5*%
X146846666Y-111933571D02*
X146822857Y-111957380D01*
X146751428Y-111981190D01*
X146703809Y-111981190D01*
X146632380Y-111957380D01*
X146584761Y-111909761D01*
X146560952Y-111862142D01*
X146537142Y-111766904D01*
X146537142Y-111695476D01*
X146560952Y-111600238D01*
X146584761Y-111552619D01*
X146632380Y-111505000D01*
X146703809Y-111481190D01*
X146751428Y-111481190D01*
X146822857Y-111505000D01*
X146846666Y-111528809D01*
X147299047Y-111481190D02*
X147060952Y-111481190D01*
X147037142Y-111719285D01*
X147060952Y-111695476D01*
X147108571Y-111671666D01*
X147227619Y-111671666D01*
X147275238Y-111695476D01*
X147299047Y-111719285D01*
X147322857Y-111766904D01*
X147322857Y-111885952D01*
X147299047Y-111933571D01*
X147275238Y-111957380D01*
X147227619Y-111981190D01*
X147108571Y-111981190D01*
X147060952Y-111957380D01*
X147037142Y-111933571D01*
%TO.C,C6*%
X139216666Y-107953571D02*
X139192857Y-107977380D01*
X139121428Y-108001190D01*
X139073809Y-108001190D01*
X139002380Y-107977380D01*
X138954761Y-107929761D01*
X138930952Y-107882142D01*
X138907142Y-107786904D01*
X138907142Y-107715476D01*
X138930952Y-107620238D01*
X138954761Y-107572619D01*
X139002380Y-107525000D01*
X139073809Y-107501190D01*
X139121428Y-107501190D01*
X139192857Y-107525000D01*
X139216666Y-107548809D01*
X139645238Y-107501190D02*
X139550000Y-107501190D01*
X139502380Y-107525000D01*
X139478571Y-107548809D01*
X139430952Y-107620238D01*
X139407142Y-107715476D01*
X139407142Y-107905952D01*
X139430952Y-107953571D01*
X139454761Y-107977380D01*
X139502380Y-108001190D01*
X139597619Y-108001190D01*
X139645238Y-107977380D01*
X139669047Y-107953571D01*
X139692857Y-107905952D01*
X139692857Y-107786904D01*
X139669047Y-107739285D01*
X139645238Y-107715476D01*
X139597619Y-107691666D01*
X139502380Y-107691666D01*
X139454761Y-107715476D01*
X139430952Y-107739285D01*
X139407142Y-107786904D01*
%TO.C,C7*%
X156191666Y-104278571D02*
X156167857Y-104302380D01*
X156096428Y-104326190D01*
X156048809Y-104326190D01*
X155977380Y-104302380D01*
X155929761Y-104254761D01*
X155905952Y-104207142D01*
X155882142Y-104111904D01*
X155882142Y-104040476D01*
X155905952Y-103945238D01*
X155929761Y-103897619D01*
X155977380Y-103850000D01*
X156048809Y-103826190D01*
X156096428Y-103826190D01*
X156167857Y-103850000D01*
X156191666Y-103873809D01*
X156358333Y-103826190D02*
X156691666Y-103826190D01*
X156477380Y-104326190D01*
%TO.C,C8*%
X139641666Y-104753571D02*
X139617857Y-104777380D01*
X139546428Y-104801190D01*
X139498809Y-104801190D01*
X139427380Y-104777380D01*
X139379761Y-104729761D01*
X139355952Y-104682142D01*
X139332142Y-104586904D01*
X139332142Y-104515476D01*
X139355952Y-104420238D01*
X139379761Y-104372619D01*
X139427380Y-104325000D01*
X139498809Y-104301190D01*
X139546428Y-104301190D01*
X139617857Y-104325000D01*
X139641666Y-104348809D01*
X139927380Y-104515476D02*
X139879761Y-104491666D01*
X139855952Y-104467857D01*
X139832142Y-104420238D01*
X139832142Y-104396428D01*
X139855952Y-104348809D01*
X139879761Y-104325000D01*
X139927380Y-104301190D01*
X140022619Y-104301190D01*
X140070238Y-104325000D01*
X140094047Y-104348809D01*
X140117857Y-104396428D01*
X140117857Y-104420238D01*
X140094047Y-104467857D01*
X140070238Y-104491666D01*
X140022619Y-104515476D01*
X139927380Y-104515476D01*
X139879761Y-104539285D01*
X139855952Y-104563095D01*
X139832142Y-104610714D01*
X139832142Y-104705952D01*
X139855952Y-104753571D01*
X139879761Y-104777380D01*
X139927380Y-104801190D01*
X140022619Y-104801190D01*
X140070238Y-104777380D01*
X140094047Y-104753571D01*
X140117857Y-104705952D01*
X140117857Y-104610714D01*
X140094047Y-104563095D01*
X140070238Y-104539285D01*
X140022619Y-104515476D01*
%TO.C,C11*%
X146753571Y-128878571D02*
X146729761Y-128902380D01*
X146658333Y-128926190D01*
X146610714Y-128926190D01*
X146539285Y-128902380D01*
X146491666Y-128854761D01*
X146467857Y-128807142D01*
X146444047Y-128711904D01*
X146444047Y-128640476D01*
X146467857Y-128545238D01*
X146491666Y-128497619D01*
X146539285Y-128450000D01*
X146610714Y-128426190D01*
X146658333Y-128426190D01*
X146729761Y-128450000D01*
X146753571Y-128473809D01*
X147229761Y-128926190D02*
X146944047Y-128926190D01*
X147086904Y-128926190D02*
X147086904Y-128426190D01*
X147039285Y-128497619D01*
X146991666Y-128545238D01*
X146944047Y-128569047D01*
X147705952Y-128926190D02*
X147420238Y-128926190D01*
X147563095Y-128926190D02*
X147563095Y-128426190D01*
X147515476Y-128497619D01*
X147467857Y-128545238D01*
X147420238Y-128569047D01*
%TO.C,C10*%
X149803571Y-112003571D02*
X149779761Y-112027380D01*
X149708333Y-112051190D01*
X149660714Y-112051190D01*
X149589285Y-112027380D01*
X149541666Y-111979761D01*
X149517857Y-111932142D01*
X149494047Y-111836904D01*
X149494047Y-111765476D01*
X149517857Y-111670238D01*
X149541666Y-111622619D01*
X149589285Y-111575000D01*
X149660714Y-111551190D01*
X149708333Y-111551190D01*
X149779761Y-111575000D01*
X149803571Y-111598809D01*
X150279761Y-112051190D02*
X149994047Y-112051190D01*
X150136904Y-112051190D02*
X150136904Y-111551190D01*
X150089285Y-111622619D01*
X150041666Y-111670238D01*
X149994047Y-111694047D01*
X150589285Y-111551190D02*
X150636904Y-111551190D01*
X150684523Y-111575000D01*
X150708333Y-111598809D01*
X150732142Y-111646428D01*
X150755952Y-111741666D01*
X150755952Y-111860714D01*
X150732142Y-111955952D01*
X150708333Y-112003571D01*
X150684523Y-112027380D01*
X150636904Y-112051190D01*
X150589285Y-112051190D01*
X150541666Y-112027380D01*
X150517857Y-112003571D01*
X150494047Y-111955952D01*
X150470238Y-111860714D01*
X150470238Y-111741666D01*
X150494047Y-111646428D01*
X150517857Y-111598809D01*
X150541666Y-111575000D01*
X150589285Y-111551190D01*
%TO.C,C12*%
X144308571Y-94333571D02*
X144284761Y-94357380D01*
X144213333Y-94381190D01*
X144165714Y-94381190D01*
X144094285Y-94357380D01*
X144046666Y-94309761D01*
X144022857Y-94262142D01*
X143999047Y-94166904D01*
X143999047Y-94095476D01*
X144022857Y-94000238D01*
X144046666Y-93952619D01*
X144094285Y-93905000D01*
X144165714Y-93881190D01*
X144213333Y-93881190D01*
X144284761Y-93905000D01*
X144308571Y-93928809D01*
X144784761Y-94381190D02*
X144499047Y-94381190D01*
X144641904Y-94381190D02*
X144641904Y-93881190D01*
X144594285Y-93952619D01*
X144546666Y-94000238D01*
X144499047Y-94024047D01*
X144975238Y-93928809D02*
X144999047Y-93905000D01*
X145046666Y-93881190D01*
X145165714Y-93881190D01*
X145213333Y-93905000D01*
X145237142Y-93928809D01*
X145260952Y-93976428D01*
X145260952Y-94024047D01*
X145237142Y-94095476D01*
X144951428Y-94381190D01*
X145260952Y-94381190D01*
%TO.C,C13*%
X153478571Y-97003571D02*
X153454761Y-97027380D01*
X153383333Y-97051190D01*
X153335714Y-97051190D01*
X153264285Y-97027380D01*
X153216666Y-96979761D01*
X153192857Y-96932142D01*
X153169047Y-96836904D01*
X153169047Y-96765476D01*
X153192857Y-96670238D01*
X153216666Y-96622619D01*
X153264285Y-96575000D01*
X153335714Y-96551190D01*
X153383333Y-96551190D01*
X153454761Y-96575000D01*
X153478571Y-96598809D01*
X153954761Y-97051190D02*
X153669047Y-97051190D01*
X153811904Y-97051190D02*
X153811904Y-96551190D01*
X153764285Y-96622619D01*
X153716666Y-96670238D01*
X153669047Y-96694047D01*
X154121428Y-96551190D02*
X154430952Y-96551190D01*
X154264285Y-96741666D01*
X154335714Y-96741666D01*
X154383333Y-96765476D01*
X154407142Y-96789285D01*
X154430952Y-96836904D01*
X154430952Y-96955952D01*
X154407142Y-97003571D01*
X154383333Y-97027380D01*
X154335714Y-97051190D01*
X154192857Y-97051190D01*
X154145238Y-97027380D01*
X154121428Y-97003571D01*
%TO.C,C15*%
X128508571Y-115933571D02*
X128484761Y-115957380D01*
X128413333Y-115981190D01*
X128365714Y-115981190D01*
X128294285Y-115957380D01*
X128246666Y-115909761D01*
X128222857Y-115862142D01*
X128199047Y-115766904D01*
X128199047Y-115695476D01*
X128222857Y-115600238D01*
X128246666Y-115552619D01*
X128294285Y-115505000D01*
X128365714Y-115481190D01*
X128413333Y-115481190D01*
X128484761Y-115505000D01*
X128508571Y-115528809D01*
X128984761Y-115981190D02*
X128699047Y-115981190D01*
X128841904Y-115981190D02*
X128841904Y-115481190D01*
X128794285Y-115552619D01*
X128746666Y-115600238D01*
X128699047Y-115624047D01*
X129437142Y-115481190D02*
X129199047Y-115481190D01*
X129175238Y-115719285D01*
X129199047Y-115695476D01*
X129246666Y-115671666D01*
X129365714Y-115671666D01*
X129413333Y-115695476D01*
X129437142Y-115719285D01*
X129460952Y-115766904D01*
X129460952Y-115885952D01*
X129437142Y-115933571D01*
X129413333Y-115957380D01*
X129365714Y-115981190D01*
X129246666Y-115981190D01*
X129199047Y-115957380D01*
X129175238Y-115933571D01*
%TO.C,C16*%
X150388571Y-83928571D02*
X150364761Y-83952380D01*
X150293333Y-83976190D01*
X150245714Y-83976190D01*
X150174285Y-83952380D01*
X150126666Y-83904761D01*
X150102857Y-83857142D01*
X150079047Y-83761904D01*
X150079047Y-83690476D01*
X150102857Y-83595238D01*
X150126666Y-83547619D01*
X150174285Y-83500000D01*
X150245714Y-83476190D01*
X150293333Y-83476190D01*
X150364761Y-83500000D01*
X150388571Y-83523809D01*
X150864761Y-83976190D02*
X150579047Y-83976190D01*
X150721904Y-83976190D02*
X150721904Y-83476190D01*
X150674285Y-83547619D01*
X150626666Y-83595238D01*
X150579047Y-83619047D01*
X151293333Y-83476190D02*
X151198095Y-83476190D01*
X151150476Y-83500000D01*
X151126666Y-83523809D01*
X151079047Y-83595238D01*
X151055238Y-83690476D01*
X151055238Y-83880952D01*
X151079047Y-83928571D01*
X151102857Y-83952380D01*
X151150476Y-83976190D01*
X151245714Y-83976190D01*
X151293333Y-83952380D01*
X151317142Y-83928571D01*
X151340952Y-83880952D01*
X151340952Y-83761904D01*
X151317142Y-83714285D01*
X151293333Y-83690476D01*
X151245714Y-83666666D01*
X151150476Y-83666666D01*
X151102857Y-83690476D01*
X151079047Y-83714285D01*
X151055238Y-83761904D01*
%TO.C,C17*%
X132408571Y-116033571D02*
X132384761Y-116057380D01*
X132313333Y-116081190D01*
X132265714Y-116081190D01*
X132194285Y-116057380D01*
X132146666Y-116009761D01*
X132122857Y-115962142D01*
X132099047Y-115866904D01*
X132099047Y-115795476D01*
X132122857Y-115700238D01*
X132146666Y-115652619D01*
X132194285Y-115605000D01*
X132265714Y-115581190D01*
X132313333Y-115581190D01*
X132384761Y-115605000D01*
X132408571Y-115628809D01*
X132884761Y-116081190D02*
X132599047Y-116081190D01*
X132741904Y-116081190D02*
X132741904Y-115581190D01*
X132694285Y-115652619D01*
X132646666Y-115700238D01*
X132599047Y-115724047D01*
X133051428Y-115581190D02*
X133384761Y-115581190D01*
X133170476Y-116081190D01*
%TO.C,C18*%
X170028571Y-115723571D02*
X170004761Y-115747380D01*
X169933333Y-115771190D01*
X169885714Y-115771190D01*
X169814285Y-115747380D01*
X169766666Y-115699761D01*
X169742857Y-115652142D01*
X169719047Y-115556904D01*
X169719047Y-115485476D01*
X169742857Y-115390238D01*
X169766666Y-115342619D01*
X169814285Y-115295000D01*
X169885714Y-115271190D01*
X169933333Y-115271190D01*
X170004761Y-115295000D01*
X170028571Y-115318809D01*
X170504761Y-115771190D02*
X170219047Y-115771190D01*
X170361904Y-115771190D02*
X170361904Y-115271190D01*
X170314285Y-115342619D01*
X170266666Y-115390238D01*
X170219047Y-115414047D01*
X170790476Y-115485476D02*
X170742857Y-115461666D01*
X170719047Y-115437857D01*
X170695238Y-115390238D01*
X170695238Y-115366428D01*
X170719047Y-115318809D01*
X170742857Y-115295000D01*
X170790476Y-115271190D01*
X170885714Y-115271190D01*
X170933333Y-115295000D01*
X170957142Y-115318809D01*
X170980952Y-115366428D01*
X170980952Y-115390238D01*
X170957142Y-115437857D01*
X170933333Y-115461666D01*
X170885714Y-115485476D01*
X170790476Y-115485476D01*
X170742857Y-115509285D01*
X170719047Y-115533095D01*
X170695238Y-115580714D01*
X170695238Y-115675952D01*
X170719047Y-115723571D01*
X170742857Y-115747380D01*
X170790476Y-115771190D01*
X170885714Y-115771190D01*
X170933333Y-115747380D01*
X170957142Y-115723571D01*
X170980952Y-115675952D01*
X170980952Y-115580714D01*
X170957142Y-115533095D01*
X170933333Y-115509285D01*
X170885714Y-115485476D01*
%TO.C,C20*%
X122008571Y-80983571D02*
X121984761Y-81007380D01*
X121913333Y-81031190D01*
X121865714Y-81031190D01*
X121794285Y-81007380D01*
X121746666Y-80959761D01*
X121722857Y-80912142D01*
X121699047Y-80816904D01*
X121699047Y-80745476D01*
X121722857Y-80650238D01*
X121746666Y-80602619D01*
X121794285Y-80555000D01*
X121865714Y-80531190D01*
X121913333Y-80531190D01*
X121984761Y-80555000D01*
X122008571Y-80578809D01*
X122199047Y-80578809D02*
X122222857Y-80555000D01*
X122270476Y-80531190D01*
X122389523Y-80531190D01*
X122437142Y-80555000D01*
X122460952Y-80578809D01*
X122484761Y-80626428D01*
X122484761Y-80674047D01*
X122460952Y-80745476D01*
X122175238Y-81031190D01*
X122484761Y-81031190D01*
X122794285Y-80531190D02*
X122841904Y-80531190D01*
X122889523Y-80555000D01*
X122913333Y-80578809D01*
X122937142Y-80626428D01*
X122960952Y-80721666D01*
X122960952Y-80840714D01*
X122937142Y-80935952D01*
X122913333Y-80983571D01*
X122889523Y-81007380D01*
X122841904Y-81031190D01*
X122794285Y-81031190D01*
X122746666Y-81007380D01*
X122722857Y-80983571D01*
X122699047Y-80935952D01*
X122675238Y-80840714D01*
X122675238Y-80721666D01*
X122699047Y-80626428D01*
X122722857Y-80578809D01*
X122746666Y-80555000D01*
X122794285Y-80531190D01*
%TO.C,C21*%
X138308571Y-116933571D02*
X138284761Y-116957380D01*
X138213333Y-116981190D01*
X138165714Y-116981190D01*
X138094285Y-116957380D01*
X138046666Y-116909761D01*
X138022857Y-116862142D01*
X137999047Y-116766904D01*
X137999047Y-116695476D01*
X138022857Y-116600238D01*
X138046666Y-116552619D01*
X138094285Y-116505000D01*
X138165714Y-116481190D01*
X138213333Y-116481190D01*
X138284761Y-116505000D01*
X138308571Y-116528809D01*
X138499047Y-116528809D02*
X138522857Y-116505000D01*
X138570476Y-116481190D01*
X138689523Y-116481190D01*
X138737142Y-116505000D01*
X138760952Y-116528809D01*
X138784761Y-116576428D01*
X138784761Y-116624047D01*
X138760952Y-116695476D01*
X138475238Y-116981190D01*
X138784761Y-116981190D01*
X139260952Y-116981190D02*
X138975238Y-116981190D01*
X139118095Y-116981190D02*
X139118095Y-116481190D01*
X139070476Y-116552619D01*
X139022857Y-116600238D01*
X138975238Y-116624047D01*
%TO.C,C22*%
X144578571Y-116828571D02*
X144554761Y-116852380D01*
X144483333Y-116876190D01*
X144435714Y-116876190D01*
X144364285Y-116852380D01*
X144316666Y-116804761D01*
X144292857Y-116757142D01*
X144269047Y-116661904D01*
X144269047Y-116590476D01*
X144292857Y-116495238D01*
X144316666Y-116447619D01*
X144364285Y-116400000D01*
X144435714Y-116376190D01*
X144483333Y-116376190D01*
X144554761Y-116400000D01*
X144578571Y-116423809D01*
X144769047Y-116423809D02*
X144792857Y-116400000D01*
X144840476Y-116376190D01*
X144959523Y-116376190D01*
X145007142Y-116400000D01*
X145030952Y-116423809D01*
X145054761Y-116471428D01*
X145054761Y-116519047D01*
X145030952Y-116590476D01*
X144745238Y-116876190D01*
X145054761Y-116876190D01*
X145245238Y-116423809D02*
X145269047Y-116400000D01*
X145316666Y-116376190D01*
X145435714Y-116376190D01*
X145483333Y-116400000D01*
X145507142Y-116423809D01*
X145530952Y-116471428D01*
X145530952Y-116519047D01*
X145507142Y-116590476D01*
X145221428Y-116876190D01*
X145530952Y-116876190D01*
%TO.C,C23*%
X141628571Y-89178571D02*
X141604761Y-89202380D01*
X141533333Y-89226190D01*
X141485714Y-89226190D01*
X141414285Y-89202380D01*
X141366666Y-89154761D01*
X141342857Y-89107142D01*
X141319047Y-89011904D01*
X141319047Y-88940476D01*
X141342857Y-88845238D01*
X141366666Y-88797619D01*
X141414285Y-88750000D01*
X141485714Y-88726190D01*
X141533333Y-88726190D01*
X141604761Y-88750000D01*
X141628571Y-88773809D01*
X141819047Y-88773809D02*
X141842857Y-88750000D01*
X141890476Y-88726190D01*
X142009523Y-88726190D01*
X142057142Y-88750000D01*
X142080952Y-88773809D01*
X142104761Y-88821428D01*
X142104761Y-88869047D01*
X142080952Y-88940476D01*
X141795238Y-89226190D01*
X142104761Y-89226190D01*
X142271428Y-88726190D02*
X142580952Y-88726190D01*
X142414285Y-88916666D01*
X142485714Y-88916666D01*
X142533333Y-88940476D01*
X142557142Y-88964285D01*
X142580952Y-89011904D01*
X142580952Y-89130952D01*
X142557142Y-89178571D01*
X142533333Y-89202380D01*
X142485714Y-89226190D01*
X142342857Y-89226190D01*
X142295238Y-89202380D01*
X142271428Y-89178571D01*
%TO.C,C24*%
X141728571Y-82903571D02*
X141704761Y-82927380D01*
X141633333Y-82951190D01*
X141585714Y-82951190D01*
X141514285Y-82927380D01*
X141466666Y-82879761D01*
X141442857Y-82832142D01*
X141419047Y-82736904D01*
X141419047Y-82665476D01*
X141442857Y-82570238D01*
X141466666Y-82522619D01*
X141514285Y-82475000D01*
X141585714Y-82451190D01*
X141633333Y-82451190D01*
X141704761Y-82475000D01*
X141728571Y-82498809D01*
X141919047Y-82498809D02*
X141942857Y-82475000D01*
X141990476Y-82451190D01*
X142109523Y-82451190D01*
X142157142Y-82475000D01*
X142180952Y-82498809D01*
X142204761Y-82546428D01*
X142204761Y-82594047D01*
X142180952Y-82665476D01*
X141895238Y-82951190D01*
X142204761Y-82951190D01*
X142633333Y-82617857D02*
X142633333Y-82951190D01*
X142514285Y-82427380D02*
X142395238Y-82784523D01*
X142704761Y-82784523D01*
%TO.C,D1*%
X133460952Y-126631190D02*
X133460952Y-126131190D01*
X133580000Y-126131190D01*
X133651428Y-126155000D01*
X133699047Y-126202619D01*
X133722857Y-126250238D01*
X133746666Y-126345476D01*
X133746666Y-126416904D01*
X133722857Y-126512142D01*
X133699047Y-126559761D01*
X133651428Y-126607380D01*
X133580000Y-126631190D01*
X133460952Y-126631190D01*
X134222857Y-126631190D02*
X133937142Y-126631190D01*
X134080000Y-126631190D02*
X134080000Y-126131190D01*
X134032380Y-126202619D01*
X133984761Y-126250238D01*
X133937142Y-126274047D01*
%TO.C,D2*%
X139030952Y-121826190D02*
X139030952Y-121326190D01*
X139150000Y-121326190D01*
X139221428Y-121350000D01*
X139269047Y-121397619D01*
X139292857Y-121445238D01*
X139316666Y-121540476D01*
X139316666Y-121611904D01*
X139292857Y-121707142D01*
X139269047Y-121754761D01*
X139221428Y-121802380D01*
X139150000Y-121826190D01*
X139030952Y-121826190D01*
X139507142Y-121373809D02*
X139530952Y-121350000D01*
X139578571Y-121326190D01*
X139697619Y-121326190D01*
X139745238Y-121350000D01*
X139769047Y-121373809D01*
X139792857Y-121421428D01*
X139792857Y-121469047D01*
X139769047Y-121540476D01*
X139483333Y-121826190D01*
X139792857Y-121826190D01*
%TO.C,D3*%
X156780952Y-124176190D02*
X156780952Y-123676190D01*
X156900000Y-123676190D01*
X156971428Y-123700000D01*
X157019047Y-123747619D01*
X157042857Y-123795238D01*
X157066666Y-123890476D01*
X157066666Y-123961904D01*
X157042857Y-124057142D01*
X157019047Y-124104761D01*
X156971428Y-124152380D01*
X156900000Y-124176190D01*
X156780952Y-124176190D01*
X157233333Y-123676190D02*
X157542857Y-123676190D01*
X157376190Y-123866666D01*
X157447619Y-123866666D01*
X157495238Y-123890476D01*
X157519047Y-123914285D01*
X157542857Y-123961904D01*
X157542857Y-124080952D01*
X157519047Y-124128571D01*
X157495238Y-124152380D01*
X157447619Y-124176190D01*
X157304761Y-124176190D01*
X157257142Y-124152380D01*
X157233333Y-124128571D01*
%TO.C,J1*%
X124363333Y-122981190D02*
X124363333Y-123338333D01*
X124339523Y-123409761D01*
X124291904Y-123457380D01*
X124220476Y-123481190D01*
X124172857Y-123481190D01*
X124863333Y-123481190D02*
X124577619Y-123481190D01*
X124720476Y-123481190D02*
X124720476Y-122981190D01*
X124672857Y-123052619D01*
X124625238Y-123100238D01*
X124577619Y-123124047D01*
D11*
%TO.C,J5*%
X173097380Y-136318333D02*
X173811666Y-136318333D01*
X173954523Y-136365952D01*
X174049761Y-136461190D01*
X174097380Y-136604047D01*
X174097380Y-136699285D01*
X173097380Y-135365952D02*
X173097380Y-135842142D01*
X173573571Y-135889761D01*
X173525952Y-135842142D01*
X173478333Y-135746904D01*
X173478333Y-135508809D01*
X173525952Y-135413571D01*
X173573571Y-135365952D01*
X173668809Y-135318333D01*
X173906904Y-135318333D01*
X174002142Y-135365952D01*
X174049761Y-135413571D01*
X174097380Y-135508809D01*
X174097380Y-135746904D01*
X174049761Y-135842142D01*
X174002142Y-135889761D01*
%TO.C,J3*%
X163247380Y-136318333D02*
X163961666Y-136318333D01*
X164104523Y-136365952D01*
X164199761Y-136461190D01*
X164247380Y-136604047D01*
X164247380Y-136699285D01*
X163247380Y-135937380D02*
X163247380Y-135318333D01*
X163628333Y-135651666D01*
X163628333Y-135508809D01*
X163675952Y-135413571D01*
X163723571Y-135365952D01*
X163818809Y-135318333D01*
X164056904Y-135318333D01*
X164152142Y-135365952D01*
X164199761Y-135413571D01*
X164247380Y-135508809D01*
X164247380Y-135794523D01*
X164199761Y-135889761D01*
X164152142Y-135937380D01*
D12*
%TO.C,J7*%
X165778333Y-111171190D02*
X165778333Y-111528333D01*
X165754523Y-111599761D01*
X165706904Y-111647380D01*
X165635476Y-111671190D01*
X165587857Y-111671190D01*
X165968809Y-111171190D02*
X166302142Y-111171190D01*
X166087857Y-111671190D01*
%TO.C,L1*%
X142616666Y-85101190D02*
X142378571Y-85101190D01*
X142378571Y-84601190D01*
X143045238Y-85101190D02*
X142759523Y-85101190D01*
X142902380Y-85101190D02*
X142902380Y-84601190D01*
X142854761Y-84672619D01*
X142807142Y-84720238D01*
X142759523Y-84744047D01*
%TO.C,Q1*%
X151602380Y-127773809D02*
X151554761Y-127750000D01*
X151507142Y-127702380D01*
X151435714Y-127630952D01*
X151388095Y-127607142D01*
X151340476Y-127607142D01*
X151364285Y-127726190D02*
X151316666Y-127702380D01*
X151269047Y-127654761D01*
X151245238Y-127559523D01*
X151245238Y-127392857D01*
X151269047Y-127297619D01*
X151316666Y-127250000D01*
X151364285Y-127226190D01*
X151459523Y-127226190D01*
X151507142Y-127250000D01*
X151554761Y-127297619D01*
X151578571Y-127392857D01*
X151578571Y-127559523D01*
X151554761Y-127654761D01*
X151507142Y-127702380D01*
X151459523Y-127726190D01*
X151364285Y-127726190D01*
X152054761Y-127726190D02*
X151769047Y-127726190D01*
X151911904Y-127726190D02*
X151911904Y-127226190D01*
X151864285Y-127297619D01*
X151816666Y-127345238D01*
X151769047Y-127369047D01*
%TO.C,Q2*%
X162327380Y-92923809D02*
X162279761Y-92900000D01*
X162232142Y-92852380D01*
X162160714Y-92780952D01*
X162113095Y-92757142D01*
X162065476Y-92757142D01*
X162089285Y-92876190D02*
X162041666Y-92852380D01*
X161994047Y-92804761D01*
X161970238Y-92709523D01*
X161970238Y-92542857D01*
X161994047Y-92447619D01*
X162041666Y-92400000D01*
X162089285Y-92376190D01*
X162184523Y-92376190D01*
X162232142Y-92400000D01*
X162279761Y-92447619D01*
X162303571Y-92542857D01*
X162303571Y-92709523D01*
X162279761Y-92804761D01*
X162232142Y-92852380D01*
X162184523Y-92876190D01*
X162089285Y-92876190D01*
X162494047Y-92423809D02*
X162517857Y-92400000D01*
X162565476Y-92376190D01*
X162684523Y-92376190D01*
X162732142Y-92400000D01*
X162755952Y-92423809D01*
X162779761Y-92471428D01*
X162779761Y-92519047D01*
X162755952Y-92590476D01*
X162470238Y-92876190D01*
X162779761Y-92876190D01*
%TO.C,R1*%
X141216666Y-121826190D02*
X141050000Y-121588095D01*
X140930952Y-121826190D02*
X140930952Y-121326190D01*
X141121428Y-121326190D01*
X141169047Y-121350000D01*
X141192857Y-121373809D01*
X141216666Y-121421428D01*
X141216666Y-121492857D01*
X141192857Y-121540476D01*
X141169047Y-121564285D01*
X141121428Y-121588095D01*
X140930952Y-121588095D01*
X141692857Y-121826190D02*
X141407142Y-121826190D01*
X141550000Y-121826190D02*
X141550000Y-121326190D01*
X141502380Y-121397619D01*
X141454761Y-121445238D01*
X141407142Y-121469047D01*
%TO.C,R7*%
X160591666Y-89551190D02*
X160425000Y-89313095D01*
X160305952Y-89551190D02*
X160305952Y-89051190D01*
X160496428Y-89051190D01*
X160544047Y-89075000D01*
X160567857Y-89098809D01*
X160591666Y-89146428D01*
X160591666Y-89217857D01*
X160567857Y-89265476D01*
X160544047Y-89289285D01*
X160496428Y-89313095D01*
X160305952Y-89313095D01*
X160758333Y-89051190D02*
X161091666Y-89051190D01*
X160877380Y-89551190D01*
%TO.C,R8*%
X162086666Y-79436190D02*
X161920000Y-79198095D01*
X161800952Y-79436190D02*
X161800952Y-78936190D01*
X161991428Y-78936190D01*
X162039047Y-78960000D01*
X162062857Y-78983809D01*
X162086666Y-79031428D01*
X162086666Y-79102857D01*
X162062857Y-79150476D01*
X162039047Y-79174285D01*
X161991428Y-79198095D01*
X161800952Y-79198095D01*
X162372380Y-79150476D02*
X162324761Y-79126666D01*
X162300952Y-79102857D01*
X162277142Y-79055238D01*
X162277142Y-79031428D01*
X162300952Y-78983809D01*
X162324761Y-78960000D01*
X162372380Y-78936190D01*
X162467619Y-78936190D01*
X162515238Y-78960000D01*
X162539047Y-78983809D01*
X162562857Y-79031428D01*
X162562857Y-79055238D01*
X162539047Y-79102857D01*
X162515238Y-79126666D01*
X162467619Y-79150476D01*
X162372380Y-79150476D01*
X162324761Y-79174285D01*
X162300952Y-79198095D01*
X162277142Y-79245714D01*
X162277142Y-79340952D01*
X162300952Y-79388571D01*
X162324761Y-79412380D01*
X162372380Y-79436190D01*
X162467619Y-79436190D01*
X162515238Y-79412380D01*
X162539047Y-79388571D01*
X162562857Y-79340952D01*
X162562857Y-79245714D01*
X162539047Y-79198095D01*
X162515238Y-79174285D01*
X162467619Y-79150476D01*
%TO.C,R9*%
X161841666Y-123576190D02*
X161675000Y-123338095D01*
X161555952Y-123576190D02*
X161555952Y-123076190D01*
X161746428Y-123076190D01*
X161794047Y-123100000D01*
X161817857Y-123123809D01*
X161841666Y-123171428D01*
X161841666Y-123242857D01*
X161817857Y-123290476D01*
X161794047Y-123314285D01*
X161746428Y-123338095D01*
X161555952Y-123338095D01*
X162079761Y-123576190D02*
X162175000Y-123576190D01*
X162222619Y-123552380D01*
X162246428Y-123528571D01*
X162294047Y-123457142D01*
X162317857Y-123361904D01*
X162317857Y-123171428D01*
X162294047Y-123123809D01*
X162270238Y-123100000D01*
X162222619Y-123076190D01*
X162127380Y-123076190D01*
X162079761Y-123100000D01*
X162055952Y-123123809D01*
X162032142Y-123171428D01*
X162032142Y-123290476D01*
X162055952Y-123338095D01*
X162079761Y-123361904D01*
X162127380Y-123385714D01*
X162222619Y-123385714D01*
X162270238Y-123361904D01*
X162294047Y-123338095D01*
X162317857Y-123290476D01*
%TO.C,R11*%
X128008571Y-105656190D02*
X127841904Y-105418095D01*
X127722857Y-105656190D02*
X127722857Y-105156190D01*
X127913333Y-105156190D01*
X127960952Y-105180000D01*
X127984761Y-105203809D01*
X128008571Y-105251428D01*
X128008571Y-105322857D01*
X127984761Y-105370476D01*
X127960952Y-105394285D01*
X127913333Y-105418095D01*
X127722857Y-105418095D01*
X128484761Y-105656190D02*
X128199047Y-105656190D01*
X128341904Y-105656190D02*
X128341904Y-105156190D01*
X128294285Y-105227619D01*
X128246666Y-105275238D01*
X128199047Y-105299047D01*
X128960952Y-105656190D02*
X128675238Y-105656190D01*
X128818095Y-105656190D02*
X128818095Y-105156190D01*
X128770476Y-105227619D01*
X128722857Y-105275238D01*
X128675238Y-105299047D01*
%TO.C,R12*%
X128008571Y-107956190D02*
X127841904Y-107718095D01*
X127722857Y-107956190D02*
X127722857Y-107456190D01*
X127913333Y-107456190D01*
X127960952Y-107480000D01*
X127984761Y-107503809D01*
X128008571Y-107551428D01*
X128008571Y-107622857D01*
X127984761Y-107670476D01*
X127960952Y-107694285D01*
X127913333Y-107718095D01*
X127722857Y-107718095D01*
X128484761Y-107956190D02*
X128199047Y-107956190D01*
X128341904Y-107956190D02*
X128341904Y-107456190D01*
X128294285Y-107527619D01*
X128246666Y-107575238D01*
X128199047Y-107599047D01*
X128675238Y-107503809D02*
X128699047Y-107480000D01*
X128746666Y-107456190D01*
X128865714Y-107456190D01*
X128913333Y-107480000D01*
X128937142Y-107503809D01*
X128960952Y-107551428D01*
X128960952Y-107599047D01*
X128937142Y-107670476D01*
X128651428Y-107956190D01*
X128960952Y-107956190D01*
%TO.C,R13*%
X128153571Y-95151190D02*
X127986904Y-94913095D01*
X127867857Y-95151190D02*
X127867857Y-94651190D01*
X128058333Y-94651190D01*
X128105952Y-94675000D01*
X128129761Y-94698809D01*
X128153571Y-94746428D01*
X128153571Y-94817857D01*
X128129761Y-94865476D01*
X128105952Y-94889285D01*
X128058333Y-94913095D01*
X127867857Y-94913095D01*
X128629761Y-95151190D02*
X128344047Y-95151190D01*
X128486904Y-95151190D02*
X128486904Y-94651190D01*
X128439285Y-94722619D01*
X128391666Y-94770238D01*
X128344047Y-94794047D01*
X128796428Y-94651190D02*
X129105952Y-94651190D01*
X128939285Y-94841666D01*
X129010714Y-94841666D01*
X129058333Y-94865476D01*
X129082142Y-94889285D01*
X129105952Y-94936904D01*
X129105952Y-95055952D01*
X129082142Y-95103571D01*
X129058333Y-95127380D01*
X129010714Y-95151190D01*
X128867857Y-95151190D01*
X128820238Y-95127380D01*
X128796428Y-95103571D01*
%TO.C,R14*%
X171808571Y-105811190D02*
X171641904Y-105573095D01*
X171522857Y-105811190D02*
X171522857Y-105311190D01*
X171713333Y-105311190D01*
X171760952Y-105335000D01*
X171784761Y-105358809D01*
X171808571Y-105406428D01*
X171808571Y-105477857D01*
X171784761Y-105525476D01*
X171760952Y-105549285D01*
X171713333Y-105573095D01*
X171522857Y-105573095D01*
X172284761Y-105811190D02*
X171999047Y-105811190D01*
X172141904Y-105811190D02*
X172141904Y-105311190D01*
X172094285Y-105382619D01*
X172046666Y-105430238D01*
X171999047Y-105454047D01*
X172713333Y-105477857D02*
X172713333Y-105811190D01*
X172594285Y-105287380D02*
X172475238Y-105644523D01*
X172784761Y-105644523D01*
%TO.C,R15*%
X130073571Y-96121190D02*
X129906904Y-95883095D01*
X129787857Y-96121190D02*
X129787857Y-95621190D01*
X129978333Y-95621190D01*
X130025952Y-95645000D01*
X130049761Y-95668809D01*
X130073571Y-95716428D01*
X130073571Y-95787857D01*
X130049761Y-95835476D01*
X130025952Y-95859285D01*
X129978333Y-95883095D01*
X129787857Y-95883095D01*
X130549761Y-96121190D02*
X130264047Y-96121190D01*
X130406904Y-96121190D02*
X130406904Y-95621190D01*
X130359285Y-95692619D01*
X130311666Y-95740238D01*
X130264047Y-95764047D01*
X131002142Y-95621190D02*
X130764047Y-95621190D01*
X130740238Y-95859285D01*
X130764047Y-95835476D01*
X130811666Y-95811666D01*
X130930714Y-95811666D01*
X130978333Y-95835476D01*
X131002142Y-95859285D01*
X131025952Y-95906904D01*
X131025952Y-96025952D01*
X131002142Y-96073571D01*
X130978333Y-96097380D01*
X130930714Y-96121190D01*
X130811666Y-96121190D01*
X130764047Y-96097380D01*
X130740238Y-96073571D01*
%TO.C,R16*%
X171808571Y-108411190D02*
X171641904Y-108173095D01*
X171522857Y-108411190D02*
X171522857Y-107911190D01*
X171713333Y-107911190D01*
X171760952Y-107935000D01*
X171784761Y-107958809D01*
X171808571Y-108006428D01*
X171808571Y-108077857D01*
X171784761Y-108125476D01*
X171760952Y-108149285D01*
X171713333Y-108173095D01*
X171522857Y-108173095D01*
X172284761Y-108411190D02*
X171999047Y-108411190D01*
X172141904Y-108411190D02*
X172141904Y-107911190D01*
X172094285Y-107982619D01*
X172046666Y-108030238D01*
X171999047Y-108054047D01*
X172713333Y-107911190D02*
X172618095Y-107911190D01*
X172570476Y-107935000D01*
X172546666Y-107958809D01*
X172499047Y-108030238D01*
X172475238Y-108125476D01*
X172475238Y-108315952D01*
X172499047Y-108363571D01*
X172522857Y-108387380D01*
X172570476Y-108411190D01*
X172665714Y-108411190D01*
X172713333Y-108387380D01*
X172737142Y-108363571D01*
X172760952Y-108315952D01*
X172760952Y-108196904D01*
X172737142Y-108149285D01*
X172713333Y-108125476D01*
X172665714Y-108101666D01*
X172570476Y-108101666D01*
X172522857Y-108125476D01*
X172499047Y-108149285D01*
X172475238Y-108196904D01*
%TO.C,R17*%
X135308571Y-72918448D02*
X135141904Y-72680353D01*
X135022857Y-72918448D02*
X135022857Y-72418448D01*
X135213333Y-72418448D01*
X135260952Y-72442258D01*
X135284761Y-72466067D01*
X135308571Y-72513686D01*
X135308571Y-72585115D01*
X135284761Y-72632734D01*
X135260952Y-72656543D01*
X135213333Y-72680353D01*
X135022857Y-72680353D01*
X135784761Y-72918448D02*
X135499047Y-72918448D01*
X135641904Y-72918448D02*
X135641904Y-72418448D01*
X135594285Y-72489877D01*
X135546666Y-72537496D01*
X135499047Y-72561305D01*
X135951428Y-72418448D02*
X136284761Y-72418448D01*
X136070476Y-72918448D01*
%TO.C,SW1*%
X163402380Y-73206666D02*
X163426190Y-73135238D01*
X163426190Y-73016190D01*
X163402380Y-72968571D01*
X163378571Y-72944761D01*
X163330952Y-72920952D01*
X163283333Y-72920952D01*
X163235714Y-72944761D01*
X163211904Y-72968571D01*
X163188095Y-73016190D01*
X163164285Y-73111428D01*
X163140476Y-73159047D01*
X163116666Y-73182857D01*
X163069047Y-73206666D01*
X163021428Y-73206666D01*
X162973809Y-73182857D01*
X162950000Y-73159047D01*
X162926190Y-73111428D01*
X162926190Y-72992380D01*
X162950000Y-72920952D01*
X162926190Y-72754285D02*
X163426190Y-72635238D01*
X163069047Y-72540000D01*
X163426190Y-72444761D01*
X162926190Y-72325714D01*
X163426190Y-71873333D02*
X163426190Y-72159047D01*
X163426190Y-72016190D02*
X162926190Y-72016190D01*
X162997619Y-72063809D01*
X163045238Y-72111428D01*
X163069047Y-72159047D01*
%TO.C,SW2*%
X170108333Y-90527380D02*
X170179761Y-90551190D01*
X170298809Y-90551190D01*
X170346428Y-90527380D01*
X170370238Y-90503571D01*
X170394047Y-90455952D01*
X170394047Y-90408333D01*
X170370238Y-90360714D01*
X170346428Y-90336904D01*
X170298809Y-90313095D01*
X170203571Y-90289285D01*
X170155952Y-90265476D01*
X170132142Y-90241666D01*
X170108333Y-90194047D01*
X170108333Y-90146428D01*
X170132142Y-90098809D01*
X170155952Y-90075000D01*
X170203571Y-90051190D01*
X170322619Y-90051190D01*
X170394047Y-90075000D01*
X170560714Y-90051190D02*
X170679761Y-90551190D01*
X170775000Y-90194047D01*
X170870238Y-90551190D01*
X170989285Y-90051190D01*
X171155952Y-90098809D02*
X171179761Y-90075000D01*
X171227380Y-90051190D01*
X171346428Y-90051190D01*
X171394047Y-90075000D01*
X171417857Y-90098809D01*
X171441666Y-90146428D01*
X171441666Y-90194047D01*
X171417857Y-90265476D01*
X171132142Y-90551190D01*
X171441666Y-90551190D01*
%TO.C,SW3*%
X125563333Y-76507380D02*
X125634761Y-76531190D01*
X125753809Y-76531190D01*
X125801428Y-76507380D01*
X125825238Y-76483571D01*
X125849047Y-76435952D01*
X125849047Y-76388333D01*
X125825238Y-76340714D01*
X125801428Y-76316904D01*
X125753809Y-76293095D01*
X125658571Y-76269285D01*
X125610952Y-76245476D01*
X125587142Y-76221666D01*
X125563333Y-76174047D01*
X125563333Y-76126428D01*
X125587142Y-76078809D01*
X125610952Y-76055000D01*
X125658571Y-76031190D01*
X125777619Y-76031190D01*
X125849047Y-76055000D01*
X126015714Y-76031190D02*
X126134761Y-76531190D01*
X126230000Y-76174047D01*
X126325238Y-76531190D01*
X126444285Y-76031190D01*
X126587142Y-76031190D02*
X126896666Y-76031190D01*
X126730000Y-76221666D01*
X126801428Y-76221666D01*
X126849047Y-76245476D01*
X126872857Y-76269285D01*
X126896666Y-76316904D01*
X126896666Y-76435952D01*
X126872857Y-76483571D01*
X126849047Y-76507380D01*
X126801428Y-76531190D01*
X126658571Y-76531190D01*
X126610952Y-76507380D01*
X126587142Y-76483571D01*
%TO.C,U1*%
X142669047Y-100926190D02*
X142669047Y-101330952D01*
X142692857Y-101378571D01*
X142716666Y-101402380D01*
X142764285Y-101426190D01*
X142859523Y-101426190D01*
X142907142Y-101402380D01*
X142930952Y-101378571D01*
X142954761Y-101330952D01*
X142954761Y-100926190D01*
X143454761Y-101426190D02*
X143169047Y-101426190D01*
X143311904Y-101426190D02*
X143311904Y-100926190D01*
X143264285Y-100997619D01*
X143216666Y-101045238D01*
X143169047Y-101069047D01*
%TO.C,U2*%
X142439047Y-122321190D02*
X142439047Y-122725952D01*
X142462857Y-122773571D01*
X142486666Y-122797380D01*
X142534285Y-122821190D01*
X142629523Y-122821190D01*
X142677142Y-122797380D01*
X142700952Y-122773571D01*
X142724761Y-122725952D01*
X142724761Y-122321190D01*
X142939047Y-122368809D02*
X142962857Y-122345000D01*
X143010476Y-122321190D01*
X143129523Y-122321190D01*
X143177142Y-122345000D01*
X143200952Y-122368809D01*
X143224761Y-122416428D01*
X143224761Y-122464047D01*
X143200952Y-122535476D01*
X142915238Y-122821190D01*
X143224761Y-122821190D01*
%TO.C,U3*%
X154749047Y-86081190D02*
X154749047Y-86485952D01*
X154772857Y-86533571D01*
X154796666Y-86557380D01*
X154844285Y-86581190D01*
X154939523Y-86581190D01*
X154987142Y-86557380D01*
X155010952Y-86533571D01*
X155034761Y-86485952D01*
X155034761Y-86081190D01*
X155225238Y-86081190D02*
X155534761Y-86081190D01*
X155368095Y-86271666D01*
X155439523Y-86271666D01*
X155487142Y-86295476D01*
X155510952Y-86319285D01*
X155534761Y-86366904D01*
X155534761Y-86485952D01*
X155510952Y-86533571D01*
X155487142Y-86557380D01*
X155439523Y-86581190D01*
X155296666Y-86581190D01*
X155249047Y-86557380D01*
X155225238Y-86533571D01*
%TO.C,U4*%
X127949047Y-110856190D02*
X127949047Y-111260952D01*
X127972857Y-111308571D01*
X127996666Y-111332380D01*
X128044285Y-111356190D01*
X128139523Y-111356190D01*
X128187142Y-111332380D01*
X128210952Y-111308571D01*
X128234761Y-111260952D01*
X128234761Y-110856190D01*
X128687142Y-111022857D02*
X128687142Y-111356190D01*
X128568095Y-110832380D02*
X128449047Y-111189523D01*
X128758571Y-111189523D01*
%TO.C,U6*%
X125694047Y-79426190D02*
X125694047Y-79830952D01*
X125717857Y-79878571D01*
X125741666Y-79902380D01*
X125789285Y-79926190D01*
X125884523Y-79926190D01*
X125932142Y-79902380D01*
X125955952Y-79878571D01*
X125979761Y-79830952D01*
X125979761Y-79426190D01*
X126432142Y-79426190D02*
X126336904Y-79426190D01*
X126289285Y-79450000D01*
X126265476Y-79473809D01*
X126217857Y-79545238D01*
X126194047Y-79640476D01*
X126194047Y-79830952D01*
X126217857Y-79878571D01*
X126241666Y-79902380D01*
X126289285Y-79926190D01*
X126384523Y-79926190D01*
X126432142Y-79902380D01*
X126455952Y-79878571D01*
X126479761Y-79830952D01*
X126479761Y-79711904D01*
X126455952Y-79664285D01*
X126432142Y-79640476D01*
X126384523Y-79616666D01*
X126289285Y-79616666D01*
X126241666Y-79640476D01*
X126217857Y-79664285D01*
X126194047Y-79711904D01*
%TO.C,U7*%
X164799047Y-104981190D02*
X164799047Y-105385952D01*
X164822857Y-105433571D01*
X164846666Y-105457380D01*
X164894285Y-105481190D01*
X164989523Y-105481190D01*
X165037142Y-105457380D01*
X165060952Y-105433571D01*
X165084761Y-105385952D01*
X165084761Y-104981190D01*
X165275238Y-104981190D02*
X165608571Y-104981190D01*
X165394285Y-105481190D01*
%TO.C,Y1*%
X141611904Y-112713095D02*
X141611904Y-112951190D01*
X141445238Y-112451190D02*
X141611904Y-112713095D01*
X141778571Y-112451190D01*
X142207142Y-112951190D02*
X141921428Y-112951190D01*
X142064285Y-112951190D02*
X142064285Y-112451190D01*
X142016666Y-112522619D01*
X141969047Y-112570238D01*
X141921428Y-112594047D01*
D11*
%TO.C,J8*%
X143996666Y-74467380D02*
X143996666Y-75181666D01*
X143949047Y-75324523D01*
X143853809Y-75419761D01*
X143710952Y-75467380D01*
X143615714Y-75467380D01*
X144615714Y-74895952D02*
X144520476Y-74848333D01*
X144472857Y-74800714D01*
X144425238Y-74705476D01*
X144425238Y-74657857D01*
X144472857Y-74562619D01*
X144520476Y-74515000D01*
X144615714Y-74467380D01*
X144806190Y-74467380D01*
X144901428Y-74515000D01*
X144949047Y-74562619D01*
X144996666Y-74657857D01*
X144996666Y-74705476D01*
X144949047Y-74800714D01*
X144901428Y-74848333D01*
X144806190Y-74895952D01*
X144615714Y-74895952D01*
X144520476Y-74943571D01*
X144472857Y-74991190D01*
X144425238Y-75086428D01*
X144425238Y-75276904D01*
X144472857Y-75372142D01*
X144520476Y-75419761D01*
X144615714Y-75467380D01*
X144806190Y-75467380D01*
X144901428Y-75419761D01*
X144949047Y-75372142D01*
X144996666Y-75276904D01*
X144996666Y-75086428D01*
X144949047Y-74991190D01*
X144901428Y-74943571D01*
X144806190Y-74895952D01*
D12*
%TO.C,JP1*%
X142013333Y-119781190D02*
X142013333Y-120138333D01*
X141989523Y-120209761D01*
X141941904Y-120257380D01*
X141870476Y-120281190D01*
X141822857Y-120281190D01*
X142251428Y-120281190D02*
X142251428Y-119781190D01*
X142441904Y-119781190D01*
X142489523Y-119805000D01*
X142513333Y-119828809D01*
X142537142Y-119876428D01*
X142537142Y-119947857D01*
X142513333Y-119995476D01*
X142489523Y-120019285D01*
X142441904Y-120043095D01*
X142251428Y-120043095D01*
X143013333Y-120281190D02*
X142727619Y-120281190D01*
X142870476Y-120281190D02*
X142870476Y-119781190D01*
X142822857Y-119852619D01*
X142775238Y-119900238D01*
X142727619Y-119924047D01*
%TO.C,TP3*%
X133539047Y-127246190D02*
X133824761Y-127246190D01*
X133681904Y-127746190D02*
X133681904Y-127246190D01*
X133991428Y-127746190D02*
X133991428Y-127246190D01*
X134181904Y-127246190D01*
X134229523Y-127270000D01*
X134253333Y-127293809D01*
X134277142Y-127341428D01*
X134277142Y-127412857D01*
X134253333Y-127460476D01*
X134229523Y-127484285D01*
X134181904Y-127508095D01*
X133991428Y-127508095D01*
X134443809Y-127246190D02*
X134753333Y-127246190D01*
X134586666Y-127436666D01*
X134658095Y-127436666D01*
X134705714Y-127460476D01*
X134729523Y-127484285D01*
X134753333Y-127531904D01*
X134753333Y-127650952D01*
X134729523Y-127698571D01*
X134705714Y-127722380D01*
X134658095Y-127746190D01*
X134515238Y-127746190D01*
X134467619Y-127722380D01*
X134443809Y-127698571D01*
%TO.C,TP1*%
X149819047Y-119051190D02*
X150104761Y-119051190D01*
X149961904Y-119551190D02*
X149961904Y-119051190D01*
X150271428Y-119551190D02*
X150271428Y-119051190D01*
X150461904Y-119051190D01*
X150509523Y-119075000D01*
X150533333Y-119098809D01*
X150557142Y-119146428D01*
X150557142Y-119217857D01*
X150533333Y-119265476D01*
X150509523Y-119289285D01*
X150461904Y-119313095D01*
X150271428Y-119313095D01*
X151033333Y-119551190D02*
X150747619Y-119551190D01*
X150890476Y-119551190D02*
X150890476Y-119051190D01*
X150842857Y-119122619D01*
X150795238Y-119170238D01*
X150747619Y-119194047D01*
%TO.C,TP6*%
X134599047Y-95681190D02*
X134884761Y-95681190D01*
X134741904Y-96181190D02*
X134741904Y-95681190D01*
X135051428Y-96181190D02*
X135051428Y-95681190D01*
X135241904Y-95681190D01*
X135289523Y-95705000D01*
X135313333Y-95728809D01*
X135337142Y-95776428D01*
X135337142Y-95847857D01*
X135313333Y-95895476D01*
X135289523Y-95919285D01*
X135241904Y-95943095D01*
X135051428Y-95943095D01*
X135765714Y-95681190D02*
X135670476Y-95681190D01*
X135622857Y-95705000D01*
X135599047Y-95728809D01*
X135551428Y-95800238D01*
X135527619Y-95895476D01*
X135527619Y-96085952D01*
X135551428Y-96133571D01*
X135575238Y-96157380D01*
X135622857Y-96181190D01*
X135718095Y-96181190D01*
X135765714Y-96157380D01*
X135789523Y-96133571D01*
X135813333Y-96085952D01*
X135813333Y-95966904D01*
X135789523Y-95919285D01*
X135765714Y-95895476D01*
X135718095Y-95871666D01*
X135622857Y-95871666D01*
X135575238Y-95895476D01*
X135551428Y-95919285D01*
X135527619Y-95966904D01*
%TO.C,TP7*%
X127019047Y-101326190D02*
X127304761Y-101326190D01*
X127161904Y-101826190D02*
X127161904Y-101326190D01*
X127471428Y-101826190D02*
X127471428Y-101326190D01*
X127661904Y-101326190D01*
X127709523Y-101350000D01*
X127733333Y-101373809D01*
X127757142Y-101421428D01*
X127757142Y-101492857D01*
X127733333Y-101540476D01*
X127709523Y-101564285D01*
X127661904Y-101588095D01*
X127471428Y-101588095D01*
X127923809Y-101326190D02*
X128257142Y-101326190D01*
X128042857Y-101826190D01*
D11*
%TO.C,C19*%
X144657142Y-120882142D02*
X144609523Y-120929761D01*
X144466666Y-120977380D01*
X144371428Y-120977380D01*
X144228571Y-120929761D01*
X144133333Y-120834523D01*
X144085714Y-120739285D01*
X144038095Y-120548809D01*
X144038095Y-120405952D01*
X144085714Y-120215476D01*
X144133333Y-120120238D01*
X144228571Y-120025000D01*
X144371428Y-119977380D01*
X144466666Y-119977380D01*
X144609523Y-120025000D01*
X144657142Y-120072619D01*
X145609523Y-120977380D02*
X145038095Y-120977380D01*
X145323809Y-120977380D02*
X145323809Y-119977380D01*
X145228571Y-120120238D01*
X145133333Y-120215476D01*
X145038095Y-120263095D01*
X146085714Y-120977380D02*
X146276190Y-120977380D01*
X146371428Y-120929761D01*
X146419047Y-120882142D01*
X146514285Y-120739285D01*
X146561904Y-120548809D01*
X146561904Y-120167857D01*
X146514285Y-120072619D01*
X146466666Y-120025000D01*
X146371428Y-119977380D01*
X146180952Y-119977380D01*
X146085714Y-120025000D01*
X146038095Y-120072619D01*
X145990476Y-120167857D01*
X145990476Y-120405952D01*
X146038095Y-120501190D01*
X146085714Y-120548809D01*
X146180952Y-120596428D01*
X146371428Y-120596428D01*
X146466666Y-120548809D01*
X146514285Y-120501190D01*
X146561904Y-120405952D01*
D12*
%TO.C,TP2*%
X158294047Y-97751190D02*
X158579761Y-97751190D01*
X158436904Y-98251190D02*
X158436904Y-97751190D01*
X158746428Y-98251190D02*
X158746428Y-97751190D01*
X158936904Y-97751190D01*
X158984523Y-97775000D01*
X159008333Y-97798809D01*
X159032142Y-97846428D01*
X159032142Y-97917857D01*
X159008333Y-97965476D01*
X158984523Y-97989285D01*
X158936904Y-98013095D01*
X158746428Y-98013095D01*
X159222619Y-97798809D02*
X159246428Y-97775000D01*
X159294047Y-97751190D01*
X159413095Y-97751190D01*
X159460714Y-97775000D01*
X159484523Y-97798809D01*
X159508333Y-97846428D01*
X159508333Y-97894047D01*
X159484523Y-97965476D01*
X159198809Y-98251190D01*
X159508333Y-98251190D01*
D11*
%TO.C,J6*%
X172486666Y-78372380D02*
X172486666Y-79086666D01*
X172439047Y-79229523D01*
X172343809Y-79324761D01*
X172200952Y-79372380D01*
X172105714Y-79372380D01*
X173391428Y-78372380D02*
X173200952Y-78372380D01*
X173105714Y-78420000D01*
X173058095Y-78467619D01*
X172962857Y-78610476D01*
X172915238Y-78800952D01*
X172915238Y-79181904D01*
X172962857Y-79277142D01*
X173010476Y-79324761D01*
X173105714Y-79372380D01*
X173296190Y-79372380D01*
X173391428Y-79324761D01*
X173439047Y-79277142D01*
X173486666Y-79181904D01*
X173486666Y-78943809D01*
X173439047Y-78848571D01*
X173391428Y-78800952D01*
X173296190Y-78753333D01*
X173105714Y-78753333D01*
X173010476Y-78800952D01*
X172962857Y-78848571D01*
X172915238Y-78943809D01*
%TO.C,R5*%
X137533333Y-126777380D02*
X137200000Y-126301190D01*
X136961904Y-126777380D02*
X136961904Y-125777380D01*
X137342857Y-125777380D01*
X137438095Y-125825000D01*
X137485714Y-125872619D01*
X137533333Y-125967857D01*
X137533333Y-126110714D01*
X137485714Y-126205952D01*
X137438095Y-126253571D01*
X137342857Y-126301190D01*
X136961904Y-126301190D01*
X138438095Y-125777380D02*
X137961904Y-125777380D01*
X137914285Y-126253571D01*
X137961904Y-126205952D01*
X138057142Y-126158333D01*
X138295238Y-126158333D01*
X138390476Y-126205952D01*
X138438095Y-126253571D01*
X138485714Y-126348809D01*
X138485714Y-126586904D01*
X138438095Y-126682142D01*
X138390476Y-126729761D01*
X138295238Y-126777380D01*
X138057142Y-126777380D01*
X137961904Y-126729761D01*
X137914285Y-126682142D01*
D12*
%TO.C,R3*%
X150346666Y-94681190D02*
X150180000Y-94443095D01*
X150060952Y-94681190D02*
X150060952Y-94181190D01*
X150251428Y-94181190D01*
X150299047Y-94205000D01*
X150322857Y-94228809D01*
X150346666Y-94276428D01*
X150346666Y-94347857D01*
X150322857Y-94395476D01*
X150299047Y-94419285D01*
X150251428Y-94443095D01*
X150060952Y-94443095D01*
X150513333Y-94181190D02*
X150822857Y-94181190D01*
X150656190Y-94371666D01*
X150727619Y-94371666D01*
X150775238Y-94395476D01*
X150799047Y-94419285D01*
X150822857Y-94466904D01*
X150822857Y-94585952D01*
X150799047Y-94633571D01*
X150775238Y-94657380D01*
X150727619Y-94681190D01*
X150584761Y-94681190D01*
X150537142Y-94657380D01*
X150513333Y-94633571D01*
D11*
%TO.C,U5*%
X167377380Y-121786904D02*
X168186904Y-121786904D01*
X168282142Y-121739285D01*
X168329761Y-121691666D01*
X168377380Y-121596428D01*
X168377380Y-121405952D01*
X168329761Y-121310714D01*
X168282142Y-121263095D01*
X168186904Y-121215476D01*
X167377380Y-121215476D01*
X167377380Y-120263095D02*
X167377380Y-120739285D01*
X167853571Y-120786904D01*
X167805952Y-120739285D01*
X167758333Y-120644047D01*
X167758333Y-120405952D01*
X167805952Y-120310714D01*
X167853571Y-120263095D01*
X167948809Y-120215476D01*
X168186904Y-120215476D01*
X168282142Y-120263095D01*
X168329761Y-120310714D01*
X168377380Y-120405952D01*
X168377380Y-120644047D01*
X168329761Y-120739285D01*
X168282142Y-120786904D01*
D12*
%TO.C,C9*%
X156191666Y-100878571D02*
X156167857Y-100902380D01*
X156096428Y-100926190D01*
X156048809Y-100926190D01*
X155977380Y-100902380D01*
X155929761Y-100854761D01*
X155905952Y-100807142D01*
X155882142Y-100711904D01*
X155882142Y-100640476D01*
X155905952Y-100545238D01*
X155929761Y-100497619D01*
X155977380Y-100450000D01*
X156048809Y-100426190D01*
X156096428Y-100426190D01*
X156167857Y-100450000D01*
X156191666Y-100473809D01*
X156429761Y-100926190D02*
X156525000Y-100926190D01*
X156572619Y-100902380D01*
X156596428Y-100878571D01*
X156644047Y-100807142D01*
X156667857Y-100711904D01*
X156667857Y-100521428D01*
X156644047Y-100473809D01*
X156620238Y-100450000D01*
X156572619Y-100426190D01*
X156477380Y-100426190D01*
X156429761Y-100450000D01*
X156405952Y-100473809D01*
X156382142Y-100521428D01*
X156382142Y-100640476D01*
X156405952Y-100688095D01*
X156429761Y-100711904D01*
X156477380Y-100735714D01*
X156572619Y-100735714D01*
X156620238Y-100711904D01*
X156644047Y-100688095D01*
X156667857Y-100640476D01*
%TO.C,R6*%
X160591666Y-87126190D02*
X160425000Y-86888095D01*
X160305952Y-87126190D02*
X160305952Y-86626190D01*
X160496428Y-86626190D01*
X160544047Y-86650000D01*
X160567857Y-86673809D01*
X160591666Y-86721428D01*
X160591666Y-86792857D01*
X160567857Y-86840476D01*
X160544047Y-86864285D01*
X160496428Y-86888095D01*
X160305952Y-86888095D01*
X161020238Y-86626190D02*
X160925000Y-86626190D01*
X160877380Y-86650000D01*
X160853571Y-86673809D01*
X160805952Y-86745238D01*
X160782142Y-86840476D01*
X160782142Y-87030952D01*
X160805952Y-87078571D01*
X160829761Y-87102380D01*
X160877380Y-87126190D01*
X160972619Y-87126190D01*
X161020238Y-87102380D01*
X161044047Y-87078571D01*
X161067857Y-87030952D01*
X161067857Y-86911904D01*
X161044047Y-86864285D01*
X161020238Y-86840476D01*
X160972619Y-86816666D01*
X160877380Y-86816666D01*
X160829761Y-86840476D01*
X160805952Y-86864285D01*
X160782142Y-86911904D01*
%TO.C,R4*%
X148246666Y-94681190D02*
X148080000Y-94443095D01*
X147960952Y-94681190D02*
X147960952Y-94181190D01*
X148151428Y-94181190D01*
X148199047Y-94205000D01*
X148222857Y-94228809D01*
X148246666Y-94276428D01*
X148246666Y-94347857D01*
X148222857Y-94395476D01*
X148199047Y-94419285D01*
X148151428Y-94443095D01*
X147960952Y-94443095D01*
X148675238Y-94347857D02*
X148675238Y-94681190D01*
X148556190Y-94157380D02*
X148437142Y-94514523D01*
X148746666Y-94514523D01*
D11*
%TO.C,J2*%
X160522380Y-84133333D02*
X161236666Y-84133333D01*
X161379523Y-84180952D01*
X161474761Y-84276190D01*
X161522380Y-84419047D01*
X161522380Y-84514285D01*
X160617619Y-83704761D02*
X160570000Y-83657142D01*
X160522380Y-83561904D01*
X160522380Y-83323809D01*
X160570000Y-83228571D01*
X160617619Y-83180952D01*
X160712857Y-83133333D01*
X160808095Y-83133333D01*
X160950952Y-83180952D01*
X161522380Y-83752380D01*
X161522380Y-83133333D01*
D10*
%TO.C,J9*%
X118050000Y-119765000D02*
X112050000Y-119765000D01*
X112050000Y-117005000D02*
X118050000Y-117005000D01*
X123420000Y-121195000D02*
X122150000Y-121195000D01*
X118050000Y-120005000D02*
X112050000Y-120005000D01*
X118050000Y-120305000D02*
X112050000Y-120305000D01*
X112050000Y-119545000D02*
X118050000Y-119545000D01*
X118050000Y-121255000D02*
X120710000Y-121255000D01*
X120710000Y-121255000D02*
X120710000Y-116055000D01*
X118050000Y-120125000D02*
X112050000Y-120125000D01*
X112050000Y-120305000D02*
X112050000Y-119545000D01*
X118050000Y-119645000D02*
X112050000Y-119645000D01*
X118050000Y-120245000D02*
X112050000Y-120245000D01*
X123420000Y-119925000D02*
X123420000Y-121195000D01*
X120710000Y-118655000D02*
X118050000Y-118655000D01*
X118050000Y-119885000D02*
X112050000Y-119885000D01*
X120710000Y-116055000D02*
X118050000Y-116055000D01*
X121040000Y-119545000D02*
X120710000Y-119545000D01*
X118050000Y-116055000D02*
X118050000Y-121255000D01*
X118050000Y-117765000D02*
X112050000Y-117765000D01*
X121107071Y-117005000D02*
X120710000Y-117005000D01*
X121040000Y-120305000D02*
X120710000Y-120305000D01*
X112050000Y-117765000D02*
X112050000Y-117005000D01*
X121107071Y-117765000D02*
X120710000Y-117765000D01*
%TO.C,C14*%
X165910000Y-124115580D02*
X165910000Y-123834420D01*
X164890000Y-124115580D02*
X164890000Y-123834420D01*
%TO.C,C1*%
X139970580Y-100745000D02*
X139689420Y-100745000D01*
X139970580Y-101765000D02*
X139689420Y-101765000D01*
%TO.C,C2*%
X153289420Y-108065000D02*
X153570580Y-108065000D01*
X153289420Y-107045000D02*
X153570580Y-107045000D01*
%TO.C,C3*%
X152889420Y-101945000D02*
X153170580Y-101945000D01*
X152889420Y-102965000D02*
X153170580Y-102965000D01*
%TO.C,C4*%
X147040000Y-97295580D02*
X147040000Y-97014420D01*
X146020000Y-97295580D02*
X146020000Y-97014420D01*
%TO.C,C5*%
X147540000Y-113614420D02*
X147540000Y-113895580D01*
X146520000Y-113614420D02*
X146520000Y-113895580D01*
%TO.C,C6*%
X139370580Y-107065000D02*
X139089420Y-107065000D01*
X139370580Y-106045000D02*
X139089420Y-106045000D01*
%TO.C,C7*%
X152889420Y-104665000D02*
X153170580Y-104665000D01*
X152889420Y-103645000D02*
X153170580Y-103645000D01*
%TO.C,C8*%
X139970580Y-102845000D02*
X139689420Y-102845000D01*
X139970580Y-103865000D02*
X139689420Y-103865000D01*
%TO.C,C11*%
X144840580Y-128190000D02*
X144559420Y-128190000D01*
X144840580Y-129210000D02*
X144559420Y-129210000D01*
%TO.C,C10*%
X149620000Y-113614420D02*
X149620000Y-113895580D01*
X150640000Y-113614420D02*
X150640000Y-113895580D01*
%TO.C,C12*%
X145240000Y-97295580D02*
X145240000Y-97014420D01*
X144220000Y-97295580D02*
X144220000Y-97014420D01*
%TO.C,C13*%
X153689420Y-97545000D02*
X153970580Y-97545000D01*
X153689420Y-98565000D02*
X153970580Y-98565000D01*
%TO.C,C15*%
X128970580Y-114740000D02*
X128689420Y-114740000D01*
X128970580Y-113720000D02*
X128689420Y-113720000D01*
%TO.C,C16*%
X150569420Y-84670000D02*
X150850580Y-84670000D01*
X150569420Y-85690000D02*
X150850580Y-85690000D01*
%TO.C,C17*%
X132689420Y-113720000D02*
X132970580Y-113720000D01*
X132689420Y-114740000D02*
X132970580Y-114740000D01*
%TO.C,C18*%
X170209420Y-117485000D02*
X170490580Y-117485000D01*
X170209420Y-116465000D02*
X170490580Y-116465000D01*
%TO.C,C20*%
X122840000Y-83164420D02*
X122840000Y-83445580D01*
X121820000Y-83164420D02*
X121820000Y-83445580D01*
%TO.C,C21*%
X138245000Y-114389420D02*
X138245000Y-114670580D01*
X139265000Y-114389420D02*
X139265000Y-114670580D01*
%TO.C,C22*%
X145465000Y-114720580D02*
X145465000Y-114439420D01*
X144445000Y-114720580D02*
X144445000Y-114439420D01*
%TO.C,C23*%
X141789420Y-88165000D02*
X142070580Y-88165000D01*
X141789420Y-87145000D02*
X142070580Y-87145000D01*
%TO.C,C24*%
X141889420Y-81965000D02*
X142170580Y-81965000D01*
X141889420Y-80945000D02*
X142170580Y-80945000D01*
%TO.C,D1*%
X135330000Y-123705000D02*
X132780000Y-123705000D01*
X135330000Y-125405000D02*
X135330000Y-123705000D01*
X135330000Y-125405000D02*
X132780000Y-125405000D01*
%TO.C,D2*%
X138665000Y-122800000D02*
X138665000Y-125085000D01*
X140135000Y-125085000D02*
X140135000Y-122800000D01*
X138665000Y-125085000D02*
X140135000Y-125085000D01*
%TO.C,D3*%
X158300000Y-125450000D02*
X158300000Y-122900000D01*
X160000000Y-125450000D02*
X160000000Y-122900000D01*
X158300000Y-125450000D02*
X160000000Y-125450000D01*
%TO.C,J1*%
X119830000Y-124055000D02*
X119830000Y-133055000D01*
X128830000Y-124055000D02*
X119830000Y-124055000D01*
X128830000Y-133055000D02*
X128830000Y-124055000D01*
X119830000Y-133055000D02*
X128830000Y-133055000D01*
%TO.C,J5*%
X170995000Y-132710000D02*
X170995000Y-133040000D01*
X171755000Y-132710000D02*
X171755000Y-133040000D01*
X165915000Y-141700000D02*
X165915000Y-135700000D01*
X166675000Y-135700000D02*
X166675000Y-141700000D01*
X171215000Y-135700000D02*
X171215000Y-141700000D01*
X171455000Y-135700000D02*
X171455000Y-141700000D01*
X164965000Y-135700000D02*
X172705000Y-135700000D01*
X171695000Y-135700000D02*
X171695000Y-141700000D01*
X166675000Y-141700000D02*
X165915000Y-141700000D01*
X171095000Y-135700000D02*
X171095000Y-141700000D01*
X166675000Y-132642929D02*
X166675000Y-133040000D01*
X170995000Y-141700000D02*
X170995000Y-135700000D01*
X168455000Y-132642929D02*
X168455000Y-133040000D01*
X171575000Y-135700000D02*
X171575000Y-141700000D01*
X165915000Y-132642929D02*
X165915000Y-133040000D01*
X168455000Y-141700000D02*
X168455000Y-135700000D01*
X171335000Y-135700000D02*
X171335000Y-141700000D01*
X169215000Y-135700000D02*
X169215000Y-141700000D01*
X170105000Y-133040000D02*
X170105000Y-135700000D01*
X172705000Y-133040000D02*
X164965000Y-133040000D01*
X171755000Y-135700000D02*
X171755000Y-141700000D01*
X169215000Y-132642929D02*
X169215000Y-133040000D01*
X171375000Y-130330000D02*
X172645000Y-130330000D01*
X172645000Y-130330000D02*
X172645000Y-131600000D01*
X164965000Y-133040000D02*
X164965000Y-135700000D01*
X169215000Y-141700000D02*
X168455000Y-141700000D01*
X172705000Y-135700000D02*
X172705000Y-133040000D01*
X167565000Y-133040000D02*
X167565000Y-135700000D01*
X171755000Y-141700000D02*
X170995000Y-141700000D01*
%TO.C,J3*%
X154285000Y-132642929D02*
X154285000Y-133040000D01*
X154285000Y-135700000D02*
X154285000Y-141700000D01*
X161365000Y-135700000D02*
X161365000Y-141700000D01*
X161905000Y-135700000D02*
X161905000Y-141700000D01*
X159365000Y-135700000D02*
X159365000Y-141700000D01*
X156825000Y-135700000D02*
X156825000Y-141700000D01*
X161905000Y-132710000D02*
X161905000Y-133040000D01*
X155175000Y-133040000D02*
X155175000Y-135700000D01*
X161245000Y-135700000D02*
X161245000Y-141700000D01*
X160255000Y-133040000D02*
X160255000Y-135700000D01*
X159365000Y-141700000D02*
X158605000Y-141700000D01*
X152575000Y-135700000D02*
X162855000Y-135700000D01*
X161905000Y-141700000D02*
X161145000Y-141700000D01*
X156065000Y-141700000D02*
X156065000Y-135700000D01*
X159365000Y-132642929D02*
X159365000Y-133040000D01*
X161145000Y-132710000D02*
X161145000Y-133040000D01*
X153525000Y-132642929D02*
X153525000Y-133040000D01*
X154285000Y-141700000D02*
X153525000Y-141700000D01*
X157715000Y-133040000D02*
X157715000Y-135700000D01*
X162855000Y-133040000D02*
X152575000Y-133040000D01*
X156825000Y-132642929D02*
X156825000Y-133040000D01*
X158605000Y-132642929D02*
X158605000Y-133040000D01*
X153525000Y-141700000D02*
X153525000Y-135700000D01*
X158605000Y-141700000D02*
X158605000Y-135700000D01*
X161845000Y-135700000D02*
X161845000Y-141700000D01*
X161605000Y-135700000D02*
X161605000Y-141700000D01*
X162795000Y-130330000D02*
X162795000Y-131600000D01*
X156825000Y-141700000D02*
X156065000Y-141700000D01*
X161725000Y-135700000D02*
X161725000Y-141700000D01*
X162855000Y-135700000D02*
X162855000Y-133040000D01*
X152575000Y-133040000D02*
X152575000Y-135700000D01*
X161525000Y-130330000D02*
X162795000Y-130330000D01*
X161145000Y-141700000D02*
X161145000Y-135700000D01*
X161485000Y-135700000D02*
X161485000Y-141700000D01*
X156065000Y-132642929D02*
X156065000Y-133040000D01*
%TO.C,J7*%
X163945000Y-113735000D02*
X164010000Y-113735000D01*
X157540000Y-113735000D02*
X157605000Y-113735000D01*
X163945000Y-117265000D02*
X164010000Y-117265000D01*
X164010000Y-117265000D02*
X164010000Y-113735000D01*
X157605000Y-118590000D02*
X157605000Y-117265000D01*
X157540000Y-117265000D02*
X157540000Y-113735000D01*
X157540000Y-117265000D02*
X157605000Y-117265000D01*
%TO.C,L1*%
X140820000Y-84917779D02*
X140820000Y-84592221D01*
X141840000Y-84917779D02*
X141840000Y-84592221D01*
%TO.C,Q1*%
X151650000Y-126560000D02*
X151000000Y-126560000D01*
X151650000Y-126560000D02*
X153325000Y-126560000D01*
X151650000Y-123440000D02*
X151000000Y-123440000D01*
X151650000Y-123440000D02*
X152300000Y-123440000D01*
%TO.C,Q2*%
X166390000Y-92555000D02*
X166390000Y-93205000D01*
X163270000Y-92555000D02*
X163270000Y-94230000D01*
X163270000Y-92555000D02*
X163270000Y-91905000D01*
X166390000Y-92555000D02*
X166390000Y-91905000D01*
%TO.C,R1*%
X141922500Y-123362742D02*
X141922500Y-123837258D01*
X140877500Y-123362742D02*
X140877500Y-123837258D01*
%TO.C,R7*%
X157992742Y-88832500D02*
X158467258Y-88832500D01*
X157992742Y-89877500D02*
X158467258Y-89877500D01*
%TO.C,R8*%
X162792500Y-81447258D02*
X162792500Y-80972742D01*
X161747500Y-81447258D02*
X161747500Y-80972742D01*
%TO.C,R9*%
X161787742Y-122197500D02*
X162262258Y-122197500D01*
X161787742Y-121152500D02*
X162262258Y-121152500D01*
%TO.C,R11*%
X130692742Y-105007500D02*
X131167258Y-105007500D01*
X130692742Y-106052500D02*
X131167258Y-106052500D01*
%TO.C,R12*%
X130692742Y-108152500D02*
X131167258Y-108152500D01*
X130692742Y-107107500D02*
X131167258Y-107107500D01*
%TO.C,R13*%
X128007500Y-96617742D02*
X128007500Y-97092258D01*
X129052500Y-96617742D02*
X129052500Y-97092258D01*
%TO.C,R14*%
X172367258Y-104677500D02*
X171892742Y-104677500D01*
X172367258Y-103632500D02*
X171892742Y-103632500D01*
%TO.C,R15*%
X130872500Y-97687742D02*
X130872500Y-98162258D01*
X129827500Y-97687742D02*
X129827500Y-98162258D01*
%TO.C,R16*%
X172367258Y-107277500D02*
X171892742Y-107277500D01*
X172367258Y-106232500D02*
X171892742Y-106232500D01*
%TO.C,R17*%
X133507500Y-72692258D02*
X133507500Y-72217742D01*
X134552500Y-72692258D02*
X134552500Y-72217742D01*
%TO.C,SW1*%
X165770000Y-75970000D02*
X165770000Y-75940000D01*
X165770000Y-69510000D02*
X165770000Y-69540000D01*
X172230000Y-69510000D02*
X165770000Y-69510000D01*
X172230000Y-69510000D02*
X172230000Y-69540000D01*
X172230000Y-75940000D02*
X172230000Y-75970000D01*
X165770000Y-74040000D02*
X165770000Y-71440000D01*
X172230000Y-75970000D02*
X165770000Y-75970000D01*
X172230000Y-74040000D02*
X172230000Y-71440000D01*
%TO.C,SW2*%
X174060000Y-99285000D02*
X174030000Y-99285000D01*
X172130000Y-92825000D02*
X169530000Y-92825000D01*
X172130000Y-99285000D02*
X169530000Y-99285000D01*
X167600000Y-92825000D02*
X167630000Y-92825000D01*
X174030000Y-92825000D02*
X174060000Y-92825000D01*
X167600000Y-99285000D02*
X167630000Y-99285000D01*
X174060000Y-92825000D02*
X174060000Y-99285000D01*
X167600000Y-92825000D02*
X167600000Y-99285000D01*
%TO.C,SW3*%
X129460000Y-73555000D02*
X129460000Y-70955000D01*
X123000000Y-69025000D02*
X123000000Y-69055000D01*
X129460000Y-75485000D02*
X123000000Y-75485000D01*
X123000000Y-73555000D02*
X123000000Y-70955000D01*
X129460000Y-69025000D02*
X123000000Y-69025000D01*
X123000000Y-75485000D02*
X123000000Y-75455000D01*
X129460000Y-75455000D02*
X129460000Y-75485000D01*
X129460000Y-69025000D02*
X129460000Y-69055000D01*
D13*
%TO.C,U1*%
X142455000Y-103455000D02*
G75*
G03*
X142455000Y-103455000I-100000J0D01*
G01*
D14*
X150330000Y-102555000D02*
X150330000Y-103035000D01*
X150330000Y-109555000D02*
X150330000Y-109075000D01*
X150330000Y-109555000D02*
X149850000Y-109555000D01*
X143330000Y-102555000D02*
X143810000Y-102555000D01*
X150330000Y-102555000D02*
X149850000Y-102555000D01*
X143330000Y-109555000D02*
X143810000Y-109555000D01*
X143330000Y-109555000D02*
X143330000Y-109075000D01*
X143330000Y-102555000D02*
X143330000Y-103035000D01*
D10*
%TO.C,U2*%
X143140000Y-125100000D02*
X143140000Y-126900000D01*
X146260000Y-125100000D02*
X146260000Y-125900000D01*
X146260000Y-125100000D02*
X146260000Y-124300000D01*
X143140000Y-125100000D02*
X143140000Y-124300000D01*
%TO.C,U3*%
X151330000Y-92780000D02*
X154055000Y-92780000D01*
X154055000Y-87330000D02*
X154055000Y-87590000D01*
X154055000Y-92520000D02*
X155730000Y-92520000D01*
X154055000Y-92780000D02*
X154055000Y-92520000D01*
X148605000Y-87330000D02*
X148605000Y-87590000D01*
X151330000Y-87330000D02*
X154055000Y-87330000D01*
X151330000Y-87330000D02*
X148605000Y-87330000D01*
X148605000Y-92780000D02*
X148605000Y-92520000D01*
X151330000Y-92780000D02*
X148605000Y-92780000D01*
D15*
%TO.C,U4*%
X129530000Y-109880000D02*
X129530000Y-109630000D01*
X129530000Y-112430000D02*
X129530000Y-112280000D01*
X132230000Y-109730000D02*
X132230000Y-109880000D01*
X132230000Y-112430000D02*
X132080000Y-112430000D01*
X132080000Y-109730000D02*
X132230000Y-109730000D01*
X129530000Y-112440000D02*
X129680000Y-112440000D01*
X132230000Y-112430000D02*
X132230000Y-112280000D01*
D11*
%TO.C,U6*%
X125012353Y-81095000D02*
G75*
G03*
X125012353Y-81095000I-362353J0D01*
G01*
X137630000Y-92255000D02*
X125630000Y-92255000D01*
X125630000Y-80255000D02*
X137630000Y-80255000D01*
X137630000Y-80255000D02*
X137630000Y-92255000D01*
X125630000Y-92255000D02*
X125630000Y-80255000D01*
D10*
%TO.C,U7*%
X166670000Y-105255000D02*
X166670000Y-107055000D01*
X166670000Y-105255000D02*
X166670000Y-104455000D01*
X169790000Y-105255000D02*
X169790000Y-106055000D01*
X169790000Y-105255000D02*
X169790000Y-104455000D01*
%TO.C,Y1*%
X140480000Y-114555000D02*
X140480000Y-115695000D01*
%TO.C,J8*%
X147580000Y-74765000D02*
X147330000Y-74265000D01*
X147080000Y-74765000D02*
X147580000Y-74765000D01*
X147330000Y-74265000D02*
X147080000Y-74765000D01*
%TO.C,JP1*%
X143130000Y-119355000D02*
G75*
G03*
X143830000Y-118655000I1J699999D01*
G01*
X141030000Y-118655000D02*
G75*
G03*
X141730000Y-119355000I699999J-1D01*
G01*
X141730000Y-117355000D02*
G75*
G03*
X141030000Y-118055000I-1J-699999D01*
G01*
X143830000Y-118055000D02*
G75*
G03*
X143130000Y-117355000I-699999J1D01*
G01*
X141730000Y-117355000D02*
X143130000Y-117355000D01*
X143130000Y-119355000D02*
X141730000Y-119355000D01*
X141030000Y-118655000D02*
X141030000Y-118055000D01*
X143830000Y-118055000D02*
X143830000Y-118655000D01*
%TO.C,TP3*%
X135600000Y-129800000D02*
G75*
G03*
X135600000Y-129800000I-1500000J0D01*
G01*
%TO.C,TP1*%
X149030000Y-118355000D02*
G75*
G03*
X149030000Y-118355000I-1500000J0D01*
G01*
%TO.C,TP6*%
X136730000Y-98555000D02*
G75*
G03*
X136730000Y-98555000I-1500000J0D01*
G01*
%TO.C,TP7*%
X131930000Y-101755000D02*
G75*
G03*
X131930000Y-101755000I-1500000J0D01*
G01*
%TO.C,C19*%
X145040580Y-121465000D02*
X144759420Y-121465000D01*
X145040580Y-122485000D02*
X144759420Y-122485000D01*
%TO.C,TP2*%
X160430000Y-95555000D02*
G75*
G03*
X160430000Y-95555000I-1500000J0D01*
G01*
%TO.C,J6*%
X171490000Y-90200000D02*
X174150000Y-90200000D01*
X171490000Y-79920000D02*
X172820000Y-79920000D01*
X174150000Y-82520000D02*
X174150000Y-90200000D01*
X171490000Y-81250000D02*
X171490000Y-79920000D01*
X171490000Y-82520000D02*
X174150000Y-82520000D01*
X171490000Y-82520000D02*
X171490000Y-90200000D01*
%TO.C,R5*%
X140262742Y-125777500D02*
X140737258Y-125777500D01*
X140262742Y-126822500D02*
X140737258Y-126822500D01*
%TO.C,R3*%
X150752500Y-97392258D02*
X150752500Y-96917742D01*
X149707500Y-97392258D02*
X149707500Y-96917742D01*
%TO.C,U5*%
X171885000Y-121025000D02*
X171885000Y-120225000D01*
X168765000Y-121025000D02*
X168765000Y-120225000D01*
X168765000Y-121025000D02*
X168765000Y-122825000D01*
X171885000Y-121025000D02*
X171885000Y-121825000D01*
%TO.C,C9*%
X152889420Y-100245000D02*
X153170580Y-100245000D01*
X152889420Y-101265000D02*
X153170580Y-101265000D01*
%TO.C,R6*%
X157992742Y-87377500D02*
X158467258Y-87377500D01*
X157992742Y-86332500D02*
X158467258Y-86332500D01*
%TO.C,R4*%
X147907500Y-97392258D02*
X147907500Y-96917742D01*
X148952500Y-97392258D02*
X148952500Y-96917742D01*
%TO.C,J2*%
X157030000Y-82470000D02*
X157030000Y-85130000D01*
X159630000Y-83800000D02*
X159630000Y-85130000D01*
X157030000Y-85130000D02*
X154430000Y-85130000D01*
X159630000Y-85130000D02*
X158300000Y-85130000D01*
X154430000Y-82470000D02*
X154430000Y-85130000D01*
X157030000Y-82470000D02*
X154430000Y-82470000D01*
%TD*%
M02*
