%TF.GenerationSoftware,KiCad,Pcbnew,6.0.2-378541a8eb~116~ubuntu20.04.1*%
%TF.CreationDate,2022-02-16T00:31:37-08:00*%
%TF.ProjectId,RP2040_WEDS,52503230-3430-45f5-9745-44532e6b6963,rev?*%
%TF.SameCoordinates,Original*%
%TF.FileFunction,Legend,Bot*%
%TF.FilePolarity,Positive*%
%FSLAX46Y46*%
G04 Gerber Fmt 4.6, Leading zero omitted, Abs format (unit mm)*
G04 Created by KiCad (PCBNEW 6.0.2-378541a8eb~116~ubuntu20.04.1) date 2022-02-16 00:31:37*
%MOMM*%
%LPD*%
G01*
G04 APERTURE LIST*
%ADD10C,0.150000*%
G04 APERTURE END LIST*
D10*
X202438095Y-41452380D02*
X202200000Y-42452380D01*
X202009523Y-41738095D01*
X201819047Y-42452380D01*
X201580952Y-41452380D01*
X201200000Y-42452380D02*
X201200000Y-41785714D01*
X201200000Y-41452380D02*
X201247619Y-41500000D01*
X201200000Y-41547619D01*
X201152380Y-41500000D01*
X201200000Y-41452380D01*
X201200000Y-41547619D01*
X200580952Y-42452380D02*
X200676190Y-42404761D01*
X200723809Y-42309523D01*
X200723809Y-41452380D01*
X199771428Y-42452380D02*
X199771428Y-41452380D01*
X199771428Y-42404761D02*
X199866666Y-42452380D01*
X200057142Y-42452380D01*
X200152380Y-42404761D01*
X200200000Y-42357142D01*
X200247619Y-42261904D01*
X200247619Y-41976190D01*
X200200000Y-41880952D01*
X200152380Y-41833333D01*
X200057142Y-41785714D01*
X199866666Y-41785714D01*
X199771428Y-41833333D01*
X199295238Y-41928571D02*
X198961904Y-41928571D01*
X198819047Y-42452380D02*
X199295238Y-42452380D01*
X199295238Y-41452380D01*
X198819047Y-41452380D01*
X198390476Y-42452380D02*
X198390476Y-41452380D01*
X198152380Y-41452380D01*
X198009523Y-41500000D01*
X197914285Y-41595238D01*
X197866666Y-41690476D01*
X197819047Y-41880952D01*
X197819047Y-42023809D01*
X197866666Y-42214285D01*
X197914285Y-42309523D01*
X198009523Y-42404761D01*
X198152380Y-42452380D01*
X198390476Y-42452380D01*
X197438095Y-42404761D02*
X197295238Y-42452380D01*
X197057142Y-42452380D01*
X196961904Y-42404761D01*
X196914285Y-42357142D01*
X196866666Y-42261904D01*
X196866666Y-42166666D01*
X196914285Y-42071428D01*
X196961904Y-42023809D01*
X197057142Y-41976190D01*
X197247619Y-41928571D01*
X197342857Y-41880952D01*
X197390476Y-41833333D01*
X197438095Y-41738095D01*
X197438095Y-41642857D01*
X197390476Y-41547619D01*
X197342857Y-41500000D01*
X197247619Y-41452380D01*
X197009523Y-41452380D01*
X196866666Y-41500000D01*
X195771428Y-41785714D02*
X195533333Y-42452380D01*
X195295238Y-41785714D01*
X194390476Y-42452380D02*
X194961904Y-42452380D01*
X194676190Y-42452380D02*
X194676190Y-41452380D01*
X194771428Y-41595238D01*
X194866666Y-41690476D01*
X194961904Y-41738095D01*
X193961904Y-42357142D02*
X193914285Y-42404761D01*
X193961904Y-42452380D01*
X194009523Y-42404761D01*
X193961904Y-42357142D01*
X193961904Y-42452380D01*
X193295238Y-41452380D02*
X193200000Y-41452380D01*
X193104761Y-41500000D01*
X193057142Y-41547619D01*
X193009523Y-41642857D01*
X192961904Y-41833333D01*
X192961904Y-42071428D01*
X193009523Y-42261904D01*
X193057142Y-42357142D01*
X193104761Y-42404761D01*
X193200000Y-42452380D01*
X193295238Y-42452380D01*
X193390476Y-42404761D01*
X193438095Y-42357142D01*
X193485714Y-42261904D01*
X193533333Y-42071428D01*
X193533333Y-41833333D01*
X193485714Y-41642857D01*
X193438095Y-41547619D01*
X193390476Y-41500000D01*
X193295238Y-41452380D01*
X192342857Y-41452380D02*
X192247619Y-41452380D01*
X192152380Y-41500000D01*
X192104761Y-41547619D01*
X192057142Y-41642857D01*
X192009523Y-41833333D01*
X192009523Y-42071428D01*
X192057142Y-42261904D01*
X192104761Y-42357142D01*
X192152380Y-42404761D01*
X192247619Y-42452380D01*
X192342857Y-42452380D01*
X192438095Y-42404761D01*
X192485714Y-42357142D01*
X192533333Y-42261904D01*
X192580952Y-42071428D01*
X192580952Y-41833333D01*
X192533333Y-41642857D01*
X192485714Y-41547619D01*
X192438095Y-41500000D01*
X192342857Y-41452380D01*
X202009523Y-44047380D02*
X202009523Y-44761666D01*
X202057142Y-44904523D01*
X202152380Y-44999761D01*
X202295238Y-45047380D01*
X202390476Y-45047380D01*
X201390476Y-45047380D02*
X201485714Y-44999761D01*
X201533333Y-44952142D01*
X201580952Y-44856904D01*
X201580952Y-44571190D01*
X201533333Y-44475952D01*
X201485714Y-44428333D01*
X201390476Y-44380714D01*
X201247619Y-44380714D01*
X201152380Y-44428333D01*
X201104761Y-44475952D01*
X201057142Y-44571190D01*
X201057142Y-44856904D01*
X201104761Y-44952142D01*
X201152380Y-44999761D01*
X201247619Y-45047380D01*
X201390476Y-45047380D01*
X200676190Y-44999761D02*
X200580952Y-45047380D01*
X200390476Y-45047380D01*
X200295238Y-44999761D01*
X200247619Y-44904523D01*
X200247619Y-44856904D01*
X200295238Y-44761666D01*
X200390476Y-44714047D01*
X200533333Y-44714047D01*
X200628571Y-44666428D01*
X200676190Y-44571190D01*
X200676190Y-44523571D01*
X200628571Y-44428333D01*
X200533333Y-44380714D01*
X200390476Y-44380714D01*
X200295238Y-44428333D01*
X199866666Y-44999761D02*
X199771428Y-45047380D01*
X199580952Y-45047380D01*
X199485714Y-44999761D01*
X199438095Y-44904523D01*
X199438095Y-44856904D01*
X199485714Y-44761666D01*
X199580952Y-44714047D01*
X199723809Y-44714047D01*
X199819047Y-44666428D01*
X199866666Y-44571190D01*
X199866666Y-44523571D01*
X199819047Y-44428333D01*
X199723809Y-44380714D01*
X199580952Y-44380714D01*
X199485714Y-44428333D01*
X197676190Y-44952142D02*
X197723809Y-44999761D01*
X197866666Y-45047380D01*
X197961904Y-45047380D01*
X198104761Y-44999761D01*
X198200000Y-44904523D01*
X198247619Y-44809285D01*
X198295238Y-44618809D01*
X198295238Y-44475952D01*
X198247619Y-44285476D01*
X198200000Y-44190238D01*
X198104761Y-44095000D01*
X197961904Y-44047380D01*
X197866666Y-44047380D01*
X197723809Y-44095000D01*
X197676190Y-44142619D01*
X197247619Y-45047380D02*
X197247619Y-44047380D01*
X196819047Y-45047380D02*
X196819047Y-44523571D01*
X196866666Y-44428333D01*
X196961904Y-44380714D01*
X197104761Y-44380714D01*
X197200000Y-44428333D01*
X197247619Y-44475952D01*
X195914285Y-45047380D02*
X195914285Y-44523571D01*
X195961904Y-44428333D01*
X196057142Y-44380714D01*
X196247619Y-44380714D01*
X196342857Y-44428333D01*
X195914285Y-44999761D02*
X196009523Y-45047380D01*
X196247619Y-45047380D01*
X196342857Y-44999761D01*
X196390476Y-44904523D01*
X196390476Y-44809285D01*
X196342857Y-44714047D01*
X196247619Y-44666428D01*
X196009523Y-44666428D01*
X195914285Y-44618809D01*
X195438095Y-44380714D02*
X195438095Y-45047380D01*
X195438095Y-44475952D02*
X195390476Y-44428333D01*
X195295238Y-44380714D01*
X195152380Y-44380714D01*
X195057142Y-44428333D01*
X195009523Y-44523571D01*
X195009523Y-45047380D01*
X194104761Y-45047380D02*
X194104761Y-44047380D01*
X194104761Y-44999761D02*
X194200000Y-45047380D01*
X194390476Y-45047380D01*
X194485714Y-44999761D01*
X194533333Y-44952142D01*
X194580952Y-44856904D01*
X194580952Y-44571190D01*
X194533333Y-44475952D01*
X194485714Y-44428333D01*
X194390476Y-44380714D01*
X194200000Y-44380714D01*
X194104761Y-44428333D01*
X193485714Y-45047380D02*
X193580952Y-44999761D01*
X193628571Y-44904523D01*
X193628571Y-44047380D01*
X192723809Y-44999761D02*
X192819047Y-45047380D01*
X193009523Y-45047380D01*
X193104761Y-44999761D01*
X193152380Y-44904523D01*
X193152380Y-44523571D01*
X193104761Y-44428333D01*
X193009523Y-44380714D01*
X192819047Y-44380714D01*
X192723809Y-44428333D01*
X192676190Y-44523571D01*
X192676190Y-44618809D01*
X193152380Y-44714047D01*
X192247619Y-45047380D02*
X192247619Y-44380714D01*
X192247619Y-44571190D02*
X192200000Y-44475952D01*
X192152380Y-44428333D01*
X192057142Y-44380714D01*
X191961904Y-44380714D01*
X202295238Y-46133571D02*
X202152380Y-46181190D01*
X202104761Y-46228809D01*
X202057142Y-46324047D01*
X202057142Y-46466904D01*
X202104761Y-46562142D01*
X202152380Y-46609761D01*
X202247619Y-46657380D01*
X202628571Y-46657380D01*
X202628571Y-45657380D01*
X202295238Y-45657380D01*
X202200000Y-45705000D01*
X202152380Y-45752619D01*
X202104761Y-45847857D01*
X202104761Y-45943095D01*
X202152380Y-46038333D01*
X202200000Y-46085952D01*
X202295238Y-46133571D01*
X202628571Y-46133571D01*
X201200000Y-46657380D02*
X201200000Y-46133571D01*
X201247619Y-46038333D01*
X201342857Y-45990714D01*
X201533333Y-45990714D01*
X201628571Y-46038333D01*
X201200000Y-46609761D02*
X201295238Y-46657380D01*
X201533333Y-46657380D01*
X201628571Y-46609761D01*
X201676190Y-46514523D01*
X201676190Y-46419285D01*
X201628571Y-46324047D01*
X201533333Y-46276428D01*
X201295238Y-46276428D01*
X201200000Y-46228809D01*
X200580952Y-46657380D02*
X200676190Y-46609761D01*
X200723809Y-46514523D01*
X200723809Y-45657380D01*
X199771428Y-46657380D02*
X199771428Y-45657380D01*
X199771428Y-46609761D02*
X199866666Y-46657380D01*
X200057142Y-46657380D01*
X200152380Y-46609761D01*
X200200000Y-46562142D01*
X200247619Y-46466904D01*
X200247619Y-46181190D01*
X200200000Y-46085952D01*
X200152380Y-46038333D01*
X200057142Y-45990714D01*
X199866666Y-45990714D01*
X199771428Y-46038333D01*
X198914285Y-46609761D02*
X199009523Y-46657380D01*
X199200000Y-46657380D01*
X199295238Y-46609761D01*
X199342857Y-46514523D01*
X199342857Y-46133571D01*
X199295238Y-46038333D01*
X199200000Y-45990714D01*
X199009523Y-45990714D01*
X198914285Y-46038333D01*
X198866666Y-46133571D01*
X198866666Y-46228809D01*
X199342857Y-46324047D01*
X198057142Y-46609761D02*
X198152380Y-46657380D01*
X198342857Y-46657380D01*
X198438095Y-46609761D01*
X198485714Y-46514523D01*
X198485714Y-46133571D01*
X198438095Y-46038333D01*
X198342857Y-45990714D01*
X198152380Y-45990714D01*
X198057142Y-46038333D01*
X198009523Y-46133571D01*
X198009523Y-46228809D01*
X198485714Y-46324047D01*
X197580952Y-45990714D02*
X197580952Y-46990714D01*
X197580952Y-46038333D02*
X197485714Y-45990714D01*
X197295238Y-45990714D01*
X197200000Y-46038333D01*
X197152380Y-46085952D01*
X197104761Y-46181190D01*
X197104761Y-46466904D01*
X197152380Y-46562142D01*
X197200000Y-46609761D01*
X197295238Y-46657380D01*
X197485714Y-46657380D01*
X197580952Y-46609761D01*
X195914285Y-46657380D02*
X195914285Y-45657380D01*
X195533333Y-45657380D01*
X195438095Y-45705000D01*
X195390476Y-45752619D01*
X195342857Y-45847857D01*
X195342857Y-45990714D01*
X195390476Y-46085952D01*
X195438095Y-46133571D01*
X195533333Y-46181190D01*
X195914285Y-46181190D01*
X194485714Y-46657380D02*
X194485714Y-46133571D01*
X194533333Y-46038333D01*
X194628571Y-45990714D01*
X194819047Y-45990714D01*
X194914285Y-46038333D01*
X194485714Y-46609761D02*
X194580952Y-46657380D01*
X194819047Y-46657380D01*
X194914285Y-46609761D01*
X194961904Y-46514523D01*
X194961904Y-46419285D01*
X194914285Y-46324047D01*
X194819047Y-46276428D01*
X194580952Y-46276428D01*
X194485714Y-46228809D01*
X194009523Y-45990714D02*
X194009523Y-46657380D01*
X194009523Y-46085952D02*
X193961904Y-46038333D01*
X193866666Y-45990714D01*
X193723809Y-45990714D01*
X193628571Y-46038333D01*
X193580952Y-46133571D01*
X193580952Y-46657380D01*
X193104761Y-45990714D02*
X193104761Y-46657380D01*
X193104761Y-46085952D02*
X193057142Y-46038333D01*
X192961904Y-45990714D01*
X192819047Y-45990714D01*
X192723809Y-46038333D01*
X192676190Y-46133571D01*
X192676190Y-46657380D01*
X191771428Y-45990714D02*
X191771428Y-46657380D01*
X192200000Y-45990714D02*
X192200000Y-46514523D01*
X192152380Y-46609761D01*
X192057142Y-46657380D01*
X191914285Y-46657380D01*
X191819047Y-46609761D01*
X191771428Y-46562142D01*
X202904761Y-47852380D02*
X202666666Y-48852380D01*
X202476190Y-48138095D01*
X202285714Y-48852380D01*
X202047619Y-47852380D01*
X201285714Y-48804761D02*
X201380952Y-48852380D01*
X201571428Y-48852380D01*
X201666666Y-48804761D01*
X201714285Y-48709523D01*
X201714285Y-48328571D01*
X201666666Y-48233333D01*
X201571428Y-48185714D01*
X201380952Y-48185714D01*
X201285714Y-48233333D01*
X201238095Y-48328571D01*
X201238095Y-48423809D01*
X201714285Y-48519047D01*
X200857142Y-48804761D02*
X200761904Y-48852380D01*
X200571428Y-48852380D01*
X200476190Y-48804761D01*
X200428571Y-48709523D01*
X200428571Y-48661904D01*
X200476190Y-48566666D01*
X200571428Y-48519047D01*
X200714285Y-48519047D01*
X200809523Y-48471428D01*
X200857142Y-48376190D01*
X200857142Y-48328571D01*
X200809523Y-48233333D01*
X200714285Y-48185714D01*
X200571428Y-48185714D01*
X200476190Y-48233333D01*
X200142857Y-48185714D02*
X199761904Y-48185714D01*
X200000000Y-47852380D02*
X200000000Y-48709523D01*
X199952380Y-48804761D01*
X199857142Y-48852380D01*
X199761904Y-48852380D01*
X199047619Y-48804761D02*
X199142857Y-48852380D01*
X199333333Y-48852380D01*
X199428571Y-48804761D01*
X199476190Y-48709523D01*
X199476190Y-48328571D01*
X199428571Y-48233333D01*
X199333333Y-48185714D01*
X199142857Y-48185714D01*
X199047619Y-48233333D01*
X199000000Y-48328571D01*
X199000000Y-48423809D01*
X199476190Y-48519047D01*
X198571428Y-48852380D02*
X198571428Y-48185714D01*
X198571428Y-48376190D02*
X198523809Y-48280952D01*
X198476190Y-48233333D01*
X198380952Y-48185714D01*
X198285714Y-48185714D01*
X197952380Y-48185714D02*
X197952380Y-48852380D01*
X197952380Y-48280952D02*
X197904761Y-48233333D01*
X197809523Y-48185714D01*
X197666666Y-48185714D01*
X197571428Y-48233333D01*
X197523809Y-48328571D01*
X197523809Y-48852380D01*
X196380952Y-47852380D02*
X196142857Y-48852380D01*
X195952380Y-48138095D01*
X195761904Y-48852380D01*
X195523809Y-47852380D01*
X194714285Y-48852380D02*
X194714285Y-48328571D01*
X194761904Y-48233333D01*
X194857142Y-48185714D01*
X195047619Y-48185714D01*
X195142857Y-48233333D01*
X194714285Y-48804761D02*
X194809523Y-48852380D01*
X195047619Y-48852380D01*
X195142857Y-48804761D01*
X195190476Y-48709523D01*
X195190476Y-48614285D01*
X195142857Y-48519047D01*
X195047619Y-48471428D01*
X194809523Y-48471428D01*
X194714285Y-48423809D01*
X194285714Y-48804761D02*
X194190476Y-48852380D01*
X194000000Y-48852380D01*
X193904761Y-48804761D01*
X193857142Y-48709523D01*
X193857142Y-48661904D01*
X193904761Y-48566666D01*
X194000000Y-48519047D01*
X194142857Y-48519047D01*
X194238095Y-48471428D01*
X194285714Y-48376190D01*
X194285714Y-48328571D01*
X194238095Y-48233333D01*
X194142857Y-48185714D01*
X194000000Y-48185714D01*
X193904761Y-48233333D01*
X193428571Y-48852380D02*
X193428571Y-47852380D01*
X193000000Y-48852380D02*
X193000000Y-48328571D01*
X193047619Y-48233333D01*
X193142857Y-48185714D01*
X193285714Y-48185714D01*
X193380952Y-48233333D01*
X193428571Y-48280952D01*
X192523809Y-48852380D02*
X192523809Y-48185714D01*
X192523809Y-47852380D02*
X192571428Y-47900000D01*
X192523809Y-47947619D01*
X192476190Y-47900000D01*
X192523809Y-47852380D01*
X192523809Y-47947619D01*
X192047619Y-48185714D02*
X192047619Y-48852380D01*
X192047619Y-48280952D02*
X192000000Y-48233333D01*
X191904761Y-48185714D01*
X191761904Y-48185714D01*
X191666666Y-48233333D01*
X191619047Y-48328571D01*
X191619047Y-48852380D01*
X191285714Y-48185714D02*
X190904761Y-48185714D01*
X191142857Y-47852380D02*
X191142857Y-48709523D01*
X191095238Y-48804761D01*
X191000000Y-48852380D01*
X190904761Y-48852380D01*
X190428571Y-48852380D02*
X190523809Y-48804761D01*
X190571428Y-48757142D01*
X190619047Y-48661904D01*
X190619047Y-48376190D01*
X190571428Y-48280952D01*
X190523809Y-48233333D01*
X190428571Y-48185714D01*
X190285714Y-48185714D01*
X190190476Y-48233333D01*
X190142857Y-48280952D01*
X190095238Y-48376190D01*
X190095238Y-48661904D01*
X190142857Y-48757142D01*
X190190476Y-48804761D01*
X190285714Y-48852380D01*
X190428571Y-48852380D01*
X189666666Y-48185714D02*
X189666666Y-48852380D01*
X189666666Y-48280952D02*
X189619047Y-48233333D01*
X189523809Y-48185714D01*
X189380952Y-48185714D01*
X189285714Y-48233333D01*
X189238095Y-48328571D01*
X189238095Y-48852380D01*
X188000000Y-47852380D02*
X188000000Y-48661904D01*
X187952380Y-48757142D01*
X187904761Y-48804761D01*
X187809523Y-48852380D01*
X187619047Y-48852380D01*
X187523809Y-48804761D01*
X187476190Y-48757142D01*
X187428571Y-48661904D01*
X187428571Y-47852380D01*
X186952380Y-48185714D02*
X186952380Y-48852380D01*
X186952380Y-48280952D02*
X186904761Y-48233333D01*
X186809523Y-48185714D01*
X186666666Y-48185714D01*
X186571428Y-48233333D01*
X186523809Y-48328571D01*
X186523809Y-48852380D01*
X186047619Y-48852380D02*
X186047619Y-48185714D01*
X186047619Y-47852380D02*
X186095238Y-47900000D01*
X186047619Y-47947619D01*
X186000000Y-47900000D01*
X186047619Y-47852380D01*
X186047619Y-47947619D01*
X185666666Y-48185714D02*
X185428571Y-48852380D01*
X185190476Y-48185714D01*
X184428571Y-48804761D02*
X184523809Y-48852380D01*
X184714285Y-48852380D01*
X184809523Y-48804761D01*
X184857142Y-48709523D01*
X184857142Y-48328571D01*
X184809523Y-48233333D01*
X184714285Y-48185714D01*
X184523809Y-48185714D01*
X184428571Y-48233333D01*
X184380952Y-48328571D01*
X184380952Y-48423809D01*
X184857142Y-48519047D01*
X183952380Y-48852380D02*
X183952380Y-48185714D01*
X183952380Y-48376190D02*
X183904761Y-48280952D01*
X183857142Y-48233333D01*
X183761904Y-48185714D01*
X183666666Y-48185714D01*
X183380952Y-48804761D02*
X183285714Y-48852380D01*
X183095238Y-48852380D01*
X183000000Y-48804761D01*
X182952380Y-48709523D01*
X182952380Y-48661904D01*
X183000000Y-48566666D01*
X183095238Y-48519047D01*
X183238095Y-48519047D01*
X183333333Y-48471428D01*
X183380952Y-48376190D01*
X183380952Y-48328571D01*
X183333333Y-48233333D01*
X183238095Y-48185714D01*
X183095238Y-48185714D01*
X183000000Y-48233333D01*
X182523809Y-48852380D02*
X182523809Y-48185714D01*
X182523809Y-47852380D02*
X182571428Y-47900000D01*
X182523809Y-47947619D01*
X182476190Y-47900000D01*
X182523809Y-47852380D01*
X182523809Y-47947619D01*
X182190476Y-48185714D02*
X181809523Y-48185714D01*
X182047619Y-47852380D02*
X182047619Y-48709523D01*
X182000000Y-48804761D01*
X181904761Y-48852380D01*
X181809523Y-48852380D01*
X181571428Y-48185714D02*
X181333333Y-48852380D01*
X181095238Y-48185714D02*
X181333333Y-48852380D01*
X181428571Y-49090476D01*
X181476190Y-49138095D01*
X181571428Y-49185714D01*
M02*
