M48
; DRILL file {KiCad (6.0.2)} date Mon Feb 14 15:02:11 2022
; FORMAT={-:-/ absolute / inch / decimal}
; #@! TF.CreationDate,2022-02-14T15:02:11-08:00
; #@! TF.GenerationSoftware,Kicad,Pcbnew,(6.0.2)
; #@! TF.FileFunction,Plated,1,2,PTH
FMAT,2
INCH
; #@! TA.AperFunction,Plated,PTH,ViaDrill
T1C0.0157
; #@! TA.AperFunction,Plated,PTH,ComponentDrill
T2C0.0236
; #@! TA.AperFunction,Plated,PTH,ComponentDrill
T3C0.0256
; #@! TA.AperFunction,Plated,PTH,ComponentDrill
T4C0.0394
; #@! TA.AperFunction,Plated,PTH,ComponentDrill
T5C0.0512
%
G90
G05
T1
X6.0157Y-2.5276
X6.1417Y-2.563
X6.1496Y-2.0866
X6.1654Y-2.3031
X6.1732Y-3.3583
X6.2598Y-3.3022
X6.311Y-2.8071
X6.3425Y-3.3494
X6.374Y-3.2274
X6.378Y-2.1102
X6.3878Y-1.8799
X6.4724Y-3.248
X6.5118Y-3.4252
X6.5354Y-2.6535
X6.5416Y-3.0136
X6.6023Y-2.515
X6.6024Y-2.8425
X6.6043Y-2.9232
X6.6575Y-2.6417
X6.6654Y-2.1535
X6.6772Y-3.8425
X6.689Y-2.6703
X6.7283Y-2.685
X6.7441Y-2.4252
X6.7815Y-2.9232
X6.7815Y-3.0591
X6.7815Y-3.2972
X6.8012Y-2.8799
X6.8209Y-1.8209
X6.8406Y-3.2972
X6.8406Y-3.376
X6.8543Y-2.1614
X6.8858Y-2.6024
X6.8898Y-3.9173
X6.9094Y-3.2087
X6.9193Y-2.9823
X6.9291Y-2.1535
X6.9567Y-2.6024
X6.9567Y-2.7717
X6.9606Y-2.9449
X6.9921Y-3.3346
X7.0177Y-2.9823
X7.0177Y-3.0807
X7.1102Y-2.2559
X7.1181Y-2.5325
X7.1277Y-2.8443
X7.1555Y-1.8209
X7.1732Y-2.5049
X7.1732Y-2.6693
X7.1744Y-3.987
X7.1949Y-3.0413
X7.2323Y-2.4764
X7.248Y-3.0201
X7.2559Y-2.6654
X7.3031Y-3.0118
X7.313Y-3.0906
X7.3189Y-2.7874
X7.3346Y-2.9685
X7.3701Y-2.1673
X7.4173Y-2.8543
X7.4213Y-2.2933
X7.4685Y-2.126
X7.5197Y-2.9921
X7.5197Y-3.1693
X7.6575Y-2.628
X7.6575Y-3.5236
X7.6796Y-2.3952
X7.7165Y-3.8484
X7.8445Y-3.0906
X7.8484Y-3.7343
X7.8701Y-2.126
X7.8937Y-3.3366
X7.8937Y-3.5138
X7.9213Y-1.7008
T3
X7.2441Y-3.937
X7.2441Y-3.987
X7.4878Y-4.0354
X7.5378Y-4.0354
X7.5878Y-4.0354
X7.6378Y-4.0354
X7.8445Y-4.0354
X7.8945Y-4.0354
X7.9445Y-4.0354
X7.9843Y-2.1457
X7.9843Y-2.1957
X7.9843Y-2.2457
X7.9843Y-2.2957
T4
X6.1457Y-2.8622
X6.4252Y-2.6496
X6.4291Y-2.8228
X6.5787Y-3.6339
X7.0709Y-3.5118
X7.0709Y-3.7953
X7.6063Y-3.8346
T5
X6.0236Y-3.8976
T2
G00X6.1969Y-3.7598
M15
G01X6.2441Y-3.7598
M16
G05
G00X6.1969Y-3.8976
M15
G01X6.2441Y-3.8976
M16
G05
G00X6.1969Y-4.0551
M15
G01X6.2441Y-4.0551
M16
G05
T0
M30
