%TF.GenerationSoftware,KiCad,Pcbnew,6.0.2-378541a8eb~116~ubuntu20.04.1*%
%TF.CreationDate,2022-02-16T00:31:37-08:00*%
%TF.ProjectId,RP2040_WEDS,52503230-3430-45f5-9745-44532e6b6963,rev?*%
%TF.SameCoordinates,Original*%
%TF.FileFunction,Legend,Top*%
%TF.FilePolarity,Positive*%
%FSLAX46Y46*%
G04 Gerber Fmt 4.6, Leading zero omitted, Abs format (unit mm)*
G04 Created by KiCad (PCBNEW 6.0.2-378541a8eb~116~ubuntu20.04.1) date 2022-02-16 00:31:37*
%MOMM*%
%LPD*%
G01*
G04 APERTURE LIST*
%ADD10C,0.120000*%
%ADD11C,0.150000*%
%ADD12C,0.125000*%
%ADD13C,0.127000*%
%ADD14C,0.200000*%
%ADD15C,0.100000*%
G04 APERTURE END LIST*
D10*
X181500000Y-89100000D02*
X184600000Y-89100000D01*
X194500000Y-89100000D02*
X194500000Y-84100000D01*
X184600000Y-84100000D02*
X181500000Y-84100000D01*
X181500000Y-84100000D02*
X181500000Y-89100000D01*
X191400000Y-89100000D02*
X194500000Y-89100000D01*
X194500000Y-84100000D02*
X191400000Y-84100000D01*
D11*
%TO.C,TP4*%
X188538095Y-68452380D02*
X189109523Y-68452380D01*
X188823809Y-69452380D02*
X188823809Y-68452380D01*
X189442857Y-69452380D02*
X189442857Y-68452380D01*
X189823809Y-68452380D01*
X189919047Y-68500000D01*
X189966666Y-68547619D01*
X190014285Y-68642857D01*
X190014285Y-68785714D01*
X189966666Y-68880952D01*
X189919047Y-68928571D01*
X189823809Y-68976190D01*
X189442857Y-68976190D01*
X190871428Y-68785714D02*
X190871428Y-69452380D01*
X190633333Y-68404761D02*
X190395238Y-69119047D01*
X191014285Y-69119047D01*
D12*
%TO.C,R17*%
X190878571Y-58026190D02*
X190711904Y-57788095D01*
X190592857Y-58026190D02*
X190592857Y-57526190D01*
X190783333Y-57526190D01*
X190830952Y-57550000D01*
X190854761Y-57573809D01*
X190878571Y-57621428D01*
X190878571Y-57692857D01*
X190854761Y-57740476D01*
X190830952Y-57764285D01*
X190783333Y-57788095D01*
X190592857Y-57788095D01*
X191354761Y-58026190D02*
X191069047Y-58026190D01*
X191211904Y-58026190D02*
X191211904Y-57526190D01*
X191164285Y-57597619D01*
X191116666Y-57645238D01*
X191069047Y-57669047D01*
X191521428Y-57526190D02*
X191854761Y-57526190D01*
X191640476Y-58026190D01*
D11*
%TO.C,USB*%
X185316666Y-53716666D02*
X185316666Y-54283333D01*
X185350000Y-54350000D01*
X185383333Y-54383333D01*
X185450000Y-54416666D01*
X185583333Y-54416666D01*
X185650000Y-54383333D01*
X185683333Y-54350000D01*
X185716666Y-54283333D01*
X185716666Y-53716666D01*
X186016666Y-54383333D02*
X186116666Y-54416666D01*
X186283333Y-54416666D01*
X186350000Y-54383333D01*
X186383333Y-54350000D01*
X186416666Y-54283333D01*
X186416666Y-54216666D01*
X186383333Y-54150000D01*
X186350000Y-54116666D01*
X186283333Y-54083333D01*
X186150000Y-54050000D01*
X186083333Y-54016666D01*
X186050000Y-53983333D01*
X186016666Y-53916666D01*
X186016666Y-53850000D01*
X186050000Y-53783333D01*
X186083333Y-53750000D01*
X186150000Y-53716666D01*
X186316666Y-53716666D01*
X186416666Y-53750000D01*
X186950000Y-54050000D02*
X187050000Y-54083333D01*
X187083333Y-54116666D01*
X187116666Y-54183333D01*
X187116666Y-54283333D01*
X187083333Y-54350000D01*
X187050000Y-54383333D01*
X186983333Y-54416666D01*
X186716666Y-54416666D01*
X186716666Y-53716666D01*
X186950000Y-53716666D01*
X187016666Y-53750000D01*
X187050000Y-53783333D01*
X187083333Y-53850000D01*
X187083333Y-53916666D01*
X187050000Y-53983333D01*
X187016666Y-54016666D01*
X186950000Y-54050000D01*
X186716666Y-54050000D01*
D12*
%TO.C,C1*%
X167078571Y-72283333D02*
X167102380Y-72307142D01*
X167126190Y-72378571D01*
X167126190Y-72426190D01*
X167102380Y-72497619D01*
X167054761Y-72545238D01*
X167007142Y-72569047D01*
X166911904Y-72592857D01*
X166840476Y-72592857D01*
X166745238Y-72569047D01*
X166697619Y-72545238D01*
X166650000Y-72497619D01*
X166626190Y-72426190D01*
X166626190Y-72378571D01*
X166650000Y-72307142D01*
X166673809Y-72283333D01*
X167126190Y-71807142D02*
X167126190Y-72092857D01*
X167126190Y-71950000D02*
X166626190Y-71950000D01*
X166697619Y-71997619D01*
X166745238Y-72045238D01*
X166769047Y-72092857D01*
%TO.C,C2*%
X185041666Y-77178571D02*
X185017857Y-77202380D01*
X184946428Y-77226190D01*
X184898809Y-77226190D01*
X184827380Y-77202380D01*
X184779761Y-77154761D01*
X184755952Y-77107142D01*
X184732142Y-77011904D01*
X184732142Y-76940476D01*
X184755952Y-76845238D01*
X184779761Y-76797619D01*
X184827380Y-76750000D01*
X184898809Y-76726190D01*
X184946428Y-76726190D01*
X185017857Y-76750000D01*
X185041666Y-76773809D01*
X185232142Y-76773809D02*
X185255952Y-76750000D01*
X185303571Y-76726190D01*
X185422619Y-76726190D01*
X185470238Y-76750000D01*
X185494047Y-76773809D01*
X185517857Y-76821428D01*
X185517857Y-76869047D01*
X185494047Y-76940476D01*
X185208333Y-77226190D01*
X185517857Y-77226190D01*
%TO.C,C3*%
X185416666Y-73478571D02*
X185392857Y-73502380D01*
X185321428Y-73526190D01*
X185273809Y-73526190D01*
X185202380Y-73502380D01*
X185154761Y-73454761D01*
X185130952Y-73407142D01*
X185107142Y-73311904D01*
X185107142Y-73240476D01*
X185130952Y-73145238D01*
X185154761Y-73097619D01*
X185202380Y-73050000D01*
X185273809Y-73026190D01*
X185321428Y-73026190D01*
X185392857Y-73050000D01*
X185416666Y-73073809D01*
X185583333Y-73026190D02*
X185892857Y-73026190D01*
X185726190Y-73216666D01*
X185797619Y-73216666D01*
X185845238Y-73240476D01*
X185869047Y-73264285D01*
X185892857Y-73311904D01*
X185892857Y-73430952D01*
X185869047Y-73478571D01*
X185845238Y-73502380D01*
X185797619Y-73526190D01*
X185654761Y-73526190D01*
X185607142Y-73502380D01*
X185583333Y-73478571D01*
%TO.C,C4*%
X176516666Y-65278571D02*
X176492857Y-65302380D01*
X176421428Y-65326190D01*
X176373809Y-65326190D01*
X176302380Y-65302380D01*
X176254761Y-65254761D01*
X176230952Y-65207142D01*
X176207142Y-65111904D01*
X176207142Y-65040476D01*
X176230952Y-64945238D01*
X176254761Y-64897619D01*
X176302380Y-64850000D01*
X176373809Y-64826190D01*
X176421428Y-64826190D01*
X176492857Y-64850000D01*
X176516666Y-64873809D01*
X176945238Y-64992857D02*
X176945238Y-65326190D01*
X176826190Y-64802380D02*
X176707142Y-65159523D01*
X177016666Y-65159523D01*
%TO.C,C5*%
X177016666Y-82878571D02*
X176992857Y-82902380D01*
X176921428Y-82926190D01*
X176873809Y-82926190D01*
X176802380Y-82902380D01*
X176754761Y-82854761D01*
X176730952Y-82807142D01*
X176707142Y-82711904D01*
X176707142Y-82640476D01*
X176730952Y-82545238D01*
X176754761Y-82497619D01*
X176802380Y-82450000D01*
X176873809Y-82426190D01*
X176921428Y-82426190D01*
X176992857Y-82450000D01*
X177016666Y-82473809D01*
X177469047Y-82426190D02*
X177230952Y-82426190D01*
X177207142Y-82664285D01*
X177230952Y-82640476D01*
X177278571Y-82616666D01*
X177397619Y-82616666D01*
X177445238Y-82640476D01*
X177469047Y-82664285D01*
X177492857Y-82711904D01*
X177492857Y-82830952D01*
X177469047Y-82878571D01*
X177445238Y-82902380D01*
X177397619Y-82926190D01*
X177278571Y-82926190D01*
X177230952Y-82902380D01*
X177207142Y-82878571D01*
%TO.C,C6*%
X166416666Y-76078571D02*
X166392857Y-76102380D01*
X166321428Y-76126190D01*
X166273809Y-76126190D01*
X166202380Y-76102380D01*
X166154761Y-76054761D01*
X166130952Y-76007142D01*
X166107142Y-75911904D01*
X166107142Y-75840476D01*
X166130952Y-75745238D01*
X166154761Y-75697619D01*
X166202380Y-75650000D01*
X166273809Y-75626190D01*
X166321428Y-75626190D01*
X166392857Y-75650000D01*
X166416666Y-75673809D01*
X166845238Y-75626190D02*
X166750000Y-75626190D01*
X166702380Y-75650000D01*
X166678571Y-75673809D01*
X166630952Y-75745238D01*
X166607142Y-75840476D01*
X166607142Y-76030952D01*
X166630952Y-76078571D01*
X166654761Y-76102380D01*
X166702380Y-76126190D01*
X166797619Y-76126190D01*
X166845238Y-76102380D01*
X166869047Y-76078571D01*
X166892857Y-76030952D01*
X166892857Y-75911904D01*
X166869047Y-75864285D01*
X166845238Y-75840476D01*
X166797619Y-75816666D01*
X166702380Y-75816666D01*
X166654761Y-75840476D01*
X166630952Y-75864285D01*
X166607142Y-75911904D01*
%TO.C,C7*%
X185516666Y-75078571D02*
X185492857Y-75102380D01*
X185421428Y-75126190D01*
X185373809Y-75126190D01*
X185302380Y-75102380D01*
X185254761Y-75054761D01*
X185230952Y-75007142D01*
X185207142Y-74911904D01*
X185207142Y-74840476D01*
X185230952Y-74745238D01*
X185254761Y-74697619D01*
X185302380Y-74650000D01*
X185373809Y-74626190D01*
X185421428Y-74626190D01*
X185492857Y-74650000D01*
X185516666Y-74673809D01*
X185683333Y-74626190D02*
X186016666Y-74626190D01*
X185802380Y-75126190D01*
%TO.C,C8*%
X166216666Y-74478571D02*
X166192857Y-74502380D01*
X166121428Y-74526190D01*
X166073809Y-74526190D01*
X166002380Y-74502380D01*
X165954761Y-74454761D01*
X165930952Y-74407142D01*
X165907142Y-74311904D01*
X165907142Y-74240476D01*
X165930952Y-74145238D01*
X165954761Y-74097619D01*
X166002380Y-74050000D01*
X166073809Y-74026190D01*
X166121428Y-74026190D01*
X166192857Y-74050000D01*
X166216666Y-74073809D01*
X166502380Y-74240476D02*
X166454761Y-74216666D01*
X166430952Y-74192857D01*
X166407142Y-74145238D01*
X166407142Y-74121428D01*
X166430952Y-74073809D01*
X166454761Y-74050000D01*
X166502380Y-74026190D01*
X166597619Y-74026190D01*
X166645238Y-74050000D01*
X166669047Y-74073809D01*
X166692857Y-74121428D01*
X166692857Y-74145238D01*
X166669047Y-74192857D01*
X166645238Y-74216666D01*
X166597619Y-74240476D01*
X166502380Y-74240476D01*
X166454761Y-74264285D01*
X166430952Y-74288095D01*
X166407142Y-74335714D01*
X166407142Y-74430952D01*
X166430952Y-74478571D01*
X166454761Y-74502380D01*
X166502380Y-74526190D01*
X166597619Y-74526190D01*
X166645238Y-74502380D01*
X166669047Y-74478571D01*
X166692857Y-74430952D01*
X166692857Y-74335714D01*
X166669047Y-74288095D01*
X166645238Y-74264285D01*
X166597619Y-74240476D01*
%TO.C,C9*%
X179016666Y-99678571D02*
X178992857Y-99702380D01*
X178921428Y-99726190D01*
X178873809Y-99726190D01*
X178802380Y-99702380D01*
X178754761Y-99654761D01*
X178730952Y-99607142D01*
X178707142Y-99511904D01*
X178707142Y-99440476D01*
X178730952Y-99345238D01*
X178754761Y-99297619D01*
X178802380Y-99250000D01*
X178873809Y-99226190D01*
X178921428Y-99226190D01*
X178992857Y-99250000D01*
X179016666Y-99273809D01*
X179254761Y-99726190D02*
X179350000Y-99726190D01*
X179397619Y-99702380D01*
X179421428Y-99678571D01*
X179469047Y-99607142D01*
X179492857Y-99511904D01*
X179492857Y-99321428D01*
X179469047Y-99273809D01*
X179445238Y-99250000D01*
X179397619Y-99226190D01*
X179302380Y-99226190D01*
X179254761Y-99250000D01*
X179230952Y-99273809D01*
X179207142Y-99321428D01*
X179207142Y-99440476D01*
X179230952Y-99488095D01*
X179254761Y-99511904D01*
X179302380Y-99535714D01*
X179397619Y-99535714D01*
X179445238Y-99511904D01*
X179469047Y-99488095D01*
X179492857Y-99440476D01*
%TO.C,C10*%
X180778571Y-82778571D02*
X180754761Y-82802380D01*
X180683333Y-82826190D01*
X180635714Y-82826190D01*
X180564285Y-82802380D01*
X180516666Y-82754761D01*
X180492857Y-82707142D01*
X180469047Y-82611904D01*
X180469047Y-82540476D01*
X180492857Y-82445238D01*
X180516666Y-82397619D01*
X180564285Y-82350000D01*
X180635714Y-82326190D01*
X180683333Y-82326190D01*
X180754761Y-82350000D01*
X180778571Y-82373809D01*
X181254761Y-82826190D02*
X180969047Y-82826190D01*
X181111904Y-82826190D02*
X181111904Y-82326190D01*
X181064285Y-82397619D01*
X181016666Y-82445238D01*
X180969047Y-82469047D01*
X181564285Y-82326190D02*
X181611904Y-82326190D01*
X181659523Y-82350000D01*
X181683333Y-82373809D01*
X181707142Y-82421428D01*
X181730952Y-82516666D01*
X181730952Y-82635714D01*
X181707142Y-82730952D01*
X181683333Y-82778571D01*
X181659523Y-82802380D01*
X181611904Y-82826190D01*
X181564285Y-82826190D01*
X181516666Y-82802380D01*
X181492857Y-82778571D01*
X181469047Y-82730952D01*
X181445238Y-82635714D01*
X181445238Y-82516666D01*
X181469047Y-82421428D01*
X181492857Y-82373809D01*
X181516666Y-82350000D01*
X181564285Y-82326190D01*
%TO.C,C11*%
X174478571Y-65278571D02*
X174454761Y-65302380D01*
X174383333Y-65326190D01*
X174335714Y-65326190D01*
X174264285Y-65302380D01*
X174216666Y-65254761D01*
X174192857Y-65207142D01*
X174169047Y-65111904D01*
X174169047Y-65040476D01*
X174192857Y-64945238D01*
X174216666Y-64897619D01*
X174264285Y-64850000D01*
X174335714Y-64826190D01*
X174383333Y-64826190D01*
X174454761Y-64850000D01*
X174478571Y-64873809D01*
X174954761Y-65326190D02*
X174669047Y-65326190D01*
X174811904Y-65326190D02*
X174811904Y-64826190D01*
X174764285Y-64897619D01*
X174716666Y-64945238D01*
X174669047Y-64969047D01*
X175430952Y-65326190D02*
X175145238Y-65326190D01*
X175288095Y-65326190D02*
X175288095Y-64826190D01*
X175240476Y-64897619D01*
X175192857Y-64945238D01*
X175145238Y-64969047D01*
%TO.C,C12*%
X187278571Y-69321428D02*
X187302380Y-69345238D01*
X187326190Y-69416666D01*
X187326190Y-69464285D01*
X187302380Y-69535714D01*
X187254761Y-69583333D01*
X187207142Y-69607142D01*
X187111904Y-69630952D01*
X187040476Y-69630952D01*
X186945238Y-69607142D01*
X186897619Y-69583333D01*
X186850000Y-69535714D01*
X186826190Y-69464285D01*
X186826190Y-69416666D01*
X186850000Y-69345238D01*
X186873809Y-69321428D01*
X187326190Y-68845238D02*
X187326190Y-69130952D01*
X187326190Y-68988095D02*
X186826190Y-68988095D01*
X186897619Y-69035714D01*
X186945238Y-69083333D01*
X186969047Y-69130952D01*
X186873809Y-68654761D02*
X186850000Y-68630952D01*
X186826190Y-68583333D01*
X186826190Y-68464285D01*
X186850000Y-68416666D01*
X186873809Y-68392857D01*
X186921428Y-68369047D01*
X186969047Y-68369047D01*
X187040476Y-68392857D01*
X187326190Y-68678571D01*
X187326190Y-68369047D01*
%TO.C,C13*%
X187078571Y-98178571D02*
X187054761Y-98202380D01*
X186983333Y-98226190D01*
X186935714Y-98226190D01*
X186864285Y-98202380D01*
X186816666Y-98154761D01*
X186792857Y-98107142D01*
X186769047Y-98011904D01*
X186769047Y-97940476D01*
X186792857Y-97845238D01*
X186816666Y-97797619D01*
X186864285Y-97750000D01*
X186935714Y-97726190D01*
X186983333Y-97726190D01*
X187054761Y-97750000D01*
X187078571Y-97773809D01*
X187554761Y-98226190D02*
X187269047Y-98226190D01*
X187411904Y-98226190D02*
X187411904Y-97726190D01*
X187364285Y-97797619D01*
X187316666Y-97845238D01*
X187269047Y-97869047D01*
X187721428Y-97726190D02*
X188030952Y-97726190D01*
X187864285Y-97916666D01*
X187935714Y-97916666D01*
X187983333Y-97940476D01*
X188007142Y-97964285D01*
X188030952Y-98011904D01*
X188030952Y-98130952D01*
X188007142Y-98178571D01*
X187983333Y-98202380D01*
X187935714Y-98226190D01*
X187792857Y-98226190D01*
X187745238Y-98202380D01*
X187721428Y-98178571D01*
%TO.C,C14*%
X158678571Y-86878571D02*
X158654761Y-86902380D01*
X158583333Y-86926190D01*
X158535714Y-86926190D01*
X158464285Y-86902380D01*
X158416666Y-86854761D01*
X158392857Y-86807142D01*
X158369047Y-86711904D01*
X158369047Y-86640476D01*
X158392857Y-86545238D01*
X158416666Y-86497619D01*
X158464285Y-86450000D01*
X158535714Y-86426190D01*
X158583333Y-86426190D01*
X158654761Y-86450000D01*
X158678571Y-86473809D01*
X159154761Y-86926190D02*
X158869047Y-86926190D01*
X159011904Y-86926190D02*
X159011904Y-86426190D01*
X158964285Y-86497619D01*
X158916666Y-86545238D01*
X158869047Y-86569047D01*
X159583333Y-86592857D02*
X159583333Y-86926190D01*
X159464285Y-86402380D02*
X159345238Y-86759523D01*
X159654761Y-86759523D01*
%TO.C,C15*%
X183278571Y-54848571D02*
X183254761Y-54872380D01*
X183183333Y-54896190D01*
X183135714Y-54896190D01*
X183064285Y-54872380D01*
X183016666Y-54824761D01*
X182992857Y-54777142D01*
X182969047Y-54681904D01*
X182969047Y-54610476D01*
X182992857Y-54515238D01*
X183016666Y-54467619D01*
X183064285Y-54420000D01*
X183135714Y-54396190D01*
X183183333Y-54396190D01*
X183254761Y-54420000D01*
X183278571Y-54443809D01*
X183754761Y-54896190D02*
X183469047Y-54896190D01*
X183611904Y-54896190D02*
X183611904Y-54396190D01*
X183564285Y-54467619D01*
X183516666Y-54515238D01*
X183469047Y-54539047D01*
X184207142Y-54396190D02*
X183969047Y-54396190D01*
X183945238Y-54634285D01*
X183969047Y-54610476D01*
X184016666Y-54586666D01*
X184135714Y-54586666D01*
X184183333Y-54610476D01*
X184207142Y-54634285D01*
X184230952Y-54681904D01*
X184230952Y-54800952D01*
X184207142Y-54848571D01*
X184183333Y-54872380D01*
X184135714Y-54896190D01*
X184016666Y-54896190D01*
X183969047Y-54872380D01*
X183945238Y-54848571D01*
%TO.C,C16*%
X162578571Y-86978571D02*
X162554761Y-87002380D01*
X162483333Y-87026190D01*
X162435714Y-87026190D01*
X162364285Y-87002380D01*
X162316666Y-86954761D01*
X162292857Y-86907142D01*
X162269047Y-86811904D01*
X162269047Y-86740476D01*
X162292857Y-86645238D01*
X162316666Y-86597619D01*
X162364285Y-86550000D01*
X162435714Y-86526190D01*
X162483333Y-86526190D01*
X162554761Y-86550000D01*
X162578571Y-86573809D01*
X163054761Y-87026190D02*
X162769047Y-87026190D01*
X162911904Y-87026190D02*
X162911904Y-86526190D01*
X162864285Y-86597619D01*
X162816666Y-86645238D01*
X162769047Y-86669047D01*
X163483333Y-86526190D02*
X163388095Y-86526190D01*
X163340476Y-86550000D01*
X163316666Y-86573809D01*
X163269047Y-86645238D01*
X163245238Y-86740476D01*
X163245238Y-86930952D01*
X163269047Y-86978571D01*
X163292857Y-87002380D01*
X163340476Y-87026190D01*
X163435714Y-87026190D01*
X163483333Y-87002380D01*
X163507142Y-86978571D01*
X163530952Y-86930952D01*
X163530952Y-86811904D01*
X163507142Y-86764285D01*
X163483333Y-86740476D01*
X163435714Y-86716666D01*
X163340476Y-86716666D01*
X163292857Y-86740476D01*
X163269047Y-86764285D01*
X163245238Y-86811904D01*
%TO.C,C17*%
X198903571Y-81748571D02*
X198879761Y-81772380D01*
X198808333Y-81796190D01*
X198760714Y-81796190D01*
X198689285Y-81772380D01*
X198641666Y-81724761D01*
X198617857Y-81677142D01*
X198594047Y-81581904D01*
X198594047Y-81510476D01*
X198617857Y-81415238D01*
X198641666Y-81367619D01*
X198689285Y-81320000D01*
X198760714Y-81296190D01*
X198808333Y-81296190D01*
X198879761Y-81320000D01*
X198903571Y-81343809D01*
X199379761Y-81796190D02*
X199094047Y-81796190D01*
X199236904Y-81796190D02*
X199236904Y-81296190D01*
X199189285Y-81367619D01*
X199141666Y-81415238D01*
X199094047Y-81439047D01*
X199546428Y-81296190D02*
X199879761Y-81296190D01*
X199665476Y-81796190D01*
%TO.C,C18*%
X198903571Y-86248571D02*
X198879761Y-86272380D01*
X198808333Y-86296190D01*
X198760714Y-86296190D01*
X198689285Y-86272380D01*
X198641666Y-86224761D01*
X198617857Y-86177142D01*
X198594047Y-86081904D01*
X198594047Y-86010476D01*
X198617857Y-85915238D01*
X198641666Y-85867619D01*
X198689285Y-85820000D01*
X198760714Y-85796190D01*
X198808333Y-85796190D01*
X198879761Y-85820000D01*
X198903571Y-85843809D01*
X199379761Y-86296190D02*
X199094047Y-86296190D01*
X199236904Y-86296190D02*
X199236904Y-85796190D01*
X199189285Y-85867619D01*
X199141666Y-85915238D01*
X199094047Y-85939047D01*
X199665476Y-86010476D02*
X199617857Y-85986666D01*
X199594047Y-85962857D01*
X199570238Y-85915238D01*
X199570238Y-85891428D01*
X199594047Y-85843809D01*
X199617857Y-85820000D01*
X199665476Y-85796190D01*
X199760714Y-85796190D01*
X199808333Y-85820000D01*
X199832142Y-85843809D01*
X199855952Y-85891428D01*
X199855952Y-85915238D01*
X199832142Y-85962857D01*
X199808333Y-85986666D01*
X199760714Y-86010476D01*
X199665476Y-86010476D01*
X199617857Y-86034285D01*
X199594047Y-86058095D01*
X199570238Y-86105714D01*
X199570238Y-86200952D01*
X199594047Y-86248571D01*
X199617857Y-86272380D01*
X199665476Y-86296190D01*
X199760714Y-86296190D01*
X199808333Y-86272380D01*
X199832142Y-86248571D01*
X199855952Y-86200952D01*
X199855952Y-86105714D01*
X199832142Y-86058095D01*
X199808333Y-86034285D01*
X199760714Y-86010476D01*
%TO.C,C19*%
X149878571Y-54778571D02*
X149854761Y-54802380D01*
X149783333Y-54826190D01*
X149735714Y-54826190D01*
X149664285Y-54802380D01*
X149616666Y-54754761D01*
X149592857Y-54707142D01*
X149569047Y-54611904D01*
X149569047Y-54540476D01*
X149592857Y-54445238D01*
X149616666Y-54397619D01*
X149664285Y-54350000D01*
X149735714Y-54326190D01*
X149783333Y-54326190D01*
X149854761Y-54350000D01*
X149878571Y-54373809D01*
X150354761Y-54826190D02*
X150069047Y-54826190D01*
X150211904Y-54826190D02*
X150211904Y-54326190D01*
X150164285Y-54397619D01*
X150116666Y-54445238D01*
X150069047Y-54469047D01*
X150592857Y-54826190D02*
X150688095Y-54826190D01*
X150735714Y-54802380D01*
X150759523Y-54778571D01*
X150807142Y-54707142D01*
X150830952Y-54611904D01*
X150830952Y-54421428D01*
X150807142Y-54373809D01*
X150783333Y-54350000D01*
X150735714Y-54326190D01*
X150640476Y-54326190D01*
X150592857Y-54350000D01*
X150569047Y-54373809D01*
X150545238Y-54421428D01*
X150545238Y-54540476D01*
X150569047Y-54588095D01*
X150592857Y-54611904D01*
X150640476Y-54635714D01*
X150735714Y-54635714D01*
X150783333Y-54611904D01*
X150807142Y-54588095D01*
X150830952Y-54540476D01*
%TO.C,C20*%
X168478571Y-87878571D02*
X168454761Y-87902380D01*
X168383333Y-87926190D01*
X168335714Y-87926190D01*
X168264285Y-87902380D01*
X168216666Y-87854761D01*
X168192857Y-87807142D01*
X168169047Y-87711904D01*
X168169047Y-87640476D01*
X168192857Y-87545238D01*
X168216666Y-87497619D01*
X168264285Y-87450000D01*
X168335714Y-87426190D01*
X168383333Y-87426190D01*
X168454761Y-87450000D01*
X168478571Y-87473809D01*
X168669047Y-87473809D02*
X168692857Y-87450000D01*
X168740476Y-87426190D01*
X168859523Y-87426190D01*
X168907142Y-87450000D01*
X168930952Y-87473809D01*
X168954761Y-87521428D01*
X168954761Y-87569047D01*
X168930952Y-87640476D01*
X168645238Y-87926190D01*
X168954761Y-87926190D01*
X169264285Y-87426190D02*
X169311904Y-87426190D01*
X169359523Y-87450000D01*
X169383333Y-87473809D01*
X169407142Y-87521428D01*
X169430952Y-87616666D01*
X169430952Y-87735714D01*
X169407142Y-87830952D01*
X169383333Y-87878571D01*
X169359523Y-87902380D01*
X169311904Y-87926190D01*
X169264285Y-87926190D01*
X169216666Y-87902380D01*
X169192857Y-87878571D01*
X169169047Y-87830952D01*
X169145238Y-87735714D01*
X169145238Y-87616666D01*
X169169047Y-87521428D01*
X169192857Y-87473809D01*
X169216666Y-87450000D01*
X169264285Y-87426190D01*
%TO.C,C21*%
X174778571Y-87978571D02*
X174754761Y-88002380D01*
X174683333Y-88026190D01*
X174635714Y-88026190D01*
X174564285Y-88002380D01*
X174516666Y-87954761D01*
X174492857Y-87907142D01*
X174469047Y-87811904D01*
X174469047Y-87740476D01*
X174492857Y-87645238D01*
X174516666Y-87597619D01*
X174564285Y-87550000D01*
X174635714Y-87526190D01*
X174683333Y-87526190D01*
X174754761Y-87550000D01*
X174778571Y-87573809D01*
X174969047Y-87573809D02*
X174992857Y-87550000D01*
X175040476Y-87526190D01*
X175159523Y-87526190D01*
X175207142Y-87550000D01*
X175230952Y-87573809D01*
X175254761Y-87621428D01*
X175254761Y-87669047D01*
X175230952Y-87740476D01*
X174945238Y-88026190D01*
X175254761Y-88026190D01*
X175730952Y-88026190D02*
X175445238Y-88026190D01*
X175588095Y-88026190D02*
X175588095Y-87526190D01*
X175540476Y-87597619D01*
X175492857Y-87645238D01*
X175445238Y-87669047D01*
%TO.C,C22*%
X169903571Y-58971428D02*
X169927380Y-58995238D01*
X169951190Y-59066666D01*
X169951190Y-59114285D01*
X169927380Y-59185714D01*
X169879761Y-59233333D01*
X169832142Y-59257142D01*
X169736904Y-59280952D01*
X169665476Y-59280952D01*
X169570238Y-59257142D01*
X169522619Y-59233333D01*
X169475000Y-59185714D01*
X169451190Y-59114285D01*
X169451190Y-59066666D01*
X169475000Y-58995238D01*
X169498809Y-58971428D01*
X169498809Y-58780952D02*
X169475000Y-58757142D01*
X169451190Y-58709523D01*
X169451190Y-58590476D01*
X169475000Y-58542857D01*
X169498809Y-58519047D01*
X169546428Y-58495238D01*
X169594047Y-58495238D01*
X169665476Y-58519047D01*
X169951190Y-58804761D01*
X169951190Y-58495238D01*
X169498809Y-58304761D02*
X169475000Y-58280952D01*
X169451190Y-58233333D01*
X169451190Y-58114285D01*
X169475000Y-58066666D01*
X169498809Y-58042857D01*
X169546428Y-58019047D01*
X169594047Y-58019047D01*
X169665476Y-58042857D01*
X169951190Y-58328571D01*
X169951190Y-58019047D01*
%TO.C,C23*%
X170028571Y-52721428D02*
X170052380Y-52745238D01*
X170076190Y-52816666D01*
X170076190Y-52864285D01*
X170052380Y-52935714D01*
X170004761Y-52983333D01*
X169957142Y-53007142D01*
X169861904Y-53030952D01*
X169790476Y-53030952D01*
X169695238Y-53007142D01*
X169647619Y-52983333D01*
X169600000Y-52935714D01*
X169576190Y-52864285D01*
X169576190Y-52816666D01*
X169600000Y-52745238D01*
X169623809Y-52721428D01*
X169623809Y-52530952D02*
X169600000Y-52507142D01*
X169576190Y-52459523D01*
X169576190Y-52340476D01*
X169600000Y-52292857D01*
X169623809Y-52269047D01*
X169671428Y-52245238D01*
X169719047Y-52245238D01*
X169790476Y-52269047D01*
X170076190Y-52554761D01*
X170076190Y-52245238D01*
X169576190Y-52078571D02*
X169576190Y-51769047D01*
X169766666Y-51935714D01*
X169766666Y-51864285D01*
X169790476Y-51816666D01*
X169814285Y-51792857D01*
X169861904Y-51769047D01*
X169980952Y-51769047D01*
X170028571Y-51792857D01*
X170052380Y-51816666D01*
X170076190Y-51864285D01*
X170076190Y-52007142D01*
X170052380Y-52054761D01*
X170028571Y-52078571D01*
%TO.C,D1*%
X163630952Y-97576190D02*
X163630952Y-97076190D01*
X163750000Y-97076190D01*
X163821428Y-97100000D01*
X163869047Y-97147619D01*
X163892857Y-97195238D01*
X163916666Y-97290476D01*
X163916666Y-97361904D01*
X163892857Y-97457142D01*
X163869047Y-97504761D01*
X163821428Y-97552380D01*
X163750000Y-97576190D01*
X163630952Y-97576190D01*
X164392857Y-97576190D02*
X164107142Y-97576190D01*
X164250000Y-97576190D02*
X164250000Y-97076190D01*
X164202380Y-97147619D01*
X164154761Y-97195238D01*
X164107142Y-97219047D01*
%TO.C,D2*%
X169130952Y-101038690D02*
X169130952Y-100538690D01*
X169250000Y-100538690D01*
X169321428Y-100562500D01*
X169369047Y-100610119D01*
X169392857Y-100657738D01*
X169416666Y-100752976D01*
X169416666Y-100824404D01*
X169392857Y-100919642D01*
X169369047Y-100967261D01*
X169321428Y-101014880D01*
X169250000Y-101038690D01*
X169130952Y-101038690D01*
X169607142Y-100586309D02*
X169630952Y-100562500D01*
X169678571Y-100538690D01*
X169797619Y-100538690D01*
X169845238Y-100562500D01*
X169869047Y-100586309D01*
X169892857Y-100633928D01*
X169892857Y-100681547D01*
X169869047Y-100752976D01*
X169583333Y-101038690D01*
X169892857Y-101038690D01*
%TO.C,D3*%
X187630952Y-93226190D02*
X187630952Y-92726190D01*
X187750000Y-92726190D01*
X187821428Y-92750000D01*
X187869047Y-92797619D01*
X187892857Y-92845238D01*
X187916666Y-92940476D01*
X187916666Y-93011904D01*
X187892857Y-93107142D01*
X187869047Y-93154761D01*
X187821428Y-93202380D01*
X187750000Y-93226190D01*
X187630952Y-93226190D01*
X188083333Y-92726190D02*
X188392857Y-92726190D01*
X188226190Y-92916666D01*
X188297619Y-92916666D01*
X188345238Y-92940476D01*
X188369047Y-92964285D01*
X188392857Y-93011904D01*
X188392857Y-93130952D01*
X188369047Y-93178571D01*
X188345238Y-93202380D01*
X188297619Y-93226190D01*
X188154761Y-93226190D01*
X188107142Y-93202380D01*
X188083333Y-93178571D01*
%TO.C,J1*%
X154533333Y-93926190D02*
X154533333Y-94283333D01*
X154509523Y-94354761D01*
X154461904Y-94402380D01*
X154390476Y-94426190D01*
X154342857Y-94426190D01*
X155033333Y-94426190D02*
X154747619Y-94426190D01*
X154890476Y-94426190D02*
X154890476Y-93926190D01*
X154842857Y-93997619D01*
X154795238Y-94045238D01*
X154747619Y-94069047D01*
%TO.C,J2*%
X200333333Y-99926190D02*
X200333333Y-100283333D01*
X200309523Y-100354761D01*
X200261904Y-100402380D01*
X200190476Y-100426190D01*
X200142857Y-100426190D01*
X200547619Y-99973809D02*
X200571428Y-99950000D01*
X200619047Y-99926190D01*
X200738095Y-99926190D01*
X200785714Y-99950000D01*
X200809523Y-99973809D01*
X200833333Y-100021428D01*
X200833333Y-100069047D01*
X200809523Y-100140476D01*
X200523809Y-100426190D01*
X200833333Y-100426190D01*
%TO.C,J3*%
X183256190Y-100366666D02*
X183613333Y-100366666D01*
X183684761Y-100390476D01*
X183732380Y-100438095D01*
X183756190Y-100509523D01*
X183756190Y-100557142D01*
X183256190Y-100176190D02*
X183256190Y-99866666D01*
X183446666Y-100033333D01*
X183446666Y-99961904D01*
X183470476Y-99914285D01*
X183494285Y-99890476D01*
X183541904Y-99866666D01*
X183660952Y-99866666D01*
X183708571Y-99890476D01*
X183732380Y-99914285D01*
X183756190Y-99961904D01*
X183756190Y-100104761D01*
X183732380Y-100152380D01*
X183708571Y-100176190D01*
%TO.C,J4*%
X191833333Y-99976190D02*
X191833333Y-100333333D01*
X191809523Y-100404761D01*
X191761904Y-100452380D01*
X191690476Y-100476190D01*
X191642857Y-100476190D01*
X192285714Y-100142857D02*
X192285714Y-100476190D01*
X192166666Y-99952380D02*
X192047619Y-100309523D01*
X192357142Y-100309523D01*
%TO.C,J5*%
X187533333Y-81026190D02*
X187533333Y-81383333D01*
X187509523Y-81454761D01*
X187461904Y-81502380D01*
X187390476Y-81526190D01*
X187342857Y-81526190D01*
X188009523Y-81026190D02*
X187771428Y-81026190D01*
X187747619Y-81264285D01*
X187771428Y-81240476D01*
X187819047Y-81216666D01*
X187938095Y-81216666D01*
X187985714Y-81240476D01*
X188009523Y-81264285D01*
X188033333Y-81311904D01*
X188033333Y-81430952D01*
X188009523Y-81478571D01*
X187985714Y-81502380D01*
X187938095Y-81526190D01*
X187819047Y-81526190D01*
X187771428Y-81502380D01*
X187747619Y-81478571D01*
%TO.C,L1*%
X170296190Y-55783333D02*
X170296190Y-56021428D01*
X169796190Y-56021428D01*
X170296190Y-55354761D02*
X170296190Y-55640476D01*
X170296190Y-55497619D02*
X169796190Y-55497619D01*
X169867619Y-55545238D01*
X169915238Y-55592857D01*
X169939047Y-55640476D01*
%TO.C,Q1*%
X183952380Y-91723809D02*
X183904761Y-91700000D01*
X183857142Y-91652380D01*
X183785714Y-91580952D01*
X183738095Y-91557142D01*
X183690476Y-91557142D01*
X183714285Y-91676190D02*
X183666666Y-91652380D01*
X183619047Y-91604761D01*
X183595238Y-91509523D01*
X183595238Y-91342857D01*
X183619047Y-91247619D01*
X183666666Y-91200000D01*
X183714285Y-91176190D01*
X183809523Y-91176190D01*
X183857142Y-91200000D01*
X183904761Y-91247619D01*
X183928571Y-91342857D01*
X183928571Y-91509523D01*
X183904761Y-91604761D01*
X183857142Y-91652380D01*
X183809523Y-91676190D01*
X183714285Y-91676190D01*
X184404761Y-91676190D02*
X184119047Y-91676190D01*
X184261904Y-91676190D02*
X184261904Y-91176190D01*
X184214285Y-91247619D01*
X184166666Y-91295238D01*
X184119047Y-91319047D01*
%TO.C,Q2*%
X192773809Y-63547619D02*
X192750000Y-63595238D01*
X192702380Y-63642857D01*
X192630952Y-63714285D01*
X192607142Y-63761904D01*
X192607142Y-63809523D01*
X192726190Y-63785714D02*
X192702380Y-63833333D01*
X192654761Y-63880952D01*
X192559523Y-63904761D01*
X192392857Y-63904761D01*
X192297619Y-63880952D01*
X192250000Y-63833333D01*
X192226190Y-63785714D01*
X192226190Y-63690476D01*
X192250000Y-63642857D01*
X192297619Y-63595238D01*
X192392857Y-63571428D01*
X192559523Y-63571428D01*
X192654761Y-63595238D01*
X192702380Y-63642857D01*
X192726190Y-63690476D01*
X192726190Y-63785714D01*
X192273809Y-63380952D02*
X192250000Y-63357142D01*
X192226190Y-63309523D01*
X192226190Y-63190476D01*
X192250000Y-63142857D01*
X192273809Y-63119047D01*
X192321428Y-63095238D01*
X192369047Y-63095238D01*
X192440476Y-63119047D01*
X192726190Y-63404761D01*
X192726190Y-63095238D01*
%TO.C,R2*%
X169016666Y-97001190D02*
X168850000Y-96763095D01*
X168730952Y-97001190D02*
X168730952Y-96501190D01*
X168921428Y-96501190D01*
X168969047Y-96525000D01*
X168992857Y-96548809D01*
X169016666Y-96596428D01*
X169016666Y-96667857D01*
X168992857Y-96715476D01*
X168969047Y-96739285D01*
X168921428Y-96763095D01*
X168730952Y-96763095D01*
X169207142Y-96548809D02*
X169230952Y-96525000D01*
X169278571Y-96501190D01*
X169397619Y-96501190D01*
X169445238Y-96525000D01*
X169469047Y-96548809D01*
X169492857Y-96596428D01*
X169492857Y-96644047D01*
X169469047Y-96715476D01*
X169183333Y-97001190D01*
X169492857Y-97001190D01*
%TO.C,R3*%
X172716666Y-99826190D02*
X172550000Y-99588095D01*
X172430952Y-99826190D02*
X172430952Y-99326190D01*
X172621428Y-99326190D01*
X172669047Y-99350000D01*
X172692857Y-99373809D01*
X172716666Y-99421428D01*
X172716666Y-99492857D01*
X172692857Y-99540476D01*
X172669047Y-99564285D01*
X172621428Y-99588095D01*
X172430952Y-99588095D01*
X172883333Y-99326190D02*
X173192857Y-99326190D01*
X173026190Y-99516666D01*
X173097619Y-99516666D01*
X173145238Y-99540476D01*
X173169047Y-99564285D01*
X173192857Y-99611904D01*
X173192857Y-99730952D01*
X173169047Y-99778571D01*
X173145238Y-99802380D01*
X173097619Y-99826190D01*
X172954761Y-99826190D01*
X172907142Y-99802380D01*
X172883333Y-99778571D01*
%TO.C,R4*%
X190516666Y-60126190D02*
X190350000Y-59888095D01*
X190230952Y-60126190D02*
X190230952Y-59626190D01*
X190421428Y-59626190D01*
X190469047Y-59650000D01*
X190492857Y-59673809D01*
X190516666Y-59721428D01*
X190516666Y-59792857D01*
X190492857Y-59840476D01*
X190469047Y-59864285D01*
X190421428Y-59888095D01*
X190230952Y-59888095D01*
X190945238Y-59792857D02*
X190945238Y-60126190D01*
X190826190Y-59602380D02*
X190707142Y-59959523D01*
X191016666Y-59959523D01*
%TO.C,R5*%
X192316666Y-52126190D02*
X192150000Y-51888095D01*
X192030952Y-52126190D02*
X192030952Y-51626190D01*
X192221428Y-51626190D01*
X192269047Y-51650000D01*
X192292857Y-51673809D01*
X192316666Y-51721428D01*
X192316666Y-51792857D01*
X192292857Y-51840476D01*
X192269047Y-51864285D01*
X192221428Y-51888095D01*
X192030952Y-51888095D01*
X192769047Y-51626190D02*
X192530952Y-51626190D01*
X192507142Y-51864285D01*
X192530952Y-51840476D01*
X192578571Y-51816666D01*
X192697619Y-51816666D01*
X192745238Y-51840476D01*
X192769047Y-51864285D01*
X192792857Y-51911904D01*
X192792857Y-52030952D01*
X192769047Y-52078571D01*
X192745238Y-52102380D01*
X192697619Y-52126190D01*
X192578571Y-52126190D01*
X192530952Y-52102380D01*
X192507142Y-52078571D01*
%TO.C,R6*%
X192916666Y-90476190D02*
X192750000Y-90238095D01*
X192630952Y-90476190D02*
X192630952Y-89976190D01*
X192821428Y-89976190D01*
X192869047Y-90000000D01*
X192892857Y-90023809D01*
X192916666Y-90071428D01*
X192916666Y-90142857D01*
X192892857Y-90190476D01*
X192869047Y-90214285D01*
X192821428Y-90238095D01*
X192630952Y-90238095D01*
X193345238Y-89976190D02*
X193250000Y-89976190D01*
X193202380Y-90000000D01*
X193178571Y-90023809D01*
X193130952Y-90095238D01*
X193107142Y-90190476D01*
X193107142Y-90380952D01*
X193130952Y-90428571D01*
X193154761Y-90452380D01*
X193202380Y-90476190D01*
X193297619Y-90476190D01*
X193345238Y-90452380D01*
X193369047Y-90428571D01*
X193392857Y-90380952D01*
X193392857Y-90261904D01*
X193369047Y-90214285D01*
X193345238Y-90190476D01*
X193297619Y-90166666D01*
X193202380Y-90166666D01*
X193154761Y-90190476D01*
X193130952Y-90214285D01*
X193107142Y-90261904D01*
%TO.C,R7*%
X201716666Y-98626190D02*
X201550000Y-98388095D01*
X201430952Y-98626190D02*
X201430952Y-98126190D01*
X201621428Y-98126190D01*
X201669047Y-98150000D01*
X201692857Y-98173809D01*
X201716666Y-98221428D01*
X201716666Y-98292857D01*
X201692857Y-98340476D01*
X201669047Y-98364285D01*
X201621428Y-98388095D01*
X201430952Y-98388095D01*
X201883333Y-98126190D02*
X202216666Y-98126190D01*
X202002380Y-98626190D01*
%TO.C,R8*%
X158416666Y-76601190D02*
X158250000Y-76363095D01*
X158130952Y-76601190D02*
X158130952Y-76101190D01*
X158321428Y-76101190D01*
X158369047Y-76125000D01*
X158392857Y-76148809D01*
X158416666Y-76196428D01*
X158416666Y-76267857D01*
X158392857Y-76315476D01*
X158369047Y-76339285D01*
X158321428Y-76363095D01*
X158130952Y-76363095D01*
X158702380Y-76315476D02*
X158654761Y-76291666D01*
X158630952Y-76267857D01*
X158607142Y-76220238D01*
X158607142Y-76196428D01*
X158630952Y-76148809D01*
X158654761Y-76125000D01*
X158702380Y-76101190D01*
X158797619Y-76101190D01*
X158845238Y-76125000D01*
X158869047Y-76148809D01*
X158892857Y-76196428D01*
X158892857Y-76220238D01*
X158869047Y-76267857D01*
X158845238Y-76291666D01*
X158797619Y-76315476D01*
X158702380Y-76315476D01*
X158654761Y-76339285D01*
X158630952Y-76363095D01*
X158607142Y-76410714D01*
X158607142Y-76505952D01*
X158630952Y-76553571D01*
X158654761Y-76577380D01*
X158702380Y-76601190D01*
X158797619Y-76601190D01*
X158845238Y-76577380D01*
X158869047Y-76553571D01*
X158892857Y-76505952D01*
X158892857Y-76410714D01*
X158869047Y-76363095D01*
X158845238Y-76339285D01*
X158797619Y-76315476D01*
%TO.C,R9*%
X158416666Y-78901190D02*
X158250000Y-78663095D01*
X158130952Y-78901190D02*
X158130952Y-78401190D01*
X158321428Y-78401190D01*
X158369047Y-78425000D01*
X158392857Y-78448809D01*
X158416666Y-78496428D01*
X158416666Y-78567857D01*
X158392857Y-78615476D01*
X158369047Y-78639285D01*
X158321428Y-78663095D01*
X158130952Y-78663095D01*
X158654761Y-78901190D02*
X158750000Y-78901190D01*
X158797619Y-78877380D01*
X158821428Y-78853571D01*
X158869047Y-78782142D01*
X158892857Y-78686904D01*
X158892857Y-78496428D01*
X158869047Y-78448809D01*
X158845238Y-78425000D01*
X158797619Y-78401190D01*
X158702380Y-78401190D01*
X158654761Y-78425000D01*
X158630952Y-78448809D01*
X158607142Y-78496428D01*
X158607142Y-78615476D01*
X158630952Y-78663095D01*
X158654761Y-78686904D01*
X158702380Y-78710714D01*
X158797619Y-78710714D01*
X158845238Y-78686904D01*
X158869047Y-78663095D01*
X158892857Y-78615476D01*
%TO.C,R10*%
X157726190Y-67321428D02*
X157488095Y-67488095D01*
X157726190Y-67607142D02*
X157226190Y-67607142D01*
X157226190Y-67416666D01*
X157250000Y-67369047D01*
X157273809Y-67345238D01*
X157321428Y-67321428D01*
X157392857Y-67321428D01*
X157440476Y-67345238D01*
X157464285Y-67369047D01*
X157488095Y-67416666D01*
X157488095Y-67607142D01*
X157726190Y-66845238D02*
X157726190Y-67130952D01*
X157726190Y-66988095D02*
X157226190Y-66988095D01*
X157297619Y-67035714D01*
X157345238Y-67083333D01*
X157369047Y-67130952D01*
X157226190Y-66535714D02*
X157226190Y-66488095D01*
X157250000Y-66440476D01*
X157273809Y-66416666D01*
X157321428Y-66392857D01*
X157416666Y-66369047D01*
X157535714Y-66369047D01*
X157630952Y-66392857D01*
X157678571Y-66416666D01*
X157702380Y-66440476D01*
X157726190Y-66488095D01*
X157726190Y-66535714D01*
X157702380Y-66583333D01*
X157678571Y-66607142D01*
X157630952Y-66630952D01*
X157535714Y-66654761D01*
X157416666Y-66654761D01*
X157321428Y-66630952D01*
X157273809Y-66607142D01*
X157250000Y-66583333D01*
X157226190Y-66535714D01*
%TO.C,R11*%
X201978571Y-76756190D02*
X201811904Y-76518095D01*
X201692857Y-76756190D02*
X201692857Y-76256190D01*
X201883333Y-76256190D01*
X201930952Y-76280000D01*
X201954761Y-76303809D01*
X201978571Y-76351428D01*
X201978571Y-76422857D01*
X201954761Y-76470476D01*
X201930952Y-76494285D01*
X201883333Y-76518095D01*
X201692857Y-76518095D01*
X202454761Y-76756190D02*
X202169047Y-76756190D01*
X202311904Y-76756190D02*
X202311904Y-76256190D01*
X202264285Y-76327619D01*
X202216666Y-76375238D01*
X202169047Y-76399047D01*
X202930952Y-76756190D02*
X202645238Y-76756190D01*
X202788095Y-76756190D02*
X202788095Y-76256190D01*
X202740476Y-76327619D01*
X202692857Y-76375238D01*
X202645238Y-76399047D01*
%TO.C,R12*%
X162426190Y-68321428D02*
X162188095Y-68488095D01*
X162426190Y-68607142D02*
X161926190Y-68607142D01*
X161926190Y-68416666D01*
X161950000Y-68369047D01*
X161973809Y-68345238D01*
X162021428Y-68321428D01*
X162092857Y-68321428D01*
X162140476Y-68345238D01*
X162164285Y-68369047D01*
X162188095Y-68416666D01*
X162188095Y-68607142D01*
X162426190Y-67845238D02*
X162426190Y-68130952D01*
X162426190Y-67988095D02*
X161926190Y-67988095D01*
X161997619Y-68035714D01*
X162045238Y-68083333D01*
X162069047Y-68130952D01*
X161973809Y-67654761D02*
X161950000Y-67630952D01*
X161926190Y-67583333D01*
X161926190Y-67464285D01*
X161950000Y-67416666D01*
X161973809Y-67392857D01*
X162021428Y-67369047D01*
X162069047Y-67369047D01*
X162140476Y-67392857D01*
X162426190Y-67678571D01*
X162426190Y-67369047D01*
%TO.C,R13*%
X201978571Y-79356190D02*
X201811904Y-79118095D01*
X201692857Y-79356190D02*
X201692857Y-78856190D01*
X201883333Y-78856190D01*
X201930952Y-78880000D01*
X201954761Y-78903809D01*
X201978571Y-78951428D01*
X201978571Y-79022857D01*
X201954761Y-79070476D01*
X201930952Y-79094285D01*
X201883333Y-79118095D01*
X201692857Y-79118095D01*
X202454761Y-79356190D02*
X202169047Y-79356190D01*
X202311904Y-79356190D02*
X202311904Y-78856190D01*
X202264285Y-78927619D01*
X202216666Y-78975238D01*
X202169047Y-78999047D01*
X202621428Y-78856190D02*
X202930952Y-78856190D01*
X202764285Y-79046666D01*
X202835714Y-79046666D01*
X202883333Y-79070476D01*
X202907142Y-79094285D01*
X202930952Y-79141904D01*
X202930952Y-79260952D01*
X202907142Y-79308571D01*
X202883333Y-79332380D01*
X202835714Y-79356190D01*
X202692857Y-79356190D01*
X202645238Y-79332380D01*
X202621428Y-79308571D01*
%TO.C,R14*%
X165478571Y-43863448D02*
X165311904Y-43625353D01*
X165192857Y-43863448D02*
X165192857Y-43363448D01*
X165383333Y-43363448D01*
X165430952Y-43387258D01*
X165454761Y-43411067D01*
X165478571Y-43458686D01*
X165478571Y-43530115D01*
X165454761Y-43577734D01*
X165430952Y-43601543D01*
X165383333Y-43625353D01*
X165192857Y-43625353D01*
X165954761Y-43863448D02*
X165669047Y-43863448D01*
X165811904Y-43863448D02*
X165811904Y-43363448D01*
X165764285Y-43434877D01*
X165716666Y-43482496D01*
X165669047Y-43506305D01*
X166383333Y-43530115D02*
X166383333Y-43863448D01*
X166264285Y-43339638D02*
X166145238Y-43696781D01*
X166454761Y-43696781D01*
%TO.C,SW1*%
X200133333Y-52402380D02*
X200204761Y-52426190D01*
X200323809Y-52426190D01*
X200371428Y-52402380D01*
X200395238Y-52378571D01*
X200419047Y-52330952D01*
X200419047Y-52283333D01*
X200395238Y-52235714D01*
X200371428Y-52211904D01*
X200323809Y-52188095D01*
X200228571Y-52164285D01*
X200180952Y-52140476D01*
X200157142Y-52116666D01*
X200133333Y-52069047D01*
X200133333Y-52021428D01*
X200157142Y-51973809D01*
X200180952Y-51950000D01*
X200228571Y-51926190D01*
X200347619Y-51926190D01*
X200419047Y-51950000D01*
X200585714Y-51926190D02*
X200704761Y-52426190D01*
X200800000Y-52069047D01*
X200895238Y-52426190D01*
X201014285Y-51926190D01*
X201466666Y-52426190D02*
X201180952Y-52426190D01*
X201323809Y-52426190D02*
X201323809Y-51926190D01*
X201276190Y-51997619D01*
X201228571Y-52045238D01*
X201180952Y-52069047D01*
%TO.C,SW2*%
X198533333Y-61302380D02*
X198604761Y-61326190D01*
X198723809Y-61326190D01*
X198771428Y-61302380D01*
X198795238Y-61278571D01*
X198819047Y-61230952D01*
X198819047Y-61183333D01*
X198795238Y-61135714D01*
X198771428Y-61111904D01*
X198723809Y-61088095D01*
X198628571Y-61064285D01*
X198580952Y-61040476D01*
X198557142Y-61016666D01*
X198533333Y-60969047D01*
X198533333Y-60921428D01*
X198557142Y-60873809D01*
X198580952Y-60850000D01*
X198628571Y-60826190D01*
X198747619Y-60826190D01*
X198819047Y-60850000D01*
X198985714Y-60826190D02*
X199104761Y-61326190D01*
X199200000Y-60969047D01*
X199295238Y-61326190D01*
X199414285Y-60826190D01*
X199580952Y-60873809D02*
X199604761Y-60850000D01*
X199652380Y-60826190D01*
X199771428Y-60826190D01*
X199819047Y-60850000D01*
X199842857Y-60873809D01*
X199866666Y-60921428D01*
X199866666Y-60969047D01*
X199842857Y-61040476D01*
X199557142Y-61326190D01*
X199866666Y-61326190D01*
%TO.C,SW3*%
X155733333Y-47452380D02*
X155804761Y-47476190D01*
X155923809Y-47476190D01*
X155971428Y-47452380D01*
X155995238Y-47428571D01*
X156019047Y-47380952D01*
X156019047Y-47333333D01*
X155995238Y-47285714D01*
X155971428Y-47261904D01*
X155923809Y-47238095D01*
X155828571Y-47214285D01*
X155780952Y-47190476D01*
X155757142Y-47166666D01*
X155733333Y-47119047D01*
X155733333Y-47071428D01*
X155757142Y-47023809D01*
X155780952Y-47000000D01*
X155828571Y-46976190D01*
X155947619Y-46976190D01*
X156019047Y-47000000D01*
X156185714Y-46976190D02*
X156304761Y-47476190D01*
X156400000Y-47119047D01*
X156495238Y-47476190D01*
X156614285Y-46976190D01*
X156757142Y-46976190D02*
X157066666Y-46976190D01*
X156900000Y-47166666D01*
X156971428Y-47166666D01*
X157019047Y-47190476D01*
X157042857Y-47214285D01*
X157066666Y-47261904D01*
X157066666Y-47380952D01*
X157042857Y-47428571D01*
X157019047Y-47452380D01*
X156971428Y-47476190D01*
X156828571Y-47476190D01*
X156780952Y-47452380D01*
X156757142Y-47428571D01*
%TO.C,U1*%
X173369047Y-71976190D02*
X173369047Y-72380952D01*
X173392857Y-72428571D01*
X173416666Y-72452380D01*
X173464285Y-72476190D01*
X173559523Y-72476190D01*
X173607142Y-72452380D01*
X173630952Y-72428571D01*
X173654761Y-72380952D01*
X173654761Y-71976190D01*
X174154761Y-72476190D02*
X173869047Y-72476190D01*
X174011904Y-72476190D02*
X174011904Y-71976190D01*
X173964285Y-72047619D01*
X173916666Y-72095238D01*
X173869047Y-72119047D01*
%TO.C,U2*%
X171819047Y-95026190D02*
X171819047Y-95430952D01*
X171842857Y-95478571D01*
X171866666Y-95502380D01*
X171914285Y-95526190D01*
X172009523Y-95526190D01*
X172057142Y-95502380D01*
X172080952Y-95478571D01*
X172104761Y-95430952D01*
X172104761Y-95026190D01*
X172319047Y-95073809D02*
X172342857Y-95050000D01*
X172390476Y-95026190D01*
X172509523Y-95026190D01*
X172557142Y-95050000D01*
X172580952Y-95073809D01*
X172604761Y-95121428D01*
X172604761Y-95169047D01*
X172580952Y-95240476D01*
X172295238Y-95526190D01*
X172604761Y-95526190D01*
%TO.C,U3*%
X184919047Y-57026190D02*
X184919047Y-57430952D01*
X184942857Y-57478571D01*
X184966666Y-57502380D01*
X185014285Y-57526190D01*
X185109523Y-57526190D01*
X185157142Y-57502380D01*
X185180952Y-57478571D01*
X185204761Y-57430952D01*
X185204761Y-57026190D01*
X185395238Y-57026190D02*
X185704761Y-57026190D01*
X185538095Y-57216666D01*
X185609523Y-57216666D01*
X185657142Y-57240476D01*
X185680952Y-57264285D01*
X185704761Y-57311904D01*
X185704761Y-57430952D01*
X185680952Y-57478571D01*
X185657142Y-57502380D01*
X185609523Y-57526190D01*
X185466666Y-57526190D01*
X185419047Y-57502380D01*
X185395238Y-57478571D01*
%TO.C,U4*%
X158119047Y-81801190D02*
X158119047Y-82205952D01*
X158142857Y-82253571D01*
X158166666Y-82277380D01*
X158214285Y-82301190D01*
X158309523Y-82301190D01*
X158357142Y-82277380D01*
X158380952Y-82253571D01*
X158404761Y-82205952D01*
X158404761Y-81801190D01*
X158857142Y-81967857D02*
X158857142Y-82301190D01*
X158738095Y-81777380D02*
X158619047Y-82134523D01*
X158928571Y-82134523D01*
%TO.C,U5*%
X196419047Y-89326190D02*
X196419047Y-89730952D01*
X196442857Y-89778571D01*
X196466666Y-89802380D01*
X196514285Y-89826190D01*
X196609523Y-89826190D01*
X196657142Y-89802380D01*
X196680952Y-89778571D01*
X196704761Y-89730952D01*
X196704761Y-89326190D01*
X197180952Y-89326190D02*
X196942857Y-89326190D01*
X196919047Y-89564285D01*
X196942857Y-89540476D01*
X196990476Y-89516666D01*
X197109523Y-89516666D01*
X197157142Y-89540476D01*
X197180952Y-89564285D01*
X197204761Y-89611904D01*
X197204761Y-89730952D01*
X197180952Y-89778571D01*
X197157142Y-89802380D01*
X197109523Y-89826190D01*
X196990476Y-89826190D01*
X196942857Y-89802380D01*
X196919047Y-89778571D01*
%TO.C,U6*%
X161776190Y-57580952D02*
X162180952Y-57580952D01*
X162228571Y-57557142D01*
X162252380Y-57533333D01*
X162276190Y-57485714D01*
X162276190Y-57390476D01*
X162252380Y-57342857D01*
X162228571Y-57319047D01*
X162180952Y-57295238D01*
X161776190Y-57295238D01*
X161776190Y-56842857D02*
X161776190Y-56938095D01*
X161800000Y-56985714D01*
X161823809Y-57009523D01*
X161895238Y-57057142D01*
X161990476Y-57080952D01*
X162180952Y-57080952D01*
X162228571Y-57057142D01*
X162252380Y-57033333D01*
X162276190Y-56985714D01*
X162276190Y-56890476D01*
X162252380Y-56842857D01*
X162228571Y-56819047D01*
X162180952Y-56795238D01*
X162061904Y-56795238D01*
X162014285Y-56819047D01*
X161990476Y-56842857D01*
X161966666Y-56890476D01*
X161966666Y-56985714D01*
X161990476Y-57033333D01*
X162014285Y-57057142D01*
X162061904Y-57080952D01*
%TO.C,U7*%
X194969047Y-75926190D02*
X194969047Y-76330952D01*
X194992857Y-76378571D01*
X195016666Y-76402380D01*
X195064285Y-76426190D01*
X195159523Y-76426190D01*
X195207142Y-76402380D01*
X195230952Y-76378571D01*
X195254761Y-76330952D01*
X195254761Y-75926190D01*
X195445238Y-75926190D02*
X195778571Y-75926190D01*
X195564285Y-76426190D01*
%TO.C,Y1*%
X171761904Y-87788095D02*
X171761904Y-88026190D01*
X171595238Y-87526190D02*
X171761904Y-87788095D01*
X171928571Y-87526190D01*
X172357142Y-88026190D02*
X172071428Y-88026190D01*
X172214285Y-88026190D02*
X172214285Y-87526190D01*
X172166666Y-87597619D01*
X172119047Y-87645238D01*
X172071428Y-87669047D01*
%TO.C,J6*%
X174333333Y-45686190D02*
X174333333Y-46043333D01*
X174309523Y-46114761D01*
X174261904Y-46162380D01*
X174190476Y-46186190D01*
X174142857Y-46186190D01*
X174785714Y-45686190D02*
X174690476Y-45686190D01*
X174642857Y-45710000D01*
X174619047Y-45733809D01*
X174571428Y-45805238D01*
X174547619Y-45900476D01*
X174547619Y-46090952D01*
X174571428Y-46138571D01*
X174595238Y-46162380D01*
X174642857Y-46186190D01*
X174738095Y-46186190D01*
X174785714Y-46162380D01*
X174809523Y-46138571D01*
X174833333Y-46090952D01*
X174833333Y-45971904D01*
X174809523Y-45924285D01*
X174785714Y-45900476D01*
X174738095Y-45876666D01*
X174642857Y-45876666D01*
X174595238Y-45900476D01*
X174571428Y-45924285D01*
X174547619Y-45971904D01*
%TO.C,JP1*%
X172183333Y-90726190D02*
X172183333Y-91083333D01*
X172159523Y-91154761D01*
X172111904Y-91202380D01*
X172040476Y-91226190D01*
X171992857Y-91226190D01*
X172421428Y-91226190D02*
X172421428Y-90726190D01*
X172611904Y-90726190D01*
X172659523Y-90750000D01*
X172683333Y-90773809D01*
X172707142Y-90821428D01*
X172707142Y-90892857D01*
X172683333Y-90940476D01*
X172659523Y-90964285D01*
X172611904Y-90988095D01*
X172421428Y-90988095D01*
X173183333Y-91226190D02*
X172897619Y-91226190D01*
X173040476Y-91226190D02*
X173040476Y-90726190D01*
X172992857Y-90797619D01*
X172945238Y-90845238D01*
X172897619Y-90869047D01*
%TO.C,TP1*%
X164469047Y-93726190D02*
X164754761Y-93726190D01*
X164611904Y-94226190D02*
X164611904Y-93726190D01*
X164921428Y-94226190D02*
X164921428Y-93726190D01*
X165111904Y-93726190D01*
X165159523Y-93750000D01*
X165183333Y-93773809D01*
X165207142Y-93821428D01*
X165207142Y-93892857D01*
X165183333Y-93940476D01*
X165159523Y-93964285D01*
X165111904Y-93988095D01*
X164921428Y-93988095D01*
X165683333Y-94226190D02*
X165397619Y-94226190D01*
X165540476Y-94226190D02*
X165540476Y-93726190D01*
X165492857Y-93797619D01*
X165445238Y-93845238D01*
X165397619Y-93869047D01*
%TO.C,TP2*%
X178769047Y-94626190D02*
X179054761Y-94626190D01*
X178911904Y-95126190D02*
X178911904Y-94626190D01*
X179221428Y-95126190D02*
X179221428Y-94626190D01*
X179411904Y-94626190D01*
X179459523Y-94650000D01*
X179483333Y-94673809D01*
X179507142Y-94721428D01*
X179507142Y-94792857D01*
X179483333Y-94840476D01*
X179459523Y-94864285D01*
X179411904Y-94888095D01*
X179221428Y-94888095D01*
X179697619Y-94673809D02*
X179721428Y-94650000D01*
X179769047Y-94626190D01*
X179888095Y-94626190D01*
X179935714Y-94650000D01*
X179959523Y-94673809D01*
X179983333Y-94721428D01*
X179983333Y-94769047D01*
X179959523Y-94840476D01*
X179673809Y-95126190D01*
X179983333Y-95126190D01*
%TO.C,R1*%
X176616666Y-99726190D02*
X176450000Y-99488095D01*
X176330952Y-99726190D02*
X176330952Y-99226190D01*
X176521428Y-99226190D01*
X176569047Y-99250000D01*
X176592857Y-99273809D01*
X176616666Y-99321428D01*
X176616666Y-99392857D01*
X176592857Y-99440476D01*
X176569047Y-99464285D01*
X176521428Y-99488095D01*
X176330952Y-99488095D01*
X177092857Y-99726190D02*
X176807142Y-99726190D01*
X176950000Y-99726190D02*
X176950000Y-99226190D01*
X176902380Y-99297619D01*
X176854761Y-99345238D01*
X176807142Y-99369047D01*
%TO.C,TP3*%
X179669047Y-90026190D02*
X179954761Y-90026190D01*
X179811904Y-90526190D02*
X179811904Y-90026190D01*
X180121428Y-90526190D02*
X180121428Y-90026190D01*
X180311904Y-90026190D01*
X180359523Y-90050000D01*
X180383333Y-90073809D01*
X180407142Y-90121428D01*
X180407142Y-90192857D01*
X180383333Y-90240476D01*
X180359523Y-90264285D01*
X180311904Y-90288095D01*
X180121428Y-90288095D01*
X180573809Y-90026190D02*
X180883333Y-90026190D01*
X180716666Y-90216666D01*
X180788095Y-90216666D01*
X180835714Y-90240476D01*
X180859523Y-90264285D01*
X180883333Y-90311904D01*
X180883333Y-90430952D01*
X180859523Y-90478571D01*
X180835714Y-90502380D01*
X180788095Y-90526190D01*
X180645238Y-90526190D01*
X180597619Y-90502380D01*
X180573809Y-90478571D01*
%TO.C,TP5*%
X193669047Y-94826190D02*
X193954761Y-94826190D01*
X193811904Y-95326190D02*
X193811904Y-94826190D01*
X194121428Y-95326190D02*
X194121428Y-94826190D01*
X194311904Y-94826190D01*
X194359523Y-94850000D01*
X194383333Y-94873809D01*
X194407142Y-94921428D01*
X194407142Y-94992857D01*
X194383333Y-95040476D01*
X194359523Y-95064285D01*
X194311904Y-95088095D01*
X194121428Y-95088095D01*
X194859523Y-94826190D02*
X194621428Y-94826190D01*
X194597619Y-95064285D01*
X194621428Y-95040476D01*
X194669047Y-95016666D01*
X194788095Y-95016666D01*
X194835714Y-95040476D01*
X194859523Y-95064285D01*
X194883333Y-95111904D01*
X194883333Y-95230952D01*
X194859523Y-95278571D01*
X194835714Y-95302380D01*
X194788095Y-95326190D01*
X194669047Y-95326190D01*
X194621428Y-95302380D01*
X194597619Y-95278571D01*
%TO.C,TP6*%
X164769047Y-66626190D02*
X165054761Y-66626190D01*
X164911904Y-67126190D02*
X164911904Y-66626190D01*
X165221428Y-67126190D02*
X165221428Y-66626190D01*
X165411904Y-66626190D01*
X165459523Y-66650000D01*
X165483333Y-66673809D01*
X165507142Y-66721428D01*
X165507142Y-66792857D01*
X165483333Y-66840476D01*
X165459523Y-66864285D01*
X165411904Y-66888095D01*
X165221428Y-66888095D01*
X165935714Y-66626190D02*
X165840476Y-66626190D01*
X165792857Y-66650000D01*
X165769047Y-66673809D01*
X165721428Y-66745238D01*
X165697619Y-66840476D01*
X165697619Y-67030952D01*
X165721428Y-67078571D01*
X165745238Y-67102380D01*
X165792857Y-67126190D01*
X165888095Y-67126190D01*
X165935714Y-67102380D01*
X165959523Y-67078571D01*
X165983333Y-67030952D01*
X165983333Y-66911904D01*
X165959523Y-66864285D01*
X165935714Y-66840476D01*
X165888095Y-66816666D01*
X165792857Y-66816666D01*
X165745238Y-66840476D01*
X165721428Y-66864285D01*
X165697619Y-66911904D01*
%TO.C,TP7*%
X160069047Y-74926190D02*
X160354761Y-74926190D01*
X160211904Y-75426190D02*
X160211904Y-74926190D01*
X160521428Y-75426190D02*
X160521428Y-74926190D01*
X160711904Y-74926190D01*
X160759523Y-74950000D01*
X160783333Y-74973809D01*
X160807142Y-75021428D01*
X160807142Y-75092857D01*
X160783333Y-75140476D01*
X160759523Y-75164285D01*
X160711904Y-75188095D01*
X160521428Y-75188095D01*
X160973809Y-74926190D02*
X161307142Y-74926190D01*
X161092857Y-75426190D01*
%TO.C,J7*%
X202633333Y-60026190D02*
X202633333Y-60383333D01*
X202609523Y-60454761D01*
X202561904Y-60502380D01*
X202490476Y-60526190D01*
X202442857Y-60526190D01*
X202823809Y-60026190D02*
X203157142Y-60026190D01*
X202942857Y-60526190D01*
%TO.C,R15*%
X180278571Y-65626190D02*
X180111904Y-65388095D01*
X179992857Y-65626190D02*
X179992857Y-65126190D01*
X180183333Y-65126190D01*
X180230952Y-65150000D01*
X180254761Y-65173809D01*
X180278571Y-65221428D01*
X180278571Y-65292857D01*
X180254761Y-65340476D01*
X180230952Y-65364285D01*
X180183333Y-65388095D01*
X179992857Y-65388095D01*
X180754761Y-65626190D02*
X180469047Y-65626190D01*
X180611904Y-65626190D02*
X180611904Y-65126190D01*
X180564285Y-65197619D01*
X180516666Y-65245238D01*
X180469047Y-65269047D01*
X181207142Y-65126190D02*
X180969047Y-65126190D01*
X180945238Y-65364285D01*
X180969047Y-65340476D01*
X181016666Y-65316666D01*
X181135714Y-65316666D01*
X181183333Y-65340476D01*
X181207142Y-65364285D01*
X181230952Y-65411904D01*
X181230952Y-65530952D01*
X181207142Y-65578571D01*
X181183333Y-65602380D01*
X181135714Y-65626190D01*
X181016666Y-65626190D01*
X180969047Y-65602380D01*
X180945238Y-65578571D01*
%TO.C,C24*%
X186478571Y-71978571D02*
X186454761Y-72002380D01*
X186383333Y-72026190D01*
X186335714Y-72026190D01*
X186264285Y-72002380D01*
X186216666Y-71954761D01*
X186192857Y-71907142D01*
X186169047Y-71811904D01*
X186169047Y-71740476D01*
X186192857Y-71645238D01*
X186216666Y-71597619D01*
X186264285Y-71550000D01*
X186335714Y-71526190D01*
X186383333Y-71526190D01*
X186454761Y-71550000D01*
X186478571Y-71573809D01*
X186669047Y-71573809D02*
X186692857Y-71550000D01*
X186740476Y-71526190D01*
X186859523Y-71526190D01*
X186907142Y-71550000D01*
X186930952Y-71573809D01*
X186954761Y-71621428D01*
X186954761Y-71669047D01*
X186930952Y-71740476D01*
X186645238Y-72026190D01*
X186954761Y-72026190D01*
X187383333Y-71692857D02*
X187383333Y-72026190D01*
X187264285Y-71502380D02*
X187145238Y-71859523D01*
X187454761Y-71859523D01*
%TO.C,R16*%
X178178571Y-65626190D02*
X178011904Y-65388095D01*
X177892857Y-65626190D02*
X177892857Y-65126190D01*
X178083333Y-65126190D01*
X178130952Y-65150000D01*
X178154761Y-65173809D01*
X178178571Y-65221428D01*
X178178571Y-65292857D01*
X178154761Y-65340476D01*
X178130952Y-65364285D01*
X178083333Y-65388095D01*
X177892857Y-65388095D01*
X178654761Y-65626190D02*
X178369047Y-65626190D01*
X178511904Y-65626190D02*
X178511904Y-65126190D01*
X178464285Y-65197619D01*
X178416666Y-65245238D01*
X178369047Y-65269047D01*
X179083333Y-65126190D02*
X178988095Y-65126190D01*
X178940476Y-65150000D01*
X178916666Y-65173809D01*
X178869047Y-65245238D01*
X178845238Y-65340476D01*
X178845238Y-65530952D01*
X178869047Y-65578571D01*
X178892857Y-65602380D01*
X178940476Y-65626190D01*
X179035714Y-65626190D01*
X179083333Y-65602380D01*
X179107142Y-65578571D01*
X179130952Y-65530952D01*
X179130952Y-65411904D01*
X179107142Y-65364285D01*
X179083333Y-65340476D01*
X179035714Y-65316666D01*
X178940476Y-65316666D01*
X178892857Y-65340476D01*
X178869047Y-65364285D01*
X178845238Y-65411904D01*
%TO.C,JP2*%
X173483333Y-93326190D02*
X173483333Y-93683333D01*
X173459523Y-93754761D01*
X173411904Y-93802380D01*
X173340476Y-93826190D01*
X173292857Y-93826190D01*
X173721428Y-93826190D02*
X173721428Y-93326190D01*
X173911904Y-93326190D01*
X173959523Y-93350000D01*
X173983333Y-93373809D01*
X174007142Y-93421428D01*
X174007142Y-93492857D01*
X173983333Y-93540476D01*
X173959523Y-93564285D01*
X173911904Y-93588095D01*
X173721428Y-93588095D01*
X174197619Y-93373809D02*
X174221428Y-93350000D01*
X174269047Y-93326190D01*
X174388095Y-93326190D01*
X174435714Y-93350000D01*
X174459523Y-93373809D01*
X174483333Y-93421428D01*
X174483333Y-93469047D01*
X174459523Y-93540476D01*
X174173809Y-93826190D01*
X174483333Y-93826190D01*
D10*
%TO.C,TP4*%
X190600000Y-66500000D02*
G75*
G03*
X190600000Y-66500000I-1500000J0D01*
G01*
%TO.C,R17*%
X188162742Y-57277500D02*
X188637258Y-57277500D01*
X188162742Y-58322500D02*
X188637258Y-58322500D01*
%TO.C,USB*%
X190010000Y-53585000D02*
X189207530Y-53585000D01*
X188592470Y-53585000D02*
X187790000Y-53585000D01*
X190010000Y-54790000D02*
X190010000Y-53585000D01*
X187790000Y-54790000D02*
X187790000Y-53585000D01*
X190010000Y-54790000D02*
X189463471Y-54790000D01*
X188336529Y-54790000D02*
X187790000Y-54790000D01*
X190010000Y-55550000D02*
X190010000Y-56310000D01*
X190010000Y-56310000D02*
X188900000Y-56310000D01*
%TO.C,C1*%
X170140580Y-72710000D02*
X169859420Y-72710000D01*
X170140580Y-71690000D02*
X169859420Y-71690000D01*
%TO.C,C2*%
X183459420Y-79010000D02*
X183740580Y-79010000D01*
X183459420Y-77990000D02*
X183740580Y-77990000D01*
%TO.C,C3*%
X183059420Y-72890000D02*
X183340580Y-72890000D01*
X183059420Y-73910000D02*
X183340580Y-73910000D01*
%TO.C,C4*%
X177210000Y-68240580D02*
X177210000Y-67959420D01*
X176190000Y-68240580D02*
X176190000Y-67959420D01*
%TO.C,C5*%
X176690000Y-84559420D02*
X176690000Y-84840580D01*
X177710000Y-84559420D02*
X177710000Y-84840580D01*
%TO.C,C6*%
X169540580Y-76990000D02*
X169259420Y-76990000D01*
X169540580Y-78010000D02*
X169259420Y-78010000D01*
%TO.C,C7*%
X183059420Y-74590000D02*
X183340580Y-74590000D01*
X183059420Y-75610000D02*
X183340580Y-75610000D01*
%TO.C,C8*%
X170140580Y-74810000D02*
X169859420Y-74810000D01*
X170140580Y-73790000D02*
X169859420Y-73790000D01*
%TO.C,C9*%
X179710000Y-101940580D02*
X179710000Y-101659420D01*
X178690000Y-101940580D02*
X178690000Y-101659420D01*
%TO.C,C10*%
X179790000Y-84559420D02*
X179790000Y-84840580D01*
X180810000Y-84559420D02*
X180810000Y-84840580D01*
%TO.C,C11*%
X174390000Y-68240580D02*
X174390000Y-67959420D01*
X175410000Y-68240580D02*
X175410000Y-67959420D01*
%TO.C,C12*%
X183859420Y-68490000D02*
X184140580Y-68490000D01*
X183859420Y-69510000D02*
X184140580Y-69510000D01*
%TO.C,C13*%
X190510000Y-98134420D02*
X190510000Y-98415580D01*
X189490000Y-98134420D02*
X189490000Y-98415580D01*
%TO.C,C14*%
X159140580Y-84665000D02*
X158859420Y-84665000D01*
X159140580Y-85685000D02*
X158859420Y-85685000D01*
%TO.C,C15*%
X183459420Y-56610000D02*
X183740580Y-56610000D01*
X183459420Y-55590000D02*
X183740580Y-55590000D01*
%TO.C,C16*%
X162859420Y-84665000D02*
X163140580Y-84665000D01*
X162859420Y-85685000D02*
X163140580Y-85685000D01*
%TO.C,C17*%
X199084420Y-82490000D02*
X199365580Y-82490000D01*
X199084420Y-83510000D02*
X199365580Y-83510000D01*
%TO.C,C18*%
X199084420Y-88010000D02*
X199365580Y-88010000D01*
X199084420Y-86990000D02*
X199365580Y-86990000D01*
%TO.C,C19*%
X151990000Y-54259420D02*
X151990000Y-54540580D01*
X153010000Y-54259420D02*
X153010000Y-54540580D01*
%TO.C,C20*%
X169435000Y-85334420D02*
X169435000Y-85615580D01*
X168415000Y-85334420D02*
X168415000Y-85615580D01*
%TO.C,C21*%
X174615000Y-85665580D02*
X174615000Y-85384420D01*
X175635000Y-85665580D02*
X175635000Y-85384420D01*
%TO.C,C22*%
X171959420Y-58090000D02*
X172240580Y-58090000D01*
X171959420Y-59110000D02*
X172240580Y-59110000D01*
%TO.C,C23*%
X172059420Y-51890000D02*
X172340580Y-51890000D01*
X172059420Y-52910000D02*
X172340580Y-52910000D01*
%TO.C,D1*%
X165500000Y-96350000D02*
X165500000Y-94650000D01*
X165500000Y-96350000D02*
X162950000Y-96350000D01*
X165500000Y-94650000D02*
X162950000Y-94650000D01*
%TO.C,D2*%
X170665000Y-103285000D02*
X172135000Y-103285000D01*
X170665000Y-101000000D02*
X170665000Y-103285000D01*
X172135000Y-103285000D02*
X172135000Y-101000000D01*
%TO.C,D3*%
X190850000Y-94500000D02*
X190850000Y-91950000D01*
X189150000Y-94500000D02*
X190850000Y-94500000D01*
X189150000Y-94500000D02*
X189150000Y-91950000D01*
%TO.C,J1*%
X150000000Y-95000000D02*
X150000000Y-104000000D01*
X159000000Y-95000000D02*
X150000000Y-95000000D01*
X150000000Y-104000000D02*
X159000000Y-104000000D01*
X159000000Y-104000000D02*
X159000000Y-95000000D01*
%TO.C,J2*%
X200010000Y-103610000D02*
X202485000Y-103610000D01*
X200010000Y-101390000D02*
X202485000Y-101390000D01*
X200010000Y-101936529D02*
X200010000Y-101390000D01*
X198490000Y-103610000D02*
X198490000Y-102500000D01*
X199250000Y-103610000D02*
X198490000Y-103610000D01*
X202485000Y-102192470D02*
X202485000Y-101390000D01*
X202485000Y-103610000D02*
X202485000Y-102807530D01*
X200010000Y-103610000D02*
X200010000Y-103063471D01*
%TO.C,J3*%
X184290000Y-102036529D02*
X184290000Y-101905000D01*
X182400000Y-102600000D02*
X182400000Y-101840000D01*
X182400000Y-103360000D02*
X182966529Y-103360000D01*
X182400000Y-103360000D02*
X182400000Y-103295000D01*
X185930000Y-101905000D02*
X185930000Y-103295000D01*
X184290000Y-101905000D02*
X184492470Y-101905000D01*
X184290000Y-103306529D02*
X184290000Y-103163471D01*
X185107530Y-101905000D02*
X185930000Y-101905000D01*
X182400000Y-103360000D02*
X185930000Y-103360000D01*
X184093471Y-103360000D02*
X184236529Y-103360000D01*
X182400000Y-101840000D02*
X183530000Y-101840000D01*
%TO.C,J4*%
X189495000Y-101390000D02*
X189495000Y-102192470D01*
X194000000Y-101390000D02*
X194760000Y-101390000D01*
X193240000Y-103610000D02*
X189495000Y-103610000D01*
X193240000Y-101390000D02*
X189495000Y-101390000D01*
X189495000Y-102807530D02*
X189495000Y-103610000D01*
X193240000Y-103063471D02*
X193240000Y-103610000D01*
X194760000Y-101390000D02*
X194760000Y-102500000D01*
X193240000Y-101390000D02*
X193240000Y-101936529D01*
%TO.C,J5*%
X184765000Y-88265000D02*
X184830000Y-88265000D01*
X184830000Y-89590000D02*
X184830000Y-88265000D01*
X191170000Y-88265000D02*
X191235000Y-88265000D01*
X184765000Y-88265000D02*
X184765000Y-84735000D01*
X191235000Y-88265000D02*
X191235000Y-84735000D01*
X191170000Y-84735000D02*
X191235000Y-84735000D01*
X184765000Y-84735000D02*
X184830000Y-84735000D01*
%TO.C,L1*%
X172010000Y-55862779D02*
X172010000Y-55537221D01*
X170990000Y-55862779D02*
X170990000Y-55537221D01*
%TO.C,Q1*%
X184760000Y-95530000D02*
X183300000Y-95530000D01*
X184760000Y-92370000D02*
X184760000Y-93300000D01*
X184760000Y-95530000D02*
X184760000Y-94600000D01*
X184760000Y-92370000D02*
X182600000Y-92370000D01*
%TO.C,Q2*%
X196580000Y-62740000D02*
X195650000Y-62740000D01*
X193420000Y-62740000D02*
X193420000Y-64900000D01*
X193420000Y-62740000D02*
X194350000Y-62740000D01*
X196580000Y-62740000D02*
X196580000Y-64200000D01*
%TO.C,R2*%
X171722500Y-96937258D02*
X171722500Y-96462742D01*
X170677500Y-96937258D02*
X170677500Y-96462742D01*
%TO.C,R3*%
X173477500Y-102062258D02*
X173477500Y-101587742D01*
X174522500Y-102062258D02*
X174522500Y-101587742D01*
%TO.C,R4*%
X188162742Y-59777500D02*
X188637258Y-59777500D01*
X188162742Y-60822500D02*
X188637258Y-60822500D01*
%TO.C,R5*%
X193022500Y-54137258D02*
X193022500Y-53662742D01*
X191977500Y-54137258D02*
X191977500Y-53662742D01*
%TO.C,R6*%
X193437742Y-92522500D02*
X193912258Y-92522500D01*
X193437742Y-91477500D02*
X193912258Y-91477500D01*
%TO.C,R7*%
X199412258Y-97977500D02*
X198937742Y-97977500D01*
X199412258Y-99022500D02*
X198937742Y-99022500D01*
%TO.C,R8*%
X160862742Y-76997500D02*
X161337258Y-76997500D01*
X160862742Y-75952500D02*
X161337258Y-75952500D01*
%TO.C,R9*%
X160862742Y-78052500D02*
X161337258Y-78052500D01*
X160862742Y-79097500D02*
X161337258Y-79097500D01*
%TO.C,R10*%
X159222500Y-67562742D02*
X159222500Y-68037258D01*
X158177500Y-67562742D02*
X158177500Y-68037258D01*
%TO.C,R11*%
X202537258Y-74577500D02*
X202062742Y-74577500D01*
X202537258Y-75622500D02*
X202062742Y-75622500D01*
%TO.C,R12*%
X161522500Y-68562742D02*
X161522500Y-69037258D01*
X160477500Y-68562742D02*
X160477500Y-69037258D01*
%TO.C,R13*%
X202537258Y-78222500D02*
X202062742Y-78222500D01*
X202537258Y-77177500D02*
X202062742Y-77177500D01*
%TO.C,R14*%
X164722500Y-43637258D02*
X164722500Y-43162742D01*
X163677500Y-43637258D02*
X163677500Y-43162742D01*
%TO.C,SW1*%
X202300000Y-49630000D02*
X199700000Y-49630000D01*
X204200000Y-43170000D02*
X204230000Y-43170000D01*
X204230000Y-49630000D02*
X204200000Y-49630000D01*
X202300000Y-43170000D02*
X199700000Y-43170000D01*
X197770000Y-43170000D02*
X197800000Y-43170000D01*
X197770000Y-49630000D02*
X197800000Y-49630000D01*
X204230000Y-43170000D02*
X204230000Y-49630000D01*
X197770000Y-43170000D02*
X197770000Y-49630000D01*
%TO.C,SW2*%
X204230000Y-70230000D02*
X204200000Y-70230000D01*
X197770000Y-63770000D02*
X197770000Y-70230000D01*
X197770000Y-70230000D02*
X197800000Y-70230000D01*
X202300000Y-70230000D02*
X199700000Y-70230000D01*
X197770000Y-63770000D02*
X197800000Y-63770000D01*
X202300000Y-63770000D02*
X199700000Y-63770000D01*
X204200000Y-63770000D02*
X204230000Y-63770000D01*
X204230000Y-63770000D02*
X204230000Y-70230000D01*
%TO.C,SW3*%
X153170000Y-46430000D02*
X153170000Y-46400000D01*
X159630000Y-44500000D02*
X159630000Y-41900000D01*
X159630000Y-46430000D02*
X153170000Y-46430000D01*
X153170000Y-39970000D02*
X153170000Y-40000000D01*
X159630000Y-39970000D02*
X159630000Y-40000000D01*
X153170000Y-44500000D02*
X153170000Y-41900000D01*
X159630000Y-39970000D02*
X153170000Y-39970000D01*
X159630000Y-46400000D02*
X159630000Y-46430000D01*
D13*
%TO.C,U1*%
X180500000Y-80500000D02*
X180020000Y-80500000D01*
X180500000Y-73500000D02*
X180500000Y-73980000D01*
X180500000Y-80500000D02*
X180500000Y-80020000D01*
X173500000Y-73500000D02*
X173500000Y-73980000D01*
X180500000Y-73500000D02*
X180020000Y-73500000D01*
X173500000Y-80500000D02*
X173980000Y-80500000D01*
X173500000Y-73500000D02*
X173980000Y-73500000D01*
X173500000Y-80500000D02*
X173500000Y-80020000D01*
D14*
X172625000Y-74400000D02*
G75*
G03*
X172625000Y-74400000I-100000J0D01*
G01*
D10*
%TO.C,U2*%
X173390000Y-96000000D02*
X173390000Y-98450000D01*
X176610000Y-97800000D02*
X176610000Y-96000000D01*
%TO.C,U3*%
X181500000Y-58275000D02*
X184225000Y-58275000D01*
X178775000Y-58275000D02*
X178775000Y-58535000D01*
X184225000Y-58275000D02*
X184225000Y-58535000D01*
X184225000Y-63465000D02*
X185900000Y-63465000D01*
X181500000Y-63725000D02*
X184225000Y-63725000D01*
X181500000Y-63725000D02*
X178775000Y-63725000D01*
X184225000Y-63725000D02*
X184225000Y-63465000D01*
X178775000Y-63725000D02*
X178775000Y-63465000D01*
X181500000Y-58275000D02*
X178775000Y-58275000D01*
D15*
%TO.C,U4*%
X162250000Y-80675000D02*
X162400000Y-80675000D01*
X162400000Y-83375000D02*
X162250000Y-83375000D01*
X159700000Y-83385000D02*
X159850000Y-83385000D01*
X162400000Y-80675000D02*
X162400000Y-80825000D01*
X159700000Y-80825000D02*
X159700000Y-80575000D01*
X159700000Y-83375000D02*
X159700000Y-83225000D01*
X162400000Y-83375000D02*
X162400000Y-83225000D01*
D10*
%TO.C,U5*%
X197740000Y-91500000D02*
X197740000Y-93950000D01*
X200960000Y-93300000D02*
X200960000Y-91500000D01*
D11*
%TO.C,U6*%
X167800000Y-51200000D02*
X167800000Y-63200000D01*
X155800000Y-63200000D02*
X155800000Y-51200000D01*
X155800000Y-51200000D02*
X167800000Y-51200000D01*
X167800000Y-63200000D02*
X155800000Y-63200000D01*
X155182353Y-52040000D02*
G75*
G03*
X155182353Y-52040000I-362353J0D01*
G01*
D10*
%TO.C,U7*%
X200010000Y-77100000D02*
X200010000Y-75300000D01*
X196790000Y-75300000D02*
X196790000Y-77750000D01*
%TO.C,Y1*%
X170650000Y-85500000D02*
X170650000Y-86640000D01*
%TO.C,J6*%
X177750000Y-45710000D02*
X177500000Y-45210000D01*
X177250000Y-45710000D02*
X177750000Y-45710000D01*
X177500000Y-45210000D02*
X177250000Y-45710000D01*
%TO.C,JP1*%
X171900000Y-88300000D02*
X173300000Y-88300000D01*
X171200000Y-89600000D02*
X171200000Y-89000000D01*
X174000000Y-89000000D02*
X174000000Y-89600000D01*
X173300000Y-90300000D02*
X171900000Y-90300000D01*
X171200000Y-89600000D02*
G75*
G03*
X171900000Y-90300000I699999J-1D01*
G01*
X174000000Y-89000000D02*
G75*
G03*
X173300000Y-88300000I-699999J1D01*
G01*
X171900000Y-88300000D02*
G75*
G03*
X171200000Y-89000000I-1J-699999D01*
G01*
X173300000Y-90300000D02*
G75*
G03*
X174000000Y-89600000I1J699999D01*
G01*
%TO.C,TP1*%
X169800000Y-93900000D02*
G75*
G03*
X169800000Y-93900000I-1500000J0D01*
G01*
%TO.C,TP2*%
X180900000Y-97400000D02*
G75*
G03*
X180900000Y-97400000I-1500000J0D01*
G01*
%TO.C,R1*%
X176077500Y-102037258D02*
X176077500Y-101562742D01*
X177122500Y-102037258D02*
X177122500Y-101562742D01*
%TO.C,TP3*%
X179200000Y-89300000D02*
G75*
G03*
X179200000Y-89300000I-1500000J0D01*
G01*
%TO.C,TP5*%
X194700000Y-97400000D02*
G75*
G03*
X194700000Y-97400000I-1500000J0D01*
G01*
%TO.C,TP6*%
X166900000Y-69500000D02*
G75*
G03*
X166900000Y-69500000I-1500000J0D01*
G01*
%TO.C,TP7*%
X162100000Y-72700000D02*
G75*
G03*
X162100000Y-72700000I-1500000J0D01*
G01*
%TO.C,J7*%
X203363471Y-55260000D02*
X203910000Y-55260000D01*
X201690000Y-53740000D02*
X202800000Y-53740000D01*
X201690000Y-59005000D02*
X202492470Y-59005000D01*
X203910000Y-55260000D02*
X203910000Y-59005000D01*
X201690000Y-54500000D02*
X201690000Y-53740000D01*
X201690000Y-55260000D02*
X201690000Y-59005000D01*
X201690000Y-55260000D02*
X202236529Y-55260000D01*
X203107530Y-59005000D02*
X203910000Y-59005000D01*
%TO.C,R15*%
X180922500Y-68337258D02*
X180922500Y-67862742D01*
X179877500Y-68337258D02*
X179877500Y-67862742D01*
%TO.C,C24*%
X183059420Y-71190000D02*
X183340580Y-71190000D01*
X183059420Y-72210000D02*
X183340580Y-72210000D01*
%TO.C,R16*%
X178077500Y-68337258D02*
X178077500Y-67862742D01*
X179122500Y-68337258D02*
X179122500Y-67862742D01*
%TO.C,JP2*%
X177000000Y-92350000D02*
X177000000Y-93750000D01*
X176300000Y-94450000D02*
X175700000Y-94450000D01*
X175000000Y-93750000D02*
X175000000Y-92350000D01*
X175700000Y-91650000D02*
X176300000Y-91650000D01*
X175000000Y-93750000D02*
G75*
G03*
X175700000Y-94450000I699999J-1D01*
G01*
X177000000Y-92350000D02*
G75*
G03*
X176300000Y-91650000I-699999J1D01*
G01*
X175700000Y-91650000D02*
G75*
G03*
X175000000Y-92350000I-1J-699999D01*
G01*
X176300000Y-94450000D02*
G75*
G03*
X177000000Y-93750000I1J699999D01*
G01*
%TD*%
M02*
