%TF.GenerationSoftware,KiCad,Pcbnew,6.0.2-378541a8eb~116~ubuntu20.04.1*%
%TF.CreationDate,2022-03-08T20:01:38-08:00*%
%TF.ProjectId,RP2040_WEDS,52503230-3430-45f5-9745-44532e6b6963,rev?*%
%TF.SameCoordinates,Original*%
%TF.FileFunction,Copper,L2,Bot*%
%TF.FilePolarity,Positive*%
%FSLAX46Y46*%
G04 Gerber Fmt 4.6, Leading zero omitted, Abs format (unit mm)*
G04 Created by KiCad (PCBNEW 6.0.2-378541a8eb~116~ubuntu20.04.1) date 2022-03-08 20:01:38*
%MOMM*%
%LPD*%
G01*
G04 APERTURE LIST*
%TA.AperFunction,ComponentPad*%
%ADD10R,1.000000X1.000000*%
%TD*%
%TA.AperFunction,ComponentPad*%
%ADD11O,1.000000X1.000000*%
%TD*%
%TA.AperFunction,ComponentPad*%
%ADD12O,1.700000X1.700000*%
%TD*%
%TA.AperFunction,ComponentPad*%
%ADD13R,1.700000X1.700000*%
%TD*%
%TA.AperFunction,SMDPad,CuDef*%
%ADD14R,1.500000X5.080000*%
%TD*%
%TA.AperFunction,ComponentPad*%
%ADD15C,2.000000*%
%TD*%
%TA.AperFunction,ViaPad*%
%ADD16C,0.800000*%
%TD*%
%TA.AperFunction,ViaPad*%
%ADD17C,0.600000*%
%TD*%
%TA.AperFunction,Conductor*%
%ADD18C,2.000000*%
%TD*%
%TA.AperFunction,Conductor*%
%ADD19C,0.350000*%
%TD*%
%TA.AperFunction,Conductor*%
%ADD20C,0.200000*%
%TD*%
%TA.AperFunction,Conductor*%
%ADD21C,0.250000*%
%TD*%
G04 APERTURE END LIST*
D10*
%TO.P,J4,1,Pin_1*%
%TO.N,+3V3*%
X163470000Y-117250000D03*
D11*
%TO.P,J4,2,Pin_2*%
%TO.N,SWD_DIO*%
X162200000Y-117250000D03*
%TO.P,J4,3,Pin_3*%
%TO.N,GND*%
X163470000Y-115980000D03*
%TO.P,J4,4,Pin_4*%
%TO.N,SWD_CLK*%
X162200000Y-115980000D03*
%TO.P,J4,5,Pin_5*%
%TO.N,GND*%
X163470000Y-114710000D03*
%TO.P,J4,6,Pin_6*%
%TO.N,unconnected-(J4-Pad6)*%
X162200000Y-114710000D03*
%TO.P,J4,7,Pin_7*%
%TO.N,GND*%
X163470000Y-113440000D03*
%TO.P,J4,8,Pin_8*%
%TO.N,unconnected-(J4-Pad8)*%
X162200000Y-113440000D03*
%TO.P,J4,9,Pin_9*%
%TO.N,GND*%
X163470000Y-112170000D03*
%TO.P,J4,10,Pin_10*%
%TO.N,RESET*%
X162200000Y-112170000D03*
%TD*%
D12*
%TO.P,J5,3,Pin_3*%
%TO.N,GND*%
X166295000Y-131600000D03*
%TO.P,J5,2,Pin_2*%
%TO.N,SOIL_SIG*%
X168835000Y-131600000D03*
D13*
%TO.P,J5,1,Pin_1*%
%TO.N,Net-(J5-Pad1)*%
X171375000Y-131600000D03*
%TD*%
D12*
%TO.P,J3,4,Pin_4*%
%TO.N,SDA_SOIL*%
X153905000Y-131600000D03*
%TO.P,J3,3,Pin_3*%
%TO.N,SCL_SOIL*%
X156445000Y-131600000D03*
%TO.P,J3,2,Pin_2*%
%TO.N,GND*%
X158985000Y-131600000D03*
D13*
%TO.P,J3,1,Pin_1*%
%TO.N,Net-(J3-Pad1)*%
X161525000Y-131600000D03*
%TD*%
D14*
%TO.P,J8,4*%
%TO.N,GND*%
X143080000Y-71055000D03*
%TO.P,J8,5*%
X151580000Y-71055000D03*
%TD*%
D15*
%TO.P,TP5,1,1*%
%TO.N,VDC*%
X133595000Y-124900000D03*
%TD*%
%TO.P,TP1,1,1*%
%TO.N,+3V3*%
X167645000Y-112250000D03*
%TD*%
%TO.P,TP7,1,1*%
%TO.N,LORA_TX*%
X132145000Y-97700000D03*
%TD*%
%TO.P,TP8,1,1*%
%TO.N,LORA_RX*%
X132145000Y-103600000D03*
%TD*%
%TO.P,TP6,1,1*%
%TO.N,Net-(C18-Pad1)*%
X160845000Y-125000000D03*
%TD*%
%TO.P,TP2,1,1*%
%TO.N,VDD*%
X160145000Y-102100000D03*
%TD*%
D13*
%TO.P,J6,1,Pin_1*%
%TO.N,Net-(J6-Pad1)*%
X172645000Y-81300000D03*
D12*
%TO.P,J6,2,Pin_2*%
%TO.N,USB_DP*%
X172645000Y-83840000D03*
%TO.P,J6,3,Pin_3*%
%TO.N,USB_DN*%
X172645000Y-86380000D03*
%TO.P,J6,4,Pin_4*%
%TO.N,GND*%
X172645000Y-88920000D03*
%TD*%
D15*
%TO.P,TP3,1,1*%
%TO.N,GND*%
X133595000Y-130400000D03*
%TD*%
%TO.P,TP4,1,1*%
%TO.N,+1V1*%
X160195000Y-95750000D03*
%TD*%
D12*
%TO.P,J7,2,Pin_2*%
%TO.N,GND*%
X159785000Y-70800000D03*
D13*
%TO.P,J7,1,Pin_1*%
%TO.N,/~{USB_BOOT}*%
X157245000Y-70800000D03*
%TD*%
D12*
%TO.P,J2,2,Pin_2*%
%TO.N,GND*%
X146380000Y-131600000D03*
D13*
%TO.P,J2,1,Pin_1*%
%TO.N,+BATT*%
X148920000Y-131600000D03*
%TD*%
%TO.P,J1,1,Pin_1*%
%TO.N,Net-(D1-Pad2)*%
X122225000Y-124600000D03*
D12*
%TO.P,J1,2,Pin_2*%
%TO.N,GND*%
X122225000Y-127140000D03*
%TD*%
D16*
%TO.N,GND*%
X147245000Y-95150000D03*
X142295000Y-115450000D03*
X139345000Y-126625000D03*
X143080000Y-75305000D03*
D17*
X146852500Y-106055000D03*
X148030000Y-107255000D03*
D16*
X130570000Y-110550000D03*
X156045000Y-100500000D03*
D17*
X148030000Y-106005000D03*
D16*
X126270000Y-108300000D03*
X140245000Y-83300000D03*
X151195000Y-121650000D03*
X145645000Y-83300000D03*
D17*
X145630000Y-104855000D03*
X146830000Y-104855000D03*
D16*
X141795000Y-110900000D03*
X171845000Y-124150000D03*
X155995000Y-107050000D03*
X156045000Y-103900000D03*
X137645000Y-103345000D03*
D17*
X145630000Y-106055000D03*
D16*
X138745000Y-129100000D03*
X172930000Y-108455000D03*
X171805000Y-69400000D03*
X151580000Y-75305000D03*
X138745000Y-93899500D03*
X168230000Y-107855000D03*
X165445000Y-122200000D03*
X156045000Y-102200000D03*
X137645000Y-107050000D03*
X124245000Y-85700000D03*
X148345000Y-116000000D03*
X138445000Y-79200000D03*
X126270000Y-116450000D03*
X155830000Y-98055000D03*
X149845000Y-90500000D03*
X137645000Y-101345000D03*
X145545000Y-95155000D03*
X136045000Y-69700000D03*
D17*
X146830000Y-107255000D03*
D16*
X142645000Y-128700000D03*
X128545000Y-114550000D03*
D17*
X148030000Y-104855000D03*
X145630000Y-107255000D03*
D16*
X171770000Y-116900000D03*
X121645000Y-75800000D03*
X152545000Y-114000000D03*
%TO.N,SOIL_SIG*%
X158750000Y-105300000D03*
%TO.N,SCL_SOIL*%
X157737508Y-105812492D03*
%TO.N,SDA_SOIL*%
X156850000Y-106450000D03*
%TO.N,RESET*%
X162245000Y-105500000D03*
X171145000Y-77500000D03*
%TO.N,SWD_DIO*%
X159545000Y-114700000D03*
%TO.N,DONE*%
X160445000Y-107100000D03*
X164845000Y-107100000D03*
D17*
%TO.N,+1V1*%
X147530000Y-108155000D03*
X149620000Y-112300000D03*
X146630000Y-100755000D03*
X147680000Y-103955000D03*
D16*
%TO.N,Net-(J6-Pad1)*%
X122245000Y-99700000D03*
%TD*%
D18*
%TO.N,Net-(J6-Pad1)*%
X172645000Y-81300000D02*
X155145000Y-81300000D01*
X155145000Y-81300000D02*
X150745000Y-85700000D01*
X150745000Y-85700000D02*
X128495000Y-85700000D01*
X128495000Y-85700000D02*
X122245000Y-91950000D01*
X122245000Y-91950000D02*
X122245000Y-99700000D01*
D19*
%TO.N,+1V1*%
X147530000Y-110210000D02*
X149620000Y-112300000D01*
X147530000Y-108155000D02*
X147530000Y-110210000D01*
D20*
%TO.N,SWD_DIO*%
X162200000Y-117250000D02*
X162095000Y-117250000D01*
X162095000Y-117250000D02*
X159545000Y-114700000D01*
D21*
%TO.N,SOIL_SIG*%
X158750000Y-105300000D02*
X158745000Y-105305000D01*
X158745000Y-119495000D02*
X168835000Y-129585000D01*
X158745000Y-105305000D02*
X158745000Y-119495000D01*
X168835000Y-129585000D02*
X168835000Y-131600000D01*
%TO.N,SCL_SOIL*%
X158025000Y-106099984D02*
X158025000Y-129195000D01*
X157737508Y-105812492D02*
X158025000Y-106099984D01*
X156445000Y-130775000D02*
X156445000Y-131600000D01*
X158025000Y-129195000D02*
X156445000Y-130775000D01*
%TO.N,SDA_SOIL*%
X157325000Y-127965000D02*
X153905000Y-131385000D01*
X153905000Y-131385000D02*
X153905000Y-131600000D01*
X156850000Y-106450000D02*
X157325000Y-106925000D01*
X157325000Y-106925000D02*
X157325000Y-127965000D01*
%TO.N,RESET*%
X174145000Y-80500000D02*
X171145000Y-77500000D01*
X174145000Y-91000000D02*
X174145000Y-80500000D01*
X162245000Y-105500000D02*
X162245000Y-102900000D01*
X162245000Y-102900000D02*
X174145000Y-91000000D01*
%TO.N,DONE*%
X160445000Y-107100000D02*
X164845000Y-107100000D01*
%TO.N,+1V1*%
X146630000Y-102905000D02*
X146630000Y-100755000D01*
X147680000Y-103955000D02*
X146630000Y-102905000D01*
%TD*%
%TA.AperFunction,Conductor*%
%TO.N,GND*%
G36*
X141747500Y-68354962D02*
G01*
X141802038Y-68409500D01*
X141822000Y-68484000D01*
X141822000Y-70781384D01*
X141826145Y-70796855D01*
X141841616Y-70801000D01*
X144318383Y-70801000D01*
X144333854Y-70796855D01*
X144337999Y-70781384D01*
X144337999Y-68484000D01*
X144357961Y-68409500D01*
X144412499Y-68354962D01*
X144486999Y-68335000D01*
X150173000Y-68335000D01*
X150247500Y-68354962D01*
X150302038Y-68409500D01*
X150322000Y-68484000D01*
X150322000Y-70781384D01*
X150326145Y-70796855D01*
X150341616Y-70801000D01*
X152818383Y-70801000D01*
X152833854Y-70796855D01*
X152837999Y-70781384D01*
X152837999Y-68484000D01*
X152857961Y-68409500D01*
X152912499Y-68354962D01*
X152986999Y-68335000D01*
X174471000Y-68335000D01*
X174545500Y-68354962D01*
X174600038Y-68409500D01*
X174620000Y-68484000D01*
X174620000Y-80154131D01*
X174600038Y-80228631D01*
X174545500Y-80283169D01*
X174471000Y-80303131D01*
X174396500Y-80283169D01*
X174375227Y-80268273D01*
X174370085Y-80263958D01*
X174360512Y-80255186D01*
X171785729Y-77680403D01*
X171747165Y-77613608D01*
X171743363Y-77555597D01*
X171749407Y-77509686D01*
X171749407Y-77509685D01*
X171750682Y-77500000D01*
X171730044Y-77343238D01*
X171669536Y-77197159D01*
X171573282Y-77071718D01*
X171447841Y-76975464D01*
X171301762Y-76914956D01*
X171292081Y-76913681D01*
X171292079Y-76913681D01*
X171154685Y-76895593D01*
X171145000Y-76894318D01*
X171135315Y-76895593D01*
X170997921Y-76913681D01*
X170997919Y-76913681D01*
X170988238Y-76914956D01*
X170842159Y-76975464D01*
X170716718Y-77071718D01*
X170620464Y-77197159D01*
X170559956Y-77343238D01*
X170539318Y-77500000D01*
X170559956Y-77656762D01*
X170620464Y-77802841D01*
X170716718Y-77928282D01*
X170842159Y-78024536D01*
X170988238Y-78085044D01*
X170997919Y-78086319D01*
X170997921Y-78086319D01*
X171135315Y-78104407D01*
X171145000Y-78105682D01*
X171154685Y-78104407D01*
X171154686Y-78104407D01*
X171200597Y-78098363D01*
X171277065Y-78108430D01*
X171325403Y-78140729D01*
X173063353Y-79878679D01*
X173101917Y-79945474D01*
X173101917Y-80022602D01*
X173063353Y-80089397D01*
X172996558Y-80127961D01*
X172913811Y-80126337D01*
X172895667Y-80120703D01*
X172888890Y-80119901D01*
X172888886Y-80119900D01*
X172720877Y-80100015D01*
X172720873Y-80100015D01*
X172716524Y-80099500D01*
X155190496Y-80099500D01*
X155180752Y-80099181D01*
X155113440Y-80094769D01*
X155106656Y-80095572D01*
X155106655Y-80095572D01*
X155076165Y-80099181D01*
X155021395Y-80105664D01*
X155017531Y-80106070D01*
X154925289Y-80114546D01*
X154918721Y-80116398D01*
X154911994Y-80117645D01*
X154911971Y-80117522D01*
X154907772Y-80118358D01*
X154907798Y-80118480D01*
X154901116Y-80119900D01*
X154894333Y-80120703D01*
X154805814Y-80148188D01*
X154802135Y-80149278D01*
X154712936Y-80174435D01*
X154706811Y-80177455D01*
X154700430Y-80179905D01*
X154700386Y-80179789D01*
X154696412Y-80181374D01*
X154696460Y-80181489D01*
X154690142Y-80184106D01*
X154683621Y-80186131D01*
X154601605Y-80229281D01*
X154598210Y-80231011D01*
X154515053Y-80272020D01*
X154509579Y-80276108D01*
X154503753Y-80279678D01*
X154503688Y-80279572D01*
X154500071Y-80281854D01*
X154500139Y-80281959D01*
X154494405Y-80285683D01*
X154488360Y-80288863D01*
X154482993Y-80293094D01*
X154415631Y-80346198D01*
X154412536Y-80348573D01*
X154343746Y-80399941D01*
X154343742Y-80399945D01*
X154338267Y-80404033D01*
X154333629Y-80409050D01*
X154333626Y-80409053D01*
X154279900Y-80467174D01*
X154275845Y-80471392D01*
X150291378Y-84455859D01*
X150224583Y-84494423D01*
X150186019Y-84499500D01*
X128540486Y-84499500D01*
X128530741Y-84499181D01*
X128526863Y-84498927D01*
X128463440Y-84494770D01*
X128456656Y-84495573D01*
X128456653Y-84495573D01*
X128371428Y-84505660D01*
X128367550Y-84506068D01*
X128303171Y-84511984D01*
X128275289Y-84514546D01*
X128268711Y-84516401D01*
X128262000Y-84517645D01*
X128261977Y-84517522D01*
X128257772Y-84518359D01*
X128257798Y-84518480D01*
X128251116Y-84519900D01*
X128244333Y-84520703D01*
X128155814Y-84548188D01*
X128152135Y-84549278D01*
X128062936Y-84574435D01*
X128056811Y-84577455D01*
X128050430Y-84579905D01*
X128050386Y-84579789D01*
X128046412Y-84581374D01*
X128046460Y-84581489D01*
X128040142Y-84584106D01*
X128033621Y-84586131D01*
X127951605Y-84629281D01*
X127948210Y-84631011D01*
X127865053Y-84672020D01*
X127859579Y-84676108D01*
X127853753Y-84679678D01*
X127853688Y-84679572D01*
X127850071Y-84681854D01*
X127850139Y-84681959D01*
X127844405Y-84685683D01*
X127838360Y-84688863D01*
X127821610Y-84702068D01*
X127765631Y-84746198D01*
X127762536Y-84748573D01*
X127693746Y-84799941D01*
X127693742Y-84799945D01*
X127688267Y-84804033D01*
X127683629Y-84809050D01*
X127683626Y-84809053D01*
X127629900Y-84867174D01*
X127625845Y-84871392D01*
X121428279Y-91068958D01*
X121421162Y-91075623D01*
X121375598Y-91115581D01*
X121375595Y-91115584D01*
X121370457Y-91120090D01*
X121327128Y-91175053D01*
X121313093Y-91192856D01*
X121310639Y-91195885D01*
X121255766Y-91261864D01*
X121255762Y-91261870D01*
X121251398Y-91267117D01*
X121248063Y-91273072D01*
X121244192Y-91278704D01*
X121244090Y-91278634D01*
X121241708Y-91282199D01*
X121241812Y-91282267D01*
X121238094Y-91287992D01*
X121233863Y-91293360D01*
X121204985Y-91348247D01*
X121190728Y-91375345D01*
X121188867Y-91378772D01*
X121146929Y-91453658D01*
X121143590Y-91459621D01*
X121141395Y-91466088D01*
X121138615Y-91472332D01*
X121138501Y-91472281D01*
X121136811Y-91476216D01*
X121136926Y-91476264D01*
X121134311Y-91482575D01*
X121131131Y-91488620D01*
X121129107Y-91495139D01*
X121129106Y-91495141D01*
X121103657Y-91577101D01*
X121102458Y-91580792D01*
X121072669Y-91668548D01*
X121071689Y-91675307D01*
X121070095Y-91681945D01*
X121069974Y-91681916D01*
X121069028Y-91686099D01*
X121069148Y-91686125D01*
X121067726Y-91692818D01*
X121065703Y-91699333D01*
X121064901Y-91706111D01*
X121054814Y-91791334D01*
X121054305Y-91795202D01*
X121041009Y-91886902D01*
X121041277Y-91893728D01*
X121041277Y-91893731D01*
X121044385Y-91972828D01*
X121044500Y-91978678D01*
X121044500Y-99755970D01*
X121059546Y-99919711D01*
X121119435Y-100132064D01*
X121122457Y-100138193D01*
X121122459Y-100138197D01*
X121197573Y-100290512D01*
X121217020Y-100329947D01*
X121349033Y-100506733D01*
X121354050Y-100511371D01*
X121354053Y-100511374D01*
X121469023Y-100617651D01*
X121511051Y-100656501D01*
X121516829Y-100660146D01*
X121516832Y-100660149D01*
X121657373Y-100748823D01*
X121697650Y-100774236D01*
X121902579Y-100855994D01*
X121933779Y-100862200D01*
X122112273Y-100897705D01*
X122112276Y-100897705D01*
X122118976Y-100899038D01*
X122230736Y-100900501D01*
X122332760Y-100901837D01*
X122332765Y-100901837D01*
X122339594Y-100901926D01*
X122346327Y-100900769D01*
X122346328Y-100900769D01*
X122550315Y-100865718D01*
X122550314Y-100865718D01*
X122557043Y-100864562D01*
X122563442Y-100862201D01*
X122563447Y-100862200D01*
X122676513Y-100820487D01*
X122764043Y-100788196D01*
X122830223Y-100748823D01*
X146124391Y-100748823D01*
X146127556Y-100773027D01*
X146139526Y-100864562D01*
X146142980Y-100890979D01*
X146200720Y-101022203D01*
X146207551Y-101030330D01*
X146207552Y-101030331D01*
X146269557Y-101104095D01*
X146302214Y-101173969D01*
X146304500Y-101199970D01*
X146304500Y-102884280D01*
X146303933Y-102897266D01*
X146300736Y-102933807D01*
X146310229Y-102969232D01*
X146313042Y-102981923D01*
X146317148Y-103005207D01*
X146319412Y-103018045D01*
X146325723Y-103028975D01*
X146326297Y-103030797D01*
X146327179Y-103032491D01*
X146330446Y-103044684D01*
X146351491Y-103074739D01*
X146358461Y-103085680D01*
X146376806Y-103117455D01*
X146386789Y-103125832D01*
X146386790Y-103125833D01*
X146404904Y-103141032D01*
X146414488Y-103149814D01*
X147132693Y-103868020D01*
X147171257Y-103934815D01*
X147175075Y-103954057D01*
X147192980Y-104090979D01*
X147250720Y-104222203D01*
X147257551Y-104230330D01*
X147257552Y-104230331D01*
X147306143Y-104288137D01*
X147342970Y-104331948D01*
X147462313Y-104411390D01*
X147472442Y-104414554D01*
X147472443Y-104414555D01*
X147495804Y-104421853D01*
X147599157Y-104454142D01*
X147609764Y-104454336D01*
X147609767Y-104454337D01*
X147672020Y-104455478D01*
X147742499Y-104456770D01*
X147795543Y-104442308D01*
X147870574Y-104421853D01*
X147870577Y-104421852D01*
X147880817Y-104419060D01*
X147889862Y-104413506D01*
X147889865Y-104413505D01*
X147993942Y-104349601D01*
X148002991Y-104344045D01*
X148058351Y-104282884D01*
X148092077Y-104245624D01*
X148092078Y-104245622D01*
X148099200Y-104237754D01*
X148161710Y-104108733D01*
X148163471Y-104098267D01*
X148184542Y-103973027D01*
X148184543Y-103973021D01*
X148185496Y-103967354D01*
X148185647Y-103955000D01*
X148165323Y-103813082D01*
X148135654Y-103747827D01*
X148110378Y-103692235D01*
X148110376Y-103692232D01*
X148105984Y-103682572D01*
X148099058Y-103674534D01*
X148099056Y-103674531D01*
X148059192Y-103628268D01*
X148012400Y-103573963D01*
X148003496Y-103568192D01*
X148003493Y-103568189D01*
X147936723Y-103524911D01*
X147892095Y-103495985D01*
X147845284Y-103481986D01*
X147764912Y-103457949D01*
X147764910Y-103457949D01*
X147754739Y-103454907D01*
X147744121Y-103454842D01*
X147744120Y-103454842D01*
X147723324Y-103454715D01*
X147700715Y-103454577D01*
X147626338Y-103434160D01*
X147596266Y-103410939D01*
X146999141Y-102813815D01*
X146960577Y-102747020D01*
X146955500Y-102708456D01*
X146955500Y-102068440D01*
X158939770Y-102068440D01*
X158954200Y-102288604D01*
X159008511Y-102502452D01*
X159011369Y-102508652D01*
X159011371Y-102508657D01*
X159098022Y-102696616D01*
X159100883Y-102702821D01*
X159228222Y-102883002D01*
X159386264Y-103036961D01*
X159569717Y-103159540D01*
X159772436Y-103246635D01*
X159987632Y-103295329D01*
X160033767Y-103297142D01*
X160201269Y-103303723D01*
X160201272Y-103303723D01*
X160208098Y-103303991D01*
X160426452Y-103272331D01*
X160432908Y-103270139D01*
X160432914Y-103270138D01*
X160574833Y-103221962D01*
X160635379Y-103201410D01*
X160758293Y-103132575D01*
X160821924Y-103096940D01*
X160821926Y-103096939D01*
X160827884Y-103093602D01*
X160997518Y-102952518D01*
X161138602Y-102782884D01*
X161148291Y-102765584D01*
X161243076Y-102596332D01*
X161246410Y-102590379D01*
X161296097Y-102444006D01*
X161315138Y-102387914D01*
X161315139Y-102387908D01*
X161317331Y-102381452D01*
X161348991Y-102163098D01*
X161350643Y-102100000D01*
X161348370Y-102075258D01*
X161331079Y-101887091D01*
X161330454Y-101880289D01*
X161270565Y-101667936D01*
X161172980Y-101470053D01*
X161040967Y-101293267D01*
X161035950Y-101288629D01*
X161035947Y-101288626D01*
X160883970Y-101148140D01*
X160883968Y-101148138D01*
X160878949Y-101143499D01*
X160873171Y-101139854D01*
X160873168Y-101139851D01*
X160698127Y-101029409D01*
X160692350Y-101025764D01*
X160487421Y-100944006D01*
X160358108Y-100918284D01*
X160277727Y-100902295D01*
X160277724Y-100902295D01*
X160271024Y-100900962D01*
X160159264Y-100899499D01*
X160057240Y-100898163D01*
X160057235Y-100898163D01*
X160050406Y-100898074D01*
X160043673Y-100899231D01*
X160043672Y-100899231D01*
X159988373Y-100908733D01*
X159832957Y-100935438D01*
X159826558Y-100937799D01*
X159826553Y-100937800D01*
X159713487Y-100979513D01*
X159625957Y-101011804D01*
X159436341Y-101124614D01*
X159270457Y-101270090D01*
X159266230Y-101275452D01*
X159266229Y-101275453D01*
X159255845Y-101288626D01*
X159133863Y-101443360D01*
X159031131Y-101638620D01*
X159029106Y-101645143D01*
X158967727Y-101842813D01*
X158967726Y-101842818D01*
X158965703Y-101849333D01*
X158939770Y-102068440D01*
X146955500Y-102068440D01*
X146955500Y-101198693D01*
X146975462Y-101124193D01*
X146994033Y-101098703D01*
X147042077Y-101045624D01*
X147042079Y-101045622D01*
X147049200Y-101037754D01*
X147111710Y-100908733D01*
X147113503Y-100898074D01*
X147134542Y-100773027D01*
X147134543Y-100773021D01*
X147135496Y-100767354D01*
X147135647Y-100755000D01*
X147123600Y-100670878D01*
X147116828Y-100623590D01*
X147116828Y-100623589D01*
X147115323Y-100613082D01*
X147075069Y-100524547D01*
X147060378Y-100492235D01*
X147060376Y-100492232D01*
X147055984Y-100482572D01*
X147049058Y-100474534D01*
X147049056Y-100474531D01*
X147009192Y-100428267D01*
X146962400Y-100373963D01*
X146953496Y-100368192D01*
X146953493Y-100368189D01*
X146885037Y-100323819D01*
X146842095Y-100295985D01*
X146795284Y-100281986D01*
X146714912Y-100257949D01*
X146714910Y-100257949D01*
X146704739Y-100254907D01*
X146694121Y-100254842D01*
X146694120Y-100254842D01*
X146634650Y-100254479D01*
X146561376Y-100254031D01*
X146551171Y-100256948D01*
X146551168Y-100256948D01*
X146433731Y-100290512D01*
X146433729Y-100290513D01*
X146423529Y-100293428D01*
X146414556Y-100299090D01*
X146414555Y-100299090D01*
X146356977Y-100335419D01*
X146302280Y-100369930D01*
X146295256Y-100377884D01*
X146295254Y-100377885D01*
X146248525Y-100430796D01*
X146207377Y-100477388D01*
X146146447Y-100607163D01*
X146124391Y-100748823D01*
X122830223Y-100748823D01*
X122953659Y-100675386D01*
X123119543Y-100529910D01*
X123123771Y-100524547D01*
X123251908Y-100362005D01*
X123251910Y-100362002D01*
X123256137Y-100356640D01*
X123358869Y-100161380D01*
X123389375Y-100063136D01*
X123422273Y-99957187D01*
X123422274Y-99957182D01*
X123424297Y-99950667D01*
X123445500Y-99771524D01*
X123445500Y-97668440D01*
X130939770Y-97668440D01*
X130954200Y-97888604D01*
X131008511Y-98102452D01*
X131011369Y-98108652D01*
X131011371Y-98108657D01*
X131098022Y-98296616D01*
X131100883Y-98302821D01*
X131228222Y-98483002D01*
X131386264Y-98636961D01*
X131569717Y-98759540D01*
X131772436Y-98846635D01*
X131987632Y-98895329D01*
X132033767Y-98897142D01*
X132201269Y-98903723D01*
X132201272Y-98903723D01*
X132208098Y-98903991D01*
X132426452Y-98872331D01*
X132432908Y-98870139D01*
X132432914Y-98870138D01*
X132574833Y-98821962D01*
X132635379Y-98801410D01*
X132827884Y-98693602D01*
X132997518Y-98552518D01*
X133138602Y-98382884D01*
X133180315Y-98308401D01*
X133243076Y-98196332D01*
X133246410Y-98190379D01*
X133278506Y-98095828D01*
X133315138Y-97987914D01*
X133315139Y-97987908D01*
X133317331Y-97981452D01*
X133348991Y-97763098D01*
X133350643Y-97700000D01*
X133348370Y-97675258D01*
X133331079Y-97487091D01*
X133330454Y-97480289D01*
X133270565Y-97267936D01*
X133172980Y-97070053D01*
X133040967Y-96893267D01*
X133035950Y-96888629D01*
X133035947Y-96888626D01*
X132883970Y-96748140D01*
X132883968Y-96748138D01*
X132878949Y-96743499D01*
X132873171Y-96739854D01*
X132873168Y-96739851D01*
X132698127Y-96629409D01*
X132692350Y-96625764D01*
X132487421Y-96544006D01*
X132404058Y-96527424D01*
X132277727Y-96502295D01*
X132277724Y-96502295D01*
X132271024Y-96500962D01*
X132159264Y-96499499D01*
X132057240Y-96498163D01*
X132057235Y-96498163D01*
X132050406Y-96498074D01*
X132043673Y-96499231D01*
X132043672Y-96499231D01*
X131921843Y-96520165D01*
X131832957Y-96535438D01*
X131826558Y-96537799D01*
X131826553Y-96537800D01*
X131713487Y-96579513D01*
X131625957Y-96611804D01*
X131436341Y-96724614D01*
X131270457Y-96870090D01*
X131266230Y-96875452D01*
X131266229Y-96875453D01*
X131204527Y-96953723D01*
X131133863Y-97043360D01*
X131031131Y-97238620D01*
X131029106Y-97245143D01*
X130967727Y-97442813D01*
X130967726Y-97442818D01*
X130965703Y-97449333D01*
X130939770Y-97668440D01*
X123445500Y-97668440D01*
X123445500Y-95718440D01*
X158989770Y-95718440D01*
X159004200Y-95938604D01*
X159058511Y-96152452D01*
X159061369Y-96158652D01*
X159061371Y-96158657D01*
X159148022Y-96346616D01*
X159150883Y-96352821D01*
X159278222Y-96533002D01*
X159436264Y-96686961D01*
X159619717Y-96809540D01*
X159822436Y-96896635D01*
X160037632Y-96945329D01*
X160083767Y-96947142D01*
X160251269Y-96953723D01*
X160251272Y-96953723D01*
X160258098Y-96953991D01*
X160476452Y-96922331D01*
X160482908Y-96920139D01*
X160482914Y-96920138D01*
X160630349Y-96870090D01*
X160685379Y-96851410D01*
X160877884Y-96743602D01*
X161047518Y-96602518D01*
X161188602Y-96432884D01*
X161230315Y-96358401D01*
X161293076Y-96246332D01*
X161296410Y-96240379D01*
X161328506Y-96145828D01*
X161365138Y-96037914D01*
X161365139Y-96037908D01*
X161367331Y-96031452D01*
X161398991Y-95813098D01*
X161400643Y-95750000D01*
X161398370Y-95725258D01*
X161381079Y-95537091D01*
X161380454Y-95530289D01*
X161320565Y-95317936D01*
X161222980Y-95120053D01*
X161090967Y-94943267D01*
X161085950Y-94938629D01*
X161085947Y-94938626D01*
X160933970Y-94798140D01*
X160933968Y-94798138D01*
X160928949Y-94793499D01*
X160923171Y-94789854D01*
X160923168Y-94789851D01*
X160748127Y-94679409D01*
X160742350Y-94675764D01*
X160537421Y-94594006D01*
X160477541Y-94582095D01*
X160327727Y-94552295D01*
X160327724Y-94552295D01*
X160321024Y-94550962D01*
X160209264Y-94549499D01*
X160107240Y-94548163D01*
X160107235Y-94548163D01*
X160100406Y-94548074D01*
X160093673Y-94549231D01*
X160093672Y-94549231D01*
X159971843Y-94570165D01*
X159882957Y-94585438D01*
X159876558Y-94587799D01*
X159876553Y-94587800D01*
X159763487Y-94629513D01*
X159675957Y-94661804D01*
X159486341Y-94774614D01*
X159320457Y-94920090D01*
X159316230Y-94925452D01*
X159316229Y-94925453D01*
X159305845Y-94938626D01*
X159183863Y-95093360D01*
X159081131Y-95288620D01*
X159079106Y-95295143D01*
X159017727Y-95492813D01*
X159017726Y-95492818D01*
X159015703Y-95499333D01*
X158989770Y-95718440D01*
X123445500Y-95718440D01*
X123445500Y-92508982D01*
X123465462Y-92434482D01*
X123489141Y-92403623D01*
X126708109Y-89184655D01*
X171312511Y-89184655D01*
X171343355Y-89321518D01*
X171347003Y-89333157D01*
X171426414Y-89528725D01*
X171431910Y-89539606D01*
X171542190Y-89719566D01*
X171549403Y-89729422D01*
X171687591Y-89888950D01*
X171696311Y-89897489D01*
X171858716Y-90032320D01*
X171868686Y-90039302D01*
X172050945Y-90145805D01*
X172061920Y-90151064D01*
X172259127Y-90226370D01*
X172270817Y-90229766D01*
X172371778Y-90250306D01*
X172387765Y-90249328D01*
X172391000Y-90242840D01*
X172391000Y-89193616D01*
X172386855Y-89178145D01*
X172371384Y-89174000D01*
X171329726Y-89174000D01*
X171314255Y-89178145D01*
X171312511Y-89184655D01*
X126708109Y-89184655D01*
X128948623Y-86944141D01*
X129015418Y-86905577D01*
X129053982Y-86900500D01*
X150699515Y-86900500D01*
X150709260Y-86900819D01*
X150776560Y-86905230D01*
X150783344Y-86904427D01*
X150783347Y-86904427D01*
X150868553Y-86894342D01*
X150872431Y-86893934D01*
X150957915Y-86886079D01*
X150957920Y-86886078D01*
X150964711Y-86885454D01*
X150971278Y-86883602D01*
X150978003Y-86882355D01*
X150978026Y-86882477D01*
X150982223Y-86881643D01*
X150982197Y-86881520D01*
X150988883Y-86880099D01*
X150995667Y-86879296D01*
X151084169Y-86851816D01*
X151087842Y-86850728D01*
X151125068Y-86840229D01*
X151170488Y-86827420D01*
X151170492Y-86827418D01*
X151177064Y-86825565D01*
X151183189Y-86822544D01*
X151189572Y-86820094D01*
X151189617Y-86820210D01*
X151193590Y-86818625D01*
X151193542Y-86818510D01*
X151199859Y-86815893D01*
X151206379Y-86813869D01*
X151212422Y-86810690D01*
X151212426Y-86810688D01*
X151288363Y-86770736D01*
X151291838Y-86768965D01*
X151329170Y-86750554D01*
X151374947Y-86727980D01*
X151380418Y-86723894D01*
X151386245Y-86720324D01*
X151386309Y-86720429D01*
X151389936Y-86718140D01*
X151389869Y-86718036D01*
X151395592Y-86714319D01*
X151401641Y-86711137D01*
X151407006Y-86706907D01*
X151407013Y-86706903D01*
X151474436Y-86653751D01*
X151477498Y-86651401D01*
X151551733Y-86595967D01*
X151610087Y-86532840D01*
X151614142Y-86528622D01*
X155598623Y-82544141D01*
X155665418Y-82505577D01*
X155703982Y-82500500D01*
X172491136Y-82500500D01*
X172565636Y-82520462D01*
X172620174Y-82575000D01*
X172622802Y-82584807D01*
X172633208Y-82557698D01*
X172693148Y-82509160D01*
X172740118Y-82496903D01*
X172857909Y-82486079D01*
X172864711Y-82485454D01*
X173077064Y-82425565D01*
X173083193Y-82422543D01*
X173083197Y-82422541D01*
X173198122Y-82365866D01*
X173264023Y-82350500D01*
X173514748Y-82350500D01*
X173521921Y-82349073D01*
X173521923Y-82349073D01*
X173558834Y-82341731D01*
X173558835Y-82341731D01*
X173573231Y-82338867D01*
X173587718Y-82329187D01*
X173595472Y-82326555D01*
X173598991Y-82325097D01*
X173599087Y-82325328D01*
X173660752Y-82304393D01*
X173736398Y-82319439D01*
X173794387Y-82370292D01*
X173819181Y-82443326D01*
X173819500Y-82453074D01*
X173819500Y-83213588D01*
X173799538Y-83288088D01*
X173745000Y-83342626D01*
X173670500Y-83362588D01*
X173596000Y-83342626D01*
X173538941Y-83283539D01*
X173527642Y-83262288D01*
X173527640Y-83262285D01*
X173524218Y-83255849D01*
X173514253Y-83243630D01*
X173398612Y-83101841D01*
X173398610Y-83101839D01*
X173394011Y-83096200D01*
X173388401Y-83091559D01*
X173388398Y-83091556D01*
X173240890Y-82969527D01*
X173240889Y-82969526D01*
X173235275Y-82964882D01*
X173228871Y-82961420D01*
X173228869Y-82961418D01*
X173060468Y-82870364D01*
X173060464Y-82870362D01*
X173054055Y-82866897D01*
X172857254Y-82805977D01*
X172850006Y-82805215D01*
X172850005Y-82805215D01*
X172813807Y-82801411D01*
X172738177Y-82793462D01*
X172666172Y-82765822D01*
X172623190Y-82712743D01*
X172620174Y-82724000D01*
X172565636Y-82778538D01*
X172504640Y-82797887D01*
X172447203Y-82803114D01*
X172440214Y-82805171D01*
X172256560Y-82859223D01*
X172256557Y-82859224D01*
X172249572Y-82861280D01*
X172243117Y-82864655D01*
X172243116Y-82864655D01*
X172232196Y-82870364D01*
X172067002Y-82956726D01*
X171906447Y-83085815D01*
X171901763Y-83091397D01*
X171901760Y-83091400D01*
X171799232Y-83213588D01*
X171774024Y-83243630D01*
X171674776Y-83424162D01*
X171612484Y-83620532D01*
X171611671Y-83627776D01*
X171611671Y-83627778D01*
X171590332Y-83818021D01*
X171589520Y-83825262D01*
X171606759Y-84030553D01*
X171663544Y-84228586D01*
X171757712Y-84411818D01*
X171885677Y-84573270D01*
X171891223Y-84577990D01*
X172021499Y-84688863D01*
X172042564Y-84706791D01*
X172222398Y-84807297D01*
X172418329Y-84870959D01*
X172473907Y-84877586D01*
X172615662Y-84894489D01*
X172615665Y-84894489D01*
X172622894Y-84895351D01*
X172784918Y-84882884D01*
X172821036Y-84880105D01*
X172821037Y-84880105D01*
X172828300Y-84879546D01*
X172896016Y-84860639D01*
X173019707Y-84826105D01*
X173019712Y-84826103D01*
X173026725Y-84824145D01*
X173033226Y-84820861D01*
X173033229Y-84820860D01*
X173204105Y-84734544D01*
X173204106Y-84734544D01*
X173210610Y-84731258D01*
X173372951Y-84604424D01*
X173421505Y-84548173D01*
X173502803Y-84453988D01*
X173502804Y-84453986D01*
X173507564Y-84448472D01*
X173540946Y-84389709D01*
X173595101Y-84334793D01*
X173669460Y-84314312D01*
X173744098Y-84333753D01*
X173799015Y-84387909D01*
X173819500Y-84463308D01*
X173819500Y-85753588D01*
X173799538Y-85828088D01*
X173745000Y-85882626D01*
X173670500Y-85902588D01*
X173596000Y-85882626D01*
X173538941Y-85823539D01*
X173527642Y-85802288D01*
X173527640Y-85802285D01*
X173524218Y-85795849D01*
X173514253Y-85783630D01*
X173398612Y-85641841D01*
X173398610Y-85641839D01*
X173394011Y-85636200D01*
X173388401Y-85631559D01*
X173388398Y-85631556D01*
X173240890Y-85509527D01*
X173240889Y-85509526D01*
X173235275Y-85504882D01*
X173228871Y-85501420D01*
X173228869Y-85501418D01*
X173060468Y-85410364D01*
X173060464Y-85410362D01*
X173054055Y-85406897D01*
X172857254Y-85345977D01*
X172850008Y-85345215D01*
X172850006Y-85345215D01*
X172659610Y-85325204D01*
X172659609Y-85325204D01*
X172652369Y-85324443D01*
X172447203Y-85343114D01*
X172440214Y-85345171D01*
X172256560Y-85399223D01*
X172256557Y-85399224D01*
X172249572Y-85401280D01*
X172243117Y-85404655D01*
X172243116Y-85404655D01*
X172232196Y-85410364D01*
X172067002Y-85496726D01*
X171906447Y-85625815D01*
X171901763Y-85631397D01*
X171901760Y-85631400D01*
X171799232Y-85753588D01*
X171774024Y-85783630D01*
X171674776Y-85964162D01*
X171612484Y-86160532D01*
X171611671Y-86167776D01*
X171611671Y-86167778D01*
X171590332Y-86358021D01*
X171589520Y-86365262D01*
X171606759Y-86570553D01*
X171663544Y-86768586D01*
X171757712Y-86951818D01*
X171885677Y-87113270D01*
X172042564Y-87246791D01*
X172222398Y-87347297D01*
X172229333Y-87349550D01*
X172234228Y-87351689D01*
X172294505Y-87399808D01*
X172322647Y-87471618D01*
X172311114Y-87547879D01*
X172262995Y-87608156D01*
X172220867Y-87629854D01*
X172122756Y-87661922D01*
X172111532Y-87666639D01*
X171924300Y-87764107D01*
X171913981Y-87770605D01*
X171745185Y-87897341D01*
X171736073Y-87905431D01*
X171590248Y-88058029D01*
X171582573Y-88067505D01*
X171463621Y-88241883D01*
X171457607Y-88252470D01*
X171368734Y-88443931D01*
X171364524Y-88455372D01*
X171309542Y-88653629D01*
X171310902Y-88662319D01*
X171320435Y-88666000D01*
X172750000Y-88666000D01*
X172824500Y-88685962D01*
X172879038Y-88740500D01*
X172899000Y-88815000D01*
X172899000Y-90237016D01*
X172903145Y-90252487D01*
X172912271Y-90254932D01*
X172922244Y-90253654D01*
X172934167Y-90251120D01*
X173136348Y-90190463D01*
X173147691Y-90186017D01*
X173337245Y-90093156D01*
X173347715Y-90086915D01*
X173519552Y-89964345D01*
X173528875Y-89956467D01*
X173565325Y-89920143D01*
X173632187Y-89881695D01*
X173709315Y-89881830D01*
X173776042Y-89920510D01*
X173814490Y-89987372D01*
X173819500Y-90025685D01*
X173819500Y-90803455D01*
X173799538Y-90877955D01*
X173775859Y-90908814D01*
X162029488Y-102655186D01*
X162019904Y-102663968D01*
X162001790Y-102679167D01*
X162001789Y-102679169D01*
X161991806Y-102687545D01*
X161973461Y-102719320D01*
X161966491Y-102730261D01*
X161945446Y-102760316D01*
X161942179Y-102772509D01*
X161941297Y-102774203D01*
X161940723Y-102776025D01*
X161934412Y-102786955D01*
X161932149Y-102799791D01*
X161932148Y-102799793D01*
X161928042Y-102823077D01*
X161925230Y-102835761D01*
X161915736Y-102871193D01*
X161916872Y-102884179D01*
X161916872Y-102884180D01*
X161918933Y-102907733D01*
X161919500Y-102920720D01*
X161919500Y-104919372D01*
X161899538Y-104993872D01*
X161861205Y-105037582D01*
X161816718Y-105071718D01*
X161720464Y-105197159D01*
X161659956Y-105343238D01*
X161639318Y-105500000D01*
X161659956Y-105656762D01*
X161720464Y-105802841D01*
X161816718Y-105928282D01*
X161942159Y-106024536D01*
X162088238Y-106085044D01*
X162097919Y-106086319D01*
X162097921Y-106086319D01*
X162235315Y-106104407D01*
X162245000Y-106105682D01*
X162254685Y-106104407D01*
X162392079Y-106086319D01*
X162392081Y-106086319D01*
X162401762Y-106085044D01*
X162547841Y-106024536D01*
X162673282Y-105928282D01*
X162769536Y-105802841D01*
X162830044Y-105656762D01*
X162850682Y-105500000D01*
X162830044Y-105343238D01*
X162769536Y-105197159D01*
X162673282Y-105071718D01*
X162628795Y-105037582D01*
X162581842Y-104976392D01*
X162570500Y-104919372D01*
X162570500Y-103096544D01*
X162590462Y-103022044D01*
X162614141Y-102991185D01*
X174360519Y-91244808D01*
X174370101Y-91236028D01*
X174375223Y-91231730D01*
X174445124Y-91199133D01*
X174521959Y-91205854D01*
X174585139Y-91250092D01*
X174617736Y-91319993D01*
X174620000Y-91345869D01*
X174620000Y-133546000D01*
X174600038Y-133620500D01*
X174545500Y-133675038D01*
X174471000Y-133695000D01*
X120489000Y-133695000D01*
X120414500Y-133675038D01*
X120359962Y-133620500D01*
X120340000Y-133546000D01*
X120340000Y-131633102D01*
X132726971Y-131633102D01*
X132730180Y-131638662D01*
X132903271Y-131744733D01*
X132913676Y-131750034D01*
X133122156Y-131836389D01*
X133133250Y-131839994D01*
X133352680Y-131892675D01*
X133364196Y-131894499D01*
X133589168Y-131912204D01*
X133600832Y-131912204D01*
X133825804Y-131894499D01*
X133837320Y-131892675D01*
X133954031Y-131864655D01*
X145047511Y-131864655D01*
X145078355Y-132001518D01*
X145082003Y-132013157D01*
X145161414Y-132208725D01*
X145166910Y-132219606D01*
X145277190Y-132399566D01*
X145284403Y-132409422D01*
X145422591Y-132568950D01*
X145431311Y-132577489D01*
X145593716Y-132712320D01*
X145603686Y-132719302D01*
X145785945Y-132825805D01*
X145796920Y-132831064D01*
X145994127Y-132906370D01*
X146005817Y-132909766D01*
X146106778Y-132930306D01*
X146122765Y-132929328D01*
X146126000Y-132922840D01*
X146126000Y-132917016D01*
X146634000Y-132917016D01*
X146638145Y-132932487D01*
X146647271Y-132934932D01*
X146657244Y-132933654D01*
X146669167Y-132931120D01*
X146871348Y-132870463D01*
X146882691Y-132866017D01*
X147072245Y-132773156D01*
X147082715Y-132766915D01*
X147254552Y-132644345D01*
X147263874Y-132636467D01*
X147413381Y-132487480D01*
X147421281Y-132478198D01*
X147544451Y-132306789D01*
X147550734Y-132296332D01*
X147586924Y-132223107D01*
X147637828Y-132165164D01*
X147710885Y-132140436D01*
X147786518Y-132155549D01*
X147844461Y-132206453D01*
X147869189Y-132279510D01*
X147869500Y-132289125D01*
X147869500Y-132469748D01*
X147870927Y-132476921D01*
X147870927Y-132476923D01*
X147873779Y-132491258D01*
X147881133Y-132528231D01*
X147889288Y-132540435D01*
X147889288Y-132540436D01*
X147914047Y-132577489D01*
X147925448Y-132594552D01*
X147937651Y-132602706D01*
X147976561Y-132628705D01*
X147991769Y-132638867D01*
X148006165Y-132641731D01*
X148006166Y-132641731D01*
X148043077Y-132649073D01*
X148043079Y-132649073D01*
X148050252Y-132650500D01*
X149789748Y-132650500D01*
X149796921Y-132649073D01*
X149796923Y-132649073D01*
X149833834Y-132641731D01*
X149833835Y-132641731D01*
X149848231Y-132638867D01*
X149863440Y-132628705D01*
X149902349Y-132602706D01*
X149914552Y-132594552D01*
X149925953Y-132577489D01*
X149950712Y-132540436D01*
X149950712Y-132540435D01*
X149958867Y-132528231D01*
X149966222Y-132491258D01*
X149969073Y-132476923D01*
X149969073Y-132476921D01*
X149970500Y-132469748D01*
X149970500Y-131585262D01*
X152849520Y-131585262D01*
X152866759Y-131790553D01*
X152923544Y-131988586D01*
X152926874Y-131995066D01*
X152926875Y-131995068D01*
X152938078Y-132016866D01*
X153017712Y-132171818D01*
X153145677Y-132333270D01*
X153151223Y-132337990D01*
X153235156Y-132409422D01*
X153302564Y-132466791D01*
X153482398Y-132567297D01*
X153678329Y-132630959D01*
X153733907Y-132637586D01*
X153875662Y-132654489D01*
X153875665Y-132654489D01*
X153882894Y-132655351D01*
X154044918Y-132642884D01*
X154081036Y-132640105D01*
X154081037Y-132640105D01*
X154088300Y-132639546D01*
X154156016Y-132620639D01*
X154279707Y-132586105D01*
X154279712Y-132586103D01*
X154286725Y-132584145D01*
X154293226Y-132580861D01*
X154293229Y-132580860D01*
X154464105Y-132494544D01*
X154464106Y-132494544D01*
X154470610Y-132491258D01*
X154632951Y-132364424D01*
X154754932Y-132223107D01*
X154762803Y-132213988D01*
X154762804Y-132213986D01*
X154767564Y-132208472D01*
X154785140Y-132177533D01*
X154865724Y-132035680D01*
X154865725Y-132035677D01*
X154869323Y-132029344D01*
X154934351Y-131833863D01*
X154960171Y-131629474D01*
X154960583Y-131600000D01*
X154940480Y-131394970D01*
X154891163Y-131231624D01*
X154883041Y-131204724D01*
X154883041Y-131204723D01*
X154880935Y-131197749D01*
X154877405Y-131191109D01*
X154847769Y-131135372D01*
X154818712Y-131080723D01*
X154801362Y-131005573D01*
X154823912Y-130931815D01*
X154844912Y-130905414D01*
X157445141Y-128305186D01*
X157511936Y-128266622D01*
X157589064Y-128266622D01*
X157655859Y-128305186D01*
X157694423Y-128371981D01*
X157699500Y-128410545D01*
X157699500Y-128998455D01*
X157679538Y-129072955D01*
X157655859Y-129103814D01*
X156229488Y-130530186D01*
X156219904Y-130538968D01*
X156191806Y-130562545D01*
X156190019Y-130560416D01*
X156142672Y-130593572D01*
X156133780Y-130596496D01*
X156103364Y-130605448D01*
X156056560Y-130619223D01*
X156056557Y-130619224D01*
X156049572Y-130621280D01*
X156043117Y-130624655D01*
X156043116Y-130624655D01*
X156031354Y-130630804D01*
X155867002Y-130716726D01*
X155706447Y-130845815D01*
X155701763Y-130851397D01*
X155701760Y-130851400D01*
X155609222Y-130961683D01*
X155574024Y-131003630D01*
X155474776Y-131184162D01*
X155472573Y-131191106D01*
X155472572Y-131191109D01*
X155470659Y-131197140D01*
X155412484Y-131380532D01*
X155411671Y-131387776D01*
X155411671Y-131387778D01*
X155410051Y-131402223D01*
X155389520Y-131585262D01*
X155406759Y-131790553D01*
X155463544Y-131988586D01*
X155466874Y-131995066D01*
X155466875Y-131995068D01*
X155478078Y-132016866D01*
X155557712Y-132171818D01*
X155685677Y-132333270D01*
X155691223Y-132337990D01*
X155775156Y-132409422D01*
X155842564Y-132466791D01*
X156022398Y-132567297D01*
X156218329Y-132630959D01*
X156273907Y-132637586D01*
X156415662Y-132654489D01*
X156415665Y-132654489D01*
X156422894Y-132655351D01*
X156584918Y-132642884D01*
X156621036Y-132640105D01*
X156621037Y-132640105D01*
X156628300Y-132639546D01*
X156696016Y-132620639D01*
X156819707Y-132586105D01*
X156819712Y-132586103D01*
X156826725Y-132584145D01*
X156833226Y-132580861D01*
X156833229Y-132580860D01*
X157004105Y-132494544D01*
X157004106Y-132494544D01*
X157010610Y-132491258D01*
X157172951Y-132364424D01*
X157294932Y-132223107D01*
X157302803Y-132213988D01*
X157302804Y-132213986D01*
X157307564Y-132208472D01*
X157325140Y-132177533D01*
X157405724Y-132035680D01*
X157405725Y-132035677D01*
X157409323Y-132029344D01*
X157411624Y-132022427D01*
X157414586Y-132015774D01*
X157417040Y-132016866D01*
X157452303Y-131963391D01*
X157521268Y-131928858D01*
X157598260Y-131933435D01*
X157662649Y-131975895D01*
X157689277Y-132018759D01*
X157766414Y-132208725D01*
X157771910Y-132219606D01*
X157882190Y-132399566D01*
X157889403Y-132409422D01*
X158027591Y-132568950D01*
X158036311Y-132577489D01*
X158198716Y-132712320D01*
X158208686Y-132719302D01*
X158390945Y-132825805D01*
X158401920Y-132831064D01*
X158599127Y-132906370D01*
X158610817Y-132909766D01*
X158711778Y-132930306D01*
X158727765Y-132929328D01*
X158731000Y-132922840D01*
X158731000Y-132917016D01*
X159239000Y-132917016D01*
X159243145Y-132932487D01*
X159252271Y-132934932D01*
X159262244Y-132933654D01*
X159274167Y-132931120D01*
X159476348Y-132870463D01*
X159487691Y-132866017D01*
X159677245Y-132773156D01*
X159687715Y-132766915D01*
X159859552Y-132644345D01*
X159868874Y-132636467D01*
X160018381Y-132487480D01*
X160026281Y-132478198D01*
X160149451Y-132306789D01*
X160155734Y-132296332D01*
X160191924Y-132223107D01*
X160242828Y-132165164D01*
X160315885Y-132140436D01*
X160391518Y-132155549D01*
X160449461Y-132206453D01*
X160474189Y-132279510D01*
X160474500Y-132289125D01*
X160474500Y-132469748D01*
X160475927Y-132476921D01*
X160475927Y-132476923D01*
X160478779Y-132491258D01*
X160486133Y-132528231D01*
X160494288Y-132540435D01*
X160494288Y-132540436D01*
X160519047Y-132577489D01*
X160530448Y-132594552D01*
X160542651Y-132602706D01*
X160581561Y-132628705D01*
X160596769Y-132638867D01*
X160611165Y-132641731D01*
X160611166Y-132641731D01*
X160648077Y-132649073D01*
X160648079Y-132649073D01*
X160655252Y-132650500D01*
X162394748Y-132650500D01*
X162401921Y-132649073D01*
X162401923Y-132649073D01*
X162438834Y-132641731D01*
X162438835Y-132641731D01*
X162453231Y-132638867D01*
X162468440Y-132628705D01*
X162507349Y-132602706D01*
X162519552Y-132594552D01*
X162530953Y-132577489D01*
X162555712Y-132540436D01*
X162555712Y-132540435D01*
X162563867Y-132528231D01*
X162571222Y-132491258D01*
X162574073Y-132476923D01*
X162574073Y-132476921D01*
X162575500Y-132469748D01*
X162575500Y-131864655D01*
X164962511Y-131864655D01*
X164993355Y-132001518D01*
X164997003Y-132013157D01*
X165076414Y-132208725D01*
X165081910Y-132219606D01*
X165192190Y-132399566D01*
X165199403Y-132409422D01*
X165337591Y-132568950D01*
X165346311Y-132577489D01*
X165508716Y-132712320D01*
X165518686Y-132719302D01*
X165700945Y-132825805D01*
X165711920Y-132831064D01*
X165909127Y-132906370D01*
X165920817Y-132909766D01*
X166021778Y-132930306D01*
X166037765Y-132929328D01*
X166041000Y-132922840D01*
X166041000Y-131873616D01*
X166036855Y-131858145D01*
X166021384Y-131854000D01*
X164979726Y-131854000D01*
X164964255Y-131858145D01*
X164962511Y-131864655D01*
X162575500Y-131864655D01*
X162575500Y-131333629D01*
X164959542Y-131333629D01*
X164960902Y-131342319D01*
X164970435Y-131346000D01*
X166021384Y-131346000D01*
X166036855Y-131341855D01*
X166041000Y-131326384D01*
X166041000Y-130284603D01*
X166036855Y-130269132D01*
X166028515Y-130266898D01*
X165985256Y-130273517D01*
X165973394Y-130276343D01*
X165772759Y-130341920D01*
X165761532Y-130346639D01*
X165574300Y-130444107D01*
X165563981Y-130450605D01*
X165395185Y-130577341D01*
X165386073Y-130585431D01*
X165240248Y-130738029D01*
X165232573Y-130747505D01*
X165113621Y-130921883D01*
X165107607Y-130932470D01*
X165018734Y-131123931D01*
X165014524Y-131135372D01*
X164959542Y-131333629D01*
X162575500Y-131333629D01*
X162575500Y-130730252D01*
X162572810Y-130716726D01*
X162566731Y-130686166D01*
X162566731Y-130686165D01*
X162563867Y-130671769D01*
X162551635Y-130653462D01*
X162527706Y-130617651D01*
X162519552Y-130605448D01*
X162474882Y-130575600D01*
X162465436Y-130569288D01*
X162465435Y-130569288D01*
X162453231Y-130561133D01*
X162438835Y-130558269D01*
X162438834Y-130558269D01*
X162401923Y-130550927D01*
X162401921Y-130550927D01*
X162394748Y-130549500D01*
X160655252Y-130549500D01*
X160648079Y-130550927D01*
X160648077Y-130550927D01*
X160611166Y-130558269D01*
X160611165Y-130558269D01*
X160596769Y-130561133D01*
X160584565Y-130569288D01*
X160584564Y-130569288D01*
X160575118Y-130575600D01*
X160530448Y-130605448D01*
X160522294Y-130617651D01*
X160498366Y-130653462D01*
X160486133Y-130671769D01*
X160483269Y-130686165D01*
X160483269Y-130686166D01*
X160477190Y-130716726D01*
X160474500Y-130730252D01*
X160474500Y-130903439D01*
X160454538Y-130977939D01*
X160400000Y-131032477D01*
X160325500Y-131052439D01*
X160251000Y-131032477D01*
X160196462Y-130977939D01*
X160188859Y-130962855D01*
X160188349Y-130961683D01*
X160182590Y-130950942D01*
X160067937Y-130773716D01*
X160060504Y-130764063D01*
X159918440Y-130607937D01*
X159909534Y-130599632D01*
X159743880Y-130468807D01*
X159733725Y-130462060D01*
X159548939Y-130360053D01*
X159537813Y-130355053D01*
X159338859Y-130284599D01*
X159327057Y-130281480D01*
X159258310Y-130269235D01*
X159242355Y-130270603D01*
X159239000Y-130277764D01*
X159239000Y-132917016D01*
X158731000Y-132917016D01*
X158731000Y-130284603D01*
X158726855Y-130269132D01*
X158718515Y-130266898D01*
X158675256Y-130273517D01*
X158663394Y-130276343D01*
X158462759Y-130341920D01*
X158451532Y-130346639D01*
X158264300Y-130444107D01*
X158253981Y-130450605D01*
X158085185Y-130577341D01*
X158076073Y-130585431D01*
X157930248Y-130738029D01*
X157922573Y-130747505D01*
X157803621Y-130921883D01*
X157797607Y-130932470D01*
X157708734Y-131123931D01*
X157704525Y-131135372D01*
X157695751Y-131167008D01*
X157656605Y-131233463D01*
X157589477Y-131271443D01*
X157512351Y-131270770D01*
X157445896Y-131231624D01*
X157420614Y-131197146D01*
X157324218Y-131015849D01*
X157314253Y-131003630D01*
X157198612Y-130861841D01*
X157198610Y-130861839D01*
X157194011Y-130856200D01*
X157188401Y-130851559D01*
X157188398Y-130851556D01*
X157117757Y-130793117D01*
X157073078Y-130730248D01*
X157065820Y-130653462D01*
X157097927Y-130583335D01*
X157107374Y-130572952D01*
X157645400Y-130034927D01*
X158240518Y-129439809D01*
X158250102Y-129431027D01*
X158268208Y-129415834D01*
X158278194Y-129407455D01*
X158296537Y-129375684D01*
X158303520Y-129364723D01*
X158314552Y-129348967D01*
X158324553Y-129334684D01*
X158327821Y-129322490D01*
X158328701Y-129320799D01*
X158329274Y-129318982D01*
X158335588Y-129308045D01*
X158337851Y-129295209D01*
X158337853Y-129295204D01*
X158341960Y-129271912D01*
X158344773Y-129259222D01*
X158354263Y-129223807D01*
X158351067Y-129187275D01*
X158350500Y-129174289D01*
X158350500Y-124968440D01*
X159639770Y-124968440D01*
X159640217Y-124975258D01*
X159653289Y-125174698D01*
X159654200Y-125188604D01*
X159708511Y-125402452D01*
X159711369Y-125408652D01*
X159711371Y-125408657D01*
X159798022Y-125596616D01*
X159800883Y-125602821D01*
X159928222Y-125783002D01*
X160086264Y-125936961D01*
X160269717Y-126059540D01*
X160275985Y-126062233D01*
X160275987Y-126062234D01*
X160346763Y-126092642D01*
X160472436Y-126146635D01*
X160687632Y-126195329D01*
X160733767Y-126197142D01*
X160901269Y-126203723D01*
X160901272Y-126203723D01*
X160908098Y-126203991D01*
X161126452Y-126172331D01*
X161132908Y-126170139D01*
X161132914Y-126170138D01*
X161288448Y-126117341D01*
X161335379Y-126101410D01*
X161433187Y-126046635D01*
X161521924Y-125996940D01*
X161521926Y-125996939D01*
X161527884Y-125993602D01*
X161697518Y-125852518D01*
X161838602Y-125682884D01*
X161844745Y-125671916D01*
X161925212Y-125528231D01*
X161946410Y-125490379D01*
X161978506Y-125395828D01*
X162015138Y-125287914D01*
X162015139Y-125287908D01*
X162017331Y-125281452D01*
X162048991Y-125063098D01*
X162050643Y-125000000D01*
X162048370Y-124975258D01*
X162031079Y-124787091D01*
X162030454Y-124780289D01*
X161970565Y-124567936D01*
X161906794Y-124438620D01*
X161876002Y-124376181D01*
X161872980Y-124370053D01*
X161740967Y-124193267D01*
X161735950Y-124188629D01*
X161735947Y-124188626D01*
X161583970Y-124048140D01*
X161583968Y-124048138D01*
X161578949Y-124043499D01*
X161573171Y-124039854D01*
X161573168Y-124039851D01*
X161398127Y-123929409D01*
X161392350Y-123925764D01*
X161187421Y-123844006D01*
X161114037Y-123829409D01*
X160977727Y-123802295D01*
X160977724Y-123802295D01*
X160971024Y-123800962D01*
X160859264Y-123799499D01*
X160757240Y-123798163D01*
X160757235Y-123798163D01*
X160750406Y-123798074D01*
X160743673Y-123799231D01*
X160743672Y-123799231D01*
X160670501Y-123811804D01*
X160532957Y-123835438D01*
X160526558Y-123837799D01*
X160526553Y-123837800D01*
X160413487Y-123879513D01*
X160325957Y-123911804D01*
X160136341Y-124024614D01*
X159970457Y-124170090D01*
X159966230Y-124175452D01*
X159966229Y-124175453D01*
X159955845Y-124188626D01*
X159833863Y-124343360D01*
X159731131Y-124538620D01*
X159729106Y-124545143D01*
X159667727Y-124742813D01*
X159667726Y-124742818D01*
X159665703Y-124749333D01*
X159664901Y-124756110D01*
X159664900Y-124756114D01*
X159640573Y-124961653D01*
X159639770Y-124968440D01*
X158350500Y-124968440D01*
X158350500Y-119920544D01*
X158370462Y-119846044D01*
X158425000Y-119791506D01*
X158499500Y-119771544D01*
X158574000Y-119791506D01*
X158604859Y-119815185D01*
X168465859Y-129676185D01*
X168504423Y-129742980D01*
X168509500Y-129781544D01*
X168509500Y-130494485D01*
X168489538Y-130568985D01*
X168429531Y-130626529D01*
X168263460Y-130713349D01*
X168263454Y-130713353D01*
X168257002Y-130716726D01*
X168096447Y-130845815D01*
X168091763Y-130851397D01*
X168091760Y-130851400D01*
X167999222Y-130961683D01*
X167964024Y-131003630D01*
X167864776Y-131184162D01*
X167864623Y-131184643D01*
X167818510Y-131243245D01*
X167746899Y-131271889D01*
X167670559Y-131260891D01*
X167609946Y-131213195D01*
X167588203Y-131171958D01*
X167582516Y-131155254D01*
X167498350Y-130961685D01*
X167492590Y-130950942D01*
X167377937Y-130773716D01*
X167370504Y-130764063D01*
X167228440Y-130607937D01*
X167219534Y-130599632D01*
X167053880Y-130468807D01*
X167043725Y-130462060D01*
X166858939Y-130360053D01*
X166847813Y-130355053D01*
X166648859Y-130284599D01*
X166637057Y-130281480D01*
X166568310Y-130269235D01*
X166552355Y-130270603D01*
X166549000Y-130277764D01*
X166549000Y-132917016D01*
X166553145Y-132932487D01*
X166562271Y-132934932D01*
X166572244Y-132933654D01*
X166584167Y-132931120D01*
X166786348Y-132870463D01*
X166797691Y-132866017D01*
X166987245Y-132773156D01*
X166997715Y-132766915D01*
X167169552Y-132644345D01*
X167178874Y-132636467D01*
X167328381Y-132487480D01*
X167336281Y-132478198D01*
X167459451Y-132306789D01*
X167465734Y-132296332D01*
X167559254Y-132107109D01*
X167563742Y-132095775D01*
X167584942Y-132025998D01*
X167625700Y-131960518D01*
X167693737Y-131924190D01*
X167770822Y-131926748D01*
X167836302Y-131967506D01*
X167860029Y-132001205D01*
X167947712Y-132171818D01*
X168075677Y-132333270D01*
X168081223Y-132337990D01*
X168165156Y-132409422D01*
X168232564Y-132466791D01*
X168412398Y-132567297D01*
X168608329Y-132630959D01*
X168663907Y-132637586D01*
X168805662Y-132654489D01*
X168805665Y-132654489D01*
X168812894Y-132655351D01*
X168974918Y-132642884D01*
X169011036Y-132640105D01*
X169011037Y-132640105D01*
X169018300Y-132639546D01*
X169086016Y-132620639D01*
X169209707Y-132586105D01*
X169209712Y-132586103D01*
X169216725Y-132584145D01*
X169223226Y-132580861D01*
X169223229Y-132580860D01*
X169394105Y-132494544D01*
X169394106Y-132494544D01*
X169400610Y-132491258D01*
X169428142Y-132469748D01*
X170324500Y-132469748D01*
X170325927Y-132476921D01*
X170325927Y-132476923D01*
X170328779Y-132491258D01*
X170336133Y-132528231D01*
X170344288Y-132540435D01*
X170344288Y-132540436D01*
X170369047Y-132577489D01*
X170380448Y-132594552D01*
X170392651Y-132602706D01*
X170431561Y-132628705D01*
X170446769Y-132638867D01*
X170461165Y-132641731D01*
X170461166Y-132641731D01*
X170498077Y-132649073D01*
X170498079Y-132649073D01*
X170505252Y-132650500D01*
X172244748Y-132650500D01*
X172251921Y-132649073D01*
X172251923Y-132649073D01*
X172288834Y-132641731D01*
X172288835Y-132641731D01*
X172303231Y-132638867D01*
X172318440Y-132628705D01*
X172357349Y-132602706D01*
X172369552Y-132594552D01*
X172380953Y-132577489D01*
X172405712Y-132540436D01*
X172405712Y-132540435D01*
X172413867Y-132528231D01*
X172421222Y-132491258D01*
X172424073Y-132476923D01*
X172424073Y-132476921D01*
X172425500Y-132469748D01*
X172425500Y-130730252D01*
X172422810Y-130716726D01*
X172416731Y-130686166D01*
X172416731Y-130686165D01*
X172413867Y-130671769D01*
X172401635Y-130653462D01*
X172377706Y-130617651D01*
X172369552Y-130605448D01*
X172324882Y-130575600D01*
X172315436Y-130569288D01*
X172315435Y-130569288D01*
X172303231Y-130561133D01*
X172288835Y-130558269D01*
X172288834Y-130558269D01*
X172251923Y-130550927D01*
X172251921Y-130550927D01*
X172244748Y-130549500D01*
X170505252Y-130549500D01*
X170498079Y-130550927D01*
X170498077Y-130550927D01*
X170461166Y-130558269D01*
X170461165Y-130558269D01*
X170446769Y-130561133D01*
X170434565Y-130569288D01*
X170434564Y-130569288D01*
X170425118Y-130575600D01*
X170380448Y-130605448D01*
X170372294Y-130617651D01*
X170348366Y-130653462D01*
X170336133Y-130671769D01*
X170333269Y-130686165D01*
X170333269Y-130686166D01*
X170327190Y-130716726D01*
X170324500Y-130730252D01*
X170324500Y-132469748D01*
X169428142Y-132469748D01*
X169562951Y-132364424D01*
X169684932Y-132223107D01*
X169692803Y-132213988D01*
X169692804Y-132213986D01*
X169697564Y-132208472D01*
X169715140Y-132177533D01*
X169795724Y-132035680D01*
X169795725Y-132035677D01*
X169799323Y-132029344D01*
X169864351Y-131833863D01*
X169890171Y-131629474D01*
X169890583Y-131600000D01*
X169870480Y-131394970D01*
X169821163Y-131231624D01*
X169813041Y-131204724D01*
X169813041Y-131204723D01*
X169810935Y-131197749D01*
X169807405Y-131191109D01*
X169777769Y-131135372D01*
X169714218Y-131015849D01*
X169704253Y-131003630D01*
X169588612Y-130861841D01*
X169588610Y-130861839D01*
X169584011Y-130856200D01*
X169578401Y-130851559D01*
X169578398Y-130851556D01*
X169430890Y-130729527D01*
X169430889Y-130729526D01*
X169425275Y-130724882D01*
X169418871Y-130721420D01*
X169418869Y-130721418D01*
X169244055Y-130626897D01*
X169244806Y-130625509D01*
X169190826Y-130583647D01*
X169161677Y-130512239D01*
X169160500Y-130493550D01*
X169160500Y-129605720D01*
X169161067Y-129592733D01*
X169163128Y-129569180D01*
X169163128Y-129569179D01*
X169164264Y-129556193D01*
X169154770Y-129520761D01*
X169151958Y-129508077D01*
X169147852Y-129484793D01*
X169147851Y-129484791D01*
X169145588Y-129471955D01*
X169139277Y-129461025D01*
X169138703Y-129459203D01*
X169137821Y-129457509D01*
X169134554Y-129445316D01*
X169113509Y-129415261D01*
X169106539Y-129404320D01*
X169088194Y-129372545D01*
X169060094Y-129348966D01*
X169050512Y-129340186D01*
X159114141Y-119403815D01*
X159075577Y-119337020D01*
X159070500Y-119298456D01*
X159070500Y-115376427D01*
X159090462Y-115301927D01*
X159145000Y-115247389D01*
X159219500Y-115227427D01*
X159276521Y-115238769D01*
X159388238Y-115285044D01*
X159397919Y-115286319D01*
X159397921Y-115286319D01*
X159535315Y-115304407D01*
X159545000Y-115305682D01*
X159554685Y-115304407D01*
X159631838Y-115294250D01*
X159708307Y-115304317D01*
X159756645Y-115336616D01*
X161462010Y-117041981D01*
X161500574Y-117108776D01*
X161504376Y-117166788D01*
X161494394Y-117242611D01*
X161512999Y-117411135D01*
X161571266Y-117570356D01*
X161665830Y-117711083D01*
X161672472Y-117717126D01*
X161672473Y-117717128D01*
X161778752Y-117813834D01*
X161791233Y-117825191D01*
X161799128Y-117829478D01*
X161799130Y-117829479D01*
X161932344Y-117901808D01*
X161932347Y-117901809D01*
X161940235Y-117906092D01*
X161977743Y-117915932D01*
X162095549Y-117946838D01*
X162095551Y-117946838D01*
X162104233Y-117949116D01*
X162113209Y-117949257D01*
X162264781Y-117951638D01*
X162273760Y-117951779D01*
X162439029Y-117913928D01*
X162454609Y-117906092D01*
X162582472Y-117841784D01*
X162582474Y-117841783D01*
X162590498Y-117837747D01*
X162597330Y-117831912D01*
X162602545Y-117828447D01*
X162675645Y-117803846D01*
X162751251Y-117819091D01*
X162808888Y-117869769D01*
X162825448Y-117894552D01*
X162837651Y-117902706D01*
X162848409Y-117909894D01*
X162891769Y-117938867D01*
X162906165Y-117941731D01*
X162906166Y-117941731D01*
X162943077Y-117949073D01*
X162943079Y-117949073D01*
X162950252Y-117950500D01*
X163989748Y-117950500D01*
X163996921Y-117949073D01*
X163996923Y-117949073D01*
X164033834Y-117941731D01*
X164033835Y-117941731D01*
X164048231Y-117938867D01*
X164091592Y-117909894D01*
X164102349Y-117902706D01*
X164114552Y-117894552D01*
X164158867Y-117828231D01*
X164163718Y-117803846D01*
X164169073Y-117776923D01*
X164169073Y-117776921D01*
X164170500Y-117769748D01*
X164170500Y-116766591D01*
X164190462Y-116692091D01*
X164206708Y-116669231D01*
X164292905Y-116569371D01*
X164301268Y-116557516D01*
X164391712Y-116398306D01*
X164397607Y-116385066D01*
X164441668Y-116252613D01*
X164442618Y-116236625D01*
X164439539Y-116234594D01*
X164435870Y-116234000D01*
X163365000Y-116234000D01*
X163290500Y-116214038D01*
X163235962Y-116159500D01*
X163216000Y-116085000D01*
X163216000Y-115706384D01*
X163724000Y-115706384D01*
X163728145Y-115721855D01*
X163743616Y-115726000D01*
X164426682Y-115726000D01*
X164442153Y-115721855D01*
X164443389Y-115717241D01*
X164443136Y-115715526D01*
X164408558Y-115601001D01*
X164403031Y-115587591D01*
X164317066Y-115425913D01*
X164316895Y-115425655D01*
X164316836Y-115425480D01*
X164313647Y-115419482D01*
X164314640Y-115418954D01*
X164292294Y-115352555D01*
X164307539Y-115276949D01*
X164311445Y-115269602D01*
X164391712Y-115128306D01*
X164397607Y-115115066D01*
X164441668Y-114982613D01*
X164442618Y-114966625D01*
X164439539Y-114964594D01*
X164435870Y-114964000D01*
X163743616Y-114964000D01*
X163728145Y-114968145D01*
X163724000Y-114983616D01*
X163724000Y-115706384D01*
X163216000Y-115706384D01*
X163216000Y-114436384D01*
X163724000Y-114436384D01*
X163728145Y-114451855D01*
X163743616Y-114456000D01*
X164426682Y-114456000D01*
X164442153Y-114451855D01*
X164443389Y-114447241D01*
X164443136Y-114445526D01*
X164408558Y-114331001D01*
X164403031Y-114317591D01*
X164317066Y-114155913D01*
X164316895Y-114155655D01*
X164316836Y-114155480D01*
X164313647Y-114149482D01*
X164314640Y-114148954D01*
X164292294Y-114082555D01*
X164307539Y-114006949D01*
X164311445Y-113999602D01*
X164391712Y-113858306D01*
X164397607Y-113845066D01*
X164441668Y-113712613D01*
X164442618Y-113696625D01*
X164439539Y-113694594D01*
X164435870Y-113694000D01*
X163743616Y-113694000D01*
X163728145Y-113698145D01*
X163724000Y-113713616D01*
X163724000Y-114436384D01*
X163216000Y-114436384D01*
X163216000Y-113166384D01*
X163724000Y-113166384D01*
X163728145Y-113181855D01*
X163743616Y-113186000D01*
X164426682Y-113186000D01*
X164442153Y-113181855D01*
X164443389Y-113177241D01*
X164443136Y-113175526D01*
X164408558Y-113061001D01*
X164403031Y-113047591D01*
X164317066Y-112885913D01*
X164316895Y-112885655D01*
X164316836Y-112885480D01*
X164313647Y-112879482D01*
X164314640Y-112878954D01*
X164292294Y-112812555D01*
X164307539Y-112736949D01*
X164311445Y-112729602D01*
X164391712Y-112588306D01*
X164397607Y-112575066D01*
X164441668Y-112442613D01*
X164442618Y-112426625D01*
X164439539Y-112424594D01*
X164435870Y-112424000D01*
X163743616Y-112424000D01*
X163728145Y-112428145D01*
X163724000Y-112443616D01*
X163724000Y-113166384D01*
X163216000Y-113166384D01*
X163216000Y-112218440D01*
X166439770Y-112218440D01*
X166440217Y-112225258D01*
X166453282Y-112424594D01*
X166454200Y-112438604D01*
X166508511Y-112652452D01*
X166511369Y-112658652D01*
X166511371Y-112658657D01*
X166579022Y-112805402D01*
X166600883Y-112852821D01*
X166728222Y-113033002D01*
X166886264Y-113186961D01*
X167069717Y-113309540D01*
X167272436Y-113396635D01*
X167487632Y-113445329D01*
X167533767Y-113447142D01*
X167701269Y-113453723D01*
X167701272Y-113453723D01*
X167708098Y-113453991D01*
X167926452Y-113422331D01*
X167932908Y-113420139D01*
X167932914Y-113420138D01*
X168074833Y-113371962D01*
X168135379Y-113351410D01*
X168290545Y-113264513D01*
X168321924Y-113246940D01*
X168321926Y-113246939D01*
X168327884Y-113243602D01*
X168497518Y-113102518D01*
X168638602Y-112932884D01*
X168680315Y-112858401D01*
X168743076Y-112746332D01*
X168746410Y-112740379D01*
X168798032Y-112588306D01*
X168815138Y-112537914D01*
X168815139Y-112537908D01*
X168817331Y-112531452D01*
X168848991Y-112313098D01*
X168850643Y-112250000D01*
X168848370Y-112225258D01*
X168831079Y-112037091D01*
X168830454Y-112030289D01*
X168770565Y-111817936D01*
X168763175Y-111802949D01*
X168676002Y-111626181D01*
X168672980Y-111620053D01*
X168650957Y-111590560D01*
X168591713Y-111511224D01*
X168540967Y-111443267D01*
X168535950Y-111438629D01*
X168535947Y-111438626D01*
X168383970Y-111298140D01*
X168383968Y-111298138D01*
X168378949Y-111293499D01*
X168373171Y-111289854D01*
X168373168Y-111289851D01*
X168198127Y-111179409D01*
X168192350Y-111175764D01*
X167987421Y-111094006D01*
X167927541Y-111082095D01*
X167777727Y-111052295D01*
X167777724Y-111052295D01*
X167771024Y-111050962D01*
X167659264Y-111049499D01*
X167557240Y-111048163D01*
X167557235Y-111048163D01*
X167550406Y-111048074D01*
X167543673Y-111049231D01*
X167543672Y-111049231D01*
X167421843Y-111070165D01*
X167332957Y-111085438D01*
X167326558Y-111087799D01*
X167326553Y-111087800D01*
X167213487Y-111129513D01*
X167125957Y-111161804D01*
X166936341Y-111274614D01*
X166770457Y-111420090D01*
X166766230Y-111425452D01*
X166766229Y-111425453D01*
X166657771Y-111563033D01*
X166633863Y-111593360D01*
X166619819Y-111620053D01*
X166536934Y-111777591D01*
X166531131Y-111788620D01*
X166515816Y-111837944D01*
X166467727Y-111992813D01*
X166467726Y-111992818D01*
X166465703Y-111999333D01*
X166464901Y-112006110D01*
X166464900Y-112006114D01*
X166443754Y-112184778D01*
X166439770Y-112218440D01*
X163216000Y-112218440D01*
X163216000Y-111896384D01*
X163724000Y-111896384D01*
X163728145Y-111911855D01*
X163743616Y-111916000D01*
X164426682Y-111916000D01*
X164442153Y-111911855D01*
X164443389Y-111907241D01*
X164443136Y-111905526D01*
X164408558Y-111791001D01*
X164403031Y-111777591D01*
X164317065Y-111615911D01*
X164309043Y-111603837D01*
X164193311Y-111461936D01*
X164183097Y-111451650D01*
X164042010Y-111334933D01*
X164029982Y-111326820D01*
X163868917Y-111239733D01*
X163855544Y-111234111D01*
X163742737Y-111199192D01*
X163726734Y-111198577D01*
X163724334Y-111202389D01*
X163724000Y-111204595D01*
X163724000Y-111896384D01*
X163216000Y-111896384D01*
X163216000Y-111213577D01*
X163211855Y-111198106D01*
X163206979Y-111196800D01*
X163205754Y-111196977D01*
X163097557Y-111228821D01*
X163084113Y-111234253D01*
X162921842Y-111319086D01*
X162909712Y-111327023D01*
X162767007Y-111441760D01*
X162756639Y-111451913D01*
X162706159Y-111512073D01*
X162642980Y-111556311D01*
X162566145Y-111563033D01*
X162522298Y-111547978D01*
X162460823Y-111515429D01*
X162452881Y-111511224D01*
X162444168Y-111509035D01*
X162444167Y-111509035D01*
X162371691Y-111490830D01*
X162288441Y-111469919D01*
X162184002Y-111469372D01*
X162127873Y-111469078D01*
X162118895Y-111469031D01*
X162110164Y-111471127D01*
X162110165Y-111471127D01*
X161962765Y-111506515D01*
X161962762Y-111506516D01*
X161954032Y-111508612D01*
X161946053Y-111512730D01*
X161946051Y-111512731D01*
X161861617Y-111556311D01*
X161803369Y-111586375D01*
X161796602Y-111592279D01*
X161796598Y-111592281D01*
X161757738Y-111626181D01*
X161675604Y-111697831D01*
X161578113Y-111836547D01*
X161516524Y-111994513D01*
X161494394Y-112162611D01*
X161512999Y-112331135D01*
X161516087Y-112339572D01*
X161516087Y-112339574D01*
X161523987Y-112361162D01*
X161571266Y-112490356D01*
X161576275Y-112497811D01*
X161576276Y-112497812D01*
X161638643Y-112590624D01*
X161665830Y-112631083D01*
X161672472Y-112637126D01*
X161672473Y-112637128D01*
X161735864Y-112694809D01*
X161777532Y-112759713D01*
X161781165Y-112836755D01*
X161745790Y-112905293D01*
X161733534Y-112917295D01*
X161709643Y-112938137D01*
X161675604Y-112967831D01*
X161578113Y-113106547D01*
X161516524Y-113264513D01*
X161494394Y-113432611D01*
X161512999Y-113601135D01*
X161516087Y-113609572D01*
X161516087Y-113609574D01*
X161546983Y-113694000D01*
X161571266Y-113760356D01*
X161576275Y-113767811D01*
X161576276Y-113767812D01*
X161584431Y-113779947D01*
X161665830Y-113901083D01*
X161672472Y-113907126D01*
X161672473Y-113907128D01*
X161735864Y-113964809D01*
X161777532Y-114029713D01*
X161781165Y-114106755D01*
X161745790Y-114175293D01*
X161733534Y-114187295D01*
X161682373Y-114231926D01*
X161675604Y-114237831D01*
X161578113Y-114376547D01*
X161516524Y-114534513D01*
X161494394Y-114702611D01*
X161512999Y-114871135D01*
X161516087Y-114879572D01*
X161516087Y-114879574D01*
X161546983Y-114964000D01*
X161571266Y-115030356D01*
X161576275Y-115037811D01*
X161576276Y-115037812D01*
X161584431Y-115049947D01*
X161665830Y-115171083D01*
X161672472Y-115177126D01*
X161672473Y-115177128D01*
X161735864Y-115234809D01*
X161777532Y-115299713D01*
X161781165Y-115376755D01*
X161745790Y-115445293D01*
X161733534Y-115457295D01*
X161682373Y-115501926D01*
X161675604Y-115507831D01*
X161578113Y-115646547D01*
X161516524Y-115804513D01*
X161515352Y-115813417D01*
X161504536Y-115895571D01*
X161475021Y-115966828D01*
X161413831Y-116013780D01*
X161337362Y-116023847D01*
X161266105Y-115994332D01*
X161251458Y-115981487D01*
X160181616Y-114911645D01*
X160143052Y-114844850D01*
X160139250Y-114786838D01*
X160149407Y-114709685D01*
X160150682Y-114700000D01*
X160130044Y-114543238D01*
X160069536Y-114397159D01*
X159973282Y-114271718D01*
X159847841Y-114175464D01*
X159837784Y-114171298D01*
X159710784Y-114118693D01*
X159701762Y-114114956D01*
X159692081Y-114113681D01*
X159692079Y-114113681D01*
X159554685Y-114095593D01*
X159545000Y-114094318D01*
X159535315Y-114095593D01*
X159397921Y-114113681D01*
X159397919Y-114113681D01*
X159388238Y-114114956D01*
X159379216Y-114118693D01*
X159276520Y-114161231D01*
X159200051Y-114171298D01*
X159128794Y-114141783D01*
X159081842Y-114080593D01*
X159070500Y-114023573D01*
X159070500Y-107100000D01*
X159839318Y-107100000D01*
X159859956Y-107256762D01*
X159920464Y-107402841D01*
X160016718Y-107528282D01*
X160142159Y-107624536D01*
X160288238Y-107685044D01*
X160297919Y-107686319D01*
X160297921Y-107686319D01*
X160435315Y-107704407D01*
X160445000Y-107705682D01*
X160454685Y-107704407D01*
X160592079Y-107686319D01*
X160592081Y-107686319D01*
X160601762Y-107685044D01*
X160747841Y-107624536D01*
X160873282Y-107528282D01*
X160907418Y-107483795D01*
X160968608Y-107436842D01*
X161025628Y-107425500D01*
X164264372Y-107425500D01*
X164338872Y-107445462D01*
X164382582Y-107483795D01*
X164416718Y-107528282D01*
X164542159Y-107624536D01*
X164688238Y-107685044D01*
X164697919Y-107686319D01*
X164697921Y-107686319D01*
X164835315Y-107704407D01*
X164845000Y-107705682D01*
X164854685Y-107704407D01*
X164992079Y-107686319D01*
X164992081Y-107686319D01*
X165001762Y-107685044D01*
X165147841Y-107624536D01*
X165273282Y-107528282D01*
X165369536Y-107402841D01*
X165430044Y-107256762D01*
X165450682Y-107100000D01*
X165445393Y-107059827D01*
X165431319Y-106952921D01*
X165431319Y-106952919D01*
X165430044Y-106943238D01*
X165369536Y-106797159D01*
X165273282Y-106671718D01*
X165147841Y-106575464D01*
X165001762Y-106514956D01*
X164992081Y-106513681D01*
X164992079Y-106513681D01*
X164854685Y-106495593D01*
X164845000Y-106494318D01*
X164835315Y-106495593D01*
X164697921Y-106513681D01*
X164697919Y-106513681D01*
X164688238Y-106514956D01*
X164542159Y-106575464D01*
X164416718Y-106671718D01*
X164410772Y-106679467D01*
X164382582Y-106716205D01*
X164321392Y-106763158D01*
X164264372Y-106774500D01*
X161025628Y-106774500D01*
X160951128Y-106754538D01*
X160907418Y-106716205D01*
X160879228Y-106679467D01*
X160873282Y-106671718D01*
X160747841Y-106575464D01*
X160601762Y-106514956D01*
X160592081Y-106513681D01*
X160592079Y-106513681D01*
X160454685Y-106495593D01*
X160445000Y-106494318D01*
X160435315Y-106495593D01*
X160297921Y-106513681D01*
X160297919Y-106513681D01*
X160288238Y-106514956D01*
X160142159Y-106575464D01*
X160016718Y-106671718D01*
X159920464Y-106797159D01*
X159859956Y-106943238D01*
X159858681Y-106952919D01*
X159858681Y-106952921D01*
X159844607Y-107059827D01*
X159839318Y-107100000D01*
X159070500Y-107100000D01*
X159070500Y-105884465D01*
X159090462Y-105809965D01*
X159128794Y-105766256D01*
X159170532Y-105734229D01*
X159170533Y-105734228D01*
X159178282Y-105728282D01*
X159274536Y-105602841D01*
X159335044Y-105456762D01*
X159343576Y-105391959D01*
X159354407Y-105309685D01*
X159355682Y-105300000D01*
X159349814Y-105255430D01*
X159336319Y-105152921D01*
X159336319Y-105152919D01*
X159335044Y-105143238D01*
X159305419Y-105071718D01*
X159278274Y-105006183D01*
X159278274Y-105006182D01*
X159274536Y-104997159D01*
X159178282Y-104871718D01*
X159052841Y-104775464D01*
X158986883Y-104748143D01*
X158915784Y-104718693D01*
X158906762Y-104714956D01*
X158897081Y-104713681D01*
X158897079Y-104713681D01*
X158759685Y-104695593D01*
X158750000Y-104694318D01*
X158740315Y-104695593D01*
X158602921Y-104713681D01*
X158602919Y-104713681D01*
X158593238Y-104714956D01*
X158584216Y-104718693D01*
X158513118Y-104748143D01*
X158447159Y-104775464D01*
X158321718Y-104871718D01*
X158225464Y-104997159D01*
X158164956Y-105143238D01*
X158163681Y-105152926D01*
X158162768Y-105156332D01*
X158124206Y-105223128D01*
X158057412Y-105261694D01*
X157980284Y-105261696D01*
X157961824Y-105255430D01*
X157903292Y-105231185D01*
X157894270Y-105227448D01*
X157884589Y-105226173D01*
X157884587Y-105226173D01*
X157747193Y-105208085D01*
X157737508Y-105206810D01*
X157727823Y-105208085D01*
X157590429Y-105226173D01*
X157590427Y-105226173D01*
X157580746Y-105227448D01*
X157571724Y-105231185D01*
X157513192Y-105255430D01*
X157434667Y-105287956D01*
X157309226Y-105384210D01*
X157212972Y-105509651D01*
X157152464Y-105655730D01*
X157151190Y-105665409D01*
X157151189Y-105665412D01*
X157142354Y-105732522D01*
X157112838Y-105803779D01*
X157051648Y-105850731D01*
X156975181Y-105860798D01*
X156859685Y-105845593D01*
X156850000Y-105844318D01*
X156840315Y-105845593D01*
X156702921Y-105863681D01*
X156702919Y-105863681D01*
X156693238Y-105864956D01*
X156547159Y-105925464D01*
X156421718Y-106021718D01*
X156325464Y-106147159D01*
X156264956Y-106293238D01*
X156244318Y-106450000D01*
X156245593Y-106459685D01*
X156260836Y-106575464D01*
X156264956Y-106606762D01*
X156325464Y-106752841D01*
X156421718Y-106878282D01*
X156547159Y-106974536D01*
X156693238Y-107035044D01*
X156702919Y-107036319D01*
X156702921Y-107036319D01*
X156840315Y-107054407D01*
X156850000Y-107055682D01*
X156853526Y-107055218D01*
X156925000Y-107074369D01*
X156979538Y-107128907D01*
X156999500Y-107203407D01*
X156999500Y-127768455D01*
X156979538Y-127842955D01*
X156955859Y-127873814D01*
X155618855Y-129210819D01*
X154292638Y-130537036D01*
X154225843Y-130575600D01*
X154143221Y-130574014D01*
X154124220Y-130568133D01*
X154124217Y-130568132D01*
X154117254Y-130565977D01*
X154110012Y-130565216D01*
X154110008Y-130565215D01*
X153919610Y-130545204D01*
X153919609Y-130545204D01*
X153912369Y-130544443D01*
X153707203Y-130563114D01*
X153700214Y-130565171D01*
X153516560Y-130619223D01*
X153516557Y-130619224D01*
X153509572Y-130621280D01*
X153503117Y-130624655D01*
X153503116Y-130624655D01*
X153491354Y-130630804D01*
X153327002Y-130716726D01*
X153166447Y-130845815D01*
X153161763Y-130851397D01*
X153161760Y-130851400D01*
X153069222Y-130961683D01*
X153034024Y-131003630D01*
X152934776Y-131184162D01*
X152932573Y-131191106D01*
X152932572Y-131191109D01*
X152930659Y-131197140D01*
X152872484Y-131380532D01*
X152871671Y-131387776D01*
X152871671Y-131387778D01*
X152870051Y-131402223D01*
X152849520Y-131585262D01*
X149970500Y-131585262D01*
X149970500Y-130730252D01*
X149967810Y-130716726D01*
X149961731Y-130686166D01*
X149961731Y-130686165D01*
X149958867Y-130671769D01*
X149946635Y-130653462D01*
X149922706Y-130617651D01*
X149914552Y-130605448D01*
X149869882Y-130575600D01*
X149860436Y-130569288D01*
X149860435Y-130569288D01*
X149848231Y-130561133D01*
X149833835Y-130558269D01*
X149833834Y-130558269D01*
X149796923Y-130550927D01*
X149796921Y-130550927D01*
X149789748Y-130549500D01*
X148050252Y-130549500D01*
X148043079Y-130550927D01*
X148043077Y-130550927D01*
X148006166Y-130558269D01*
X148006165Y-130558269D01*
X147991769Y-130561133D01*
X147979565Y-130569288D01*
X147979564Y-130569288D01*
X147970118Y-130575600D01*
X147925448Y-130605448D01*
X147917294Y-130617651D01*
X147893366Y-130653462D01*
X147881133Y-130671769D01*
X147878269Y-130686165D01*
X147878269Y-130686166D01*
X147872190Y-130716726D01*
X147869500Y-130730252D01*
X147869500Y-130903439D01*
X147849538Y-130977939D01*
X147795000Y-131032477D01*
X147720500Y-131052439D01*
X147646000Y-131032477D01*
X147591462Y-130977939D01*
X147583859Y-130962855D01*
X147583349Y-130961683D01*
X147577590Y-130950942D01*
X147462937Y-130773716D01*
X147455504Y-130764063D01*
X147313440Y-130607937D01*
X147304534Y-130599632D01*
X147138880Y-130468807D01*
X147128725Y-130462060D01*
X146943939Y-130360053D01*
X146932813Y-130355053D01*
X146733859Y-130284599D01*
X146722057Y-130281480D01*
X146653310Y-130269235D01*
X146637355Y-130270603D01*
X146634000Y-130277764D01*
X146634000Y-132917016D01*
X146126000Y-132917016D01*
X146126000Y-131873616D01*
X146121855Y-131858145D01*
X146106384Y-131854000D01*
X145064726Y-131854000D01*
X145049255Y-131858145D01*
X145047511Y-131864655D01*
X133954031Y-131864655D01*
X134056750Y-131839994D01*
X134067844Y-131836389D01*
X134276324Y-131750034D01*
X134286729Y-131744733D01*
X134452168Y-131643351D01*
X134463192Y-131631734D01*
X134461368Y-131625578D01*
X134169419Y-131333629D01*
X145044542Y-131333629D01*
X145045902Y-131342319D01*
X145055435Y-131346000D01*
X146106384Y-131346000D01*
X146121855Y-131341855D01*
X146126000Y-131326384D01*
X146126000Y-130284603D01*
X146121855Y-130269132D01*
X146113515Y-130266898D01*
X146070256Y-130273517D01*
X146058394Y-130276343D01*
X145857759Y-130341920D01*
X145846532Y-130346639D01*
X145659300Y-130444107D01*
X145648981Y-130450605D01*
X145480185Y-130577341D01*
X145471073Y-130585431D01*
X145325248Y-130738029D01*
X145317573Y-130747505D01*
X145198621Y-130921883D01*
X145192607Y-130932470D01*
X145103734Y-131123931D01*
X145099524Y-131135372D01*
X145044542Y-131333629D01*
X134169419Y-131333629D01*
X133608871Y-130773081D01*
X133595000Y-130765073D01*
X133581129Y-130773081D01*
X132734979Y-131619231D01*
X132726971Y-131633102D01*
X120340000Y-131633102D01*
X120340000Y-130405832D01*
X132082796Y-130405832D01*
X132100501Y-130630804D01*
X132102325Y-130642320D01*
X132155006Y-130861750D01*
X132158611Y-130872844D01*
X132244966Y-131081324D01*
X132250267Y-131091729D01*
X132351649Y-131257168D01*
X132363266Y-131268192D01*
X132369422Y-131266368D01*
X133221919Y-130413871D01*
X133229927Y-130400000D01*
X133960073Y-130400000D01*
X133968081Y-130413871D01*
X134814231Y-131260021D01*
X134828102Y-131268029D01*
X134833662Y-131264820D01*
X134939733Y-131091729D01*
X134945034Y-131081324D01*
X135031389Y-130872844D01*
X135034994Y-130861750D01*
X135087675Y-130642320D01*
X135089499Y-130630804D01*
X135107204Y-130405832D01*
X135107204Y-130394168D01*
X135089499Y-130169196D01*
X135087675Y-130157680D01*
X135034994Y-129938250D01*
X135031389Y-129927156D01*
X134945034Y-129718676D01*
X134939733Y-129708271D01*
X134838351Y-129542832D01*
X134826734Y-129531808D01*
X134820578Y-129533632D01*
X133968081Y-130386129D01*
X133960073Y-130400000D01*
X133229927Y-130400000D01*
X133221919Y-130386129D01*
X132375769Y-129539979D01*
X132361898Y-129531971D01*
X132356338Y-129535180D01*
X132250267Y-129708271D01*
X132244966Y-129718676D01*
X132158611Y-129927156D01*
X132155006Y-129938250D01*
X132102325Y-130157680D01*
X132100501Y-130169196D01*
X132082796Y-130394168D01*
X132082796Y-130405832D01*
X120340000Y-130405832D01*
X120340000Y-129168266D01*
X132726808Y-129168266D01*
X132728632Y-129174422D01*
X133581129Y-130026919D01*
X133595000Y-130034927D01*
X133608871Y-130026919D01*
X134455021Y-129180769D01*
X134463029Y-129166898D01*
X134459820Y-129161338D01*
X134286729Y-129055267D01*
X134276324Y-129049966D01*
X134067844Y-128963611D01*
X134056750Y-128960006D01*
X133837320Y-128907325D01*
X133825804Y-128905501D01*
X133600832Y-128887796D01*
X133589168Y-128887796D01*
X133364196Y-128905501D01*
X133352680Y-128907325D01*
X133133250Y-128960006D01*
X133122156Y-128963611D01*
X132913676Y-129049966D01*
X132903271Y-129055267D01*
X132737832Y-129156649D01*
X132726808Y-129168266D01*
X120340000Y-129168266D01*
X120340000Y-127404655D01*
X120892511Y-127404655D01*
X120923355Y-127541518D01*
X120927003Y-127553157D01*
X121006414Y-127748725D01*
X121011910Y-127759606D01*
X121122190Y-127939566D01*
X121129403Y-127949422D01*
X121267591Y-128108950D01*
X121276311Y-128117489D01*
X121438716Y-128252320D01*
X121448686Y-128259302D01*
X121630945Y-128365805D01*
X121641920Y-128371064D01*
X121839127Y-128446370D01*
X121850817Y-128449766D01*
X121951778Y-128470306D01*
X121967765Y-128469328D01*
X121971000Y-128462840D01*
X121971000Y-128457016D01*
X122479000Y-128457016D01*
X122483145Y-128472487D01*
X122492271Y-128474932D01*
X122502244Y-128473654D01*
X122514167Y-128471120D01*
X122716348Y-128410463D01*
X122727691Y-128406017D01*
X122917245Y-128313156D01*
X122927715Y-128306915D01*
X123099552Y-128184345D01*
X123108874Y-128176467D01*
X123258381Y-128027480D01*
X123266281Y-128018198D01*
X123389451Y-127846789D01*
X123395734Y-127836332D01*
X123489254Y-127647109D01*
X123493742Y-127635775D01*
X123555100Y-127433822D01*
X123557680Y-127421890D01*
X123558791Y-127413447D01*
X123556700Y-127397569D01*
X123548083Y-127394000D01*
X122498616Y-127394000D01*
X122483145Y-127398145D01*
X122479000Y-127413616D01*
X122479000Y-128457016D01*
X121971000Y-128457016D01*
X121971000Y-127413616D01*
X121966855Y-127398145D01*
X121951384Y-127394000D01*
X120909726Y-127394000D01*
X120894255Y-127398145D01*
X120892511Y-127404655D01*
X120340000Y-127404655D01*
X120340000Y-126873629D01*
X120889542Y-126873629D01*
X120890902Y-126882319D01*
X120900435Y-126886000D01*
X123541843Y-126886000D01*
X123557314Y-126881855D01*
X123558916Y-126875875D01*
X123516445Y-126706793D01*
X123512516Y-126695254D01*
X123428350Y-126501685D01*
X123422590Y-126490942D01*
X123307937Y-126313716D01*
X123300504Y-126304063D01*
X123158440Y-126147937D01*
X123149534Y-126139632D01*
X122983880Y-126008807D01*
X122973725Y-126002060D01*
X122843087Y-125929944D01*
X122787512Y-125876463D01*
X122766123Y-125802360D01*
X122784652Y-125727491D01*
X122838133Y-125671916D01*
X122915096Y-125650500D01*
X123094748Y-125650500D01*
X123101921Y-125649073D01*
X123101923Y-125649073D01*
X123138834Y-125641731D01*
X123138835Y-125641731D01*
X123153231Y-125638867D01*
X123219552Y-125594552D01*
X123263867Y-125528231D01*
X123267812Y-125508401D01*
X123274073Y-125476923D01*
X123274073Y-125476921D01*
X123275500Y-125469748D01*
X123275500Y-124868440D01*
X132389770Y-124868440D01*
X132390217Y-124875258D01*
X132402241Y-125058709D01*
X132404200Y-125088604D01*
X132458511Y-125302452D01*
X132461369Y-125308652D01*
X132461371Y-125308657D01*
X132548022Y-125496616D01*
X132550883Y-125502821D01*
X132678222Y-125683002D01*
X132836264Y-125836961D01*
X133019717Y-125959540D01*
X133222436Y-126046635D01*
X133437632Y-126095329D01*
X133483767Y-126097142D01*
X133651269Y-126103723D01*
X133651272Y-126103723D01*
X133658098Y-126103991D01*
X133876452Y-126072331D01*
X133882908Y-126070139D01*
X133882914Y-126070138D01*
X134063588Y-126008807D01*
X134085379Y-126001410D01*
X134277884Y-125893602D01*
X134447518Y-125752518D01*
X134588602Y-125582884D01*
X134630315Y-125508401D01*
X134693076Y-125396332D01*
X134696410Y-125390379D01*
X134733386Y-125281452D01*
X134765138Y-125187914D01*
X134765139Y-125187908D01*
X134767331Y-125181452D01*
X134798991Y-124963098D01*
X134800643Y-124900000D01*
X134798370Y-124875258D01*
X134781079Y-124687091D01*
X134780454Y-124680289D01*
X134720565Y-124467936D01*
X134675317Y-124376181D01*
X134626002Y-124276181D01*
X134622980Y-124270053D01*
X134490967Y-124093267D01*
X134485950Y-124088629D01*
X134485947Y-124088626D01*
X134333970Y-123948140D01*
X134333968Y-123948138D01*
X134328949Y-123943499D01*
X134323171Y-123939854D01*
X134323168Y-123939851D01*
X134148127Y-123829409D01*
X134142350Y-123825764D01*
X133937421Y-123744006D01*
X133832204Y-123723077D01*
X133727727Y-123702295D01*
X133727724Y-123702295D01*
X133721024Y-123700962D01*
X133609264Y-123699499D01*
X133507240Y-123698163D01*
X133507235Y-123698163D01*
X133500406Y-123698074D01*
X133493673Y-123699231D01*
X133493672Y-123699231D01*
X133371843Y-123720165D01*
X133282957Y-123735438D01*
X133276558Y-123737799D01*
X133276553Y-123737800D01*
X133163487Y-123779513D01*
X133075957Y-123811804D01*
X132886341Y-123924614D01*
X132720457Y-124070090D01*
X132716230Y-124075452D01*
X132716229Y-124075453D01*
X132619037Y-124198742D01*
X132583863Y-124243360D01*
X132481131Y-124438620D01*
X132479106Y-124445143D01*
X132417727Y-124642813D01*
X132417726Y-124642818D01*
X132415703Y-124649333D01*
X132414901Y-124656110D01*
X132414900Y-124656114D01*
X132400981Y-124773715D01*
X132389770Y-124868440D01*
X123275500Y-124868440D01*
X123275500Y-123730252D01*
X123269117Y-123698163D01*
X123266731Y-123686166D01*
X123266731Y-123686165D01*
X123263867Y-123671769D01*
X123219552Y-123605448D01*
X123153231Y-123561133D01*
X123138835Y-123558269D01*
X123138834Y-123558269D01*
X123101923Y-123550927D01*
X123101921Y-123550927D01*
X123094748Y-123549500D01*
X121355252Y-123549500D01*
X121348079Y-123550927D01*
X121348077Y-123550927D01*
X121311166Y-123558269D01*
X121311165Y-123558269D01*
X121296769Y-123561133D01*
X121230448Y-123605448D01*
X121186133Y-123671769D01*
X121183269Y-123686165D01*
X121183269Y-123686166D01*
X121180883Y-123698163D01*
X121174500Y-123730252D01*
X121174500Y-125469748D01*
X121175927Y-125476921D01*
X121175927Y-125476923D01*
X121182189Y-125508401D01*
X121186133Y-125528231D01*
X121230448Y-125594552D01*
X121296769Y-125638867D01*
X121311165Y-125641731D01*
X121311166Y-125641731D01*
X121348077Y-125649073D01*
X121348079Y-125649073D01*
X121355252Y-125650500D01*
X121536238Y-125650500D01*
X121610738Y-125670462D01*
X121665276Y-125725000D01*
X121685238Y-125799500D01*
X121665276Y-125874000D01*
X121605039Y-125931665D01*
X121504300Y-125984107D01*
X121493981Y-125990605D01*
X121325185Y-126117341D01*
X121316073Y-126125431D01*
X121170248Y-126278029D01*
X121162573Y-126287505D01*
X121043621Y-126461883D01*
X121037607Y-126472470D01*
X120948734Y-126663931D01*
X120944524Y-126675372D01*
X120889542Y-126873629D01*
X120340000Y-126873629D01*
X120340000Y-108148823D01*
X147024391Y-108148823D01*
X147042980Y-108290979D01*
X147100720Y-108422203D01*
X147107551Y-108430330D01*
X147107552Y-108430331D01*
X147119556Y-108444611D01*
X147152214Y-108514484D01*
X147154500Y-108540487D01*
X147154500Y-110154055D01*
X147152790Y-110170125D01*
X147152323Y-110180025D01*
X147149731Y-110192066D01*
X147151179Y-110204298D01*
X147153467Y-110223632D01*
X147153780Y-110228937D01*
X147153994Y-110228919D01*
X147154500Y-110235041D01*
X147154500Y-110241193D01*
X147155510Y-110247261D01*
X147155510Y-110247262D01*
X147157542Y-110259470D01*
X147158531Y-110266418D01*
X147164424Y-110316210D01*
X147168346Y-110324377D01*
X147169833Y-110333313D01*
X147175680Y-110344149D01*
X147175681Y-110344152D01*
X147193646Y-110377446D01*
X147196834Y-110383703D01*
X147218537Y-110428900D01*
X147222094Y-110433131D01*
X147224371Y-110435408D01*
X147225705Y-110436862D01*
X147229194Y-110443329D01*
X147238239Y-110451690D01*
X147268010Y-110479210D01*
X147272228Y-110483265D01*
X149083330Y-112294367D01*
X149121894Y-112361162D01*
X149125713Y-112380406D01*
X149131414Y-112424000D01*
X149132980Y-112435979D01*
X149190720Y-112567203D01*
X149197551Y-112575330D01*
X149197552Y-112575331D01*
X149249498Y-112637128D01*
X149282970Y-112676948D01*
X149402313Y-112756390D01*
X149412442Y-112759554D01*
X149412443Y-112759555D01*
X149435804Y-112766853D01*
X149539157Y-112799142D01*
X149549764Y-112799336D01*
X149549767Y-112799337D01*
X149612020Y-112800478D01*
X149682499Y-112801770D01*
X149735543Y-112787308D01*
X149810574Y-112766853D01*
X149810577Y-112766852D01*
X149820817Y-112764060D01*
X149829862Y-112758506D01*
X149829865Y-112758505D01*
X149933942Y-112694601D01*
X149942991Y-112689045D01*
X150002203Y-112623628D01*
X150032077Y-112590624D01*
X150032078Y-112590622D01*
X150039200Y-112582754D01*
X150101710Y-112453733D01*
X150103581Y-112442613D01*
X150124542Y-112318027D01*
X150124543Y-112318021D01*
X150125496Y-112312354D01*
X150125647Y-112300000D01*
X150105323Y-112158082D01*
X150075653Y-112092827D01*
X150050378Y-112037235D01*
X150050376Y-112037232D01*
X150045984Y-112027572D01*
X150039058Y-112019534D01*
X150039056Y-112019531D01*
X149999192Y-111973267D01*
X149952400Y-111918963D01*
X149943496Y-111913192D01*
X149943493Y-111913189D01*
X149876723Y-111869911D01*
X149832095Y-111840985D01*
X149694739Y-111799907D01*
X149690453Y-111799881D01*
X149622903Y-111770510D01*
X149610296Y-111759259D01*
X147949141Y-110098104D01*
X147910577Y-110031309D01*
X147905500Y-109992745D01*
X147905500Y-108543452D01*
X147925462Y-108468952D01*
X147937306Y-108452696D01*
X147942074Y-108445626D01*
X147949200Y-108437754D01*
X148011710Y-108308733D01*
X148035496Y-108167354D01*
X148035647Y-108155000D01*
X148015323Y-108013082D01*
X147985654Y-107947827D01*
X147960378Y-107892235D01*
X147960376Y-107892232D01*
X147955984Y-107882572D01*
X147949058Y-107874534D01*
X147949056Y-107874531D01*
X147909192Y-107828268D01*
X147862400Y-107773963D01*
X147853496Y-107768192D01*
X147853493Y-107768189D01*
X147786723Y-107724911D01*
X147742095Y-107695985D01*
X147693015Y-107681307D01*
X147614912Y-107657949D01*
X147614910Y-107657949D01*
X147604739Y-107654907D01*
X147594121Y-107654842D01*
X147594120Y-107654842D01*
X147534650Y-107654479D01*
X147461376Y-107654031D01*
X147451171Y-107656948D01*
X147451168Y-107656948D01*
X147333731Y-107690512D01*
X147333729Y-107690513D01*
X147323529Y-107693428D01*
X147314556Y-107699090D01*
X147314555Y-107699090D01*
X147306128Y-107704407D01*
X147202280Y-107769930D01*
X147195256Y-107777884D01*
X147195254Y-107777885D01*
X147148525Y-107830796D01*
X147107377Y-107877388D01*
X147046447Y-108007163D01*
X147024391Y-108148823D01*
X120340000Y-108148823D01*
X120340000Y-103568440D01*
X130939770Y-103568440D01*
X130954200Y-103788604D01*
X131008511Y-104002452D01*
X131011369Y-104008652D01*
X131011371Y-104008657D01*
X131098022Y-104196616D01*
X131100883Y-104202821D01*
X131228222Y-104383002D01*
X131386264Y-104536961D01*
X131569717Y-104659540D01*
X131772436Y-104746635D01*
X131987632Y-104795329D01*
X132033767Y-104797142D01*
X132201269Y-104803723D01*
X132201272Y-104803723D01*
X132208098Y-104803991D01*
X132426452Y-104772331D01*
X132432908Y-104770139D01*
X132432914Y-104770138D01*
X132584465Y-104718693D01*
X132635379Y-104701410D01*
X132827884Y-104593602D01*
X132997518Y-104452518D01*
X133138602Y-104282884D01*
X133180315Y-104208401D01*
X133240631Y-104100698D01*
X133246410Y-104090379D01*
X133286246Y-103973027D01*
X133315138Y-103887914D01*
X133315139Y-103887908D01*
X133317331Y-103881452D01*
X133348991Y-103663098D01*
X133350643Y-103600000D01*
X133348990Y-103582004D01*
X133331079Y-103387091D01*
X133330454Y-103380289D01*
X133270565Y-103167936D01*
X133261629Y-103149814D01*
X133176002Y-102976181D01*
X133172980Y-102970053D01*
X133040967Y-102793267D01*
X133035950Y-102788629D01*
X133035947Y-102788626D01*
X132883970Y-102648140D01*
X132883968Y-102648138D01*
X132878949Y-102643499D01*
X132873171Y-102639854D01*
X132873168Y-102639851D01*
X132698127Y-102529409D01*
X132692350Y-102525764D01*
X132487421Y-102444006D01*
X132427541Y-102432095D01*
X132277727Y-102402295D01*
X132277724Y-102402295D01*
X132271024Y-102400962D01*
X132159264Y-102399499D01*
X132057240Y-102398163D01*
X132057235Y-102398163D01*
X132050406Y-102398074D01*
X132043673Y-102399231D01*
X132043672Y-102399231D01*
X131921843Y-102420165D01*
X131832957Y-102435438D01*
X131826558Y-102437799D01*
X131826553Y-102437800D01*
X131713487Y-102479513D01*
X131625957Y-102511804D01*
X131436341Y-102624614D01*
X131270457Y-102770090D01*
X131266230Y-102775452D01*
X131266229Y-102775453D01*
X131151633Y-102920819D01*
X131133863Y-102943360D01*
X131077496Y-103050494D01*
X131037859Y-103125833D01*
X131031131Y-103138620D01*
X131011634Y-103201410D01*
X130967727Y-103342813D01*
X130967726Y-103342818D01*
X130965703Y-103349333D01*
X130964901Y-103356110D01*
X130964900Y-103356114D01*
X130947662Y-103501758D01*
X130939770Y-103568440D01*
X120340000Y-103568440D01*
X120340000Y-73639060D01*
X141822001Y-73639060D01*
X141822436Y-73647091D01*
X141827740Y-73695923D01*
X141832027Y-73713953D01*
X141876101Y-73831520D01*
X141886196Y-73849959D01*
X141960728Y-73949407D01*
X141975593Y-73964272D01*
X142075041Y-74038804D01*
X142093480Y-74048899D01*
X142211044Y-74092972D01*
X142229079Y-74097261D01*
X142277912Y-74102566D01*
X142285938Y-74103000D01*
X142806384Y-74103000D01*
X142821855Y-74098855D01*
X142826000Y-74083384D01*
X142826000Y-74083383D01*
X143334000Y-74083383D01*
X143338145Y-74098854D01*
X143353616Y-74102999D01*
X143874060Y-74102999D01*
X143882091Y-74102564D01*
X143930923Y-74097260D01*
X143948953Y-74092973D01*
X144066520Y-74048899D01*
X144084959Y-74038804D01*
X144184407Y-73964272D01*
X144199272Y-73949407D01*
X144273804Y-73849959D01*
X144283899Y-73831520D01*
X144327972Y-73713956D01*
X144332261Y-73695921D01*
X144337566Y-73647088D01*
X144338000Y-73639062D01*
X144338000Y-73639060D01*
X150322001Y-73639060D01*
X150322436Y-73647091D01*
X150327740Y-73695923D01*
X150332027Y-73713953D01*
X150376101Y-73831520D01*
X150386196Y-73849959D01*
X150460728Y-73949407D01*
X150475593Y-73964272D01*
X150575041Y-74038804D01*
X150593480Y-74048899D01*
X150711044Y-74092972D01*
X150729079Y-74097261D01*
X150777912Y-74102566D01*
X150785938Y-74103000D01*
X151306384Y-74103000D01*
X151321855Y-74098855D01*
X151326000Y-74083384D01*
X151326000Y-74083383D01*
X151834000Y-74083383D01*
X151838145Y-74098854D01*
X151853616Y-74102999D01*
X152374060Y-74102999D01*
X152382091Y-74102564D01*
X152430923Y-74097260D01*
X152448953Y-74092973D01*
X152566520Y-74048899D01*
X152584959Y-74038804D01*
X152684407Y-73964272D01*
X152699272Y-73949407D01*
X152773804Y-73849959D01*
X152783899Y-73831520D01*
X152827972Y-73713956D01*
X152832261Y-73695921D01*
X152837566Y-73647088D01*
X152838000Y-73639062D01*
X152838000Y-71669748D01*
X156194500Y-71669748D01*
X156206133Y-71728231D01*
X156250448Y-71794552D01*
X156316769Y-71838867D01*
X156331165Y-71841731D01*
X156331166Y-71841731D01*
X156368077Y-71849073D01*
X156368079Y-71849073D01*
X156375252Y-71850500D01*
X158114748Y-71850500D01*
X158121921Y-71849073D01*
X158121923Y-71849073D01*
X158158834Y-71841731D01*
X158158835Y-71841731D01*
X158173231Y-71838867D01*
X158239552Y-71794552D01*
X158283867Y-71728231D01*
X158295500Y-71669748D01*
X158295500Y-71496859D01*
X158315462Y-71422359D01*
X158370000Y-71367821D01*
X158444500Y-71347859D01*
X158519000Y-71367821D01*
X158571543Y-71419007D01*
X158682190Y-71599566D01*
X158689403Y-71609422D01*
X158827591Y-71768950D01*
X158836311Y-71777489D01*
X158998716Y-71912320D01*
X159008686Y-71919302D01*
X159190945Y-72025805D01*
X159201920Y-72031064D01*
X159399127Y-72106370D01*
X159410817Y-72109766D01*
X159511778Y-72130306D01*
X159527765Y-72129328D01*
X159531000Y-72122840D01*
X159531000Y-72117016D01*
X160039000Y-72117016D01*
X160043145Y-72132487D01*
X160052271Y-72134932D01*
X160062244Y-72133654D01*
X160074167Y-72131120D01*
X160276348Y-72070463D01*
X160287691Y-72066017D01*
X160477245Y-71973156D01*
X160487715Y-71966915D01*
X160659552Y-71844345D01*
X160668874Y-71836467D01*
X160818381Y-71687480D01*
X160826281Y-71678198D01*
X160949451Y-71506789D01*
X160955734Y-71496332D01*
X161049254Y-71307109D01*
X161053742Y-71295775D01*
X161115100Y-71093822D01*
X161117680Y-71081890D01*
X161118791Y-71073447D01*
X161116700Y-71057569D01*
X161108083Y-71054000D01*
X160058616Y-71054000D01*
X160043145Y-71058145D01*
X160039000Y-71073616D01*
X160039000Y-72117016D01*
X159531000Y-72117016D01*
X159531000Y-70526384D01*
X160039000Y-70526384D01*
X160043145Y-70541855D01*
X160058616Y-70546000D01*
X161101843Y-70546000D01*
X161117314Y-70541855D01*
X161118916Y-70535875D01*
X161076445Y-70366793D01*
X161072516Y-70355254D01*
X160988350Y-70161685D01*
X160982590Y-70150942D01*
X160867937Y-69973716D01*
X160860504Y-69964063D01*
X160718440Y-69807937D01*
X160709534Y-69799632D01*
X160543880Y-69668807D01*
X160533725Y-69662060D01*
X160348939Y-69560053D01*
X160337813Y-69555053D01*
X160138859Y-69484599D01*
X160127057Y-69481480D01*
X160058310Y-69469235D01*
X160042355Y-69470603D01*
X160039000Y-69477764D01*
X160039000Y-70526384D01*
X159531000Y-70526384D01*
X159531000Y-69484603D01*
X159526855Y-69469132D01*
X159518515Y-69466898D01*
X159475256Y-69473517D01*
X159463394Y-69476343D01*
X159262759Y-69541920D01*
X159251532Y-69546639D01*
X159064300Y-69644107D01*
X159053981Y-69650605D01*
X158885185Y-69777341D01*
X158876073Y-69785431D01*
X158730248Y-69938029D01*
X158722573Y-69947505D01*
X158603621Y-70121883D01*
X158597606Y-70132470D01*
X158579650Y-70171154D01*
X158530176Y-70230324D01*
X158457745Y-70256830D01*
X158381766Y-70243570D01*
X158322596Y-70194096D01*
X158296090Y-70121665D01*
X158295500Y-70108420D01*
X158295500Y-69930252D01*
X158283867Y-69871769D01*
X158239552Y-69805448D01*
X158173231Y-69761133D01*
X158158835Y-69758269D01*
X158158834Y-69758269D01*
X158121923Y-69750927D01*
X158121921Y-69750927D01*
X158114748Y-69749500D01*
X156375252Y-69749500D01*
X156368079Y-69750927D01*
X156368077Y-69750927D01*
X156331166Y-69758269D01*
X156331165Y-69758269D01*
X156316769Y-69761133D01*
X156250448Y-69805448D01*
X156206133Y-69871769D01*
X156194500Y-69930252D01*
X156194500Y-71669748D01*
X152838000Y-71669748D01*
X152838000Y-71328616D01*
X152833855Y-71313145D01*
X152818384Y-71309000D01*
X151853616Y-71309000D01*
X151838145Y-71313145D01*
X151834000Y-71328616D01*
X151834000Y-74083383D01*
X151326000Y-74083383D01*
X151326000Y-71328616D01*
X151321855Y-71313145D01*
X151306384Y-71309000D01*
X150341617Y-71309000D01*
X150326146Y-71313145D01*
X150322001Y-71328616D01*
X150322001Y-73639060D01*
X144338000Y-73639060D01*
X144338000Y-71328616D01*
X144333855Y-71313145D01*
X144318384Y-71309000D01*
X143353616Y-71309000D01*
X143338145Y-71313145D01*
X143334000Y-71328616D01*
X143334000Y-74083383D01*
X142826000Y-74083383D01*
X142826000Y-71328616D01*
X142821855Y-71313145D01*
X142806384Y-71309000D01*
X141841617Y-71309000D01*
X141826146Y-71313145D01*
X141822001Y-71328616D01*
X141822001Y-73639060D01*
X120340000Y-73639060D01*
X120340000Y-68484000D01*
X120359962Y-68409500D01*
X120414500Y-68354962D01*
X120489000Y-68335000D01*
X141673000Y-68335000D01*
X141747500Y-68354962D01*
G37*
%TD.AperFunction*%
%TD*%
M02*
