%TF.GenerationSoftware,KiCad,Pcbnew,5.1.10-88a1d61d58~90~ubuntu20.04.1*%
%TF.CreationDate,2022-02-11T12:02:36-08:00*%
%TF.ProjectId,RP2040_WEDS,52503230-3430-45f5-9745-44532e6b6963,rev?*%
%TF.SameCoordinates,Original*%
%TF.FileFunction,Legend,Top*%
%TF.FilePolarity,Positive*%
%FSLAX46Y46*%
G04 Gerber Fmt 4.6, Leading zero omitted, Abs format (unit mm)*
G04 Created by KiCad (PCBNEW 5.1.10-88a1d61d58~90~ubuntu20.04.1) date 2022-02-11 12:02:36*
%MOMM*%
%LPD*%
G01*
G04 APERTURE LIST*
%ADD10C,0.120000*%
%ADD11C,0.100000*%
%ADD12C,0.127000*%
%ADD13C,0.200000*%
%ADD14C,0.150000*%
G04 APERTURE END LIST*
D10*
%TO.C,LORA_RX*%
X164900000Y-70000000D02*
G75*
G03*
X164900000Y-70000000I-1500000J0D01*
G01*
%TO.C,LORA_TX*%
X170700000Y-69800000D02*
G75*
G03*
X170700000Y-69800000I-1500000J0D01*
G01*
%TO.C,SOIL SIG*%
X194700000Y-97400000D02*
G75*
G03*
X194700000Y-97400000I-1500000J0D01*
G01*
%TO.C,VDD*%
X155600000Y-72800000D02*
G75*
G03*
X155600000Y-72800000I-1500000J0D01*
G01*
%TO.C,3V3*%
X181100000Y-89200000D02*
G75*
G03*
X181100000Y-89200000I-1500000J0D01*
G01*
%TO.C,BATT*%
X181100000Y-96400000D02*
G75*
G03*
X181100000Y-96400000I-1500000J0D01*
G01*
%TO.C,VDC*%
X165100000Y-91600000D02*
G75*
G03*
X165100000Y-91600000I-1500000J0D01*
G01*
%TO.C,R1*%
X177922500Y-100162742D02*
X177922500Y-100637258D01*
X176877500Y-100162742D02*
X176877500Y-100637258D01*
%TO.C,C1*%
X182760000Y-70640580D02*
X182760000Y-70359420D01*
X181740000Y-70640580D02*
X181740000Y-70359420D01*
D11*
%TO.C,U4*%
X155700000Y-80750000D02*
X155700000Y-80500000D01*
X158400000Y-80600000D02*
X158400000Y-80750000D01*
X158250000Y-80600000D02*
X158400000Y-80600000D01*
X158400000Y-83300000D02*
X158250000Y-83300000D01*
X158400000Y-83300000D02*
X158400000Y-83150000D01*
X155700000Y-83300000D02*
X155700000Y-83150000D01*
X155700000Y-83310000D02*
X155850000Y-83310000D01*
D12*
%TO.C,U1*%
X173500000Y-73500000D02*
X173500000Y-73980000D01*
X173500000Y-80500000D02*
X173500000Y-80020000D01*
X180500000Y-73500000D02*
X180500000Y-73980000D01*
X180500000Y-80500000D02*
X180500000Y-80020000D01*
X173500000Y-73500000D02*
X173980000Y-73500000D01*
X173500000Y-80500000D02*
X173980000Y-80500000D01*
X180500000Y-73500000D02*
X180020000Y-73500000D01*
X180500000Y-80500000D02*
X180020000Y-80500000D01*
D13*
X172625000Y-74400000D02*
G75*
G03*
X172625000Y-74400000I-100000J0D01*
G01*
D10*
%TO.C,U3*%
X184225000Y-65215000D02*
X185900000Y-65215000D01*
X184225000Y-65475000D02*
X184225000Y-65215000D01*
X181500000Y-65475000D02*
X184225000Y-65475000D01*
X178775000Y-65475000D02*
X178775000Y-65215000D01*
X181500000Y-65475000D02*
X178775000Y-65475000D01*
X184225000Y-60025000D02*
X184225000Y-60285000D01*
X181500000Y-60025000D02*
X184225000Y-60025000D01*
X178775000Y-60025000D02*
X178775000Y-60285000D01*
X181500000Y-60025000D02*
X178775000Y-60025000D01*
%TO.C,C5*%
X175865580Y-83240000D02*
X175584420Y-83240000D01*
X175865580Y-84260000D02*
X175584420Y-84260000D01*
%TO.C,C8*%
X170140580Y-73740000D02*
X169859420Y-73740000D01*
X170140580Y-74760000D02*
X169859420Y-74760000D01*
%TO.C,C20*%
X170084420Y-84260000D02*
X170365580Y-84260000D01*
X170084420Y-83240000D02*
X170365580Y-83240000D01*
%TO.C,Y1*%
X170275000Y-85825000D02*
X169135000Y-85825000D01*
%TO.C,Q2*%
X192740000Y-61870000D02*
X194200000Y-61870000D01*
X192740000Y-65030000D02*
X194900000Y-65030000D01*
X192740000Y-65030000D02*
X192740000Y-64100000D01*
X192740000Y-61870000D02*
X192740000Y-62800000D01*
%TO.C,JP1*%
X193400000Y-69500000D02*
X193400000Y-68100000D01*
X194100000Y-67400000D02*
X194700000Y-67400000D01*
X195400000Y-68100000D02*
X195400000Y-69500000D01*
X194700000Y-70200000D02*
X194100000Y-70200000D01*
X194100000Y-70200000D02*
G75*
G02*
X193400000Y-69500000I0J700000D01*
G01*
X195400000Y-69500000D02*
G75*
G02*
X194700000Y-70200000I-700000J0D01*
G01*
X194700000Y-67400000D02*
G75*
G02*
X195400000Y-68100000I0J-700000D01*
G01*
X193400000Y-68100000D02*
G75*
G02*
X194100000Y-67400000I700000J0D01*
G01*
%TO.C,C9*%
X180090000Y-100259420D02*
X180090000Y-100540580D01*
X181110000Y-100259420D02*
X181110000Y-100540580D01*
%TO.C,J6*%
X177500000Y-45210000D02*
X177250000Y-45710000D01*
X177250000Y-45710000D02*
X177750000Y-45710000D01*
X177750000Y-45710000D02*
X177500000Y-45210000D01*
%TO.C,U7*%
X197640000Y-74600000D02*
X197640000Y-77050000D01*
X200860000Y-76400000D02*
X200860000Y-74600000D01*
D14*
%TO.C,U6*%
X154952353Y-63730000D02*
G75*
G03*
X154952353Y-63730000I-362353J0D01*
G01*
X165750000Y-62750000D02*
X153750000Y-62750000D01*
X165750000Y-50750000D02*
X165750000Y-62750000D01*
X153750000Y-50750000D02*
X165750000Y-50750000D01*
X153750000Y-62750000D02*
X153750000Y-50750000D01*
D10*
%TO.C,U5*%
X197740000Y-91500000D02*
X197740000Y-93950000D01*
X200960000Y-93300000D02*
X200960000Y-91500000D01*
%TO.C,U2*%
X173390000Y-95100000D02*
X173390000Y-97550000D01*
X176610000Y-96900000D02*
X176610000Y-95100000D01*
%TO.C,LORA*%
X159630000Y-39970000D02*
X153170000Y-39970000D01*
X159630000Y-44500000D02*
X159630000Y-41900000D01*
X159630000Y-46430000D02*
X153170000Y-46430000D01*
X153170000Y-44500000D02*
X153170000Y-41900000D01*
X159630000Y-46400000D02*
X159630000Y-46430000D01*
X159630000Y-39970000D02*
X159630000Y-40000000D01*
X153170000Y-39970000D02*
X153170000Y-40000000D01*
X153170000Y-46430000D02*
X153170000Y-46400000D01*
%TO.C,NANO TMR*%
X197770000Y-63770000D02*
X197770000Y-70230000D01*
X202300000Y-63770000D02*
X199700000Y-63770000D01*
X204230000Y-63770000D02*
X204230000Y-70230000D01*
X202300000Y-70230000D02*
X199700000Y-70230000D01*
X204200000Y-63770000D02*
X204230000Y-63770000D01*
X197770000Y-63770000D02*
X197800000Y-63770000D01*
X197770000Y-70230000D02*
X197800000Y-70230000D01*
X204230000Y-70230000D02*
X204200000Y-70230000D01*
%TO.C,RESET*%
X197770000Y-43170000D02*
X197770000Y-49630000D01*
X202300000Y-43170000D02*
X199700000Y-43170000D01*
X204230000Y-43170000D02*
X204230000Y-49630000D01*
X202300000Y-49630000D02*
X199700000Y-49630000D01*
X204200000Y-43170000D02*
X204230000Y-43170000D01*
X197770000Y-43170000D02*
X197800000Y-43170000D01*
X197770000Y-49630000D02*
X197800000Y-49630000D01*
X204230000Y-49630000D02*
X204200000Y-49630000D01*
%TO.C,R14*%
X164722500Y-43637258D02*
X164722500Y-43162742D01*
X163677500Y-43637258D02*
X163677500Y-43162742D01*
%TO.C,R13*%
X192937742Y-81022500D02*
X193412258Y-81022500D01*
X192937742Y-79977500D02*
X193412258Y-79977500D01*
%TO.C,R12*%
X171727500Y-60262742D02*
X171727500Y-60737258D01*
X172772500Y-60262742D02*
X172772500Y-60737258D01*
%TO.C,R11*%
X192937742Y-76522500D02*
X193412258Y-76522500D01*
X192937742Y-75477500D02*
X193412258Y-75477500D01*
%TO.C,R10*%
X168727500Y-60262742D02*
X168727500Y-60737258D01*
X169772500Y-60262742D02*
X169772500Y-60737258D01*
%TO.C,R9*%
X156862742Y-79022500D02*
X157337258Y-79022500D01*
X156862742Y-77977500D02*
X157337258Y-77977500D01*
%TO.C,R8*%
X156862742Y-76922500D02*
X157337258Y-76922500D01*
X156862742Y-75877500D02*
X157337258Y-75877500D01*
%TO.C,R7*%
X199412258Y-97977500D02*
X198937742Y-97977500D01*
X199412258Y-99022500D02*
X198937742Y-99022500D01*
%TO.C,R6*%
X193437742Y-92522500D02*
X193912258Y-92522500D01*
X193437742Y-91477500D02*
X193912258Y-91477500D01*
%TO.C,R5*%
X195522500Y-54037258D02*
X195522500Y-53562742D01*
X194477500Y-54037258D02*
X194477500Y-53562742D01*
%TO.C,R4*%
X187877500Y-66362742D02*
X187877500Y-66837258D01*
X188922500Y-66362742D02*
X188922500Y-66837258D01*
%TO.C,R3*%
X174522500Y-102062258D02*
X174522500Y-101587742D01*
X173477500Y-102062258D02*
X173477500Y-101587742D01*
%TO.C,R2*%
X170022500Y-96562258D02*
X170022500Y-96087742D01*
X168977500Y-96562258D02*
X168977500Y-96087742D01*
%TO.C,Q1*%
X184760000Y-95530000D02*
X183300000Y-95530000D01*
X184760000Y-92370000D02*
X182600000Y-92370000D01*
X184760000Y-92370000D02*
X184760000Y-93300000D01*
X184760000Y-95530000D02*
X184760000Y-94600000D01*
%TO.C,L1*%
X172449721Y-51510000D02*
X172775279Y-51510000D01*
X172449721Y-50490000D02*
X172775279Y-50490000D01*
%TO.C,J5*%
X191170000Y-84735000D02*
X191235000Y-84735000D01*
X191170000Y-88265000D02*
X191235000Y-88265000D01*
X184765000Y-84735000D02*
X184830000Y-84735000D01*
X184765000Y-88265000D02*
X184830000Y-88265000D01*
X184830000Y-89590000D02*
X184830000Y-88265000D01*
X191235000Y-88265000D02*
X191235000Y-84735000D01*
X184765000Y-88265000D02*
X184765000Y-84735000D01*
%TO.C,I2C*%
X194760000Y-101390000D02*
X194760000Y-102500000D01*
X194000000Y-101390000D02*
X194760000Y-101390000D01*
X193240000Y-103063471D02*
X193240000Y-103610000D01*
X193240000Y-101390000D02*
X193240000Y-101936529D01*
X193240000Y-103610000D02*
X189495000Y-103610000D01*
X193240000Y-101390000D02*
X189495000Y-101390000D01*
X189495000Y-102807530D02*
X189495000Y-103610000D01*
X189495000Y-101390000D02*
X189495000Y-102192470D01*
%TO.C,J3*%
X184760000Y-98870000D02*
X184760000Y-100000000D01*
X184000000Y-98870000D02*
X184760000Y-98870000D01*
X184695000Y-101577530D02*
X184695000Y-102400000D01*
X184695000Y-100760000D02*
X184695000Y-100962470D01*
X184563471Y-100760000D02*
X184695000Y-100760000D01*
X183293471Y-100760000D02*
X183436529Y-100760000D01*
X183240000Y-100563471D02*
X183240000Y-100706529D01*
X183240000Y-98870000D02*
X183240000Y-99436529D01*
X184695000Y-102400000D02*
X183305000Y-102400000D01*
X183240000Y-98870000D02*
X183305000Y-98870000D01*
X183240000Y-98870000D02*
X183240000Y-102400000D01*
%TO.C,ANALOG*%
X198490000Y-103610000D02*
X198490000Y-102500000D01*
X199250000Y-103610000D02*
X198490000Y-103610000D01*
X200010000Y-101936529D02*
X200010000Y-101390000D01*
X200010000Y-103610000D02*
X200010000Y-103063471D01*
X200010000Y-101390000D02*
X202485000Y-101390000D01*
X200010000Y-103610000D02*
X202485000Y-103610000D01*
X202485000Y-102192470D02*
X202485000Y-101390000D01*
X202485000Y-103610000D02*
X202485000Y-102807530D01*
%TO.C,J1*%
X150000000Y-95000000D02*
X150000000Y-104000000D01*
X150000000Y-104000000D02*
X159000000Y-104000000D01*
X159000000Y-104000000D02*
X159000000Y-95000000D01*
X159000000Y-95000000D02*
X150000000Y-95000000D01*
%TO.C,D3*%
X189150000Y-94500000D02*
X189150000Y-91950000D01*
X190850000Y-94500000D02*
X190850000Y-91950000D01*
X189150000Y-94500000D02*
X190850000Y-94500000D01*
%TO.C,D2*%
X170235000Y-103272500D02*
X170235000Y-100987500D01*
X168765000Y-103272500D02*
X170235000Y-103272500D01*
X168765000Y-100987500D02*
X168765000Y-103272500D01*
%TO.C,D1*%
X165500000Y-96350000D02*
X162950000Y-96350000D01*
X165500000Y-94650000D02*
X162950000Y-94650000D01*
X165500000Y-96350000D02*
X165500000Y-94650000D01*
%TO.C,C23*%
X175490000Y-51609420D02*
X175490000Y-51890580D01*
X176510000Y-51609420D02*
X176510000Y-51890580D01*
%TO.C,C22*%
X168740000Y-51634420D02*
X168740000Y-51915580D01*
X169760000Y-51634420D02*
X169760000Y-51915580D01*
%TO.C,C21*%
X170109420Y-91010000D02*
X170390580Y-91010000D01*
X170109420Y-89990000D02*
X170390580Y-89990000D01*
%TO.C,C19*%
X156459420Y-66910000D02*
X156740580Y-66910000D01*
X156459420Y-65890000D02*
X156740580Y-65890000D01*
%TO.C,C18*%
X199084420Y-88010000D02*
X199365580Y-88010000D01*
X199084420Y-86990000D02*
X199365580Y-86990000D01*
%TO.C,C17*%
X199084420Y-83510000D02*
X199365580Y-83510000D01*
X199084420Y-82490000D02*
X199365580Y-82490000D01*
%TO.C,C16*%
X157690000Y-85759420D02*
X157690000Y-86040580D01*
X158710000Y-85759420D02*
X158710000Y-86040580D01*
%TO.C,C15*%
X184059420Y-54510000D02*
X184340580Y-54510000D01*
X184059420Y-53490000D02*
X184340580Y-53490000D01*
%TO.C,C14*%
X155290000Y-85759420D02*
X155290000Y-86040580D01*
X156310000Y-85759420D02*
X156310000Y-86040580D01*
%TO.C,C13*%
X189490000Y-98134420D02*
X189490000Y-98415580D01*
X190510000Y-98134420D02*
X190510000Y-98415580D01*
%TO.C,C12*%
X181010000Y-70640580D02*
X181010000Y-70359420D01*
X179990000Y-70640580D02*
X179990000Y-70359420D01*
%TO.C,C11*%
X177510000Y-70640580D02*
X177510000Y-70359420D01*
X176490000Y-70640580D02*
X176490000Y-70359420D01*
%TO.C,C10*%
X175890580Y-85240000D02*
X175609420Y-85240000D01*
X175890580Y-86260000D02*
X175609420Y-86260000D01*
%TO.C,C7*%
X183634420Y-74510000D02*
X183915580Y-74510000D01*
X183634420Y-73490000D02*
X183915580Y-73490000D01*
%TO.C,C6*%
X170115580Y-76990000D02*
X169834420Y-76990000D01*
X170115580Y-78010000D02*
X169834420Y-78010000D01*
%TO.C,C4*%
X179260000Y-70640580D02*
X179260000Y-70359420D01*
X178240000Y-70640580D02*
X178240000Y-70359420D01*
%TO.C,C3*%
X184510000Y-70640580D02*
X184510000Y-70359420D01*
X183490000Y-70640580D02*
X183490000Y-70359420D01*
%TO.C,C2*%
X183584420Y-79010000D02*
X183865580Y-79010000D01*
X183584420Y-77990000D02*
X183865580Y-77990000D01*
%TO.C,LORA_RX*%
D14*
X155500000Y-70052380D02*
X155023809Y-70052380D01*
X155023809Y-69052380D01*
X156023809Y-69052380D02*
X156214285Y-69052380D01*
X156309523Y-69100000D01*
X156404761Y-69195238D01*
X156452380Y-69385714D01*
X156452380Y-69719047D01*
X156404761Y-69909523D01*
X156309523Y-70004761D01*
X156214285Y-70052380D01*
X156023809Y-70052380D01*
X155928571Y-70004761D01*
X155833333Y-69909523D01*
X155785714Y-69719047D01*
X155785714Y-69385714D01*
X155833333Y-69195238D01*
X155928571Y-69100000D01*
X156023809Y-69052380D01*
X157452380Y-70052380D02*
X157119047Y-69576190D01*
X156880952Y-70052380D02*
X156880952Y-69052380D01*
X157261904Y-69052380D01*
X157357142Y-69100000D01*
X157404761Y-69147619D01*
X157452380Y-69242857D01*
X157452380Y-69385714D01*
X157404761Y-69480952D01*
X157357142Y-69528571D01*
X157261904Y-69576190D01*
X156880952Y-69576190D01*
X157833333Y-69766666D02*
X158309523Y-69766666D01*
X157738095Y-70052380D02*
X158071428Y-69052380D01*
X158404761Y-70052380D01*
X158500000Y-70147619D02*
X159261904Y-70147619D01*
X160071428Y-70052380D02*
X159738095Y-69576190D01*
X159500000Y-70052380D02*
X159500000Y-69052380D01*
X159880952Y-69052380D01*
X159976190Y-69100000D01*
X160023809Y-69147619D01*
X160071428Y-69242857D01*
X160071428Y-69385714D01*
X160023809Y-69480952D01*
X159976190Y-69528571D01*
X159880952Y-69576190D01*
X159500000Y-69576190D01*
X160404761Y-69052380D02*
X161071428Y-70052380D01*
X161071428Y-69052380D02*
X160404761Y-70052380D01*
%TO.C,LORA_TX*%
X166819047Y-67652380D02*
X166342857Y-67652380D01*
X166342857Y-66652380D01*
X167342857Y-66652380D02*
X167533333Y-66652380D01*
X167628571Y-66700000D01*
X167723809Y-66795238D01*
X167771428Y-66985714D01*
X167771428Y-67319047D01*
X167723809Y-67509523D01*
X167628571Y-67604761D01*
X167533333Y-67652380D01*
X167342857Y-67652380D01*
X167247619Y-67604761D01*
X167152380Y-67509523D01*
X167104761Y-67319047D01*
X167104761Y-66985714D01*
X167152380Y-66795238D01*
X167247619Y-66700000D01*
X167342857Y-66652380D01*
X168771428Y-67652380D02*
X168438095Y-67176190D01*
X168200000Y-67652380D02*
X168200000Y-66652380D01*
X168580952Y-66652380D01*
X168676190Y-66700000D01*
X168723809Y-66747619D01*
X168771428Y-66842857D01*
X168771428Y-66985714D01*
X168723809Y-67080952D01*
X168676190Y-67128571D01*
X168580952Y-67176190D01*
X168200000Y-67176190D01*
X169152380Y-67366666D02*
X169628571Y-67366666D01*
X169057142Y-67652380D02*
X169390476Y-66652380D01*
X169723809Y-67652380D01*
X169819047Y-67747619D02*
X170580952Y-67747619D01*
X170676190Y-66652380D02*
X171247619Y-66652380D01*
X170961904Y-67652380D02*
X170961904Y-66652380D01*
X171485714Y-66652380D02*
X172152380Y-67652380D01*
X172152380Y-66652380D02*
X171485714Y-67652380D01*
%TO.C,SOIL SIG*%
X191252380Y-95504761D02*
X191395238Y-95552380D01*
X191633333Y-95552380D01*
X191728571Y-95504761D01*
X191776190Y-95457142D01*
X191823809Y-95361904D01*
X191823809Y-95266666D01*
X191776190Y-95171428D01*
X191728571Y-95123809D01*
X191633333Y-95076190D01*
X191442857Y-95028571D01*
X191347619Y-94980952D01*
X191300000Y-94933333D01*
X191252380Y-94838095D01*
X191252380Y-94742857D01*
X191300000Y-94647619D01*
X191347619Y-94600000D01*
X191442857Y-94552380D01*
X191680952Y-94552380D01*
X191823809Y-94600000D01*
X192442857Y-94552380D02*
X192633333Y-94552380D01*
X192728571Y-94600000D01*
X192823809Y-94695238D01*
X192871428Y-94885714D01*
X192871428Y-95219047D01*
X192823809Y-95409523D01*
X192728571Y-95504761D01*
X192633333Y-95552380D01*
X192442857Y-95552380D01*
X192347619Y-95504761D01*
X192252380Y-95409523D01*
X192204761Y-95219047D01*
X192204761Y-94885714D01*
X192252380Y-94695238D01*
X192347619Y-94600000D01*
X192442857Y-94552380D01*
X193300000Y-95552380D02*
X193300000Y-94552380D01*
X194252380Y-95552380D02*
X193776190Y-95552380D01*
X193776190Y-94552380D01*
X195300000Y-95504761D02*
X195442857Y-95552380D01*
X195680952Y-95552380D01*
X195776190Y-95504761D01*
X195823809Y-95457142D01*
X195871428Y-95361904D01*
X195871428Y-95266666D01*
X195823809Y-95171428D01*
X195776190Y-95123809D01*
X195680952Y-95076190D01*
X195490476Y-95028571D01*
X195395238Y-94980952D01*
X195347619Y-94933333D01*
X195300000Y-94838095D01*
X195300000Y-94742857D01*
X195347619Y-94647619D01*
X195395238Y-94600000D01*
X195490476Y-94552380D01*
X195728571Y-94552380D01*
X195871428Y-94600000D01*
X196300000Y-95552380D02*
X196300000Y-94552380D01*
X197300000Y-94600000D02*
X197204761Y-94552380D01*
X197061904Y-94552380D01*
X196919047Y-94600000D01*
X196823809Y-94695238D01*
X196776190Y-94790476D01*
X196728571Y-94980952D01*
X196728571Y-95123809D01*
X196776190Y-95314285D01*
X196823809Y-95409523D01*
X196919047Y-95504761D01*
X197061904Y-95552380D01*
X197157142Y-95552380D01*
X197300000Y-95504761D01*
X197347619Y-95457142D01*
X197347619Y-95123809D01*
X197157142Y-95123809D01*
%TO.C,VDD*%
X156266666Y-72152380D02*
X156600000Y-73152380D01*
X156933333Y-72152380D01*
X157266666Y-73152380D02*
X157266666Y-72152380D01*
X157504761Y-72152380D01*
X157647619Y-72200000D01*
X157742857Y-72295238D01*
X157790476Y-72390476D01*
X157838095Y-72580952D01*
X157838095Y-72723809D01*
X157790476Y-72914285D01*
X157742857Y-73009523D01*
X157647619Y-73104761D01*
X157504761Y-73152380D01*
X157266666Y-73152380D01*
X158266666Y-73152380D02*
X158266666Y-72152380D01*
X158504761Y-72152380D01*
X158647619Y-72200000D01*
X158742857Y-72295238D01*
X158790476Y-72390476D01*
X158838095Y-72580952D01*
X158838095Y-72723809D01*
X158790476Y-72914285D01*
X158742857Y-73009523D01*
X158647619Y-73104761D01*
X158504761Y-73152380D01*
X158266666Y-73152380D01*
%TO.C,3V3*%
X174861904Y-88652380D02*
X175480952Y-88652380D01*
X175147619Y-89033333D01*
X175290476Y-89033333D01*
X175385714Y-89080952D01*
X175433333Y-89128571D01*
X175480952Y-89223809D01*
X175480952Y-89461904D01*
X175433333Y-89557142D01*
X175385714Y-89604761D01*
X175290476Y-89652380D01*
X175004761Y-89652380D01*
X174909523Y-89604761D01*
X174861904Y-89557142D01*
X175766666Y-88652380D02*
X176100000Y-89652380D01*
X176433333Y-88652380D01*
X176671428Y-88652380D02*
X177290476Y-88652380D01*
X176957142Y-89033333D01*
X177100000Y-89033333D01*
X177195238Y-89080952D01*
X177242857Y-89128571D01*
X177290476Y-89223809D01*
X177290476Y-89461904D01*
X177242857Y-89557142D01*
X177195238Y-89604761D01*
X177100000Y-89652380D01*
X176814285Y-89652380D01*
X176719047Y-89604761D01*
X176671428Y-89557142D01*
%TO.C,BATT*%
X178480952Y-93828571D02*
X178623809Y-93876190D01*
X178671428Y-93923809D01*
X178719047Y-94019047D01*
X178719047Y-94161904D01*
X178671428Y-94257142D01*
X178623809Y-94304761D01*
X178528571Y-94352380D01*
X178147619Y-94352380D01*
X178147619Y-93352380D01*
X178480952Y-93352380D01*
X178576190Y-93400000D01*
X178623809Y-93447619D01*
X178671428Y-93542857D01*
X178671428Y-93638095D01*
X178623809Y-93733333D01*
X178576190Y-93780952D01*
X178480952Y-93828571D01*
X178147619Y-93828571D01*
X179100000Y-94066666D02*
X179576190Y-94066666D01*
X179004761Y-94352380D02*
X179338095Y-93352380D01*
X179671428Y-94352380D01*
X179861904Y-93352380D02*
X180433333Y-93352380D01*
X180147619Y-94352380D02*
X180147619Y-93352380D01*
X180623809Y-93352380D02*
X181195238Y-93352380D01*
X180909523Y-94352380D02*
X180909523Y-93352380D01*
%TO.C,VDC*%
X159066666Y-91152380D02*
X159400000Y-92152380D01*
X159733333Y-91152380D01*
X160066666Y-92152380D02*
X160066666Y-91152380D01*
X160304761Y-91152380D01*
X160447619Y-91200000D01*
X160542857Y-91295238D01*
X160590476Y-91390476D01*
X160638095Y-91580952D01*
X160638095Y-91723809D01*
X160590476Y-91914285D01*
X160542857Y-92009523D01*
X160447619Y-92104761D01*
X160304761Y-92152380D01*
X160066666Y-92152380D01*
X161638095Y-92057142D02*
X161590476Y-92104761D01*
X161447619Y-92152380D01*
X161352380Y-92152380D01*
X161209523Y-92104761D01*
X161114285Y-92009523D01*
X161066666Y-91914285D01*
X161019047Y-91723809D01*
X161019047Y-91580952D01*
X161066666Y-91390476D01*
X161114285Y-91295238D01*
X161209523Y-91200000D01*
X161352380Y-91152380D01*
X161447619Y-91152380D01*
X161590476Y-91200000D01*
X161638095Y-91247619D01*
%TO.C,R1*%
X177233333Y-103252380D02*
X176900000Y-102776190D01*
X176661904Y-103252380D02*
X176661904Y-102252380D01*
X177042857Y-102252380D01*
X177138095Y-102300000D01*
X177185714Y-102347619D01*
X177233333Y-102442857D01*
X177233333Y-102585714D01*
X177185714Y-102680952D01*
X177138095Y-102728571D01*
X177042857Y-102776190D01*
X176661904Y-102776190D01*
X178185714Y-103252380D02*
X177614285Y-103252380D01*
X177900000Y-103252380D02*
X177900000Y-102252380D01*
X177804761Y-102395238D01*
X177709523Y-102490476D01*
X177614285Y-102538095D01*
%TO.C,C1*%
X182757142Y-66966666D02*
X182804761Y-67014285D01*
X182852380Y-67157142D01*
X182852380Y-67252380D01*
X182804761Y-67395238D01*
X182709523Y-67490476D01*
X182614285Y-67538095D01*
X182423809Y-67585714D01*
X182280952Y-67585714D01*
X182090476Y-67538095D01*
X181995238Y-67490476D01*
X181900000Y-67395238D01*
X181852380Y-67252380D01*
X181852380Y-67157142D01*
X181900000Y-67014285D01*
X181947619Y-66966666D01*
X182852380Y-66014285D02*
X182852380Y-66585714D01*
X182852380Y-66300000D02*
X181852380Y-66300000D01*
X181995238Y-66395238D01*
X182090476Y-66490476D01*
X182138095Y-66585714D01*
%TO.C,U4*%
X153738095Y-81452380D02*
X153738095Y-82261904D01*
X153785714Y-82357142D01*
X153833333Y-82404761D01*
X153928571Y-82452380D01*
X154119047Y-82452380D01*
X154214285Y-82404761D01*
X154261904Y-82357142D01*
X154309523Y-82261904D01*
X154309523Y-81452380D01*
X155214285Y-81785714D02*
X155214285Y-82452380D01*
X154976190Y-81404761D02*
X154738095Y-82119047D01*
X155357142Y-82119047D01*
%TO.C,U1*%
X172988095Y-71702380D02*
X172988095Y-72511904D01*
X173035714Y-72607142D01*
X173083333Y-72654761D01*
X173178571Y-72702380D01*
X173369047Y-72702380D01*
X173464285Y-72654761D01*
X173511904Y-72607142D01*
X173559523Y-72511904D01*
X173559523Y-71702380D01*
X174559523Y-72702380D02*
X173988095Y-72702380D01*
X174273809Y-72702380D02*
X174273809Y-71702380D01*
X174178571Y-71845238D01*
X174083333Y-71940476D01*
X173988095Y-71988095D01*
%TO.C,U3*%
X186438095Y-61252380D02*
X186438095Y-62061904D01*
X186485714Y-62157142D01*
X186533333Y-62204761D01*
X186628571Y-62252380D01*
X186819047Y-62252380D01*
X186914285Y-62204761D01*
X186961904Y-62157142D01*
X187009523Y-62061904D01*
X187009523Y-61252380D01*
X187390476Y-61252380D02*
X188009523Y-61252380D01*
X187676190Y-61633333D01*
X187819047Y-61633333D01*
X187914285Y-61680952D01*
X187961904Y-61728571D01*
X188009523Y-61823809D01*
X188009523Y-62061904D01*
X187961904Y-62157142D01*
X187914285Y-62204761D01*
X187819047Y-62252380D01*
X187533333Y-62252380D01*
X187438095Y-62204761D01*
X187390476Y-62157142D01*
%TO.C,C5*%
X178083333Y-84107142D02*
X178035714Y-84154761D01*
X177892857Y-84202380D01*
X177797619Y-84202380D01*
X177654761Y-84154761D01*
X177559523Y-84059523D01*
X177511904Y-83964285D01*
X177464285Y-83773809D01*
X177464285Y-83630952D01*
X177511904Y-83440476D01*
X177559523Y-83345238D01*
X177654761Y-83250000D01*
X177797619Y-83202380D01*
X177892857Y-83202380D01*
X178035714Y-83250000D01*
X178083333Y-83297619D01*
X178988095Y-83202380D02*
X178511904Y-83202380D01*
X178464285Y-83678571D01*
X178511904Y-83630952D01*
X178607142Y-83583333D01*
X178845238Y-83583333D01*
X178940476Y-83630952D01*
X178988095Y-83678571D01*
X179035714Y-83773809D01*
X179035714Y-84011904D01*
X178988095Y-84107142D01*
X178940476Y-84154761D01*
X178845238Y-84202380D01*
X178607142Y-84202380D01*
X178511904Y-84154761D01*
X178464285Y-84107142D01*
%TO.C,C8*%
X169833333Y-76037142D02*
X169785714Y-76084761D01*
X169642857Y-76132380D01*
X169547619Y-76132380D01*
X169404761Y-76084761D01*
X169309523Y-75989523D01*
X169261904Y-75894285D01*
X169214285Y-75703809D01*
X169214285Y-75560952D01*
X169261904Y-75370476D01*
X169309523Y-75275238D01*
X169404761Y-75180000D01*
X169547619Y-75132380D01*
X169642857Y-75132380D01*
X169785714Y-75180000D01*
X169833333Y-75227619D01*
X170404761Y-75560952D02*
X170309523Y-75513333D01*
X170261904Y-75465714D01*
X170214285Y-75370476D01*
X170214285Y-75322857D01*
X170261904Y-75227619D01*
X170309523Y-75180000D01*
X170404761Y-75132380D01*
X170595238Y-75132380D01*
X170690476Y-75180000D01*
X170738095Y-75227619D01*
X170785714Y-75322857D01*
X170785714Y-75370476D01*
X170738095Y-75465714D01*
X170690476Y-75513333D01*
X170595238Y-75560952D01*
X170404761Y-75560952D01*
X170309523Y-75608571D01*
X170261904Y-75656190D01*
X170214285Y-75751428D01*
X170214285Y-75941904D01*
X170261904Y-76037142D01*
X170309523Y-76084761D01*
X170404761Y-76132380D01*
X170595238Y-76132380D01*
X170690476Y-76084761D01*
X170738095Y-76037142D01*
X170785714Y-75941904D01*
X170785714Y-75751428D01*
X170738095Y-75656190D01*
X170690476Y-75608571D01*
X170595238Y-75560952D01*
%TO.C,C20*%
X166357142Y-84157142D02*
X166309523Y-84204761D01*
X166166666Y-84252380D01*
X166071428Y-84252380D01*
X165928571Y-84204761D01*
X165833333Y-84109523D01*
X165785714Y-84014285D01*
X165738095Y-83823809D01*
X165738095Y-83680952D01*
X165785714Y-83490476D01*
X165833333Y-83395238D01*
X165928571Y-83300000D01*
X166071428Y-83252380D01*
X166166666Y-83252380D01*
X166309523Y-83300000D01*
X166357142Y-83347619D01*
X166738095Y-83347619D02*
X166785714Y-83300000D01*
X166880952Y-83252380D01*
X167119047Y-83252380D01*
X167214285Y-83300000D01*
X167261904Y-83347619D01*
X167309523Y-83442857D01*
X167309523Y-83538095D01*
X167261904Y-83680952D01*
X166690476Y-84252380D01*
X167309523Y-84252380D01*
X167928571Y-83252380D02*
X168023809Y-83252380D01*
X168119047Y-83300000D01*
X168166666Y-83347619D01*
X168214285Y-83442857D01*
X168261904Y-83633333D01*
X168261904Y-83871428D01*
X168214285Y-84061904D01*
X168166666Y-84157142D01*
X168119047Y-84204761D01*
X168023809Y-84252380D01*
X167928571Y-84252380D01*
X167833333Y-84204761D01*
X167785714Y-84157142D01*
X167738095Y-84061904D01*
X167690476Y-83871428D01*
X167690476Y-83633333D01*
X167738095Y-83442857D01*
X167785714Y-83347619D01*
X167833333Y-83300000D01*
X167928571Y-83252380D01*
%TO.C,Y1*%
X167023809Y-87151190D02*
X167023809Y-87627380D01*
X166690476Y-86627380D02*
X167023809Y-87151190D01*
X167357142Y-86627380D01*
X168214285Y-87627380D02*
X167642857Y-87627380D01*
X167928571Y-87627380D02*
X167928571Y-86627380D01*
X167833333Y-86770238D01*
X167738095Y-86865476D01*
X167642857Y-86913095D01*
%TO.C,Q2*%
X193404761Y-66497619D02*
X193309523Y-66450000D01*
X193214285Y-66354761D01*
X193071428Y-66211904D01*
X192976190Y-66164285D01*
X192880952Y-66164285D01*
X192928571Y-66402380D02*
X192833333Y-66354761D01*
X192738095Y-66259523D01*
X192690476Y-66069047D01*
X192690476Y-65735714D01*
X192738095Y-65545238D01*
X192833333Y-65450000D01*
X192928571Y-65402380D01*
X193119047Y-65402380D01*
X193214285Y-65450000D01*
X193309523Y-65545238D01*
X193357142Y-65735714D01*
X193357142Y-66069047D01*
X193309523Y-66259523D01*
X193214285Y-66354761D01*
X193119047Y-66402380D01*
X192928571Y-66402380D01*
X193738095Y-65497619D02*
X193785714Y-65450000D01*
X193880952Y-65402380D01*
X194119047Y-65402380D01*
X194214285Y-65450000D01*
X194261904Y-65497619D01*
X194309523Y-65592857D01*
X194309523Y-65688095D01*
X194261904Y-65830952D01*
X193690476Y-66402380D01*
X194309523Y-66402380D01*
%TO.C,JP1*%
X190866666Y-68252380D02*
X190866666Y-68966666D01*
X190819047Y-69109523D01*
X190723809Y-69204761D01*
X190580952Y-69252380D01*
X190485714Y-69252380D01*
X191342857Y-69252380D02*
X191342857Y-68252380D01*
X191723809Y-68252380D01*
X191819047Y-68300000D01*
X191866666Y-68347619D01*
X191914285Y-68442857D01*
X191914285Y-68585714D01*
X191866666Y-68680952D01*
X191819047Y-68728571D01*
X191723809Y-68776190D01*
X191342857Y-68776190D01*
X192866666Y-69252380D02*
X192295238Y-69252380D01*
X192580952Y-69252380D02*
X192580952Y-68252380D01*
X192485714Y-68395238D01*
X192390476Y-68490476D01*
X192295238Y-68538095D01*
%TO.C,C9*%
X180433333Y-103357142D02*
X180385714Y-103404761D01*
X180242857Y-103452380D01*
X180147619Y-103452380D01*
X180004761Y-103404761D01*
X179909523Y-103309523D01*
X179861904Y-103214285D01*
X179814285Y-103023809D01*
X179814285Y-102880952D01*
X179861904Y-102690476D01*
X179909523Y-102595238D01*
X180004761Y-102500000D01*
X180147619Y-102452380D01*
X180242857Y-102452380D01*
X180385714Y-102500000D01*
X180433333Y-102547619D01*
X180909523Y-103452380D02*
X181100000Y-103452380D01*
X181195238Y-103404761D01*
X181242857Y-103357142D01*
X181338095Y-103214285D01*
X181385714Y-103023809D01*
X181385714Y-102642857D01*
X181338095Y-102547619D01*
X181290476Y-102500000D01*
X181195238Y-102452380D01*
X181004761Y-102452380D01*
X180909523Y-102500000D01*
X180861904Y-102547619D01*
X180814285Y-102642857D01*
X180814285Y-102880952D01*
X180861904Y-102976190D01*
X180909523Y-103023809D01*
X181004761Y-103071428D01*
X181195238Y-103071428D01*
X181290476Y-103023809D01*
X181338095Y-102976190D01*
X181385714Y-102880952D01*
%TO.C,J6*%
X174166666Y-45412380D02*
X174166666Y-46126666D01*
X174119047Y-46269523D01*
X174023809Y-46364761D01*
X173880952Y-46412380D01*
X173785714Y-46412380D01*
X175071428Y-45412380D02*
X174880952Y-45412380D01*
X174785714Y-45460000D01*
X174738095Y-45507619D01*
X174642857Y-45650476D01*
X174595238Y-45840952D01*
X174595238Y-46221904D01*
X174642857Y-46317142D01*
X174690476Y-46364761D01*
X174785714Y-46412380D01*
X174976190Y-46412380D01*
X175071428Y-46364761D01*
X175119047Y-46317142D01*
X175166666Y-46221904D01*
X175166666Y-45983809D01*
X175119047Y-45888571D01*
X175071428Y-45840952D01*
X174976190Y-45793333D01*
X174785714Y-45793333D01*
X174690476Y-45840952D01*
X174642857Y-45888571D01*
X174595238Y-45983809D01*
%TO.C,U7*%
X195438095Y-74952380D02*
X195438095Y-75761904D01*
X195485714Y-75857142D01*
X195533333Y-75904761D01*
X195628571Y-75952380D01*
X195819047Y-75952380D01*
X195914285Y-75904761D01*
X195961904Y-75857142D01*
X196009523Y-75761904D01*
X196009523Y-74952380D01*
X196390476Y-74952380D02*
X197057142Y-74952380D01*
X196628571Y-75952380D01*
%TO.C,U6*%
X159202380Y-57261904D02*
X160011904Y-57261904D01*
X160107142Y-57214285D01*
X160154761Y-57166666D01*
X160202380Y-57071428D01*
X160202380Y-56880952D01*
X160154761Y-56785714D01*
X160107142Y-56738095D01*
X160011904Y-56690476D01*
X159202380Y-56690476D01*
X159202380Y-55785714D02*
X159202380Y-55976190D01*
X159250000Y-56071428D01*
X159297619Y-56119047D01*
X159440476Y-56214285D01*
X159630952Y-56261904D01*
X160011904Y-56261904D01*
X160107142Y-56214285D01*
X160154761Y-56166666D01*
X160202380Y-56071428D01*
X160202380Y-55880952D01*
X160154761Y-55785714D01*
X160107142Y-55738095D01*
X160011904Y-55690476D01*
X159773809Y-55690476D01*
X159678571Y-55738095D01*
X159630952Y-55785714D01*
X159583333Y-55880952D01*
X159583333Y-56071428D01*
X159630952Y-56166666D01*
X159678571Y-56214285D01*
X159773809Y-56261904D01*
%TO.C,U5*%
X196038095Y-89052380D02*
X196038095Y-89861904D01*
X196085714Y-89957142D01*
X196133333Y-90004761D01*
X196228571Y-90052380D01*
X196419047Y-90052380D01*
X196514285Y-90004761D01*
X196561904Y-89957142D01*
X196609523Y-89861904D01*
X196609523Y-89052380D01*
X197561904Y-89052380D02*
X197085714Y-89052380D01*
X197038095Y-89528571D01*
X197085714Y-89480952D01*
X197180952Y-89433333D01*
X197419047Y-89433333D01*
X197514285Y-89480952D01*
X197561904Y-89528571D01*
X197609523Y-89623809D01*
X197609523Y-89861904D01*
X197561904Y-89957142D01*
X197514285Y-90004761D01*
X197419047Y-90052380D01*
X197180952Y-90052380D01*
X197085714Y-90004761D01*
X197038095Y-89957142D01*
%TO.C,U2*%
X171438095Y-93852380D02*
X171438095Y-94661904D01*
X171485714Y-94757142D01*
X171533333Y-94804761D01*
X171628571Y-94852380D01*
X171819047Y-94852380D01*
X171914285Y-94804761D01*
X171961904Y-94757142D01*
X172009523Y-94661904D01*
X172009523Y-93852380D01*
X172438095Y-93947619D02*
X172485714Y-93900000D01*
X172580952Y-93852380D01*
X172819047Y-93852380D01*
X172914285Y-93900000D01*
X172961904Y-93947619D01*
X173009523Y-94042857D01*
X173009523Y-94138095D01*
X172961904Y-94280952D01*
X172390476Y-94852380D01*
X173009523Y-94852380D01*
%TO.C,LORA*%
X155257142Y-47702380D02*
X154780952Y-47702380D01*
X154780952Y-46702380D01*
X155780952Y-46702380D02*
X155971428Y-46702380D01*
X156066666Y-46750000D01*
X156161904Y-46845238D01*
X156209523Y-47035714D01*
X156209523Y-47369047D01*
X156161904Y-47559523D01*
X156066666Y-47654761D01*
X155971428Y-47702380D01*
X155780952Y-47702380D01*
X155685714Y-47654761D01*
X155590476Y-47559523D01*
X155542857Y-47369047D01*
X155542857Y-47035714D01*
X155590476Y-46845238D01*
X155685714Y-46750000D01*
X155780952Y-46702380D01*
X157209523Y-47702380D02*
X156876190Y-47226190D01*
X156638095Y-47702380D02*
X156638095Y-46702380D01*
X157019047Y-46702380D01*
X157114285Y-46750000D01*
X157161904Y-46797619D01*
X157209523Y-46892857D01*
X157209523Y-47035714D01*
X157161904Y-47130952D01*
X157114285Y-47178571D01*
X157019047Y-47226190D01*
X156638095Y-47226190D01*
X157590476Y-47416666D02*
X158066666Y-47416666D01*
X157495238Y-47702380D02*
X157828571Y-46702380D01*
X158161904Y-47702380D01*
%TO.C,NANO TMR*%
X197204761Y-61552380D02*
X197204761Y-60552380D01*
X197776190Y-61552380D01*
X197776190Y-60552380D01*
X198204761Y-61266666D02*
X198680952Y-61266666D01*
X198109523Y-61552380D02*
X198442857Y-60552380D01*
X198776190Y-61552380D01*
X199109523Y-61552380D02*
X199109523Y-60552380D01*
X199680952Y-61552380D01*
X199680952Y-60552380D01*
X200347619Y-60552380D02*
X200538095Y-60552380D01*
X200633333Y-60600000D01*
X200728571Y-60695238D01*
X200776190Y-60885714D01*
X200776190Y-61219047D01*
X200728571Y-61409523D01*
X200633333Y-61504761D01*
X200538095Y-61552380D01*
X200347619Y-61552380D01*
X200252380Y-61504761D01*
X200157142Y-61409523D01*
X200109523Y-61219047D01*
X200109523Y-60885714D01*
X200157142Y-60695238D01*
X200252380Y-60600000D01*
X200347619Y-60552380D01*
X201823809Y-60552380D02*
X202395238Y-60552380D01*
X202109523Y-61552380D02*
X202109523Y-60552380D01*
X202728571Y-61552380D02*
X202728571Y-60552380D01*
X203061904Y-61266666D01*
X203395238Y-60552380D01*
X203395238Y-61552380D01*
X204442857Y-61552380D02*
X204109523Y-61076190D01*
X203871428Y-61552380D02*
X203871428Y-60552380D01*
X204252380Y-60552380D01*
X204347619Y-60600000D01*
X204395238Y-60647619D01*
X204442857Y-60742857D01*
X204442857Y-60885714D01*
X204395238Y-60980952D01*
X204347619Y-61028571D01*
X204252380Y-61076190D01*
X203871428Y-61076190D01*
%TO.C,RESET*%
X199247619Y-53152380D02*
X198914285Y-52676190D01*
X198676190Y-53152380D02*
X198676190Y-52152380D01*
X199057142Y-52152380D01*
X199152380Y-52200000D01*
X199200000Y-52247619D01*
X199247619Y-52342857D01*
X199247619Y-52485714D01*
X199200000Y-52580952D01*
X199152380Y-52628571D01*
X199057142Y-52676190D01*
X198676190Y-52676190D01*
X199676190Y-52628571D02*
X200009523Y-52628571D01*
X200152380Y-53152380D02*
X199676190Y-53152380D01*
X199676190Y-52152380D01*
X200152380Y-52152380D01*
X200533333Y-53104761D02*
X200676190Y-53152380D01*
X200914285Y-53152380D01*
X201009523Y-53104761D01*
X201057142Y-53057142D01*
X201104761Y-52961904D01*
X201104761Y-52866666D01*
X201057142Y-52771428D01*
X201009523Y-52723809D01*
X200914285Y-52676190D01*
X200723809Y-52628571D01*
X200628571Y-52580952D01*
X200580952Y-52533333D01*
X200533333Y-52438095D01*
X200533333Y-52342857D01*
X200580952Y-52247619D01*
X200628571Y-52200000D01*
X200723809Y-52152380D01*
X200961904Y-52152380D01*
X201104761Y-52200000D01*
X201533333Y-52628571D02*
X201866666Y-52628571D01*
X202009523Y-53152380D02*
X201533333Y-53152380D01*
X201533333Y-52152380D01*
X202009523Y-52152380D01*
X202295238Y-52152380D02*
X202866666Y-52152380D01*
X202580952Y-53152380D02*
X202580952Y-52152380D01*
%TO.C,R14*%
X163222380Y-44042857D02*
X162746190Y-44376190D01*
X163222380Y-44614285D02*
X162222380Y-44614285D01*
X162222380Y-44233333D01*
X162270000Y-44138095D01*
X162317619Y-44090476D01*
X162412857Y-44042857D01*
X162555714Y-44042857D01*
X162650952Y-44090476D01*
X162698571Y-44138095D01*
X162746190Y-44233333D01*
X162746190Y-44614285D01*
X163222380Y-43090476D02*
X163222380Y-43661904D01*
X163222380Y-43376190D02*
X162222380Y-43376190D01*
X162365238Y-43471428D01*
X162460476Y-43566666D01*
X162508095Y-43661904D01*
X162555714Y-42233333D02*
X163222380Y-42233333D01*
X162174761Y-42471428D02*
X162889047Y-42709523D01*
X162889047Y-42090476D01*
%TO.C,R13*%
X192532142Y-79522380D02*
X192198809Y-79046190D01*
X191960714Y-79522380D02*
X191960714Y-78522380D01*
X192341666Y-78522380D01*
X192436904Y-78570000D01*
X192484523Y-78617619D01*
X192532142Y-78712857D01*
X192532142Y-78855714D01*
X192484523Y-78950952D01*
X192436904Y-78998571D01*
X192341666Y-79046190D01*
X191960714Y-79046190D01*
X193484523Y-79522380D02*
X192913095Y-79522380D01*
X193198809Y-79522380D02*
X193198809Y-78522380D01*
X193103571Y-78665238D01*
X193008333Y-78760476D01*
X192913095Y-78808095D01*
X193817857Y-78522380D02*
X194436904Y-78522380D01*
X194103571Y-78903333D01*
X194246428Y-78903333D01*
X194341666Y-78950952D01*
X194389285Y-78998571D01*
X194436904Y-79093809D01*
X194436904Y-79331904D01*
X194389285Y-79427142D01*
X194341666Y-79474761D01*
X194246428Y-79522380D01*
X193960714Y-79522380D01*
X193865476Y-79474761D01*
X193817857Y-79427142D01*
%TO.C,R12*%
X174132380Y-61142857D02*
X173656190Y-61476190D01*
X174132380Y-61714285D02*
X173132380Y-61714285D01*
X173132380Y-61333333D01*
X173180000Y-61238095D01*
X173227619Y-61190476D01*
X173322857Y-61142857D01*
X173465714Y-61142857D01*
X173560952Y-61190476D01*
X173608571Y-61238095D01*
X173656190Y-61333333D01*
X173656190Y-61714285D01*
X174132380Y-60190476D02*
X174132380Y-60761904D01*
X174132380Y-60476190D02*
X173132380Y-60476190D01*
X173275238Y-60571428D01*
X173370476Y-60666666D01*
X173418095Y-60761904D01*
X173227619Y-59809523D02*
X173180000Y-59761904D01*
X173132380Y-59666666D01*
X173132380Y-59428571D01*
X173180000Y-59333333D01*
X173227619Y-59285714D01*
X173322857Y-59238095D01*
X173418095Y-59238095D01*
X173560952Y-59285714D01*
X174132380Y-59857142D01*
X174132380Y-59238095D01*
%TO.C,R11*%
X192532142Y-75022380D02*
X192198809Y-74546190D01*
X191960714Y-75022380D02*
X191960714Y-74022380D01*
X192341666Y-74022380D01*
X192436904Y-74070000D01*
X192484523Y-74117619D01*
X192532142Y-74212857D01*
X192532142Y-74355714D01*
X192484523Y-74450952D01*
X192436904Y-74498571D01*
X192341666Y-74546190D01*
X191960714Y-74546190D01*
X193484523Y-75022380D02*
X192913095Y-75022380D01*
X193198809Y-75022380D02*
X193198809Y-74022380D01*
X193103571Y-74165238D01*
X193008333Y-74260476D01*
X192913095Y-74308095D01*
X194436904Y-75022380D02*
X193865476Y-75022380D01*
X194151190Y-75022380D02*
X194151190Y-74022380D01*
X194055952Y-74165238D01*
X193960714Y-74260476D01*
X193865476Y-74308095D01*
%TO.C,R10*%
X171132380Y-61142857D02*
X170656190Y-61476190D01*
X171132380Y-61714285D02*
X170132380Y-61714285D01*
X170132380Y-61333333D01*
X170180000Y-61238095D01*
X170227619Y-61190476D01*
X170322857Y-61142857D01*
X170465714Y-61142857D01*
X170560952Y-61190476D01*
X170608571Y-61238095D01*
X170656190Y-61333333D01*
X170656190Y-61714285D01*
X171132380Y-60190476D02*
X171132380Y-60761904D01*
X171132380Y-60476190D02*
X170132380Y-60476190D01*
X170275238Y-60571428D01*
X170370476Y-60666666D01*
X170418095Y-60761904D01*
X170132380Y-59571428D02*
X170132380Y-59476190D01*
X170180000Y-59380952D01*
X170227619Y-59333333D01*
X170322857Y-59285714D01*
X170513333Y-59238095D01*
X170751428Y-59238095D01*
X170941904Y-59285714D01*
X171037142Y-59333333D01*
X171084761Y-59380952D01*
X171132380Y-59476190D01*
X171132380Y-59571428D01*
X171084761Y-59666666D01*
X171037142Y-59714285D01*
X170941904Y-59761904D01*
X170751428Y-59809523D01*
X170513333Y-59809523D01*
X170322857Y-59761904D01*
X170227619Y-59714285D01*
X170180000Y-59666666D01*
X170132380Y-59571428D01*
%TO.C,R9*%
X154333333Y-79052380D02*
X154000000Y-78576190D01*
X153761904Y-79052380D02*
X153761904Y-78052380D01*
X154142857Y-78052380D01*
X154238095Y-78100000D01*
X154285714Y-78147619D01*
X154333333Y-78242857D01*
X154333333Y-78385714D01*
X154285714Y-78480952D01*
X154238095Y-78528571D01*
X154142857Y-78576190D01*
X153761904Y-78576190D01*
X154809523Y-79052380D02*
X155000000Y-79052380D01*
X155095238Y-79004761D01*
X155142857Y-78957142D01*
X155238095Y-78814285D01*
X155285714Y-78623809D01*
X155285714Y-78242857D01*
X155238095Y-78147619D01*
X155190476Y-78100000D01*
X155095238Y-78052380D01*
X154904761Y-78052380D01*
X154809523Y-78100000D01*
X154761904Y-78147619D01*
X154714285Y-78242857D01*
X154714285Y-78480952D01*
X154761904Y-78576190D01*
X154809523Y-78623809D01*
X154904761Y-78671428D01*
X155095238Y-78671428D01*
X155190476Y-78623809D01*
X155238095Y-78576190D01*
X155285714Y-78480952D01*
%TO.C,R8*%
X154333333Y-76752380D02*
X154000000Y-76276190D01*
X153761904Y-76752380D02*
X153761904Y-75752380D01*
X154142857Y-75752380D01*
X154238095Y-75800000D01*
X154285714Y-75847619D01*
X154333333Y-75942857D01*
X154333333Y-76085714D01*
X154285714Y-76180952D01*
X154238095Y-76228571D01*
X154142857Y-76276190D01*
X153761904Y-76276190D01*
X154904761Y-76180952D02*
X154809523Y-76133333D01*
X154761904Y-76085714D01*
X154714285Y-75990476D01*
X154714285Y-75942857D01*
X154761904Y-75847619D01*
X154809523Y-75800000D01*
X154904761Y-75752380D01*
X155095238Y-75752380D01*
X155190476Y-75800000D01*
X155238095Y-75847619D01*
X155285714Y-75942857D01*
X155285714Y-75990476D01*
X155238095Y-76085714D01*
X155190476Y-76133333D01*
X155095238Y-76180952D01*
X154904761Y-76180952D01*
X154809523Y-76228571D01*
X154761904Y-76276190D01*
X154714285Y-76371428D01*
X154714285Y-76561904D01*
X154761904Y-76657142D01*
X154809523Y-76704761D01*
X154904761Y-76752380D01*
X155095238Y-76752380D01*
X155190476Y-76704761D01*
X155238095Y-76657142D01*
X155285714Y-76561904D01*
X155285714Y-76371428D01*
X155238095Y-76276190D01*
X155190476Y-76228571D01*
X155095238Y-76180952D01*
%TO.C,R7*%
X201633333Y-98852380D02*
X201300000Y-98376190D01*
X201061904Y-98852380D02*
X201061904Y-97852380D01*
X201442857Y-97852380D01*
X201538095Y-97900000D01*
X201585714Y-97947619D01*
X201633333Y-98042857D01*
X201633333Y-98185714D01*
X201585714Y-98280952D01*
X201538095Y-98328571D01*
X201442857Y-98376190D01*
X201061904Y-98376190D01*
X201966666Y-97852380D02*
X202633333Y-97852380D01*
X202204761Y-98852380D01*
%TO.C,R6*%
X192833333Y-90702380D02*
X192500000Y-90226190D01*
X192261904Y-90702380D02*
X192261904Y-89702380D01*
X192642857Y-89702380D01*
X192738095Y-89750000D01*
X192785714Y-89797619D01*
X192833333Y-89892857D01*
X192833333Y-90035714D01*
X192785714Y-90130952D01*
X192738095Y-90178571D01*
X192642857Y-90226190D01*
X192261904Y-90226190D01*
X193690476Y-89702380D02*
X193500000Y-89702380D01*
X193404761Y-89750000D01*
X193357142Y-89797619D01*
X193261904Y-89940476D01*
X193214285Y-90130952D01*
X193214285Y-90511904D01*
X193261904Y-90607142D01*
X193309523Y-90654761D01*
X193404761Y-90702380D01*
X193595238Y-90702380D01*
X193690476Y-90654761D01*
X193738095Y-90607142D01*
X193785714Y-90511904D01*
X193785714Y-90273809D01*
X193738095Y-90178571D01*
X193690476Y-90130952D01*
X193595238Y-90083333D01*
X193404761Y-90083333D01*
X193309523Y-90130952D01*
X193261904Y-90178571D01*
X193214285Y-90273809D01*
%TO.C,R5*%
X194633333Y-51677380D02*
X194300000Y-51201190D01*
X194061904Y-51677380D02*
X194061904Y-50677380D01*
X194442857Y-50677380D01*
X194538095Y-50725000D01*
X194585714Y-50772619D01*
X194633333Y-50867857D01*
X194633333Y-51010714D01*
X194585714Y-51105952D01*
X194538095Y-51153571D01*
X194442857Y-51201190D01*
X194061904Y-51201190D01*
X195538095Y-50677380D02*
X195061904Y-50677380D01*
X195014285Y-51153571D01*
X195061904Y-51105952D01*
X195157142Y-51058333D01*
X195395238Y-51058333D01*
X195490476Y-51105952D01*
X195538095Y-51153571D01*
X195585714Y-51248809D01*
X195585714Y-51486904D01*
X195538095Y-51582142D01*
X195490476Y-51629761D01*
X195395238Y-51677380D01*
X195157142Y-51677380D01*
X195061904Y-51629761D01*
X195014285Y-51582142D01*
%TO.C,R4*%
X188233333Y-64652380D02*
X187900000Y-64176190D01*
X187661904Y-64652380D02*
X187661904Y-63652380D01*
X188042857Y-63652380D01*
X188138095Y-63700000D01*
X188185714Y-63747619D01*
X188233333Y-63842857D01*
X188233333Y-63985714D01*
X188185714Y-64080952D01*
X188138095Y-64128571D01*
X188042857Y-64176190D01*
X187661904Y-64176190D01*
X189090476Y-63985714D02*
X189090476Y-64652380D01*
X188852380Y-63604761D02*
X188614285Y-64319047D01*
X189233333Y-64319047D01*
%TO.C,R3*%
X172633333Y-100052380D02*
X172300000Y-99576190D01*
X172061904Y-100052380D02*
X172061904Y-99052380D01*
X172442857Y-99052380D01*
X172538095Y-99100000D01*
X172585714Y-99147619D01*
X172633333Y-99242857D01*
X172633333Y-99385714D01*
X172585714Y-99480952D01*
X172538095Y-99528571D01*
X172442857Y-99576190D01*
X172061904Y-99576190D01*
X172966666Y-99052380D02*
X173585714Y-99052380D01*
X173252380Y-99433333D01*
X173395238Y-99433333D01*
X173490476Y-99480952D01*
X173538095Y-99528571D01*
X173585714Y-99623809D01*
X173585714Y-99861904D01*
X173538095Y-99957142D01*
X173490476Y-100004761D01*
X173395238Y-100052380D01*
X173109523Y-100052380D01*
X173014285Y-100004761D01*
X172966666Y-99957142D01*
%TO.C,R2*%
X167233333Y-96852380D02*
X166900000Y-96376190D01*
X166661904Y-96852380D02*
X166661904Y-95852380D01*
X167042857Y-95852380D01*
X167138095Y-95900000D01*
X167185714Y-95947619D01*
X167233333Y-96042857D01*
X167233333Y-96185714D01*
X167185714Y-96280952D01*
X167138095Y-96328571D01*
X167042857Y-96376190D01*
X166661904Y-96376190D01*
X167614285Y-95947619D02*
X167661904Y-95900000D01*
X167757142Y-95852380D01*
X167995238Y-95852380D01*
X168090476Y-95900000D01*
X168138095Y-95947619D01*
X168185714Y-96042857D01*
X168185714Y-96138095D01*
X168138095Y-96280952D01*
X167566666Y-96852380D01*
X168185714Y-96852380D01*
%TO.C,Q1*%
X183904761Y-91997619D02*
X183809523Y-91950000D01*
X183714285Y-91854761D01*
X183571428Y-91711904D01*
X183476190Y-91664285D01*
X183380952Y-91664285D01*
X183428571Y-91902380D02*
X183333333Y-91854761D01*
X183238095Y-91759523D01*
X183190476Y-91569047D01*
X183190476Y-91235714D01*
X183238095Y-91045238D01*
X183333333Y-90950000D01*
X183428571Y-90902380D01*
X183619047Y-90902380D01*
X183714285Y-90950000D01*
X183809523Y-91045238D01*
X183857142Y-91235714D01*
X183857142Y-91569047D01*
X183809523Y-91759523D01*
X183714285Y-91854761D01*
X183619047Y-91902380D01*
X183428571Y-91902380D01*
X184809523Y-91902380D02*
X184238095Y-91902380D01*
X184523809Y-91902380D02*
X184523809Y-90902380D01*
X184428571Y-91045238D01*
X184333333Y-91140476D01*
X184238095Y-91188095D01*
%TO.C,L1*%
X172445833Y-50022380D02*
X171969642Y-50022380D01*
X171969642Y-49022380D01*
X173302976Y-50022380D02*
X172731547Y-50022380D01*
X173017261Y-50022380D02*
X173017261Y-49022380D01*
X172922023Y-49165238D01*
X172826785Y-49260476D01*
X172731547Y-49308095D01*
%TO.C,J5*%
X187366666Y-80752380D02*
X187366666Y-81466666D01*
X187319047Y-81609523D01*
X187223809Y-81704761D01*
X187080952Y-81752380D01*
X186985714Y-81752380D01*
X188319047Y-80752380D02*
X187842857Y-80752380D01*
X187795238Y-81228571D01*
X187842857Y-81180952D01*
X187938095Y-81133333D01*
X188176190Y-81133333D01*
X188271428Y-81180952D01*
X188319047Y-81228571D01*
X188366666Y-81323809D01*
X188366666Y-81561904D01*
X188319047Y-81657142D01*
X188271428Y-81704761D01*
X188176190Y-81752380D01*
X187938095Y-81752380D01*
X187842857Y-81704761D01*
X187795238Y-81657142D01*
%TO.C,I2C*%
X191023809Y-100702380D02*
X191023809Y-99702380D01*
X191452380Y-99797619D02*
X191500000Y-99750000D01*
X191595238Y-99702380D01*
X191833333Y-99702380D01*
X191928571Y-99750000D01*
X191976190Y-99797619D01*
X192023809Y-99892857D01*
X192023809Y-99988095D01*
X191976190Y-100130952D01*
X191404761Y-100702380D01*
X192023809Y-100702380D01*
X193023809Y-100607142D02*
X192976190Y-100654761D01*
X192833333Y-100702380D01*
X192738095Y-100702380D01*
X192595238Y-100654761D01*
X192500000Y-100559523D01*
X192452380Y-100464285D01*
X192404761Y-100273809D01*
X192404761Y-100130952D01*
X192452380Y-99940476D01*
X192500000Y-99845238D01*
X192595238Y-99750000D01*
X192738095Y-99702380D01*
X192833333Y-99702380D01*
X192976190Y-99750000D01*
X193023809Y-99797619D01*
%TO.C,J3*%
X186066666Y-99452380D02*
X186066666Y-100166666D01*
X186019047Y-100309523D01*
X185923809Y-100404761D01*
X185780952Y-100452380D01*
X185685714Y-100452380D01*
X186447619Y-99452380D02*
X187066666Y-99452380D01*
X186733333Y-99833333D01*
X186876190Y-99833333D01*
X186971428Y-99880952D01*
X187019047Y-99928571D01*
X187066666Y-100023809D01*
X187066666Y-100261904D01*
X187019047Y-100357142D01*
X186971428Y-100404761D01*
X186876190Y-100452380D01*
X186590476Y-100452380D01*
X186495238Y-100404761D01*
X186447619Y-100357142D01*
%TO.C,ANALOG*%
X197880952Y-100366666D02*
X198357142Y-100366666D01*
X197785714Y-100652380D02*
X198119047Y-99652380D01*
X198452380Y-100652380D01*
X198785714Y-100652380D02*
X198785714Y-99652380D01*
X199357142Y-100652380D01*
X199357142Y-99652380D01*
X199785714Y-100366666D02*
X200261904Y-100366666D01*
X199690476Y-100652380D02*
X200023809Y-99652380D01*
X200357142Y-100652380D01*
X201166666Y-100652380D02*
X200690476Y-100652380D01*
X200690476Y-99652380D01*
X201690476Y-99652380D02*
X201880952Y-99652380D01*
X201976190Y-99700000D01*
X202071428Y-99795238D01*
X202119047Y-99985714D01*
X202119047Y-100319047D01*
X202071428Y-100509523D01*
X201976190Y-100604761D01*
X201880952Y-100652380D01*
X201690476Y-100652380D01*
X201595238Y-100604761D01*
X201500000Y-100509523D01*
X201452380Y-100319047D01*
X201452380Y-99985714D01*
X201500000Y-99795238D01*
X201595238Y-99700000D01*
X201690476Y-99652380D01*
X203071428Y-99700000D02*
X202976190Y-99652380D01*
X202833333Y-99652380D01*
X202690476Y-99700000D01*
X202595238Y-99795238D01*
X202547619Y-99890476D01*
X202500000Y-100080952D01*
X202500000Y-100223809D01*
X202547619Y-100414285D01*
X202595238Y-100509523D01*
X202690476Y-100604761D01*
X202833333Y-100652380D01*
X202928571Y-100652380D01*
X203071428Y-100604761D01*
X203119047Y-100557142D01*
X203119047Y-100223809D01*
X202928571Y-100223809D01*
%TO.C,J1*%
X153666666Y-90912380D02*
X153666666Y-91626666D01*
X153619047Y-91769523D01*
X153523809Y-91864761D01*
X153380952Y-91912380D01*
X153285714Y-91912380D01*
X154666666Y-91912380D02*
X154095238Y-91912380D01*
X154380952Y-91912380D02*
X154380952Y-90912380D01*
X154285714Y-91055238D01*
X154190476Y-91150476D01*
X154095238Y-91198095D01*
%TO.C,D3*%
X187261904Y-93452380D02*
X187261904Y-92452380D01*
X187500000Y-92452380D01*
X187642857Y-92500000D01*
X187738095Y-92595238D01*
X187785714Y-92690476D01*
X187833333Y-92880952D01*
X187833333Y-93023809D01*
X187785714Y-93214285D01*
X187738095Y-93309523D01*
X187642857Y-93404761D01*
X187500000Y-93452380D01*
X187261904Y-93452380D01*
X188166666Y-92452380D02*
X188785714Y-92452380D01*
X188452380Y-92833333D01*
X188595238Y-92833333D01*
X188690476Y-92880952D01*
X188738095Y-92928571D01*
X188785714Y-93023809D01*
X188785714Y-93261904D01*
X188738095Y-93357142D01*
X188690476Y-93404761D01*
X188595238Y-93452380D01*
X188309523Y-93452380D01*
X188214285Y-93404761D01*
X188166666Y-93357142D01*
%TO.C,D2*%
X166861904Y-101252380D02*
X166861904Y-100252380D01*
X167100000Y-100252380D01*
X167242857Y-100300000D01*
X167338095Y-100395238D01*
X167385714Y-100490476D01*
X167433333Y-100680952D01*
X167433333Y-100823809D01*
X167385714Y-101014285D01*
X167338095Y-101109523D01*
X167242857Y-101204761D01*
X167100000Y-101252380D01*
X166861904Y-101252380D01*
X167814285Y-100347619D02*
X167861904Y-100300000D01*
X167957142Y-100252380D01*
X168195238Y-100252380D01*
X168290476Y-100300000D01*
X168338095Y-100347619D01*
X168385714Y-100442857D01*
X168385714Y-100538095D01*
X168338095Y-100680952D01*
X167766666Y-101252380D01*
X168385714Y-101252380D01*
%TO.C,D1*%
X163261904Y-97802380D02*
X163261904Y-96802380D01*
X163500000Y-96802380D01*
X163642857Y-96850000D01*
X163738095Y-96945238D01*
X163785714Y-97040476D01*
X163833333Y-97230952D01*
X163833333Y-97373809D01*
X163785714Y-97564285D01*
X163738095Y-97659523D01*
X163642857Y-97754761D01*
X163500000Y-97802380D01*
X163261904Y-97802380D01*
X164785714Y-97802380D02*
X164214285Y-97802380D01*
X164500000Y-97802380D02*
X164500000Y-96802380D01*
X164404761Y-96945238D01*
X164309523Y-97040476D01*
X164214285Y-97088095D01*
%TO.C,C23*%
X175357142Y-49757142D02*
X175309523Y-49804761D01*
X175166666Y-49852380D01*
X175071428Y-49852380D01*
X174928571Y-49804761D01*
X174833333Y-49709523D01*
X174785714Y-49614285D01*
X174738095Y-49423809D01*
X174738095Y-49280952D01*
X174785714Y-49090476D01*
X174833333Y-48995238D01*
X174928571Y-48900000D01*
X175071428Y-48852380D01*
X175166666Y-48852380D01*
X175309523Y-48900000D01*
X175357142Y-48947619D01*
X175738095Y-48947619D02*
X175785714Y-48900000D01*
X175880952Y-48852380D01*
X176119047Y-48852380D01*
X176214285Y-48900000D01*
X176261904Y-48947619D01*
X176309523Y-49042857D01*
X176309523Y-49138095D01*
X176261904Y-49280952D01*
X175690476Y-49852380D01*
X176309523Y-49852380D01*
X176642857Y-48852380D02*
X177261904Y-48852380D01*
X176928571Y-49233333D01*
X177071428Y-49233333D01*
X177166666Y-49280952D01*
X177214285Y-49328571D01*
X177261904Y-49423809D01*
X177261904Y-49661904D01*
X177214285Y-49757142D01*
X177166666Y-49804761D01*
X177071428Y-49852380D01*
X176785714Y-49852380D01*
X176690476Y-49804761D01*
X176642857Y-49757142D01*
%TO.C,C22*%
X168557142Y-49757142D02*
X168509523Y-49804761D01*
X168366666Y-49852380D01*
X168271428Y-49852380D01*
X168128571Y-49804761D01*
X168033333Y-49709523D01*
X167985714Y-49614285D01*
X167938095Y-49423809D01*
X167938095Y-49280952D01*
X167985714Y-49090476D01*
X168033333Y-48995238D01*
X168128571Y-48900000D01*
X168271428Y-48852380D01*
X168366666Y-48852380D01*
X168509523Y-48900000D01*
X168557142Y-48947619D01*
X168938095Y-48947619D02*
X168985714Y-48900000D01*
X169080952Y-48852380D01*
X169319047Y-48852380D01*
X169414285Y-48900000D01*
X169461904Y-48947619D01*
X169509523Y-49042857D01*
X169509523Y-49138095D01*
X169461904Y-49280952D01*
X168890476Y-49852380D01*
X169509523Y-49852380D01*
X169890476Y-48947619D02*
X169938095Y-48900000D01*
X170033333Y-48852380D01*
X170271428Y-48852380D01*
X170366666Y-48900000D01*
X170414285Y-48947619D01*
X170461904Y-49042857D01*
X170461904Y-49138095D01*
X170414285Y-49280952D01*
X169842857Y-49852380D01*
X170461904Y-49852380D01*
%TO.C,C21*%
X166557142Y-90857142D02*
X166509523Y-90904761D01*
X166366666Y-90952380D01*
X166271428Y-90952380D01*
X166128571Y-90904761D01*
X166033333Y-90809523D01*
X165985714Y-90714285D01*
X165938095Y-90523809D01*
X165938095Y-90380952D01*
X165985714Y-90190476D01*
X166033333Y-90095238D01*
X166128571Y-90000000D01*
X166271428Y-89952380D01*
X166366666Y-89952380D01*
X166509523Y-90000000D01*
X166557142Y-90047619D01*
X166938095Y-90047619D02*
X166985714Y-90000000D01*
X167080952Y-89952380D01*
X167319047Y-89952380D01*
X167414285Y-90000000D01*
X167461904Y-90047619D01*
X167509523Y-90142857D01*
X167509523Y-90238095D01*
X167461904Y-90380952D01*
X166890476Y-90952380D01*
X167509523Y-90952380D01*
X168461904Y-90952380D02*
X167890476Y-90952380D01*
X168176190Y-90952380D02*
X168176190Y-89952380D01*
X168080952Y-90095238D01*
X167985714Y-90190476D01*
X167890476Y-90238095D01*
%TO.C,C19*%
X159157142Y-66757142D02*
X159109523Y-66804761D01*
X158966666Y-66852380D01*
X158871428Y-66852380D01*
X158728571Y-66804761D01*
X158633333Y-66709523D01*
X158585714Y-66614285D01*
X158538095Y-66423809D01*
X158538095Y-66280952D01*
X158585714Y-66090476D01*
X158633333Y-65995238D01*
X158728571Y-65900000D01*
X158871428Y-65852380D01*
X158966666Y-65852380D01*
X159109523Y-65900000D01*
X159157142Y-65947619D01*
X160109523Y-66852380D02*
X159538095Y-66852380D01*
X159823809Y-66852380D02*
X159823809Y-65852380D01*
X159728571Y-65995238D01*
X159633333Y-66090476D01*
X159538095Y-66138095D01*
X160585714Y-66852380D02*
X160776190Y-66852380D01*
X160871428Y-66804761D01*
X160919047Y-66757142D01*
X161014285Y-66614285D01*
X161061904Y-66423809D01*
X161061904Y-66042857D01*
X161014285Y-65947619D01*
X160966666Y-65900000D01*
X160871428Y-65852380D01*
X160680952Y-65852380D01*
X160585714Y-65900000D01*
X160538095Y-65947619D01*
X160490476Y-66042857D01*
X160490476Y-66280952D01*
X160538095Y-66376190D01*
X160585714Y-66423809D01*
X160680952Y-66471428D01*
X160871428Y-66471428D01*
X160966666Y-66423809D01*
X161014285Y-66376190D01*
X161061904Y-66280952D01*
%TO.C,C18*%
X198582142Y-86427142D02*
X198534523Y-86474761D01*
X198391666Y-86522380D01*
X198296428Y-86522380D01*
X198153571Y-86474761D01*
X198058333Y-86379523D01*
X198010714Y-86284285D01*
X197963095Y-86093809D01*
X197963095Y-85950952D01*
X198010714Y-85760476D01*
X198058333Y-85665238D01*
X198153571Y-85570000D01*
X198296428Y-85522380D01*
X198391666Y-85522380D01*
X198534523Y-85570000D01*
X198582142Y-85617619D01*
X199534523Y-86522380D02*
X198963095Y-86522380D01*
X199248809Y-86522380D02*
X199248809Y-85522380D01*
X199153571Y-85665238D01*
X199058333Y-85760476D01*
X198963095Y-85808095D01*
X200105952Y-85950952D02*
X200010714Y-85903333D01*
X199963095Y-85855714D01*
X199915476Y-85760476D01*
X199915476Y-85712857D01*
X199963095Y-85617619D01*
X200010714Y-85570000D01*
X200105952Y-85522380D01*
X200296428Y-85522380D01*
X200391666Y-85570000D01*
X200439285Y-85617619D01*
X200486904Y-85712857D01*
X200486904Y-85760476D01*
X200439285Y-85855714D01*
X200391666Y-85903333D01*
X200296428Y-85950952D01*
X200105952Y-85950952D01*
X200010714Y-85998571D01*
X199963095Y-86046190D01*
X199915476Y-86141428D01*
X199915476Y-86331904D01*
X199963095Y-86427142D01*
X200010714Y-86474761D01*
X200105952Y-86522380D01*
X200296428Y-86522380D01*
X200391666Y-86474761D01*
X200439285Y-86427142D01*
X200486904Y-86331904D01*
X200486904Y-86141428D01*
X200439285Y-86046190D01*
X200391666Y-85998571D01*
X200296428Y-85950952D01*
%TO.C,C17*%
X198582142Y-81927142D02*
X198534523Y-81974761D01*
X198391666Y-82022380D01*
X198296428Y-82022380D01*
X198153571Y-81974761D01*
X198058333Y-81879523D01*
X198010714Y-81784285D01*
X197963095Y-81593809D01*
X197963095Y-81450952D01*
X198010714Y-81260476D01*
X198058333Y-81165238D01*
X198153571Y-81070000D01*
X198296428Y-81022380D01*
X198391666Y-81022380D01*
X198534523Y-81070000D01*
X198582142Y-81117619D01*
X199534523Y-82022380D02*
X198963095Y-82022380D01*
X199248809Y-82022380D02*
X199248809Y-81022380D01*
X199153571Y-81165238D01*
X199058333Y-81260476D01*
X198963095Y-81308095D01*
X199867857Y-81022380D02*
X200534523Y-81022380D01*
X200105952Y-82022380D01*
%TO.C,C16*%
X157857142Y-89257142D02*
X157809523Y-89304761D01*
X157666666Y-89352380D01*
X157571428Y-89352380D01*
X157428571Y-89304761D01*
X157333333Y-89209523D01*
X157285714Y-89114285D01*
X157238095Y-88923809D01*
X157238095Y-88780952D01*
X157285714Y-88590476D01*
X157333333Y-88495238D01*
X157428571Y-88400000D01*
X157571428Y-88352380D01*
X157666666Y-88352380D01*
X157809523Y-88400000D01*
X157857142Y-88447619D01*
X158809523Y-89352380D02*
X158238095Y-89352380D01*
X158523809Y-89352380D02*
X158523809Y-88352380D01*
X158428571Y-88495238D01*
X158333333Y-88590476D01*
X158238095Y-88638095D01*
X159666666Y-88352380D02*
X159476190Y-88352380D01*
X159380952Y-88400000D01*
X159333333Y-88447619D01*
X159238095Y-88590476D01*
X159190476Y-88780952D01*
X159190476Y-89161904D01*
X159238095Y-89257142D01*
X159285714Y-89304761D01*
X159380952Y-89352380D01*
X159571428Y-89352380D01*
X159666666Y-89304761D01*
X159714285Y-89257142D01*
X159761904Y-89161904D01*
X159761904Y-88923809D01*
X159714285Y-88828571D01*
X159666666Y-88780952D01*
X159571428Y-88733333D01*
X159380952Y-88733333D01*
X159285714Y-88780952D01*
X159238095Y-88828571D01*
X159190476Y-88923809D01*
%TO.C,C15*%
X183557142Y-52927142D02*
X183509523Y-52974761D01*
X183366666Y-53022380D01*
X183271428Y-53022380D01*
X183128571Y-52974761D01*
X183033333Y-52879523D01*
X182985714Y-52784285D01*
X182938095Y-52593809D01*
X182938095Y-52450952D01*
X182985714Y-52260476D01*
X183033333Y-52165238D01*
X183128571Y-52070000D01*
X183271428Y-52022380D01*
X183366666Y-52022380D01*
X183509523Y-52070000D01*
X183557142Y-52117619D01*
X184509523Y-53022380D02*
X183938095Y-53022380D01*
X184223809Y-53022380D02*
X184223809Y-52022380D01*
X184128571Y-52165238D01*
X184033333Y-52260476D01*
X183938095Y-52308095D01*
X185414285Y-52022380D02*
X184938095Y-52022380D01*
X184890476Y-52498571D01*
X184938095Y-52450952D01*
X185033333Y-52403333D01*
X185271428Y-52403333D01*
X185366666Y-52450952D01*
X185414285Y-52498571D01*
X185461904Y-52593809D01*
X185461904Y-52831904D01*
X185414285Y-52927142D01*
X185366666Y-52974761D01*
X185271428Y-53022380D01*
X185033333Y-53022380D01*
X184938095Y-52974761D01*
X184890476Y-52927142D01*
%TO.C,C14*%
X154857142Y-89257142D02*
X154809523Y-89304761D01*
X154666666Y-89352380D01*
X154571428Y-89352380D01*
X154428571Y-89304761D01*
X154333333Y-89209523D01*
X154285714Y-89114285D01*
X154238095Y-88923809D01*
X154238095Y-88780952D01*
X154285714Y-88590476D01*
X154333333Y-88495238D01*
X154428571Y-88400000D01*
X154571428Y-88352380D01*
X154666666Y-88352380D01*
X154809523Y-88400000D01*
X154857142Y-88447619D01*
X155809523Y-89352380D02*
X155238095Y-89352380D01*
X155523809Y-89352380D02*
X155523809Y-88352380D01*
X155428571Y-88495238D01*
X155333333Y-88590476D01*
X155238095Y-88638095D01*
X156666666Y-88685714D02*
X156666666Y-89352380D01*
X156428571Y-88304761D02*
X156190476Y-89019047D01*
X156809523Y-89019047D01*
%TO.C,C13*%
X186757142Y-98357142D02*
X186709523Y-98404761D01*
X186566666Y-98452380D01*
X186471428Y-98452380D01*
X186328571Y-98404761D01*
X186233333Y-98309523D01*
X186185714Y-98214285D01*
X186138095Y-98023809D01*
X186138095Y-97880952D01*
X186185714Y-97690476D01*
X186233333Y-97595238D01*
X186328571Y-97500000D01*
X186471428Y-97452380D01*
X186566666Y-97452380D01*
X186709523Y-97500000D01*
X186757142Y-97547619D01*
X187709523Y-98452380D02*
X187138095Y-98452380D01*
X187423809Y-98452380D02*
X187423809Y-97452380D01*
X187328571Y-97595238D01*
X187233333Y-97690476D01*
X187138095Y-97738095D01*
X188042857Y-97452380D02*
X188661904Y-97452380D01*
X188328571Y-97833333D01*
X188471428Y-97833333D01*
X188566666Y-97880952D01*
X188614285Y-97928571D01*
X188661904Y-98023809D01*
X188661904Y-98261904D01*
X188614285Y-98357142D01*
X188566666Y-98404761D01*
X188471428Y-98452380D01*
X188185714Y-98452380D01*
X188090476Y-98404761D01*
X188042857Y-98357142D01*
%TO.C,C12*%
X180957142Y-67042857D02*
X181004761Y-67090476D01*
X181052380Y-67233333D01*
X181052380Y-67328571D01*
X181004761Y-67471428D01*
X180909523Y-67566666D01*
X180814285Y-67614285D01*
X180623809Y-67661904D01*
X180480952Y-67661904D01*
X180290476Y-67614285D01*
X180195238Y-67566666D01*
X180100000Y-67471428D01*
X180052380Y-67328571D01*
X180052380Y-67233333D01*
X180100000Y-67090476D01*
X180147619Y-67042857D01*
X181052380Y-66090476D02*
X181052380Y-66661904D01*
X181052380Y-66376190D02*
X180052380Y-66376190D01*
X180195238Y-66471428D01*
X180290476Y-66566666D01*
X180338095Y-66661904D01*
X180147619Y-65709523D02*
X180100000Y-65661904D01*
X180052380Y-65566666D01*
X180052380Y-65328571D01*
X180100000Y-65233333D01*
X180147619Y-65185714D01*
X180242857Y-65138095D01*
X180338095Y-65138095D01*
X180480952Y-65185714D01*
X181052380Y-65757142D01*
X181052380Y-65138095D01*
%TO.C,C11*%
X176957142Y-67042857D02*
X177004761Y-67090476D01*
X177052380Y-67233333D01*
X177052380Y-67328571D01*
X177004761Y-67471428D01*
X176909523Y-67566666D01*
X176814285Y-67614285D01*
X176623809Y-67661904D01*
X176480952Y-67661904D01*
X176290476Y-67614285D01*
X176195238Y-67566666D01*
X176100000Y-67471428D01*
X176052380Y-67328571D01*
X176052380Y-67233333D01*
X176100000Y-67090476D01*
X176147619Y-67042857D01*
X177052380Y-66090476D02*
X177052380Y-66661904D01*
X177052380Y-66376190D02*
X176052380Y-66376190D01*
X176195238Y-66471428D01*
X176290476Y-66566666D01*
X176338095Y-66661904D01*
X177052380Y-65138095D02*
X177052380Y-65709523D01*
X177052380Y-65423809D02*
X176052380Y-65423809D01*
X176195238Y-65519047D01*
X176290476Y-65614285D01*
X176338095Y-65709523D01*
%TO.C,C10*%
X178082142Y-86107142D02*
X178034523Y-86154761D01*
X177891666Y-86202380D01*
X177796428Y-86202380D01*
X177653571Y-86154761D01*
X177558333Y-86059523D01*
X177510714Y-85964285D01*
X177463095Y-85773809D01*
X177463095Y-85630952D01*
X177510714Y-85440476D01*
X177558333Y-85345238D01*
X177653571Y-85250000D01*
X177796428Y-85202380D01*
X177891666Y-85202380D01*
X178034523Y-85250000D01*
X178082142Y-85297619D01*
X179034523Y-86202380D02*
X178463095Y-86202380D01*
X178748809Y-86202380D02*
X178748809Y-85202380D01*
X178653571Y-85345238D01*
X178558333Y-85440476D01*
X178463095Y-85488095D01*
X179653571Y-85202380D02*
X179748809Y-85202380D01*
X179844047Y-85250000D01*
X179891666Y-85297619D01*
X179939285Y-85392857D01*
X179986904Y-85583333D01*
X179986904Y-85821428D01*
X179939285Y-86011904D01*
X179891666Y-86107142D01*
X179844047Y-86154761D01*
X179748809Y-86202380D01*
X179653571Y-86202380D01*
X179558333Y-86154761D01*
X179510714Y-86107142D01*
X179463095Y-86011904D01*
X179415476Y-85821428D01*
X179415476Y-85583333D01*
X179463095Y-85392857D01*
X179510714Y-85297619D01*
X179558333Y-85250000D01*
X179653571Y-85202380D01*
%TO.C,C7*%
X185083333Y-72927142D02*
X185035714Y-72974761D01*
X184892857Y-73022380D01*
X184797619Y-73022380D01*
X184654761Y-72974761D01*
X184559523Y-72879523D01*
X184511904Y-72784285D01*
X184464285Y-72593809D01*
X184464285Y-72450952D01*
X184511904Y-72260476D01*
X184559523Y-72165238D01*
X184654761Y-72070000D01*
X184797619Y-72022380D01*
X184892857Y-72022380D01*
X185035714Y-72070000D01*
X185083333Y-72117619D01*
X185416666Y-72022380D02*
X186083333Y-72022380D01*
X185654761Y-73022380D01*
%TO.C,C6*%
X169808333Y-79287142D02*
X169760714Y-79334761D01*
X169617857Y-79382380D01*
X169522619Y-79382380D01*
X169379761Y-79334761D01*
X169284523Y-79239523D01*
X169236904Y-79144285D01*
X169189285Y-78953809D01*
X169189285Y-78810952D01*
X169236904Y-78620476D01*
X169284523Y-78525238D01*
X169379761Y-78430000D01*
X169522619Y-78382380D01*
X169617857Y-78382380D01*
X169760714Y-78430000D01*
X169808333Y-78477619D01*
X170665476Y-78382380D02*
X170475000Y-78382380D01*
X170379761Y-78430000D01*
X170332142Y-78477619D01*
X170236904Y-78620476D01*
X170189285Y-78810952D01*
X170189285Y-79191904D01*
X170236904Y-79287142D01*
X170284523Y-79334761D01*
X170379761Y-79382380D01*
X170570238Y-79382380D01*
X170665476Y-79334761D01*
X170713095Y-79287142D01*
X170760714Y-79191904D01*
X170760714Y-78953809D01*
X170713095Y-78858571D01*
X170665476Y-78810952D01*
X170570238Y-78763333D01*
X170379761Y-78763333D01*
X170284523Y-78810952D01*
X170236904Y-78858571D01*
X170189285Y-78953809D01*
%TO.C,C4*%
X179157142Y-66966666D02*
X179204761Y-67014285D01*
X179252380Y-67157142D01*
X179252380Y-67252380D01*
X179204761Y-67395238D01*
X179109523Y-67490476D01*
X179014285Y-67538095D01*
X178823809Y-67585714D01*
X178680952Y-67585714D01*
X178490476Y-67538095D01*
X178395238Y-67490476D01*
X178300000Y-67395238D01*
X178252380Y-67252380D01*
X178252380Y-67157142D01*
X178300000Y-67014285D01*
X178347619Y-66966666D01*
X178585714Y-66109523D02*
X179252380Y-66109523D01*
X178204761Y-66347619D02*
X178919047Y-66585714D01*
X178919047Y-65966666D01*
%TO.C,C3*%
X184357142Y-66966666D02*
X184404761Y-67014285D01*
X184452380Y-67157142D01*
X184452380Y-67252380D01*
X184404761Y-67395238D01*
X184309523Y-67490476D01*
X184214285Y-67538095D01*
X184023809Y-67585714D01*
X183880952Y-67585714D01*
X183690476Y-67538095D01*
X183595238Y-67490476D01*
X183500000Y-67395238D01*
X183452380Y-67252380D01*
X183452380Y-67157142D01*
X183500000Y-67014285D01*
X183547619Y-66966666D01*
X183452380Y-66633333D02*
X183452380Y-66014285D01*
X183833333Y-66347619D01*
X183833333Y-66204761D01*
X183880952Y-66109523D01*
X183928571Y-66061904D01*
X184023809Y-66014285D01*
X184261904Y-66014285D01*
X184357142Y-66061904D01*
X184404761Y-66109523D01*
X184452380Y-66204761D01*
X184452380Y-66490476D01*
X184404761Y-66585714D01*
X184357142Y-66633333D01*
%TO.C,C2*%
X185083333Y-77357142D02*
X185035714Y-77404761D01*
X184892857Y-77452380D01*
X184797619Y-77452380D01*
X184654761Y-77404761D01*
X184559523Y-77309523D01*
X184511904Y-77214285D01*
X184464285Y-77023809D01*
X184464285Y-76880952D01*
X184511904Y-76690476D01*
X184559523Y-76595238D01*
X184654761Y-76500000D01*
X184797619Y-76452380D01*
X184892857Y-76452380D01*
X185035714Y-76500000D01*
X185083333Y-76547619D01*
X185464285Y-76547619D02*
X185511904Y-76500000D01*
X185607142Y-76452380D01*
X185845238Y-76452380D01*
X185940476Y-76500000D01*
X185988095Y-76547619D01*
X186035714Y-76642857D01*
X186035714Y-76738095D01*
X185988095Y-76880952D01*
X185416666Y-77452380D01*
X186035714Y-77452380D01*
%TD*%
M02*
