M48
; DRILL file {KiCad 6.0.2-378541a8eb~116~ubuntu20.04.1} date Tue 15 Feb 2022 11:15:38 PM PST
; FORMAT={-:-/ absolute / inch / decimal}
; #@! TF.CreationDate,2022-02-15T23:15:38-08:00
; #@! TF.GenerationSoftware,Kicad,Pcbnew,6.0.2-378541a8eb~116~ubuntu20.04.1
; #@! TF.FileFunction,Plated,1,2,PTH
FMAT,2
INCH
; #@! TA.AperFunction,Plated,PTH,ViaDrill
T1C0.0157
; #@! TA.AperFunction,Plated,PTH,ComponentDrill
T2C0.0236
; #@! TA.AperFunction,Plated,PTH,ComponentDrill
T3C0.0256
; #@! TA.AperFunction,Plated,PTH,ComponentDrill
T4C0.0394
; #@! TA.AperFunction,Plated,PTH,ComponentDrill
T5C0.0512
%
G90
G05
T1
X5.9961Y-2.2362
X6.0118Y-2.5276
X6.1732Y-3.3583
X6.2598Y-3.3022
X6.3425Y-3.3494
X6.374Y-3.2274
X6.4114Y-2.2933
X6.4724Y-3.248
X6.4843Y-1.811
X6.5118Y-3.4252
X6.5416Y-3.0136
X6.5748Y-3.3465
X6.5945Y-2.9016
X6.6024Y-2.8189
X6.6575Y-2.6417
X6.6772Y-3.8425
X6.689Y-2.6703
X6.6969Y-2.1654
X6.6969Y-3.437
X6.7283Y-2.685
X6.7815Y-2.9232
X6.7815Y-3.0591
X6.7835Y-2.4331
X6.7835Y-2.8504
X6.8209Y-1.8209
X6.8858Y-2.6024
X6.8898Y-2.189
X6.8898Y-3.9173
X6.8937Y-3.2165
X6.9193Y-2.9823
X6.9567Y-2.6024
X6.9567Y-2.7717
X6.9764Y-2.122
X6.9862Y-3.2618
X7.0158Y-2.9823
X7.0158Y-3.0807
X7.0551Y-2.1614
X7.0748Y-3.4488
X7.0945Y-3.9173
X7.1102Y-2.3268
X7.1181Y-2.5325
X7.1277Y-2.8443
X7.1555Y-1.8209
X7.1693Y-2.3976
X7.1732Y-2.5049
X7.1949Y-3.0413
X7.2323Y-2.4764
X7.2323Y-3.0197
X7.3031Y-3.0118
X7.3071Y-2.7441
X7.313Y-3.0906
X7.3228Y-2.7874
X7.3346Y-2.9213
X7.3701Y-2.1673
X7.4173Y-2.8543
X7.4213Y-2.2933
X7.5197Y-2.9921
X7.5197Y-3.1693
X7.5787Y-3.4843
X7.6575Y-2.628
X7.6796Y-2.3952
X7.7165Y-3.8484
X7.8445Y-3.0906
X7.8484Y-3.7343
X7.8701Y-2.126
X7.8937Y-3.3366
X7.8937Y-3.5138
X7.9213Y-1.7008
T3
X7.2256Y-4.0394
X7.2756Y-4.0394
X7.4878Y-4.0354
X7.5378Y-4.0354
X7.5878Y-4.0354
X7.6378Y-4.0354
X7.8445Y-4.0354
X7.8945Y-4.0354
X7.9445Y-4.0354
X7.9843Y-2.1457
X7.9843Y-2.1957
X7.9843Y-2.2457
X7.9843Y-2.2957
T4
X6.1457Y-2.8622
X6.3228Y-2.8622
X6.5118Y-2.7362
X6.626Y-3.6969
X6.9961Y-3.5157
X7.0709Y-3.7953
X7.6063Y-3.8346
T5
X6.0236Y-3.8976
T2
G00X6.1969Y-3.7598
M15
G01X6.2441Y-3.7598
M16
G05
G00X6.1969Y-3.8976
M15
G01X6.2441Y-3.8976
M16
G05
G00X6.1969Y-4.0551
M15
G01X6.2441Y-4.0551
M16
G05
T0
M30
