%TF.GenerationSoftware,KiCad,Pcbnew,6.0.2-378541a8eb~116~ubuntu20.04.1*%
%TF.CreationDate,2022-03-08T12:22:36-08:00*%
%TF.ProjectId,RP2040_WEDS,52503230-3430-45f5-9745-44532e6b6963,rev?*%
%TF.SameCoordinates,Original*%
%TF.FileFunction,Legend,Top*%
%TF.FilePolarity,Positive*%
%FSLAX46Y46*%
G04 Gerber Fmt 4.6, Leading zero omitted, Abs format (unit mm)*
G04 Created by KiCad (PCBNEW 6.0.2-378541a8eb~116~ubuntu20.04.1) date 2022-03-08 12:22:36*
%MOMM*%
%LPD*%
G01*
G04 APERTURE LIST*
%ADD10C,0.150000*%
%ADD11C,0.120000*%
%ADD12C,0.125000*%
%ADD13C,0.200000*%
%ADD14C,0.127000*%
%ADD15C,0.100000*%
G04 APERTURE END LIST*
D10*
X124587857Y-99039285D02*
X124230714Y-99039285D01*
X124230714Y-98289285D01*
X124980714Y-98289285D02*
X125123571Y-98289285D01*
X125195000Y-98325000D01*
X125266428Y-98396428D01*
X125302142Y-98539285D01*
X125302142Y-98789285D01*
X125266428Y-98932142D01*
X125195000Y-99003571D01*
X125123571Y-99039285D01*
X124980714Y-99039285D01*
X124909285Y-99003571D01*
X124837857Y-98932142D01*
X124802142Y-98789285D01*
X124802142Y-98539285D01*
X124837857Y-98396428D01*
X124909285Y-98325000D01*
X124980714Y-98289285D01*
X126052142Y-99039285D02*
X125802142Y-98682142D01*
X125623571Y-99039285D02*
X125623571Y-98289285D01*
X125909285Y-98289285D01*
X125980714Y-98325000D01*
X126016428Y-98360714D01*
X126052142Y-98432142D01*
X126052142Y-98539285D01*
X126016428Y-98610714D01*
X125980714Y-98646428D01*
X125909285Y-98682142D01*
X125623571Y-98682142D01*
X126337857Y-98825000D02*
X126695000Y-98825000D01*
X126266428Y-99039285D02*
X126516428Y-98289285D01*
X126766428Y-99039285D01*
X163723571Y-92039285D02*
X163723571Y-91289285D01*
X164152142Y-92039285D01*
X164152142Y-91289285D01*
X164473571Y-91825000D02*
X164830714Y-91825000D01*
X164402142Y-92039285D02*
X164652142Y-91289285D01*
X164902142Y-92039285D01*
X165152142Y-92039285D02*
X165152142Y-91289285D01*
X165580714Y-92039285D01*
X165580714Y-91289285D01*
X166080714Y-91289285D02*
X166223571Y-91289285D01*
X166295000Y-91325000D01*
X166366428Y-91396428D01*
X166402142Y-91539285D01*
X166402142Y-91789285D01*
X166366428Y-91932142D01*
X166295000Y-92003571D01*
X166223571Y-92039285D01*
X166080714Y-92039285D01*
X166009285Y-92003571D01*
X165937857Y-91932142D01*
X165902142Y-91789285D01*
X165902142Y-91539285D01*
X165937857Y-91396428D01*
X166009285Y-91325000D01*
X166080714Y-91289285D01*
X167584285Y-73689285D02*
X167227142Y-73939285D01*
X167584285Y-74117857D02*
X166834285Y-74117857D01*
X166834285Y-73832142D01*
X166870000Y-73760714D01*
X166905714Y-73725000D01*
X166977142Y-73689285D01*
X167084285Y-73689285D01*
X167155714Y-73725000D01*
X167191428Y-73760714D01*
X167227142Y-73832142D01*
X167227142Y-74117857D01*
X167191428Y-73367857D02*
X167191428Y-73117857D01*
X167584285Y-73010714D02*
X167584285Y-73367857D01*
X166834285Y-73367857D01*
X166834285Y-73010714D01*
X167548571Y-72725000D02*
X167584285Y-72617857D01*
X167584285Y-72439285D01*
X167548571Y-72367857D01*
X167512857Y-72332142D01*
X167441428Y-72296428D01*
X167370000Y-72296428D01*
X167298571Y-72332142D01*
X167262857Y-72367857D01*
X167227142Y-72439285D01*
X167191428Y-72582142D01*
X167155714Y-72653571D01*
X167120000Y-72689285D01*
X167048571Y-72725000D01*
X166977142Y-72725000D01*
X166905714Y-72689285D01*
X166870000Y-72653571D01*
X166834285Y-72582142D01*
X166834285Y-72403571D01*
X166870000Y-72296428D01*
X167191428Y-71975000D02*
X167191428Y-71725000D01*
X167584285Y-71617857D02*
X167584285Y-71975000D01*
X166834285Y-71975000D01*
X166834285Y-71617857D01*
X166834285Y-71403571D02*
X166834285Y-70975000D01*
X167584285Y-71189285D02*
X166834285Y-71189285D01*
D11*
X165345000Y-121350000D02*
X165345000Y-118250000D01*
X165345000Y-108350000D02*
X160345000Y-108350000D01*
X160345000Y-118250000D02*
X160345000Y-121350000D01*
X160345000Y-121350000D02*
X165345000Y-121350000D01*
X165345000Y-111450000D02*
X165345000Y-108350000D01*
X160345000Y-108350000D02*
X160345000Y-111450000D01*
D10*
X168884285Y-86639285D02*
X168884285Y-85889285D01*
X169062857Y-85889285D01*
X169170000Y-85925000D01*
X169241428Y-85996428D01*
X169277142Y-86067857D01*
X169312857Y-86210714D01*
X169312857Y-86317857D01*
X169277142Y-86460714D01*
X169241428Y-86532142D01*
X169170000Y-86603571D01*
X169062857Y-86639285D01*
X168884285Y-86639285D01*
X169634285Y-86353571D02*
X170205714Y-86353571D01*
X168445000Y-80889285D02*
X168695000Y-81639285D01*
X168945000Y-80889285D01*
X169195000Y-81639285D02*
X169195000Y-80889285D01*
X169373571Y-80889285D01*
X169480714Y-80925000D01*
X169552142Y-80996428D01*
X169587857Y-81067857D01*
X169623571Y-81210714D01*
X169623571Y-81317857D01*
X169587857Y-81460714D01*
X169552142Y-81532142D01*
X169480714Y-81603571D01*
X169373571Y-81639285D01*
X169195000Y-81639285D01*
X170373571Y-81567857D02*
X170337857Y-81603571D01*
X170230714Y-81639285D01*
X170159285Y-81639285D01*
X170052142Y-81603571D01*
X169980714Y-81532142D01*
X169945000Y-81460714D01*
X169909285Y-81317857D01*
X169909285Y-81210714D01*
X169945000Y-81067857D01*
X169980714Y-80996428D01*
X170052142Y-80925000D01*
X170159285Y-80889285D01*
X170230714Y-80889285D01*
X170337857Y-80925000D01*
X170373571Y-80960714D01*
X148964047Y-131471428D02*
X149725952Y-131471428D01*
X149345000Y-131852380D02*
X149345000Y-131090476D01*
X125984285Y-129232142D02*
X125234285Y-129232142D01*
X125234285Y-128946428D01*
X125270000Y-128875000D01*
X125305714Y-128839285D01*
X125377142Y-128803571D01*
X125484285Y-128803571D01*
X125555714Y-128839285D01*
X125591428Y-128875000D01*
X125627142Y-128946428D01*
X125627142Y-129232142D01*
X125234285Y-128339285D02*
X125234285Y-128196428D01*
X125270000Y-128125000D01*
X125341428Y-128053571D01*
X125484285Y-128017857D01*
X125734285Y-128017857D01*
X125877142Y-128053571D01*
X125948571Y-128125000D01*
X125984285Y-128196428D01*
X125984285Y-128339285D01*
X125948571Y-128410714D01*
X125877142Y-128482142D01*
X125734285Y-128517857D01*
X125484285Y-128517857D01*
X125341428Y-128482142D01*
X125270000Y-128410714D01*
X125234285Y-128339285D01*
X125234285Y-127767857D02*
X125984285Y-127589285D01*
X125448571Y-127446428D01*
X125984285Y-127303571D01*
X125234285Y-127125000D01*
X125591428Y-126839285D02*
X125591428Y-126589285D01*
X125984285Y-126482142D02*
X125984285Y-126839285D01*
X125234285Y-126839285D01*
X125234285Y-126482142D01*
X125984285Y-125732142D02*
X125627142Y-125982142D01*
X125984285Y-126160714D02*
X125234285Y-126160714D01*
X125234285Y-125875000D01*
X125270000Y-125803571D01*
X125305714Y-125767857D01*
X125377142Y-125732142D01*
X125484285Y-125732142D01*
X125555714Y-125767857D01*
X125591428Y-125803571D01*
X125627142Y-125875000D01*
X125627142Y-126160714D01*
X168784285Y-83939285D02*
X168784285Y-83189285D01*
X168962857Y-83189285D01*
X169070000Y-83225000D01*
X169141428Y-83296428D01*
X169177142Y-83367857D01*
X169212857Y-83510714D01*
X169212857Y-83617857D01*
X169177142Y-83760714D01*
X169141428Y-83832142D01*
X169070000Y-83903571D01*
X168962857Y-83939285D01*
X168784285Y-83939285D01*
X169534285Y-83653571D02*
X170105714Y-83653571D01*
X169820000Y-83939285D02*
X169820000Y-83367857D01*
X165892619Y-117985714D02*
X165892619Y-117414285D01*
X165892619Y-117700000D02*
X166892619Y-117700000D01*
X166749761Y-117604761D01*
X166654523Y-117509523D01*
X166606904Y-117414285D01*
X140891428Y-129092857D02*
X140891428Y-129342857D01*
X141284285Y-129342857D02*
X140534285Y-129342857D01*
X140534285Y-128985714D01*
X140534285Y-128700000D02*
X141141428Y-128700000D01*
X141212857Y-128664285D01*
X141248571Y-128628571D01*
X141284285Y-128557142D01*
X141284285Y-128414285D01*
X141248571Y-128342857D01*
X141212857Y-128307142D01*
X141141428Y-128271428D01*
X140534285Y-128271428D01*
X141284285Y-127557142D02*
X141284285Y-127914285D01*
X140534285Y-127914285D01*
X141284285Y-126950000D02*
X141284285Y-127307142D01*
X140534285Y-127307142D01*
X168873571Y-88625000D02*
X168802142Y-88589285D01*
X168695000Y-88589285D01*
X168587857Y-88625000D01*
X168516428Y-88696428D01*
X168480714Y-88767857D01*
X168445000Y-88910714D01*
X168445000Y-89017857D01*
X168480714Y-89160714D01*
X168516428Y-89232142D01*
X168587857Y-89303571D01*
X168695000Y-89339285D01*
X168766428Y-89339285D01*
X168873571Y-89303571D01*
X168909285Y-89267857D01*
X168909285Y-89017857D01*
X168766428Y-89017857D01*
X169230714Y-89339285D02*
X169230714Y-88589285D01*
X169659285Y-89339285D01*
X169659285Y-88589285D01*
X170016428Y-89339285D02*
X170016428Y-88589285D01*
X170195000Y-88589285D01*
X170302142Y-88625000D01*
X170373571Y-88696428D01*
X170409285Y-88767857D01*
X170445000Y-88910714D01*
X170445000Y-89017857D01*
X170409285Y-89160714D01*
X170373571Y-89232142D01*
X170302142Y-89303571D01*
X170195000Y-89339285D01*
X170016428Y-89339285D01*
%TO.C,C1*%
X139725000Y-100312857D02*
X139689285Y-100348571D01*
X139582142Y-100384285D01*
X139510714Y-100384285D01*
X139403571Y-100348571D01*
X139332142Y-100277142D01*
X139296428Y-100205714D01*
X139260714Y-100062857D01*
X139260714Y-99955714D01*
X139296428Y-99812857D01*
X139332142Y-99741428D01*
X139403571Y-99670000D01*
X139510714Y-99634285D01*
X139582142Y-99634285D01*
X139689285Y-99670000D01*
X139725000Y-99705714D01*
X140439285Y-100384285D02*
X140010714Y-100384285D01*
X140225000Y-100384285D02*
X140225000Y-99634285D01*
X140153571Y-99741428D01*
X140082142Y-99812857D01*
X140010714Y-99848571D01*
%TO.C,C2*%
X153690000Y-106692857D02*
X153654285Y-106728571D01*
X153547142Y-106764285D01*
X153475714Y-106764285D01*
X153368571Y-106728571D01*
X153297142Y-106657142D01*
X153261428Y-106585714D01*
X153225714Y-106442857D01*
X153225714Y-106335714D01*
X153261428Y-106192857D01*
X153297142Y-106121428D01*
X153368571Y-106050000D01*
X153475714Y-106014285D01*
X153547142Y-106014285D01*
X153654285Y-106050000D01*
X153690000Y-106085714D01*
X153975714Y-106085714D02*
X154011428Y-106050000D01*
X154082857Y-106014285D01*
X154261428Y-106014285D01*
X154332857Y-106050000D01*
X154368571Y-106085714D01*
X154404285Y-106157142D01*
X154404285Y-106228571D01*
X154368571Y-106335714D01*
X153940000Y-106764285D01*
X154404285Y-106764285D01*
%TO.C,C3*%
X156965000Y-102437857D02*
X156929285Y-102473571D01*
X156822142Y-102509285D01*
X156750714Y-102509285D01*
X156643571Y-102473571D01*
X156572142Y-102402142D01*
X156536428Y-102330714D01*
X156500714Y-102187857D01*
X156500714Y-102080714D01*
X156536428Y-101937857D01*
X156572142Y-101866428D01*
X156643571Y-101795000D01*
X156750714Y-101759285D01*
X156822142Y-101759285D01*
X156929285Y-101795000D01*
X156965000Y-101830714D01*
X157215000Y-101759285D02*
X157679285Y-101759285D01*
X157429285Y-102045000D01*
X157536428Y-102045000D01*
X157607857Y-102080714D01*
X157643571Y-102116428D01*
X157679285Y-102187857D01*
X157679285Y-102366428D01*
X157643571Y-102437857D01*
X157607857Y-102473571D01*
X157536428Y-102509285D01*
X157322142Y-102509285D01*
X157250714Y-102473571D01*
X157215000Y-102437857D01*
%TO.C,C4*%
X147512857Y-95025000D02*
X147548571Y-95060714D01*
X147584285Y-95167857D01*
X147584285Y-95239285D01*
X147548571Y-95346428D01*
X147477142Y-95417857D01*
X147405714Y-95453571D01*
X147262857Y-95489285D01*
X147155714Y-95489285D01*
X147012857Y-95453571D01*
X146941428Y-95417857D01*
X146870000Y-95346428D01*
X146834285Y-95239285D01*
X146834285Y-95167857D01*
X146870000Y-95060714D01*
X146905714Y-95025000D01*
X147084285Y-94382142D02*
X147584285Y-94382142D01*
X146798571Y-94560714D02*
X147334285Y-94739285D01*
X147334285Y-94275000D01*
%TO.C,C5*%
X146805000Y-112022857D02*
X146769285Y-112058571D01*
X146662142Y-112094285D01*
X146590714Y-112094285D01*
X146483571Y-112058571D01*
X146412142Y-111987142D01*
X146376428Y-111915714D01*
X146340714Y-111772857D01*
X146340714Y-111665714D01*
X146376428Y-111522857D01*
X146412142Y-111451428D01*
X146483571Y-111380000D01*
X146590714Y-111344285D01*
X146662142Y-111344285D01*
X146769285Y-111380000D01*
X146805000Y-111415714D01*
X147483571Y-111344285D02*
X147126428Y-111344285D01*
X147090714Y-111701428D01*
X147126428Y-111665714D01*
X147197857Y-111630000D01*
X147376428Y-111630000D01*
X147447857Y-111665714D01*
X147483571Y-111701428D01*
X147519285Y-111772857D01*
X147519285Y-111951428D01*
X147483571Y-112022857D01*
X147447857Y-112058571D01*
X147376428Y-112094285D01*
X147197857Y-112094285D01*
X147126428Y-112058571D01*
X147090714Y-112022857D01*
%TO.C,C6*%
X139175000Y-108042857D02*
X139139285Y-108078571D01*
X139032142Y-108114285D01*
X138960714Y-108114285D01*
X138853571Y-108078571D01*
X138782142Y-108007142D01*
X138746428Y-107935714D01*
X138710714Y-107792857D01*
X138710714Y-107685714D01*
X138746428Y-107542857D01*
X138782142Y-107471428D01*
X138853571Y-107400000D01*
X138960714Y-107364285D01*
X139032142Y-107364285D01*
X139139285Y-107400000D01*
X139175000Y-107435714D01*
X139817857Y-107364285D02*
X139675000Y-107364285D01*
X139603571Y-107400000D01*
X139567857Y-107435714D01*
X139496428Y-107542857D01*
X139460714Y-107685714D01*
X139460714Y-107971428D01*
X139496428Y-108042857D01*
X139532142Y-108078571D01*
X139603571Y-108114285D01*
X139746428Y-108114285D01*
X139817857Y-108078571D01*
X139853571Y-108042857D01*
X139889285Y-107971428D01*
X139889285Y-107792857D01*
X139853571Y-107721428D01*
X139817857Y-107685714D01*
X139746428Y-107650000D01*
X139603571Y-107650000D01*
X139532142Y-107685714D01*
X139496428Y-107721428D01*
X139460714Y-107792857D01*
%TO.C,C7*%
X156965000Y-104112857D02*
X156929285Y-104148571D01*
X156822142Y-104184285D01*
X156750714Y-104184285D01*
X156643571Y-104148571D01*
X156572142Y-104077142D01*
X156536428Y-104005714D01*
X156500714Y-103862857D01*
X156500714Y-103755714D01*
X156536428Y-103612857D01*
X156572142Y-103541428D01*
X156643571Y-103470000D01*
X156750714Y-103434285D01*
X156822142Y-103434285D01*
X156929285Y-103470000D01*
X156965000Y-103505714D01*
X157215000Y-103434285D02*
X157715000Y-103434285D01*
X157393571Y-104184285D01*
%TO.C,C8*%
X139595000Y-104832857D02*
X139559285Y-104868571D01*
X139452142Y-104904285D01*
X139380714Y-104904285D01*
X139273571Y-104868571D01*
X139202142Y-104797142D01*
X139166428Y-104725714D01*
X139130714Y-104582857D01*
X139130714Y-104475714D01*
X139166428Y-104332857D01*
X139202142Y-104261428D01*
X139273571Y-104190000D01*
X139380714Y-104154285D01*
X139452142Y-104154285D01*
X139559285Y-104190000D01*
X139595000Y-104225714D01*
X140023571Y-104475714D02*
X139952142Y-104440000D01*
X139916428Y-104404285D01*
X139880714Y-104332857D01*
X139880714Y-104297142D01*
X139916428Y-104225714D01*
X139952142Y-104190000D01*
X140023571Y-104154285D01*
X140166428Y-104154285D01*
X140237857Y-104190000D01*
X140273571Y-104225714D01*
X140309285Y-104297142D01*
X140309285Y-104332857D01*
X140273571Y-104404285D01*
X140237857Y-104440000D01*
X140166428Y-104475714D01*
X140023571Y-104475714D01*
X139952142Y-104511428D01*
X139916428Y-104547142D01*
X139880714Y-104618571D01*
X139880714Y-104761428D01*
X139916428Y-104832857D01*
X139952142Y-104868571D01*
X140023571Y-104904285D01*
X140166428Y-104904285D01*
X140237857Y-104868571D01*
X140273571Y-104832857D01*
X140309285Y-104761428D01*
X140309285Y-104618571D01*
X140273571Y-104547142D01*
X140237857Y-104511428D01*
X140166428Y-104475714D01*
%TO.C,C11*%
X147112857Y-128982142D02*
X147148571Y-129017857D01*
X147184285Y-129125000D01*
X147184285Y-129196428D01*
X147148571Y-129303571D01*
X147077142Y-129375000D01*
X147005714Y-129410714D01*
X146862857Y-129446428D01*
X146755714Y-129446428D01*
X146612857Y-129410714D01*
X146541428Y-129375000D01*
X146470000Y-129303571D01*
X146434285Y-129196428D01*
X146434285Y-129125000D01*
X146470000Y-129017857D01*
X146505714Y-128982142D01*
X147184285Y-128267857D02*
X147184285Y-128696428D01*
X147184285Y-128482142D02*
X146434285Y-128482142D01*
X146541428Y-128553571D01*
X146612857Y-128625000D01*
X146648571Y-128696428D01*
X147184285Y-127553571D02*
X147184285Y-127982142D01*
X147184285Y-127767857D02*
X146434285Y-127767857D01*
X146541428Y-127839285D01*
X146612857Y-127910714D01*
X146648571Y-127982142D01*
%TO.C,C10*%
X149642857Y-112092857D02*
X149607142Y-112128571D01*
X149500000Y-112164285D01*
X149428571Y-112164285D01*
X149321428Y-112128571D01*
X149250000Y-112057142D01*
X149214285Y-111985714D01*
X149178571Y-111842857D01*
X149178571Y-111735714D01*
X149214285Y-111592857D01*
X149250000Y-111521428D01*
X149321428Y-111450000D01*
X149428571Y-111414285D01*
X149500000Y-111414285D01*
X149607142Y-111450000D01*
X149642857Y-111485714D01*
X150357142Y-112164285D02*
X149928571Y-112164285D01*
X150142857Y-112164285D02*
X150142857Y-111414285D01*
X150071428Y-111521428D01*
X150000000Y-111592857D01*
X149928571Y-111628571D01*
X150821428Y-111414285D02*
X150892857Y-111414285D01*
X150964285Y-111450000D01*
X151000000Y-111485714D01*
X151035714Y-111557142D01*
X151071428Y-111700000D01*
X151071428Y-111878571D01*
X151035714Y-112021428D01*
X151000000Y-112092857D01*
X150964285Y-112128571D01*
X150892857Y-112164285D01*
X150821428Y-112164285D01*
X150750000Y-112128571D01*
X150714285Y-112092857D01*
X150678571Y-112021428D01*
X150642857Y-111878571D01*
X150642857Y-111700000D01*
X150678571Y-111557142D01*
X150714285Y-111485714D01*
X150750000Y-111450000D01*
X150821428Y-111414285D01*
%TO.C,C12*%
X144512857Y-97582142D02*
X144548571Y-97617857D01*
X144584285Y-97725000D01*
X144584285Y-97796428D01*
X144548571Y-97903571D01*
X144477142Y-97975000D01*
X144405714Y-98010714D01*
X144262857Y-98046428D01*
X144155714Y-98046428D01*
X144012857Y-98010714D01*
X143941428Y-97975000D01*
X143870000Y-97903571D01*
X143834285Y-97796428D01*
X143834285Y-97725000D01*
X143870000Y-97617857D01*
X143905714Y-97582142D01*
X144584285Y-96867857D02*
X144584285Y-97296428D01*
X144584285Y-97082142D02*
X143834285Y-97082142D01*
X143941428Y-97153571D01*
X144012857Y-97225000D01*
X144048571Y-97296428D01*
X143905714Y-96582142D02*
X143870000Y-96546428D01*
X143834285Y-96475000D01*
X143834285Y-96296428D01*
X143870000Y-96225000D01*
X143905714Y-96189285D01*
X143977142Y-96153571D01*
X144048571Y-96153571D01*
X144155714Y-96189285D01*
X144584285Y-96617857D01*
X144584285Y-96153571D01*
%TO.C,C13*%
X153317857Y-97092857D02*
X153282142Y-97128571D01*
X153175000Y-97164285D01*
X153103571Y-97164285D01*
X152996428Y-97128571D01*
X152925000Y-97057142D01*
X152889285Y-96985714D01*
X152853571Y-96842857D01*
X152853571Y-96735714D01*
X152889285Y-96592857D01*
X152925000Y-96521428D01*
X152996428Y-96450000D01*
X153103571Y-96414285D01*
X153175000Y-96414285D01*
X153282142Y-96450000D01*
X153317857Y-96485714D01*
X154032142Y-97164285D02*
X153603571Y-97164285D01*
X153817857Y-97164285D02*
X153817857Y-96414285D01*
X153746428Y-96521428D01*
X153675000Y-96592857D01*
X153603571Y-96628571D01*
X154282142Y-96414285D02*
X154746428Y-96414285D01*
X154496428Y-96700000D01*
X154603571Y-96700000D01*
X154675000Y-96735714D01*
X154710714Y-96771428D01*
X154746428Y-96842857D01*
X154746428Y-97021428D01*
X154710714Y-97092857D01*
X154675000Y-97128571D01*
X154603571Y-97164285D01*
X154389285Y-97164285D01*
X154317857Y-97128571D01*
X154282142Y-97092857D01*
%TO.C,C14*%
X164897857Y-126347857D02*
X164862142Y-126383571D01*
X164755000Y-126419285D01*
X164683571Y-126419285D01*
X164576428Y-126383571D01*
X164505000Y-126312142D01*
X164469285Y-126240714D01*
X164433571Y-126097857D01*
X164433571Y-125990714D01*
X164469285Y-125847857D01*
X164505000Y-125776428D01*
X164576428Y-125705000D01*
X164683571Y-125669285D01*
X164755000Y-125669285D01*
X164862142Y-125705000D01*
X164897857Y-125740714D01*
X165612142Y-126419285D02*
X165183571Y-126419285D01*
X165397857Y-126419285D02*
X165397857Y-125669285D01*
X165326428Y-125776428D01*
X165255000Y-125847857D01*
X165183571Y-125883571D01*
X166255000Y-125919285D02*
X166255000Y-126419285D01*
X166076428Y-125633571D02*
X165897857Y-126169285D01*
X166362142Y-126169285D01*
%TO.C,C15*%
X125412857Y-112382142D02*
X125448571Y-112417857D01*
X125484285Y-112525000D01*
X125484285Y-112596428D01*
X125448571Y-112703571D01*
X125377142Y-112775000D01*
X125305714Y-112810714D01*
X125162857Y-112846428D01*
X125055714Y-112846428D01*
X124912857Y-112810714D01*
X124841428Y-112775000D01*
X124770000Y-112703571D01*
X124734285Y-112596428D01*
X124734285Y-112525000D01*
X124770000Y-112417857D01*
X124805714Y-112382142D01*
X125484285Y-111667857D02*
X125484285Y-112096428D01*
X125484285Y-111882142D02*
X124734285Y-111882142D01*
X124841428Y-111953571D01*
X124912857Y-112025000D01*
X124948571Y-112096428D01*
X124734285Y-110989285D02*
X124734285Y-111346428D01*
X125091428Y-111382142D01*
X125055714Y-111346428D01*
X125020000Y-111275000D01*
X125020000Y-111096428D01*
X125055714Y-111025000D01*
X125091428Y-110989285D01*
X125162857Y-110953571D01*
X125341428Y-110953571D01*
X125412857Y-110989285D01*
X125448571Y-111025000D01*
X125484285Y-111096428D01*
X125484285Y-111275000D01*
X125448571Y-111346428D01*
X125412857Y-111382142D01*
%TO.C,C16*%
X151462857Y-88592857D02*
X151427142Y-88628571D01*
X151320000Y-88664285D01*
X151248571Y-88664285D01*
X151141428Y-88628571D01*
X151070000Y-88557142D01*
X151034285Y-88485714D01*
X150998571Y-88342857D01*
X150998571Y-88235714D01*
X151034285Y-88092857D01*
X151070000Y-88021428D01*
X151141428Y-87950000D01*
X151248571Y-87914285D01*
X151320000Y-87914285D01*
X151427142Y-87950000D01*
X151462857Y-87985714D01*
X152177142Y-88664285D02*
X151748571Y-88664285D01*
X151962857Y-88664285D02*
X151962857Y-87914285D01*
X151891428Y-88021428D01*
X151820000Y-88092857D01*
X151748571Y-88128571D01*
X152820000Y-87914285D02*
X152677142Y-87914285D01*
X152605714Y-87950000D01*
X152570000Y-87985714D01*
X152498571Y-88092857D01*
X152462857Y-88235714D01*
X152462857Y-88521428D01*
X152498571Y-88592857D01*
X152534285Y-88628571D01*
X152605714Y-88664285D01*
X152748571Y-88664285D01*
X152820000Y-88628571D01*
X152855714Y-88592857D01*
X152891428Y-88521428D01*
X152891428Y-88342857D01*
X152855714Y-88271428D01*
X152820000Y-88235714D01*
X152748571Y-88200000D01*
X152605714Y-88200000D01*
X152534285Y-88235714D01*
X152498571Y-88271428D01*
X152462857Y-88342857D01*
%TO.C,C17*%
X125362857Y-108382142D02*
X125398571Y-108417857D01*
X125434285Y-108525000D01*
X125434285Y-108596428D01*
X125398571Y-108703571D01*
X125327142Y-108775000D01*
X125255714Y-108810714D01*
X125112857Y-108846428D01*
X125005714Y-108846428D01*
X124862857Y-108810714D01*
X124791428Y-108775000D01*
X124720000Y-108703571D01*
X124684285Y-108596428D01*
X124684285Y-108525000D01*
X124720000Y-108417857D01*
X124755714Y-108382142D01*
X125434285Y-107667857D02*
X125434285Y-108096428D01*
X125434285Y-107882142D02*
X124684285Y-107882142D01*
X124791428Y-107953571D01*
X124862857Y-108025000D01*
X124898571Y-108096428D01*
X124684285Y-107417857D02*
X124684285Y-106917857D01*
X125434285Y-107239285D01*
%TO.C,C18*%
X168662857Y-113037857D02*
X168627142Y-113073571D01*
X168520000Y-113109285D01*
X168448571Y-113109285D01*
X168341428Y-113073571D01*
X168270000Y-113002142D01*
X168234285Y-112930714D01*
X168198571Y-112787857D01*
X168198571Y-112680714D01*
X168234285Y-112537857D01*
X168270000Y-112466428D01*
X168341428Y-112395000D01*
X168448571Y-112359285D01*
X168520000Y-112359285D01*
X168627142Y-112395000D01*
X168662857Y-112430714D01*
X169377142Y-113109285D02*
X168948571Y-113109285D01*
X169162857Y-113109285D02*
X169162857Y-112359285D01*
X169091428Y-112466428D01*
X169020000Y-112537857D01*
X168948571Y-112573571D01*
X169805714Y-112680714D02*
X169734285Y-112645000D01*
X169698571Y-112609285D01*
X169662857Y-112537857D01*
X169662857Y-112502142D01*
X169698571Y-112430714D01*
X169734285Y-112395000D01*
X169805714Y-112359285D01*
X169948571Y-112359285D01*
X170020000Y-112395000D01*
X170055714Y-112430714D01*
X170091428Y-112502142D01*
X170091428Y-112537857D01*
X170055714Y-112609285D01*
X170020000Y-112645000D01*
X169948571Y-112680714D01*
X169805714Y-112680714D01*
X169734285Y-112716428D01*
X169698571Y-112752142D01*
X169662857Y-112823571D01*
X169662857Y-112966428D01*
X169698571Y-113037857D01*
X169734285Y-113073571D01*
X169805714Y-113109285D01*
X169948571Y-113109285D01*
X170020000Y-113073571D01*
X170055714Y-113037857D01*
X170091428Y-112966428D01*
X170091428Y-112823571D01*
X170055714Y-112752142D01*
X170020000Y-112716428D01*
X169948571Y-112680714D01*
%TO.C,C20*%
X121162857Y-71467857D02*
X121127142Y-71503571D01*
X121020000Y-71539285D01*
X120948571Y-71539285D01*
X120841428Y-71503571D01*
X120770000Y-71432142D01*
X120734285Y-71360714D01*
X120698571Y-71217857D01*
X120698571Y-71110714D01*
X120734285Y-70967857D01*
X120770000Y-70896428D01*
X120841428Y-70825000D01*
X120948571Y-70789285D01*
X121020000Y-70789285D01*
X121127142Y-70825000D01*
X121162857Y-70860714D01*
X121448571Y-70860714D02*
X121484285Y-70825000D01*
X121555714Y-70789285D01*
X121734285Y-70789285D01*
X121805714Y-70825000D01*
X121841428Y-70860714D01*
X121877142Y-70932142D01*
X121877142Y-71003571D01*
X121841428Y-71110714D01*
X121412857Y-71539285D01*
X121877142Y-71539285D01*
X122341428Y-70789285D02*
X122412857Y-70789285D01*
X122484285Y-70825000D01*
X122520000Y-70860714D01*
X122555714Y-70932142D01*
X122591428Y-71075000D01*
X122591428Y-71253571D01*
X122555714Y-71396428D01*
X122520000Y-71467857D01*
X122484285Y-71503571D01*
X122412857Y-71539285D01*
X122341428Y-71539285D01*
X122270000Y-71503571D01*
X122234285Y-71467857D01*
X122198571Y-71396428D01*
X122162857Y-71253571D01*
X122162857Y-71075000D01*
X122198571Y-70932142D01*
X122234285Y-70860714D01*
X122270000Y-70825000D01*
X122341428Y-70789285D01*
%TO.C,C21*%
X138237857Y-111742857D02*
X138202142Y-111778571D01*
X138095000Y-111814285D01*
X138023571Y-111814285D01*
X137916428Y-111778571D01*
X137845000Y-111707142D01*
X137809285Y-111635714D01*
X137773571Y-111492857D01*
X137773571Y-111385714D01*
X137809285Y-111242857D01*
X137845000Y-111171428D01*
X137916428Y-111100000D01*
X138023571Y-111064285D01*
X138095000Y-111064285D01*
X138202142Y-111100000D01*
X138237857Y-111135714D01*
X138523571Y-111135714D02*
X138559285Y-111100000D01*
X138630714Y-111064285D01*
X138809285Y-111064285D01*
X138880714Y-111100000D01*
X138916428Y-111135714D01*
X138952142Y-111207142D01*
X138952142Y-111278571D01*
X138916428Y-111385714D01*
X138487857Y-111814285D01*
X138952142Y-111814285D01*
X139666428Y-111814285D02*
X139237857Y-111814285D01*
X139452142Y-111814285D02*
X139452142Y-111064285D01*
X139380714Y-111171428D01*
X139309285Y-111242857D01*
X139237857Y-111278571D01*
%TO.C,C22*%
X144057857Y-111967857D02*
X144022142Y-112003571D01*
X143915000Y-112039285D01*
X143843571Y-112039285D01*
X143736428Y-112003571D01*
X143665000Y-111932142D01*
X143629285Y-111860714D01*
X143593571Y-111717857D01*
X143593571Y-111610714D01*
X143629285Y-111467857D01*
X143665000Y-111396428D01*
X143736428Y-111325000D01*
X143843571Y-111289285D01*
X143915000Y-111289285D01*
X144022142Y-111325000D01*
X144057857Y-111360714D01*
X144343571Y-111360714D02*
X144379285Y-111325000D01*
X144450714Y-111289285D01*
X144629285Y-111289285D01*
X144700714Y-111325000D01*
X144736428Y-111360714D01*
X144772142Y-111432142D01*
X144772142Y-111503571D01*
X144736428Y-111610714D01*
X144307857Y-112039285D01*
X144772142Y-112039285D01*
X145057857Y-111360714D02*
X145093571Y-111325000D01*
X145165000Y-111289285D01*
X145343571Y-111289285D01*
X145415000Y-111325000D01*
X145450714Y-111360714D01*
X145486428Y-111432142D01*
X145486428Y-111503571D01*
X145450714Y-111610714D01*
X145022142Y-112039285D01*
X145486428Y-112039285D01*
%TO.C,C23*%
X139762857Y-79492857D02*
X139727142Y-79528571D01*
X139620000Y-79564285D01*
X139548571Y-79564285D01*
X139441428Y-79528571D01*
X139370000Y-79457142D01*
X139334285Y-79385714D01*
X139298571Y-79242857D01*
X139298571Y-79135714D01*
X139334285Y-78992857D01*
X139370000Y-78921428D01*
X139441428Y-78850000D01*
X139548571Y-78814285D01*
X139620000Y-78814285D01*
X139727142Y-78850000D01*
X139762857Y-78885714D01*
X140048571Y-78885714D02*
X140084285Y-78850000D01*
X140155714Y-78814285D01*
X140334285Y-78814285D01*
X140405714Y-78850000D01*
X140441428Y-78885714D01*
X140477142Y-78957142D01*
X140477142Y-79028571D01*
X140441428Y-79135714D01*
X140012857Y-79564285D01*
X140477142Y-79564285D01*
X140727142Y-78814285D02*
X141191428Y-78814285D01*
X140941428Y-79100000D01*
X141048571Y-79100000D01*
X141120000Y-79135714D01*
X141155714Y-79171428D01*
X141191428Y-79242857D01*
X141191428Y-79421428D01*
X141155714Y-79492857D01*
X141120000Y-79528571D01*
X141048571Y-79564285D01*
X140834285Y-79564285D01*
X140762857Y-79528571D01*
X140727142Y-79492857D01*
%TO.C,C24*%
X145162857Y-79467857D02*
X145127142Y-79503571D01*
X145020000Y-79539285D01*
X144948571Y-79539285D01*
X144841428Y-79503571D01*
X144770000Y-79432142D01*
X144734285Y-79360714D01*
X144698571Y-79217857D01*
X144698571Y-79110714D01*
X144734285Y-78967857D01*
X144770000Y-78896428D01*
X144841428Y-78825000D01*
X144948571Y-78789285D01*
X145020000Y-78789285D01*
X145127142Y-78825000D01*
X145162857Y-78860714D01*
X145448571Y-78860714D02*
X145484285Y-78825000D01*
X145555714Y-78789285D01*
X145734285Y-78789285D01*
X145805714Y-78825000D01*
X145841428Y-78860714D01*
X145877142Y-78932142D01*
X145877142Y-79003571D01*
X145841428Y-79110714D01*
X145412857Y-79539285D01*
X145877142Y-79539285D01*
X146520000Y-79039285D02*
X146520000Y-79539285D01*
X146341428Y-78753571D02*
X146162857Y-79289285D01*
X146627142Y-79289285D01*
%TO.C,D1*%
X133276428Y-126744285D02*
X133276428Y-125994285D01*
X133455000Y-125994285D01*
X133562142Y-126030000D01*
X133633571Y-126101428D01*
X133669285Y-126172857D01*
X133705000Y-126315714D01*
X133705000Y-126422857D01*
X133669285Y-126565714D01*
X133633571Y-126637142D01*
X133562142Y-126708571D01*
X133455000Y-126744285D01*
X133276428Y-126744285D01*
X134419285Y-126744285D02*
X133990714Y-126744285D01*
X134205000Y-126744285D02*
X134205000Y-125994285D01*
X134133571Y-126101428D01*
X134062142Y-126172857D01*
X133990714Y-126208571D01*
%TO.C,D3*%
X153891428Y-123339285D02*
X153891428Y-122589285D01*
X154070000Y-122589285D01*
X154177142Y-122625000D01*
X154248571Y-122696428D01*
X154284285Y-122767857D01*
X154320000Y-122910714D01*
X154320000Y-123017857D01*
X154284285Y-123160714D01*
X154248571Y-123232142D01*
X154177142Y-123303571D01*
X154070000Y-123339285D01*
X153891428Y-123339285D01*
X154570000Y-122589285D02*
X155034285Y-122589285D01*
X154784285Y-122875000D01*
X154891428Y-122875000D01*
X154962857Y-122910714D01*
X154998571Y-122946428D01*
X155034285Y-123017857D01*
X155034285Y-123196428D01*
X154998571Y-123267857D01*
X154962857Y-123303571D01*
X154891428Y-123339285D01*
X154677142Y-123339285D01*
X154605714Y-123303571D01*
X154570000Y-123267857D01*
%TO.C,J5*%
X173234285Y-136235000D02*
X173770000Y-136235000D01*
X173877142Y-136270714D01*
X173948571Y-136342142D01*
X173984285Y-136449285D01*
X173984285Y-136520714D01*
X173234285Y-135520714D02*
X173234285Y-135877857D01*
X173591428Y-135913571D01*
X173555714Y-135877857D01*
X173520000Y-135806428D01*
X173520000Y-135627857D01*
X173555714Y-135556428D01*
X173591428Y-135520714D01*
X173662857Y-135485000D01*
X173841428Y-135485000D01*
X173912857Y-135520714D01*
X173948571Y-135556428D01*
X173984285Y-135627857D01*
X173984285Y-135806428D01*
X173948571Y-135877857D01*
X173912857Y-135913571D01*
%TO.C,J3*%
X163434285Y-136950000D02*
X163970000Y-136950000D01*
X164077142Y-136985714D01*
X164148571Y-137057142D01*
X164184285Y-137164285D01*
X164184285Y-137235714D01*
X163434285Y-136664285D02*
X163434285Y-136200000D01*
X163720000Y-136450000D01*
X163720000Y-136342857D01*
X163755714Y-136271428D01*
X163791428Y-136235714D01*
X163862857Y-136200000D01*
X164041428Y-136200000D01*
X164112857Y-136235714D01*
X164148571Y-136271428D01*
X164184285Y-136342857D01*
X164184285Y-136557142D01*
X164148571Y-136628571D01*
X164112857Y-136664285D01*
%TO.C,J7*%
X158611666Y-114052380D02*
X158611666Y-114766666D01*
X158564047Y-114909523D01*
X158468809Y-115004761D01*
X158325952Y-115052380D01*
X158230714Y-115052380D01*
X158992619Y-114052380D02*
X159659285Y-114052380D01*
X159230714Y-115052380D01*
%TO.C,L1*%
X142700000Y-82209285D02*
X142342857Y-82209285D01*
X142342857Y-81459285D01*
X143342857Y-82209285D02*
X142914285Y-82209285D01*
X143128571Y-82209285D02*
X143128571Y-81459285D01*
X143057142Y-81566428D01*
X142985714Y-81637857D01*
X142914285Y-81673571D01*
%TO.C,Q1*%
X151973571Y-127910714D02*
X151902142Y-127875000D01*
X151830714Y-127803571D01*
X151723571Y-127696428D01*
X151652142Y-127660714D01*
X151580714Y-127660714D01*
X151616428Y-127839285D02*
X151545000Y-127803571D01*
X151473571Y-127732142D01*
X151437857Y-127589285D01*
X151437857Y-127339285D01*
X151473571Y-127196428D01*
X151545000Y-127125000D01*
X151616428Y-127089285D01*
X151759285Y-127089285D01*
X151830714Y-127125000D01*
X151902142Y-127196428D01*
X151937857Y-127339285D01*
X151937857Y-127589285D01*
X151902142Y-127732142D01*
X151830714Y-127803571D01*
X151759285Y-127839285D01*
X151616428Y-127839285D01*
X152652142Y-127839285D02*
X152223571Y-127839285D01*
X152437857Y-127839285D02*
X152437857Y-127089285D01*
X152366428Y-127196428D01*
X152295000Y-127267857D01*
X152223571Y-127303571D01*
%TO.C,Q2*%
X162418571Y-96305714D02*
X162347142Y-96270000D01*
X162275714Y-96198571D01*
X162168571Y-96091428D01*
X162097142Y-96055714D01*
X162025714Y-96055714D01*
X162061428Y-96234285D02*
X161990000Y-96198571D01*
X161918571Y-96127142D01*
X161882857Y-95984285D01*
X161882857Y-95734285D01*
X161918571Y-95591428D01*
X161990000Y-95520000D01*
X162061428Y-95484285D01*
X162204285Y-95484285D01*
X162275714Y-95520000D01*
X162347142Y-95591428D01*
X162382857Y-95734285D01*
X162382857Y-95984285D01*
X162347142Y-96127142D01*
X162275714Y-96198571D01*
X162204285Y-96234285D01*
X162061428Y-96234285D01*
X162668571Y-95555714D02*
X162704285Y-95520000D01*
X162775714Y-95484285D01*
X162954285Y-95484285D01*
X163025714Y-95520000D01*
X163061428Y-95555714D01*
X163097142Y-95627142D01*
X163097142Y-95698571D01*
X163061428Y-95805714D01*
X162632857Y-96234285D01*
X163097142Y-96234285D01*
%TO.C,R1*%
X140720000Y-121939285D02*
X140470000Y-121582142D01*
X140291428Y-121939285D02*
X140291428Y-121189285D01*
X140577142Y-121189285D01*
X140648571Y-121225000D01*
X140684285Y-121260714D01*
X140720000Y-121332142D01*
X140720000Y-121439285D01*
X140684285Y-121510714D01*
X140648571Y-121546428D01*
X140577142Y-121582142D01*
X140291428Y-121582142D01*
X141434285Y-121939285D02*
X141005714Y-121939285D01*
X141220000Y-121939285D02*
X141220000Y-121189285D01*
X141148571Y-121296428D01*
X141077142Y-121367857D01*
X141005714Y-121403571D01*
%TO.C,R7*%
X138520000Y-84739285D02*
X138270000Y-84382142D01*
X138091428Y-84739285D02*
X138091428Y-83989285D01*
X138377142Y-83989285D01*
X138448571Y-84025000D01*
X138484285Y-84060714D01*
X138520000Y-84132142D01*
X138520000Y-84239285D01*
X138484285Y-84310714D01*
X138448571Y-84346428D01*
X138377142Y-84382142D01*
X138091428Y-84382142D01*
X138770000Y-83989285D02*
X139270000Y-83989285D01*
X138948571Y-84739285D01*
%TO.C,R8*%
X165220000Y-76239285D02*
X164970000Y-75882142D01*
X164791428Y-76239285D02*
X164791428Y-75489285D01*
X165077142Y-75489285D01*
X165148571Y-75525000D01*
X165184285Y-75560714D01*
X165220000Y-75632142D01*
X165220000Y-75739285D01*
X165184285Y-75810714D01*
X165148571Y-75846428D01*
X165077142Y-75882142D01*
X164791428Y-75882142D01*
X165648571Y-75810714D02*
X165577142Y-75775000D01*
X165541428Y-75739285D01*
X165505714Y-75667857D01*
X165505714Y-75632142D01*
X165541428Y-75560714D01*
X165577142Y-75525000D01*
X165648571Y-75489285D01*
X165791428Y-75489285D01*
X165862857Y-75525000D01*
X165898571Y-75560714D01*
X165934285Y-75632142D01*
X165934285Y-75667857D01*
X165898571Y-75739285D01*
X165862857Y-75775000D01*
X165791428Y-75810714D01*
X165648571Y-75810714D01*
X165577142Y-75846428D01*
X165541428Y-75882142D01*
X165505714Y-75953571D01*
X165505714Y-76096428D01*
X165541428Y-76167857D01*
X165577142Y-76203571D01*
X165648571Y-76239285D01*
X165791428Y-76239285D01*
X165862857Y-76203571D01*
X165898571Y-76167857D01*
X165934285Y-76096428D01*
X165934285Y-75953571D01*
X165898571Y-75882142D01*
X165862857Y-75846428D01*
X165791428Y-75810714D01*
%TO.C,R9*%
X151920000Y-120239285D02*
X151670000Y-119882142D01*
X151491428Y-120239285D02*
X151491428Y-119489285D01*
X151777142Y-119489285D01*
X151848571Y-119525000D01*
X151884285Y-119560714D01*
X151920000Y-119632142D01*
X151920000Y-119739285D01*
X151884285Y-119810714D01*
X151848571Y-119846428D01*
X151777142Y-119882142D01*
X151491428Y-119882142D01*
X152277142Y-120239285D02*
X152420000Y-120239285D01*
X152491428Y-120203571D01*
X152527142Y-120167857D01*
X152598571Y-120060714D01*
X152634285Y-119917857D01*
X152634285Y-119632142D01*
X152598571Y-119560714D01*
X152562857Y-119525000D01*
X152491428Y-119489285D01*
X152348571Y-119489285D01*
X152277142Y-119525000D01*
X152241428Y-119560714D01*
X152205714Y-119632142D01*
X152205714Y-119810714D01*
X152241428Y-119882142D01*
X152277142Y-119917857D01*
X152348571Y-119953571D01*
X152491428Y-119953571D01*
X152562857Y-119917857D01*
X152598571Y-119882142D01*
X152634285Y-119810714D01*
%TO.C,R11*%
X133612857Y-107039285D02*
X133362857Y-106682142D01*
X133184285Y-107039285D02*
X133184285Y-106289285D01*
X133470000Y-106289285D01*
X133541428Y-106325000D01*
X133577142Y-106360714D01*
X133612857Y-106432142D01*
X133612857Y-106539285D01*
X133577142Y-106610714D01*
X133541428Y-106646428D01*
X133470000Y-106682142D01*
X133184285Y-106682142D01*
X134327142Y-107039285D02*
X133898571Y-107039285D01*
X134112857Y-107039285D02*
X134112857Y-106289285D01*
X134041428Y-106396428D01*
X133970000Y-106467857D01*
X133898571Y-106503571D01*
X135041428Y-107039285D02*
X134612857Y-107039285D01*
X134827142Y-107039285D02*
X134827142Y-106289285D01*
X134755714Y-106396428D01*
X134684285Y-106467857D01*
X134612857Y-106503571D01*
%TO.C,R12*%
X133562857Y-110639285D02*
X133312857Y-110282142D01*
X133134285Y-110639285D02*
X133134285Y-109889285D01*
X133420000Y-109889285D01*
X133491428Y-109925000D01*
X133527142Y-109960714D01*
X133562857Y-110032142D01*
X133562857Y-110139285D01*
X133527142Y-110210714D01*
X133491428Y-110246428D01*
X133420000Y-110282142D01*
X133134285Y-110282142D01*
X134277142Y-110639285D02*
X133848571Y-110639285D01*
X134062857Y-110639285D02*
X134062857Y-109889285D01*
X133991428Y-109996428D01*
X133920000Y-110067857D01*
X133848571Y-110103571D01*
X134562857Y-109960714D02*
X134598571Y-109925000D01*
X134670000Y-109889285D01*
X134848571Y-109889285D01*
X134920000Y-109925000D01*
X134955714Y-109960714D01*
X134991428Y-110032142D01*
X134991428Y-110103571D01*
X134955714Y-110210714D01*
X134527142Y-110639285D01*
X134991428Y-110639285D01*
%TO.C,R13*%
X126862857Y-86239285D02*
X126612857Y-85882142D01*
X126434285Y-86239285D02*
X126434285Y-85489285D01*
X126720000Y-85489285D01*
X126791428Y-85525000D01*
X126827142Y-85560714D01*
X126862857Y-85632142D01*
X126862857Y-85739285D01*
X126827142Y-85810714D01*
X126791428Y-85846428D01*
X126720000Y-85882142D01*
X126434285Y-85882142D01*
X127577142Y-86239285D02*
X127148571Y-86239285D01*
X127362857Y-86239285D02*
X127362857Y-85489285D01*
X127291428Y-85596428D01*
X127220000Y-85667857D01*
X127148571Y-85703571D01*
X127827142Y-85489285D02*
X128291428Y-85489285D01*
X128041428Y-85775000D01*
X128148571Y-85775000D01*
X128220000Y-85810714D01*
X128255714Y-85846428D01*
X128291428Y-85917857D01*
X128291428Y-86096428D01*
X128255714Y-86167857D01*
X128220000Y-86203571D01*
X128148571Y-86239285D01*
X127934285Y-86239285D01*
X127862857Y-86203571D01*
X127827142Y-86167857D01*
%TO.C,R14*%
X170762857Y-105839285D02*
X170512857Y-105482142D01*
X170334285Y-105839285D02*
X170334285Y-105089285D01*
X170620000Y-105089285D01*
X170691428Y-105125000D01*
X170727142Y-105160714D01*
X170762857Y-105232142D01*
X170762857Y-105339285D01*
X170727142Y-105410714D01*
X170691428Y-105446428D01*
X170620000Y-105482142D01*
X170334285Y-105482142D01*
X171477142Y-105839285D02*
X171048571Y-105839285D01*
X171262857Y-105839285D02*
X171262857Y-105089285D01*
X171191428Y-105196428D01*
X171120000Y-105267857D01*
X171048571Y-105303571D01*
X172120000Y-105339285D02*
X172120000Y-105839285D01*
X171941428Y-105053571D02*
X171762857Y-105589285D01*
X172227142Y-105589285D01*
%TO.C,R15*%
X129162857Y-87039285D02*
X128912857Y-86682142D01*
X128734285Y-87039285D02*
X128734285Y-86289285D01*
X129020000Y-86289285D01*
X129091428Y-86325000D01*
X129127142Y-86360714D01*
X129162857Y-86432142D01*
X129162857Y-86539285D01*
X129127142Y-86610714D01*
X129091428Y-86646428D01*
X129020000Y-86682142D01*
X128734285Y-86682142D01*
X129877142Y-87039285D02*
X129448571Y-87039285D01*
X129662857Y-87039285D02*
X129662857Y-86289285D01*
X129591428Y-86396428D01*
X129520000Y-86467857D01*
X129448571Y-86503571D01*
X130555714Y-86289285D02*
X130198571Y-86289285D01*
X130162857Y-86646428D01*
X130198571Y-86610714D01*
X130270000Y-86575000D01*
X130448571Y-86575000D01*
X130520000Y-86610714D01*
X130555714Y-86646428D01*
X130591428Y-86717857D01*
X130591428Y-86896428D01*
X130555714Y-86967857D01*
X130520000Y-87003571D01*
X130448571Y-87039285D01*
X130270000Y-87039285D01*
X130198571Y-87003571D01*
X130162857Y-86967857D01*
%TO.C,R16*%
X170862857Y-108439285D02*
X170612857Y-108082142D01*
X170434285Y-108439285D02*
X170434285Y-107689285D01*
X170720000Y-107689285D01*
X170791428Y-107725000D01*
X170827142Y-107760714D01*
X170862857Y-107832142D01*
X170862857Y-107939285D01*
X170827142Y-108010714D01*
X170791428Y-108046428D01*
X170720000Y-108082142D01*
X170434285Y-108082142D01*
X171577142Y-108439285D02*
X171148571Y-108439285D01*
X171362857Y-108439285D02*
X171362857Y-107689285D01*
X171291428Y-107796428D01*
X171220000Y-107867857D01*
X171148571Y-107903571D01*
X172220000Y-107689285D02*
X172077142Y-107689285D01*
X172005714Y-107725000D01*
X171970000Y-107760714D01*
X171898571Y-107867857D01*
X171862857Y-108010714D01*
X171862857Y-108296428D01*
X171898571Y-108367857D01*
X171934285Y-108403571D01*
X172005714Y-108439285D01*
X172148571Y-108439285D01*
X172220000Y-108403571D01*
X172255714Y-108367857D01*
X172291428Y-108296428D01*
X172291428Y-108117857D01*
X172255714Y-108046428D01*
X172220000Y-108010714D01*
X172148571Y-107975000D01*
X172005714Y-107975000D01*
X171934285Y-108010714D01*
X171898571Y-108046428D01*
X171862857Y-108117857D01*
%TO.C,R17*%
X121562857Y-84739285D02*
X121312857Y-84382142D01*
X121134285Y-84739285D02*
X121134285Y-83989285D01*
X121420000Y-83989285D01*
X121491428Y-84025000D01*
X121527142Y-84060714D01*
X121562857Y-84132142D01*
X121562857Y-84239285D01*
X121527142Y-84310714D01*
X121491428Y-84346428D01*
X121420000Y-84382142D01*
X121134285Y-84382142D01*
X122277142Y-84739285D02*
X121848571Y-84739285D01*
X122062857Y-84739285D02*
X122062857Y-83989285D01*
X121991428Y-84096428D01*
X121920000Y-84167857D01*
X121848571Y-84203571D01*
X122527142Y-83989285D02*
X123027142Y-83989285D01*
X122705714Y-84739285D01*
D12*
%TO.C,U1*%
X142478571Y-100789285D02*
X142478571Y-101396428D01*
X142514285Y-101467857D01*
X142550000Y-101503571D01*
X142621428Y-101539285D01*
X142764285Y-101539285D01*
X142835714Y-101503571D01*
X142871428Y-101467857D01*
X142907142Y-101396428D01*
X142907142Y-100789285D01*
X143657142Y-101539285D02*
X143228571Y-101539285D01*
X143442857Y-101539285D02*
X143442857Y-100789285D01*
X143371428Y-100896428D01*
X143300000Y-100967857D01*
X143228571Y-101003571D01*
D10*
%TO.C,U2*%
X146673571Y-125089285D02*
X146673571Y-125696428D01*
X146709285Y-125767857D01*
X146745000Y-125803571D01*
X146816428Y-125839285D01*
X146959285Y-125839285D01*
X147030714Y-125803571D01*
X147066428Y-125767857D01*
X147102142Y-125696428D01*
X147102142Y-125089285D01*
X147423571Y-125160714D02*
X147459285Y-125125000D01*
X147530714Y-125089285D01*
X147709285Y-125089285D01*
X147780714Y-125125000D01*
X147816428Y-125160714D01*
X147852142Y-125232142D01*
X147852142Y-125303571D01*
X147816428Y-125410714D01*
X147387857Y-125839285D01*
X147852142Y-125839285D01*
%TO.C,U3*%
X137973571Y-93589285D02*
X137973571Y-94196428D01*
X138009285Y-94267857D01*
X138045000Y-94303571D01*
X138116428Y-94339285D01*
X138259285Y-94339285D01*
X138330714Y-94303571D01*
X138366428Y-94267857D01*
X138402142Y-94196428D01*
X138402142Y-93589285D01*
X138687857Y-93589285D02*
X139152142Y-93589285D01*
X138902142Y-93875000D01*
X139009285Y-93875000D01*
X139080714Y-93910714D01*
X139116428Y-93946428D01*
X139152142Y-94017857D01*
X139152142Y-94196428D01*
X139116428Y-94267857D01*
X139080714Y-94303571D01*
X139009285Y-94339285D01*
X138795000Y-94339285D01*
X138723571Y-94303571D01*
X138687857Y-94267857D01*
%TO.C,U4*%
X128973571Y-107489285D02*
X128973571Y-108096428D01*
X129009285Y-108167857D01*
X129045000Y-108203571D01*
X129116428Y-108239285D01*
X129259285Y-108239285D01*
X129330714Y-108203571D01*
X129366428Y-108167857D01*
X129402142Y-108096428D01*
X129402142Y-107489285D01*
X130080714Y-107739285D02*
X130080714Y-108239285D01*
X129902142Y-107453571D02*
X129723571Y-107989285D01*
X130187857Y-107989285D01*
%TO.C,U6*%
X124218571Y-69734285D02*
X124218571Y-70341428D01*
X124254285Y-70412857D01*
X124290000Y-70448571D01*
X124361428Y-70484285D01*
X124504285Y-70484285D01*
X124575714Y-70448571D01*
X124611428Y-70412857D01*
X124647142Y-70341428D01*
X124647142Y-69734285D01*
X125325714Y-69734285D02*
X125182857Y-69734285D01*
X125111428Y-69770000D01*
X125075714Y-69805714D01*
X125004285Y-69912857D01*
X124968571Y-70055714D01*
X124968571Y-70341428D01*
X125004285Y-70412857D01*
X125040000Y-70448571D01*
X125111428Y-70484285D01*
X125254285Y-70484285D01*
X125325714Y-70448571D01*
X125361428Y-70412857D01*
X125397142Y-70341428D01*
X125397142Y-70162857D01*
X125361428Y-70091428D01*
X125325714Y-70055714D01*
X125254285Y-70020000D01*
X125111428Y-70020000D01*
X125040000Y-70055714D01*
X125004285Y-70091428D01*
X124968571Y-70162857D01*
%TO.C,U7*%
X164608571Y-104844285D02*
X164608571Y-105451428D01*
X164644285Y-105522857D01*
X164680000Y-105558571D01*
X164751428Y-105594285D01*
X164894285Y-105594285D01*
X164965714Y-105558571D01*
X165001428Y-105522857D01*
X165037142Y-105451428D01*
X165037142Y-104844285D01*
X165322857Y-104844285D02*
X165822857Y-104844285D01*
X165501428Y-105594285D01*
%TO.C,Y1*%
X141257857Y-111852142D02*
X141257857Y-112209285D01*
X141007857Y-111459285D02*
X141257857Y-111852142D01*
X141507857Y-111459285D01*
X142150714Y-112209285D02*
X141722142Y-112209285D01*
X141936428Y-112209285D02*
X141936428Y-111459285D01*
X141865000Y-111566428D01*
X141793571Y-111637857D01*
X141722142Y-111673571D01*
%TO.C,J8*%
X144080000Y-74604285D02*
X144080000Y-75140000D01*
X144044285Y-75247142D01*
X143972857Y-75318571D01*
X143865714Y-75354285D01*
X143794285Y-75354285D01*
X144544285Y-74925714D02*
X144472857Y-74890000D01*
X144437142Y-74854285D01*
X144401428Y-74782857D01*
X144401428Y-74747142D01*
X144437142Y-74675714D01*
X144472857Y-74640000D01*
X144544285Y-74604285D01*
X144687142Y-74604285D01*
X144758571Y-74640000D01*
X144794285Y-74675714D01*
X144830000Y-74747142D01*
X144830000Y-74782857D01*
X144794285Y-74854285D01*
X144758571Y-74890000D01*
X144687142Y-74925714D01*
X144544285Y-74925714D01*
X144472857Y-74961428D01*
X144437142Y-74997142D01*
X144401428Y-75068571D01*
X144401428Y-75211428D01*
X144437142Y-75282857D01*
X144472857Y-75318571D01*
X144544285Y-75354285D01*
X144687142Y-75354285D01*
X144758571Y-75318571D01*
X144794285Y-75282857D01*
X144830000Y-75211428D01*
X144830000Y-75068571D01*
X144794285Y-74997142D01*
X144758571Y-74961428D01*
X144687142Y-74925714D01*
%TO.C,JP1*%
X142620000Y-116189285D02*
X142620000Y-116725000D01*
X142584285Y-116832142D01*
X142512857Y-116903571D01*
X142405714Y-116939285D01*
X142334285Y-116939285D01*
X142977142Y-116939285D02*
X142977142Y-116189285D01*
X143262857Y-116189285D01*
X143334285Y-116225000D01*
X143370000Y-116260714D01*
X143405714Y-116332142D01*
X143405714Y-116439285D01*
X143370000Y-116510714D01*
X143334285Y-116546428D01*
X143262857Y-116582142D01*
X142977142Y-116582142D01*
X144120000Y-116939285D02*
X143691428Y-116939285D01*
X143905714Y-116939285D02*
X143905714Y-116189285D01*
X143834285Y-116296428D01*
X143762857Y-116367857D01*
X143691428Y-116403571D01*
%TO.C,TP3*%
X134045000Y-128689285D02*
X134295000Y-129439285D01*
X134545000Y-128689285D01*
X134795000Y-129439285D02*
X134795000Y-128689285D01*
X134973571Y-128689285D01*
X135080714Y-128725000D01*
X135152142Y-128796428D01*
X135187857Y-128867857D01*
X135223571Y-129010714D01*
X135223571Y-129117857D01*
X135187857Y-129260714D01*
X135152142Y-129332142D01*
X135080714Y-129403571D01*
X134973571Y-129439285D01*
X134795000Y-129439285D01*
X135973571Y-129367857D02*
X135937857Y-129403571D01*
X135830714Y-129439285D01*
X135759285Y-129439285D01*
X135652142Y-129403571D01*
X135580714Y-129332142D01*
X135545000Y-129260714D01*
X135509285Y-129117857D01*
X135509285Y-129010714D01*
X135545000Y-128867857D01*
X135580714Y-128796428D01*
X135652142Y-128725000D01*
X135759285Y-128689285D01*
X135830714Y-128689285D01*
X135937857Y-128725000D01*
X135973571Y-128760714D01*
%TO.C,TP1*%
X149716428Y-117989285D02*
X150180714Y-117989285D01*
X149930714Y-118275000D01*
X150037857Y-118275000D01*
X150109285Y-118310714D01*
X150145000Y-118346428D01*
X150180714Y-118417857D01*
X150180714Y-118596428D01*
X150145000Y-118667857D01*
X150109285Y-118703571D01*
X150037857Y-118739285D01*
X149823571Y-118739285D01*
X149752142Y-118703571D01*
X149716428Y-118667857D01*
X150395000Y-117989285D02*
X150645000Y-118739285D01*
X150895000Y-117989285D01*
X151073571Y-117989285D02*
X151537857Y-117989285D01*
X151287857Y-118275000D01*
X151395000Y-118275000D01*
X151466428Y-118310714D01*
X151502142Y-118346428D01*
X151537857Y-118417857D01*
X151537857Y-118596428D01*
X151502142Y-118667857D01*
X151466428Y-118703571D01*
X151395000Y-118739285D01*
X151180714Y-118739285D01*
X151109285Y-118703571D01*
X151073571Y-118667857D01*
%TO.C,TP6*%
X130395000Y-95239285D02*
X130037857Y-95239285D01*
X130037857Y-94489285D01*
X130752142Y-95239285D02*
X130680714Y-95203571D01*
X130645000Y-95167857D01*
X130609285Y-95096428D01*
X130609285Y-94882142D01*
X130645000Y-94810714D01*
X130680714Y-94775000D01*
X130752142Y-94739285D01*
X130859285Y-94739285D01*
X130930714Y-94775000D01*
X130966428Y-94810714D01*
X131002142Y-94882142D01*
X131002142Y-95096428D01*
X130966428Y-95167857D01*
X130930714Y-95203571D01*
X130859285Y-95239285D01*
X130752142Y-95239285D01*
X131752142Y-95239285D02*
X131502142Y-94882142D01*
X131323571Y-95239285D02*
X131323571Y-94489285D01*
X131609285Y-94489285D01*
X131680714Y-94525000D01*
X131716428Y-94560714D01*
X131752142Y-94632142D01*
X131752142Y-94739285D01*
X131716428Y-94810714D01*
X131680714Y-94846428D01*
X131609285Y-94882142D01*
X131323571Y-94882142D01*
X132395000Y-95239285D02*
X132395000Y-94846428D01*
X132359285Y-94775000D01*
X132287857Y-94739285D01*
X132145000Y-94739285D01*
X132073571Y-94775000D01*
X132395000Y-95203571D02*
X132323571Y-95239285D01*
X132145000Y-95239285D01*
X132073571Y-95203571D01*
X132037857Y-95132142D01*
X132037857Y-95060714D01*
X132073571Y-94989285D01*
X132145000Y-94953571D01*
X132323571Y-94953571D01*
X132395000Y-94917857D01*
X132573571Y-95310714D02*
X133145000Y-95310714D01*
X133216428Y-94489285D02*
X133645000Y-94489285D01*
X133430714Y-95239285D02*
X133430714Y-94489285D01*
X133823571Y-94489285D02*
X134323571Y-95239285D01*
X134323571Y-94489285D02*
X133823571Y-95239285D01*
%TO.C,TP7*%
X125720714Y-103984285D02*
X125363571Y-103984285D01*
X125363571Y-103234285D01*
X126077857Y-103984285D02*
X126006428Y-103948571D01*
X125970714Y-103912857D01*
X125935000Y-103841428D01*
X125935000Y-103627142D01*
X125970714Y-103555714D01*
X126006428Y-103520000D01*
X126077857Y-103484285D01*
X126185000Y-103484285D01*
X126256428Y-103520000D01*
X126292142Y-103555714D01*
X126327857Y-103627142D01*
X126327857Y-103841428D01*
X126292142Y-103912857D01*
X126256428Y-103948571D01*
X126185000Y-103984285D01*
X126077857Y-103984285D01*
X127077857Y-103984285D02*
X126827857Y-103627142D01*
X126649285Y-103984285D02*
X126649285Y-103234285D01*
X126935000Y-103234285D01*
X127006428Y-103270000D01*
X127042142Y-103305714D01*
X127077857Y-103377142D01*
X127077857Y-103484285D01*
X127042142Y-103555714D01*
X127006428Y-103591428D01*
X126935000Y-103627142D01*
X126649285Y-103627142D01*
X127720714Y-103984285D02*
X127720714Y-103591428D01*
X127685000Y-103520000D01*
X127613571Y-103484285D01*
X127470714Y-103484285D01*
X127399285Y-103520000D01*
X127720714Y-103948571D02*
X127649285Y-103984285D01*
X127470714Y-103984285D01*
X127399285Y-103948571D01*
X127363571Y-103877142D01*
X127363571Y-103805714D01*
X127399285Y-103734285D01*
X127470714Y-103698571D01*
X127649285Y-103698571D01*
X127720714Y-103662857D01*
X127899285Y-104055714D02*
X128470714Y-104055714D01*
X129077857Y-103984285D02*
X128827857Y-103627142D01*
X128649285Y-103984285D02*
X128649285Y-103234285D01*
X128935000Y-103234285D01*
X129006428Y-103270000D01*
X129042142Y-103305714D01*
X129077857Y-103377142D01*
X129077857Y-103484285D01*
X129042142Y-103555714D01*
X129006428Y-103591428D01*
X128935000Y-103627142D01*
X128649285Y-103627142D01*
X129327857Y-103234285D02*
X129827857Y-103984285D01*
X129827857Y-103234285D02*
X129327857Y-103984285D01*
%TO.C,C19*%
X144107857Y-120867857D02*
X144072142Y-120903571D01*
X143965000Y-120939285D01*
X143893571Y-120939285D01*
X143786428Y-120903571D01*
X143715000Y-120832142D01*
X143679285Y-120760714D01*
X143643571Y-120617857D01*
X143643571Y-120510714D01*
X143679285Y-120367857D01*
X143715000Y-120296428D01*
X143786428Y-120225000D01*
X143893571Y-120189285D01*
X143965000Y-120189285D01*
X144072142Y-120225000D01*
X144107857Y-120260714D01*
X144822142Y-120939285D02*
X144393571Y-120939285D01*
X144607857Y-120939285D02*
X144607857Y-120189285D01*
X144536428Y-120296428D01*
X144465000Y-120367857D01*
X144393571Y-120403571D01*
X145179285Y-120939285D02*
X145322142Y-120939285D01*
X145393571Y-120903571D01*
X145429285Y-120867857D01*
X145500714Y-120760714D01*
X145536428Y-120617857D01*
X145536428Y-120332142D01*
X145500714Y-120260714D01*
X145465000Y-120225000D01*
X145393571Y-120189285D01*
X145250714Y-120189285D01*
X145179285Y-120225000D01*
X145143571Y-120260714D01*
X145107857Y-120332142D01*
X145107857Y-120510714D01*
X145143571Y-120582142D01*
X145179285Y-120617857D01*
X145250714Y-120653571D01*
X145393571Y-120653571D01*
X145465000Y-120617857D01*
X145500714Y-120582142D01*
X145536428Y-120510714D01*
%TO.C,R22*%
X121762857Y-133739285D02*
X121512857Y-133382142D01*
X121334285Y-133739285D02*
X121334285Y-132989285D01*
X121620000Y-132989285D01*
X121691428Y-133025000D01*
X121727142Y-133060714D01*
X121762857Y-133132142D01*
X121762857Y-133239285D01*
X121727142Y-133310714D01*
X121691428Y-133346428D01*
X121620000Y-133382142D01*
X121334285Y-133382142D01*
X122048571Y-133060714D02*
X122084285Y-133025000D01*
X122155714Y-132989285D01*
X122334285Y-132989285D01*
X122405714Y-133025000D01*
X122441428Y-133060714D01*
X122477142Y-133132142D01*
X122477142Y-133203571D01*
X122441428Y-133310714D01*
X122012857Y-133739285D01*
X122477142Y-133739285D01*
X122762857Y-133060714D02*
X122798571Y-133025000D01*
X122870000Y-132989285D01*
X123048571Y-132989285D01*
X123120000Y-133025000D01*
X123155714Y-133060714D01*
X123191428Y-133132142D01*
X123191428Y-133203571D01*
X123155714Y-133310714D01*
X122727142Y-133739285D01*
X123191428Y-133739285D01*
%TO.C,R21*%
X168662857Y-116009285D02*
X168412857Y-115652142D01*
X168234285Y-116009285D02*
X168234285Y-115259285D01*
X168520000Y-115259285D01*
X168591428Y-115295000D01*
X168627142Y-115330714D01*
X168662857Y-115402142D01*
X168662857Y-115509285D01*
X168627142Y-115580714D01*
X168591428Y-115616428D01*
X168520000Y-115652142D01*
X168234285Y-115652142D01*
X168948571Y-115330714D02*
X168984285Y-115295000D01*
X169055714Y-115259285D01*
X169234285Y-115259285D01*
X169305714Y-115295000D01*
X169341428Y-115330714D01*
X169377142Y-115402142D01*
X169377142Y-115473571D01*
X169341428Y-115580714D01*
X168912857Y-116009285D01*
X169377142Y-116009285D01*
X170091428Y-116009285D02*
X169662857Y-116009285D01*
X169877142Y-116009285D02*
X169877142Y-115259285D01*
X169805714Y-115366428D01*
X169734285Y-115437857D01*
X169662857Y-115473571D01*
%TO.C,TP8*%
X160773571Y-122910714D02*
X160702142Y-122875000D01*
X160630714Y-122803571D01*
X160523571Y-122696428D01*
X160452142Y-122660714D01*
X160380714Y-122660714D01*
X160416428Y-122839285D02*
X160345000Y-122803571D01*
X160273571Y-122732142D01*
X160237857Y-122589285D01*
X160237857Y-122339285D01*
X160273571Y-122196428D01*
X160345000Y-122125000D01*
X160416428Y-122089285D01*
X160559285Y-122089285D01*
X160630714Y-122125000D01*
X160702142Y-122196428D01*
X160737857Y-122339285D01*
X160737857Y-122589285D01*
X160702142Y-122732142D01*
X160630714Y-122803571D01*
X160559285Y-122839285D01*
X160416428Y-122839285D01*
X161452142Y-122839285D02*
X161023571Y-122839285D01*
X161237857Y-122839285D02*
X161237857Y-122089285D01*
X161166428Y-122196428D01*
X161095000Y-122267857D01*
X161023571Y-122303571D01*
%TO.C,TP2*%
X158745000Y-98889285D02*
X158995000Y-99639285D01*
X159245000Y-98889285D01*
X159495000Y-99639285D02*
X159495000Y-98889285D01*
X159673571Y-98889285D01*
X159780714Y-98925000D01*
X159852142Y-98996428D01*
X159887857Y-99067857D01*
X159923571Y-99210714D01*
X159923571Y-99317857D01*
X159887857Y-99460714D01*
X159852142Y-99532142D01*
X159780714Y-99603571D01*
X159673571Y-99639285D01*
X159495000Y-99639285D01*
X160245000Y-99639285D02*
X160245000Y-98889285D01*
X160423571Y-98889285D01*
X160530714Y-98925000D01*
X160602142Y-98996428D01*
X160637857Y-99067857D01*
X160673571Y-99210714D01*
X160673571Y-99317857D01*
X160637857Y-99460714D01*
X160602142Y-99532142D01*
X160530714Y-99603571D01*
X160423571Y-99639285D01*
X160245000Y-99639285D01*
%TO.C,J6*%
X172234285Y-79220000D02*
X172770000Y-79220000D01*
X172877142Y-79255714D01*
X172948571Y-79327142D01*
X172984285Y-79434285D01*
X172984285Y-79505714D01*
X172234285Y-78541428D02*
X172234285Y-78684285D01*
X172270000Y-78755714D01*
X172305714Y-78791428D01*
X172412857Y-78862857D01*
X172555714Y-78898571D01*
X172841428Y-78898571D01*
X172912857Y-78862857D01*
X172948571Y-78827142D01*
X172984285Y-78755714D01*
X172984285Y-78612857D01*
X172948571Y-78541428D01*
X172912857Y-78505714D01*
X172841428Y-78470000D01*
X172662857Y-78470000D01*
X172591428Y-78505714D01*
X172555714Y-78541428D01*
X172520000Y-78612857D01*
X172520000Y-78755714D01*
X172555714Y-78827142D01*
X172591428Y-78862857D01*
X172662857Y-78898571D01*
%TO.C,R5*%
X138520000Y-133839285D02*
X138270000Y-133482142D01*
X138091428Y-133839285D02*
X138091428Y-133089285D01*
X138377142Y-133089285D01*
X138448571Y-133125000D01*
X138484285Y-133160714D01*
X138520000Y-133232142D01*
X138520000Y-133339285D01*
X138484285Y-133410714D01*
X138448571Y-133446428D01*
X138377142Y-133482142D01*
X138091428Y-133482142D01*
X139198571Y-133089285D02*
X138841428Y-133089285D01*
X138805714Y-133446428D01*
X138841428Y-133410714D01*
X138912857Y-133375000D01*
X139091428Y-133375000D01*
X139162857Y-133410714D01*
X139198571Y-133446428D01*
X139234285Y-133517857D01*
X139234285Y-133696428D01*
X139198571Y-133767857D01*
X139162857Y-133803571D01*
X139091428Y-133839285D01*
X138912857Y-133839285D01*
X138841428Y-133803571D01*
X138805714Y-133767857D01*
%TO.C,R3*%
X150899285Y-94825000D02*
X150542142Y-95075000D01*
X150899285Y-95253571D02*
X150149285Y-95253571D01*
X150149285Y-94967857D01*
X150185000Y-94896428D01*
X150220714Y-94860714D01*
X150292142Y-94825000D01*
X150399285Y-94825000D01*
X150470714Y-94860714D01*
X150506428Y-94896428D01*
X150542142Y-94967857D01*
X150542142Y-95253571D01*
X150149285Y-94575000D02*
X150149285Y-94110714D01*
X150435000Y-94360714D01*
X150435000Y-94253571D01*
X150470714Y-94182142D01*
X150506428Y-94146428D01*
X150577857Y-94110714D01*
X150756428Y-94110714D01*
X150827857Y-94146428D01*
X150863571Y-94182142D01*
X150899285Y-94253571D01*
X150899285Y-94467857D01*
X150863571Y-94539285D01*
X150827857Y-94575000D01*
%TO.C,U5*%
X170673571Y-117989285D02*
X170673571Y-118596428D01*
X170709285Y-118667857D01*
X170745000Y-118703571D01*
X170816428Y-118739285D01*
X170959285Y-118739285D01*
X171030714Y-118703571D01*
X171066428Y-118667857D01*
X171102142Y-118596428D01*
X171102142Y-117989285D01*
X171816428Y-117989285D02*
X171459285Y-117989285D01*
X171423571Y-118346428D01*
X171459285Y-118310714D01*
X171530714Y-118275000D01*
X171709285Y-118275000D01*
X171780714Y-118310714D01*
X171816428Y-118346428D01*
X171852142Y-118417857D01*
X171852142Y-118596428D01*
X171816428Y-118667857D01*
X171780714Y-118703571D01*
X171709285Y-118739285D01*
X171530714Y-118739285D01*
X171459285Y-118703571D01*
X171423571Y-118667857D01*
%TO.C,C9*%
X156955000Y-100742857D02*
X156919285Y-100778571D01*
X156812142Y-100814285D01*
X156740714Y-100814285D01*
X156633571Y-100778571D01*
X156562142Y-100707142D01*
X156526428Y-100635714D01*
X156490714Y-100492857D01*
X156490714Y-100385714D01*
X156526428Y-100242857D01*
X156562142Y-100171428D01*
X156633571Y-100100000D01*
X156740714Y-100064285D01*
X156812142Y-100064285D01*
X156919285Y-100100000D01*
X156955000Y-100135714D01*
X157312142Y-100814285D02*
X157455000Y-100814285D01*
X157526428Y-100778571D01*
X157562142Y-100742857D01*
X157633571Y-100635714D01*
X157669285Y-100492857D01*
X157669285Y-100207142D01*
X157633571Y-100135714D01*
X157597857Y-100100000D01*
X157526428Y-100064285D01*
X157383571Y-100064285D01*
X157312142Y-100100000D01*
X157276428Y-100135714D01*
X157240714Y-100207142D01*
X157240714Y-100385714D01*
X157276428Y-100457142D01*
X157312142Y-100492857D01*
X157383571Y-100528571D01*
X157526428Y-100528571D01*
X157597857Y-100492857D01*
X157633571Y-100457142D01*
X157669285Y-100385714D01*
%TO.C,D4*%
X124991428Y-133839285D02*
X124991428Y-133089285D01*
X125170000Y-133089285D01*
X125277142Y-133125000D01*
X125348571Y-133196428D01*
X125384285Y-133267857D01*
X125420000Y-133410714D01*
X125420000Y-133517857D01*
X125384285Y-133660714D01*
X125348571Y-133732142D01*
X125277142Y-133803571D01*
X125170000Y-133839285D01*
X124991428Y-133839285D01*
X126062857Y-133339285D02*
X126062857Y-133839285D01*
X125884285Y-133053571D02*
X125705714Y-133589285D01*
X126170000Y-133589285D01*
%TO.C,R20*%
X123762857Y-102839285D02*
X123512857Y-102482142D01*
X123334285Y-102839285D02*
X123334285Y-102089285D01*
X123620000Y-102089285D01*
X123691428Y-102125000D01*
X123727142Y-102160714D01*
X123762857Y-102232142D01*
X123762857Y-102339285D01*
X123727142Y-102410714D01*
X123691428Y-102446428D01*
X123620000Y-102482142D01*
X123334285Y-102482142D01*
X124048571Y-102160714D02*
X124084285Y-102125000D01*
X124155714Y-102089285D01*
X124334285Y-102089285D01*
X124405714Y-102125000D01*
X124441428Y-102160714D01*
X124477142Y-102232142D01*
X124477142Y-102303571D01*
X124441428Y-102410714D01*
X124012857Y-102839285D01*
X124477142Y-102839285D01*
X124941428Y-102089285D02*
X125012857Y-102089285D01*
X125084285Y-102125000D01*
X125120000Y-102160714D01*
X125155714Y-102232142D01*
X125191428Y-102375000D01*
X125191428Y-102553571D01*
X125155714Y-102696428D01*
X125120000Y-102767857D01*
X125084285Y-102803571D01*
X125012857Y-102839285D01*
X124941428Y-102839285D01*
X124870000Y-102803571D01*
X124834285Y-102767857D01*
X124798571Y-102696428D01*
X124762857Y-102553571D01*
X124762857Y-102375000D01*
X124798571Y-102232142D01*
X124834285Y-102160714D01*
X124870000Y-102125000D01*
X124941428Y-102089285D01*
%TO.C,TP4*%
X129973571Y-128725000D02*
X129902142Y-128689285D01*
X129795000Y-128689285D01*
X129687857Y-128725000D01*
X129616428Y-128796428D01*
X129580714Y-128867857D01*
X129545000Y-129010714D01*
X129545000Y-129117857D01*
X129580714Y-129260714D01*
X129616428Y-129332142D01*
X129687857Y-129403571D01*
X129795000Y-129439285D01*
X129866428Y-129439285D01*
X129973571Y-129403571D01*
X130009285Y-129367857D01*
X130009285Y-129117857D01*
X129866428Y-129117857D01*
X130330714Y-129439285D02*
X130330714Y-128689285D01*
X130759285Y-129439285D01*
X130759285Y-128689285D01*
X131116428Y-129439285D02*
X131116428Y-128689285D01*
X131295000Y-128689285D01*
X131402142Y-128725000D01*
X131473571Y-128796428D01*
X131509285Y-128867857D01*
X131545000Y-129010714D01*
X131545000Y-129117857D01*
X131509285Y-129260714D01*
X131473571Y-129332142D01*
X131402142Y-129403571D01*
X131295000Y-129439285D01*
X131116428Y-129439285D01*
D12*
%TO.C,R6*%
X142820000Y-84739285D02*
X142570000Y-84382142D01*
X142391428Y-84739285D02*
X142391428Y-83989285D01*
X142677142Y-83989285D01*
X142748571Y-84025000D01*
X142784285Y-84060714D01*
X142820000Y-84132142D01*
X142820000Y-84239285D01*
X142784285Y-84310714D01*
X142748571Y-84346428D01*
X142677142Y-84382142D01*
X142391428Y-84382142D01*
X143462857Y-83989285D02*
X143320000Y-83989285D01*
X143248571Y-84025000D01*
X143212857Y-84060714D01*
X143141428Y-84167857D01*
X143105714Y-84310714D01*
X143105714Y-84596428D01*
X143141428Y-84667857D01*
X143177142Y-84703571D01*
X143248571Y-84739285D01*
X143391428Y-84739285D01*
X143462857Y-84703571D01*
X143498571Y-84667857D01*
X143534285Y-84596428D01*
X143534285Y-84417857D01*
X143498571Y-84346428D01*
X143462857Y-84310714D01*
X143391428Y-84275000D01*
X143248571Y-84275000D01*
X143177142Y-84310714D01*
X143141428Y-84346428D01*
X143105714Y-84417857D01*
D10*
%TO.C,R18*%
X157062857Y-128939285D02*
X156812857Y-128582142D01*
X156634285Y-128939285D02*
X156634285Y-128189285D01*
X156920000Y-128189285D01*
X156991428Y-128225000D01*
X157027142Y-128260714D01*
X157062857Y-128332142D01*
X157062857Y-128439285D01*
X157027142Y-128510714D01*
X156991428Y-128546428D01*
X156920000Y-128582142D01*
X156634285Y-128582142D01*
X157777142Y-128939285D02*
X157348571Y-128939285D01*
X157562857Y-128939285D02*
X157562857Y-128189285D01*
X157491428Y-128296428D01*
X157420000Y-128367857D01*
X157348571Y-128403571D01*
X158205714Y-128510714D02*
X158134285Y-128475000D01*
X158098571Y-128439285D01*
X158062857Y-128367857D01*
X158062857Y-128332142D01*
X158098571Y-128260714D01*
X158134285Y-128225000D01*
X158205714Y-128189285D01*
X158348571Y-128189285D01*
X158420000Y-128225000D01*
X158455714Y-128260714D01*
X158491428Y-128332142D01*
X158491428Y-128367857D01*
X158455714Y-128439285D01*
X158420000Y-128475000D01*
X158348571Y-128510714D01*
X158205714Y-128510714D01*
X158134285Y-128546428D01*
X158098571Y-128582142D01*
X158062857Y-128653571D01*
X158062857Y-128796428D01*
X158098571Y-128867857D01*
X158134285Y-128903571D01*
X158205714Y-128939285D01*
X158348571Y-128939285D01*
X158420000Y-128903571D01*
X158455714Y-128867857D01*
X158491428Y-128796428D01*
X158491428Y-128653571D01*
X158455714Y-128582142D01*
X158420000Y-128546428D01*
X158348571Y-128510714D01*
%TO.C,R4*%
X149299285Y-94825000D02*
X148942142Y-95075000D01*
X149299285Y-95253571D02*
X148549285Y-95253571D01*
X148549285Y-94967857D01*
X148585000Y-94896428D01*
X148620714Y-94860714D01*
X148692142Y-94825000D01*
X148799285Y-94825000D01*
X148870714Y-94860714D01*
X148906428Y-94896428D01*
X148942142Y-94967857D01*
X148942142Y-95253571D01*
X148799285Y-94182142D02*
X149299285Y-94182142D01*
X148513571Y-94360714D02*
X149049285Y-94539285D01*
X149049285Y-94075000D01*
%TO.C,R19*%
X167062857Y-129039285D02*
X166812857Y-128682142D01*
X166634285Y-129039285D02*
X166634285Y-128289285D01*
X166920000Y-128289285D01*
X166991428Y-128325000D01*
X167027142Y-128360714D01*
X167062857Y-128432142D01*
X167062857Y-128539285D01*
X167027142Y-128610714D01*
X166991428Y-128646428D01*
X166920000Y-128682142D01*
X166634285Y-128682142D01*
X167777142Y-129039285D02*
X167348571Y-129039285D01*
X167562857Y-129039285D02*
X167562857Y-128289285D01*
X167491428Y-128396428D01*
X167420000Y-128467857D01*
X167348571Y-128503571D01*
X168134285Y-129039285D02*
X168277142Y-129039285D01*
X168348571Y-129003571D01*
X168384285Y-128967857D01*
X168455714Y-128860714D01*
X168491428Y-128717857D01*
X168491428Y-128432142D01*
X168455714Y-128360714D01*
X168420000Y-128325000D01*
X168348571Y-128289285D01*
X168205714Y-128289285D01*
X168134285Y-128325000D01*
X168098571Y-128360714D01*
X168062857Y-128432142D01*
X168062857Y-128610714D01*
X168098571Y-128682142D01*
X168134285Y-128717857D01*
X168205714Y-128753571D01*
X168348571Y-128753571D01*
X168420000Y-128717857D01*
X168455714Y-128682142D01*
X168491428Y-128610714D01*
%TO.C,R10*%
X147562857Y-121739285D02*
X147312857Y-121382142D01*
X147134285Y-121739285D02*
X147134285Y-120989285D01*
X147420000Y-120989285D01*
X147491428Y-121025000D01*
X147527142Y-121060714D01*
X147562857Y-121132142D01*
X147562857Y-121239285D01*
X147527142Y-121310714D01*
X147491428Y-121346428D01*
X147420000Y-121382142D01*
X147134285Y-121382142D01*
X148277142Y-121739285D02*
X147848571Y-121739285D01*
X148062857Y-121739285D02*
X148062857Y-120989285D01*
X147991428Y-121096428D01*
X147920000Y-121167857D01*
X147848571Y-121203571D01*
X148741428Y-120989285D02*
X148812857Y-120989285D01*
X148884285Y-121025000D01*
X148920000Y-121060714D01*
X148955714Y-121132142D01*
X148991428Y-121275000D01*
X148991428Y-121453571D01*
X148955714Y-121596428D01*
X148920000Y-121667857D01*
X148884285Y-121703571D01*
X148812857Y-121739285D01*
X148741428Y-121739285D01*
X148670000Y-121703571D01*
X148634285Y-121667857D01*
X148598571Y-121596428D01*
X148562857Y-121453571D01*
X148562857Y-121275000D01*
X148598571Y-121132142D01*
X148634285Y-121060714D01*
X148670000Y-121025000D01*
X148741428Y-120989285D01*
%TO.C,TP5*%
X159280714Y-93439285D02*
X158852142Y-93439285D01*
X159066428Y-93439285D02*
X159066428Y-92689285D01*
X158995000Y-92796428D01*
X158923571Y-92867857D01*
X158852142Y-92903571D01*
X159495000Y-92689285D02*
X159745000Y-93439285D01*
X159995000Y-92689285D01*
X160637857Y-93439285D02*
X160209285Y-93439285D01*
X160423571Y-93439285D02*
X160423571Y-92689285D01*
X160352142Y-92796428D01*
X160280714Y-92867857D01*
X160209285Y-92903571D01*
%TO.C,J2*%
X154973571Y-73352380D02*
X154973571Y-74161904D01*
X155021190Y-74257142D01*
X155068809Y-74304761D01*
X155164047Y-74352380D01*
X155354523Y-74352380D01*
X155449761Y-74304761D01*
X155497380Y-74257142D01*
X155545000Y-74161904D01*
X155545000Y-73352380D01*
X155973571Y-74304761D02*
X156116428Y-74352380D01*
X156354523Y-74352380D01*
X156449761Y-74304761D01*
X156497380Y-74257142D01*
X156545000Y-74161904D01*
X156545000Y-74066666D01*
X156497380Y-73971428D01*
X156449761Y-73923809D01*
X156354523Y-73876190D01*
X156164047Y-73828571D01*
X156068809Y-73780952D01*
X156021190Y-73733333D01*
X155973571Y-73638095D01*
X155973571Y-73542857D01*
X156021190Y-73447619D01*
X156068809Y-73400000D01*
X156164047Y-73352380D01*
X156402142Y-73352380D01*
X156545000Y-73400000D01*
X157306904Y-73828571D02*
X157449761Y-73876190D01*
X157497380Y-73923809D01*
X157545000Y-74019047D01*
X157545000Y-74161904D01*
X157497380Y-74257142D01*
X157449761Y-74304761D01*
X157354523Y-74352380D01*
X156973571Y-74352380D01*
X156973571Y-73352380D01*
X157306904Y-73352380D01*
X157402142Y-73400000D01*
X157449761Y-73447619D01*
X157497380Y-73542857D01*
X157497380Y-73638095D01*
X157449761Y-73733333D01*
X157402142Y-73780952D01*
X157306904Y-73828571D01*
X156973571Y-73828571D01*
X159068809Y-73828571D02*
X159211666Y-73876190D01*
X159259285Y-73923809D01*
X159306904Y-74019047D01*
X159306904Y-74161904D01*
X159259285Y-74257142D01*
X159211666Y-74304761D01*
X159116428Y-74352380D01*
X158735476Y-74352380D01*
X158735476Y-73352380D01*
X159068809Y-73352380D01*
X159164047Y-73400000D01*
X159211666Y-73447619D01*
X159259285Y-73542857D01*
X159259285Y-73638095D01*
X159211666Y-73733333D01*
X159164047Y-73780952D01*
X159068809Y-73828571D01*
X158735476Y-73828571D01*
X159925952Y-73352380D02*
X160116428Y-73352380D01*
X160211666Y-73400000D01*
X160306904Y-73495238D01*
X160354523Y-73685714D01*
X160354523Y-74019047D01*
X160306904Y-74209523D01*
X160211666Y-74304761D01*
X160116428Y-74352380D01*
X159925952Y-74352380D01*
X159830714Y-74304761D01*
X159735476Y-74209523D01*
X159687857Y-74019047D01*
X159687857Y-73685714D01*
X159735476Y-73495238D01*
X159830714Y-73400000D01*
X159925952Y-73352380D01*
X160973571Y-73352380D02*
X161164047Y-73352380D01*
X161259285Y-73400000D01*
X161354523Y-73495238D01*
X161402142Y-73685714D01*
X161402142Y-74019047D01*
X161354523Y-74209523D01*
X161259285Y-74304761D01*
X161164047Y-74352380D01*
X160973571Y-74352380D01*
X160878333Y-74304761D01*
X160783095Y-74209523D01*
X160735476Y-74019047D01*
X160735476Y-73685714D01*
X160783095Y-73495238D01*
X160878333Y-73400000D01*
X160973571Y-73352380D01*
X161687857Y-73352380D02*
X162259285Y-73352380D01*
X161973571Y-74352380D02*
X161973571Y-73352380D01*
%TO.C,R2*%
X149920000Y-129439285D02*
X149670000Y-129082142D01*
X149491428Y-129439285D02*
X149491428Y-128689285D01*
X149777142Y-128689285D01*
X149848571Y-128725000D01*
X149884285Y-128760714D01*
X149920000Y-128832142D01*
X149920000Y-128939285D01*
X149884285Y-129010714D01*
X149848571Y-129046428D01*
X149777142Y-129082142D01*
X149491428Y-129082142D01*
X150205714Y-128760714D02*
X150241428Y-128725000D01*
X150312857Y-128689285D01*
X150491428Y-128689285D01*
X150562857Y-128725000D01*
X150598571Y-128760714D01*
X150634285Y-128832142D01*
X150634285Y-128903571D01*
X150598571Y-129010714D01*
X150170000Y-129439285D01*
X150634285Y-129439285D01*
%TO.C,J9*%
X118090000Y-121919285D02*
X118090000Y-122455000D01*
X118125714Y-122562142D01*
X118197142Y-122633571D01*
X118304285Y-122669285D01*
X118375714Y-122669285D01*
X117697142Y-122669285D02*
X117554285Y-122669285D01*
X117482857Y-122633571D01*
X117447142Y-122597857D01*
X117375714Y-122490714D01*
X117340000Y-122347857D01*
X117340000Y-122062142D01*
X117375714Y-121990714D01*
X117411428Y-121955000D01*
X117482857Y-121919285D01*
X117625714Y-121919285D01*
X117697142Y-121955000D01*
X117732857Y-121990714D01*
X117768571Y-122062142D01*
X117768571Y-122240714D01*
X117732857Y-122312142D01*
X117697142Y-122347857D01*
X117625714Y-122383571D01*
X117482857Y-122383571D01*
X117411428Y-122347857D01*
X117375714Y-122312142D01*
X117340000Y-122240714D01*
D11*
%TO.C,C1*%
X139970580Y-100890000D02*
X139689420Y-100890000D01*
X139970580Y-101910000D02*
X139689420Y-101910000D01*
%TO.C,C2*%
X153704420Y-108065000D02*
X153985580Y-108065000D01*
X153704420Y-107045000D02*
X153985580Y-107045000D01*
%TO.C,C3*%
X153704420Y-101690000D02*
X153985580Y-101690000D01*
X153704420Y-102710000D02*
X153985580Y-102710000D01*
%TO.C,C4*%
X146735000Y-97295580D02*
X146735000Y-97014420D01*
X147755000Y-97295580D02*
X147755000Y-97014420D01*
%TO.C,C5*%
X147540000Y-113614420D02*
X147540000Y-113895580D01*
X146520000Y-113614420D02*
X146520000Y-113895580D01*
%TO.C,C6*%
X139370580Y-107065000D02*
X139089420Y-107065000D01*
X139370580Y-106045000D02*
X139089420Y-106045000D01*
%TO.C,C7*%
X153704420Y-104410000D02*
X153985580Y-104410000D01*
X153704420Y-103390000D02*
X153985580Y-103390000D01*
%TO.C,C8*%
X139965580Y-102835000D02*
X139684420Y-102835000D01*
X139965580Y-103855000D02*
X139684420Y-103855000D01*
%TO.C,C11*%
X144840580Y-128190000D02*
X144559420Y-128190000D01*
X144840580Y-129210000D02*
X144559420Y-129210000D01*
%TO.C,C10*%
X149620000Y-113614420D02*
X149620000Y-113895580D01*
X150640000Y-113614420D02*
X150640000Y-113895580D01*
%TO.C,C12*%
X145035000Y-97295580D02*
X145035000Y-97014420D01*
X146055000Y-97295580D02*
X146055000Y-97014420D01*
%TO.C,C13*%
X153689420Y-98565000D02*
X153970580Y-98565000D01*
X153689420Y-97545000D02*
X153970580Y-97545000D01*
%TO.C,C14*%
X165910000Y-124115580D02*
X165910000Y-123834420D01*
X164890000Y-124115580D02*
X164890000Y-123834420D01*
%TO.C,C15*%
X125835000Y-111659420D02*
X125835000Y-111940580D01*
X126855000Y-111659420D02*
X126855000Y-111940580D01*
%TO.C,C16*%
X149335000Y-88184420D02*
X149335000Y-88465580D01*
X150355000Y-88184420D02*
X150355000Y-88465580D01*
%TO.C,C17*%
X126855000Y-108040580D02*
X126855000Y-107759420D01*
X125835000Y-108040580D02*
X125835000Y-107759420D01*
%TO.C,C18*%
X169004420Y-114710000D02*
X169285580Y-114710000D01*
X169004420Y-113690000D02*
X169285580Y-113690000D01*
%TO.C,C20*%
X121135000Y-73559420D02*
X121135000Y-73840580D01*
X122155000Y-73559420D02*
X122155000Y-73840580D01*
%TO.C,C21*%
X139105000Y-113840580D02*
X139105000Y-113559420D01*
X138085000Y-113840580D02*
X138085000Y-113559420D01*
%TO.C,C22*%
X145105000Y-113840580D02*
X145105000Y-113559420D01*
X144085000Y-113840580D02*
X144085000Y-113559420D01*
%TO.C,C23*%
X140755000Y-81159420D02*
X140755000Y-81440580D01*
X139735000Y-81159420D02*
X139735000Y-81440580D01*
%TO.C,C24*%
X146155000Y-81159420D02*
X146155000Y-81440580D01*
X145135000Y-81159420D02*
X145135000Y-81440580D01*
%TO.C,D1*%
X135330000Y-125405000D02*
X132780000Y-125405000D01*
X135330000Y-125405000D02*
X135330000Y-123705000D01*
X135330000Y-123705000D02*
X132780000Y-123705000D01*
%TO.C,D2*%
X140210000Y-130500000D02*
X140210000Y-132785000D01*
X141680000Y-132785000D02*
X141680000Y-130500000D01*
X140210000Y-132785000D02*
X141680000Y-132785000D01*
%TO.C,D3*%
X155295000Y-125400000D02*
X155295000Y-122850000D01*
X156995000Y-125400000D02*
X156995000Y-122850000D01*
X155295000Y-125400000D02*
X156995000Y-125400000D01*
%TO.C,J5*%
X170995000Y-132710000D02*
X170995000Y-133040000D01*
X171755000Y-132710000D02*
X171755000Y-133040000D01*
X165915000Y-141700000D02*
X165915000Y-135700000D01*
X166675000Y-135700000D02*
X166675000Y-141700000D01*
X171215000Y-135700000D02*
X171215000Y-141700000D01*
X171455000Y-135700000D02*
X171455000Y-141700000D01*
X164965000Y-135700000D02*
X172705000Y-135700000D01*
X171695000Y-135700000D02*
X171695000Y-141700000D01*
X166675000Y-141700000D02*
X165915000Y-141700000D01*
X171095000Y-135700000D02*
X171095000Y-141700000D01*
X166675000Y-132642929D02*
X166675000Y-133040000D01*
X170995000Y-141700000D02*
X170995000Y-135700000D01*
X168455000Y-132642929D02*
X168455000Y-133040000D01*
X171575000Y-135700000D02*
X171575000Y-141700000D01*
X165915000Y-132642929D02*
X165915000Y-133040000D01*
X168455000Y-141700000D02*
X168455000Y-135700000D01*
X171335000Y-135700000D02*
X171335000Y-141700000D01*
X169215000Y-135700000D02*
X169215000Y-141700000D01*
X170105000Y-133040000D02*
X170105000Y-135700000D01*
X172705000Y-133040000D02*
X164965000Y-133040000D01*
X171755000Y-135700000D02*
X171755000Y-141700000D01*
X169215000Y-132642929D02*
X169215000Y-133040000D01*
X171375000Y-130330000D02*
X172645000Y-130330000D01*
X172645000Y-130330000D02*
X172645000Y-131600000D01*
X164965000Y-133040000D02*
X164965000Y-135700000D01*
X169215000Y-141700000D02*
X168455000Y-141700000D01*
X172705000Y-135700000D02*
X172705000Y-133040000D01*
X167565000Y-133040000D02*
X167565000Y-135700000D01*
X171755000Y-141700000D02*
X170995000Y-141700000D01*
%TO.C,J3*%
X154285000Y-132642929D02*
X154285000Y-133040000D01*
X154285000Y-135700000D02*
X154285000Y-141700000D01*
X161365000Y-135700000D02*
X161365000Y-141700000D01*
X161905000Y-135700000D02*
X161905000Y-141700000D01*
X159365000Y-135700000D02*
X159365000Y-141700000D01*
X156825000Y-135700000D02*
X156825000Y-141700000D01*
X161905000Y-132710000D02*
X161905000Y-133040000D01*
X155175000Y-133040000D02*
X155175000Y-135700000D01*
X161245000Y-135700000D02*
X161245000Y-141700000D01*
X160255000Y-133040000D02*
X160255000Y-135700000D01*
X159365000Y-141700000D02*
X158605000Y-141700000D01*
X152575000Y-135700000D02*
X162855000Y-135700000D01*
X161905000Y-141700000D02*
X161145000Y-141700000D01*
X156065000Y-141700000D02*
X156065000Y-135700000D01*
X159365000Y-132642929D02*
X159365000Y-133040000D01*
X161145000Y-132710000D02*
X161145000Y-133040000D01*
X153525000Y-132642929D02*
X153525000Y-133040000D01*
X154285000Y-141700000D02*
X153525000Y-141700000D01*
X157715000Y-133040000D02*
X157715000Y-135700000D01*
X162855000Y-133040000D02*
X152575000Y-133040000D01*
X156825000Y-132642929D02*
X156825000Y-133040000D01*
X158605000Y-132642929D02*
X158605000Y-133040000D01*
X153525000Y-141700000D02*
X153525000Y-135700000D01*
X158605000Y-141700000D02*
X158605000Y-135700000D01*
X161845000Y-135700000D02*
X161845000Y-141700000D01*
X161605000Y-135700000D02*
X161605000Y-141700000D01*
X162795000Y-130330000D02*
X162795000Y-131600000D01*
X156825000Y-141700000D02*
X156065000Y-141700000D01*
X161725000Y-135700000D02*
X161725000Y-141700000D01*
X162855000Y-135700000D02*
X162855000Y-133040000D01*
X152575000Y-133040000D02*
X152575000Y-135700000D01*
X161525000Y-130330000D02*
X162795000Y-130330000D01*
X161145000Y-141700000D02*
X161145000Y-135700000D01*
X161485000Y-135700000D02*
X161485000Y-141700000D01*
X156065000Y-132642929D02*
X156065000Y-133040000D01*
%TO.C,J7*%
X161070000Y-117945000D02*
X161070000Y-111475000D01*
X162710000Y-116543471D02*
X162710000Y-116686529D01*
X162710000Y-117813471D02*
X162710000Y-117945000D01*
X163162470Y-111475000D02*
X162507530Y-111475000D01*
X164600000Y-116490000D02*
X164600000Y-111475000D01*
X162710000Y-117945000D02*
X162507530Y-117945000D01*
X164600000Y-118010000D02*
X163470000Y-118010000D01*
X162906529Y-116490000D02*
X162763471Y-116490000D01*
X161892470Y-111475000D02*
X161070000Y-111475000D01*
X164600000Y-117250000D02*
X164600000Y-118010000D01*
X161892470Y-117945000D02*
X161070000Y-117945000D01*
X164600000Y-111475000D02*
X163777530Y-111475000D01*
X164600000Y-116490000D02*
X164033471Y-116490000D01*
%TO.C,L1*%
X142782221Y-81010000D02*
X143107779Y-81010000D01*
X142782221Y-79990000D02*
X143107779Y-79990000D01*
%TO.C,Q1*%
X152045000Y-126560000D02*
X151395000Y-126560000D01*
X152045000Y-126560000D02*
X153720000Y-126560000D01*
X152045000Y-123440000D02*
X151395000Y-123440000D01*
X152045000Y-123440000D02*
X152695000Y-123440000D01*
%TO.C,Q2*%
X166505000Y-95800000D02*
X166505000Y-95150000D01*
X163385000Y-95800000D02*
X163385000Y-95150000D01*
X163385000Y-95800000D02*
X163385000Y-97475000D01*
X166505000Y-95800000D02*
X166505000Y-96450000D01*
%TO.C,R1*%
X141467500Y-123362742D02*
X141467500Y-123837258D01*
X140422500Y-123362742D02*
X140422500Y-123837258D01*
%TO.C,R7*%
X138182258Y-85177500D02*
X137707742Y-85177500D01*
X138182258Y-86222500D02*
X137707742Y-86222500D01*
%TO.C,R8*%
X165007742Y-76977500D02*
X165482258Y-76977500D01*
X165007742Y-78022500D02*
X165482258Y-78022500D01*
%TO.C,R9*%
X152282258Y-120777500D02*
X151807742Y-120777500D01*
X152282258Y-121822500D02*
X151807742Y-121822500D01*
%TO.C,R11*%
X133857742Y-108722500D02*
X134332258Y-108722500D01*
X133857742Y-107677500D02*
X134332258Y-107677500D01*
%TO.C,R12*%
X133857742Y-111177500D02*
X134332258Y-111177500D01*
X133857742Y-112222500D02*
X134332258Y-112222500D01*
%TO.C,R13*%
X128267500Y-87662742D02*
X128267500Y-88137258D01*
X127222500Y-87662742D02*
X127222500Y-88137258D01*
%TO.C,R14*%
X172367258Y-104677500D02*
X171892742Y-104677500D01*
X172367258Y-103632500D02*
X171892742Y-103632500D01*
%TO.C,R15*%
X128922500Y-88462742D02*
X128922500Y-88937258D01*
X129967500Y-88462742D02*
X129967500Y-88937258D01*
%TO.C,R16*%
X172367258Y-107277500D02*
X171892742Y-107277500D01*
X172367258Y-106232500D02*
X171892742Y-106232500D01*
%TO.C,R17*%
X122282258Y-85177500D02*
X121807742Y-85177500D01*
X122282258Y-86222500D02*
X121807742Y-86222500D01*
%TO.C,SW1*%
X168115000Y-70270000D02*
X168145000Y-70270000D01*
X174575000Y-70270000D02*
X174545000Y-70270000D01*
X174575000Y-76730000D02*
X174575000Y-70270000D01*
X174575000Y-76730000D02*
X174545000Y-76730000D01*
X168145000Y-76730000D02*
X168115000Y-76730000D01*
X170045000Y-70270000D02*
X172645000Y-70270000D01*
X168115000Y-76730000D02*
X168115000Y-70270000D01*
X170045000Y-76730000D02*
X172645000Y-76730000D01*
%TO.C,SW2*%
X174060000Y-99830000D02*
X174030000Y-99830000D01*
X172130000Y-93370000D02*
X169530000Y-93370000D01*
X172130000Y-99830000D02*
X169530000Y-99830000D01*
X167600000Y-93370000D02*
X167630000Y-93370000D01*
X174030000Y-93370000D02*
X174060000Y-93370000D01*
X167600000Y-99830000D02*
X167630000Y-99830000D01*
X174060000Y-93370000D02*
X174060000Y-99830000D01*
X167600000Y-93370000D02*
X167600000Y-99830000D01*
%TO.C,SW3*%
X120215000Y-89270000D02*
X120245000Y-89270000D01*
X126645000Y-89270000D02*
X126675000Y-89270000D01*
X126675000Y-95730000D02*
X126645000Y-95730000D01*
X120215000Y-89270000D02*
X120215000Y-95730000D01*
X124745000Y-95730000D02*
X122145000Y-95730000D01*
X126675000Y-89270000D02*
X126675000Y-95730000D01*
X120215000Y-95730000D02*
X120245000Y-95730000D01*
X124745000Y-89270000D02*
X122145000Y-89270000D01*
D13*
%TO.C,U1*%
X142455000Y-103455000D02*
G75*
G03*
X142455000Y-103455000I-100000J0D01*
G01*
D14*
X150330000Y-102555000D02*
X150330000Y-103035000D01*
X150330000Y-109555000D02*
X150330000Y-109075000D01*
X150330000Y-109555000D02*
X149850000Y-109555000D01*
X143330000Y-102555000D02*
X143810000Y-102555000D01*
X150330000Y-102555000D02*
X149850000Y-102555000D01*
X143330000Y-109555000D02*
X143810000Y-109555000D01*
X143330000Y-109555000D02*
X143330000Y-109075000D01*
X143330000Y-102555000D02*
X143330000Y-103035000D01*
D11*
%TO.C,U2*%
X143140000Y-125100000D02*
X143140000Y-126900000D01*
X146260000Y-125100000D02*
X146260000Y-125900000D01*
X146260000Y-125100000D02*
X146260000Y-124300000D01*
X143140000Y-125100000D02*
X143140000Y-124300000D01*
%TO.C,U3*%
X142345000Y-87575000D02*
X145070000Y-87575000D01*
X145070000Y-87575000D02*
X145070000Y-87835000D01*
X142345000Y-93025000D02*
X145070000Y-93025000D01*
X142345000Y-93025000D02*
X139620000Y-93025000D01*
X145070000Y-93025000D02*
X145070000Y-92765000D01*
X139620000Y-87575000D02*
X139620000Y-87835000D01*
X139620000Y-87835000D02*
X137945000Y-87835000D01*
X139620000Y-93025000D02*
X139620000Y-92765000D01*
X142345000Y-87575000D02*
X139620000Y-87575000D01*
D15*
%TO.C,U4*%
X128295000Y-111225000D02*
X128445000Y-111225000D01*
X128285000Y-108525000D02*
X128285000Y-108675000D01*
X130995000Y-111075000D02*
X130995000Y-111225000D01*
X128295000Y-111225000D02*
X128295000Y-111075000D01*
X130995000Y-111225000D02*
X130845000Y-111225000D01*
X128295000Y-108525000D02*
X128445000Y-108525000D01*
X130845000Y-108525000D02*
X131095000Y-108525000D01*
D10*
%TO.C,U6*%
X124345000Y-82700000D02*
X124345000Y-70700000D01*
X136345000Y-70700000D02*
X136345000Y-82700000D01*
X124345000Y-70700000D02*
X136345000Y-70700000D01*
X136345000Y-82700000D02*
X124345000Y-82700000D01*
X123727353Y-71540000D02*
G75*
G03*
X123727353Y-71540000I-362353J0D01*
G01*
D11*
%TO.C,U7*%
X166670000Y-105255000D02*
X166670000Y-107055000D01*
X166670000Y-105255000D02*
X166670000Y-104455000D01*
X169790000Y-105255000D02*
X169790000Y-106055000D01*
X169790000Y-105255000D02*
X169790000Y-104455000D01*
%TO.C,Y1*%
X140245000Y-113700000D02*
X140245000Y-114840000D01*
%TO.C,J8*%
X147330000Y-74265000D02*
X147080000Y-74765000D01*
X147080000Y-74765000D02*
X147580000Y-74765000D01*
X147580000Y-74765000D02*
X147330000Y-74265000D01*
%TO.C,JP1*%
X143130000Y-119355000D02*
G75*
G03*
X143830000Y-118655000I1J699999D01*
G01*
X141030000Y-118655000D02*
G75*
G03*
X141730000Y-119355000I699999J-1D01*
G01*
X141730000Y-117355000D02*
G75*
G03*
X141030000Y-118055000I-1J-699999D01*
G01*
X143830000Y-118055000D02*
G75*
G03*
X143130000Y-117355000I-699999J1D01*
G01*
X141730000Y-117355000D02*
X143130000Y-117355000D01*
X143130000Y-119355000D02*
X141730000Y-119355000D01*
X141030000Y-118655000D02*
X141030000Y-118055000D01*
X143830000Y-118055000D02*
X143830000Y-118655000D01*
%TO.C,TP3*%
X136645000Y-131500000D02*
G75*
G03*
X136645000Y-131500000I-1500000J0D01*
G01*
%TO.C,TP1*%
X149030000Y-118355000D02*
G75*
G03*
X149030000Y-118355000I-1500000J0D01*
G01*
%TO.C,TP6*%
X133645000Y-97700000D02*
G75*
G03*
X133645000Y-97700000I-1500000J0D01*
G01*
%TO.C,TP7*%
X133645000Y-103600000D02*
G75*
G03*
X133645000Y-103600000I-1500000J0D01*
G01*
%TO.C,C19*%
X144785580Y-121465000D02*
X144504420Y-121465000D01*
X144785580Y-122485000D02*
X144504420Y-122485000D01*
%TO.C,R22*%
X121822500Y-131537258D02*
X121822500Y-131062742D01*
X122867500Y-131537258D02*
X122867500Y-131062742D01*
%TO.C,R21*%
X168907742Y-116577500D02*
X169382258Y-116577500D01*
X168907742Y-117622500D02*
X169382258Y-117622500D01*
%TO.C,TP8*%
X162345000Y-125000000D02*
G75*
G03*
X162345000Y-125000000I-1500000J0D01*
G01*
%TO.C,TP2*%
X161245000Y-102100000D02*
G75*
G03*
X161245000Y-102100000I-1500000J0D01*
G01*
%TO.C,J6*%
X171315000Y-82570000D02*
X171315000Y-90250000D01*
X171315000Y-82570000D02*
X173975000Y-82570000D01*
X171315000Y-81300000D02*
X171315000Y-79970000D01*
X173975000Y-82570000D02*
X173975000Y-90250000D01*
X171315000Y-79970000D02*
X172645000Y-79970000D01*
X171315000Y-90250000D02*
X173975000Y-90250000D01*
%TO.C,R5*%
X138222500Y-131537258D02*
X138222500Y-131062742D01*
X139267500Y-131537258D02*
X139267500Y-131062742D01*
%TO.C,R3*%
X150122500Y-97392258D02*
X150122500Y-96917742D01*
X151167500Y-97392258D02*
X151167500Y-96917742D01*
%TO.C,U5*%
X171885000Y-121025000D02*
X171885000Y-120225000D01*
X168765000Y-121025000D02*
X168765000Y-120225000D01*
X168765000Y-121025000D02*
X168765000Y-122825000D01*
X171885000Y-121025000D02*
X171885000Y-121825000D01*
%TO.C,C9*%
X153985580Y-99990000D02*
X153704420Y-99990000D01*
X153985580Y-101010000D02*
X153704420Y-101010000D01*
%TO.C,D4*%
X124810000Y-132785000D02*
X126280000Y-132785000D01*
X126280000Y-132785000D02*
X126280000Y-130500000D01*
X124810000Y-130500000D02*
X124810000Y-132785000D01*
%TO.C,R20*%
X121722500Y-103037258D02*
X121722500Y-102562742D01*
X122767500Y-103037258D02*
X122767500Y-102562742D01*
%TO.C,TP4*%
X132045000Y-131500000D02*
G75*
G03*
X132045000Y-131500000I-1500000J0D01*
G01*
%TO.C,R6*%
X141832742Y-85177500D02*
X142307258Y-85177500D01*
X141832742Y-86222500D02*
X142307258Y-86222500D01*
%TO.C,R18*%
X160482742Y-128077500D02*
X160957258Y-128077500D01*
X160482742Y-129122500D02*
X160957258Y-129122500D01*
%TO.C,R4*%
X149467500Y-97392258D02*
X149467500Y-96917742D01*
X148422500Y-97392258D02*
X148422500Y-96917742D01*
%TO.C,R19*%
X170282742Y-129122500D02*
X170757258Y-129122500D01*
X170282742Y-128077500D02*
X170757258Y-128077500D01*
%TO.C,R10*%
X148567500Y-123162742D02*
X148567500Y-123637258D01*
X147522500Y-123162742D02*
X147522500Y-123637258D01*
%TO.C,TP5*%
X161245000Y-95900000D02*
G75*
G03*
X161245000Y-95900000I-1500000J0D01*
G01*
%TO.C,J2*%
X158515000Y-72130000D02*
X158515000Y-69470000D01*
X155915000Y-70800000D02*
X155915000Y-69470000D01*
X158515000Y-69470000D02*
X161115000Y-69470000D01*
X155915000Y-69470000D02*
X157245000Y-69470000D01*
X161115000Y-72130000D02*
X161115000Y-69470000D01*
X158515000Y-72130000D02*
X161115000Y-72130000D01*
%TO.C,R2*%
X147622500Y-128037258D02*
X147622500Y-127562742D01*
X148667500Y-128037258D02*
X148667500Y-127562742D01*
%TD*%
M02*
