%TF.GenerationSoftware,KiCad,Pcbnew,(6.0.2)*%
%TF.CreationDate,2022-02-14T15:02:21-08:00*%
%TF.ProjectId,RP2040_WEDS,52503230-3430-45f5-9745-44532e6b6963,rev?*%
%TF.SameCoordinates,Original*%
%TF.FileFunction,Legend,Top*%
%TF.FilePolarity,Positive*%
%FSLAX46Y46*%
G04 Gerber Fmt 4.6, Leading zero omitted, Abs format (unit mm)*
G04 Created by KiCad (PCBNEW (6.0.2)) date 2022-02-14 15:02:21*
%MOMM*%
%LPD*%
G01*
G04 APERTURE LIST*
%ADD10C,0.125000*%
%ADD11C,0.120000*%
%ADD12C,0.100000*%
%ADD13C,0.127000*%
%ADD14C,0.200000*%
%ADD15C,0.150000*%
G04 APERTURE END LIST*
D10*
%TO.C,VDD*%
X155433333Y-74926190D02*
X155600000Y-75426190D01*
X155766666Y-74926190D01*
X155933333Y-75426190D02*
X155933333Y-74926190D01*
X156052380Y-74926190D01*
X156123809Y-74950000D01*
X156171428Y-74997619D01*
X156195238Y-75045238D01*
X156219047Y-75140476D01*
X156219047Y-75211904D01*
X156195238Y-75307142D01*
X156171428Y-75354761D01*
X156123809Y-75402380D01*
X156052380Y-75426190D01*
X155933333Y-75426190D01*
X156433333Y-75426190D02*
X156433333Y-74926190D01*
X156552380Y-74926190D01*
X156623809Y-74950000D01*
X156671428Y-74997619D01*
X156695238Y-75045238D01*
X156719047Y-75140476D01*
X156719047Y-75211904D01*
X156695238Y-75307142D01*
X156671428Y-75354761D01*
X156623809Y-75402380D01*
X156552380Y-75426190D01*
X156433333Y-75426190D01*
%TO.C,USB*%
X202169047Y-60026190D02*
X202169047Y-60430952D01*
X202192857Y-60478571D01*
X202216666Y-60502380D01*
X202264285Y-60526190D01*
X202359523Y-60526190D01*
X202407142Y-60502380D01*
X202430952Y-60478571D01*
X202454761Y-60430952D01*
X202454761Y-60026190D01*
X202669047Y-60502380D02*
X202740476Y-60526190D01*
X202859523Y-60526190D01*
X202907142Y-60502380D01*
X202930952Y-60478571D01*
X202954761Y-60430952D01*
X202954761Y-60383333D01*
X202930952Y-60335714D01*
X202907142Y-60311904D01*
X202859523Y-60288095D01*
X202764285Y-60264285D01*
X202716666Y-60240476D01*
X202692857Y-60216666D01*
X202669047Y-60169047D01*
X202669047Y-60121428D01*
X202692857Y-60073809D01*
X202716666Y-60050000D01*
X202764285Y-60026190D01*
X202883333Y-60026190D01*
X202954761Y-60050000D01*
X203335714Y-60264285D02*
X203407142Y-60288095D01*
X203430952Y-60311904D01*
X203454761Y-60359523D01*
X203454761Y-60430952D01*
X203430952Y-60478571D01*
X203407142Y-60502380D01*
X203359523Y-60526190D01*
X203169047Y-60526190D01*
X203169047Y-60026190D01*
X203335714Y-60026190D01*
X203383333Y-60050000D01*
X203407142Y-60073809D01*
X203430952Y-60121428D01*
X203430952Y-60169047D01*
X203407142Y-60216666D01*
X203383333Y-60240476D01*
X203335714Y-60264285D01*
X203169047Y-60264285D01*
%TO.C,R16*%
X178178571Y-65626190D02*
X178011904Y-65388095D01*
X177892857Y-65626190D02*
X177892857Y-65126190D01*
X178083333Y-65126190D01*
X178130952Y-65150000D01*
X178154761Y-65173809D01*
X178178571Y-65221428D01*
X178178571Y-65292857D01*
X178154761Y-65340476D01*
X178130952Y-65364285D01*
X178083333Y-65388095D01*
X177892857Y-65388095D01*
X178654761Y-65626190D02*
X178369047Y-65626190D01*
X178511904Y-65626190D02*
X178511904Y-65126190D01*
X178464285Y-65197619D01*
X178416666Y-65245238D01*
X178369047Y-65269047D01*
X179083333Y-65126190D02*
X178988095Y-65126190D01*
X178940476Y-65150000D01*
X178916666Y-65173809D01*
X178869047Y-65245238D01*
X178845238Y-65340476D01*
X178845238Y-65530952D01*
X178869047Y-65578571D01*
X178892857Y-65602380D01*
X178940476Y-65626190D01*
X179035714Y-65626190D01*
X179083333Y-65602380D01*
X179107142Y-65578571D01*
X179130952Y-65530952D01*
X179130952Y-65411904D01*
X179107142Y-65364285D01*
X179083333Y-65340476D01*
X179035714Y-65316666D01*
X178940476Y-65316666D01*
X178892857Y-65340476D01*
X178869047Y-65364285D01*
X178845238Y-65411904D01*
%TO.C,R15*%
X180278571Y-65626190D02*
X180111904Y-65388095D01*
X179992857Y-65626190D02*
X179992857Y-65126190D01*
X180183333Y-65126190D01*
X180230952Y-65150000D01*
X180254761Y-65173809D01*
X180278571Y-65221428D01*
X180278571Y-65292857D01*
X180254761Y-65340476D01*
X180230952Y-65364285D01*
X180183333Y-65388095D01*
X179992857Y-65388095D01*
X180754761Y-65626190D02*
X180469047Y-65626190D01*
X180611904Y-65626190D02*
X180611904Y-65126190D01*
X180564285Y-65197619D01*
X180516666Y-65245238D01*
X180469047Y-65269047D01*
X181207142Y-65126190D02*
X180969047Y-65126190D01*
X180945238Y-65364285D01*
X180969047Y-65340476D01*
X181016666Y-65316666D01*
X181135714Y-65316666D01*
X181183333Y-65340476D01*
X181207142Y-65364285D01*
X181230952Y-65411904D01*
X181230952Y-65530952D01*
X181207142Y-65578571D01*
X181183333Y-65602380D01*
X181135714Y-65626190D01*
X181016666Y-65626190D01*
X180969047Y-65602380D01*
X180945238Y-65578571D01*
%TO.C,JP2*%
X173926190Y-93466666D02*
X174283333Y-93466666D01*
X174354761Y-93490476D01*
X174402380Y-93538095D01*
X174426190Y-93609523D01*
X174426190Y-93657142D01*
X174426190Y-93228571D02*
X173926190Y-93228571D01*
X173926190Y-93038095D01*
X173950000Y-92990476D01*
X173973809Y-92966666D01*
X174021428Y-92942857D01*
X174092857Y-92942857D01*
X174140476Y-92966666D01*
X174164285Y-92990476D01*
X174188095Y-93038095D01*
X174188095Y-93228571D01*
X173973809Y-92752380D02*
X173950000Y-92728571D01*
X173926190Y-92680952D01*
X173926190Y-92561904D01*
X173950000Y-92514285D01*
X173973809Y-92490476D01*
X174021428Y-92466666D01*
X174069047Y-92466666D01*
X174140476Y-92490476D01*
X174426190Y-92776190D01*
X174426190Y-92466666D01*
%TO.C,C24*%
X166778571Y-72578571D02*
X166754761Y-72602380D01*
X166683333Y-72626190D01*
X166635714Y-72626190D01*
X166564285Y-72602380D01*
X166516666Y-72554761D01*
X166492857Y-72507142D01*
X166469047Y-72411904D01*
X166469047Y-72340476D01*
X166492857Y-72245238D01*
X166516666Y-72197619D01*
X166564285Y-72150000D01*
X166635714Y-72126190D01*
X166683333Y-72126190D01*
X166754761Y-72150000D01*
X166778571Y-72173809D01*
X166969047Y-72173809D02*
X166992857Y-72150000D01*
X167040476Y-72126190D01*
X167159523Y-72126190D01*
X167207142Y-72150000D01*
X167230952Y-72173809D01*
X167254761Y-72221428D01*
X167254761Y-72269047D01*
X167230952Y-72340476D01*
X166945238Y-72626190D01*
X167254761Y-72626190D01*
X167683333Y-72292857D02*
X167683333Y-72626190D01*
X167564285Y-72102380D02*
X167445238Y-72459523D01*
X167754761Y-72459523D01*
%TO.C,RX*%
X163316666Y-74426190D02*
X163150000Y-74188095D01*
X163030952Y-74426190D02*
X163030952Y-73926190D01*
X163221428Y-73926190D01*
X163269047Y-73950000D01*
X163292857Y-73973809D01*
X163316666Y-74021428D01*
X163316666Y-74092857D01*
X163292857Y-74140476D01*
X163269047Y-74164285D01*
X163221428Y-74188095D01*
X163030952Y-74188095D01*
X163483333Y-73926190D02*
X163816666Y-74426190D01*
X163816666Y-73926190D02*
X163483333Y-74426190D01*
%TO.C,TX*%
X162819047Y-64426190D02*
X163104761Y-64426190D01*
X162961904Y-64926190D02*
X162961904Y-64426190D01*
X163223809Y-64426190D02*
X163557142Y-64926190D01*
X163557142Y-64426190D02*
X163223809Y-64926190D01*
%TO.C,SOIL*%
X193573809Y-95302380D02*
X193645238Y-95326190D01*
X193764285Y-95326190D01*
X193811904Y-95302380D01*
X193835714Y-95278571D01*
X193859523Y-95230952D01*
X193859523Y-95183333D01*
X193835714Y-95135714D01*
X193811904Y-95111904D01*
X193764285Y-95088095D01*
X193669047Y-95064285D01*
X193621428Y-95040476D01*
X193597619Y-95016666D01*
X193573809Y-94969047D01*
X193573809Y-94921428D01*
X193597619Y-94873809D01*
X193621428Y-94850000D01*
X193669047Y-94826190D01*
X193788095Y-94826190D01*
X193859523Y-94850000D01*
X194169047Y-94826190D02*
X194264285Y-94826190D01*
X194311904Y-94850000D01*
X194359523Y-94897619D01*
X194383333Y-94992857D01*
X194383333Y-95159523D01*
X194359523Y-95254761D01*
X194311904Y-95302380D01*
X194264285Y-95326190D01*
X194169047Y-95326190D01*
X194121428Y-95302380D01*
X194073809Y-95254761D01*
X194050000Y-95159523D01*
X194050000Y-94992857D01*
X194073809Y-94897619D01*
X194121428Y-94850000D01*
X194169047Y-94826190D01*
X194597619Y-95326190D02*
X194597619Y-94826190D01*
X195073809Y-95326190D02*
X194835714Y-95326190D01*
X194835714Y-94826190D01*
%TO.C,3V3*%
X176480952Y-88926190D02*
X176790476Y-88926190D01*
X176623809Y-89116666D01*
X176695238Y-89116666D01*
X176742857Y-89140476D01*
X176766666Y-89164285D01*
X176790476Y-89211904D01*
X176790476Y-89330952D01*
X176766666Y-89378571D01*
X176742857Y-89402380D01*
X176695238Y-89426190D01*
X176552380Y-89426190D01*
X176504761Y-89402380D01*
X176480952Y-89378571D01*
X176933333Y-88926190D02*
X177100000Y-89426190D01*
X177266666Y-88926190D01*
X177385714Y-88926190D02*
X177695238Y-88926190D01*
X177528571Y-89116666D01*
X177600000Y-89116666D01*
X177647619Y-89140476D01*
X177671428Y-89164285D01*
X177695238Y-89211904D01*
X177695238Y-89330952D01*
X177671428Y-89378571D01*
X177647619Y-89402380D01*
X177600000Y-89426190D01*
X177457142Y-89426190D01*
X177409523Y-89402380D01*
X177385714Y-89378571D01*
%TO.C,BATT*%
X179040476Y-93864285D02*
X179111904Y-93888095D01*
X179135714Y-93911904D01*
X179159523Y-93959523D01*
X179159523Y-94030952D01*
X179135714Y-94078571D01*
X179111904Y-94102380D01*
X179064285Y-94126190D01*
X178873809Y-94126190D01*
X178873809Y-93626190D01*
X179040476Y-93626190D01*
X179088095Y-93650000D01*
X179111904Y-93673809D01*
X179135714Y-93721428D01*
X179135714Y-93769047D01*
X179111904Y-93816666D01*
X179088095Y-93840476D01*
X179040476Y-93864285D01*
X178873809Y-93864285D01*
X179350000Y-93983333D02*
X179588095Y-93983333D01*
X179302380Y-94126190D02*
X179469047Y-93626190D01*
X179635714Y-94126190D01*
X179730952Y-93626190D02*
X180016666Y-93626190D01*
X179873809Y-94126190D02*
X179873809Y-93626190D01*
X180111904Y-93626190D02*
X180397619Y-93626190D01*
X180254761Y-94126190D02*
X180254761Y-93626190D01*
%TO.C,VDC*%
X163233333Y-92126190D02*
X163400000Y-92626190D01*
X163566666Y-92126190D01*
X163733333Y-92626190D02*
X163733333Y-92126190D01*
X163852380Y-92126190D01*
X163923809Y-92150000D01*
X163971428Y-92197619D01*
X163995238Y-92245238D01*
X164019047Y-92340476D01*
X164019047Y-92411904D01*
X163995238Y-92507142D01*
X163971428Y-92554761D01*
X163923809Y-92602380D01*
X163852380Y-92626190D01*
X163733333Y-92626190D01*
X164519047Y-92578571D02*
X164495238Y-92602380D01*
X164423809Y-92626190D01*
X164376190Y-92626190D01*
X164304761Y-92602380D01*
X164257142Y-92554761D01*
X164233333Y-92507142D01*
X164209523Y-92411904D01*
X164209523Y-92340476D01*
X164233333Y-92245238D01*
X164257142Y-92197619D01*
X164304761Y-92150000D01*
X164376190Y-92126190D01*
X164423809Y-92126190D01*
X164495238Y-92150000D01*
X164519047Y-92173809D01*
%TO.C,R1*%
X177316666Y-103026190D02*
X177150000Y-102788095D01*
X177030952Y-103026190D02*
X177030952Y-102526190D01*
X177221428Y-102526190D01*
X177269047Y-102550000D01*
X177292857Y-102573809D01*
X177316666Y-102621428D01*
X177316666Y-102692857D01*
X177292857Y-102740476D01*
X177269047Y-102764285D01*
X177221428Y-102788095D01*
X177030952Y-102788095D01*
X177792857Y-103026190D02*
X177507142Y-103026190D01*
X177650000Y-103026190D02*
X177650000Y-102526190D01*
X177602380Y-102597619D01*
X177554761Y-102645238D01*
X177507142Y-102669047D01*
%TO.C,C1*%
X184116666Y-66878571D02*
X184092857Y-66902380D01*
X184021428Y-66926190D01*
X183973809Y-66926190D01*
X183902380Y-66902380D01*
X183854761Y-66854761D01*
X183830952Y-66807142D01*
X183807142Y-66711904D01*
X183807142Y-66640476D01*
X183830952Y-66545238D01*
X183854761Y-66497619D01*
X183902380Y-66450000D01*
X183973809Y-66426190D01*
X184021428Y-66426190D01*
X184092857Y-66450000D01*
X184116666Y-66473809D01*
X184592857Y-66926190D02*
X184307142Y-66926190D01*
X184450000Y-66926190D02*
X184450000Y-66426190D01*
X184402380Y-66497619D01*
X184354761Y-66545238D01*
X184307142Y-66569047D01*
%TO.C,U4*%
X158119047Y-81801190D02*
X158119047Y-82205952D01*
X158142857Y-82253571D01*
X158166666Y-82277380D01*
X158214285Y-82301190D01*
X158309523Y-82301190D01*
X158357142Y-82277380D01*
X158380952Y-82253571D01*
X158404761Y-82205952D01*
X158404761Y-81801190D01*
X158857142Y-81967857D02*
X158857142Y-82301190D01*
X158738095Y-81777380D02*
X158619047Y-82134523D01*
X158928571Y-82134523D01*
%TO.C,U1*%
X173369047Y-71976190D02*
X173369047Y-72380952D01*
X173392857Y-72428571D01*
X173416666Y-72452380D01*
X173464285Y-72476190D01*
X173559523Y-72476190D01*
X173607142Y-72452380D01*
X173630952Y-72428571D01*
X173654761Y-72380952D01*
X173654761Y-71976190D01*
X174154761Y-72476190D02*
X173869047Y-72476190D01*
X174011904Y-72476190D02*
X174011904Y-71976190D01*
X173964285Y-72047619D01*
X173916666Y-72095238D01*
X173869047Y-72119047D01*
%TO.C,U3*%
X186819047Y-59776190D02*
X186819047Y-60180952D01*
X186842857Y-60228571D01*
X186866666Y-60252380D01*
X186914285Y-60276190D01*
X187009523Y-60276190D01*
X187057142Y-60252380D01*
X187080952Y-60228571D01*
X187104761Y-60180952D01*
X187104761Y-59776190D01*
X187295238Y-59776190D02*
X187604761Y-59776190D01*
X187438095Y-59966666D01*
X187509523Y-59966666D01*
X187557142Y-59990476D01*
X187580952Y-60014285D01*
X187604761Y-60061904D01*
X187604761Y-60180952D01*
X187580952Y-60228571D01*
X187557142Y-60252380D01*
X187509523Y-60276190D01*
X187366666Y-60276190D01*
X187319047Y-60252380D01*
X187295238Y-60228571D01*
%TO.C,C5*%
X178166666Y-83928571D02*
X178142857Y-83952380D01*
X178071428Y-83976190D01*
X178023809Y-83976190D01*
X177952380Y-83952380D01*
X177904761Y-83904761D01*
X177880952Y-83857142D01*
X177857142Y-83761904D01*
X177857142Y-83690476D01*
X177880952Y-83595238D01*
X177904761Y-83547619D01*
X177952380Y-83500000D01*
X178023809Y-83476190D01*
X178071428Y-83476190D01*
X178142857Y-83500000D01*
X178166666Y-83523809D01*
X178619047Y-83476190D02*
X178380952Y-83476190D01*
X178357142Y-83714285D01*
X178380952Y-83690476D01*
X178428571Y-83666666D01*
X178547619Y-83666666D01*
X178595238Y-83690476D01*
X178619047Y-83714285D01*
X178642857Y-83761904D01*
X178642857Y-83880952D01*
X178619047Y-83928571D01*
X178595238Y-83952380D01*
X178547619Y-83976190D01*
X178428571Y-83976190D01*
X178380952Y-83952380D01*
X178357142Y-83928571D01*
%TO.C,C8*%
X166216666Y-74678571D02*
X166192857Y-74702380D01*
X166121428Y-74726190D01*
X166073809Y-74726190D01*
X166002380Y-74702380D01*
X165954761Y-74654761D01*
X165930952Y-74607142D01*
X165907142Y-74511904D01*
X165907142Y-74440476D01*
X165930952Y-74345238D01*
X165954761Y-74297619D01*
X166002380Y-74250000D01*
X166073809Y-74226190D01*
X166121428Y-74226190D01*
X166192857Y-74250000D01*
X166216666Y-74273809D01*
X166502380Y-74440476D02*
X166454761Y-74416666D01*
X166430952Y-74392857D01*
X166407142Y-74345238D01*
X166407142Y-74321428D01*
X166430952Y-74273809D01*
X166454761Y-74250000D01*
X166502380Y-74226190D01*
X166597619Y-74226190D01*
X166645238Y-74250000D01*
X166669047Y-74273809D01*
X166692857Y-74321428D01*
X166692857Y-74345238D01*
X166669047Y-74392857D01*
X166645238Y-74416666D01*
X166597619Y-74440476D01*
X166502380Y-74440476D01*
X166454761Y-74464285D01*
X166430952Y-74488095D01*
X166407142Y-74535714D01*
X166407142Y-74630952D01*
X166430952Y-74678571D01*
X166454761Y-74702380D01*
X166502380Y-74726190D01*
X166597619Y-74726190D01*
X166645238Y-74702380D01*
X166669047Y-74678571D01*
X166692857Y-74630952D01*
X166692857Y-74535714D01*
X166669047Y-74488095D01*
X166645238Y-74464285D01*
X166597619Y-74440476D01*
%TO.C,C20*%
X166878571Y-85278571D02*
X166854761Y-85302380D01*
X166783333Y-85326190D01*
X166735714Y-85326190D01*
X166664285Y-85302380D01*
X166616666Y-85254761D01*
X166592857Y-85207142D01*
X166569047Y-85111904D01*
X166569047Y-85040476D01*
X166592857Y-84945238D01*
X166616666Y-84897619D01*
X166664285Y-84850000D01*
X166735714Y-84826190D01*
X166783333Y-84826190D01*
X166854761Y-84850000D01*
X166878571Y-84873809D01*
X167069047Y-84873809D02*
X167092857Y-84850000D01*
X167140476Y-84826190D01*
X167259523Y-84826190D01*
X167307142Y-84850000D01*
X167330952Y-84873809D01*
X167354761Y-84921428D01*
X167354761Y-84969047D01*
X167330952Y-85040476D01*
X167045238Y-85326190D01*
X167354761Y-85326190D01*
X167664285Y-84826190D02*
X167711904Y-84826190D01*
X167759523Y-84850000D01*
X167783333Y-84873809D01*
X167807142Y-84921428D01*
X167830952Y-85016666D01*
X167830952Y-85135714D01*
X167807142Y-85230952D01*
X167783333Y-85278571D01*
X167759523Y-85302380D01*
X167711904Y-85326190D01*
X167664285Y-85326190D01*
X167616666Y-85302380D01*
X167592857Y-85278571D01*
X167569047Y-85230952D01*
X167545238Y-85135714D01*
X167545238Y-85016666D01*
X167569047Y-84921428D01*
X167592857Y-84873809D01*
X167616666Y-84850000D01*
X167664285Y-84826190D01*
%TO.C,Y1*%
X167261904Y-87163095D02*
X167261904Y-87401190D01*
X167095238Y-86901190D02*
X167261904Y-87163095D01*
X167428571Y-86901190D01*
X167857142Y-87401190D02*
X167571428Y-87401190D01*
X167714285Y-87401190D02*
X167714285Y-86901190D01*
X167666666Y-86972619D01*
X167619047Y-87020238D01*
X167571428Y-87044047D01*
%TO.C,Q2*%
X194352380Y-66273809D02*
X194304761Y-66250000D01*
X194257142Y-66202380D01*
X194185714Y-66130952D01*
X194138095Y-66107142D01*
X194090476Y-66107142D01*
X194114285Y-66226190D02*
X194066666Y-66202380D01*
X194019047Y-66154761D01*
X193995238Y-66059523D01*
X193995238Y-65892857D01*
X194019047Y-65797619D01*
X194066666Y-65750000D01*
X194114285Y-65726190D01*
X194209523Y-65726190D01*
X194257142Y-65750000D01*
X194304761Y-65797619D01*
X194328571Y-65892857D01*
X194328571Y-66059523D01*
X194304761Y-66154761D01*
X194257142Y-66202380D01*
X194209523Y-66226190D01*
X194114285Y-66226190D01*
X194519047Y-65773809D02*
X194542857Y-65750000D01*
X194590476Y-65726190D01*
X194709523Y-65726190D01*
X194757142Y-65750000D01*
X194780952Y-65773809D01*
X194804761Y-65821428D01*
X194804761Y-65869047D01*
X194780952Y-65940476D01*
X194495238Y-66226190D01*
X194804761Y-66226190D01*
%TO.C,JP1*%
X191283333Y-68526190D02*
X191283333Y-68883333D01*
X191259523Y-68954761D01*
X191211904Y-69002380D01*
X191140476Y-69026190D01*
X191092857Y-69026190D01*
X191521428Y-69026190D02*
X191521428Y-68526190D01*
X191711904Y-68526190D01*
X191759523Y-68550000D01*
X191783333Y-68573809D01*
X191807142Y-68621428D01*
X191807142Y-68692857D01*
X191783333Y-68740476D01*
X191759523Y-68764285D01*
X191711904Y-68788095D01*
X191521428Y-68788095D01*
X192283333Y-69026190D02*
X191997619Y-69026190D01*
X192140476Y-69026190D02*
X192140476Y-68526190D01*
X192092857Y-68597619D01*
X192045238Y-68645238D01*
X191997619Y-68669047D01*
%TO.C,C9*%
X180516666Y-103178571D02*
X180492857Y-103202380D01*
X180421428Y-103226190D01*
X180373809Y-103226190D01*
X180302380Y-103202380D01*
X180254761Y-103154761D01*
X180230952Y-103107142D01*
X180207142Y-103011904D01*
X180207142Y-102940476D01*
X180230952Y-102845238D01*
X180254761Y-102797619D01*
X180302380Y-102750000D01*
X180373809Y-102726190D01*
X180421428Y-102726190D01*
X180492857Y-102750000D01*
X180516666Y-102773809D01*
X180754761Y-103226190D02*
X180850000Y-103226190D01*
X180897619Y-103202380D01*
X180921428Y-103178571D01*
X180969047Y-103107142D01*
X180992857Y-103011904D01*
X180992857Y-102821428D01*
X180969047Y-102773809D01*
X180945238Y-102750000D01*
X180897619Y-102726190D01*
X180802380Y-102726190D01*
X180754761Y-102750000D01*
X180730952Y-102773809D01*
X180707142Y-102821428D01*
X180707142Y-102940476D01*
X180730952Y-102988095D01*
X180754761Y-103011904D01*
X180802380Y-103035714D01*
X180897619Y-103035714D01*
X180945238Y-103011904D01*
X180969047Y-102988095D01*
X180992857Y-102940476D01*
%TO.C,J6*%
X174333333Y-45686190D02*
X174333333Y-46043333D01*
X174309523Y-46114761D01*
X174261904Y-46162380D01*
X174190476Y-46186190D01*
X174142857Y-46186190D01*
X174785714Y-45686190D02*
X174690476Y-45686190D01*
X174642857Y-45710000D01*
X174619047Y-45733809D01*
X174571428Y-45805238D01*
X174547619Y-45900476D01*
X174547619Y-46090952D01*
X174571428Y-46138571D01*
X174595238Y-46162380D01*
X174642857Y-46186190D01*
X174738095Y-46186190D01*
X174785714Y-46162380D01*
X174809523Y-46138571D01*
X174833333Y-46090952D01*
X174833333Y-45971904D01*
X174809523Y-45924285D01*
X174785714Y-45900476D01*
X174738095Y-45876666D01*
X174642857Y-45876666D01*
X174595238Y-45900476D01*
X174571428Y-45924285D01*
X174547619Y-45971904D01*
%TO.C,U7*%
X195819047Y-75226190D02*
X195819047Y-75630952D01*
X195842857Y-75678571D01*
X195866666Y-75702380D01*
X195914285Y-75726190D01*
X196009523Y-75726190D01*
X196057142Y-75702380D01*
X196080952Y-75678571D01*
X196104761Y-75630952D01*
X196104761Y-75226190D01*
X196295238Y-75226190D02*
X196628571Y-75226190D01*
X196414285Y-75726190D01*
%TO.C,U6*%
X159369047Y-56226190D02*
X159369047Y-56630952D01*
X159392857Y-56678571D01*
X159416666Y-56702380D01*
X159464285Y-56726190D01*
X159559523Y-56726190D01*
X159607142Y-56702380D01*
X159630952Y-56678571D01*
X159654761Y-56630952D01*
X159654761Y-56226190D01*
X160107142Y-56226190D02*
X160011904Y-56226190D01*
X159964285Y-56250000D01*
X159940476Y-56273809D01*
X159892857Y-56345238D01*
X159869047Y-56440476D01*
X159869047Y-56630952D01*
X159892857Y-56678571D01*
X159916666Y-56702380D01*
X159964285Y-56726190D01*
X160059523Y-56726190D01*
X160107142Y-56702380D01*
X160130952Y-56678571D01*
X160154761Y-56630952D01*
X160154761Y-56511904D01*
X160130952Y-56464285D01*
X160107142Y-56440476D01*
X160059523Y-56416666D01*
X159964285Y-56416666D01*
X159916666Y-56440476D01*
X159892857Y-56464285D01*
X159869047Y-56511904D01*
%TO.C,U5*%
X196419047Y-89326190D02*
X196419047Y-89730952D01*
X196442857Y-89778571D01*
X196466666Y-89802380D01*
X196514285Y-89826190D01*
X196609523Y-89826190D01*
X196657142Y-89802380D01*
X196680952Y-89778571D01*
X196704761Y-89730952D01*
X196704761Y-89326190D01*
X197180952Y-89326190D02*
X196942857Y-89326190D01*
X196919047Y-89564285D01*
X196942857Y-89540476D01*
X196990476Y-89516666D01*
X197109523Y-89516666D01*
X197157142Y-89540476D01*
X197180952Y-89564285D01*
X197204761Y-89611904D01*
X197204761Y-89730952D01*
X197180952Y-89778571D01*
X197157142Y-89802380D01*
X197109523Y-89826190D01*
X196990476Y-89826190D01*
X196942857Y-89802380D01*
X196919047Y-89778571D01*
%TO.C,U2*%
X171819047Y-95026190D02*
X171819047Y-95430952D01*
X171842857Y-95478571D01*
X171866666Y-95502380D01*
X171914285Y-95526190D01*
X172009523Y-95526190D01*
X172057142Y-95502380D01*
X172080952Y-95478571D01*
X172104761Y-95430952D01*
X172104761Y-95026190D01*
X172319047Y-95073809D02*
X172342857Y-95050000D01*
X172390476Y-95026190D01*
X172509523Y-95026190D01*
X172557142Y-95050000D01*
X172580952Y-95073809D01*
X172604761Y-95121428D01*
X172604761Y-95169047D01*
X172580952Y-95240476D01*
X172295238Y-95526190D01*
X172604761Y-95526190D01*
%TO.C,SW3*%
X155733333Y-47452380D02*
X155804761Y-47476190D01*
X155923809Y-47476190D01*
X155971428Y-47452380D01*
X155995238Y-47428571D01*
X156019047Y-47380952D01*
X156019047Y-47333333D01*
X155995238Y-47285714D01*
X155971428Y-47261904D01*
X155923809Y-47238095D01*
X155828571Y-47214285D01*
X155780952Y-47190476D01*
X155757142Y-47166666D01*
X155733333Y-47119047D01*
X155733333Y-47071428D01*
X155757142Y-47023809D01*
X155780952Y-47000000D01*
X155828571Y-46976190D01*
X155947619Y-46976190D01*
X156019047Y-47000000D01*
X156185714Y-46976190D02*
X156304761Y-47476190D01*
X156400000Y-47119047D01*
X156495238Y-47476190D01*
X156614285Y-46976190D01*
X156757142Y-46976190D02*
X157066666Y-46976190D01*
X156900000Y-47166666D01*
X156971428Y-47166666D01*
X157019047Y-47190476D01*
X157042857Y-47214285D01*
X157066666Y-47261904D01*
X157066666Y-47380952D01*
X157042857Y-47428571D01*
X157019047Y-47452380D01*
X156971428Y-47476190D01*
X156828571Y-47476190D01*
X156780952Y-47452380D01*
X156757142Y-47428571D01*
%TO.C,SW2*%
X198533333Y-61302380D02*
X198604761Y-61326190D01*
X198723809Y-61326190D01*
X198771428Y-61302380D01*
X198795238Y-61278571D01*
X198819047Y-61230952D01*
X198819047Y-61183333D01*
X198795238Y-61135714D01*
X198771428Y-61111904D01*
X198723809Y-61088095D01*
X198628571Y-61064285D01*
X198580952Y-61040476D01*
X198557142Y-61016666D01*
X198533333Y-60969047D01*
X198533333Y-60921428D01*
X198557142Y-60873809D01*
X198580952Y-60850000D01*
X198628571Y-60826190D01*
X198747619Y-60826190D01*
X198819047Y-60850000D01*
X198985714Y-60826190D02*
X199104761Y-61326190D01*
X199200000Y-60969047D01*
X199295238Y-61326190D01*
X199414285Y-60826190D01*
X199580952Y-60873809D02*
X199604761Y-60850000D01*
X199652380Y-60826190D01*
X199771428Y-60826190D01*
X199819047Y-60850000D01*
X199842857Y-60873809D01*
X199866666Y-60921428D01*
X199866666Y-60969047D01*
X199842857Y-61040476D01*
X199557142Y-61326190D01*
X199866666Y-61326190D01*
%TO.C,RESET*%
X200073809Y-52426190D02*
X199907142Y-52188095D01*
X199788095Y-52426190D02*
X199788095Y-51926190D01*
X199978571Y-51926190D01*
X200026190Y-51950000D01*
X200050000Y-51973809D01*
X200073809Y-52021428D01*
X200073809Y-52092857D01*
X200050000Y-52140476D01*
X200026190Y-52164285D01*
X199978571Y-52188095D01*
X199788095Y-52188095D01*
X200288095Y-52164285D02*
X200454761Y-52164285D01*
X200526190Y-52426190D02*
X200288095Y-52426190D01*
X200288095Y-51926190D01*
X200526190Y-51926190D01*
X200716666Y-52402380D02*
X200788095Y-52426190D01*
X200907142Y-52426190D01*
X200954761Y-52402380D01*
X200978571Y-52378571D01*
X201002380Y-52330952D01*
X201002380Y-52283333D01*
X200978571Y-52235714D01*
X200954761Y-52211904D01*
X200907142Y-52188095D01*
X200811904Y-52164285D01*
X200764285Y-52140476D01*
X200740476Y-52116666D01*
X200716666Y-52069047D01*
X200716666Y-52021428D01*
X200740476Y-51973809D01*
X200764285Y-51950000D01*
X200811904Y-51926190D01*
X200930952Y-51926190D01*
X201002380Y-51950000D01*
X201216666Y-52164285D02*
X201383333Y-52164285D01*
X201454761Y-52426190D02*
X201216666Y-52426190D01*
X201216666Y-51926190D01*
X201454761Y-51926190D01*
X201597619Y-51926190D02*
X201883333Y-51926190D01*
X201740476Y-52426190D02*
X201740476Y-51926190D01*
%TO.C,R14*%
X165478571Y-43863448D02*
X165311904Y-43625353D01*
X165192857Y-43863448D02*
X165192857Y-43363448D01*
X165383333Y-43363448D01*
X165430952Y-43387258D01*
X165454761Y-43411067D01*
X165478571Y-43458686D01*
X165478571Y-43530115D01*
X165454761Y-43577734D01*
X165430952Y-43601543D01*
X165383333Y-43625353D01*
X165192857Y-43625353D01*
X165954761Y-43863448D02*
X165669047Y-43863448D01*
X165811904Y-43863448D02*
X165811904Y-43363448D01*
X165764285Y-43434877D01*
X165716666Y-43482496D01*
X165669047Y-43506305D01*
X166383333Y-43530115D02*
X166383333Y-43863448D01*
X166264285Y-43339638D02*
X166145238Y-43696781D01*
X166454761Y-43696781D01*
%TO.C,R13*%
X192853571Y-79296190D02*
X192686904Y-79058095D01*
X192567857Y-79296190D02*
X192567857Y-78796190D01*
X192758333Y-78796190D01*
X192805952Y-78820000D01*
X192829761Y-78843809D01*
X192853571Y-78891428D01*
X192853571Y-78962857D01*
X192829761Y-79010476D01*
X192805952Y-79034285D01*
X192758333Y-79058095D01*
X192567857Y-79058095D01*
X193329761Y-79296190D02*
X193044047Y-79296190D01*
X193186904Y-79296190D02*
X193186904Y-78796190D01*
X193139285Y-78867619D01*
X193091666Y-78915238D01*
X193044047Y-78939047D01*
X193496428Y-78796190D02*
X193805952Y-78796190D01*
X193639285Y-78986666D01*
X193710714Y-78986666D01*
X193758333Y-79010476D01*
X193782142Y-79034285D01*
X193805952Y-79081904D01*
X193805952Y-79200952D01*
X193782142Y-79248571D01*
X193758333Y-79272380D01*
X193710714Y-79296190D01*
X193567857Y-79296190D01*
X193520238Y-79272380D01*
X193496428Y-79248571D01*
%TO.C,R12*%
X168878571Y-56396190D02*
X168711904Y-56158095D01*
X168592857Y-56396190D02*
X168592857Y-55896190D01*
X168783333Y-55896190D01*
X168830952Y-55920000D01*
X168854761Y-55943809D01*
X168878571Y-55991428D01*
X168878571Y-56062857D01*
X168854761Y-56110476D01*
X168830952Y-56134285D01*
X168783333Y-56158095D01*
X168592857Y-56158095D01*
X169354761Y-56396190D02*
X169069047Y-56396190D01*
X169211904Y-56396190D02*
X169211904Y-55896190D01*
X169164285Y-55967619D01*
X169116666Y-56015238D01*
X169069047Y-56039047D01*
X169545238Y-55943809D02*
X169569047Y-55920000D01*
X169616666Y-55896190D01*
X169735714Y-55896190D01*
X169783333Y-55920000D01*
X169807142Y-55943809D01*
X169830952Y-55991428D01*
X169830952Y-56039047D01*
X169807142Y-56110476D01*
X169521428Y-56396190D01*
X169830952Y-56396190D01*
%TO.C,R11*%
X192853571Y-74796190D02*
X192686904Y-74558095D01*
X192567857Y-74796190D02*
X192567857Y-74296190D01*
X192758333Y-74296190D01*
X192805952Y-74320000D01*
X192829761Y-74343809D01*
X192853571Y-74391428D01*
X192853571Y-74462857D01*
X192829761Y-74510476D01*
X192805952Y-74534285D01*
X192758333Y-74558095D01*
X192567857Y-74558095D01*
X193329761Y-74796190D02*
X193044047Y-74796190D01*
X193186904Y-74796190D02*
X193186904Y-74296190D01*
X193139285Y-74367619D01*
X193091666Y-74415238D01*
X193044047Y-74439047D01*
X193805952Y-74796190D02*
X193520238Y-74796190D01*
X193663095Y-74796190D02*
X193663095Y-74296190D01*
X193615476Y-74367619D01*
X193567857Y-74415238D01*
X193520238Y-74439047D01*
%TO.C,R10*%
X168878571Y-58596190D02*
X168711904Y-58358095D01*
X168592857Y-58596190D02*
X168592857Y-58096190D01*
X168783333Y-58096190D01*
X168830952Y-58120000D01*
X168854761Y-58143809D01*
X168878571Y-58191428D01*
X168878571Y-58262857D01*
X168854761Y-58310476D01*
X168830952Y-58334285D01*
X168783333Y-58358095D01*
X168592857Y-58358095D01*
X169354761Y-58596190D02*
X169069047Y-58596190D01*
X169211904Y-58596190D02*
X169211904Y-58096190D01*
X169164285Y-58167619D01*
X169116666Y-58215238D01*
X169069047Y-58239047D01*
X169664285Y-58096190D02*
X169711904Y-58096190D01*
X169759523Y-58120000D01*
X169783333Y-58143809D01*
X169807142Y-58191428D01*
X169830952Y-58286666D01*
X169830952Y-58405714D01*
X169807142Y-58500952D01*
X169783333Y-58548571D01*
X169759523Y-58572380D01*
X169711904Y-58596190D01*
X169664285Y-58596190D01*
X169616666Y-58572380D01*
X169592857Y-58548571D01*
X169569047Y-58500952D01*
X169545238Y-58405714D01*
X169545238Y-58286666D01*
X169569047Y-58191428D01*
X169592857Y-58143809D01*
X169616666Y-58120000D01*
X169664285Y-58096190D01*
%TO.C,R9*%
X158416666Y-78901190D02*
X158250000Y-78663095D01*
X158130952Y-78901190D02*
X158130952Y-78401190D01*
X158321428Y-78401190D01*
X158369047Y-78425000D01*
X158392857Y-78448809D01*
X158416666Y-78496428D01*
X158416666Y-78567857D01*
X158392857Y-78615476D01*
X158369047Y-78639285D01*
X158321428Y-78663095D01*
X158130952Y-78663095D01*
X158654761Y-78901190D02*
X158750000Y-78901190D01*
X158797619Y-78877380D01*
X158821428Y-78853571D01*
X158869047Y-78782142D01*
X158892857Y-78686904D01*
X158892857Y-78496428D01*
X158869047Y-78448809D01*
X158845238Y-78425000D01*
X158797619Y-78401190D01*
X158702380Y-78401190D01*
X158654761Y-78425000D01*
X158630952Y-78448809D01*
X158607142Y-78496428D01*
X158607142Y-78615476D01*
X158630952Y-78663095D01*
X158654761Y-78686904D01*
X158702380Y-78710714D01*
X158797619Y-78710714D01*
X158845238Y-78686904D01*
X158869047Y-78663095D01*
X158892857Y-78615476D01*
%TO.C,R8*%
X158416666Y-76601190D02*
X158250000Y-76363095D01*
X158130952Y-76601190D02*
X158130952Y-76101190D01*
X158321428Y-76101190D01*
X158369047Y-76125000D01*
X158392857Y-76148809D01*
X158416666Y-76196428D01*
X158416666Y-76267857D01*
X158392857Y-76315476D01*
X158369047Y-76339285D01*
X158321428Y-76363095D01*
X158130952Y-76363095D01*
X158702380Y-76315476D02*
X158654761Y-76291666D01*
X158630952Y-76267857D01*
X158607142Y-76220238D01*
X158607142Y-76196428D01*
X158630952Y-76148809D01*
X158654761Y-76125000D01*
X158702380Y-76101190D01*
X158797619Y-76101190D01*
X158845238Y-76125000D01*
X158869047Y-76148809D01*
X158892857Y-76196428D01*
X158892857Y-76220238D01*
X158869047Y-76267857D01*
X158845238Y-76291666D01*
X158797619Y-76315476D01*
X158702380Y-76315476D01*
X158654761Y-76339285D01*
X158630952Y-76363095D01*
X158607142Y-76410714D01*
X158607142Y-76505952D01*
X158630952Y-76553571D01*
X158654761Y-76577380D01*
X158702380Y-76601190D01*
X158797619Y-76601190D01*
X158845238Y-76577380D01*
X158869047Y-76553571D01*
X158892857Y-76505952D01*
X158892857Y-76410714D01*
X158869047Y-76363095D01*
X158845238Y-76339285D01*
X158797619Y-76315476D01*
%TO.C,R7*%
X201716666Y-98626190D02*
X201550000Y-98388095D01*
X201430952Y-98626190D02*
X201430952Y-98126190D01*
X201621428Y-98126190D01*
X201669047Y-98150000D01*
X201692857Y-98173809D01*
X201716666Y-98221428D01*
X201716666Y-98292857D01*
X201692857Y-98340476D01*
X201669047Y-98364285D01*
X201621428Y-98388095D01*
X201430952Y-98388095D01*
X201883333Y-98126190D02*
X202216666Y-98126190D01*
X202002380Y-98626190D01*
%TO.C,R6*%
X192916666Y-90476190D02*
X192750000Y-90238095D01*
X192630952Y-90476190D02*
X192630952Y-89976190D01*
X192821428Y-89976190D01*
X192869047Y-90000000D01*
X192892857Y-90023809D01*
X192916666Y-90071428D01*
X192916666Y-90142857D01*
X192892857Y-90190476D01*
X192869047Y-90214285D01*
X192821428Y-90238095D01*
X192630952Y-90238095D01*
X193345238Y-89976190D02*
X193250000Y-89976190D01*
X193202380Y-90000000D01*
X193178571Y-90023809D01*
X193130952Y-90095238D01*
X193107142Y-90190476D01*
X193107142Y-90380952D01*
X193130952Y-90428571D01*
X193154761Y-90452380D01*
X193202380Y-90476190D01*
X193297619Y-90476190D01*
X193345238Y-90452380D01*
X193369047Y-90428571D01*
X193392857Y-90380952D01*
X193392857Y-90261904D01*
X193369047Y-90214285D01*
X193345238Y-90190476D01*
X193297619Y-90166666D01*
X193202380Y-90166666D01*
X193154761Y-90190476D01*
X193130952Y-90214285D01*
X193107142Y-90261904D01*
%TO.C,R5*%
X192316666Y-52126190D02*
X192150000Y-51888095D01*
X192030952Y-52126190D02*
X192030952Y-51626190D01*
X192221428Y-51626190D01*
X192269047Y-51650000D01*
X192292857Y-51673809D01*
X192316666Y-51721428D01*
X192316666Y-51792857D01*
X192292857Y-51840476D01*
X192269047Y-51864285D01*
X192221428Y-51888095D01*
X192030952Y-51888095D01*
X192769047Y-51626190D02*
X192530952Y-51626190D01*
X192507142Y-51864285D01*
X192530952Y-51840476D01*
X192578571Y-51816666D01*
X192697619Y-51816666D01*
X192745238Y-51840476D01*
X192769047Y-51864285D01*
X192792857Y-51911904D01*
X192792857Y-52030952D01*
X192769047Y-52078571D01*
X192745238Y-52102380D01*
X192697619Y-52126190D01*
X192578571Y-52126190D01*
X192530952Y-52102380D01*
X192507142Y-52078571D01*
%TO.C,R4*%
X187816666Y-64226190D02*
X187650000Y-63988095D01*
X187530952Y-64226190D02*
X187530952Y-63726190D01*
X187721428Y-63726190D01*
X187769047Y-63750000D01*
X187792857Y-63773809D01*
X187816666Y-63821428D01*
X187816666Y-63892857D01*
X187792857Y-63940476D01*
X187769047Y-63964285D01*
X187721428Y-63988095D01*
X187530952Y-63988095D01*
X188245238Y-63892857D02*
X188245238Y-64226190D01*
X188126190Y-63702380D02*
X188007142Y-64059523D01*
X188316666Y-64059523D01*
%TO.C,R3*%
X172716666Y-99826190D02*
X172550000Y-99588095D01*
X172430952Y-99826190D02*
X172430952Y-99326190D01*
X172621428Y-99326190D01*
X172669047Y-99350000D01*
X172692857Y-99373809D01*
X172716666Y-99421428D01*
X172716666Y-99492857D01*
X172692857Y-99540476D01*
X172669047Y-99564285D01*
X172621428Y-99588095D01*
X172430952Y-99588095D01*
X172883333Y-99326190D02*
X173192857Y-99326190D01*
X173026190Y-99516666D01*
X173097619Y-99516666D01*
X173145238Y-99540476D01*
X173169047Y-99564285D01*
X173192857Y-99611904D01*
X173192857Y-99730952D01*
X173169047Y-99778571D01*
X173145238Y-99802380D01*
X173097619Y-99826190D01*
X172954761Y-99826190D01*
X172907142Y-99802380D01*
X172883333Y-99778571D01*
%TO.C,R2*%
X169016666Y-97001190D02*
X168850000Y-96763095D01*
X168730952Y-97001190D02*
X168730952Y-96501190D01*
X168921428Y-96501190D01*
X168969047Y-96525000D01*
X168992857Y-96548809D01*
X169016666Y-96596428D01*
X169016666Y-96667857D01*
X168992857Y-96715476D01*
X168969047Y-96739285D01*
X168921428Y-96763095D01*
X168730952Y-96763095D01*
X169207142Y-96548809D02*
X169230952Y-96525000D01*
X169278571Y-96501190D01*
X169397619Y-96501190D01*
X169445238Y-96525000D01*
X169469047Y-96548809D01*
X169492857Y-96596428D01*
X169492857Y-96644047D01*
X169469047Y-96715476D01*
X169183333Y-97001190D01*
X169492857Y-97001190D01*
%TO.C,Q1*%
X183952380Y-91723809D02*
X183904761Y-91700000D01*
X183857142Y-91652380D01*
X183785714Y-91580952D01*
X183738095Y-91557142D01*
X183690476Y-91557142D01*
X183714285Y-91676190D02*
X183666666Y-91652380D01*
X183619047Y-91604761D01*
X183595238Y-91509523D01*
X183595238Y-91342857D01*
X183619047Y-91247619D01*
X183666666Y-91200000D01*
X183714285Y-91176190D01*
X183809523Y-91176190D01*
X183857142Y-91200000D01*
X183904761Y-91247619D01*
X183928571Y-91342857D01*
X183928571Y-91509523D01*
X183904761Y-91604761D01*
X183857142Y-91652380D01*
X183809523Y-91676190D01*
X183714285Y-91676190D01*
X184404761Y-91676190D02*
X184119047Y-91676190D01*
X184261904Y-91676190D02*
X184261904Y-91176190D01*
X184214285Y-91247619D01*
X184166666Y-91295238D01*
X184119047Y-91319047D01*
%TO.C,L1*%
X172529166Y-49796190D02*
X172291071Y-49796190D01*
X172291071Y-49296190D01*
X172957738Y-49796190D02*
X172672023Y-49796190D01*
X172814880Y-49796190D02*
X172814880Y-49296190D01*
X172767261Y-49367619D01*
X172719642Y-49415238D01*
X172672023Y-49439047D01*
%TO.C,J5*%
X187533333Y-81026190D02*
X187533333Y-81383333D01*
X187509523Y-81454761D01*
X187461904Y-81502380D01*
X187390476Y-81526190D01*
X187342857Y-81526190D01*
X188009523Y-81026190D02*
X187771428Y-81026190D01*
X187747619Y-81264285D01*
X187771428Y-81240476D01*
X187819047Y-81216666D01*
X187938095Y-81216666D01*
X187985714Y-81240476D01*
X188009523Y-81264285D01*
X188033333Y-81311904D01*
X188033333Y-81430952D01*
X188009523Y-81478571D01*
X187985714Y-81502380D01*
X187938095Y-81526190D01*
X187819047Y-81526190D01*
X187771428Y-81502380D01*
X187747619Y-81478571D01*
%TO.C,J4*%
X191833333Y-99976190D02*
X191833333Y-100333333D01*
X191809523Y-100404761D01*
X191761904Y-100452380D01*
X191690476Y-100476190D01*
X191642857Y-100476190D01*
X192285714Y-100142857D02*
X192285714Y-100476190D01*
X192166666Y-99952380D02*
X192047619Y-100309523D01*
X192357142Y-100309523D01*
%TO.C,J3*%
X186233333Y-99726190D02*
X186233333Y-100083333D01*
X186209523Y-100154761D01*
X186161904Y-100202380D01*
X186090476Y-100226190D01*
X186042857Y-100226190D01*
X186423809Y-99726190D02*
X186733333Y-99726190D01*
X186566666Y-99916666D01*
X186638095Y-99916666D01*
X186685714Y-99940476D01*
X186709523Y-99964285D01*
X186733333Y-100011904D01*
X186733333Y-100130952D01*
X186709523Y-100178571D01*
X186685714Y-100202380D01*
X186638095Y-100226190D01*
X186495238Y-100226190D01*
X186447619Y-100202380D01*
X186423809Y-100178571D01*
%TO.C,J2*%
X200333333Y-99926190D02*
X200333333Y-100283333D01*
X200309523Y-100354761D01*
X200261904Y-100402380D01*
X200190476Y-100426190D01*
X200142857Y-100426190D01*
X200547619Y-99973809D02*
X200571428Y-99950000D01*
X200619047Y-99926190D01*
X200738095Y-99926190D01*
X200785714Y-99950000D01*
X200809523Y-99973809D01*
X200833333Y-100021428D01*
X200833333Y-100069047D01*
X200809523Y-100140476D01*
X200523809Y-100426190D01*
X200833333Y-100426190D01*
%TO.C,J1*%
X154533333Y-93926190D02*
X154533333Y-94283333D01*
X154509523Y-94354761D01*
X154461904Y-94402380D01*
X154390476Y-94426190D01*
X154342857Y-94426190D01*
X155033333Y-94426190D02*
X154747619Y-94426190D01*
X154890476Y-94426190D02*
X154890476Y-93926190D01*
X154842857Y-93997619D01*
X154795238Y-94045238D01*
X154747619Y-94069047D01*
%TO.C,D3*%
X187630952Y-93226190D02*
X187630952Y-92726190D01*
X187750000Y-92726190D01*
X187821428Y-92750000D01*
X187869047Y-92797619D01*
X187892857Y-92845238D01*
X187916666Y-92940476D01*
X187916666Y-93011904D01*
X187892857Y-93107142D01*
X187869047Y-93154761D01*
X187821428Y-93202380D01*
X187750000Y-93226190D01*
X187630952Y-93226190D01*
X188083333Y-92726190D02*
X188392857Y-92726190D01*
X188226190Y-92916666D01*
X188297619Y-92916666D01*
X188345238Y-92940476D01*
X188369047Y-92964285D01*
X188392857Y-93011904D01*
X188392857Y-93130952D01*
X188369047Y-93178571D01*
X188345238Y-93202380D01*
X188297619Y-93226190D01*
X188154761Y-93226190D01*
X188107142Y-93202380D01*
X188083333Y-93178571D01*
%TO.C,D2*%
X169130952Y-101038690D02*
X169130952Y-100538690D01*
X169250000Y-100538690D01*
X169321428Y-100562500D01*
X169369047Y-100610119D01*
X169392857Y-100657738D01*
X169416666Y-100752976D01*
X169416666Y-100824404D01*
X169392857Y-100919642D01*
X169369047Y-100967261D01*
X169321428Y-101014880D01*
X169250000Y-101038690D01*
X169130952Y-101038690D01*
X169607142Y-100586309D02*
X169630952Y-100562500D01*
X169678571Y-100538690D01*
X169797619Y-100538690D01*
X169845238Y-100562500D01*
X169869047Y-100586309D01*
X169892857Y-100633928D01*
X169892857Y-100681547D01*
X169869047Y-100752976D01*
X169583333Y-101038690D01*
X169892857Y-101038690D01*
%TO.C,D1*%
X163630952Y-97576190D02*
X163630952Y-97076190D01*
X163750000Y-97076190D01*
X163821428Y-97100000D01*
X163869047Y-97147619D01*
X163892857Y-97195238D01*
X163916666Y-97290476D01*
X163916666Y-97361904D01*
X163892857Y-97457142D01*
X163869047Y-97504761D01*
X163821428Y-97552380D01*
X163750000Y-97576190D01*
X163630952Y-97576190D01*
X164392857Y-97576190D02*
X164107142Y-97576190D01*
X164250000Y-97576190D02*
X164250000Y-97076190D01*
X164202380Y-97147619D01*
X164154761Y-97195238D01*
X164107142Y-97219047D01*
%TO.C,C23*%
X175678571Y-49578571D02*
X175654761Y-49602380D01*
X175583333Y-49626190D01*
X175535714Y-49626190D01*
X175464285Y-49602380D01*
X175416666Y-49554761D01*
X175392857Y-49507142D01*
X175369047Y-49411904D01*
X175369047Y-49340476D01*
X175392857Y-49245238D01*
X175416666Y-49197619D01*
X175464285Y-49150000D01*
X175535714Y-49126190D01*
X175583333Y-49126190D01*
X175654761Y-49150000D01*
X175678571Y-49173809D01*
X175869047Y-49173809D02*
X175892857Y-49150000D01*
X175940476Y-49126190D01*
X176059523Y-49126190D01*
X176107142Y-49150000D01*
X176130952Y-49173809D01*
X176154761Y-49221428D01*
X176154761Y-49269047D01*
X176130952Y-49340476D01*
X175845238Y-49626190D01*
X176154761Y-49626190D01*
X176321428Y-49126190D02*
X176630952Y-49126190D01*
X176464285Y-49316666D01*
X176535714Y-49316666D01*
X176583333Y-49340476D01*
X176607142Y-49364285D01*
X176630952Y-49411904D01*
X176630952Y-49530952D01*
X176607142Y-49578571D01*
X176583333Y-49602380D01*
X176535714Y-49626190D01*
X176392857Y-49626190D01*
X176345238Y-49602380D01*
X176321428Y-49578571D01*
%TO.C,C22*%
X168878571Y-49578571D02*
X168854761Y-49602380D01*
X168783333Y-49626190D01*
X168735714Y-49626190D01*
X168664285Y-49602380D01*
X168616666Y-49554761D01*
X168592857Y-49507142D01*
X168569047Y-49411904D01*
X168569047Y-49340476D01*
X168592857Y-49245238D01*
X168616666Y-49197619D01*
X168664285Y-49150000D01*
X168735714Y-49126190D01*
X168783333Y-49126190D01*
X168854761Y-49150000D01*
X168878571Y-49173809D01*
X169069047Y-49173809D02*
X169092857Y-49150000D01*
X169140476Y-49126190D01*
X169259523Y-49126190D01*
X169307142Y-49150000D01*
X169330952Y-49173809D01*
X169354761Y-49221428D01*
X169354761Y-49269047D01*
X169330952Y-49340476D01*
X169045238Y-49626190D01*
X169354761Y-49626190D01*
X169545238Y-49173809D02*
X169569047Y-49150000D01*
X169616666Y-49126190D01*
X169735714Y-49126190D01*
X169783333Y-49150000D01*
X169807142Y-49173809D01*
X169830952Y-49221428D01*
X169830952Y-49269047D01*
X169807142Y-49340476D01*
X169521428Y-49626190D01*
X169830952Y-49626190D01*
%TO.C,C21*%
X166778571Y-90078571D02*
X166754761Y-90102380D01*
X166683333Y-90126190D01*
X166635714Y-90126190D01*
X166564285Y-90102380D01*
X166516666Y-90054761D01*
X166492857Y-90007142D01*
X166469047Y-89911904D01*
X166469047Y-89840476D01*
X166492857Y-89745238D01*
X166516666Y-89697619D01*
X166564285Y-89650000D01*
X166635714Y-89626190D01*
X166683333Y-89626190D01*
X166754761Y-89650000D01*
X166778571Y-89673809D01*
X166969047Y-89673809D02*
X166992857Y-89650000D01*
X167040476Y-89626190D01*
X167159523Y-89626190D01*
X167207142Y-89650000D01*
X167230952Y-89673809D01*
X167254761Y-89721428D01*
X167254761Y-89769047D01*
X167230952Y-89840476D01*
X166945238Y-90126190D01*
X167254761Y-90126190D01*
X167730952Y-90126190D02*
X167445238Y-90126190D01*
X167588095Y-90126190D02*
X167588095Y-89626190D01*
X167540476Y-89697619D01*
X167492857Y-89745238D01*
X167445238Y-89769047D01*
%TO.C,C19*%
X153378571Y-68478571D02*
X153354761Y-68502380D01*
X153283333Y-68526190D01*
X153235714Y-68526190D01*
X153164285Y-68502380D01*
X153116666Y-68454761D01*
X153092857Y-68407142D01*
X153069047Y-68311904D01*
X153069047Y-68240476D01*
X153092857Y-68145238D01*
X153116666Y-68097619D01*
X153164285Y-68050000D01*
X153235714Y-68026190D01*
X153283333Y-68026190D01*
X153354761Y-68050000D01*
X153378571Y-68073809D01*
X153854761Y-68526190D02*
X153569047Y-68526190D01*
X153711904Y-68526190D02*
X153711904Y-68026190D01*
X153664285Y-68097619D01*
X153616666Y-68145238D01*
X153569047Y-68169047D01*
X154092857Y-68526190D02*
X154188095Y-68526190D01*
X154235714Y-68502380D01*
X154259523Y-68478571D01*
X154307142Y-68407142D01*
X154330952Y-68311904D01*
X154330952Y-68121428D01*
X154307142Y-68073809D01*
X154283333Y-68050000D01*
X154235714Y-68026190D01*
X154140476Y-68026190D01*
X154092857Y-68050000D01*
X154069047Y-68073809D01*
X154045238Y-68121428D01*
X154045238Y-68240476D01*
X154069047Y-68288095D01*
X154092857Y-68311904D01*
X154140476Y-68335714D01*
X154235714Y-68335714D01*
X154283333Y-68311904D01*
X154307142Y-68288095D01*
X154330952Y-68240476D01*
%TO.C,C18*%
X198903571Y-86248571D02*
X198879761Y-86272380D01*
X198808333Y-86296190D01*
X198760714Y-86296190D01*
X198689285Y-86272380D01*
X198641666Y-86224761D01*
X198617857Y-86177142D01*
X198594047Y-86081904D01*
X198594047Y-86010476D01*
X198617857Y-85915238D01*
X198641666Y-85867619D01*
X198689285Y-85820000D01*
X198760714Y-85796190D01*
X198808333Y-85796190D01*
X198879761Y-85820000D01*
X198903571Y-85843809D01*
X199379761Y-86296190D02*
X199094047Y-86296190D01*
X199236904Y-86296190D02*
X199236904Y-85796190D01*
X199189285Y-85867619D01*
X199141666Y-85915238D01*
X199094047Y-85939047D01*
X199665476Y-86010476D02*
X199617857Y-85986666D01*
X199594047Y-85962857D01*
X199570238Y-85915238D01*
X199570238Y-85891428D01*
X199594047Y-85843809D01*
X199617857Y-85820000D01*
X199665476Y-85796190D01*
X199760714Y-85796190D01*
X199808333Y-85820000D01*
X199832142Y-85843809D01*
X199855952Y-85891428D01*
X199855952Y-85915238D01*
X199832142Y-85962857D01*
X199808333Y-85986666D01*
X199760714Y-86010476D01*
X199665476Y-86010476D01*
X199617857Y-86034285D01*
X199594047Y-86058095D01*
X199570238Y-86105714D01*
X199570238Y-86200952D01*
X199594047Y-86248571D01*
X199617857Y-86272380D01*
X199665476Y-86296190D01*
X199760714Y-86296190D01*
X199808333Y-86272380D01*
X199832142Y-86248571D01*
X199855952Y-86200952D01*
X199855952Y-86105714D01*
X199832142Y-86058095D01*
X199808333Y-86034285D01*
X199760714Y-86010476D01*
%TO.C,C17*%
X198903571Y-81748571D02*
X198879761Y-81772380D01*
X198808333Y-81796190D01*
X198760714Y-81796190D01*
X198689285Y-81772380D01*
X198641666Y-81724761D01*
X198617857Y-81677142D01*
X198594047Y-81581904D01*
X198594047Y-81510476D01*
X198617857Y-81415238D01*
X198641666Y-81367619D01*
X198689285Y-81320000D01*
X198760714Y-81296190D01*
X198808333Y-81296190D01*
X198879761Y-81320000D01*
X198903571Y-81343809D01*
X199379761Y-81796190D02*
X199094047Y-81796190D01*
X199236904Y-81796190D02*
X199236904Y-81296190D01*
X199189285Y-81367619D01*
X199141666Y-81415238D01*
X199094047Y-81439047D01*
X199546428Y-81296190D02*
X199879761Y-81296190D01*
X199665476Y-81796190D01*
%TO.C,C16*%
X162478571Y-87878571D02*
X162454761Y-87902380D01*
X162383333Y-87926190D01*
X162335714Y-87926190D01*
X162264285Y-87902380D01*
X162216666Y-87854761D01*
X162192857Y-87807142D01*
X162169047Y-87711904D01*
X162169047Y-87640476D01*
X162192857Y-87545238D01*
X162216666Y-87497619D01*
X162264285Y-87450000D01*
X162335714Y-87426190D01*
X162383333Y-87426190D01*
X162454761Y-87450000D01*
X162478571Y-87473809D01*
X162954761Y-87926190D02*
X162669047Y-87926190D01*
X162811904Y-87926190D02*
X162811904Y-87426190D01*
X162764285Y-87497619D01*
X162716666Y-87545238D01*
X162669047Y-87569047D01*
X163383333Y-87426190D02*
X163288095Y-87426190D01*
X163240476Y-87450000D01*
X163216666Y-87473809D01*
X163169047Y-87545238D01*
X163145238Y-87640476D01*
X163145238Y-87830952D01*
X163169047Y-87878571D01*
X163192857Y-87902380D01*
X163240476Y-87926190D01*
X163335714Y-87926190D01*
X163383333Y-87902380D01*
X163407142Y-87878571D01*
X163430952Y-87830952D01*
X163430952Y-87711904D01*
X163407142Y-87664285D01*
X163383333Y-87640476D01*
X163335714Y-87616666D01*
X163240476Y-87616666D01*
X163192857Y-87640476D01*
X163169047Y-87664285D01*
X163145238Y-87711904D01*
%TO.C,C15*%
X183878571Y-52748571D02*
X183854761Y-52772380D01*
X183783333Y-52796190D01*
X183735714Y-52796190D01*
X183664285Y-52772380D01*
X183616666Y-52724761D01*
X183592857Y-52677142D01*
X183569047Y-52581904D01*
X183569047Y-52510476D01*
X183592857Y-52415238D01*
X183616666Y-52367619D01*
X183664285Y-52320000D01*
X183735714Y-52296190D01*
X183783333Y-52296190D01*
X183854761Y-52320000D01*
X183878571Y-52343809D01*
X184354761Y-52796190D02*
X184069047Y-52796190D01*
X184211904Y-52796190D02*
X184211904Y-52296190D01*
X184164285Y-52367619D01*
X184116666Y-52415238D01*
X184069047Y-52439047D01*
X184807142Y-52296190D02*
X184569047Y-52296190D01*
X184545238Y-52534285D01*
X184569047Y-52510476D01*
X184616666Y-52486666D01*
X184735714Y-52486666D01*
X184783333Y-52510476D01*
X184807142Y-52534285D01*
X184830952Y-52581904D01*
X184830952Y-52700952D01*
X184807142Y-52748571D01*
X184783333Y-52772380D01*
X184735714Y-52796190D01*
X184616666Y-52796190D01*
X184569047Y-52772380D01*
X184545238Y-52748571D01*
%TO.C,C14*%
X158678571Y-87778571D02*
X158654761Y-87802380D01*
X158583333Y-87826190D01*
X158535714Y-87826190D01*
X158464285Y-87802380D01*
X158416666Y-87754761D01*
X158392857Y-87707142D01*
X158369047Y-87611904D01*
X158369047Y-87540476D01*
X158392857Y-87445238D01*
X158416666Y-87397619D01*
X158464285Y-87350000D01*
X158535714Y-87326190D01*
X158583333Y-87326190D01*
X158654761Y-87350000D01*
X158678571Y-87373809D01*
X159154761Y-87826190D02*
X158869047Y-87826190D01*
X159011904Y-87826190D02*
X159011904Y-87326190D01*
X158964285Y-87397619D01*
X158916666Y-87445238D01*
X158869047Y-87469047D01*
X159583333Y-87492857D02*
X159583333Y-87826190D01*
X159464285Y-87302380D02*
X159345238Y-87659523D01*
X159654761Y-87659523D01*
%TO.C,C13*%
X187078571Y-98178571D02*
X187054761Y-98202380D01*
X186983333Y-98226190D01*
X186935714Y-98226190D01*
X186864285Y-98202380D01*
X186816666Y-98154761D01*
X186792857Y-98107142D01*
X186769047Y-98011904D01*
X186769047Y-97940476D01*
X186792857Y-97845238D01*
X186816666Y-97797619D01*
X186864285Y-97750000D01*
X186935714Y-97726190D01*
X186983333Y-97726190D01*
X187054761Y-97750000D01*
X187078571Y-97773809D01*
X187554761Y-98226190D02*
X187269047Y-98226190D01*
X187411904Y-98226190D02*
X187411904Y-97726190D01*
X187364285Y-97797619D01*
X187316666Y-97845238D01*
X187269047Y-97869047D01*
X187721428Y-97726190D02*
X188030952Y-97726190D01*
X187864285Y-97916666D01*
X187935714Y-97916666D01*
X187983333Y-97940476D01*
X188007142Y-97964285D01*
X188030952Y-98011904D01*
X188030952Y-98130952D01*
X188007142Y-98178571D01*
X187983333Y-98202380D01*
X187935714Y-98226190D01*
X187792857Y-98226190D01*
X187745238Y-98202380D01*
X187721428Y-98178571D01*
%TO.C,C12*%
X181878571Y-66878571D02*
X181854761Y-66902380D01*
X181783333Y-66926190D01*
X181735714Y-66926190D01*
X181664285Y-66902380D01*
X181616666Y-66854761D01*
X181592857Y-66807142D01*
X181569047Y-66711904D01*
X181569047Y-66640476D01*
X181592857Y-66545238D01*
X181616666Y-66497619D01*
X181664285Y-66450000D01*
X181735714Y-66426190D01*
X181783333Y-66426190D01*
X181854761Y-66450000D01*
X181878571Y-66473809D01*
X182354761Y-66926190D02*
X182069047Y-66926190D01*
X182211904Y-66926190D02*
X182211904Y-66426190D01*
X182164285Y-66497619D01*
X182116666Y-66545238D01*
X182069047Y-66569047D01*
X182545238Y-66473809D02*
X182569047Y-66450000D01*
X182616666Y-66426190D01*
X182735714Y-66426190D01*
X182783333Y-66450000D01*
X182807142Y-66473809D01*
X182830952Y-66521428D01*
X182830952Y-66569047D01*
X182807142Y-66640476D01*
X182521428Y-66926190D01*
X182830952Y-66926190D01*
%TO.C,C11*%
X174478571Y-65278571D02*
X174454761Y-65302380D01*
X174383333Y-65326190D01*
X174335714Y-65326190D01*
X174264285Y-65302380D01*
X174216666Y-65254761D01*
X174192857Y-65207142D01*
X174169047Y-65111904D01*
X174169047Y-65040476D01*
X174192857Y-64945238D01*
X174216666Y-64897619D01*
X174264285Y-64850000D01*
X174335714Y-64826190D01*
X174383333Y-64826190D01*
X174454761Y-64850000D01*
X174478571Y-64873809D01*
X174954761Y-65326190D02*
X174669047Y-65326190D01*
X174811904Y-65326190D02*
X174811904Y-64826190D01*
X174764285Y-64897619D01*
X174716666Y-64945238D01*
X174669047Y-64969047D01*
X175430952Y-65326190D02*
X175145238Y-65326190D01*
X175288095Y-65326190D02*
X175288095Y-64826190D01*
X175240476Y-64897619D01*
X175192857Y-64945238D01*
X175145238Y-64969047D01*
%TO.C,C10*%
X178403571Y-85928571D02*
X178379761Y-85952380D01*
X178308333Y-85976190D01*
X178260714Y-85976190D01*
X178189285Y-85952380D01*
X178141666Y-85904761D01*
X178117857Y-85857142D01*
X178094047Y-85761904D01*
X178094047Y-85690476D01*
X178117857Y-85595238D01*
X178141666Y-85547619D01*
X178189285Y-85500000D01*
X178260714Y-85476190D01*
X178308333Y-85476190D01*
X178379761Y-85500000D01*
X178403571Y-85523809D01*
X178879761Y-85976190D02*
X178594047Y-85976190D01*
X178736904Y-85976190D02*
X178736904Y-85476190D01*
X178689285Y-85547619D01*
X178641666Y-85595238D01*
X178594047Y-85619047D01*
X179189285Y-85476190D02*
X179236904Y-85476190D01*
X179284523Y-85500000D01*
X179308333Y-85523809D01*
X179332142Y-85571428D01*
X179355952Y-85666666D01*
X179355952Y-85785714D01*
X179332142Y-85880952D01*
X179308333Y-85928571D01*
X179284523Y-85952380D01*
X179236904Y-85976190D01*
X179189285Y-85976190D01*
X179141666Y-85952380D01*
X179117857Y-85928571D01*
X179094047Y-85880952D01*
X179070238Y-85785714D01*
X179070238Y-85666666D01*
X179094047Y-85571428D01*
X179117857Y-85523809D01*
X179141666Y-85500000D01*
X179189285Y-85476190D01*
%TO.C,C7*%
X186216666Y-74778571D02*
X186192857Y-74802380D01*
X186121428Y-74826190D01*
X186073809Y-74826190D01*
X186002380Y-74802380D01*
X185954761Y-74754761D01*
X185930952Y-74707142D01*
X185907142Y-74611904D01*
X185907142Y-74540476D01*
X185930952Y-74445238D01*
X185954761Y-74397619D01*
X186002380Y-74350000D01*
X186073809Y-74326190D01*
X186121428Y-74326190D01*
X186192857Y-74350000D01*
X186216666Y-74373809D01*
X186383333Y-74326190D02*
X186716666Y-74326190D01*
X186502380Y-74826190D01*
%TO.C,C6*%
X166416666Y-76078571D02*
X166392857Y-76102380D01*
X166321428Y-76126190D01*
X166273809Y-76126190D01*
X166202380Y-76102380D01*
X166154761Y-76054761D01*
X166130952Y-76007142D01*
X166107142Y-75911904D01*
X166107142Y-75840476D01*
X166130952Y-75745238D01*
X166154761Y-75697619D01*
X166202380Y-75650000D01*
X166273809Y-75626190D01*
X166321428Y-75626190D01*
X166392857Y-75650000D01*
X166416666Y-75673809D01*
X166845238Y-75626190D02*
X166750000Y-75626190D01*
X166702380Y-75650000D01*
X166678571Y-75673809D01*
X166630952Y-75745238D01*
X166607142Y-75840476D01*
X166607142Y-76030952D01*
X166630952Y-76078571D01*
X166654761Y-76102380D01*
X166702380Y-76126190D01*
X166797619Y-76126190D01*
X166845238Y-76102380D01*
X166869047Y-76078571D01*
X166892857Y-76030952D01*
X166892857Y-75911904D01*
X166869047Y-75864285D01*
X166845238Y-75840476D01*
X166797619Y-75816666D01*
X166702380Y-75816666D01*
X166654761Y-75840476D01*
X166630952Y-75864285D01*
X166607142Y-75911904D01*
%TO.C,C4*%
X176516666Y-65278571D02*
X176492857Y-65302380D01*
X176421428Y-65326190D01*
X176373809Y-65326190D01*
X176302380Y-65302380D01*
X176254761Y-65254761D01*
X176230952Y-65207142D01*
X176207142Y-65111904D01*
X176207142Y-65040476D01*
X176230952Y-64945238D01*
X176254761Y-64897619D01*
X176302380Y-64850000D01*
X176373809Y-64826190D01*
X176421428Y-64826190D01*
X176492857Y-64850000D01*
X176516666Y-64873809D01*
X176945238Y-64992857D02*
X176945238Y-65326190D01*
X176826190Y-64802380D02*
X176707142Y-65159523D01*
X177016666Y-65159523D01*
%TO.C,C3*%
X186116666Y-72778571D02*
X186092857Y-72802380D01*
X186021428Y-72826190D01*
X185973809Y-72826190D01*
X185902380Y-72802380D01*
X185854761Y-72754761D01*
X185830952Y-72707142D01*
X185807142Y-72611904D01*
X185807142Y-72540476D01*
X185830952Y-72445238D01*
X185854761Y-72397619D01*
X185902380Y-72350000D01*
X185973809Y-72326190D01*
X186021428Y-72326190D01*
X186092857Y-72350000D01*
X186116666Y-72373809D01*
X186283333Y-72326190D02*
X186592857Y-72326190D01*
X186426190Y-72516666D01*
X186497619Y-72516666D01*
X186545238Y-72540476D01*
X186569047Y-72564285D01*
X186592857Y-72611904D01*
X186592857Y-72730952D01*
X186569047Y-72778571D01*
X186545238Y-72802380D01*
X186497619Y-72826190D01*
X186354761Y-72826190D01*
X186307142Y-72802380D01*
X186283333Y-72778571D01*
%TO.C,C2*%
X185166666Y-77178571D02*
X185142857Y-77202380D01*
X185071428Y-77226190D01*
X185023809Y-77226190D01*
X184952380Y-77202380D01*
X184904761Y-77154761D01*
X184880952Y-77107142D01*
X184857142Y-77011904D01*
X184857142Y-76940476D01*
X184880952Y-76845238D01*
X184904761Y-76797619D01*
X184952380Y-76750000D01*
X185023809Y-76726190D01*
X185071428Y-76726190D01*
X185142857Y-76750000D01*
X185166666Y-76773809D01*
X185357142Y-76773809D02*
X185380952Y-76750000D01*
X185428571Y-76726190D01*
X185547619Y-76726190D01*
X185595238Y-76750000D01*
X185619047Y-76773809D01*
X185642857Y-76821428D01*
X185642857Y-76869047D01*
X185619047Y-76940476D01*
X185333333Y-77226190D01*
X185642857Y-77226190D01*
D11*
%TO.C,VDD*%
X157600000Y-72700000D02*
G75*
G03*
X157600000Y-72700000I-1500000J0D01*
G01*
%TO.C,USB*%
X201690000Y-53740000D02*
X202800000Y-53740000D01*
X201690000Y-55260000D02*
X202236529Y-55260000D01*
X203363471Y-55260000D02*
X203910000Y-55260000D01*
X201690000Y-54500000D02*
X201690000Y-53740000D01*
X201690000Y-55260000D02*
X201690000Y-59005000D01*
X203107530Y-59005000D02*
X203910000Y-59005000D01*
X203910000Y-55260000D02*
X203910000Y-59005000D01*
X201690000Y-59005000D02*
X202492470Y-59005000D01*
%TO.C,R16*%
X179122500Y-68337258D02*
X179122500Y-67862742D01*
X178077500Y-68337258D02*
X178077500Y-67862742D01*
%TO.C,R15*%
X180922500Y-68337258D02*
X180922500Y-67862742D01*
X179877500Y-68337258D02*
X179877500Y-67862742D01*
%TO.C,JP2*%
X175000000Y-93750000D02*
X175000000Y-92350000D01*
X177000000Y-92350000D02*
X177000000Y-93750000D01*
X175700000Y-91650000D02*
X176300000Y-91650000D01*
X176300000Y-94450000D02*
X175700000Y-94450000D01*
X175700000Y-91650000D02*
G75*
G03*
X175000000Y-92350000I-1J-699999D01*
G01*
X175000000Y-93750000D02*
G75*
G03*
X175700000Y-94450000I699999J-1D01*
G01*
X176300000Y-94450000D02*
G75*
G03*
X177000000Y-93750000I1J699999D01*
G01*
X177000000Y-92350000D02*
G75*
G03*
X176300000Y-91650000I-699999J1D01*
G01*
%TO.C,C24*%
X170140580Y-71790000D02*
X169859420Y-71790000D01*
X170140580Y-72810000D02*
X169859420Y-72810000D01*
%TO.C,RX*%
X164800000Y-71700000D02*
G75*
G03*
X164800000Y-71700000I-1500000J0D01*
G01*
%TO.C,TX*%
X164700000Y-67300000D02*
G75*
G03*
X164700000Y-67300000I-1500000J0D01*
G01*
%TO.C,SOIL*%
X194700000Y-97400000D02*
G75*
G03*
X194700000Y-97400000I-1500000J0D01*
G01*
%TO.C,3V3*%
X181100000Y-89200000D02*
G75*
G03*
X181100000Y-89200000I-1500000J0D01*
G01*
%TO.C,BATT*%
X181100000Y-96400000D02*
G75*
G03*
X181100000Y-96400000I-1500000J0D01*
G01*
%TO.C,VDC*%
X168600000Y-92300000D02*
G75*
G03*
X168600000Y-92300000I-1500000J0D01*
G01*
%TO.C,R1*%
X177922500Y-100162742D02*
X177922500Y-100637258D01*
X176877500Y-100162742D02*
X176877500Y-100637258D01*
%TO.C,C1*%
X184710000Y-69940580D02*
X184710000Y-69659420D01*
X183690000Y-69940580D02*
X183690000Y-69659420D01*
D12*
%TO.C,U4*%
X159700000Y-80825000D02*
X159700000Y-80575000D01*
X162400000Y-80675000D02*
X162400000Y-80825000D01*
X162250000Y-80675000D02*
X162400000Y-80675000D01*
X162400000Y-83375000D02*
X162250000Y-83375000D01*
X162400000Y-83375000D02*
X162400000Y-83225000D01*
X159700000Y-83375000D02*
X159700000Y-83225000D01*
X159700000Y-83385000D02*
X159850000Y-83385000D01*
D13*
%TO.C,U1*%
X173500000Y-73500000D02*
X173500000Y-73980000D01*
X173500000Y-80500000D02*
X173500000Y-80020000D01*
X180500000Y-73500000D02*
X180500000Y-73980000D01*
X180500000Y-80500000D02*
X180500000Y-80020000D01*
X173500000Y-73500000D02*
X173980000Y-73500000D01*
X173500000Y-80500000D02*
X173980000Y-80500000D01*
X180500000Y-73500000D02*
X180020000Y-73500000D01*
X180500000Y-80500000D02*
X180020000Y-80500000D01*
D14*
X172625000Y-74400000D02*
G75*
G03*
X172625000Y-74400000I-100000J0D01*
G01*
D11*
%TO.C,U3*%
X184225000Y-63465000D02*
X185900000Y-63465000D01*
X184225000Y-63725000D02*
X184225000Y-63465000D01*
X181500000Y-63725000D02*
X184225000Y-63725000D01*
X178775000Y-63725000D02*
X178775000Y-63465000D01*
X181500000Y-63725000D02*
X178775000Y-63725000D01*
X184225000Y-58275000D02*
X184225000Y-58535000D01*
X181500000Y-58275000D02*
X184225000Y-58275000D01*
X178775000Y-58275000D02*
X178775000Y-58535000D01*
X181500000Y-58275000D02*
X178775000Y-58275000D01*
%TO.C,C5*%
X175865580Y-83240000D02*
X175584420Y-83240000D01*
X175865580Y-84260000D02*
X175584420Y-84260000D01*
%TO.C,C8*%
X170140580Y-73790000D02*
X169859420Y-73790000D01*
X170140580Y-74810000D02*
X169859420Y-74810000D01*
%TO.C,C20*%
X170084420Y-84260000D02*
X170365580Y-84260000D01*
X170084420Y-83240000D02*
X170365580Y-83240000D01*
%TO.C,Y1*%
X170275000Y-85825000D02*
X169135000Y-85825000D01*
%TO.C,Q2*%
X193640000Y-61920000D02*
X195100000Y-61920000D01*
X193640000Y-65080000D02*
X195800000Y-65080000D01*
X193640000Y-65080000D02*
X193640000Y-64150000D01*
X193640000Y-61920000D02*
X193640000Y-62850000D01*
%TO.C,JP1*%
X193400000Y-69500000D02*
X193400000Y-68100000D01*
X194100000Y-67400000D02*
X194700000Y-67400000D01*
X195400000Y-68100000D02*
X195400000Y-69500000D01*
X194700000Y-70200000D02*
X194100000Y-70200000D01*
X193400000Y-69500000D02*
G75*
G03*
X194100000Y-70200000I700000J0D01*
G01*
X194700000Y-70200000D02*
G75*
G03*
X195400000Y-69500000I0J700000D01*
G01*
X195400000Y-68100000D02*
G75*
G03*
X194700000Y-67400000I-700000J0D01*
G01*
X194100000Y-67400000D02*
G75*
G03*
X193400000Y-68100000I0J-700000D01*
G01*
%TO.C,C9*%
X180090000Y-100259420D02*
X180090000Y-100540580D01*
X181110000Y-100259420D02*
X181110000Y-100540580D01*
%TO.C,J6*%
X177500000Y-45210000D02*
X177250000Y-45710000D01*
X177250000Y-45710000D02*
X177750000Y-45710000D01*
X177750000Y-45710000D02*
X177500000Y-45210000D01*
%TO.C,U7*%
X197640000Y-74600000D02*
X197640000Y-77050000D01*
X200860000Y-76400000D02*
X200860000Y-74600000D01*
D15*
%TO.C,U6*%
X154952353Y-63730000D02*
G75*
G03*
X154952353Y-63730000I-362353J0D01*
G01*
X165750000Y-62750000D02*
X153750000Y-62750000D01*
X165750000Y-50750000D02*
X165750000Y-62750000D01*
X153750000Y-50750000D02*
X165750000Y-50750000D01*
X153750000Y-62750000D02*
X153750000Y-50750000D01*
D11*
%TO.C,U5*%
X197740000Y-91500000D02*
X197740000Y-93950000D01*
X200960000Y-93300000D02*
X200960000Y-91500000D01*
%TO.C,U2*%
X173390000Y-96000000D02*
X173390000Y-98450000D01*
X176610000Y-97800000D02*
X176610000Y-96000000D01*
%TO.C,SW3*%
X159630000Y-39970000D02*
X153170000Y-39970000D01*
X159630000Y-44500000D02*
X159630000Y-41900000D01*
X159630000Y-46430000D02*
X153170000Y-46430000D01*
X153170000Y-44500000D02*
X153170000Y-41900000D01*
X159630000Y-46400000D02*
X159630000Y-46430000D01*
X159630000Y-39970000D02*
X159630000Y-40000000D01*
X153170000Y-39970000D02*
X153170000Y-40000000D01*
X153170000Y-46430000D02*
X153170000Y-46400000D01*
%TO.C,SW2*%
X197770000Y-63770000D02*
X197770000Y-70230000D01*
X202300000Y-63770000D02*
X199700000Y-63770000D01*
X204230000Y-63770000D02*
X204230000Y-70230000D01*
X202300000Y-70230000D02*
X199700000Y-70230000D01*
X204200000Y-63770000D02*
X204230000Y-63770000D01*
X197770000Y-63770000D02*
X197800000Y-63770000D01*
X197770000Y-70230000D02*
X197800000Y-70230000D01*
X204230000Y-70230000D02*
X204200000Y-70230000D01*
%TO.C,RESET*%
X197770000Y-43170000D02*
X197770000Y-49630000D01*
X202300000Y-43170000D02*
X199700000Y-43170000D01*
X204230000Y-43170000D02*
X204230000Y-49630000D01*
X202300000Y-49630000D02*
X199700000Y-49630000D01*
X204200000Y-43170000D02*
X204230000Y-43170000D01*
X197770000Y-43170000D02*
X197800000Y-43170000D01*
X197770000Y-49630000D02*
X197800000Y-49630000D01*
X204230000Y-49630000D02*
X204200000Y-49630000D01*
%TO.C,R14*%
X164722500Y-43637258D02*
X164722500Y-43162742D01*
X163677500Y-43637258D02*
X163677500Y-43162742D01*
%TO.C,R13*%
X192937742Y-81022500D02*
X193412258Y-81022500D01*
X192937742Y-79977500D02*
X193412258Y-79977500D01*
%TO.C,R12*%
X168962742Y-58122500D02*
X169437258Y-58122500D01*
X168962742Y-57077500D02*
X169437258Y-57077500D01*
%TO.C,R11*%
X192937742Y-76522500D02*
X193412258Y-76522500D01*
X192937742Y-75477500D02*
X193412258Y-75477500D01*
%TO.C,R10*%
X168962742Y-60322500D02*
X169437258Y-60322500D01*
X168962742Y-59277500D02*
X169437258Y-59277500D01*
%TO.C,R9*%
X160862742Y-79097500D02*
X161337258Y-79097500D01*
X160862742Y-78052500D02*
X161337258Y-78052500D01*
%TO.C,R8*%
X160862742Y-76997500D02*
X161337258Y-76997500D01*
X160862742Y-75952500D02*
X161337258Y-75952500D01*
%TO.C,R7*%
X199412258Y-97977500D02*
X198937742Y-97977500D01*
X199412258Y-99022500D02*
X198937742Y-99022500D01*
%TO.C,R6*%
X193437742Y-92522500D02*
X193912258Y-92522500D01*
X193437742Y-91477500D02*
X193912258Y-91477500D01*
%TO.C,R5*%
X193022500Y-54137258D02*
X193022500Y-53662742D01*
X191977500Y-54137258D02*
X191977500Y-53662742D01*
%TO.C,R4*%
X188422500Y-61837258D02*
X188422500Y-61362742D01*
X187377500Y-61837258D02*
X187377500Y-61362742D01*
%TO.C,R3*%
X174522500Y-102062258D02*
X174522500Y-101587742D01*
X173477500Y-102062258D02*
X173477500Y-101587742D01*
%TO.C,R2*%
X170677500Y-96937258D02*
X170677500Y-96462742D01*
X171722500Y-96937258D02*
X171722500Y-96462742D01*
%TO.C,Q1*%
X184760000Y-95530000D02*
X183300000Y-95530000D01*
X184760000Y-92370000D02*
X182600000Y-92370000D01*
X184760000Y-92370000D02*
X184760000Y-93300000D01*
X184760000Y-95530000D02*
X184760000Y-94600000D01*
%TO.C,L1*%
X172449721Y-51510000D02*
X172775279Y-51510000D01*
X172449721Y-50490000D02*
X172775279Y-50490000D01*
%TO.C,J5*%
X191170000Y-84735000D02*
X191235000Y-84735000D01*
X191170000Y-88265000D02*
X191235000Y-88265000D01*
X184765000Y-84735000D02*
X184830000Y-84735000D01*
X184765000Y-88265000D02*
X184830000Y-88265000D01*
X184830000Y-89590000D02*
X184830000Y-88265000D01*
X191235000Y-88265000D02*
X191235000Y-84735000D01*
X184765000Y-88265000D02*
X184765000Y-84735000D01*
%TO.C,J4*%
X194760000Y-101390000D02*
X194760000Y-102500000D01*
X194000000Y-101390000D02*
X194760000Y-101390000D01*
X193240000Y-103063471D02*
X193240000Y-103610000D01*
X193240000Y-101390000D02*
X193240000Y-101936529D01*
X193240000Y-103610000D02*
X189495000Y-103610000D01*
X193240000Y-101390000D02*
X189495000Y-101390000D01*
X189495000Y-102807530D02*
X189495000Y-103610000D01*
X189495000Y-101390000D02*
X189495000Y-102192470D01*
%TO.C,J3*%
X184760000Y-98870000D02*
X184760000Y-100000000D01*
X184000000Y-98870000D02*
X184760000Y-98870000D01*
X184695000Y-101577530D02*
X184695000Y-102400000D01*
X184695000Y-100760000D02*
X184695000Y-100962470D01*
X184563471Y-100760000D02*
X184695000Y-100760000D01*
X183293471Y-100760000D02*
X183436529Y-100760000D01*
X183240000Y-100563471D02*
X183240000Y-100706529D01*
X183240000Y-98870000D02*
X183240000Y-99436529D01*
X184695000Y-102400000D02*
X183305000Y-102400000D01*
X183240000Y-98870000D02*
X183305000Y-98870000D01*
X183240000Y-98870000D02*
X183240000Y-102400000D01*
%TO.C,J2*%
X198490000Y-103610000D02*
X198490000Y-102500000D01*
X199250000Y-103610000D02*
X198490000Y-103610000D01*
X200010000Y-101936529D02*
X200010000Y-101390000D01*
X200010000Y-103610000D02*
X200010000Y-103063471D01*
X200010000Y-101390000D02*
X202485000Y-101390000D01*
X200010000Y-103610000D02*
X202485000Y-103610000D01*
X202485000Y-102192470D02*
X202485000Y-101390000D01*
X202485000Y-103610000D02*
X202485000Y-102807530D01*
%TO.C,J1*%
X150000000Y-95000000D02*
X150000000Y-104000000D01*
X150000000Y-104000000D02*
X159000000Y-104000000D01*
X159000000Y-104000000D02*
X159000000Y-95000000D01*
X159000000Y-95000000D02*
X150000000Y-95000000D01*
%TO.C,D3*%
X189150000Y-94500000D02*
X189150000Y-91950000D01*
X190850000Y-94500000D02*
X190850000Y-91950000D01*
X189150000Y-94500000D02*
X190850000Y-94500000D01*
%TO.C,D2*%
X172135000Y-103285000D02*
X172135000Y-101000000D01*
X170665000Y-103285000D02*
X172135000Y-103285000D01*
X170665000Y-101000000D02*
X170665000Y-103285000D01*
%TO.C,D1*%
X165500000Y-96350000D02*
X162950000Y-96350000D01*
X165500000Y-94650000D02*
X162950000Y-94650000D01*
X165500000Y-96350000D02*
X165500000Y-94650000D01*
%TO.C,C23*%
X175490000Y-51609420D02*
X175490000Y-51890580D01*
X176510000Y-51609420D02*
X176510000Y-51890580D01*
%TO.C,C22*%
X168740000Y-51634420D02*
X168740000Y-51915580D01*
X169760000Y-51634420D02*
X169760000Y-51915580D01*
%TO.C,C21*%
X170109420Y-91010000D02*
X170390580Y-91010000D01*
X170109420Y-89990000D02*
X170390580Y-89990000D01*
%TO.C,C19*%
X155490000Y-67959420D02*
X155490000Y-68240580D01*
X156510000Y-67959420D02*
X156510000Y-68240580D01*
%TO.C,C18*%
X199084420Y-88010000D02*
X199365580Y-88010000D01*
X199084420Y-86990000D02*
X199365580Y-86990000D01*
%TO.C,C17*%
X199084420Y-83510000D02*
X199365580Y-83510000D01*
X199084420Y-82490000D02*
X199365580Y-82490000D01*
%TO.C,C16*%
X162859420Y-85685000D02*
X163140580Y-85685000D01*
X162859420Y-84665000D02*
X163140580Y-84665000D01*
%TO.C,C15*%
X184059420Y-54510000D02*
X184340580Y-54510000D01*
X184059420Y-53490000D02*
X184340580Y-53490000D01*
%TO.C,C14*%
X159140580Y-84665000D02*
X158859420Y-84665000D01*
X159140580Y-85685000D02*
X158859420Y-85685000D01*
%TO.C,C13*%
X189490000Y-98134420D02*
X189490000Y-98415580D01*
X190510000Y-98134420D02*
X190510000Y-98415580D01*
%TO.C,C12*%
X182710000Y-69940580D02*
X182710000Y-69659420D01*
X181690000Y-69940580D02*
X181690000Y-69659420D01*
%TO.C,C11*%
X175410000Y-68240580D02*
X175410000Y-67959420D01*
X174390000Y-68240580D02*
X174390000Y-67959420D01*
%TO.C,C10*%
X175890580Y-85240000D02*
X175609420Y-85240000D01*
X175890580Y-86260000D02*
X175609420Y-86260000D01*
%TO.C,C7*%
X183759420Y-75310000D02*
X184040580Y-75310000D01*
X183759420Y-74290000D02*
X184040580Y-74290000D01*
%TO.C,C6*%
X169540580Y-76990000D02*
X169259420Y-76990000D01*
X169540580Y-78010000D02*
X169259420Y-78010000D01*
%TO.C,C4*%
X177210000Y-68240580D02*
X177210000Y-67959420D01*
X176190000Y-68240580D02*
X176190000Y-67959420D01*
%TO.C,C3*%
X183759420Y-72190000D02*
X184040580Y-72190000D01*
X183759420Y-73210000D02*
X184040580Y-73210000D01*
%TO.C,C2*%
X183584420Y-79010000D02*
X183865580Y-79010000D01*
X183584420Y-77990000D02*
X183865580Y-77990000D01*
%TD*%
M02*
