M48
; DRILL file {KiCad 6.0.2-378541a8eb~116~ubuntu20.04.1} date Mon 07 Mar 2022 09:24:44 AM PST
; FORMAT={-:-/ absolute / inch / decimal}
; #@! TF.CreationDate,2022-03-07T09:24:44-08:00
; #@! TF.GenerationSoftware,Kicad,Pcbnew,6.0.2-378541a8eb~116~ubuntu20.04.1
; #@! TF.FileFunction,Plated,1,2,PTH
FMAT,2
INCH
; #@! TA.AperFunction,Plated,PTH,ViaDrill
T1C0.0118
; #@! TA.AperFunction,Plated,PTH,ViaDrill
T2C0.0157
; #@! TA.AperFunction,Plated,PTH,ComponentDrill
T3C0.0256
; #@! TA.AperFunction,Plated,PTH,ComponentDrill
T4C0.0394
%
G90
G05
T1
X5.7335Y-4.1281
X5.7335Y-4.1754
X5.7335Y-4.2226
X5.7728Y-3.9667
X5.7807Y-4.1281
X5.7807Y-4.2226
X5.7816Y-4.1754
X5.8083Y-4.2581
X5.8142Y-4.0927
X5.828Y-4.1281
X5.828Y-4.1734
X5.828Y-4.2226
X5.8634Y-4.4234
T2
X4.8083Y-3.3801
X4.8128Y-3.5866
X4.9742Y-4.1594
X4.9742Y-4.4803
X5.0638Y-4.4055
X5.1435Y-4.248
X5.2965Y-2.9549
X5.3364Y-3.4488
X5.3538Y-4.1575
X5.4067Y-3.9746
X5.4112Y-4.0551
X5.4624Y-5.0827
X5.4697Y-3.7856
X5.486Y-4.8268
X5.5012Y-3.8142
X5.5406Y-3.8289
X5.5746Y-4.5551
X5.5984Y-4.1203
X5.6042Y-5.0727
X5.6331Y-2.9648
X5.698Y-3.7463
X5.702Y-3.3329
X5.7059Y-4.3604
X5.7689Y-3.7463
X5.7984Y-4.5553
X5.8876Y-4.748
X5.9224Y-4.5573
X5.9303Y-3.6764
X5.9677Y-2.9648
X5.9815Y-3.5415
X5.9854Y-3.6488
X6.0272Y-3.3492
X6.0445Y-3.6203
X6.1114Y-3.9667
X6.1114Y-4.0337
X6.1114Y-4.1006
X6.1252Y-4.2344
X6.135Y-3.8604
X6.1752Y-4.1909
X6.2101Y-4.1658
X6.25Y-4.1457
X6.2813Y-4.5157
X6.3167Y-4.2165
X6.375Y-4.0551
X6.49Y-4.2165
X6.4921Y-2.8457
X6.5287Y-3.7738
X6.5333Y-4.7953
X6.5766Y-3.2677
X6.6232Y-4.2463
X6.6272Y-4.0278
X6.7057Y-4.8789
X6.7217Y-4.0022
X6.7256Y-4.3132
X6.7508Y-4.4961
X6.8083Y-4.2699
T3
X6.3858Y-4.4161
X6.3858Y-4.4661
X6.3858Y-4.5161
X6.3858Y-4.5661
X6.3858Y-4.6161
X6.4358Y-4.4161
X6.4358Y-4.4661
X6.4358Y-4.5161
X6.4358Y-4.5661
X6.4358Y-4.6161
T4
X4.812Y-4.9055
X4.812Y-5.0055
X5.1396Y-5.1772
X5.2656Y-3.8465
X5.2656Y-4.0787
X5.3207Y-5.1772
X5.6766Y-5.1811
X5.7766Y-5.1811
X5.8083Y-4.6596
X6.0593Y-5.1811
X6.1323Y-3.2992
X6.1593Y-5.1811
X6.2323Y-3.2992
X6.2577Y-3.7559
X6.2577Y-3.9882
X6.2593Y-5.1811
X6.3325Y-4.9213
X6.3593Y-5.1811
X6.547Y-5.1811
X6.647Y-5.1811
X6.747Y-5.1811
X6.8039Y-3.1988
X6.8039Y-3.2988
X6.8039Y-3.3988
X6.8039Y-3.4988
T0
M30
