%TF.GenerationSoftware,KiCad,Pcbnew,6.0.2-378541a8eb~116~ubuntu20.04.1*%
%TF.CreationDate,2022-03-08T12:22:36-08:00*%
%TF.ProjectId,RP2040_WEDS,52503230-3430-45f5-9745-44532e6b6963,rev?*%
%TF.SameCoordinates,Original*%
%TF.FileFunction,Copper,L2,Bot*%
%TF.FilePolarity,Positive*%
%FSLAX46Y46*%
G04 Gerber Fmt 4.6, Leading zero omitted, Abs format (unit mm)*
G04 Created by KiCad (PCBNEW 6.0.2-378541a8eb~116~ubuntu20.04.1) date 2022-03-08 12:22:36*
%MOMM*%
%LPD*%
G01*
G04 APERTURE LIST*
%TA.AperFunction,ComponentPad*%
%ADD10O,1.700000X1.700000*%
%TD*%
%TA.AperFunction,ComponentPad*%
%ADD11R,1.700000X1.700000*%
%TD*%
%TA.AperFunction,ComponentPad*%
%ADD12O,1.000000X1.000000*%
%TD*%
%TA.AperFunction,ComponentPad*%
%ADD13R,1.000000X1.000000*%
%TD*%
%TA.AperFunction,SMDPad,CuDef*%
%ADD14R,1.500000X5.080000*%
%TD*%
%TA.AperFunction,ComponentPad*%
%ADD15C,2.000000*%
%TD*%
%TA.AperFunction,ViaPad*%
%ADD16C,0.800000*%
%TD*%
%TA.AperFunction,ViaPad*%
%ADD17C,0.600000*%
%TD*%
%TA.AperFunction,Conductor*%
%ADD18C,0.250000*%
%TD*%
%TA.AperFunction,Conductor*%
%ADD19C,0.200000*%
%TD*%
%TA.AperFunction,Conductor*%
%ADD20C,1.000000*%
%TD*%
%TA.AperFunction,Conductor*%
%ADD21C,0.350000*%
%TD*%
%TA.AperFunction,Conductor*%
%ADD22C,2.000000*%
%TD*%
G04 APERTURE END LIST*
D10*
%TO.P,J5,3,Pin_3*%
%TO.N,GND*%
X166295000Y-131600000D03*
%TO.P,J5,2,Pin_2*%
%TO.N,SOIL_SIG*%
X168835000Y-131600000D03*
D11*
%TO.P,J5,1,Pin_1*%
%TO.N,Net-(J5-Pad1)*%
X171375000Y-131600000D03*
%TD*%
D10*
%TO.P,J3,4,Pin_4*%
%TO.N,SDA_SOIL*%
X153905000Y-131600000D03*
%TO.P,J3,3,Pin_3*%
%TO.N,SCL_SOIL*%
X156445000Y-131600000D03*
%TO.P,J3,2,Pin_2*%
%TO.N,GND*%
X158985000Y-131600000D03*
D11*
%TO.P,J3,1,Pin_1*%
%TO.N,Net-(J3-Pad1)*%
X161525000Y-131600000D03*
%TD*%
D12*
%TO.P,J7,10,Pin_10*%
%TO.N,RESET*%
X162200000Y-112170000D03*
%TO.P,J7,9,Pin_9*%
%TO.N,GND*%
X163470000Y-112170000D03*
%TO.P,J7,8,Pin_8*%
%TO.N,unconnected-(J7-Pad8)*%
X162200000Y-113440000D03*
%TO.P,J7,7,Pin_7*%
%TO.N,GND*%
X163470000Y-113440000D03*
%TO.P,J7,6,Pin_6*%
%TO.N,unconnected-(J7-Pad6)*%
X162200000Y-114710000D03*
%TO.P,J7,5,Pin_5*%
%TO.N,GND*%
X163470000Y-114710000D03*
%TO.P,J7,4,Pin_4*%
%TO.N,SWD_CLK*%
X162200000Y-115980000D03*
%TO.P,J7,3,Pin_3*%
%TO.N,GND*%
X163470000Y-115980000D03*
%TO.P,J7,2,Pin_2*%
%TO.N,SWD_DIO*%
X162200000Y-117250000D03*
D13*
%TO.P,J7,1,Pin_1*%
%TO.N,+3V3*%
X163470000Y-117250000D03*
%TD*%
D14*
%TO.P,J8,4*%
%TO.N,GND*%
X143080000Y-71055000D03*
%TO.P,J8,5*%
X151580000Y-71055000D03*
%TD*%
D15*
%TO.P,TP3,1,1*%
%TO.N,VDC*%
X135145000Y-131500000D03*
%TD*%
%TO.P,TP1,1,1*%
%TO.N,+3V3*%
X147530000Y-118355000D03*
%TD*%
%TO.P,TP6,1,1*%
%TO.N,LORA_TX*%
X132145000Y-97700000D03*
%TD*%
%TO.P,TP7,1,1*%
%TO.N,LORA_RX*%
X132145000Y-103600000D03*
%TD*%
%TO.P,TP8,1,1*%
%TO.N,Net-(C14-Pad1)*%
X160845000Y-125000000D03*
%TD*%
%TO.P,TP2,1,1*%
%TO.N,VDD*%
X159745000Y-102100000D03*
%TD*%
D11*
%TO.P,J6,1,Pin_1*%
%TO.N,Net-(J6-Pad1)*%
X172645000Y-81300000D03*
D10*
%TO.P,J6,2,Pin_2*%
%TO.N,USB_DP*%
X172645000Y-83840000D03*
%TO.P,J6,3,Pin_3*%
%TO.N,USB_DN*%
X172645000Y-86380000D03*
%TO.P,J6,4,Pin_4*%
%TO.N,GND*%
X172645000Y-88920000D03*
%TD*%
D15*
%TO.P,TP4,1,1*%
%TO.N,GND*%
X130545000Y-131500000D03*
%TD*%
%TO.P,TP5,1,1*%
%TO.N,+1V1*%
X159745000Y-95900000D03*
%TD*%
D10*
%TO.P,J2,2,Pin_2*%
%TO.N,GND*%
X159785000Y-70800000D03*
D11*
%TO.P,J2,1,Pin_1*%
%TO.N,/~{USB_BOOT}*%
X157245000Y-70800000D03*
%TD*%
D10*
%TO.P,J4,2,Pin_2*%
%TO.N,GND*%
X144185000Y-131600000D03*
D11*
%TO.P,J4,1,Pin_1*%
%TO.N,+BATT*%
X146725000Y-131600000D03*
%TD*%
%TO.P,J9,1,Pin_1*%
%TO.N,Net-(J9-Pad1)*%
X122225000Y-124600000D03*
D10*
%TO.P,J9,2,Pin_2*%
%TO.N,GND*%
X122225000Y-127140000D03*
%TD*%
D16*
%TO.N,GND*%
X143080000Y-75305000D03*
D17*
X146852500Y-106055000D03*
X148030000Y-107255000D03*
D16*
X130645000Y-107900000D03*
X156045000Y-100500000D03*
X139345000Y-122600000D03*
D17*
X148030000Y-106005000D03*
D16*
X126345000Y-105650000D03*
X140245000Y-83300000D03*
X149545000Y-120600000D03*
X145645000Y-83300000D03*
D17*
X145630000Y-104855000D03*
X146830000Y-104855000D03*
D16*
X144930000Y-110755000D03*
X170325000Y-123925000D03*
X155995000Y-107555000D03*
X156045000Y-103900000D03*
X137645000Y-103345000D03*
D17*
X145630000Y-106055000D03*
D16*
X138745000Y-129100000D03*
X172930000Y-108455000D03*
X171805000Y-69400000D03*
X151580000Y-75305000D03*
X138745000Y-93899500D03*
X168230000Y-107855000D03*
X165945000Y-121800000D03*
X141595000Y-115700000D03*
X156045000Y-102200000D03*
X137145000Y-106600000D03*
X124245000Y-85700000D03*
X147045000Y-115900000D03*
X138445000Y-79200000D03*
X126345000Y-113800000D03*
X155830000Y-98055000D03*
X149845000Y-90500000D03*
X137645000Y-101345000D03*
X145545000Y-95155000D03*
X136045000Y-69700000D03*
D17*
X146830000Y-107255000D03*
D16*
X142347266Y-128847266D03*
X128620000Y-111900000D03*
D17*
X148030000Y-104855000D03*
X145630000Y-107255000D03*
D16*
X171470000Y-114200000D03*
X121645000Y-75800000D03*
X150145000Y-115900000D03*
%TO.N,SOIL_SIG*%
X158750000Y-105300000D03*
%TO.N,SCL_SOIL*%
X157737508Y-105812492D03*
%TO.N,SDA_SOIL*%
X156850000Y-106450000D03*
%TO.N,RESET*%
X162245000Y-105500000D03*
X171145000Y-77500000D03*
%TO.N,SWD_DIO*%
X159545000Y-114700000D03*
%TO.N,DONE*%
X160445000Y-107100000D03*
X164845000Y-107100000D03*
%TO.N,VDD*%
X170730000Y-101655000D03*
X170830000Y-109555000D03*
D17*
%TO.N,+1V1*%
X147530000Y-108155000D03*
X148930000Y-112355000D03*
X146630000Y-100755000D03*
X147680000Y-103955000D03*
D16*
%TO.N,Net-(J6-Pad1)*%
X122245000Y-99700000D03*
%TD*%
D18*
%TO.N,SOIL_SIG*%
X158750000Y-105300000D02*
X158745000Y-105305000D01*
X158745000Y-119495000D02*
X168835000Y-129585000D01*
X158745000Y-105305000D02*
X158745000Y-119495000D01*
X168835000Y-129585000D02*
X168835000Y-131600000D01*
%TO.N,SCL_SOIL*%
X158025000Y-106099984D02*
X158025000Y-129195000D01*
X157737508Y-105812492D02*
X158025000Y-106099984D01*
X156445000Y-130775000D02*
X156445000Y-131600000D01*
X158025000Y-129195000D02*
X156445000Y-130775000D01*
%TO.N,SDA_SOIL*%
X157325000Y-127965000D02*
X153905000Y-131385000D01*
X153905000Y-131385000D02*
X153905000Y-131600000D01*
X156850000Y-106450000D02*
X157325000Y-106925000D01*
X157325000Y-106925000D02*
X157325000Y-127965000D01*
%TO.N,RESET*%
X174145000Y-80500000D02*
X171145000Y-77500000D01*
X174145000Y-91000000D02*
X174145000Y-80500000D01*
X162245000Y-105500000D02*
X162245000Y-102900000D01*
X162245000Y-102900000D02*
X174145000Y-91000000D01*
D19*
%TO.N,SWD_DIO*%
X162200000Y-117250000D02*
X159650000Y-114700000D01*
X159650000Y-114700000D02*
X159545000Y-114700000D01*
D18*
%TO.N,DONE*%
X160445000Y-107100000D02*
X164845000Y-107100000D01*
D20*
%TO.N,VDD*%
X170730000Y-101655000D02*
X170730000Y-109455000D01*
X170730000Y-109455000D02*
X170830000Y-109555000D01*
D18*
%TO.N,+1V1*%
X146630000Y-102905000D02*
X146630000Y-100755000D01*
D21*
X147530000Y-108155000D02*
X147530000Y-110955000D01*
X147530000Y-110955000D02*
X148930000Y-112355000D01*
D18*
X147680000Y-103955000D02*
X146630000Y-102905000D01*
D22*
%TO.N,Net-(J6-Pad1)*%
X136245000Y-85700000D02*
X122245000Y-99700000D01*
X172645000Y-81300000D02*
X155145000Y-81300000D01*
X150745000Y-85700000D02*
X136245000Y-85700000D01*
X155145000Y-81300000D02*
X150745000Y-85700000D01*
%TD*%
%TA.AperFunction,Conductor*%
%TO.N,GND*%
G36*
X141747500Y-68354962D02*
G01*
X141802038Y-68409500D01*
X141822000Y-68484000D01*
X141822000Y-70781384D01*
X141826145Y-70796855D01*
X141841616Y-70801000D01*
X144318383Y-70801000D01*
X144333854Y-70796855D01*
X144337999Y-70781384D01*
X144337999Y-68484000D01*
X144357961Y-68409500D01*
X144412499Y-68354962D01*
X144486999Y-68335000D01*
X150173000Y-68335000D01*
X150247500Y-68354962D01*
X150302038Y-68409500D01*
X150322000Y-68484000D01*
X150322000Y-70781384D01*
X150326145Y-70796855D01*
X150341616Y-70801000D01*
X152818383Y-70801000D01*
X152833854Y-70796855D01*
X152837999Y-70781384D01*
X152837999Y-68484000D01*
X152857961Y-68409500D01*
X152912499Y-68354962D01*
X152986999Y-68335000D01*
X174471000Y-68335000D01*
X174545500Y-68354962D01*
X174600038Y-68409500D01*
X174620000Y-68484000D01*
X174620000Y-80154131D01*
X174600038Y-80228631D01*
X174545500Y-80283169D01*
X174471000Y-80303131D01*
X174396500Y-80283169D01*
X174375227Y-80268273D01*
X174370085Y-80263958D01*
X174360512Y-80255186D01*
X171785729Y-77680403D01*
X171747165Y-77613608D01*
X171743363Y-77555597D01*
X171749407Y-77509686D01*
X171749407Y-77509685D01*
X171750682Y-77500000D01*
X171730044Y-77343238D01*
X171669536Y-77197159D01*
X171573282Y-77071718D01*
X171447841Y-76975464D01*
X171301762Y-76914956D01*
X171292081Y-76913681D01*
X171292079Y-76913681D01*
X171154685Y-76895593D01*
X171145000Y-76894318D01*
X171135315Y-76895593D01*
X170997921Y-76913681D01*
X170997919Y-76913681D01*
X170988238Y-76914956D01*
X170842159Y-76975464D01*
X170716718Y-77071718D01*
X170620464Y-77197159D01*
X170559956Y-77343238D01*
X170539318Y-77500000D01*
X170559956Y-77656762D01*
X170620464Y-77802841D01*
X170716718Y-77928282D01*
X170842159Y-78024536D01*
X170988238Y-78085044D01*
X170997919Y-78086319D01*
X170997921Y-78086319D01*
X171135315Y-78104407D01*
X171145000Y-78105682D01*
X171154685Y-78104407D01*
X171154686Y-78104407D01*
X171200597Y-78098363D01*
X171277065Y-78108430D01*
X171325403Y-78140729D01*
X173063353Y-79878679D01*
X173101917Y-79945474D01*
X173101917Y-80022602D01*
X173063353Y-80089397D01*
X172996558Y-80127961D01*
X172913811Y-80126337D01*
X172895667Y-80120703D01*
X172888890Y-80119901D01*
X172888886Y-80119900D01*
X172720877Y-80100015D01*
X172720873Y-80100015D01*
X172716524Y-80099500D01*
X155190496Y-80099500D01*
X155180752Y-80099181D01*
X155113440Y-80094769D01*
X155106656Y-80095572D01*
X155106655Y-80095572D01*
X155076165Y-80099181D01*
X155021395Y-80105664D01*
X155017531Y-80106070D01*
X154925289Y-80114546D01*
X154918721Y-80116398D01*
X154911994Y-80117645D01*
X154911971Y-80117522D01*
X154907772Y-80118358D01*
X154907798Y-80118480D01*
X154901116Y-80119900D01*
X154894333Y-80120703D01*
X154805814Y-80148188D01*
X154802135Y-80149278D01*
X154712936Y-80174435D01*
X154706811Y-80177455D01*
X154700430Y-80179905D01*
X154700386Y-80179789D01*
X154696412Y-80181374D01*
X154696460Y-80181489D01*
X154690142Y-80184106D01*
X154683621Y-80186131D01*
X154601605Y-80229281D01*
X154598210Y-80231011D01*
X154515053Y-80272020D01*
X154509579Y-80276108D01*
X154503753Y-80279678D01*
X154503688Y-80279572D01*
X154500071Y-80281854D01*
X154500139Y-80281959D01*
X154494405Y-80285683D01*
X154488360Y-80288863D01*
X154482993Y-80293094D01*
X154415631Y-80346198D01*
X154412536Y-80348573D01*
X154343746Y-80399941D01*
X154343742Y-80399945D01*
X154338267Y-80404033D01*
X154333629Y-80409050D01*
X154333626Y-80409053D01*
X154279900Y-80467174D01*
X154275845Y-80471392D01*
X150291378Y-84455859D01*
X150224583Y-84494423D01*
X150186019Y-84499500D01*
X136290486Y-84499500D01*
X136280741Y-84499181D01*
X136276863Y-84498927D01*
X136213440Y-84494770D01*
X136206656Y-84495573D01*
X136206653Y-84495573D01*
X136121428Y-84505660D01*
X136117550Y-84506068D01*
X136053171Y-84511984D01*
X136025289Y-84514546D01*
X136018711Y-84516401D01*
X136012000Y-84517645D01*
X136011977Y-84517522D01*
X136007772Y-84518359D01*
X136007798Y-84518480D01*
X136001116Y-84519900D01*
X135994333Y-84520703D01*
X135905814Y-84548188D01*
X135902135Y-84549278D01*
X135812936Y-84574435D01*
X135806811Y-84577455D01*
X135800430Y-84579905D01*
X135800386Y-84579789D01*
X135796412Y-84581374D01*
X135796460Y-84581489D01*
X135790142Y-84584106D01*
X135783621Y-84586131D01*
X135701605Y-84629281D01*
X135698210Y-84631011D01*
X135615053Y-84672020D01*
X135609579Y-84676108D01*
X135603753Y-84679678D01*
X135603688Y-84679572D01*
X135600071Y-84681854D01*
X135600139Y-84681959D01*
X135594405Y-84685683D01*
X135588360Y-84688863D01*
X135571610Y-84702068D01*
X135515631Y-84746198D01*
X135512536Y-84748573D01*
X135443746Y-84799941D01*
X135443742Y-84799945D01*
X135438267Y-84804033D01*
X135433629Y-84809050D01*
X135433626Y-84809053D01*
X135379900Y-84867174D01*
X135375845Y-84871392D01*
X121356542Y-98890695D01*
X121354360Y-98893318D01*
X121354355Y-98893324D01*
X121255770Y-99011860D01*
X121251398Y-99017117D01*
X121143590Y-99209621D01*
X121141397Y-99216082D01*
X121074862Y-99412086D01*
X121074861Y-99412092D01*
X121072669Y-99418548D01*
X121041009Y-99636902D01*
X121049671Y-99857368D01*
X121098366Y-100072565D01*
X121101064Y-100078844D01*
X121177584Y-100256948D01*
X121185461Y-100275283D01*
X121308040Y-100458735D01*
X121461998Y-100616778D01*
X121642178Y-100744117D01*
X121648386Y-100746979D01*
X121836343Y-100833630D01*
X121836348Y-100833632D01*
X121842548Y-100836490D01*
X122056396Y-100890800D01*
X122063207Y-100891246D01*
X122063211Y-100891247D01*
X122210084Y-100900873D01*
X122276560Y-100905230D01*
X122283344Y-100904427D01*
X122283346Y-100904427D01*
X122427453Y-100887370D01*
X122495667Y-100879296D01*
X122502189Y-100877271D01*
X122502193Y-100877270D01*
X122699852Y-100815896D01*
X122699855Y-100815895D01*
X122706379Y-100813869D01*
X122829101Y-100749302D01*
X122830011Y-100748823D01*
X146124391Y-100748823D01*
X146142980Y-100890979D01*
X146200720Y-101022203D01*
X146207551Y-101030330D01*
X146207552Y-101030331D01*
X146269557Y-101104095D01*
X146302214Y-101173969D01*
X146304500Y-101199970D01*
X146304500Y-102884280D01*
X146303933Y-102897266D01*
X146300736Y-102933807D01*
X146310229Y-102969232D01*
X146313042Y-102981923D01*
X146317148Y-103005207D01*
X146319412Y-103018045D01*
X146325723Y-103028975D01*
X146326297Y-103030797D01*
X146327179Y-103032491D01*
X146330446Y-103044684D01*
X146351491Y-103074739D01*
X146358461Y-103085680D01*
X146376806Y-103117455D01*
X146386789Y-103125832D01*
X146386790Y-103125833D01*
X146404904Y-103141032D01*
X146414488Y-103149814D01*
X147132693Y-103868020D01*
X147171257Y-103934815D01*
X147175075Y-103954057D01*
X147192980Y-104090979D01*
X147250720Y-104222203D01*
X147257551Y-104230330D01*
X147257552Y-104230331D01*
X147306143Y-104288137D01*
X147342970Y-104331948D01*
X147462313Y-104411390D01*
X147472442Y-104414554D01*
X147472443Y-104414555D01*
X147495804Y-104421853D01*
X147599157Y-104454142D01*
X147609764Y-104454336D01*
X147609767Y-104454337D01*
X147672020Y-104455478D01*
X147742499Y-104456770D01*
X147795543Y-104442308D01*
X147870574Y-104421853D01*
X147870577Y-104421852D01*
X147880817Y-104419060D01*
X147889862Y-104413506D01*
X147889865Y-104413505D01*
X147993942Y-104349601D01*
X148002991Y-104344045D01*
X148058351Y-104282884D01*
X148092077Y-104245624D01*
X148092078Y-104245622D01*
X148099200Y-104237754D01*
X148161710Y-104108733D01*
X148163471Y-104098267D01*
X148184542Y-103973027D01*
X148184543Y-103973021D01*
X148185496Y-103967354D01*
X148185647Y-103955000D01*
X148165323Y-103813082D01*
X148135654Y-103747827D01*
X148110378Y-103692235D01*
X148110376Y-103692232D01*
X148105984Y-103682572D01*
X148099058Y-103674534D01*
X148099056Y-103674531D01*
X148059192Y-103628268D01*
X148012400Y-103573963D01*
X148003496Y-103568192D01*
X148003493Y-103568189D01*
X147936723Y-103524911D01*
X147892095Y-103495985D01*
X147845284Y-103481986D01*
X147764912Y-103457949D01*
X147764910Y-103457949D01*
X147754739Y-103454907D01*
X147744121Y-103454842D01*
X147744120Y-103454842D01*
X147723324Y-103454715D01*
X147700715Y-103454577D01*
X147626338Y-103434160D01*
X147596266Y-103410939D01*
X146999141Y-102813815D01*
X146960577Y-102747020D01*
X146955500Y-102708456D01*
X146955500Y-102068440D01*
X158539770Y-102068440D01*
X158554200Y-102288604D01*
X158608511Y-102502452D01*
X158611369Y-102508652D01*
X158611371Y-102508657D01*
X158698022Y-102696616D01*
X158700883Y-102702821D01*
X158828222Y-102883002D01*
X158986264Y-103036961D01*
X159169717Y-103159540D01*
X159372436Y-103246635D01*
X159587632Y-103295329D01*
X159633767Y-103297142D01*
X159801269Y-103303723D01*
X159801272Y-103303723D01*
X159808098Y-103303991D01*
X160026452Y-103272331D01*
X160032908Y-103270139D01*
X160032914Y-103270138D01*
X160174833Y-103221962D01*
X160235379Y-103201410D01*
X160358293Y-103132575D01*
X160421924Y-103096940D01*
X160421926Y-103096939D01*
X160427884Y-103093602D01*
X160597518Y-102952518D01*
X160738602Y-102782884D01*
X160748291Y-102765584D01*
X160843076Y-102596332D01*
X160846410Y-102590379D01*
X160896097Y-102444006D01*
X160915138Y-102387914D01*
X160915139Y-102387908D01*
X160917331Y-102381452D01*
X160948991Y-102163098D01*
X160950643Y-102100000D01*
X160948370Y-102075258D01*
X160931079Y-101887091D01*
X160930454Y-101880289D01*
X160870565Y-101667936D01*
X160845432Y-101616970D01*
X160776002Y-101476181D01*
X160772980Y-101470053D01*
X160640967Y-101293267D01*
X160635950Y-101288629D01*
X160635947Y-101288626D01*
X160483970Y-101148140D01*
X160483968Y-101148138D01*
X160478949Y-101143499D01*
X160473171Y-101139854D01*
X160473168Y-101139851D01*
X160298127Y-101029409D01*
X160292350Y-101025764D01*
X160087421Y-100944006D01*
X159958108Y-100918284D01*
X159877727Y-100902295D01*
X159877724Y-100902295D01*
X159871024Y-100900962D01*
X159759264Y-100899499D01*
X159657240Y-100898163D01*
X159657235Y-100898163D01*
X159650406Y-100898074D01*
X159643673Y-100899231D01*
X159643672Y-100899231D01*
X159613433Y-100904427D01*
X159432957Y-100935438D01*
X159426558Y-100937799D01*
X159426553Y-100937800D01*
X159374220Y-100957107D01*
X159225957Y-101011804D01*
X159036341Y-101124614D01*
X158870457Y-101270090D01*
X158866230Y-101275452D01*
X158866229Y-101275453D01*
X158818120Y-101336480D01*
X158733863Y-101443360D01*
X158716595Y-101476181D01*
X158642522Y-101616970D01*
X158631131Y-101638620D01*
X158629106Y-101645143D01*
X158567727Y-101842813D01*
X158567726Y-101842818D01*
X158565703Y-101849333D01*
X158539770Y-102068440D01*
X146955500Y-102068440D01*
X146955500Y-101198693D01*
X146975462Y-101124193D01*
X146994033Y-101098703D01*
X147042077Y-101045624D01*
X147042079Y-101045622D01*
X147049200Y-101037754D01*
X147111710Y-100908733D01*
X147116468Y-100880451D01*
X147134542Y-100773027D01*
X147134543Y-100773021D01*
X147135496Y-100767354D01*
X147135647Y-100755000D01*
X147115323Y-100613082D01*
X147085653Y-100547827D01*
X147060378Y-100492235D01*
X147060376Y-100492232D01*
X147055984Y-100482572D01*
X147049058Y-100474534D01*
X147049056Y-100474531D01*
X147009192Y-100428267D01*
X146962400Y-100373963D01*
X146953496Y-100368192D01*
X146953493Y-100368189D01*
X146886723Y-100324911D01*
X146842095Y-100295985D01*
X146772872Y-100275283D01*
X146714912Y-100257949D01*
X146714910Y-100257949D01*
X146704739Y-100254907D01*
X146694121Y-100254842D01*
X146694120Y-100254842D01*
X146634650Y-100254479D01*
X146561376Y-100254031D01*
X146551171Y-100256948D01*
X146551168Y-100256948D01*
X146433731Y-100290512D01*
X146433729Y-100290513D01*
X146423529Y-100293428D01*
X146414556Y-100299090D01*
X146414555Y-100299090D01*
X146331296Y-100351623D01*
X146302280Y-100369930D01*
X146295256Y-100377884D01*
X146295254Y-100377885D01*
X146248525Y-100430796D01*
X146207377Y-100477388D01*
X146146447Y-100607163D01*
X146144814Y-100617651D01*
X146130259Y-100711137D01*
X146124391Y-100748823D01*
X122830011Y-100748823D01*
X122895590Y-100714321D01*
X122895593Y-100714319D01*
X122901641Y-100711137D01*
X123043307Y-100599457D01*
X125974324Y-97668440D01*
X130939770Y-97668440D01*
X130954200Y-97888604D01*
X131008511Y-98102452D01*
X131011369Y-98108652D01*
X131011371Y-98108657D01*
X131098022Y-98296616D01*
X131100883Y-98302821D01*
X131228222Y-98483002D01*
X131386264Y-98636961D01*
X131569717Y-98759540D01*
X131772436Y-98846635D01*
X131987632Y-98895329D01*
X132033767Y-98897142D01*
X132201269Y-98903723D01*
X132201272Y-98903723D01*
X132208098Y-98903991D01*
X132426452Y-98872331D01*
X132432908Y-98870139D01*
X132432914Y-98870138D01*
X132574833Y-98821962D01*
X132635379Y-98801410D01*
X132827884Y-98693602D01*
X132997518Y-98552518D01*
X133138602Y-98382884D01*
X133180315Y-98308401D01*
X133243076Y-98196332D01*
X133246410Y-98190379D01*
X133278506Y-98095828D01*
X133315138Y-97987914D01*
X133315139Y-97987908D01*
X133317331Y-97981452D01*
X133348991Y-97763098D01*
X133350643Y-97700000D01*
X133348370Y-97675258D01*
X133331079Y-97487091D01*
X133330454Y-97480289D01*
X133270565Y-97267936D01*
X133172980Y-97070053D01*
X133040967Y-96893267D01*
X133035950Y-96888629D01*
X133035947Y-96888626D01*
X132883970Y-96748140D01*
X132883968Y-96748138D01*
X132878949Y-96743499D01*
X132873171Y-96739854D01*
X132873168Y-96739851D01*
X132698127Y-96629409D01*
X132692350Y-96625764D01*
X132487421Y-96544006D01*
X132427541Y-96532095D01*
X132277727Y-96502295D01*
X132277724Y-96502295D01*
X132271024Y-96500962D01*
X132159264Y-96499499D01*
X132057240Y-96498163D01*
X132057235Y-96498163D01*
X132050406Y-96498074D01*
X132043673Y-96499231D01*
X132043672Y-96499231D01*
X131990305Y-96508401D01*
X131832957Y-96535438D01*
X131826558Y-96537799D01*
X131826553Y-96537800D01*
X131720504Y-96576924D01*
X131625957Y-96611804D01*
X131436341Y-96724614D01*
X131270457Y-96870090D01*
X131266230Y-96875452D01*
X131266229Y-96875453D01*
X131165205Y-97003603D01*
X131133863Y-97043360D01*
X131031131Y-97238620D01*
X131029106Y-97245143D01*
X130967727Y-97442813D01*
X130967726Y-97442818D01*
X130965703Y-97449333D01*
X130939770Y-97668440D01*
X125974324Y-97668440D01*
X127774324Y-95868440D01*
X158539770Y-95868440D01*
X158554200Y-96088604D01*
X158608511Y-96302452D01*
X158611369Y-96308652D01*
X158611371Y-96308657D01*
X158698022Y-96496616D01*
X158700883Y-96502821D01*
X158828222Y-96683002D01*
X158986264Y-96836961D01*
X159169717Y-96959540D01*
X159372436Y-97046635D01*
X159587632Y-97095329D01*
X159633767Y-97097142D01*
X159801269Y-97103723D01*
X159801272Y-97103723D01*
X159808098Y-97103991D01*
X160026452Y-97072331D01*
X160032908Y-97070139D01*
X160032914Y-97070138D01*
X160174833Y-97021962D01*
X160235379Y-97001410D01*
X160427884Y-96893602D01*
X160597518Y-96752518D01*
X160738602Y-96582884D01*
X160765821Y-96534282D01*
X160843076Y-96396332D01*
X160846410Y-96390379D01*
X160878506Y-96295828D01*
X160915138Y-96187914D01*
X160915139Y-96187908D01*
X160917331Y-96181452D01*
X160948991Y-95963098D01*
X160950643Y-95900000D01*
X160948370Y-95875258D01*
X160931079Y-95687091D01*
X160930454Y-95680289D01*
X160870565Y-95467936D01*
X160772980Y-95270053D01*
X160640967Y-95093267D01*
X160635950Y-95088629D01*
X160635947Y-95088626D01*
X160483970Y-94948140D01*
X160483968Y-94948138D01*
X160478949Y-94943499D01*
X160473171Y-94939854D01*
X160473168Y-94939851D01*
X160298127Y-94829409D01*
X160292350Y-94825764D01*
X160087421Y-94744006D01*
X160027541Y-94732095D01*
X159877727Y-94702295D01*
X159877724Y-94702295D01*
X159871024Y-94700962D01*
X159759264Y-94699499D01*
X159657240Y-94698163D01*
X159657235Y-94698163D01*
X159650406Y-94698074D01*
X159643673Y-94699231D01*
X159643672Y-94699231D01*
X159521843Y-94720165D01*
X159432957Y-94735438D01*
X159426558Y-94737799D01*
X159426553Y-94737800D01*
X159313487Y-94779513D01*
X159225957Y-94811804D01*
X159036341Y-94924614D01*
X158870457Y-95070090D01*
X158866230Y-95075452D01*
X158866229Y-95075453D01*
X158855845Y-95088626D01*
X158733863Y-95243360D01*
X158631131Y-95438620D01*
X158629106Y-95445143D01*
X158567727Y-95642813D01*
X158567726Y-95642818D01*
X158565703Y-95649333D01*
X158539770Y-95868440D01*
X127774324Y-95868440D01*
X134458109Y-89184655D01*
X171312511Y-89184655D01*
X171343355Y-89321518D01*
X171347003Y-89333157D01*
X171426414Y-89528725D01*
X171431910Y-89539606D01*
X171542190Y-89719566D01*
X171549403Y-89729422D01*
X171687591Y-89888950D01*
X171696311Y-89897489D01*
X171858716Y-90032320D01*
X171868686Y-90039302D01*
X172050945Y-90145805D01*
X172061920Y-90151064D01*
X172259127Y-90226370D01*
X172270817Y-90229766D01*
X172371778Y-90250306D01*
X172387765Y-90249328D01*
X172391000Y-90242840D01*
X172391000Y-89193616D01*
X172386855Y-89178145D01*
X172371384Y-89174000D01*
X171329726Y-89174000D01*
X171314255Y-89178145D01*
X171312511Y-89184655D01*
X134458109Y-89184655D01*
X136698623Y-86944141D01*
X136765418Y-86905577D01*
X136803982Y-86900500D01*
X150699515Y-86900500D01*
X150709260Y-86900819D01*
X150776560Y-86905230D01*
X150783344Y-86904427D01*
X150783347Y-86904427D01*
X150868553Y-86894342D01*
X150872431Y-86893934D01*
X150957915Y-86886079D01*
X150957920Y-86886078D01*
X150964711Y-86885454D01*
X150971278Y-86883602D01*
X150978003Y-86882355D01*
X150978026Y-86882477D01*
X150982223Y-86881643D01*
X150982197Y-86881520D01*
X150988883Y-86880099D01*
X150995667Y-86879296D01*
X151084169Y-86851816D01*
X151087842Y-86850728D01*
X151125068Y-86840229D01*
X151170488Y-86827420D01*
X151170492Y-86827418D01*
X151177064Y-86825565D01*
X151183189Y-86822544D01*
X151189572Y-86820094D01*
X151189617Y-86820210D01*
X151193590Y-86818625D01*
X151193542Y-86818510D01*
X151199859Y-86815893D01*
X151206379Y-86813869D01*
X151212422Y-86810690D01*
X151212426Y-86810688D01*
X151288363Y-86770736D01*
X151291838Y-86768965D01*
X151329170Y-86750554D01*
X151374947Y-86727980D01*
X151380418Y-86723894D01*
X151386245Y-86720324D01*
X151386309Y-86720429D01*
X151389936Y-86718140D01*
X151389869Y-86718036D01*
X151395592Y-86714319D01*
X151401641Y-86711137D01*
X151407006Y-86706907D01*
X151407013Y-86706903D01*
X151474436Y-86653751D01*
X151477498Y-86651401D01*
X151551733Y-86595967D01*
X151610087Y-86532840D01*
X151614142Y-86528622D01*
X155598623Y-82544141D01*
X155665418Y-82505577D01*
X155703982Y-82500500D01*
X172491136Y-82500500D01*
X172565636Y-82520462D01*
X172620174Y-82575000D01*
X172622802Y-82584807D01*
X172633208Y-82557698D01*
X172693148Y-82509160D01*
X172740118Y-82496903D01*
X172857909Y-82486079D01*
X172864711Y-82485454D01*
X173077064Y-82425565D01*
X173083193Y-82422543D01*
X173083197Y-82422541D01*
X173198122Y-82365866D01*
X173264023Y-82350500D01*
X173514748Y-82350500D01*
X173521921Y-82349073D01*
X173521923Y-82349073D01*
X173558834Y-82341731D01*
X173558835Y-82341731D01*
X173573231Y-82338867D01*
X173587718Y-82329187D01*
X173595472Y-82326555D01*
X173598991Y-82325097D01*
X173599087Y-82325328D01*
X173660752Y-82304393D01*
X173736398Y-82319439D01*
X173794387Y-82370292D01*
X173819181Y-82443326D01*
X173819500Y-82453074D01*
X173819500Y-83213588D01*
X173799538Y-83288088D01*
X173745000Y-83342626D01*
X173670500Y-83362588D01*
X173596000Y-83342626D01*
X173538941Y-83283539D01*
X173527642Y-83262288D01*
X173527640Y-83262285D01*
X173524218Y-83255849D01*
X173514253Y-83243630D01*
X173398612Y-83101841D01*
X173398610Y-83101839D01*
X173394011Y-83096200D01*
X173388401Y-83091559D01*
X173388398Y-83091556D01*
X173240890Y-82969527D01*
X173240889Y-82969526D01*
X173235275Y-82964882D01*
X173228871Y-82961420D01*
X173228869Y-82961418D01*
X173060468Y-82870364D01*
X173060464Y-82870362D01*
X173054055Y-82866897D01*
X172857254Y-82805977D01*
X172850006Y-82805215D01*
X172850005Y-82805215D01*
X172813807Y-82801411D01*
X172738177Y-82793462D01*
X172666172Y-82765822D01*
X172623190Y-82712743D01*
X172620174Y-82724000D01*
X172565636Y-82778538D01*
X172504640Y-82797887D01*
X172447203Y-82803114D01*
X172440214Y-82805171D01*
X172256560Y-82859223D01*
X172256557Y-82859224D01*
X172249572Y-82861280D01*
X172243117Y-82864655D01*
X172243116Y-82864655D01*
X172232196Y-82870364D01*
X172067002Y-82956726D01*
X171906447Y-83085815D01*
X171901763Y-83091397D01*
X171901760Y-83091400D01*
X171799232Y-83213588D01*
X171774024Y-83243630D01*
X171674776Y-83424162D01*
X171612484Y-83620532D01*
X171611671Y-83627776D01*
X171611671Y-83627778D01*
X171590332Y-83818021D01*
X171589520Y-83825262D01*
X171606759Y-84030553D01*
X171663544Y-84228586D01*
X171757712Y-84411818D01*
X171885677Y-84573270D01*
X171891223Y-84577990D01*
X172021499Y-84688863D01*
X172042564Y-84706791D01*
X172222398Y-84807297D01*
X172418329Y-84870959D01*
X172473907Y-84877586D01*
X172615662Y-84894489D01*
X172615665Y-84894489D01*
X172622894Y-84895351D01*
X172784918Y-84882884D01*
X172821036Y-84880105D01*
X172821037Y-84880105D01*
X172828300Y-84879546D01*
X172896016Y-84860639D01*
X173019707Y-84826105D01*
X173019712Y-84826103D01*
X173026725Y-84824145D01*
X173033226Y-84820861D01*
X173033229Y-84820860D01*
X173204105Y-84734544D01*
X173204106Y-84734544D01*
X173210610Y-84731258D01*
X173372951Y-84604424D01*
X173421505Y-84548173D01*
X173502803Y-84453988D01*
X173502804Y-84453986D01*
X173507564Y-84448472D01*
X173540946Y-84389709D01*
X173595101Y-84334793D01*
X173669460Y-84314312D01*
X173744098Y-84333753D01*
X173799015Y-84387909D01*
X173819500Y-84463308D01*
X173819500Y-85753588D01*
X173799538Y-85828088D01*
X173745000Y-85882626D01*
X173670500Y-85902588D01*
X173596000Y-85882626D01*
X173538941Y-85823539D01*
X173527642Y-85802288D01*
X173527640Y-85802285D01*
X173524218Y-85795849D01*
X173514253Y-85783630D01*
X173398612Y-85641841D01*
X173398610Y-85641839D01*
X173394011Y-85636200D01*
X173388401Y-85631559D01*
X173388398Y-85631556D01*
X173240890Y-85509527D01*
X173240889Y-85509526D01*
X173235275Y-85504882D01*
X173228871Y-85501420D01*
X173228869Y-85501418D01*
X173060468Y-85410364D01*
X173060464Y-85410362D01*
X173054055Y-85406897D01*
X172857254Y-85345977D01*
X172850008Y-85345215D01*
X172850006Y-85345215D01*
X172659610Y-85325204D01*
X172659609Y-85325204D01*
X172652369Y-85324443D01*
X172447203Y-85343114D01*
X172440214Y-85345171D01*
X172256560Y-85399223D01*
X172256557Y-85399224D01*
X172249572Y-85401280D01*
X172243117Y-85404655D01*
X172243116Y-85404655D01*
X172232196Y-85410364D01*
X172067002Y-85496726D01*
X171906447Y-85625815D01*
X171901763Y-85631397D01*
X171901760Y-85631400D01*
X171799232Y-85753588D01*
X171774024Y-85783630D01*
X171674776Y-85964162D01*
X171612484Y-86160532D01*
X171611671Y-86167776D01*
X171611671Y-86167778D01*
X171590332Y-86358021D01*
X171589520Y-86365262D01*
X171606759Y-86570553D01*
X171663544Y-86768586D01*
X171757712Y-86951818D01*
X171885677Y-87113270D01*
X172042564Y-87246791D01*
X172222398Y-87347297D01*
X172229333Y-87349550D01*
X172234228Y-87351689D01*
X172294505Y-87399808D01*
X172322647Y-87471618D01*
X172311114Y-87547879D01*
X172262995Y-87608156D01*
X172220867Y-87629854D01*
X172122756Y-87661922D01*
X172111532Y-87666639D01*
X171924300Y-87764107D01*
X171913981Y-87770605D01*
X171745185Y-87897341D01*
X171736073Y-87905431D01*
X171590248Y-88058029D01*
X171582573Y-88067505D01*
X171463621Y-88241883D01*
X171457607Y-88252470D01*
X171368734Y-88443931D01*
X171364524Y-88455372D01*
X171309542Y-88653629D01*
X171310902Y-88662319D01*
X171320435Y-88666000D01*
X172750000Y-88666000D01*
X172824500Y-88685962D01*
X172879038Y-88740500D01*
X172899000Y-88815000D01*
X172899000Y-90237016D01*
X172903145Y-90252487D01*
X172912271Y-90254932D01*
X172922244Y-90253654D01*
X172934167Y-90251120D01*
X173136348Y-90190463D01*
X173147691Y-90186017D01*
X173337245Y-90093156D01*
X173347715Y-90086915D01*
X173519552Y-89964345D01*
X173528875Y-89956467D01*
X173565325Y-89920143D01*
X173632187Y-89881695D01*
X173709315Y-89881830D01*
X173776042Y-89920510D01*
X173814490Y-89987372D01*
X173819500Y-90025685D01*
X173819500Y-90803455D01*
X173799538Y-90877955D01*
X173775859Y-90908814D01*
X162029488Y-102655186D01*
X162019904Y-102663968D01*
X162001790Y-102679167D01*
X162001789Y-102679169D01*
X161991806Y-102687545D01*
X161973461Y-102719320D01*
X161966491Y-102730261D01*
X161945446Y-102760316D01*
X161942179Y-102772509D01*
X161941297Y-102774203D01*
X161940723Y-102776025D01*
X161934412Y-102786955D01*
X161932149Y-102799791D01*
X161932148Y-102799793D01*
X161928042Y-102823077D01*
X161925230Y-102835761D01*
X161915736Y-102871193D01*
X161916872Y-102884179D01*
X161916872Y-102884180D01*
X161918933Y-102907733D01*
X161919500Y-102920720D01*
X161919500Y-104919372D01*
X161899538Y-104993872D01*
X161861205Y-105037582D01*
X161816718Y-105071718D01*
X161720464Y-105197159D01*
X161659956Y-105343238D01*
X161639318Y-105500000D01*
X161659956Y-105656762D01*
X161720464Y-105802841D01*
X161816718Y-105928282D01*
X161942159Y-106024536D01*
X162088238Y-106085044D01*
X162097919Y-106086319D01*
X162097921Y-106086319D01*
X162235315Y-106104407D01*
X162245000Y-106105682D01*
X162254685Y-106104407D01*
X162392079Y-106086319D01*
X162392081Y-106086319D01*
X162401762Y-106085044D01*
X162547841Y-106024536D01*
X162673282Y-105928282D01*
X162769536Y-105802841D01*
X162830044Y-105656762D01*
X162850682Y-105500000D01*
X162830044Y-105343238D01*
X162769536Y-105197159D01*
X162673282Y-105071718D01*
X162628795Y-105037582D01*
X162581842Y-104976392D01*
X162570500Y-104919372D01*
X162570500Y-103096544D01*
X162590462Y-103022044D01*
X162614141Y-102991185D01*
X174360519Y-91244808D01*
X174370101Y-91236028D01*
X174375223Y-91231730D01*
X174445124Y-91199133D01*
X174521959Y-91205854D01*
X174585139Y-91250092D01*
X174617736Y-91319993D01*
X174620000Y-91345869D01*
X174620000Y-133546000D01*
X174600038Y-133620500D01*
X174545500Y-133675038D01*
X174471000Y-133695000D01*
X120489000Y-133695000D01*
X120414500Y-133675038D01*
X120359962Y-133620500D01*
X120340000Y-133546000D01*
X120340000Y-132733102D01*
X129676971Y-132733102D01*
X129680180Y-132738662D01*
X129853271Y-132844733D01*
X129863676Y-132850034D01*
X130072156Y-132936389D01*
X130083250Y-132939994D01*
X130302680Y-132992675D01*
X130314196Y-132994499D01*
X130539168Y-133012204D01*
X130550832Y-133012204D01*
X130775804Y-132994499D01*
X130787320Y-132992675D01*
X131006750Y-132939994D01*
X131017844Y-132936389D01*
X131226324Y-132850034D01*
X131236729Y-132844733D01*
X131402168Y-132743351D01*
X131413192Y-132731734D01*
X131411368Y-132725578D01*
X130558871Y-131873081D01*
X130545000Y-131865073D01*
X130531129Y-131873081D01*
X129684979Y-132719231D01*
X129676971Y-132733102D01*
X120340000Y-132733102D01*
X120340000Y-131505832D01*
X129032796Y-131505832D01*
X129050501Y-131730804D01*
X129052325Y-131742320D01*
X129105006Y-131961750D01*
X129108611Y-131972844D01*
X129194966Y-132181324D01*
X129200267Y-132191729D01*
X129301649Y-132357168D01*
X129313266Y-132368192D01*
X129319422Y-132366368D01*
X130171919Y-131513871D01*
X130179927Y-131500000D01*
X130910073Y-131500000D01*
X130918081Y-131513871D01*
X131764231Y-132360021D01*
X131778102Y-132368029D01*
X131783662Y-132364820D01*
X131889733Y-132191729D01*
X131895034Y-132181324D01*
X131981389Y-131972844D01*
X131984994Y-131961750D01*
X132037675Y-131742320D01*
X132039499Y-131730804D01*
X132057204Y-131505832D01*
X132057204Y-131494168D01*
X132055179Y-131468440D01*
X133939770Y-131468440D01*
X133940217Y-131475258D01*
X133950052Y-131625310D01*
X133954200Y-131688604D01*
X134008511Y-131902452D01*
X134011369Y-131908652D01*
X134011371Y-131908657D01*
X134098022Y-132096616D01*
X134100883Y-132102821D01*
X134228222Y-132283002D01*
X134386264Y-132436961D01*
X134569717Y-132559540D01*
X134575985Y-132562233D01*
X134575987Y-132562234D01*
X134622806Y-132582349D01*
X134772436Y-132646635D01*
X134987632Y-132695329D01*
X135033767Y-132697142D01*
X135201269Y-132703723D01*
X135201272Y-132703723D01*
X135208098Y-132703991D01*
X135426452Y-132672331D01*
X135432908Y-132670139D01*
X135432914Y-132670138D01*
X135574833Y-132621962D01*
X135635379Y-132601410D01*
X135744256Y-132540436D01*
X135821924Y-132496940D01*
X135821926Y-132496939D01*
X135827884Y-132493602D01*
X135997518Y-132352518D01*
X136138602Y-132182884D01*
X136153911Y-132155549D01*
X136221040Y-132035680D01*
X136246410Y-131990379D01*
X136288946Y-131865073D01*
X136289088Y-131864655D01*
X142852511Y-131864655D01*
X142883355Y-132001518D01*
X142887003Y-132013157D01*
X142966414Y-132208725D01*
X142971910Y-132219606D01*
X143082190Y-132399566D01*
X143089403Y-132409422D01*
X143227591Y-132568950D01*
X143236311Y-132577489D01*
X143398716Y-132712320D01*
X143408686Y-132719302D01*
X143590945Y-132825805D01*
X143601920Y-132831064D01*
X143799127Y-132906370D01*
X143810817Y-132909766D01*
X143911778Y-132930306D01*
X143927765Y-132929328D01*
X143931000Y-132922840D01*
X143931000Y-132917016D01*
X144439000Y-132917016D01*
X144443145Y-132932487D01*
X144452271Y-132934932D01*
X144462244Y-132933654D01*
X144474167Y-132931120D01*
X144676348Y-132870463D01*
X144687691Y-132866017D01*
X144877245Y-132773156D01*
X144887715Y-132766915D01*
X145059552Y-132644345D01*
X145068874Y-132636467D01*
X145218381Y-132487480D01*
X145226281Y-132478198D01*
X145349451Y-132306789D01*
X145355734Y-132296332D01*
X145391924Y-132223107D01*
X145442828Y-132165164D01*
X145515885Y-132140436D01*
X145591518Y-132155549D01*
X145649461Y-132206453D01*
X145674189Y-132279510D01*
X145674500Y-132289125D01*
X145674500Y-132469748D01*
X145675927Y-132476921D01*
X145675927Y-132476923D01*
X145678779Y-132491258D01*
X145686133Y-132528231D01*
X145694288Y-132540435D01*
X145694288Y-132540436D01*
X145719047Y-132577489D01*
X145730448Y-132594552D01*
X145742651Y-132602706D01*
X145781561Y-132628705D01*
X145796769Y-132638867D01*
X145811165Y-132641731D01*
X145811166Y-132641731D01*
X145848077Y-132649073D01*
X145848079Y-132649073D01*
X145855252Y-132650500D01*
X147594748Y-132650500D01*
X147601921Y-132649073D01*
X147601923Y-132649073D01*
X147638834Y-132641731D01*
X147638835Y-132641731D01*
X147653231Y-132638867D01*
X147668440Y-132628705D01*
X147707349Y-132602706D01*
X147719552Y-132594552D01*
X147730953Y-132577489D01*
X147755712Y-132540436D01*
X147755712Y-132540435D01*
X147763867Y-132528231D01*
X147771222Y-132491258D01*
X147774073Y-132476923D01*
X147774073Y-132476921D01*
X147775500Y-132469748D01*
X147775500Y-131585262D01*
X152849520Y-131585262D01*
X152866759Y-131790553D01*
X152923544Y-131988586D01*
X152926874Y-131995066D01*
X152926875Y-131995068D01*
X152938078Y-132016866D01*
X153017712Y-132171818D01*
X153145677Y-132333270D01*
X153151223Y-132337990D01*
X153271971Y-132440754D01*
X153302564Y-132466791D01*
X153482398Y-132567297D01*
X153678329Y-132630959D01*
X153733907Y-132637586D01*
X153875662Y-132654489D01*
X153875665Y-132654489D01*
X153882894Y-132655351D01*
X154044918Y-132642884D01*
X154081036Y-132640105D01*
X154081037Y-132640105D01*
X154088300Y-132639546D01*
X154156016Y-132620639D01*
X154279707Y-132586105D01*
X154279712Y-132586103D01*
X154286725Y-132584145D01*
X154293226Y-132580861D01*
X154293229Y-132580860D01*
X154464105Y-132494544D01*
X154464106Y-132494544D01*
X154470610Y-132491258D01*
X154632951Y-132364424D01*
X154754932Y-132223107D01*
X154762803Y-132213988D01*
X154762804Y-132213986D01*
X154767564Y-132208472D01*
X154785486Y-132176924D01*
X154865724Y-132035680D01*
X154865725Y-132035677D01*
X154869323Y-132029344D01*
X154934351Y-131833863D01*
X154960171Y-131629474D01*
X154960583Y-131600000D01*
X154940480Y-131394970D01*
X154907909Y-131287091D01*
X154883041Y-131204724D01*
X154883041Y-131204723D01*
X154880935Y-131197749D01*
X154877405Y-131191109D01*
X154843274Y-131126919D01*
X154818712Y-131080723D01*
X154801362Y-131005573D01*
X154823912Y-130931815D01*
X154844912Y-130905414D01*
X157445141Y-128305186D01*
X157511936Y-128266622D01*
X157589064Y-128266622D01*
X157655859Y-128305186D01*
X157694423Y-128371981D01*
X157699500Y-128410545D01*
X157699500Y-128998455D01*
X157679538Y-129072955D01*
X157655859Y-129103814D01*
X156229488Y-130530186D01*
X156219904Y-130538968D01*
X156191806Y-130562545D01*
X156190019Y-130560416D01*
X156142672Y-130593572D01*
X156133780Y-130596496D01*
X156103364Y-130605448D01*
X156056560Y-130619223D01*
X156056557Y-130619224D01*
X156049572Y-130621280D01*
X156043117Y-130624655D01*
X156043116Y-130624655D01*
X156029434Y-130631808D01*
X155867002Y-130716726D01*
X155808126Y-130764063D01*
X155753143Y-130808271D01*
X155706447Y-130845815D01*
X155701763Y-130851397D01*
X155701760Y-130851400D01*
X155609222Y-130961683D01*
X155574024Y-131003630D01*
X155474776Y-131184162D01*
X155472573Y-131191106D01*
X155472572Y-131191109D01*
X155451455Y-131257680D01*
X155412484Y-131380532D01*
X155411671Y-131387776D01*
X155411671Y-131387778D01*
X155398592Y-131504383D01*
X155389520Y-131585262D01*
X155406759Y-131790553D01*
X155463544Y-131988586D01*
X155466874Y-131995066D01*
X155466875Y-131995068D01*
X155478078Y-132016866D01*
X155557712Y-132171818D01*
X155685677Y-132333270D01*
X155691223Y-132337990D01*
X155811971Y-132440754D01*
X155842564Y-132466791D01*
X156022398Y-132567297D01*
X156218329Y-132630959D01*
X156273907Y-132637586D01*
X156415662Y-132654489D01*
X156415665Y-132654489D01*
X156422894Y-132655351D01*
X156584918Y-132642884D01*
X156621036Y-132640105D01*
X156621037Y-132640105D01*
X156628300Y-132639546D01*
X156696016Y-132620639D01*
X156819707Y-132586105D01*
X156819712Y-132586103D01*
X156826725Y-132584145D01*
X156833226Y-132580861D01*
X156833229Y-132580860D01*
X157004105Y-132494544D01*
X157004106Y-132494544D01*
X157010610Y-132491258D01*
X157172951Y-132364424D01*
X157294932Y-132223107D01*
X157302803Y-132213988D01*
X157302804Y-132213986D01*
X157307564Y-132208472D01*
X157325486Y-132176924D01*
X157405724Y-132035680D01*
X157405725Y-132035677D01*
X157409323Y-132029344D01*
X157411624Y-132022427D01*
X157414586Y-132015774D01*
X157417040Y-132016866D01*
X157452303Y-131963391D01*
X157521268Y-131928858D01*
X157598260Y-131933435D01*
X157662649Y-131975895D01*
X157689277Y-132018759D01*
X157766414Y-132208725D01*
X157771910Y-132219606D01*
X157882190Y-132399566D01*
X157889403Y-132409422D01*
X158027591Y-132568950D01*
X158036311Y-132577489D01*
X158198716Y-132712320D01*
X158208686Y-132719302D01*
X158390945Y-132825805D01*
X158401920Y-132831064D01*
X158599127Y-132906370D01*
X158610817Y-132909766D01*
X158711778Y-132930306D01*
X158727765Y-132929328D01*
X158731000Y-132922840D01*
X158731000Y-132917016D01*
X159239000Y-132917016D01*
X159243145Y-132932487D01*
X159252271Y-132934932D01*
X159262244Y-132933654D01*
X159274167Y-132931120D01*
X159476348Y-132870463D01*
X159487691Y-132866017D01*
X159677245Y-132773156D01*
X159687715Y-132766915D01*
X159859552Y-132644345D01*
X159868874Y-132636467D01*
X160018381Y-132487480D01*
X160026281Y-132478198D01*
X160149451Y-132306789D01*
X160155734Y-132296332D01*
X160191924Y-132223107D01*
X160242828Y-132165164D01*
X160315885Y-132140436D01*
X160391518Y-132155549D01*
X160449461Y-132206453D01*
X160474189Y-132279510D01*
X160474500Y-132289125D01*
X160474500Y-132469748D01*
X160475927Y-132476921D01*
X160475927Y-132476923D01*
X160478779Y-132491258D01*
X160486133Y-132528231D01*
X160494288Y-132540435D01*
X160494288Y-132540436D01*
X160519047Y-132577489D01*
X160530448Y-132594552D01*
X160542651Y-132602706D01*
X160581561Y-132628705D01*
X160596769Y-132638867D01*
X160611165Y-132641731D01*
X160611166Y-132641731D01*
X160648077Y-132649073D01*
X160648079Y-132649073D01*
X160655252Y-132650500D01*
X162394748Y-132650500D01*
X162401921Y-132649073D01*
X162401923Y-132649073D01*
X162438834Y-132641731D01*
X162438835Y-132641731D01*
X162453231Y-132638867D01*
X162468440Y-132628705D01*
X162507349Y-132602706D01*
X162519552Y-132594552D01*
X162530953Y-132577489D01*
X162555712Y-132540436D01*
X162555712Y-132540435D01*
X162563867Y-132528231D01*
X162571222Y-132491258D01*
X162574073Y-132476923D01*
X162574073Y-132476921D01*
X162575500Y-132469748D01*
X162575500Y-131864655D01*
X164962511Y-131864655D01*
X164993355Y-132001518D01*
X164997003Y-132013157D01*
X165076414Y-132208725D01*
X165081910Y-132219606D01*
X165192190Y-132399566D01*
X165199403Y-132409422D01*
X165337591Y-132568950D01*
X165346311Y-132577489D01*
X165508716Y-132712320D01*
X165518686Y-132719302D01*
X165700945Y-132825805D01*
X165711920Y-132831064D01*
X165909127Y-132906370D01*
X165920817Y-132909766D01*
X166021778Y-132930306D01*
X166037765Y-132929328D01*
X166041000Y-132922840D01*
X166041000Y-131873616D01*
X166036855Y-131858145D01*
X166021384Y-131854000D01*
X164979726Y-131854000D01*
X164964255Y-131858145D01*
X164962511Y-131864655D01*
X162575500Y-131864655D01*
X162575500Y-131333629D01*
X164959542Y-131333629D01*
X164960902Y-131342319D01*
X164970435Y-131346000D01*
X166021384Y-131346000D01*
X166036855Y-131341855D01*
X166041000Y-131326384D01*
X166041000Y-130284603D01*
X166036855Y-130269132D01*
X166028515Y-130266898D01*
X165985256Y-130273517D01*
X165973394Y-130276343D01*
X165772759Y-130341920D01*
X165761532Y-130346639D01*
X165574300Y-130444107D01*
X165563981Y-130450605D01*
X165395185Y-130577341D01*
X165386073Y-130585431D01*
X165240248Y-130738029D01*
X165232573Y-130747505D01*
X165113621Y-130921883D01*
X165107607Y-130932470D01*
X165018734Y-131123931D01*
X165014524Y-131135372D01*
X164959542Y-131333629D01*
X162575500Y-131333629D01*
X162575500Y-130730252D01*
X162572810Y-130716726D01*
X162566731Y-130686166D01*
X162566731Y-130686165D01*
X162563867Y-130671769D01*
X162551635Y-130653462D01*
X162527706Y-130617651D01*
X162519552Y-130605448D01*
X162474882Y-130575600D01*
X162465436Y-130569288D01*
X162465435Y-130569288D01*
X162453231Y-130561133D01*
X162438835Y-130558269D01*
X162438834Y-130558269D01*
X162401923Y-130550927D01*
X162401921Y-130550927D01*
X162394748Y-130549500D01*
X160655252Y-130549500D01*
X160648079Y-130550927D01*
X160648077Y-130550927D01*
X160611166Y-130558269D01*
X160611165Y-130558269D01*
X160596769Y-130561133D01*
X160584565Y-130569288D01*
X160584564Y-130569288D01*
X160575118Y-130575600D01*
X160530448Y-130605448D01*
X160522294Y-130617651D01*
X160498366Y-130653462D01*
X160486133Y-130671769D01*
X160483269Y-130686165D01*
X160483269Y-130686166D01*
X160477190Y-130716726D01*
X160474500Y-130730252D01*
X160474500Y-130903439D01*
X160454538Y-130977939D01*
X160400000Y-131032477D01*
X160325500Y-131052439D01*
X160251000Y-131032477D01*
X160196462Y-130977939D01*
X160188859Y-130962855D01*
X160188349Y-130961683D01*
X160182590Y-130950942D01*
X160067937Y-130773716D01*
X160060504Y-130764063D01*
X159918440Y-130607937D01*
X159909534Y-130599632D01*
X159743880Y-130468807D01*
X159733725Y-130462060D01*
X159548939Y-130360053D01*
X159537813Y-130355053D01*
X159338859Y-130284599D01*
X159327057Y-130281480D01*
X159258310Y-130269235D01*
X159242355Y-130270603D01*
X159239000Y-130277764D01*
X159239000Y-132917016D01*
X158731000Y-132917016D01*
X158731000Y-130284603D01*
X158726855Y-130269132D01*
X158718515Y-130266898D01*
X158675256Y-130273517D01*
X158663394Y-130276343D01*
X158462759Y-130341920D01*
X158451532Y-130346639D01*
X158264300Y-130444107D01*
X158253981Y-130450605D01*
X158085185Y-130577341D01*
X158076073Y-130585431D01*
X157930248Y-130738029D01*
X157922573Y-130747505D01*
X157803621Y-130921883D01*
X157797607Y-130932470D01*
X157708734Y-131123931D01*
X157704525Y-131135372D01*
X157695751Y-131167008D01*
X157656605Y-131233463D01*
X157589477Y-131271443D01*
X157512351Y-131270770D01*
X157445896Y-131231624D01*
X157420614Y-131197146D01*
X157324218Y-131015849D01*
X157314253Y-131003630D01*
X157198612Y-130861841D01*
X157198610Y-130861839D01*
X157194011Y-130856200D01*
X157188401Y-130851559D01*
X157188398Y-130851556D01*
X157117757Y-130793117D01*
X157073078Y-130730248D01*
X157065820Y-130653462D01*
X157097927Y-130583335D01*
X157107374Y-130572952D01*
X157616716Y-130063611D01*
X158240518Y-129439809D01*
X158250102Y-129431027D01*
X158268208Y-129415834D01*
X158278194Y-129407455D01*
X158296537Y-129375684D01*
X158303520Y-129364723D01*
X158314552Y-129348967D01*
X158324553Y-129334684D01*
X158327821Y-129322490D01*
X158328701Y-129320799D01*
X158329274Y-129318982D01*
X158335588Y-129308045D01*
X158337851Y-129295209D01*
X158337853Y-129295204D01*
X158341960Y-129271912D01*
X158344773Y-129259222D01*
X158354263Y-129223807D01*
X158351067Y-129187275D01*
X158350500Y-129174289D01*
X158350500Y-124968440D01*
X159639770Y-124968440D01*
X159654200Y-125188604D01*
X159708511Y-125402452D01*
X159711369Y-125408652D01*
X159711371Y-125408657D01*
X159798022Y-125596616D01*
X159800883Y-125602821D01*
X159928222Y-125783002D01*
X160086264Y-125936961D01*
X160269717Y-126059540D01*
X160472436Y-126146635D01*
X160687632Y-126195329D01*
X160733767Y-126197142D01*
X160901269Y-126203723D01*
X160901272Y-126203723D01*
X160908098Y-126203991D01*
X161126452Y-126172331D01*
X161132908Y-126170139D01*
X161132914Y-126170138D01*
X161288448Y-126117341D01*
X161335379Y-126101410D01*
X161500734Y-126008807D01*
X161521924Y-125996940D01*
X161521926Y-125996939D01*
X161527884Y-125993602D01*
X161697518Y-125852518D01*
X161838602Y-125682884D01*
X161844745Y-125671916D01*
X161925212Y-125528231D01*
X161946410Y-125490379D01*
X161978506Y-125395828D01*
X162015138Y-125287914D01*
X162015139Y-125287908D01*
X162017331Y-125281452D01*
X162048991Y-125063098D01*
X162050643Y-125000000D01*
X162048370Y-124975258D01*
X162031079Y-124787091D01*
X162030454Y-124780289D01*
X161970565Y-124567936D01*
X161872980Y-124370053D01*
X161740967Y-124193267D01*
X161735950Y-124188629D01*
X161735947Y-124188626D01*
X161583970Y-124048140D01*
X161583968Y-124048138D01*
X161578949Y-124043499D01*
X161573171Y-124039854D01*
X161573168Y-124039851D01*
X161398127Y-123929409D01*
X161392350Y-123925764D01*
X161187421Y-123844006D01*
X161127541Y-123832095D01*
X160977727Y-123802295D01*
X160977724Y-123802295D01*
X160971024Y-123800962D01*
X160859264Y-123799499D01*
X160757240Y-123798163D01*
X160757235Y-123798163D01*
X160750406Y-123798074D01*
X160743673Y-123799231D01*
X160743672Y-123799231D01*
X160621843Y-123820165D01*
X160532957Y-123835438D01*
X160526558Y-123837799D01*
X160526553Y-123837800D01*
X160413487Y-123879513D01*
X160325957Y-123911804D01*
X160136341Y-124024614D01*
X159970457Y-124170090D01*
X159966230Y-124175452D01*
X159966229Y-124175453D01*
X159955845Y-124188626D01*
X159833863Y-124343360D01*
X159731131Y-124538620D01*
X159729106Y-124545143D01*
X159667727Y-124742813D01*
X159667726Y-124742818D01*
X159665703Y-124749333D01*
X159639770Y-124968440D01*
X158350500Y-124968440D01*
X158350500Y-119920544D01*
X158370462Y-119846044D01*
X158425000Y-119791506D01*
X158499500Y-119771544D01*
X158574000Y-119791506D01*
X158604859Y-119815185D01*
X168465859Y-129676185D01*
X168504423Y-129742980D01*
X168509500Y-129781544D01*
X168509500Y-130494485D01*
X168489538Y-130568985D01*
X168429531Y-130626529D01*
X168263460Y-130713349D01*
X168263454Y-130713353D01*
X168257002Y-130716726D01*
X168198126Y-130764063D01*
X168143143Y-130808271D01*
X168096447Y-130845815D01*
X168091763Y-130851397D01*
X168091760Y-130851400D01*
X167999222Y-130961683D01*
X167964024Y-131003630D01*
X167864776Y-131184162D01*
X167864623Y-131184643D01*
X167818510Y-131243245D01*
X167746899Y-131271889D01*
X167670559Y-131260891D01*
X167609946Y-131213195D01*
X167588203Y-131171958D01*
X167582516Y-131155254D01*
X167498350Y-130961685D01*
X167492590Y-130950942D01*
X167377937Y-130773716D01*
X167370504Y-130764063D01*
X167228440Y-130607937D01*
X167219534Y-130599632D01*
X167053880Y-130468807D01*
X167043725Y-130462060D01*
X166858939Y-130360053D01*
X166847813Y-130355053D01*
X166648859Y-130284599D01*
X166637057Y-130281480D01*
X166568310Y-130269235D01*
X166552355Y-130270603D01*
X166549000Y-130277764D01*
X166549000Y-132917016D01*
X166553145Y-132932487D01*
X166562271Y-132934932D01*
X166572244Y-132933654D01*
X166584167Y-132931120D01*
X166786348Y-132870463D01*
X166797691Y-132866017D01*
X166987245Y-132773156D01*
X166997715Y-132766915D01*
X167169552Y-132644345D01*
X167178874Y-132636467D01*
X167328381Y-132487480D01*
X167336281Y-132478198D01*
X167459451Y-132306789D01*
X167465734Y-132296332D01*
X167559254Y-132107109D01*
X167563742Y-132095775D01*
X167584942Y-132025998D01*
X167625700Y-131960518D01*
X167693737Y-131924190D01*
X167770822Y-131926748D01*
X167836302Y-131967506D01*
X167860029Y-132001205D01*
X167947712Y-132171818D01*
X168075677Y-132333270D01*
X168081223Y-132337990D01*
X168201971Y-132440754D01*
X168232564Y-132466791D01*
X168412398Y-132567297D01*
X168608329Y-132630959D01*
X168663907Y-132637586D01*
X168805662Y-132654489D01*
X168805665Y-132654489D01*
X168812894Y-132655351D01*
X168974918Y-132642884D01*
X169011036Y-132640105D01*
X169011037Y-132640105D01*
X169018300Y-132639546D01*
X169086016Y-132620639D01*
X169209707Y-132586105D01*
X169209712Y-132586103D01*
X169216725Y-132584145D01*
X169223226Y-132580861D01*
X169223229Y-132580860D01*
X169394105Y-132494544D01*
X169394106Y-132494544D01*
X169400610Y-132491258D01*
X169428142Y-132469748D01*
X170324500Y-132469748D01*
X170325927Y-132476921D01*
X170325927Y-132476923D01*
X170328779Y-132491258D01*
X170336133Y-132528231D01*
X170344288Y-132540435D01*
X170344288Y-132540436D01*
X170369047Y-132577489D01*
X170380448Y-132594552D01*
X170392651Y-132602706D01*
X170431561Y-132628705D01*
X170446769Y-132638867D01*
X170461165Y-132641731D01*
X170461166Y-132641731D01*
X170498077Y-132649073D01*
X170498079Y-132649073D01*
X170505252Y-132650500D01*
X172244748Y-132650500D01*
X172251921Y-132649073D01*
X172251923Y-132649073D01*
X172288834Y-132641731D01*
X172288835Y-132641731D01*
X172303231Y-132638867D01*
X172318440Y-132628705D01*
X172357349Y-132602706D01*
X172369552Y-132594552D01*
X172380953Y-132577489D01*
X172405712Y-132540436D01*
X172405712Y-132540435D01*
X172413867Y-132528231D01*
X172421222Y-132491258D01*
X172424073Y-132476923D01*
X172424073Y-132476921D01*
X172425500Y-132469748D01*
X172425500Y-130730252D01*
X172422810Y-130716726D01*
X172416731Y-130686166D01*
X172416731Y-130686165D01*
X172413867Y-130671769D01*
X172401635Y-130653462D01*
X172377706Y-130617651D01*
X172369552Y-130605448D01*
X172324882Y-130575600D01*
X172315436Y-130569288D01*
X172315435Y-130569288D01*
X172303231Y-130561133D01*
X172288835Y-130558269D01*
X172288834Y-130558269D01*
X172251923Y-130550927D01*
X172251921Y-130550927D01*
X172244748Y-130549500D01*
X170505252Y-130549500D01*
X170498079Y-130550927D01*
X170498077Y-130550927D01*
X170461166Y-130558269D01*
X170461165Y-130558269D01*
X170446769Y-130561133D01*
X170434565Y-130569288D01*
X170434564Y-130569288D01*
X170425118Y-130575600D01*
X170380448Y-130605448D01*
X170372294Y-130617651D01*
X170348366Y-130653462D01*
X170336133Y-130671769D01*
X170333269Y-130686165D01*
X170333269Y-130686166D01*
X170327190Y-130716726D01*
X170324500Y-130730252D01*
X170324500Y-132469748D01*
X169428142Y-132469748D01*
X169562951Y-132364424D01*
X169684932Y-132223107D01*
X169692803Y-132213988D01*
X169692804Y-132213986D01*
X169697564Y-132208472D01*
X169715486Y-132176924D01*
X169795724Y-132035680D01*
X169795725Y-132035677D01*
X169799323Y-132029344D01*
X169864351Y-131833863D01*
X169890171Y-131629474D01*
X169890583Y-131600000D01*
X169870480Y-131394970D01*
X169837909Y-131287091D01*
X169813041Y-131204724D01*
X169813041Y-131204723D01*
X169810935Y-131197749D01*
X169807405Y-131191109D01*
X169773274Y-131126919D01*
X169714218Y-131015849D01*
X169704253Y-131003630D01*
X169588612Y-130861841D01*
X169588610Y-130861839D01*
X169584011Y-130856200D01*
X169578401Y-130851559D01*
X169578398Y-130851556D01*
X169430890Y-130729527D01*
X169430889Y-130729526D01*
X169425275Y-130724882D01*
X169418871Y-130721420D01*
X169418869Y-130721418D01*
X169244055Y-130626897D01*
X169244806Y-130625509D01*
X169190826Y-130583647D01*
X169161677Y-130512239D01*
X169160500Y-130493550D01*
X169160500Y-129605720D01*
X169161067Y-129592733D01*
X169163128Y-129569180D01*
X169163128Y-129569179D01*
X169164264Y-129556193D01*
X169154770Y-129520761D01*
X169151958Y-129508077D01*
X169147852Y-129484793D01*
X169147851Y-129484791D01*
X169145588Y-129471955D01*
X169139277Y-129461025D01*
X169138703Y-129459203D01*
X169137821Y-129457509D01*
X169134554Y-129445316D01*
X169113509Y-129415261D01*
X169106539Y-129404320D01*
X169088194Y-129372545D01*
X169060094Y-129348966D01*
X169050512Y-129340186D01*
X159114141Y-119403815D01*
X159075577Y-119337020D01*
X159070500Y-119298456D01*
X159070500Y-115376427D01*
X159090462Y-115301927D01*
X159145000Y-115247389D01*
X159219500Y-115227427D01*
X159276520Y-115238769D01*
X159350958Y-115269602D01*
X159388238Y-115285044D01*
X159397919Y-115286319D01*
X159397921Y-115286319D01*
X159535315Y-115304407D01*
X159545000Y-115305682D01*
X159701762Y-115285044D01*
X159705782Y-115283379D01*
X159780177Y-115283379D01*
X159846972Y-115321943D01*
X161474276Y-116949247D01*
X161512840Y-117016042D01*
X161513135Y-117074067D01*
X161516524Y-117074513D01*
X161494394Y-117242611D01*
X161512999Y-117411135D01*
X161571266Y-117570356D01*
X161576275Y-117577811D01*
X161576276Y-117577812D01*
X161657281Y-117698360D01*
X161665830Y-117711083D01*
X161672472Y-117717126D01*
X161672473Y-117717128D01*
X161778752Y-117813834D01*
X161791233Y-117825191D01*
X161799128Y-117829478D01*
X161799130Y-117829479D01*
X161932344Y-117901808D01*
X161932347Y-117901809D01*
X161940235Y-117906092D01*
X161977743Y-117915932D01*
X162095549Y-117946838D01*
X162095551Y-117946838D01*
X162104233Y-117949116D01*
X162113209Y-117949257D01*
X162264781Y-117951638D01*
X162273760Y-117951779D01*
X162439029Y-117913928D01*
X162454609Y-117906092D01*
X162582472Y-117841784D01*
X162582474Y-117841783D01*
X162590498Y-117837747D01*
X162597330Y-117831912D01*
X162602545Y-117828447D01*
X162675645Y-117803846D01*
X162751251Y-117819091D01*
X162808888Y-117869769D01*
X162825448Y-117894552D01*
X162837651Y-117902706D01*
X162848409Y-117909894D01*
X162891769Y-117938867D01*
X162906165Y-117941731D01*
X162906166Y-117941731D01*
X162943077Y-117949073D01*
X162943079Y-117949073D01*
X162950252Y-117950500D01*
X163989748Y-117950500D01*
X163996921Y-117949073D01*
X163996923Y-117949073D01*
X164033834Y-117941731D01*
X164033835Y-117941731D01*
X164048231Y-117938867D01*
X164091592Y-117909894D01*
X164102349Y-117902706D01*
X164114552Y-117894552D01*
X164158867Y-117828231D01*
X164163718Y-117803846D01*
X164169073Y-117776923D01*
X164169073Y-117776921D01*
X164170500Y-117769748D01*
X164170500Y-116766591D01*
X164190462Y-116692091D01*
X164206708Y-116669231D01*
X164292905Y-116569371D01*
X164301268Y-116557516D01*
X164391712Y-116398306D01*
X164397607Y-116385066D01*
X164441668Y-116252613D01*
X164442618Y-116236625D01*
X164439539Y-116234594D01*
X164435870Y-116234000D01*
X163365000Y-116234000D01*
X163290500Y-116214038D01*
X163235962Y-116159500D01*
X163216000Y-116085000D01*
X163216000Y-115706384D01*
X163724000Y-115706384D01*
X163728145Y-115721855D01*
X163743616Y-115726000D01*
X164426682Y-115726000D01*
X164442153Y-115721855D01*
X164443389Y-115717241D01*
X164443136Y-115715526D01*
X164408558Y-115601001D01*
X164403031Y-115587591D01*
X164317066Y-115425913D01*
X164316895Y-115425655D01*
X164316836Y-115425480D01*
X164313647Y-115419482D01*
X164314640Y-115418954D01*
X164292294Y-115352555D01*
X164307539Y-115276949D01*
X164311445Y-115269602D01*
X164391712Y-115128306D01*
X164397607Y-115115066D01*
X164441668Y-114982613D01*
X164442618Y-114966625D01*
X164439539Y-114964594D01*
X164435870Y-114964000D01*
X163743616Y-114964000D01*
X163728145Y-114968145D01*
X163724000Y-114983616D01*
X163724000Y-115706384D01*
X163216000Y-115706384D01*
X163216000Y-114436384D01*
X163724000Y-114436384D01*
X163728145Y-114451855D01*
X163743616Y-114456000D01*
X164426682Y-114456000D01*
X164442153Y-114451855D01*
X164443389Y-114447241D01*
X164443136Y-114445526D01*
X164408558Y-114331001D01*
X164403031Y-114317591D01*
X164317066Y-114155913D01*
X164316895Y-114155655D01*
X164316836Y-114155480D01*
X164313647Y-114149482D01*
X164314640Y-114148954D01*
X164292294Y-114082555D01*
X164307539Y-114006949D01*
X164311445Y-113999602D01*
X164391712Y-113858306D01*
X164397607Y-113845066D01*
X164441668Y-113712613D01*
X164442618Y-113696625D01*
X164439539Y-113694594D01*
X164435870Y-113694000D01*
X163743616Y-113694000D01*
X163728145Y-113698145D01*
X163724000Y-113713616D01*
X163724000Y-114436384D01*
X163216000Y-114436384D01*
X163216000Y-113166384D01*
X163724000Y-113166384D01*
X163728145Y-113181855D01*
X163743616Y-113186000D01*
X164426682Y-113186000D01*
X164442153Y-113181855D01*
X164443389Y-113177241D01*
X164443136Y-113175526D01*
X164408558Y-113061001D01*
X164403031Y-113047591D01*
X164317066Y-112885913D01*
X164316895Y-112885655D01*
X164316836Y-112885480D01*
X164313647Y-112879482D01*
X164314640Y-112878954D01*
X164292294Y-112812555D01*
X164307539Y-112736949D01*
X164311445Y-112729602D01*
X164391712Y-112588306D01*
X164397607Y-112575066D01*
X164441668Y-112442613D01*
X164442618Y-112426625D01*
X164439539Y-112424594D01*
X164435870Y-112424000D01*
X163743616Y-112424000D01*
X163728145Y-112428145D01*
X163724000Y-112443616D01*
X163724000Y-113166384D01*
X163216000Y-113166384D01*
X163216000Y-111896384D01*
X163724000Y-111896384D01*
X163728145Y-111911855D01*
X163743616Y-111916000D01*
X164426682Y-111916000D01*
X164442153Y-111911855D01*
X164443389Y-111907241D01*
X164443136Y-111905526D01*
X164408558Y-111791001D01*
X164403031Y-111777591D01*
X164317065Y-111615911D01*
X164309043Y-111603837D01*
X164193311Y-111461936D01*
X164183097Y-111451650D01*
X164042010Y-111334933D01*
X164029982Y-111326820D01*
X163868917Y-111239733D01*
X163855544Y-111234111D01*
X163742737Y-111199192D01*
X163726734Y-111198577D01*
X163724334Y-111202389D01*
X163724000Y-111204595D01*
X163724000Y-111896384D01*
X163216000Y-111896384D01*
X163216000Y-111213577D01*
X163211855Y-111198106D01*
X163206979Y-111196800D01*
X163205754Y-111196977D01*
X163097557Y-111228821D01*
X163084113Y-111234253D01*
X162921842Y-111319086D01*
X162909712Y-111327023D01*
X162767007Y-111441760D01*
X162756639Y-111451913D01*
X162706159Y-111512073D01*
X162642980Y-111556311D01*
X162566145Y-111563033D01*
X162522298Y-111547978D01*
X162460823Y-111515429D01*
X162452881Y-111511224D01*
X162444168Y-111509035D01*
X162444167Y-111509035D01*
X162371691Y-111490830D01*
X162288441Y-111469919D01*
X162184002Y-111469372D01*
X162127873Y-111469078D01*
X162118895Y-111469031D01*
X162110164Y-111471127D01*
X162110165Y-111471127D01*
X161962765Y-111506515D01*
X161962762Y-111506516D01*
X161954032Y-111508612D01*
X161946053Y-111512730D01*
X161946051Y-111512731D01*
X161861617Y-111556311D01*
X161803369Y-111586375D01*
X161796602Y-111592279D01*
X161796598Y-111592281D01*
X161682373Y-111691926D01*
X161675604Y-111697831D01*
X161578113Y-111836547D01*
X161516524Y-111994513D01*
X161494394Y-112162611D01*
X161512999Y-112331135D01*
X161516087Y-112339572D01*
X161516087Y-112339574D01*
X161521732Y-112355000D01*
X161571266Y-112490356D01*
X161576275Y-112497811D01*
X161576276Y-112497812D01*
X161659863Y-112622203D01*
X161665830Y-112631083D01*
X161672472Y-112637126D01*
X161672473Y-112637128D01*
X161735864Y-112694809D01*
X161777532Y-112759713D01*
X161781165Y-112836755D01*
X161745790Y-112905293D01*
X161733534Y-112917295D01*
X161682373Y-112961926D01*
X161675604Y-112967831D01*
X161578113Y-113106547D01*
X161516524Y-113264513D01*
X161494394Y-113432611D01*
X161512999Y-113601135D01*
X161516087Y-113609572D01*
X161516087Y-113609574D01*
X161546983Y-113694000D01*
X161571266Y-113760356D01*
X161576275Y-113767811D01*
X161576276Y-113767812D01*
X161584431Y-113779947D01*
X161665830Y-113901083D01*
X161672472Y-113907126D01*
X161672473Y-113907128D01*
X161735864Y-113964809D01*
X161777532Y-114029713D01*
X161781165Y-114106755D01*
X161745790Y-114175293D01*
X161733534Y-114187295D01*
X161682373Y-114231926D01*
X161675604Y-114237831D01*
X161578113Y-114376547D01*
X161516524Y-114534513D01*
X161494394Y-114702611D01*
X161512999Y-114871135D01*
X161516087Y-114879572D01*
X161516087Y-114879574D01*
X161546983Y-114964000D01*
X161571266Y-115030356D01*
X161576275Y-115037811D01*
X161576276Y-115037812D01*
X161584431Y-115049947D01*
X161665830Y-115171083D01*
X161672472Y-115177126D01*
X161672473Y-115177128D01*
X161735864Y-115234809D01*
X161777532Y-115299713D01*
X161781165Y-115376755D01*
X161745790Y-115445293D01*
X161733534Y-115457295D01*
X161682373Y-115501926D01*
X161675604Y-115507831D01*
X161578113Y-115646547D01*
X161516524Y-115804513D01*
X161515352Y-115813419D01*
X161513517Y-115820564D01*
X161475655Y-115887759D01*
X161409267Y-115927020D01*
X161332143Y-115927828D01*
X161263839Y-115888868D01*
X160193048Y-114818077D01*
X160154484Y-114751282D01*
X160149407Y-114712718D01*
X160149407Y-114709685D01*
X160150682Y-114700000D01*
X160130044Y-114543238D01*
X160069536Y-114397159D01*
X159973282Y-114271718D01*
X159847841Y-114175464D01*
X159837784Y-114171298D01*
X159710784Y-114118693D01*
X159701762Y-114114956D01*
X159692081Y-114113681D01*
X159692079Y-114113681D01*
X159554685Y-114095593D01*
X159545000Y-114094318D01*
X159535315Y-114095593D01*
X159397921Y-114113681D01*
X159397919Y-114113681D01*
X159388238Y-114114956D01*
X159379216Y-114118693D01*
X159276520Y-114161231D01*
X159200051Y-114171298D01*
X159128794Y-114141783D01*
X159081842Y-114080593D01*
X159070500Y-114023573D01*
X159070500Y-109491930D01*
X170025322Y-109491930D01*
X170036075Y-109553541D01*
X170037210Y-109561226D01*
X170044724Y-109623320D01*
X170047899Y-109631722D01*
X170050041Y-109640444D01*
X170049857Y-109640489D01*
X170050150Y-109641561D01*
X170050332Y-109641506D01*
X170052929Y-109650106D01*
X170054473Y-109658954D01*
X170079613Y-109716225D01*
X170082550Y-109723424D01*
X170104655Y-109781923D01*
X170109741Y-109789324D01*
X170113904Y-109797287D01*
X170113736Y-109797375D01*
X170114273Y-109798340D01*
X170114436Y-109798244D01*
X170119013Y-109805983D01*
X170122621Y-109814202D01*
X170128085Y-109821323D01*
X170128087Y-109821326D01*
X170160689Y-109863813D01*
X170165267Y-109870114D01*
X170200688Y-109921651D01*
X170246162Y-109962167D01*
X170252401Y-109968057D01*
X170364735Y-110080391D01*
X170464457Y-110158583D01*
X170618984Y-110228355D01*
X170785692Y-110259252D01*
X170794659Y-110258735D01*
X170794660Y-110258735D01*
X170853168Y-110255361D01*
X170954959Y-110249492D01*
X170963546Y-110246850D01*
X170963548Y-110246850D01*
X171108423Y-110202281D01*
X171117011Y-110199639D01*
X171124719Y-110195026D01*
X171254788Y-110117182D01*
X171254791Y-110117180D01*
X171262495Y-110112569D01*
X171322752Y-110052940D01*
X171376626Y-109999628D01*
X171376628Y-109999626D01*
X171383010Y-109993310D01*
X171387701Y-109985655D01*
X171387704Y-109985651D01*
X171466906Y-109856401D01*
X171471597Y-109848746D01*
X171482622Y-109814202D01*
X171520415Y-109695779D01*
X171520415Y-109695777D01*
X171523145Y-109687224D01*
X171524512Y-109667178D01*
X171534067Y-109527034D01*
X171534067Y-109527033D01*
X171534678Y-109518070D01*
X171505527Y-109351046D01*
X171443066Y-109208754D01*
X171430500Y-109148865D01*
X171430500Y-101612484D01*
X171415276Y-101486680D01*
X171355345Y-101328077D01*
X171259312Y-101188349D01*
X171252604Y-101182372D01*
X171139428Y-101081535D01*
X171139424Y-101081532D01*
X171132721Y-101075560D01*
X171124783Y-101071357D01*
X171124780Y-101071355D01*
X170990823Y-101000429D01*
X170982881Y-100996224D01*
X170974168Y-100994035D01*
X170974167Y-100994035D01*
X170901691Y-100975830D01*
X170818441Y-100954919D01*
X170714002Y-100954372D01*
X170657873Y-100954078D01*
X170648895Y-100954031D01*
X170640164Y-100956127D01*
X170640165Y-100956127D01*
X170492765Y-100991515D01*
X170492762Y-100991516D01*
X170484032Y-100993612D01*
X170476053Y-100997730D01*
X170476051Y-100997731D01*
X170341353Y-101067254D01*
X170333369Y-101071375D01*
X170326602Y-101077279D01*
X170326598Y-101077281D01*
X170255134Y-101139623D01*
X170205604Y-101182831D01*
X170200439Y-101190180D01*
X170156859Y-101252189D01*
X170108113Y-101321547D01*
X170046524Y-101479513D01*
X170029500Y-101608826D01*
X170029500Y-109425573D01*
X170029155Y-109435705D01*
X170025322Y-109491930D01*
X159070500Y-109491930D01*
X159070500Y-107100000D01*
X159839318Y-107100000D01*
X159859956Y-107256762D01*
X159920464Y-107402841D01*
X160016718Y-107528282D01*
X160142159Y-107624536D01*
X160288238Y-107685044D01*
X160297919Y-107686319D01*
X160297921Y-107686319D01*
X160435315Y-107704407D01*
X160445000Y-107705682D01*
X160454685Y-107704407D01*
X160592079Y-107686319D01*
X160592081Y-107686319D01*
X160601762Y-107685044D01*
X160747841Y-107624536D01*
X160873282Y-107528282D01*
X160907418Y-107483795D01*
X160968608Y-107436842D01*
X161025628Y-107425500D01*
X164264372Y-107425500D01*
X164338872Y-107445462D01*
X164382582Y-107483795D01*
X164416718Y-107528282D01*
X164542159Y-107624536D01*
X164688238Y-107685044D01*
X164697919Y-107686319D01*
X164697921Y-107686319D01*
X164835315Y-107704407D01*
X164845000Y-107705682D01*
X164854685Y-107704407D01*
X164992079Y-107686319D01*
X164992081Y-107686319D01*
X165001762Y-107685044D01*
X165147841Y-107624536D01*
X165273282Y-107528282D01*
X165369536Y-107402841D01*
X165430044Y-107256762D01*
X165450682Y-107100000D01*
X165445393Y-107059827D01*
X165431319Y-106952921D01*
X165431319Y-106952919D01*
X165430044Y-106943238D01*
X165369536Y-106797159D01*
X165273282Y-106671718D01*
X165147841Y-106575464D01*
X165001762Y-106514956D01*
X164992081Y-106513681D01*
X164992079Y-106513681D01*
X164854685Y-106495593D01*
X164845000Y-106494318D01*
X164835315Y-106495593D01*
X164697921Y-106513681D01*
X164697919Y-106513681D01*
X164688238Y-106514956D01*
X164542159Y-106575464D01*
X164416718Y-106671718D01*
X164410772Y-106679467D01*
X164382582Y-106716205D01*
X164321392Y-106763158D01*
X164264372Y-106774500D01*
X161025628Y-106774500D01*
X160951128Y-106754538D01*
X160907418Y-106716205D01*
X160879228Y-106679467D01*
X160873282Y-106671718D01*
X160747841Y-106575464D01*
X160601762Y-106514956D01*
X160592081Y-106513681D01*
X160592079Y-106513681D01*
X160454685Y-106495593D01*
X160445000Y-106494318D01*
X160435315Y-106495593D01*
X160297921Y-106513681D01*
X160297919Y-106513681D01*
X160288238Y-106514956D01*
X160142159Y-106575464D01*
X160016718Y-106671718D01*
X159920464Y-106797159D01*
X159859956Y-106943238D01*
X159858681Y-106952919D01*
X159858681Y-106952921D01*
X159844607Y-107059827D01*
X159839318Y-107100000D01*
X159070500Y-107100000D01*
X159070500Y-105884465D01*
X159090462Y-105809965D01*
X159128794Y-105766256D01*
X159170532Y-105734229D01*
X159170533Y-105734228D01*
X159178282Y-105728282D01*
X159274536Y-105602841D01*
X159335044Y-105456762D01*
X159343576Y-105391959D01*
X159354407Y-105309685D01*
X159355682Y-105300000D01*
X159349814Y-105255430D01*
X159336319Y-105152921D01*
X159336319Y-105152919D01*
X159335044Y-105143238D01*
X159305419Y-105071718D01*
X159278274Y-105006183D01*
X159278274Y-105006182D01*
X159274536Y-104997159D01*
X159178282Y-104871718D01*
X159052841Y-104775464D01*
X158986883Y-104748143D01*
X158915784Y-104718693D01*
X158906762Y-104714956D01*
X158897081Y-104713681D01*
X158897079Y-104713681D01*
X158759685Y-104695593D01*
X158750000Y-104694318D01*
X158740315Y-104695593D01*
X158602921Y-104713681D01*
X158602919Y-104713681D01*
X158593238Y-104714956D01*
X158584216Y-104718693D01*
X158513118Y-104748143D01*
X158447159Y-104775464D01*
X158321718Y-104871718D01*
X158225464Y-104997159D01*
X158164956Y-105143238D01*
X158163681Y-105152926D01*
X158162768Y-105156332D01*
X158124206Y-105223128D01*
X158057412Y-105261694D01*
X157980284Y-105261696D01*
X157961824Y-105255430D01*
X157903292Y-105231185D01*
X157894270Y-105227448D01*
X157884589Y-105226173D01*
X157884587Y-105226173D01*
X157747193Y-105208085D01*
X157737508Y-105206810D01*
X157727823Y-105208085D01*
X157590429Y-105226173D01*
X157590427Y-105226173D01*
X157580746Y-105227448D01*
X157571724Y-105231185D01*
X157513192Y-105255430D01*
X157434667Y-105287956D01*
X157309226Y-105384210D01*
X157212972Y-105509651D01*
X157152464Y-105655730D01*
X157151190Y-105665409D01*
X157151189Y-105665412D01*
X157142354Y-105732522D01*
X157112838Y-105803779D01*
X157051648Y-105850731D01*
X156975181Y-105860798D01*
X156859685Y-105845593D01*
X156850000Y-105844318D01*
X156840315Y-105845593D01*
X156702921Y-105863681D01*
X156702919Y-105863681D01*
X156693238Y-105864956D01*
X156547159Y-105925464D01*
X156421718Y-106021718D01*
X156325464Y-106147159D01*
X156264956Y-106293238D01*
X156244318Y-106450000D01*
X156245593Y-106459685D01*
X156260836Y-106575464D01*
X156264956Y-106606762D01*
X156325464Y-106752841D01*
X156421718Y-106878282D01*
X156547159Y-106974536D01*
X156693238Y-107035044D01*
X156702919Y-107036319D01*
X156702921Y-107036319D01*
X156840315Y-107054407D01*
X156850000Y-107055682D01*
X156853526Y-107055218D01*
X156925000Y-107074369D01*
X156979538Y-107128907D01*
X156999500Y-107203407D01*
X156999500Y-127768455D01*
X156979538Y-127842955D01*
X156955859Y-127873814D01*
X155618855Y-129210819D01*
X154292638Y-130537036D01*
X154225843Y-130575600D01*
X154143221Y-130574014D01*
X154124220Y-130568133D01*
X154124217Y-130568132D01*
X154117254Y-130565977D01*
X154110012Y-130565216D01*
X154110008Y-130565215D01*
X153919610Y-130545204D01*
X153919609Y-130545204D01*
X153912369Y-130544443D01*
X153707203Y-130563114D01*
X153700214Y-130565171D01*
X153516560Y-130619223D01*
X153516557Y-130619224D01*
X153509572Y-130621280D01*
X153503117Y-130624655D01*
X153503116Y-130624655D01*
X153489434Y-130631808D01*
X153327002Y-130716726D01*
X153268126Y-130764063D01*
X153213143Y-130808271D01*
X153166447Y-130845815D01*
X153161763Y-130851397D01*
X153161760Y-130851400D01*
X153069222Y-130961683D01*
X153034024Y-131003630D01*
X152934776Y-131184162D01*
X152932573Y-131191106D01*
X152932572Y-131191109D01*
X152911455Y-131257680D01*
X152872484Y-131380532D01*
X152871671Y-131387776D01*
X152871671Y-131387778D01*
X152858592Y-131504383D01*
X152849520Y-131585262D01*
X147775500Y-131585262D01*
X147775500Y-130730252D01*
X147772810Y-130716726D01*
X147766731Y-130686166D01*
X147766731Y-130686165D01*
X147763867Y-130671769D01*
X147751635Y-130653462D01*
X147727706Y-130617651D01*
X147719552Y-130605448D01*
X147674882Y-130575600D01*
X147665436Y-130569288D01*
X147665435Y-130569288D01*
X147653231Y-130561133D01*
X147638835Y-130558269D01*
X147638834Y-130558269D01*
X147601923Y-130550927D01*
X147601921Y-130550927D01*
X147594748Y-130549500D01*
X145855252Y-130549500D01*
X145848079Y-130550927D01*
X145848077Y-130550927D01*
X145811166Y-130558269D01*
X145811165Y-130558269D01*
X145796769Y-130561133D01*
X145784565Y-130569288D01*
X145784564Y-130569288D01*
X145775118Y-130575600D01*
X145730448Y-130605448D01*
X145722294Y-130617651D01*
X145698366Y-130653462D01*
X145686133Y-130671769D01*
X145683269Y-130686165D01*
X145683269Y-130686166D01*
X145677190Y-130716726D01*
X145674500Y-130730252D01*
X145674500Y-130903439D01*
X145654538Y-130977939D01*
X145600000Y-131032477D01*
X145525500Y-131052439D01*
X145451000Y-131032477D01*
X145396462Y-130977939D01*
X145388859Y-130962855D01*
X145388349Y-130961683D01*
X145382590Y-130950942D01*
X145267937Y-130773716D01*
X145260504Y-130764063D01*
X145118440Y-130607937D01*
X145109534Y-130599632D01*
X144943880Y-130468807D01*
X144933725Y-130462060D01*
X144748939Y-130360053D01*
X144737813Y-130355053D01*
X144538859Y-130284599D01*
X144527057Y-130281480D01*
X144458310Y-130269235D01*
X144442355Y-130270603D01*
X144439000Y-130277764D01*
X144439000Y-132917016D01*
X143931000Y-132917016D01*
X143931000Y-131873616D01*
X143926855Y-131858145D01*
X143911384Y-131854000D01*
X142869726Y-131854000D01*
X142854255Y-131858145D01*
X142852511Y-131864655D01*
X136289088Y-131864655D01*
X136315138Y-131787914D01*
X136315139Y-131787908D01*
X136317331Y-131781452D01*
X136348991Y-131563098D01*
X136350643Y-131500000D01*
X136349369Y-131486129D01*
X136335355Y-131333629D01*
X142849542Y-131333629D01*
X142850902Y-131342319D01*
X142860435Y-131346000D01*
X143911384Y-131346000D01*
X143926855Y-131341855D01*
X143931000Y-131326384D01*
X143931000Y-130284603D01*
X143926855Y-130269132D01*
X143918515Y-130266898D01*
X143875256Y-130273517D01*
X143863394Y-130276343D01*
X143662759Y-130341920D01*
X143651532Y-130346639D01*
X143464300Y-130444107D01*
X143453981Y-130450605D01*
X143285185Y-130577341D01*
X143276073Y-130585431D01*
X143130248Y-130738029D01*
X143122573Y-130747505D01*
X143003621Y-130921883D01*
X142997607Y-130932470D01*
X142908734Y-131123931D01*
X142904524Y-131135372D01*
X142849542Y-131333629D01*
X136335355Y-131333629D01*
X136331079Y-131287091D01*
X136330454Y-131280289D01*
X136327326Y-131269196D01*
X136272421Y-131074517D01*
X136270565Y-131067936D01*
X136255926Y-131038250D01*
X136176002Y-130876181D01*
X136172980Y-130870053D01*
X136162636Y-130856200D01*
X136093833Y-130764063D01*
X136040967Y-130693267D01*
X136035950Y-130688629D01*
X136035947Y-130688626D01*
X135883970Y-130548140D01*
X135883968Y-130548138D01*
X135878949Y-130543499D01*
X135873171Y-130539854D01*
X135873168Y-130539851D01*
X135698127Y-130429409D01*
X135692350Y-130425764D01*
X135487421Y-130344006D01*
X135427541Y-130332095D01*
X135277727Y-130302295D01*
X135277724Y-130302295D01*
X135271024Y-130300962D01*
X135159264Y-130299499D01*
X135057240Y-130298163D01*
X135057235Y-130298163D01*
X135050406Y-130298074D01*
X135043673Y-130299231D01*
X135043672Y-130299231D01*
X134921843Y-130320165D01*
X134832957Y-130335438D01*
X134826558Y-130337799D01*
X134826553Y-130337800D01*
X134713487Y-130379513D01*
X134625957Y-130411804D01*
X134436341Y-130524614D01*
X134270457Y-130670090D01*
X134266230Y-130675452D01*
X134266229Y-130675453D01*
X134161525Y-130808271D01*
X134133863Y-130843360D01*
X134129633Y-130851400D01*
X134037163Y-131027156D01*
X134031131Y-131038620D01*
X134001227Y-131134927D01*
X133967727Y-131242813D01*
X133967726Y-131242818D01*
X133965703Y-131249333D01*
X133964901Y-131256110D01*
X133964900Y-131256114D01*
X133947607Y-131402223D01*
X133939770Y-131468440D01*
X132055179Y-131468440D01*
X132039499Y-131269196D01*
X132037675Y-131257680D01*
X131984994Y-131038250D01*
X131981389Y-131027156D01*
X131895034Y-130818676D01*
X131889733Y-130808271D01*
X131788351Y-130642832D01*
X131776734Y-130631808D01*
X131770578Y-130633632D01*
X130918081Y-131486129D01*
X130910073Y-131500000D01*
X130179927Y-131500000D01*
X130171919Y-131486129D01*
X129325769Y-130639979D01*
X129311898Y-130631971D01*
X129306338Y-130635180D01*
X129200267Y-130808271D01*
X129194966Y-130818676D01*
X129108611Y-131027156D01*
X129105006Y-131038250D01*
X129052325Y-131257680D01*
X129050501Y-131269196D01*
X129032796Y-131494168D01*
X129032796Y-131505832D01*
X120340000Y-131505832D01*
X120340000Y-130268266D01*
X129676808Y-130268266D01*
X129678632Y-130274422D01*
X130531129Y-131126919D01*
X130545000Y-131134927D01*
X130558871Y-131126919D01*
X131405021Y-130280769D01*
X131413029Y-130266898D01*
X131409820Y-130261338D01*
X131236729Y-130155267D01*
X131226324Y-130149966D01*
X131017844Y-130063611D01*
X131006750Y-130060006D01*
X130787320Y-130007325D01*
X130775804Y-130005501D01*
X130550832Y-129987796D01*
X130539168Y-129987796D01*
X130314196Y-130005501D01*
X130302680Y-130007325D01*
X130083250Y-130060006D01*
X130072156Y-130063611D01*
X129863676Y-130149966D01*
X129853271Y-130155267D01*
X129687832Y-130256649D01*
X129676808Y-130268266D01*
X120340000Y-130268266D01*
X120340000Y-127404655D01*
X120892511Y-127404655D01*
X120923355Y-127541518D01*
X120927003Y-127553157D01*
X121006414Y-127748725D01*
X121011910Y-127759606D01*
X121122190Y-127939566D01*
X121129403Y-127949422D01*
X121267591Y-128108950D01*
X121276311Y-128117489D01*
X121438716Y-128252320D01*
X121448686Y-128259302D01*
X121630945Y-128365805D01*
X121641920Y-128371064D01*
X121839127Y-128446370D01*
X121850817Y-128449766D01*
X121951778Y-128470306D01*
X121967765Y-128469328D01*
X121971000Y-128462840D01*
X121971000Y-128457016D01*
X122479000Y-128457016D01*
X122483145Y-128472487D01*
X122492271Y-128474932D01*
X122502244Y-128473654D01*
X122514167Y-128471120D01*
X122716348Y-128410463D01*
X122727691Y-128406017D01*
X122917245Y-128313156D01*
X122927715Y-128306915D01*
X123099552Y-128184345D01*
X123108874Y-128176467D01*
X123258381Y-128027480D01*
X123266281Y-128018198D01*
X123389451Y-127846789D01*
X123395734Y-127836332D01*
X123489254Y-127647109D01*
X123493742Y-127635775D01*
X123555100Y-127433822D01*
X123557680Y-127421890D01*
X123558791Y-127413447D01*
X123556700Y-127397569D01*
X123548083Y-127394000D01*
X122498616Y-127394000D01*
X122483145Y-127398145D01*
X122479000Y-127413616D01*
X122479000Y-128457016D01*
X121971000Y-128457016D01*
X121971000Y-127413616D01*
X121966855Y-127398145D01*
X121951384Y-127394000D01*
X120909726Y-127394000D01*
X120894255Y-127398145D01*
X120892511Y-127404655D01*
X120340000Y-127404655D01*
X120340000Y-126873629D01*
X120889542Y-126873629D01*
X120890902Y-126882319D01*
X120900435Y-126886000D01*
X123541843Y-126886000D01*
X123557314Y-126881855D01*
X123558916Y-126875875D01*
X123516445Y-126706793D01*
X123512516Y-126695254D01*
X123428350Y-126501685D01*
X123422590Y-126490942D01*
X123307937Y-126313716D01*
X123300504Y-126304063D01*
X123158440Y-126147937D01*
X123149534Y-126139632D01*
X122983880Y-126008807D01*
X122973725Y-126002060D01*
X122843087Y-125929944D01*
X122787512Y-125876463D01*
X122766123Y-125802360D01*
X122784652Y-125727491D01*
X122838133Y-125671916D01*
X122915096Y-125650500D01*
X123094748Y-125650500D01*
X123101921Y-125649073D01*
X123101923Y-125649073D01*
X123138834Y-125641731D01*
X123138835Y-125641731D01*
X123153231Y-125638867D01*
X123219552Y-125594552D01*
X123263867Y-125528231D01*
X123272682Y-125483918D01*
X123274073Y-125476923D01*
X123274073Y-125476921D01*
X123275500Y-125469748D01*
X123275500Y-123730252D01*
X123263867Y-123671769D01*
X123219552Y-123605448D01*
X123153231Y-123561133D01*
X123138835Y-123558269D01*
X123138834Y-123558269D01*
X123101923Y-123550927D01*
X123101921Y-123550927D01*
X123094748Y-123549500D01*
X121355252Y-123549500D01*
X121348079Y-123550927D01*
X121348077Y-123550927D01*
X121311166Y-123558269D01*
X121311165Y-123558269D01*
X121296769Y-123561133D01*
X121230448Y-123605448D01*
X121186133Y-123671769D01*
X121174500Y-123730252D01*
X121174500Y-125469748D01*
X121175927Y-125476921D01*
X121175927Y-125476923D01*
X121177319Y-125483918D01*
X121186133Y-125528231D01*
X121230448Y-125594552D01*
X121296769Y-125638867D01*
X121311165Y-125641731D01*
X121311166Y-125641731D01*
X121348077Y-125649073D01*
X121348079Y-125649073D01*
X121355252Y-125650500D01*
X121536238Y-125650500D01*
X121610738Y-125670462D01*
X121665276Y-125725000D01*
X121685238Y-125799500D01*
X121665276Y-125874000D01*
X121605039Y-125931665D01*
X121504300Y-125984107D01*
X121493981Y-125990605D01*
X121325185Y-126117341D01*
X121316073Y-126125431D01*
X121170248Y-126278029D01*
X121162573Y-126287505D01*
X121043621Y-126461883D01*
X121037607Y-126472470D01*
X120948734Y-126663931D01*
X120944524Y-126675372D01*
X120889542Y-126873629D01*
X120340000Y-126873629D01*
X120340000Y-118323440D01*
X146324770Y-118323440D01*
X146339200Y-118543604D01*
X146393511Y-118757452D01*
X146396369Y-118763652D01*
X146396371Y-118763657D01*
X146483022Y-118951616D01*
X146485883Y-118957821D01*
X146613222Y-119138002D01*
X146771264Y-119291961D01*
X146954717Y-119414540D01*
X147157436Y-119501635D01*
X147372632Y-119550329D01*
X147418767Y-119552142D01*
X147586269Y-119558723D01*
X147586272Y-119558723D01*
X147593098Y-119558991D01*
X147811452Y-119527331D01*
X147817908Y-119525139D01*
X147817914Y-119525138D01*
X147959833Y-119476962D01*
X148020379Y-119456410D01*
X148212884Y-119348602D01*
X148382518Y-119207518D01*
X148523602Y-119037884D01*
X148565315Y-118963401D01*
X148628076Y-118851332D01*
X148631410Y-118845379D01*
X148663506Y-118750828D01*
X148700138Y-118642914D01*
X148700139Y-118642908D01*
X148702331Y-118636452D01*
X148733991Y-118418098D01*
X148735643Y-118355000D01*
X148733370Y-118330258D01*
X148716079Y-118142091D01*
X148715454Y-118135289D01*
X148655565Y-117922936D01*
X148649134Y-117909894D01*
X148561002Y-117731181D01*
X148557980Y-117725053D01*
X148425967Y-117548267D01*
X148420950Y-117543629D01*
X148420947Y-117543626D01*
X148268970Y-117403140D01*
X148268968Y-117403138D01*
X148263949Y-117398499D01*
X148258171Y-117394854D01*
X148258168Y-117394851D01*
X148083127Y-117284409D01*
X148077350Y-117280764D01*
X147872421Y-117199006D01*
X147812541Y-117187095D01*
X147662727Y-117157295D01*
X147662724Y-117157295D01*
X147656024Y-117155962D01*
X147544264Y-117154499D01*
X147442240Y-117153163D01*
X147442235Y-117153163D01*
X147435406Y-117153074D01*
X147428673Y-117154231D01*
X147428672Y-117154231D01*
X147306843Y-117175165D01*
X147217957Y-117190438D01*
X147211558Y-117192799D01*
X147211553Y-117192800D01*
X147100687Y-117233701D01*
X147010957Y-117266804D01*
X146821341Y-117379614D01*
X146655457Y-117525090D01*
X146651230Y-117530452D01*
X146651229Y-117530453D01*
X146613895Y-117577812D01*
X146518863Y-117698360D01*
X146481304Y-117769748D01*
X146428680Y-117869769D01*
X146416131Y-117893620D01*
X146398116Y-117951638D01*
X146352727Y-118097813D01*
X146352726Y-118097818D01*
X146350703Y-118104333D01*
X146324770Y-118323440D01*
X120340000Y-118323440D01*
X120340000Y-108148823D01*
X147024391Y-108148823D01*
X147042980Y-108290979D01*
X147100720Y-108422203D01*
X147107551Y-108430330D01*
X147107552Y-108430331D01*
X147119556Y-108444611D01*
X147152214Y-108514484D01*
X147154500Y-108540487D01*
X147154500Y-110899055D01*
X147152790Y-110915125D01*
X147152323Y-110925025D01*
X147149731Y-110937066D01*
X147151179Y-110949298D01*
X147153467Y-110968632D01*
X147153780Y-110973937D01*
X147153994Y-110973919D01*
X147154500Y-110980041D01*
X147154500Y-110986193D01*
X147155510Y-110992261D01*
X147155510Y-110992262D01*
X147157542Y-111004470D01*
X147158531Y-111011418D01*
X147164424Y-111061210D01*
X147168346Y-111069377D01*
X147169833Y-111078313D01*
X147175680Y-111089149D01*
X147175681Y-111089152D01*
X147193646Y-111122446D01*
X147196834Y-111128703D01*
X147218537Y-111173900D01*
X147222094Y-111178131D01*
X147224371Y-111180408D01*
X147225705Y-111181862D01*
X147229194Y-111188329D01*
X147238239Y-111196690D01*
X147268010Y-111224210D01*
X147272228Y-111228265D01*
X148393330Y-112349367D01*
X148431894Y-112416162D01*
X148435713Y-112435406D01*
X148436656Y-112442613D01*
X148442980Y-112490979D01*
X148500720Y-112622203D01*
X148507551Y-112630330D01*
X148507552Y-112630331D01*
X148586141Y-112723824D01*
X148592970Y-112731948D01*
X148712313Y-112811390D01*
X148722442Y-112814554D01*
X148722443Y-112814555D01*
X148745804Y-112821853D01*
X148849157Y-112854142D01*
X148859764Y-112854336D01*
X148859767Y-112854337D01*
X148922020Y-112855478D01*
X148992499Y-112856770D01*
X149065913Y-112836755D01*
X149120574Y-112821853D01*
X149120577Y-112821852D01*
X149130817Y-112819060D01*
X149139862Y-112813506D01*
X149139865Y-112813505D01*
X149243942Y-112749601D01*
X149252991Y-112744045D01*
X149297557Y-112694809D01*
X149342077Y-112645624D01*
X149342078Y-112645622D01*
X149349200Y-112637754D01*
X149411710Y-112508733D01*
X149413471Y-112498267D01*
X149434542Y-112373027D01*
X149434543Y-112373021D01*
X149435496Y-112367354D01*
X149435647Y-112355000D01*
X149415323Y-112213082D01*
X149385653Y-112147827D01*
X149360378Y-112092235D01*
X149360376Y-112092232D01*
X149355984Y-112082572D01*
X149349058Y-112074534D01*
X149349056Y-112074531D01*
X149287780Y-112003418D01*
X149262400Y-111973963D01*
X149253496Y-111968192D01*
X149253493Y-111968189D01*
X149166579Y-111911855D01*
X149142095Y-111895985D01*
X149004739Y-111854907D01*
X149000453Y-111854881D01*
X148932903Y-111825510D01*
X148920296Y-111814259D01*
X147949141Y-110843104D01*
X147910577Y-110776309D01*
X147905500Y-110737745D01*
X147905500Y-108543452D01*
X147925462Y-108468952D01*
X147937306Y-108452696D01*
X147942074Y-108445626D01*
X147949200Y-108437754D01*
X148011710Y-108308733D01*
X148035496Y-108167354D01*
X148035647Y-108155000D01*
X148015323Y-108013082D01*
X147985654Y-107947827D01*
X147960378Y-107892235D01*
X147960376Y-107892232D01*
X147955984Y-107882572D01*
X147949058Y-107874534D01*
X147949056Y-107874531D01*
X147909192Y-107828268D01*
X147862400Y-107773963D01*
X147853496Y-107768192D01*
X147853493Y-107768189D01*
X147786723Y-107724911D01*
X147742095Y-107695985D01*
X147693015Y-107681307D01*
X147614912Y-107657949D01*
X147614910Y-107657949D01*
X147604739Y-107654907D01*
X147594121Y-107654842D01*
X147594120Y-107654842D01*
X147534650Y-107654479D01*
X147461376Y-107654031D01*
X147451171Y-107656948D01*
X147451168Y-107656948D01*
X147333731Y-107690512D01*
X147333729Y-107690513D01*
X147323529Y-107693428D01*
X147314556Y-107699090D01*
X147314555Y-107699090D01*
X147306128Y-107704407D01*
X147202280Y-107769930D01*
X147195256Y-107777884D01*
X147195254Y-107777885D01*
X147148525Y-107830796D01*
X147107377Y-107877388D01*
X147046447Y-108007163D01*
X147024391Y-108148823D01*
X120340000Y-108148823D01*
X120340000Y-103568440D01*
X130939770Y-103568440D01*
X130954200Y-103788604D01*
X131008511Y-104002452D01*
X131011369Y-104008652D01*
X131011371Y-104008657D01*
X131098022Y-104196616D01*
X131100883Y-104202821D01*
X131228222Y-104383002D01*
X131386264Y-104536961D01*
X131569717Y-104659540D01*
X131772436Y-104746635D01*
X131987632Y-104795329D01*
X132033767Y-104797142D01*
X132201269Y-104803723D01*
X132201272Y-104803723D01*
X132208098Y-104803991D01*
X132426452Y-104772331D01*
X132432908Y-104770139D01*
X132432914Y-104770138D01*
X132584465Y-104718693D01*
X132635379Y-104701410D01*
X132827884Y-104593602D01*
X132997518Y-104452518D01*
X133138602Y-104282884D01*
X133180315Y-104208401D01*
X133240631Y-104100698D01*
X133246410Y-104090379D01*
X133286246Y-103973027D01*
X133315138Y-103887914D01*
X133315139Y-103887908D01*
X133317331Y-103881452D01*
X133348991Y-103663098D01*
X133350643Y-103600000D01*
X133348990Y-103582004D01*
X133331079Y-103387091D01*
X133330454Y-103380289D01*
X133270565Y-103167936D01*
X133261629Y-103149814D01*
X133176002Y-102976181D01*
X133172980Y-102970053D01*
X133040967Y-102793267D01*
X133035950Y-102788629D01*
X133035947Y-102788626D01*
X132883970Y-102648140D01*
X132883968Y-102648138D01*
X132878949Y-102643499D01*
X132873171Y-102639854D01*
X132873168Y-102639851D01*
X132698127Y-102529409D01*
X132692350Y-102525764D01*
X132487421Y-102444006D01*
X132427541Y-102432095D01*
X132277727Y-102402295D01*
X132277724Y-102402295D01*
X132271024Y-102400962D01*
X132159264Y-102399499D01*
X132057240Y-102398163D01*
X132057235Y-102398163D01*
X132050406Y-102398074D01*
X132043673Y-102399231D01*
X132043672Y-102399231D01*
X131921843Y-102420165D01*
X131832957Y-102435438D01*
X131826558Y-102437799D01*
X131826553Y-102437800D01*
X131713487Y-102479513D01*
X131625957Y-102511804D01*
X131436341Y-102624614D01*
X131270457Y-102770090D01*
X131266230Y-102775452D01*
X131266229Y-102775453D01*
X131151633Y-102920819D01*
X131133863Y-102943360D01*
X131077496Y-103050494D01*
X131037859Y-103125833D01*
X131031131Y-103138620D01*
X131011634Y-103201410D01*
X130967727Y-103342813D01*
X130967726Y-103342818D01*
X130965703Y-103349333D01*
X130964901Y-103356110D01*
X130964900Y-103356114D01*
X130947662Y-103501758D01*
X130939770Y-103568440D01*
X120340000Y-103568440D01*
X120340000Y-73639060D01*
X141822001Y-73639060D01*
X141822436Y-73647091D01*
X141827740Y-73695923D01*
X141832027Y-73713953D01*
X141876101Y-73831520D01*
X141886196Y-73849959D01*
X141960728Y-73949407D01*
X141975593Y-73964272D01*
X142075041Y-74038804D01*
X142093480Y-74048899D01*
X142211044Y-74092972D01*
X142229079Y-74097261D01*
X142277912Y-74102566D01*
X142285938Y-74103000D01*
X142806384Y-74103000D01*
X142821855Y-74098855D01*
X142826000Y-74083384D01*
X142826000Y-74083383D01*
X143334000Y-74083383D01*
X143338145Y-74098854D01*
X143353616Y-74102999D01*
X143874060Y-74102999D01*
X143882091Y-74102564D01*
X143930923Y-74097260D01*
X143948953Y-74092973D01*
X144066520Y-74048899D01*
X144084959Y-74038804D01*
X144184407Y-73964272D01*
X144199272Y-73949407D01*
X144273804Y-73849959D01*
X144283899Y-73831520D01*
X144327972Y-73713956D01*
X144332261Y-73695921D01*
X144337566Y-73647088D01*
X144338000Y-73639062D01*
X144338000Y-73639060D01*
X150322001Y-73639060D01*
X150322436Y-73647091D01*
X150327740Y-73695923D01*
X150332027Y-73713953D01*
X150376101Y-73831520D01*
X150386196Y-73849959D01*
X150460728Y-73949407D01*
X150475593Y-73964272D01*
X150575041Y-74038804D01*
X150593480Y-74048899D01*
X150711044Y-74092972D01*
X150729079Y-74097261D01*
X150777912Y-74102566D01*
X150785938Y-74103000D01*
X151306384Y-74103000D01*
X151321855Y-74098855D01*
X151326000Y-74083384D01*
X151326000Y-74083383D01*
X151834000Y-74083383D01*
X151838145Y-74098854D01*
X151853616Y-74102999D01*
X152374060Y-74102999D01*
X152382091Y-74102564D01*
X152430923Y-74097260D01*
X152448953Y-74092973D01*
X152566520Y-74048899D01*
X152584959Y-74038804D01*
X152684407Y-73964272D01*
X152699272Y-73949407D01*
X152773804Y-73849959D01*
X152783899Y-73831520D01*
X152827972Y-73713956D01*
X152832261Y-73695921D01*
X152837566Y-73647088D01*
X152838000Y-73639062D01*
X152838000Y-71669748D01*
X156194500Y-71669748D01*
X156206133Y-71728231D01*
X156250448Y-71794552D01*
X156316769Y-71838867D01*
X156331165Y-71841731D01*
X156331166Y-71841731D01*
X156368077Y-71849073D01*
X156368079Y-71849073D01*
X156375252Y-71850500D01*
X158114748Y-71850500D01*
X158121921Y-71849073D01*
X158121923Y-71849073D01*
X158158834Y-71841731D01*
X158158835Y-71841731D01*
X158173231Y-71838867D01*
X158239552Y-71794552D01*
X158283867Y-71728231D01*
X158295500Y-71669748D01*
X158295500Y-71496859D01*
X158315462Y-71422359D01*
X158370000Y-71367821D01*
X158444500Y-71347859D01*
X158519000Y-71367821D01*
X158571543Y-71419007D01*
X158682190Y-71599566D01*
X158689403Y-71609422D01*
X158827591Y-71768950D01*
X158836311Y-71777489D01*
X158998716Y-71912320D01*
X159008686Y-71919302D01*
X159190945Y-72025805D01*
X159201920Y-72031064D01*
X159399127Y-72106370D01*
X159410817Y-72109766D01*
X159511778Y-72130306D01*
X159527765Y-72129328D01*
X159531000Y-72122840D01*
X159531000Y-72117016D01*
X160039000Y-72117016D01*
X160043145Y-72132487D01*
X160052271Y-72134932D01*
X160062244Y-72133654D01*
X160074167Y-72131120D01*
X160276348Y-72070463D01*
X160287691Y-72066017D01*
X160477245Y-71973156D01*
X160487715Y-71966915D01*
X160659552Y-71844345D01*
X160668874Y-71836467D01*
X160818381Y-71687480D01*
X160826281Y-71678198D01*
X160949451Y-71506789D01*
X160955734Y-71496332D01*
X161049254Y-71307109D01*
X161053742Y-71295775D01*
X161115100Y-71093822D01*
X161117680Y-71081890D01*
X161118791Y-71073447D01*
X161116700Y-71057569D01*
X161108083Y-71054000D01*
X160058616Y-71054000D01*
X160043145Y-71058145D01*
X160039000Y-71073616D01*
X160039000Y-72117016D01*
X159531000Y-72117016D01*
X159531000Y-70526384D01*
X160039000Y-70526384D01*
X160043145Y-70541855D01*
X160058616Y-70546000D01*
X161101843Y-70546000D01*
X161117314Y-70541855D01*
X161118916Y-70535875D01*
X161076445Y-70366793D01*
X161072516Y-70355254D01*
X160988350Y-70161685D01*
X160982590Y-70150942D01*
X160867937Y-69973716D01*
X160860504Y-69964063D01*
X160718440Y-69807937D01*
X160709534Y-69799632D01*
X160543880Y-69668807D01*
X160533725Y-69662060D01*
X160348939Y-69560053D01*
X160337813Y-69555053D01*
X160138859Y-69484599D01*
X160127057Y-69481480D01*
X160058310Y-69469235D01*
X160042355Y-69470603D01*
X160039000Y-69477764D01*
X160039000Y-70526384D01*
X159531000Y-70526384D01*
X159531000Y-69484603D01*
X159526855Y-69469132D01*
X159518515Y-69466898D01*
X159475256Y-69473517D01*
X159463394Y-69476343D01*
X159262759Y-69541920D01*
X159251532Y-69546639D01*
X159064300Y-69644107D01*
X159053981Y-69650605D01*
X158885185Y-69777341D01*
X158876073Y-69785431D01*
X158730248Y-69938029D01*
X158722573Y-69947505D01*
X158603621Y-70121883D01*
X158597606Y-70132470D01*
X158579650Y-70171154D01*
X158530176Y-70230324D01*
X158457745Y-70256830D01*
X158381766Y-70243570D01*
X158322596Y-70194096D01*
X158296090Y-70121665D01*
X158295500Y-70108420D01*
X158295500Y-69930252D01*
X158283867Y-69871769D01*
X158239552Y-69805448D01*
X158173231Y-69761133D01*
X158158835Y-69758269D01*
X158158834Y-69758269D01*
X158121923Y-69750927D01*
X158121921Y-69750927D01*
X158114748Y-69749500D01*
X156375252Y-69749500D01*
X156368079Y-69750927D01*
X156368077Y-69750927D01*
X156331166Y-69758269D01*
X156331165Y-69758269D01*
X156316769Y-69761133D01*
X156250448Y-69805448D01*
X156206133Y-69871769D01*
X156194500Y-69930252D01*
X156194500Y-71669748D01*
X152838000Y-71669748D01*
X152838000Y-71328616D01*
X152833855Y-71313145D01*
X152818384Y-71309000D01*
X151853616Y-71309000D01*
X151838145Y-71313145D01*
X151834000Y-71328616D01*
X151834000Y-74083383D01*
X151326000Y-74083383D01*
X151326000Y-71328616D01*
X151321855Y-71313145D01*
X151306384Y-71309000D01*
X150341617Y-71309000D01*
X150326146Y-71313145D01*
X150322001Y-71328616D01*
X150322001Y-73639060D01*
X144338000Y-73639060D01*
X144338000Y-71328616D01*
X144333855Y-71313145D01*
X144318384Y-71309000D01*
X143353616Y-71309000D01*
X143338145Y-71313145D01*
X143334000Y-71328616D01*
X143334000Y-74083383D01*
X142826000Y-74083383D01*
X142826000Y-71328616D01*
X142821855Y-71313145D01*
X142806384Y-71309000D01*
X141841617Y-71309000D01*
X141826146Y-71313145D01*
X141822001Y-71328616D01*
X141822001Y-73639060D01*
X120340000Y-73639060D01*
X120340000Y-68484000D01*
X120359962Y-68409500D01*
X120414500Y-68354962D01*
X120489000Y-68335000D01*
X141673000Y-68335000D01*
X141747500Y-68354962D01*
G37*
%TD.AperFunction*%
%TD*%
M02*
