M48
; DRILL file {KiCad (6.0.2)} date Wed Mar  2 19:14:51 2022
; FORMAT={-:-/ absolute / inch / decimal}
; #@! TF.CreationDate,2022-03-02T19:14:51-08:00
; #@! TF.GenerationSoftware,Kicad,Pcbnew,(6.0.2)
; #@! TF.FileFunction,Plated,1,2,PTH
FMAT,2
INCH
; #@! TA.AperFunction,Plated,PTH,ViaDrill
T1C0.0118
; #@! TA.AperFunction,Plated,PTH,ViaDrill
T2C0.0157
; #@! TA.AperFunction,Plated,PTH,ComponentDrill
T3C0.0236
; #@! TA.AperFunction,Plated,PTH,ComponentDrill
T4C0.0394
; #@! TA.AperFunction,Plated,PTH,ComponentDrill
T5C0.0512
%
G90
G05
T1
X5.7335Y-4.1281
X5.7335Y-4.1754
X5.7335Y-4.2226
X5.7728Y-3.9667
X5.7807Y-4.1281
X5.7807Y-4.2226
X5.7816Y-4.1754
X5.8083Y-4.2581
X5.8142Y-4.0927
X5.828Y-4.1281
X5.828Y-4.1734
X5.828Y-4.2226
X5.8634Y-4.4234
T2
X4.8083Y-3.3801
X4.824Y-3.6715
X4.9854Y-4.5022
X5.072Y-4.2974
X5.2965Y-2.9549
X5.3122Y-4.4982
X5.3538Y-4.1575
X5.4067Y-3.9746
X5.4067Y-4.0455
X5.4697Y-3.7856
X5.5012Y-3.8142
X5.5091Y-3.3093
X5.5091Y-4.5809
X5.5406Y-3.8289
X5.5984Y-4.7756
X5.5984Y-5.0669
X5.6331Y-2.9648
X5.698Y-3.7463
X5.702Y-3.3329
X5.7059Y-4.3604
X5.7689Y-3.7463
X5.7886Y-3.2659
X5.7984Y-4.5553
X5.9224Y-4.5573
X5.9303Y-3.6764
X5.9677Y-2.9648
X5.9815Y-3.5415
X5.9854Y-3.6488
X6.0272Y-3.3492
X6.0445Y-3.6203
X6.1114Y-3.9667
X6.1114Y-4.0337
X6.1114Y-4.1006
X6.1252Y-4.2344
X6.135Y-3.8604
X6.1752Y-4.1909
X6.2101Y-4.1658
X6.25Y-4.1457
X6.314Y-4.252
X6.375Y-4.0551
X6.4646Y-4.248
X6.4862Y-4.6348
X6.4872Y-4.7904
X6.4921Y-2.8457
X6.5287Y-3.7738
X6.6232Y-4.2463
X6.6272Y-4.0278
X6.6823Y-3.2699
X6.7057Y-4.8789
X6.7217Y-4.0022
X6.7256Y-4.3132
X6.7953Y-4.6043
X6.8083Y-4.2699
T4
X4.8091Y-4.6215
X4.8091Y-4.7215
X5.135Y-4.0061
X5.2795Y-5.1102
X5.324Y-3.8801
X5.6766Y-5.1752
X5.7766Y-5.1752
X5.8083Y-4.6596
X6.0593Y-5.1811
X6.1323Y-3.2992
X6.1593Y-5.1811
X6.2323Y-3.2992
X6.2571Y-3.762
X6.2593Y-5.1811
X6.3593Y-5.1811
X6.547Y-5.1811
X6.647Y-5.1811
X6.747Y-5.1811
X6.8039Y-3.1988
X6.8039Y-3.2988
X6.8039Y-3.3988
X6.8039Y-3.4988
T5
X4.8358Y-5.0415
T3
G00X5.0091Y-4.9037
M15
G01X5.0563Y-4.9037
M16
G05
G00X5.0091Y-5.0415
M15
G01X5.0563Y-5.0415
M16
G05
G00X5.0091Y-5.199
M15
G01X5.0563Y-5.199
M16
G05
T0
M30
