M48
; DRILL file {KiCad 6.0.2-378541a8eb~116~ubuntu20.04.1} date Tue 08 Mar 2022 08:01:35 PM PST
; FORMAT={-:-/ absolute / inch / decimal}
; #@! TF.CreationDate,2022-03-08T20:01:35-08:00
; #@! TF.GenerationSoftware,Kicad,Pcbnew,6.0.2-378541a8eb~116~ubuntu20.04.1
; #@! TF.FileFunction,Plated,1,2,PTH
FMAT,2
INCH
; #@! TA.AperFunction,Plated,PTH,ViaDrill
T1C0.0118
; #@! TA.AperFunction,Plated,PTH,ViaDrill
T2C0.0157
; #@! TA.AperFunction,Plated,PTH,ComponentDrill
T3C0.0256
; #@! TA.AperFunction,Plated,PTH,ComponentDrill
T4C0.0394
%
G90
G05
T1
X5.7335Y-4.1281
X5.7335Y-4.1754
X5.7335Y-4.2226
X5.7728Y-3.9667
X5.7807Y-4.1281
X5.7807Y-4.2226
X5.7816Y-4.1754
X5.8083Y-4.2581
X5.8142Y-4.0927
X5.828Y-4.1281
X5.828Y-4.1734
X5.828Y-4.2226
X5.8906Y-4.4213
T2
X4.7892Y-2.9843
X4.8128Y-3.9252
X4.8915Y-3.374
X4.9713Y-4.2638
X4.9713Y-4.5846
X5.0608Y-4.5098
X5.1406Y-4.3524
X5.3561Y-2.7441
X5.4191Y-3.99
X5.4191Y-4.0687
X5.4191Y-4.2146
X5.4506Y-3.1181
X5.4624Y-3.6968
X5.4624Y-5.0827
X5.486Y-4.9852
X5.5215Y-3.2795
X5.5825Y-4.3661
X5.6022Y-4.5453
X5.6159Y-5.0669
X5.6331Y-2.9648
X5.7301Y-3.7463
X5.7341Y-3.2795
X5.797Y-3.7461
X5.8404Y-4.5669
X5.8994Y-3.563
X5.9526Y-4.7894
X5.9677Y-2.9648
X6.0057Y-4.4882
X6.135Y-3.8604
X6.1415Y-4.2146
X6.1435Y-3.9567
X6.1435Y-4.0236
X6.1435Y-4.0906
X6.1752Y-4.1909
X6.2101Y-4.1658
X6.25Y-4.1457
X6.2813Y-4.5157
X6.3167Y-4.2165
X6.3876Y-4.1535
X6.49Y-4.2165
X6.5136Y-4.811
X6.6232Y-4.2463
X6.738Y-3.0512
X6.7626Y-4.6024
X6.764Y-2.7323
X6.7656Y-4.8878
X6.8083Y-4.2699
T3
X6.3858Y-4.4161
X6.3858Y-4.4661
X6.3858Y-4.5161
X6.3858Y-4.5661
X6.3858Y-4.6161
X6.4358Y-4.4161
X6.4358Y-4.4661
X6.4358Y-4.5161
X6.4358Y-4.5661
X6.4358Y-4.6161
T4
X4.812Y-4.9055
X4.812Y-5.0055
X5.2026Y-3.8465
X5.2026Y-4.0787
X5.2596Y-4.9173
X5.2596Y-5.1339
X5.763Y-5.1811
X5.863Y-5.1811
X6.0593Y-5.1811
X6.1593Y-5.1811
X6.1907Y-2.7874
X6.2593Y-5.1811
X6.2907Y-2.7874
X6.3049Y-4.0197
X6.3069Y-3.7697
X6.3325Y-4.9213
X6.3593Y-5.1811
X6.547Y-5.1811
X6.6002Y-4.4193
X6.647Y-5.1811
X6.747Y-5.1811
X6.797Y-3.2008
X6.797Y-3.3008
X6.797Y-3.4008
X6.797Y-3.5008
T0
M30
