%TF.GenerationSoftware,KiCad,Pcbnew,(6.0.2)*%
%TF.CreationDate,2022-02-14T15:02:21-08:00*%
%TF.ProjectId,RP2040_WEDS,52503230-3430-45f5-9745-44532e6b6963,rev?*%
%TF.SameCoordinates,Original*%
%TF.FileFunction,Copper,L1,Top*%
%TF.FilePolarity,Positive*%
%FSLAX46Y46*%
G04 Gerber Fmt 4.6, Leading zero omitted, Abs format (unit mm)*
G04 Created by KiCad (PCBNEW (6.0.2)) date 2022-02-14 15:02:21*
%MOMM*%
%LPD*%
G01*
G04 APERTURE LIST*
G04 Aperture macros list*
%AMRoundRect*
0 Rectangle with rounded corners*
0 $1 Rounding radius*
0 $2 $3 $4 $5 $6 $7 $8 $9 X,Y pos of 4 corners*
0 Add a 4 corners polygon primitive as box body*
4,1,4,$2,$3,$4,$5,$6,$7,$8,$9,$2,$3,0*
0 Add four circle primitives for the rounded corners*
1,1,$1+$1,$2,$3*
1,1,$1+$1,$4,$5*
1,1,$1+$1,$6,$7*
1,1,$1+$1,$8,$9*
0 Add four rect primitives between the rounded corners*
20,1,$1+$1,$2,$3,$4,$5,0*
20,1,$1+$1,$4,$5,$6,$7,0*
20,1,$1+$1,$6,$7,$8,$9,0*
20,1,$1+$1,$8,$9,$2,$3,0*%
%AMFreePoly0*
4,1,22,0.500000,-0.750000,0.000000,-0.750000,0.000000,-0.745033,-0.079941,-0.743568,-0.215256,-0.701293,-0.333266,-0.622738,-0.424486,-0.514219,-0.481581,-0.384460,-0.499164,-0.250000,-0.500000,-0.250000,-0.500000,0.250000,-0.499164,0.250000,-0.499963,0.256109,-0.478152,0.396186,-0.417904,0.524511,-0.324060,0.630769,-0.204165,0.706417,-0.067858,0.745374,0.000000,0.744959,0.000000,0.750000,
0.500000,0.750000,0.500000,-0.750000,0.500000,-0.750000,$1*%
%AMFreePoly1*
4,1,20,0.000000,0.744959,0.073905,0.744508,0.209726,0.703889,0.328688,0.626782,0.421226,0.519385,0.479903,0.390333,0.500000,0.250000,0.500000,-0.250000,0.499851,-0.262216,0.476331,-0.402017,0.414519,-0.529596,0.319384,-0.634700,0.198574,-0.708877,0.061801,-0.746166,0.000000,-0.745033,0.000000,-0.750000,-0.500000,-0.750000,-0.500000,0.750000,0.000000,0.750000,0.000000,0.744959,
0.000000,0.744959,$1*%
G04 Aperture macros list end*
%TA.AperFunction,ComponentPad*%
%ADD10C,2.000000*%
%TD*%
%TA.AperFunction,ComponentPad*%
%ADD11O,1.000000X1.000000*%
%TD*%
%TA.AperFunction,ComponentPad*%
%ADD12R,1.000000X1.000000*%
%TD*%
%TA.AperFunction,SMDPad,CuDef*%
%ADD13RoundRect,0.200000X0.275000X-0.200000X0.275000X0.200000X-0.275000X0.200000X-0.275000X-0.200000X0*%
%TD*%
%TA.AperFunction,SMDPad,CuDef*%
%ADD14FreePoly0,90.000000*%
%TD*%
%TA.AperFunction,SMDPad,CuDef*%
%ADD15FreePoly1,90.000000*%
%TD*%
%TA.AperFunction,SMDPad,CuDef*%
%ADD16RoundRect,0.225000X0.225000X0.250000X-0.225000X0.250000X-0.225000X-0.250000X0.225000X-0.250000X0*%
%TD*%
%TA.AperFunction,SMDPad,CuDef*%
%ADD17RoundRect,0.200000X-0.275000X0.200000X-0.275000X-0.200000X0.275000X-0.200000X0.275000X0.200000X0*%
%TD*%
%TA.AperFunction,SMDPad,CuDef*%
%ADD18RoundRect,0.225000X0.250000X-0.225000X0.250000X0.225000X-0.250000X0.225000X-0.250000X-0.225000X0*%
%TD*%
%TA.AperFunction,SMDPad,CuDef*%
%ADD19R,0.350000X0.500000*%
%TD*%
%TA.AperFunction,SMDPad,CuDef*%
%ADD20R,3.100000X3.100000*%
%TD*%
%TA.AperFunction,SMDPad,CuDef*%
%ADD21RoundRect,0.006000X-0.414000X-0.094000X0.414000X-0.094000X0.414000X0.094000X-0.414000X0.094000X0*%
%TD*%
%TA.AperFunction,SMDPad,CuDef*%
%ADD22RoundRect,0.020000X-0.080000X-0.400000X0.080000X-0.400000X0.080000X0.400000X-0.080000X0.400000X0*%
%TD*%
%TA.AperFunction,SMDPad,CuDef*%
%ADD23RoundRect,0.150000X0.650000X0.150000X-0.650000X0.150000X-0.650000X-0.150000X0.650000X-0.150000X0*%
%TD*%
%TA.AperFunction,SMDPad,CuDef*%
%ADD24RoundRect,0.225000X-0.225000X-0.250000X0.225000X-0.250000X0.225000X0.250000X-0.225000X0.250000X0*%
%TD*%
%TA.AperFunction,SMDPad,CuDef*%
%ADD25R,0.850000X0.650000*%
%TD*%
%TA.AperFunction,SMDPad,CuDef*%
%ADD26R,0.900000X0.800000*%
%TD*%
%TA.AperFunction,SMDPad,CuDef*%
%ADD27RoundRect,0.225000X-0.250000X0.225000X-0.250000X-0.225000X0.250000X-0.225000X0.250000X0.225000X0*%
%TD*%
%TA.AperFunction,SMDPad,CuDef*%
%ADD28R,1.500000X5.080000*%
%TD*%
%TA.AperFunction,SMDPad,CuDef*%
%ADD29R,0.650000X1.060000*%
%TD*%
%TA.AperFunction,SMDPad,CuDef*%
%ADD30R,2.300000X1.000000*%
%TD*%
%TA.AperFunction,SMDPad,CuDef*%
%ADD31R,1.000000X2.300000*%
%TD*%
%TA.AperFunction,SMDPad,CuDef*%
%ADD32R,1.550000X1.300000*%
%TD*%
%TA.AperFunction,SMDPad,CuDef*%
%ADD33R,1.300000X1.550000*%
%TD*%
%TA.AperFunction,SMDPad,CuDef*%
%ADD34RoundRect,0.200000X-0.200000X-0.275000X0.200000X-0.275000X0.200000X0.275000X-0.200000X0.275000X0*%
%TD*%
%TA.AperFunction,SMDPad,CuDef*%
%ADD35RoundRect,0.200000X0.200000X0.275000X-0.200000X0.275000X-0.200000X-0.275000X0.200000X-0.275000X0*%
%TD*%
%TA.AperFunction,SMDPad,CuDef*%
%ADD36RoundRect,0.218750X-0.218750X-0.256250X0.218750X-0.256250X0.218750X0.256250X-0.218750X0.256250X0*%
%TD*%
%TA.AperFunction,SMDPad,CuDef*%
%ADD37R,0.740000X2.400000*%
%TD*%
%TA.AperFunction,ComponentPad*%
%ADD38O,2.700000X1.200000*%
%TD*%
%TA.AperFunction,ComponentPad*%
%ADD39C,1.900000*%
%TD*%
%TA.AperFunction,SMDPad,CuDef*%
%ADD40R,0.450000X0.600000*%
%TD*%
%TA.AperFunction,SMDPad,CuDef*%
%ADD41RoundRect,0.218750X0.256250X-0.218750X0.256250X0.218750X-0.256250X0.218750X-0.256250X-0.218750X0*%
%TD*%
%TA.AperFunction,SMDPad,CuDef*%
%ADD42R,0.600000X0.450000*%
%TD*%
%TA.AperFunction,ViaPad*%
%ADD43C,0.800000*%
%TD*%
%TA.AperFunction,Conductor*%
%ADD44C,0.250000*%
%TD*%
%TA.AperFunction,Conductor*%
%ADD45C,0.200000*%
%TD*%
%TA.AperFunction,Conductor*%
%ADD46C,1.000000*%
%TD*%
%TA.AperFunction,Conductor*%
%ADD47C,0.500000*%
%TD*%
%TA.AperFunction,Conductor*%
%ADD48C,0.350000*%
%TD*%
G04 APERTURE END LIST*
D10*
%TO.P,VDD,1,1*%
%TO.N,VDD*%
X156100000Y-72700000D03*
%TD*%
D11*
%TO.P,USB,4,Pin_4*%
%TO.N,GND*%
X202800000Y-58310000D03*
%TO.P,USB,3,Pin_3*%
%TO.N,USB_DN*%
X202800000Y-57040000D03*
%TO.P,USB,2,Pin_2*%
%TO.N,USB_DP*%
X202800000Y-55770000D03*
D12*
%TO.P,USB,1,Pin_1*%
%TO.N,VDC*%
X202800000Y-54500000D03*
%TD*%
D13*
%TO.P,R16,1*%
%TO.N,/D+*%
X178600000Y-68925000D03*
%TO.P,R16,2*%
%TO.N,USB_DP*%
X178600000Y-67275000D03*
%TD*%
%TO.P,R15,1*%
%TO.N,/D-*%
X180400000Y-68925000D03*
%TO.P,R15,2*%
%TO.N,USB_DN*%
X180400000Y-67275000D03*
%TD*%
D14*
%TO.P,JP2,1,A*%
%TO.N,Net-(U2-Pad4)*%
X176000000Y-93700000D03*
D15*
%TO.P,JP2,2,B*%
%TO.N,VDC*%
X176000000Y-92400000D03*
%TD*%
D16*
%TO.P,C24,1*%
%TO.N,VDD*%
X170775000Y-72300000D03*
%TO.P,C24,2*%
%TO.N,GND*%
X169225000Y-72300000D03*
%TD*%
D10*
%TO.P,RX,1,1*%
%TO.N,LORA_RX*%
X163300000Y-71700000D03*
%TD*%
%TO.P,TX,1,1*%
%TO.N,LORA_TX*%
X163200000Y-67300000D03*
%TD*%
%TO.P,SOIL,1,1*%
%TO.N,SOIL_SIG*%
X193200000Y-97400000D03*
%TD*%
%TO.P,3V3,1,1*%
%TO.N,+3V3*%
X179600000Y-89200000D03*
%TD*%
%TO.P,BATT,1,1*%
%TO.N,+BATT*%
X179600000Y-96400000D03*
%TD*%
%TO.P,VDC,1,1*%
%TO.N,VDC*%
X167100000Y-92300000D03*
%TD*%
D17*
%TO.P,R1,2*%
%TO.N,Net-(R1-Pad2)*%
X177400000Y-101225000D03*
%TO.P,R1,1*%
%TO.N,+BATT*%
X177400000Y-99575000D03*
%TD*%
D18*
%TO.P,C1,2*%
%TO.N,GND*%
X184200000Y-69025000D03*
%TO.P,C1,1*%
%TO.N,VDD*%
X184200000Y-70575000D03*
%TD*%
D19*
%TO.P,U4,5,SDO*%
%TO.N,GND*%
X162025000Y-83050000D03*
%TO.P,U4,6,VDDIO*%
%TO.N,VDD*%
X161375000Y-83050000D03*
%TO.P,U4,7,GND*%
%TO.N,GND*%
X160725000Y-83050000D03*
%TO.P,U4,8,VDD*%
%TO.N,VDD*%
X160075000Y-83050000D03*
%TO.P,U4,1,GND*%
%TO.N,GND*%
X160075000Y-81000000D03*
%TO.P,U4,2,CSB*%
%TO.N,VDD*%
X160725000Y-81000000D03*
%TO.P,U4,3,SDI*%
%TO.N,SDA*%
X161375000Y-81000000D03*
%TO.P,U4,4,SCK*%
%TO.N,SCL*%
X162025000Y-81000000D03*
%TD*%
D20*
%TO.P,U1,57,GND*%
%TO.N,GND*%
X177000000Y-77000000D03*
D21*
%TO.P,U1,42,IOVDD*%
%TO.N,VDD*%
X180435000Y-74400000D03*
%TO.P,U1,41,GPIO29/ADC3*%
%TO.N,unconnected-(U1-Pad41)*%
X180435000Y-74800000D03*
%TO.P,U1,40,GPIO28/ADC2*%
%TO.N,unconnected-(U1-Pad40)*%
X180435000Y-75200000D03*
%TO.P,U1,39,GPIO27/ADC1*%
%TO.N,unconnected-(U1-Pad39)*%
X180435000Y-75600000D03*
%TO.P,U1,38,GPIO26/ADC0*%
%TO.N,SOIL_SIG*%
X180435000Y-76000000D03*
%TO.P,U1,37,GPIO25*%
%TO.N,SCL_SOIL*%
X180435000Y-76400000D03*
%TO.P,U1,36,GPIO24*%
%TO.N,SDA_SOIL*%
X180435000Y-76800000D03*
%TO.P,U1,35,GPIO23*%
%TO.N,unconnected-(U1-Pad35)*%
X180435000Y-77200000D03*
%TO.P,U1,34,GPIO22*%
%TO.N,unconnected-(U1-Pad34)*%
X180435000Y-77600000D03*
%TO.P,U1,33,IOVDD*%
%TO.N,VDD*%
X180435000Y-78000000D03*
%TO.P,U1,32,GPIO21*%
%TO.N,unconnected-(U1-Pad32)*%
X180435000Y-78400000D03*
%TO.P,U1,31,GPIO20*%
%TO.N,unconnected-(U1-Pad31)*%
X180435000Y-78800000D03*
%TO.P,U1,30,GPIO19*%
%TO.N,unconnected-(U1-Pad30)*%
X180435000Y-79200000D03*
%TO.P,U1,29,GPIO18*%
%TO.N,DONE*%
X180435000Y-79600000D03*
%TO.P,U1,14,GPIO11*%
%TO.N,unconnected-(U1-Pad14)*%
X173565000Y-79600000D03*
%TO.P,U1,13,GPIO10*%
%TO.N,unconnected-(U1-Pad13)*%
X173565000Y-79200000D03*
%TO.P,U1,12,GPIO9*%
%TO.N,SCL*%
X173565000Y-78800000D03*
%TO.P,U1,11,GPIO8*%
%TO.N,SDA*%
X173565000Y-78400000D03*
%TO.P,U1,10,IOVDD*%
%TO.N,VDD*%
X173565000Y-78000000D03*
%TO.P,U1,9,GPIO7*%
%TO.N,unconnected-(U1-Pad9)*%
X173565000Y-77600000D03*
%TO.P,U1,8,GPIO6*%
%TO.N,unconnected-(U1-Pad8)*%
X173565000Y-77200000D03*
%TO.P,U1,7,GPIO5*%
%TO.N,LORA_RX*%
X173565000Y-76800000D03*
%TO.P,U1,6,GPIO4*%
%TO.N,LORA_TX*%
X173565000Y-76400000D03*
%TO.P,U1,5,GPIO3*%
%TO.N,unconnected-(U1-Pad5)*%
X173565000Y-76000000D03*
%TO.P,U1,4,GPIO2*%
%TO.N,unconnected-(U1-Pad4)*%
X173565000Y-75600000D03*
%TO.P,U1,3,GPIO1*%
%TO.N,unconnected-(U1-Pad3)*%
X173565000Y-75200000D03*
%TO.P,U1,2,GPIO0*%
%TO.N,unconnected-(U1-Pad2)*%
X173565000Y-74800000D03*
%TO.P,U1,1,IOVDD*%
%TO.N,VDD*%
X173565000Y-74400000D03*
D22*
%TO.P,U1,56,QSPI_CSN*%
%TO.N,QSPI_CSN*%
X174400000Y-73565000D03*
%TO.P,U1,55,QSPI_SD1*%
%TO.N,QSPI_SD1*%
X174800000Y-73565000D03*
%TO.P,U1,54,QSPI_SD2*%
%TO.N,QSPI_SD2*%
X175200000Y-73565000D03*
%TO.P,U1,53,QSPI_SD0*%
%TO.N,QSPI_SD0*%
X175600000Y-73565000D03*
%TO.P,U1,52,QSPI_SCLK*%
%TO.N,QSPI_CLK*%
X176000000Y-73565000D03*
%TO.P,U1,51,QSPI_SD3*%
%TO.N,QSPI_SD3*%
X176400000Y-73565000D03*
%TO.P,U1,50,DVDD*%
%TO.N,+1V1*%
X176800000Y-73565000D03*
%TO.P,U1,49,IOVDD*%
%TO.N,VDD*%
X177200000Y-73565000D03*
%TO.P,U1,48,USB_VDD*%
X177600000Y-73565000D03*
%TO.P,U1,47,USB_DP*%
%TO.N,/D+*%
X178000000Y-73565000D03*
%TO.P,U1,46,USB_DM*%
%TO.N,/D-*%
X178400000Y-73565000D03*
%TO.P,U1,45,VREG_VOUT*%
%TO.N,+1V1*%
X178800000Y-73565000D03*
%TO.P,U1,44,VREG_VIN*%
%TO.N,VDD*%
X179200000Y-73565000D03*
%TO.P,U1,43,ADC_AVDD*%
X179600000Y-73565000D03*
%TO.P,U1,28,GPIO17*%
%TO.N,unconnected-(U1-Pad28)*%
X179600000Y-80435000D03*
%TO.P,U1,27,GPIO16*%
%TO.N,unconnected-(U1-Pad27)*%
X179200000Y-80435000D03*
%TO.P,U1,26,RUN*%
%TO.N,RESET*%
X178800000Y-80435000D03*
%TO.P,U1,25,SWD*%
%TO.N,SWD_DIO*%
X178400000Y-80435000D03*
%TO.P,U1,24,SWCLK*%
%TO.N,SWD_CLK*%
X178000000Y-80435000D03*
%TO.P,U1,23,DVDD*%
%TO.N,+1V1*%
X177600000Y-80435000D03*
%TO.P,U1,22,IOVDD*%
%TO.N,VDD*%
X177200000Y-80435000D03*
%TO.P,U1,21,XOUT*%
%TO.N,XOUT*%
X176800000Y-80435000D03*
%TO.P,U1,20,XIN*%
%TO.N,XIN*%
X176400000Y-80435000D03*
%TO.P,U1,19,TESTEN*%
%TO.N,GND*%
X176000000Y-80435000D03*
%TO.P,U1,18,GPIO15*%
%TO.N,unconnected-(U1-Pad18)*%
X175600000Y-80435000D03*
%TO.P,U1,17,GPIO14*%
%TO.N,unconnected-(U1-Pad17)*%
X175200000Y-80435000D03*
%TO.P,U1,16,GPIO13*%
%TO.N,unconnected-(U1-Pad16)*%
X174800000Y-80435000D03*
%TO.P,U1,15,GPIO12*%
%TO.N,unconnected-(U1-Pad15)*%
X174400000Y-80435000D03*
%TD*%
D23*
%TO.P,U3,8,VCC*%
%TO.N,VDD*%
X177900000Y-62905000D03*
%TO.P,U3,7,IO3*%
%TO.N,QSPI_SD3*%
X177900000Y-61635000D03*
%TO.P,U3,6,CLK*%
%TO.N,QSPI_CLK*%
X177900000Y-60365000D03*
%TO.P,U3,5,DI(IO0)*%
%TO.N,QSPI_SD0*%
X177900000Y-59095000D03*
%TO.P,U3,4,GND*%
%TO.N,GND*%
X185100000Y-59095000D03*
%TO.P,U3,3,IO2*%
%TO.N,QSPI_SD2*%
X185100000Y-60365000D03*
%TO.P,U3,2,DO(IO1)*%
%TO.N,QSPI_SD1*%
X185100000Y-61635000D03*
%TO.P,U3,1,~{CS}*%
%TO.N,QSPI_CSN*%
X185100000Y-62905000D03*
%TD*%
D16*
%TO.P,C5,2*%
%TO.N,GND*%
X174950000Y-83750000D03*
%TO.P,C5,1*%
%TO.N,VDD*%
X176500000Y-83750000D03*
%TD*%
%TO.P,C8,2*%
%TO.N,GND*%
X169225000Y-74300000D03*
%TO.P,C8,1*%
%TO.N,VDD*%
X170775000Y-74300000D03*
%TD*%
D24*
%TO.P,C20,2*%
%TO.N,GND*%
X171000000Y-83750000D03*
%TO.P,C20,1*%
%TO.N,XIN*%
X169450000Y-83750000D03*
%TD*%
D25*
%TO.P,Y1,4,4*%
%TO.N,GND*%
X171050000Y-86350000D03*
%TO.P,Y1,3,3*%
%TO.N,XOUT*%
X171050000Y-88000000D03*
%TO.P,Y1,2,2*%
%TO.N,GND*%
X169500000Y-88000000D03*
%TO.P,Y1,1,1*%
%TO.N,XIN*%
X169500000Y-86350000D03*
%TD*%
D26*
%TO.P,Q2,3,S*%
%TO.N,+3V3*%
X193400000Y-63500000D03*
%TO.P,Q2,2,G*%
%TO.N,Net-(Q2-Pad2)*%
X195400000Y-62550000D03*
%TO.P,Q2,1,D*%
%TO.N,VDD*%
X195400000Y-64450000D03*
%TD*%
D15*
%TO.P,JP1,2,B*%
%TO.N,VDD*%
X194400000Y-68150000D03*
D14*
%TO.P,JP1,1,A*%
%TO.N,+3V3*%
X194400000Y-69450000D03*
%TD*%
D27*
%TO.P,C9,2*%
%TO.N,GND*%
X180600000Y-101175000D03*
%TO.P,C9,1*%
%TO.N,+BATT*%
X180600000Y-99625000D03*
%TD*%
D28*
%TO.P,J6,2*%
%TO.N,GND*%
X181750000Y-42000000D03*
%TO.P,J6,3*%
X173250000Y-42000000D03*
%TO.P,J6,1*%
%TO.N,Net-(C23-Pad1)*%
X177500000Y-42000000D03*
%TD*%
D29*
%TO.P,U7,5,DRV*%
%TO.N,Net-(Q2-Pad2)*%
X199250000Y-74400000D03*
%TO.P,U7,6,EN/ONE_SHOT*%
%TO.N,+3V3*%
X198300000Y-74400000D03*
%TO.P,U7,4,DONE*%
%TO.N,DONE*%
X200200000Y-74400000D03*
%TO.P,U7,3,DELAY/M_DRV*%
%TO.N,Net-(R11-Pad2)*%
X200200000Y-76600000D03*
%TO.P,U7,2,GND*%
%TO.N,GND*%
X199250000Y-76600000D03*
%TO.P,U7,1,VDD*%
%TO.N,+3V3*%
X198300000Y-76600000D03*
%TD*%
D30*
%TO.P,U6,28,PB0*%
%TO.N,unconnected-(U6-Pad28)*%
X153750000Y-60500000D03*
%TO.P,U6,27,PA10*%
%TO.N,unconnected-(U6-Pad27)*%
X153750000Y-59250000D03*
%TO.P,U6,26,PB14*%
%TO.N,unconnected-(U6-Pad26)*%
X153750000Y-58000000D03*
%TO.P,U6,22,GND*%
%TO.N,GND*%
X153750000Y-53000000D03*
%TO.P,U6,23,PA0*%
%TO.N,unconnected-(U6-Pad23)*%
X153750000Y-54250000D03*
%TO.P,U6,24,PB13~{}*%
%TO.N,Net-(SW3-Pad1)*%
X153750000Y-55500000D03*
%TO.P,U6,25,PB9*%
%TO.N,unconnected-(U6-Pad25)*%
X153750000Y-56750000D03*
D31*
%TO.P,U6,21,PA9*%
%TO.N,unconnected-(U6-Pad21)*%
X156000000Y-50750000D03*
%TO.P,U6,20,PB10*%
%TO.N,unconnected-(U6-Pad20)*%
X157250000Y-50750000D03*
%TO.P,U6,19,PA2*%
%TO.N,unconnected-(U6-Pad19)*%
X158500000Y-50750000D03*
%TO.P,U6,15,RFIO*%
%TO.N,Net-(C22-Pad1)*%
X163500000Y-50750000D03*
%TO.P,U6,16,GND*%
%TO.N,GND*%
X162250000Y-50750000D03*
%TO.P,U6,17,RST*%
%TO.N,RESET*%
X161000000Y-50750000D03*
%TO.P,U6,18,PA3*%
%TO.N,unconnected-(U6-Pad18)*%
X159750000Y-50750000D03*
D30*
%TO.P,U6,14,GND*%
%TO.N,unconnected-(U6-Pad14)*%
X165750000Y-53000000D03*
%TO.P,U6,13,PC0*%
%TO.N,unconnected-(U6-Pad13)*%
X165750000Y-54250000D03*
%TO.P,U6,12,PC1*%
%TO.N,unconnected-(U6-Pad12)*%
X165750000Y-55500000D03*
%TO.P,U6,8,PB3*%
%TO.N,unconnected-(U6-Pad8)*%
X165750000Y-60500000D03*
%TO.P,U6,9,PB7*%
%TO.N,Net-(R10-Pad1)*%
X165750000Y-59250000D03*
%TO.P,U6,10,PB6*%
%TO.N,Net-(R12-Pad1)*%
X165750000Y-58000000D03*
%TO.P,U6,11,PB5*%
%TO.N,unconnected-(U6-Pad11)*%
X165750000Y-56750000D03*
D31*
%TO.P,U6,7,PB4*%
%TO.N,unconnected-(U6-Pad7)*%
X163500000Y-62750000D03*
%TO.P,U6,6,PA15*%
%TO.N,unconnected-(U6-Pad6)*%
X162250000Y-62750000D03*
%TO.P,U6,5,PB15*%
%TO.N,unconnected-(U6-Pad5)*%
X161000000Y-62750000D03*
%TO.P,U6,1,VCC*%
%TO.N,VDD*%
X156000000Y-62750000D03*
%TO.P,U6,2,GND*%
%TO.N,GND*%
X157250000Y-62750000D03*
%TO.P,U6,3,PA13*%
%TO.N,unconnected-(U6-Pad3)*%
X158500000Y-62750000D03*
%TO.P,U6,4,PA14*%
%TO.N,unconnected-(U6-Pad4)*%
X159750000Y-62750000D03*
%TD*%
D29*
%TO.P,U5,5,VOUT*%
%TO.N,+3V3*%
X198400000Y-91300000D03*
%TO.P,U5,4,NC*%
%TO.N,unconnected-(U5-Pad4)*%
X200300000Y-91300000D03*
%TO.P,U5,3,EN*%
%TO.N,Net-(R7-Pad1)*%
X200300000Y-93500000D03*
%TO.P,U5,2,GND*%
%TO.N,GND*%
X199350000Y-93500000D03*
%TO.P,U5,1,VIN*%
%TO.N,Net-(C13-Pad1)*%
X198400000Y-93500000D03*
%TD*%
%TO.P,U2,5,PROG*%
%TO.N,Net-(R2-Pad2)*%
X174050000Y-95800000D03*
%TO.P,U2,4,VDD*%
%TO.N,Net-(U2-Pad4)*%
X175950000Y-95800000D03*
%TO.P,U2,3,VBAT*%
%TO.N,Net-(R1-Pad2)*%
X175950000Y-98000000D03*
%TO.P,U2,2,VSS*%
%TO.N,GND*%
X175000000Y-98000000D03*
%TO.P,U2,1,STAT*%
%TO.N,Net-(R3-Pad2)*%
X174050000Y-98000000D03*
%TD*%
D32*
%TO.P,SW3,2,2*%
%TO.N,Net-(R14-Pad2)*%
X152425000Y-40950000D03*
%TO.P,SW3,1,1*%
%TO.N,Net-(SW3-Pad1)*%
X152425000Y-45450000D03*
X160375000Y-45450000D03*
%TO.P,SW3,2,2*%
%TO.N,Net-(R14-Pad2)*%
X160375000Y-40950000D03*
%TD*%
D33*
%TO.P,SW2,2,2*%
%TO.N,+3V3*%
X198750000Y-70975000D03*
%TO.P,SW2,1,1*%
%TO.N,Net-(R11-Pad2)*%
X203250000Y-70975000D03*
X203250000Y-63025000D03*
%TO.P,SW2,2,2*%
%TO.N,+3V3*%
X198750000Y-63025000D03*
%TD*%
%TO.P,RESET,2,2*%
%TO.N,GND*%
X198750000Y-50375000D03*
%TO.P,RESET,1,1*%
%TO.N,RESET*%
X203250000Y-50375000D03*
X203250000Y-42425000D03*
%TO.P,RESET,2,2*%
%TO.N,GND*%
X198750000Y-42425000D03*
%TD*%
D13*
%TO.P,R14,2*%
%TO.N,Net-(R14-Pad2)*%
X164200000Y-42575000D03*
%TO.P,R14,1*%
%TO.N,GND*%
X164200000Y-44225000D03*
%TD*%
D34*
%TO.P,R13,2*%
%TO.N,Net-(R11-Pad2)*%
X194000000Y-80500000D03*
%TO.P,R13,1*%
%TO.N,GND*%
X192350000Y-80500000D03*
%TD*%
%TO.P,R12,2*%
%TO.N,LORA_RX*%
X170025000Y-57600000D03*
%TO.P,R12,1*%
%TO.N,Net-(R12-Pad1)*%
X168375000Y-57600000D03*
%TD*%
%TO.P,R11,2*%
%TO.N,Net-(R11-Pad2)*%
X194000000Y-76000000D03*
%TO.P,R11,1*%
%TO.N,GND*%
X192350000Y-76000000D03*
%TD*%
%TO.P,R10,2*%
%TO.N,LORA_TX*%
X170025000Y-59800000D03*
%TO.P,R10,1*%
%TO.N,Net-(R10-Pad1)*%
X168375000Y-59800000D03*
%TD*%
%TO.P,R9,2*%
%TO.N,SCL*%
X161925000Y-78575000D03*
%TO.P,R9,1*%
%TO.N,VDD*%
X160275000Y-78575000D03*
%TD*%
%TO.P,R8,2*%
%TO.N,SDA*%
X161925000Y-76475000D03*
%TO.P,R8,1*%
%TO.N,VDD*%
X160275000Y-76475000D03*
%TD*%
D35*
%TO.P,R7,2*%
%TO.N,Net-(C13-Pad1)*%
X198350000Y-98500000D03*
%TO.P,R7,1*%
%TO.N,Net-(R7-Pad1)*%
X200000000Y-98500000D03*
%TD*%
D34*
%TO.P,R6,2*%
%TO.N,GND*%
X194500000Y-92000000D03*
%TO.P,R6,1*%
%TO.N,VDC*%
X192850000Y-92000000D03*
%TD*%
D13*
%TO.P,R5,2*%
%TO.N,RESET*%
X192500000Y-53075000D03*
%TO.P,R5,1*%
%TO.N,VDD*%
X192500000Y-54725000D03*
%TD*%
%TO.P,R4,2*%
%TO.N,VDD*%
X187900000Y-60775000D03*
%TO.P,R4,1*%
%TO.N,QSPI_CSN*%
X187900000Y-62425000D03*
%TD*%
%TO.P,R3,2*%
%TO.N,Net-(R3-Pad2)*%
X174000000Y-101000000D03*
%TO.P,R3,1*%
%TO.N,Net-(D2-Pad1)*%
X174000000Y-102650000D03*
%TD*%
%TO.P,R2,1*%
%TO.N,GND*%
X171200000Y-97525000D03*
%TO.P,R2,2*%
%TO.N,Net-(R2-Pad2)*%
X171200000Y-95875000D03*
%TD*%
D26*
%TO.P,Q1,3,S*%
%TO.N,Net-(C13-Pad1)*%
X185000000Y-93950000D03*
%TO.P,Q1,2,G*%
%TO.N,VDC*%
X183000000Y-94900000D03*
%TO.P,Q1,1,D*%
%TO.N,+BATT*%
X183000000Y-93000000D03*
%TD*%
D36*
%TO.P,L1,2,2*%
%TO.N,Net-(C23-Pad1)*%
X173400000Y-51000000D03*
%TO.P,L1,1,1*%
%TO.N,Net-(C22-Pad1)*%
X171825000Y-51000000D03*
%TD*%
D37*
%TO.P,J5,10,Pin_10*%
%TO.N,RESET*%
X190540000Y-84550000D03*
%TO.P,J5,9,Pin_9*%
%TO.N,GND*%
X190540000Y-88450000D03*
%TO.P,J5,8,Pin_8*%
%TO.N,unconnected-(J5-Pad8)*%
X189270000Y-84550000D03*
%TO.P,J5,7,Pin_7*%
%TO.N,GND*%
X189270000Y-88450000D03*
%TO.P,J5,6,Pin_6*%
%TO.N,unconnected-(J5-Pad6)*%
X188000000Y-84550000D03*
%TO.P,J5,5,Pin_5*%
%TO.N,GND*%
X188000000Y-88450000D03*
%TO.P,J5,4,Pin_4*%
%TO.N,SWD_CLK*%
X186730000Y-84550000D03*
%TO.P,J5,3,Pin_3*%
%TO.N,GND*%
X186730000Y-88450000D03*
%TO.P,J5,2,Pin_2*%
%TO.N,SWD_DIO*%
X185460000Y-84550000D03*
%TO.P,J5,1,Pin_1*%
%TO.N,+3V3*%
X185460000Y-88450000D03*
%TD*%
D11*
%TO.P,J4,4,Pin_4*%
%TO.N,SDA_SOIL*%
X190190000Y-102500000D03*
%TO.P,J4,3,Pin_3*%
%TO.N,SCL_SOIL*%
X191460000Y-102500000D03*
%TO.P,J4,2,Pin_2*%
%TO.N,GND*%
X192730000Y-102500000D03*
D12*
%TO.P,J4,1,Pin_1*%
%TO.N,VDD*%
X194000000Y-102500000D03*
%TD*%
D11*
%TO.P,J3,2,Pin_2*%
%TO.N,GND*%
X184000000Y-101270000D03*
D12*
%TO.P,J3,1,Pin_1*%
%TO.N,+BATT*%
X184000000Y-100000000D03*
%TD*%
D11*
%TO.P,J2,3,Pin_3*%
%TO.N,GND*%
X201790000Y-102500000D03*
%TO.P,J2,2,Pin_2*%
%TO.N,SOIL_SIG*%
X200520000Y-102500000D03*
D12*
%TO.P,J2,1,Pin_1*%
%TO.N,VDD*%
X199250000Y-102500000D03*
%TD*%
D38*
%TO.P,J1,3*%
%TO.N,GND*%
X158000000Y-103000000D03*
%TO.P,J1,2*%
X158000000Y-99000000D03*
%TO.P,J1,1*%
%TO.N,Net-(D1-Pad2)*%
X158000000Y-95500000D03*
D39*
%TO.P,J1,*%
%TO.N,*%
X153000000Y-99000000D03*
%TD*%
D40*
%TO.P,D3,2,A*%
%TO.N,VDC*%
X190000000Y-91950000D03*
%TO.P,D3,1,K*%
%TO.N,Net-(C13-Pad1)*%
X190000000Y-94050000D03*
%TD*%
D41*
%TO.P,D2,2,A*%
%TO.N,VDC*%
X171400000Y-101012500D03*
%TO.P,D2,1,K*%
%TO.N,Net-(D2-Pad1)*%
X171400000Y-102587500D03*
%TD*%
D42*
%TO.P,D1,2,A*%
%TO.N,Net-(D1-Pad2)*%
X162950000Y-95500000D03*
%TO.P,D1,1,K*%
%TO.N,VDC*%
X165050000Y-95500000D03*
%TD*%
D27*
%TO.P,C23,2*%
%TO.N,GND*%
X176000000Y-52525000D03*
%TO.P,C23,1*%
%TO.N,Net-(C23-Pad1)*%
X176000000Y-50975000D03*
%TD*%
%TO.P,C22,2*%
%TO.N,GND*%
X169250000Y-52550000D03*
%TO.P,C22,1*%
%TO.N,Net-(C22-Pad1)*%
X169250000Y-51000000D03*
%TD*%
D24*
%TO.P,C21,2*%
%TO.N,XOUT*%
X171025000Y-90500000D03*
%TO.P,C21,1*%
%TO.N,GND*%
X169475000Y-90500000D03*
%TD*%
D27*
%TO.P,C19,2*%
%TO.N,GND*%
X156000000Y-68875000D03*
%TO.P,C19,1*%
%TO.N,VDD*%
X156000000Y-67325000D03*
%TD*%
D24*
%TO.P,C18,2*%
%TO.N,GND*%
X200000000Y-87500000D03*
%TO.P,C18,1*%
%TO.N,+3V3*%
X198450000Y-87500000D03*
%TD*%
%TO.P,C17,2*%
%TO.N,GND*%
X200000000Y-83000000D03*
%TO.P,C17,1*%
%TO.N,+3V3*%
X198450000Y-83000000D03*
%TD*%
%TO.P,C16,2*%
%TO.N,GND*%
X163775000Y-85175000D03*
%TO.P,C16,1*%
%TO.N,VDD*%
X162225000Y-85175000D03*
%TD*%
%TO.P,C15,2*%
%TO.N,GND*%
X184975000Y-54000000D03*
%TO.P,C15,1*%
%TO.N,VDD*%
X183425000Y-54000000D03*
%TD*%
D16*
%TO.P,C14,2*%
%TO.N,GND*%
X158225000Y-85175000D03*
%TO.P,C14,1*%
%TO.N,VDD*%
X159775000Y-85175000D03*
%TD*%
D27*
%TO.P,C13,2*%
%TO.N,GND*%
X190000000Y-99050000D03*
%TO.P,C13,1*%
%TO.N,Net-(C13-Pad1)*%
X190000000Y-97500000D03*
%TD*%
D18*
%TO.P,C12,2*%
%TO.N,GND*%
X182200000Y-69025000D03*
%TO.P,C12,1*%
%TO.N,+1V1*%
X182200000Y-70575000D03*
%TD*%
%TO.P,C11,2*%
%TO.N,GND*%
X174900000Y-67325000D03*
%TO.P,C11,1*%
%TO.N,+1V1*%
X174900000Y-68875000D03*
%TD*%
D16*
%TO.P,C10,2*%
%TO.N,GND*%
X174975000Y-85750000D03*
%TO.P,C10,1*%
%TO.N,+1V1*%
X176525000Y-85750000D03*
%TD*%
D24*
%TO.P,C7,2*%
%TO.N,GND*%
X184675000Y-74800000D03*
%TO.P,C7,1*%
%TO.N,VDD*%
X183125000Y-74800000D03*
%TD*%
D16*
%TO.P,C6,2*%
%TO.N,GND*%
X168625000Y-77500000D03*
%TO.P,C6,1*%
%TO.N,VDD*%
X170175000Y-77500000D03*
%TD*%
D18*
%TO.P,C4,2*%
%TO.N,GND*%
X176700000Y-67325000D03*
%TO.P,C4,1*%
%TO.N,VDD*%
X176700000Y-68875000D03*
%TD*%
D24*
%TO.P,C3,1*%
%TO.N,VDD*%
X183125000Y-72700000D03*
%TO.P,C3,2*%
%TO.N,GND*%
X184675000Y-72700000D03*
%TD*%
%TO.P,C2,2*%
%TO.N,GND*%
X184500000Y-78500000D03*
%TO.P,C2,1*%
%TO.N,VDD*%
X182950000Y-78500000D03*
%TD*%
D43*
%TO.N,VDC*%
X152800000Y-64200000D03*
%TO.N,GND*%
X174100000Y-54900000D03*
X171300000Y-61600000D03*
%TO.N,RESET*%
X195061348Y-60838652D03*
X199900000Y-54000000D03*
%TO.N,VDD*%
X156000000Y-65100000D03*
%TO.N,GND*%
X164400000Y-82500000D03*
X165400000Y-87000000D03*
X160300000Y-71300000D03*
X167700000Y-72200000D03*
%TO.N,VDD*%
X172750000Y-73150000D03*
X176700000Y-70400000D03*
%TO.N,GND*%
X174900000Y-66100000D03*
X182200000Y-67800000D03*
X187200000Y-55050000D03*
X178250000Y-75750000D03*
X175750000Y-75750000D03*
X178250000Y-78250000D03*
X175000000Y-99500000D03*
X182230000Y-101270000D03*
X194500000Y-89500000D03*
X199350000Y-94850000D03*
X199250000Y-78500000D03*
X191000000Y-76000000D03*
X191000000Y-80500000D03*
X173250000Y-46250000D03*
X181750000Y-46250000D03*
X167750000Y-74250000D03*
X166155378Y-76544622D03*
X176700000Y-66100000D03*
X184300000Y-67700000D03*
X185900000Y-70800000D03*
X185750000Y-78500000D03*
X186300000Y-75400000D03*
X173750000Y-83750000D03*
X175500000Y-81500000D03*
X173750000Y-85750000D03*
X172250000Y-83750000D03*
X156800000Y-85300000D03*
X200500002Y-89250000D03*
X200500000Y-84750000D03*
X169300000Y-54700000D03*
X176000000Y-54700000D03*
X162250000Y-47750000D03*
X156200000Y-53000000D03*
X156600000Y-58500000D03*
X201200000Y-43200000D03*
X169600000Y-97600000D03*
X161900000Y-81975000D03*
%TO.N,SOIL_SIG*%
X185500000Y-76500000D03*
%TO.N,SCL_SOIL*%
X184100000Y-76709813D03*
%TO.N,SDA_SOIL*%
X182749996Y-77250000D03*
%TO.N,RESET*%
X162000000Y-53600000D03*
X189700000Y-54000000D03*
%TO.N,QSPI_CSN*%
X169100000Y-67100000D03*
X183700000Y-62900000D03*
%TO.N,LORA_RX*%
X166000000Y-67400000D03*
X167699500Y-63882122D03*
%TO.N,QSPI_SD1*%
X169900000Y-67824500D03*
X182200000Y-63624500D03*
%TO.N,QSPI_SD2*%
X170900000Y-68200000D03*
X180800000Y-64324500D03*
%TO.N,VDD*%
X194500000Y-66750000D03*
X172250000Y-74250000D03*
X180600000Y-57300000D03*
X195999982Y-97750000D03*
X181044622Y-72244622D03*
X188500000Y-58250000D03*
X172250000Y-77699990D03*
X161100000Y-85075000D03*
X159000000Y-83875000D03*
X188400000Y-72500000D03*
%TO.N,+1V1*%
X177600000Y-84700000D03*
X176800000Y-74800000D03*
%TD*%
D44*
%TO.N,USB_DN*%
X202415000Y-56655000D02*
X202800000Y-57040000D01*
X195593877Y-56655000D02*
X202415000Y-56655000D01*
X184075498Y-64124502D02*
X188124375Y-64124502D01*
X188124375Y-64124502D02*
X195593877Y-56655000D01*
X182000000Y-66200000D02*
X184075498Y-64124502D01*
%TO.N,USB_DP*%
X195386783Y-56155000D02*
X202415000Y-56155000D01*
X202415000Y-56155000D02*
X202800000Y-55770000D01*
X187917272Y-63624511D02*
X195386783Y-56155000D01*
X183675489Y-63624511D02*
X187917272Y-63624511D01*
X181700000Y-65600000D02*
X183675489Y-63624511D01*
D45*
%TO.N,DONE*%
X186600000Y-79600000D02*
X180435000Y-79600000D01*
X188000000Y-78200000D02*
X186600000Y-79600000D01*
X193150000Y-60000000D02*
X191400000Y-61750000D01*
X191400000Y-61750000D02*
X191400000Y-71886002D01*
X188000000Y-75286002D02*
X188000000Y-78200000D01*
X200400000Y-60000000D02*
X193150000Y-60000000D01*
X191400000Y-71886002D02*
X188000000Y-75286002D01*
X201500000Y-61100000D02*
X200400000Y-60000000D01*
%TO.N,RESET*%
X193361348Y-60838652D02*
X192100000Y-62100000D01*
X195061348Y-60838652D02*
X193361348Y-60838652D01*
X192100000Y-62100000D02*
X192100000Y-72300000D01*
X188630002Y-75769998D02*
X188630002Y-81800000D01*
X192100000Y-72300000D02*
X188630002Y-75769998D01*
D44*
%TO.N,USB_DP*%
X179600000Y-65600000D02*
X181700000Y-65600000D01*
X178600000Y-66600000D02*
X179600000Y-65600000D01*
X178600000Y-67275000D02*
X178600000Y-66600000D01*
%TO.N,RESET*%
X200650000Y-52975000D02*
X203250000Y-50375000D01*
X191000000Y-54000000D02*
X192025000Y-52975000D01*
X189700000Y-54000000D02*
X191000000Y-54000000D01*
X192025000Y-52975000D02*
X200650000Y-52975000D01*
X161000000Y-52600000D02*
X161000000Y-50750000D01*
X162000000Y-53600000D02*
X161000000Y-52600000D01*
%TO.N,GND*%
X176000000Y-52525000D02*
X176000000Y-54700000D01*
X169250000Y-52550000D02*
X169250000Y-54650000D01*
X169250000Y-54650000D02*
X169300000Y-54700000D01*
D46*
%TO.N,VDC*%
X159200000Y-92600000D02*
X166900000Y-92600000D01*
X152800000Y-64200000D02*
X152800000Y-86200000D01*
X152800000Y-86200000D02*
X159200000Y-92600000D01*
%TO.N,GND*%
X156000000Y-69600000D02*
X156000000Y-68875000D01*
X157700000Y-71300000D02*
X156000000Y-69600000D01*
X160300000Y-71300000D02*
X157700000Y-71300000D01*
%TO.N,VDC*%
X165050000Y-94450000D02*
X166900000Y-92600000D01*
X165050000Y-95500000D02*
X165050000Y-94450000D01*
X167400000Y-92100000D02*
X180200000Y-92100000D01*
X166900000Y-92600000D02*
X167400000Y-92100000D01*
D47*
%TO.N,VDD*%
X157925000Y-72700000D02*
X155900000Y-72700000D01*
X160275000Y-75050000D02*
X157925000Y-72700000D01*
X160275000Y-76475000D02*
X160275000Y-75050000D01*
D48*
%TO.N,GND*%
X158075000Y-85175000D02*
X158200000Y-85300000D01*
X156800000Y-85300000D02*
X156925000Y-85175000D01*
X156925000Y-85175000D02*
X158075000Y-85175000D01*
X164750000Y-85250000D02*
X165200000Y-85700000D01*
X163800000Y-85250000D02*
X164750000Y-85250000D01*
D47*
%TO.N,Net-(C13-Pad1)*%
X198000000Y-93100000D02*
X198400000Y-93500000D01*
X190950000Y-93100000D02*
X198000000Y-93100000D01*
X190000000Y-94050000D02*
X190950000Y-93100000D01*
D44*
%TO.N,USB_DN*%
X181475000Y-66200000D02*
X182000000Y-66200000D01*
X180400000Y-67275000D02*
X181475000Y-66200000D01*
D46*
%TO.N,GND*%
X187200000Y-55050000D02*
X187200000Y-58400000D01*
D47*
X187100000Y-58500000D02*
X186500000Y-59100000D01*
X186500000Y-59100000D02*
X185105000Y-59100000D01*
D46*
X187200000Y-58400000D02*
X187100000Y-58500000D01*
X171300000Y-61600000D02*
X174100000Y-58800000D01*
X174100000Y-58800000D02*
X174100000Y-54900000D01*
D45*
%TO.N,QSPI_SD0*%
X175205000Y-59095000D02*
X177900000Y-59095000D01*
X172300000Y-62000000D02*
X175205000Y-59095000D01*
X172300000Y-69403119D02*
X172300000Y-62000000D01*
X175600000Y-72703119D02*
X172300000Y-69403119D01*
X175600000Y-73565000D02*
X175600000Y-72703119D01*
%TO.N,QSPI_CLK*%
X175035000Y-60365000D02*
X177900000Y-60365000D01*
X173000000Y-62400000D02*
X175035000Y-60365000D01*
X173000000Y-69282849D02*
X173000000Y-62400000D01*
X176000000Y-72282849D02*
X173000000Y-69282849D01*
X176000000Y-73565000D02*
X176000000Y-72282849D01*
%TO.N,LORA_RX*%
X171300000Y-58387500D02*
X170512500Y-57600000D01*
X170512500Y-57600000D02*
X170025000Y-57600000D01*
X171300000Y-60300000D02*
X171300000Y-58387500D01*
X167717878Y-63882122D02*
X171300000Y-60300000D01*
X167699500Y-63882122D02*
X167717878Y-63882122D01*
D47*
%TO.N,VDD*%
X192500000Y-55800000D02*
X192500000Y-54725000D01*
X191100000Y-57200000D02*
X192500000Y-55800000D01*
X189550000Y-57200000D02*
X191100000Y-57200000D01*
X188500000Y-58250000D02*
X189550000Y-57200000D01*
X188500000Y-60175000D02*
X188500000Y-58250000D01*
X187900000Y-60775000D02*
X188500000Y-60175000D01*
D44*
%TO.N,QSPI_CSN*%
X183705000Y-62905000D02*
X187420000Y-62905000D01*
X187420000Y-62905000D02*
X187825000Y-62500000D01*
X183700000Y-62900000D02*
X183705000Y-62905000D01*
D45*
%TO.N,RESET*%
X199900000Y-54000000D02*
X203250000Y-50650000D01*
D47*
%TO.N,VDD*%
X183874520Y-77575480D02*
X182950000Y-78500000D01*
X186224520Y-77575480D02*
X183874520Y-77575480D01*
X187450480Y-76349520D02*
X186224520Y-77575480D01*
X187450480Y-73449520D02*
X187450480Y-76349520D01*
X188400000Y-72500000D02*
X187450480Y-73449520D01*
D45*
%TO.N,RESET*%
X203250000Y-50650000D02*
X203250000Y-50375000D01*
D47*
%TO.N,VDD*%
X194500000Y-65350000D02*
X194500000Y-66750000D01*
X195400000Y-64450000D02*
X194500000Y-65350000D01*
%TO.N,+3V3*%
X193450000Y-63450000D02*
X193400000Y-63500000D01*
X196550000Y-63450000D02*
X193450000Y-63450000D01*
X198750000Y-63025000D02*
X196975000Y-63025000D01*
X196975000Y-63025000D02*
X196550000Y-63450000D01*
D44*
%TO.N,Net-(Q2-Pad2)*%
X196950000Y-61000000D02*
X195400000Y-62550000D01*
X200500000Y-72620000D02*
X200500000Y-62000000D01*
X200500000Y-62000000D02*
X199500000Y-61000000D01*
X199250000Y-73870000D02*
X200500000Y-72620000D01*
X199250000Y-74400000D02*
X199250000Y-73870000D01*
X199500000Y-61000000D02*
X196950000Y-61000000D01*
D47*
%TO.N,VDD*%
X183400000Y-54025000D02*
X183425000Y-54000000D01*
X183400000Y-54500000D02*
X183400000Y-54025000D01*
X180600000Y-57300000D02*
X183400000Y-54500000D01*
X178795000Y-62905000D02*
X177900000Y-62905000D01*
X180600000Y-61100000D02*
X178795000Y-62905000D01*
X180600000Y-57300000D02*
X180600000Y-61100000D01*
D44*
%TO.N,QSPI_SD2*%
X181475489Y-63324397D02*
X184434886Y-60365000D01*
X184434886Y-60365000D02*
X185100000Y-60365000D01*
X181475489Y-63989511D02*
X181475489Y-63324397D01*
X181140500Y-64324500D02*
X181475489Y-63989511D01*
X180800000Y-64324500D02*
X181140500Y-64324500D01*
%TO.N,QSPI_SD1*%
X183940386Y-61635000D02*
X185100000Y-61635000D01*
X182975489Y-62599897D02*
X183940386Y-61635000D01*
X182975489Y-63200103D02*
X182975489Y-62599897D01*
X182200000Y-63624500D02*
X182551092Y-63624500D01*
X182551092Y-63624500D02*
X182975489Y-63200103D01*
D45*
%TO.N,+1V1*%
X178800000Y-74400000D02*
X178800000Y-73565000D01*
X176800000Y-74800000D02*
X178400000Y-74800000D01*
X176800000Y-74800000D02*
X176800000Y-73565000D01*
X178400000Y-74800000D02*
X178800000Y-74400000D01*
D48*
%TO.N,GND*%
X174900000Y-66100000D02*
X174900000Y-67275000D01*
X176700000Y-66100000D02*
X176700000Y-67325000D01*
D46*
%TO.N,VDD*%
X156000000Y-65100000D02*
X156000000Y-67325000D01*
X156000000Y-62750000D02*
X156000000Y-65100000D01*
D45*
X180889244Y-72400000D02*
X181044622Y-72244622D01*
X180075000Y-72400000D02*
X180889244Y-72400000D01*
X180000000Y-72475000D02*
X180075000Y-72400000D01*
X180000000Y-72475000D02*
X179775000Y-72475000D01*
X179600000Y-72875000D02*
X180000000Y-72475000D01*
X179600000Y-73565000D02*
X179600000Y-72875000D01*
X179775000Y-72475000D02*
X179200000Y-73050000D01*
X180005378Y-72244622D02*
X179775000Y-72475000D01*
X179200000Y-73050000D02*
X179200000Y-73565000D01*
X181044622Y-72244622D02*
X180005378Y-72244622D01*
D46*
%TO.N,GND*%
X165400000Y-83500000D02*
X164400000Y-82500000D01*
X165400000Y-87000000D02*
X165400000Y-83500000D01*
D47*
X167110756Y-77500000D02*
X168625000Y-77500000D01*
X166155378Y-76544622D02*
X167110756Y-77500000D01*
D45*
%TO.N,+1V1*%
X181109994Y-70575000D02*
X182200000Y-70575000D01*
D47*
%TO.N,VDD*%
X182555378Y-72244622D02*
X182669622Y-72244622D01*
D46*
%TO.N,VDC*%
X180200000Y-92100000D02*
X183000000Y-94900000D01*
D47*
%TO.N,GND*%
X198750000Y-42425000D02*
X200425000Y-42425000D01*
D45*
%TO.N,SWD_DIO*%
X180865698Y-84550000D02*
X185460000Y-84550000D01*
D44*
%TO.N,Net-(R11-Pad2)*%
X194000000Y-80500000D02*
X194000000Y-76000000D01*
D47*
%TO.N,GND*%
X157250000Y-59150000D02*
X157250000Y-62750000D01*
X156600000Y-58500000D02*
X157250000Y-59150000D01*
D44*
%TO.N,SDA*%
X165400000Y-78600000D02*
X170600000Y-78600000D01*
X163275000Y-76475000D02*
X165400000Y-78600000D01*
X161925000Y-76475000D02*
X163275000Y-76475000D01*
%TO.N,SCL*%
X161975000Y-78575000D02*
X162700527Y-79300527D01*
X161925000Y-78575000D02*
X161975000Y-78575000D01*
X162700527Y-79300527D02*
X171050527Y-79300527D01*
D45*
%TO.N,/D-*%
X178400000Y-73565000D02*
X178400000Y-72500000D01*
%TO.N,/D+*%
X179274999Y-69599999D02*
X178600000Y-68925000D01*
%TO.N,/D-*%
X178400000Y-72500000D02*
X179725001Y-71174999D01*
%TO.N,/D+*%
X179274999Y-70925001D02*
X179274999Y-69599999D01*
%TO.N,/D-*%
X179725001Y-69599999D02*
X180400000Y-68925000D01*
%TO.N,/D+*%
X178000000Y-72200000D02*
X179274999Y-70925001D01*
%TO.N,/D-*%
X179725001Y-71174999D02*
X179725001Y-69599999D01*
%TO.N,/D+*%
X178000000Y-73565000D02*
X178000000Y-72200000D01*
%TO.N,+1V1*%
X178800000Y-72884994D02*
X181109994Y-70575000D01*
X178800000Y-73565000D02*
X178800000Y-72884994D01*
D47*
%TO.N,VDD*%
X184200000Y-70600000D02*
X184200000Y-70575000D01*
X182555378Y-72244622D02*
X184200000Y-70600000D01*
%TO.N,GND*%
X184675000Y-72025000D02*
X184675000Y-72700000D01*
X185900000Y-70800000D02*
X184675000Y-72025000D01*
X182200000Y-69025000D02*
X182200000Y-67800000D01*
X184200000Y-69025000D02*
X184200000Y-67800000D01*
X185700000Y-74800000D02*
X186300000Y-75400000D01*
X184675000Y-74800000D02*
X185700000Y-74800000D01*
X167800000Y-74300000D02*
X167750000Y-74250000D01*
X169225000Y-74300000D02*
X167800000Y-74300000D01*
X167800000Y-72300000D02*
X167700000Y-72200000D01*
X169225000Y-72300000D02*
X167800000Y-72300000D01*
%TO.N,VDD*%
X171900000Y-72300000D02*
X172750000Y-73150000D01*
X170775000Y-72300000D02*
X171900000Y-72300000D01*
X183125000Y-74800000D02*
X183125000Y-72700000D01*
X182669622Y-72244622D02*
X183125000Y-72700000D01*
D45*
X182725000Y-74400000D02*
X180435000Y-74400000D01*
X183125000Y-74800000D02*
X182725000Y-74400000D01*
D47*
X181044622Y-72244622D02*
X182555378Y-72244622D01*
D45*
%TO.N,GND*%
X185700000Y-74800000D02*
X184700000Y-74800000D01*
%TO.N,SOIL_SIG*%
X185500000Y-76500000D02*
X185000000Y-76000000D01*
X185000000Y-76000000D02*
X180435000Y-76000000D01*
%TO.N,SCL_SOIL*%
X184100000Y-76709813D02*
X183790187Y-76400000D01*
X183790187Y-76400000D02*
X180435000Y-76400000D01*
%TO.N,VDD*%
X176700000Y-70400000D02*
X176700000Y-68875000D01*
X176700000Y-71069988D02*
X176700000Y-70400000D01*
X177199519Y-71569507D02*
X176700000Y-71069988D01*
X177200000Y-73565000D02*
X177199520Y-73564520D01*
X177199520Y-73564520D02*
X177199519Y-71569507D01*
%TO.N,+1V1*%
X176800000Y-71734994D02*
X174900000Y-69834994D01*
X174900000Y-69834994D02*
X174900000Y-68875000D01*
X176800000Y-73565000D02*
X176800000Y-71734994D01*
%TO.N,QSPI_SD2*%
X175200000Y-72868125D02*
X175200000Y-73565000D01*
X174310966Y-72445960D02*
X174777836Y-72445961D01*
X170900000Y-68200000D02*
X170900000Y-69034994D01*
X170900000Y-69034994D02*
X174310966Y-72445960D01*
X174777836Y-72445961D02*
X175200000Y-72868125D01*
%TO.N,QSPI_SD3*%
X174000000Y-69500000D02*
X174000000Y-62300000D01*
X174665000Y-61635000D02*
X177900000Y-61635000D01*
X176400000Y-71900000D02*
X174000000Y-69500000D01*
X176400000Y-73565000D02*
X176400000Y-71900000D01*
X174000000Y-62300000D02*
X174665000Y-61635000D01*
%TO.N,QSPI_SD1*%
X174800000Y-73033131D02*
X174800000Y-73565000D01*
X174612349Y-72845480D02*
X174800000Y-73033131D01*
X169900000Y-68600000D02*
X174145480Y-72845480D01*
X174145480Y-72845480D02*
X174612349Y-72845480D01*
X169900000Y-67824500D02*
X169900000Y-68600000D01*
%TO.N,QSPI_CSN*%
X174165000Y-73565000D02*
X174400000Y-73565000D01*
X169100000Y-68500000D02*
X174165000Y-73565000D01*
X169100000Y-67100000D02*
X169100000Y-68500000D01*
%TO.N,LORA_TX*%
X170025000Y-60550000D02*
X170025000Y-59800000D01*
X167000000Y-63575000D02*
X170025000Y-60550000D01*
D48*
%TO.N,Net-(R12-Pad1)*%
X167975000Y-58000000D02*
X168375000Y-57600000D01*
X165750000Y-58000000D02*
X167975000Y-58000000D01*
%TO.N,Net-(R10-Pad1)*%
X167825000Y-59250000D02*
X168375000Y-59800000D01*
X165750000Y-59250000D02*
X167825000Y-59250000D01*
D45*
%TO.N,VDD*%
X177600000Y-73100000D02*
X177200000Y-72700000D01*
X177600000Y-73565000D02*
X177600000Y-73100000D01*
%TO.N,GND*%
X182200000Y-68700000D02*
X182200000Y-67800000D01*
%TO.N,LORA_TX*%
X166925000Y-63575000D02*
X163200000Y-67300000D01*
X167000000Y-63575000D02*
X166925000Y-63575000D01*
%TO.N,LORA_RX*%
X167000000Y-76400000D02*
X166000000Y-75400000D01*
X170867478Y-76400000D02*
X167000000Y-76400000D01*
X166000000Y-68800000D02*
X163300000Y-71500000D01*
X171267478Y-76800000D02*
X170867478Y-76400000D01*
X166000000Y-75400000D02*
X166000000Y-67400000D01*
X163300000Y-71500000D02*
X163300000Y-71700000D01*
X173565000Y-76800000D02*
X171267478Y-76800000D01*
%TO.N,VDD*%
X161200000Y-85175000D02*
X161100000Y-85075000D01*
D47*
X162225000Y-85175000D02*
X161200000Y-85175000D01*
D48*
X161375000Y-83850000D02*
X161375000Y-83050000D01*
X161100000Y-85075000D02*
X161100000Y-84125000D01*
X161100000Y-84125000D02*
X161375000Y-83850000D01*
X159775000Y-84300000D02*
X160075000Y-84000000D01*
X159775000Y-84300000D02*
X159775000Y-85175000D01*
X159800000Y-84275000D02*
X159400000Y-84275000D01*
X159400000Y-84275000D02*
X159000000Y-83875000D01*
X160075000Y-83050000D02*
X160075000Y-84000000D01*
D45*
X172000000Y-77500000D02*
X170175000Y-77500000D01*
X172500000Y-78000000D02*
X172000000Y-77500000D01*
X173565000Y-78000000D02*
X172500000Y-78000000D01*
%TO.N,LORA_TX*%
X167000000Y-74800000D02*
X167000000Y-63575000D01*
D46*
%TO.N,VDC*%
X170462500Y-101012500D02*
X171400000Y-101012500D01*
X165050000Y-95600000D02*
X170462500Y-101012500D01*
X165050000Y-95500000D02*
X165050000Y-95600000D01*
D47*
%TO.N,Net-(D2-Pad1)*%
X173937500Y-102587500D02*
X171400000Y-102587500D01*
D44*
X174000000Y-102650000D02*
X173937500Y-102587500D01*
%TO.N,Net-(R2-Pad2)*%
X171275000Y-95800000D02*
X174050000Y-95800000D01*
X171200000Y-95875000D02*
X171275000Y-95800000D01*
D46*
%TO.N,Net-(U2-Pad4)*%
X175950000Y-93750000D02*
X175950000Y-95800000D01*
D48*
%TO.N,GND*%
X161275978Y-81975000D02*
X160725000Y-82525978D01*
X160725000Y-82525978D02*
X160725000Y-83050000D01*
X160350000Y-81975000D02*
X161900000Y-81975000D01*
D47*
%TO.N,Net-(R1-Pad2)*%
X175950000Y-99775000D02*
X177400000Y-101225000D01*
X175950000Y-98000000D02*
X175950000Y-99775000D01*
D44*
%TO.N,GND*%
X175000000Y-98000000D02*
X175000000Y-99500000D01*
D47*
%TO.N,Net-(R3-Pad2)*%
X174050000Y-98000000D02*
X174050000Y-100950000D01*
D46*
%TO.N,VDC*%
X192300000Y-91450000D02*
X192850000Y-92000000D01*
X180850000Y-91450000D02*
X192300000Y-91450000D01*
X180200000Y-92100000D02*
X180850000Y-91450000D01*
D47*
%TO.N,GND*%
X184000000Y-101270000D02*
X182230000Y-101270000D01*
X187780000Y-101270000D02*
X190000000Y-99050000D01*
X184000000Y-101270000D02*
X187780000Y-101270000D01*
X199350000Y-93500000D02*
X199350000Y-94850000D01*
X199250000Y-76600000D02*
X199250000Y-78500000D01*
X192350000Y-80500000D02*
X191000000Y-80500000D01*
X192350000Y-76000000D02*
X191000000Y-76000000D01*
D44*
X181750000Y-42000000D02*
X181750000Y-46250000D01*
X173250000Y-42000000D02*
X173250000Y-46250000D01*
D45*
X174950000Y-83750000D02*
X173750000Y-83750000D01*
X184500000Y-78500000D02*
X185750000Y-78500000D01*
X169500000Y-74250000D02*
X168000000Y-74250000D01*
X171050000Y-86450000D02*
X169500000Y-88000000D01*
X171050000Y-86350000D02*
X171050000Y-86450000D01*
X169500000Y-90475000D02*
X169475000Y-90500000D01*
X169500000Y-88000000D02*
X169500000Y-90475000D01*
X176000000Y-80435000D02*
X176000000Y-81000000D01*
X171000000Y-86300000D02*
X171050000Y-86350000D01*
X171000000Y-83750000D02*
X171000000Y-86300000D01*
D47*
X186730000Y-88450000D02*
X188000000Y-88450000D01*
X188000000Y-88450000D02*
X189270000Y-88450000D01*
X189270000Y-88450000D02*
X190540000Y-88450000D01*
X193450000Y-88450000D02*
X194500000Y-89500000D01*
X190540000Y-88450000D02*
X193450000Y-88450000D01*
D45*
X176000000Y-78000000D02*
X177000000Y-77000000D01*
X176000000Y-80435000D02*
X176000000Y-78000000D01*
X176000000Y-81000000D02*
X175500000Y-81500000D01*
X174975000Y-85750000D02*
X173750000Y-85750000D01*
X171000000Y-83750000D02*
X172000000Y-83750000D01*
X172000000Y-83750000D02*
X172250000Y-83750000D01*
D47*
X194500000Y-92000000D02*
X194500000Y-89500000D01*
X200000000Y-87500000D02*
X200000000Y-88749998D01*
X200000000Y-88749998D02*
X200500002Y-89250000D01*
X200000000Y-84250000D02*
X200500000Y-84750000D01*
X200000000Y-83000000D02*
X200000000Y-84250000D01*
X162250000Y-47750000D02*
X162250000Y-50750000D01*
X164200000Y-45800000D02*
X162250000Y-47750000D01*
X164200000Y-44225000D02*
X164200000Y-45800000D01*
X153750000Y-53000000D02*
X156200000Y-53000000D01*
X198750000Y-50375000D02*
X198750000Y-42425000D01*
X200425000Y-42425000D02*
X201200000Y-43200000D01*
X187200000Y-55050000D02*
X187200000Y-54400000D01*
X186800000Y-54000000D02*
X184975000Y-54000000D01*
X187200000Y-54400000D02*
X186800000Y-54000000D01*
X180695000Y-101270000D02*
X180600000Y-101175000D01*
X182230000Y-101270000D02*
X180695000Y-101270000D01*
D44*
X169650000Y-97475000D02*
X171000000Y-97475000D01*
X169500000Y-97625000D02*
X169650000Y-97475000D01*
D48*
X162025000Y-82450000D02*
X161550000Y-81975000D01*
X162025000Y-83050000D02*
X162025000Y-82450000D01*
X160075000Y-81700000D02*
X160350000Y-81975000D01*
X160075000Y-81000000D02*
X160075000Y-81700000D01*
D47*
%TO.N,+3V3*%
X198450000Y-91250000D02*
X198400000Y-91300000D01*
X198450000Y-87500000D02*
X198450000Y-91250000D01*
X198450000Y-83000000D02*
X198450000Y-87500000D01*
X194766998Y-70975000D02*
X198750000Y-70975000D01*
X189500000Y-76241998D02*
X194766998Y-70975000D01*
X189500000Y-81500000D02*
X189500000Y-76241998D01*
X198750000Y-70975000D02*
X198750000Y-63025000D01*
X198450000Y-83000000D02*
X195750000Y-83000000D01*
X195750000Y-83000000D02*
X194750000Y-82000000D01*
X190000000Y-82000000D02*
X189500000Y-81500000D01*
X194750000Y-82000000D02*
X190000000Y-82000000D01*
X192149989Y-86600011D02*
X195750000Y-83000000D01*
X186199987Y-86600011D02*
X192149989Y-86600011D01*
X185460000Y-87339998D02*
X186199987Y-86600011D01*
X185460000Y-88450000D02*
X185460000Y-87339998D01*
X198250000Y-76650000D02*
X198300000Y-76600000D01*
X198250000Y-82800000D02*
X198250000Y-76650000D01*
X198450000Y-83000000D02*
X198250000Y-82800000D01*
X198250000Y-71475000D02*
X198250000Y-74350000D01*
X198250000Y-74350000D02*
X198300000Y-74400000D01*
X198750000Y-70975000D02*
X198250000Y-71475000D01*
X194400000Y-70608002D02*
X194766998Y-70975000D01*
X194400000Y-69450000D02*
X194400000Y-70608002D01*
X180350000Y-88450000D02*
X179600000Y-89200000D01*
X185460000Y-88450000D02*
X180350000Y-88450000D01*
%TO.N,+BATT*%
X184000000Y-94000000D02*
X183000000Y-93000000D01*
X184000000Y-100000000D02*
X184000000Y-94000000D01*
X180975000Y-100000000D02*
X180600000Y-99625000D01*
X184000000Y-100000000D02*
X180975000Y-100000000D01*
X177450000Y-99625000D02*
X177400000Y-99575000D01*
X180600000Y-99625000D02*
X177450000Y-99625000D01*
X180600000Y-97400000D02*
X179600000Y-96400000D01*
X180600000Y-99625000D02*
X180600000Y-97400000D01*
%TO.N,Net-(C13-Pad1)*%
X198400000Y-98450000D02*
X198350000Y-98500000D01*
X198400000Y-93500000D02*
X198400000Y-98450000D01*
X185100000Y-94050000D02*
X185000000Y-93950000D01*
X190000000Y-94050000D02*
X185100000Y-94050000D01*
X190000000Y-94050000D02*
X190000000Y-97500000D01*
D44*
%TO.N,XIN*%
X169450000Y-86300000D02*
X169500000Y-86350000D01*
X169450000Y-83750000D02*
X169450000Y-86300000D01*
D45*
X175786002Y-82250000D02*
X170950000Y-82250000D01*
X176400000Y-81636002D02*
X175786002Y-82250000D01*
X170950000Y-82250000D02*
X169450000Y-83750000D01*
X176400000Y-80435000D02*
X176400000Y-81636002D01*
D44*
%TO.N,XOUT*%
X171025000Y-88025000D02*
X171050000Y-88000000D01*
X171025000Y-90500000D02*
X171025000Y-88025000D01*
D45*
X176800000Y-81801701D02*
X175851701Y-82750000D01*
X176800000Y-80435000D02*
X176800000Y-81801701D01*
X175851701Y-82750000D02*
X173500000Y-82750000D01*
X173500000Y-82750000D02*
X173000000Y-83250000D01*
X173000000Y-86050000D02*
X171050000Y-88000000D01*
X173000000Y-83250000D02*
X173000000Y-86050000D01*
D44*
%TO.N,Net-(C22-Pad1)*%
X163750000Y-51000000D02*
X171825000Y-51000000D01*
X163500000Y-50750000D02*
X163750000Y-51000000D01*
%TO.N,Net-(C23-Pad1)*%
X176000000Y-50975000D02*
X176025000Y-50975000D01*
X177500000Y-49500000D02*
X177500000Y-42000000D01*
X176025000Y-50975000D02*
X177500000Y-49500000D01*
X175975000Y-51000000D02*
X176000000Y-50975000D01*
X173400000Y-51000000D02*
X175975000Y-51000000D01*
D46*
%TO.N,Net-(D1-Pad2)*%
X158000000Y-95500000D02*
X162950000Y-95500000D01*
D44*
%TO.N,Net-(D2-Pad1)*%
X173925000Y-102575000D02*
X174000000Y-102650000D01*
D45*
%TO.N,SDA_SOIL*%
X182299996Y-76800000D02*
X182749996Y-77250000D01*
X180435000Y-76800000D02*
X182299996Y-76800000D01*
D44*
%TO.N,RESET*%
X190540000Y-84550000D02*
X190540000Y-83720000D01*
D45*
X190540000Y-83709998D02*
X190540000Y-84550000D01*
X188630002Y-81800000D02*
X190540000Y-83709998D01*
X179300000Y-81800000D02*
X188630002Y-81800000D01*
X178800000Y-81300000D02*
X179300000Y-81800000D01*
X178800000Y-80435000D02*
X178800000Y-81300000D01*
D44*
X203250000Y-50375000D02*
X203250000Y-42425000D01*
D45*
%TO.N,SWD_CLK*%
X186730000Y-85950000D02*
X186730000Y-84550000D01*
X186629999Y-86050001D02*
X186730000Y-85950000D01*
X181800001Y-86050001D02*
X186629999Y-86050001D01*
X178000000Y-82250000D02*
X181800001Y-86050001D01*
X178000000Y-80435000D02*
X178000000Y-82250000D01*
%TO.N,SWD_DIO*%
X178400000Y-82084302D02*
X180865698Y-84550000D01*
X178400000Y-80435000D02*
X178400000Y-82084302D01*
D44*
%TO.N,Net-(R3-Pad2)*%
X174050000Y-100950000D02*
X174000000Y-101000000D01*
D47*
%TO.N,Net-(R7-Pad1)*%
X200300000Y-98200000D02*
X200000000Y-98500000D01*
X200300000Y-93500000D02*
X200300000Y-98200000D01*
D45*
%TO.N,SDA*%
X161200000Y-77200000D02*
X161925000Y-76475000D01*
X161200000Y-79775000D02*
X161200000Y-77200000D01*
X161400000Y-79975000D02*
X161200000Y-79775000D01*
X161400000Y-80975000D02*
X161400000Y-79975000D01*
X161375000Y-81000000D02*
X161400000Y-80975000D01*
X172400000Y-78600000D02*
X170600000Y-78600000D01*
X172600000Y-78400000D02*
X172400000Y-78600000D01*
X173565000Y-78400000D02*
X172600000Y-78400000D01*
%TO.N,SCL*%
X172317151Y-79282849D02*
X171032849Y-79282849D01*
X172800000Y-78800000D02*
X172317151Y-79282849D01*
X173565000Y-78800000D02*
X172800000Y-78800000D01*
X162025000Y-78675000D02*
X161925000Y-78575000D01*
X162025000Y-81000000D02*
X162025000Y-78675000D01*
%TO.N,LORA_TX*%
X167600000Y-75400000D02*
X167000000Y-74800000D01*
X170433176Y-75400000D02*
X167600000Y-75400000D01*
X171433176Y-76400000D02*
X170433176Y-75400000D01*
X173565000Y-76400000D02*
X171433176Y-76400000D01*
D44*
%TO.N,Net-(R11-Pad2)*%
X194000000Y-76000000D02*
X194500000Y-75500000D01*
X194500000Y-75500000D02*
X200790002Y-75500000D01*
X203250000Y-73040002D02*
X203250000Y-70975000D01*
X200790002Y-75500000D02*
X203250000Y-73040002D01*
X203250000Y-70975000D02*
X203250000Y-63025000D01*
X200200000Y-75950000D02*
X200200000Y-76600000D01*
X199750000Y-75500000D02*
X200200000Y-75950000D01*
%TO.N,Net-(R14-Pad2)*%
X164200000Y-42575000D02*
X164200000Y-42000000D01*
X163150000Y-40950000D02*
X160375000Y-40950000D01*
X164200000Y-42000000D02*
X163150000Y-40950000D01*
X160375000Y-40950000D02*
X152425000Y-40950000D01*
%TO.N,Net-(SW3-Pad1)*%
X160375000Y-45450000D02*
X152425000Y-45450000D01*
X152425000Y-45450000D02*
X151200000Y-46675000D01*
X152350000Y-55500000D02*
X153750000Y-55500000D01*
X151200000Y-54350000D02*
X152350000Y-55500000D01*
X151200000Y-46675000D02*
X151200000Y-54350000D01*
%TO.N,DONE*%
X200200000Y-73800000D02*
X201500000Y-72500000D01*
X200200000Y-74400000D02*
X200200000Y-73800000D01*
X201500000Y-72500000D02*
X201500000Y-61100000D01*
D45*
%TO.N,VDD*%
X176500000Y-83750000D02*
X176500000Y-82667399D01*
X177200000Y-81967399D02*
X177200000Y-80435000D01*
X176500000Y-82667399D02*
X177200000Y-81967399D01*
X182950000Y-78500000D02*
X182000000Y-78500000D01*
X181500000Y-78000000D02*
X180435000Y-78000000D01*
X182000000Y-78500000D02*
X181500000Y-78000000D01*
X173024234Y-74400000D02*
X173565000Y-74400000D01*
X172874234Y-74250000D02*
X173024234Y-74400000D01*
X170775000Y-74250000D02*
X172874234Y-74250000D01*
D47*
X195999982Y-99249982D02*
X199250000Y-102500000D01*
X195999982Y-99250018D02*
X195999982Y-97750000D01*
X194000000Y-101250000D02*
X195999982Y-99250018D01*
X194000000Y-102500000D02*
X194000000Y-101250000D01*
X194400000Y-66850000D02*
X194500000Y-66750000D01*
X194400000Y-68150000D02*
X194400000Y-66850000D01*
D45*
X177200000Y-80435000D02*
X177200000Y-79400000D01*
X177200000Y-79400000D02*
X177600000Y-79000000D01*
X177600000Y-79000000D02*
X178894234Y-79000000D01*
X178894234Y-79000000D02*
X179894234Y-78000000D01*
X179894234Y-78000000D02*
X180435000Y-78000000D01*
D47*
X160275000Y-76475000D02*
X160275000Y-78575000D01*
D48*
X160300000Y-78600000D02*
X160275000Y-78575000D01*
X160725000Y-79700000D02*
X160300000Y-79275000D01*
X160300000Y-79275000D02*
X160300000Y-78600000D01*
X160725000Y-81000000D02*
X160725000Y-79700000D01*
D45*
%TO.N,+1V1*%
X177600000Y-80435000D02*
X177600000Y-84700000D01*
X177600000Y-84700000D02*
X176550000Y-85750000D01*
%TD*%
M02*
