%TF.GenerationSoftware,KiCad,Pcbnew,5.1.10-88a1d61d58~90~ubuntu20.04.1*%
%TF.CreationDate,2022-02-11T12:02:35-08:00*%
%TF.ProjectId,RP2040_WEDS,52503230-3430-45f5-9745-44532e6b6963,rev?*%
%TF.SameCoordinates,Original*%
%TF.FileFunction,Copper,L1,Top*%
%TF.FilePolarity,Positive*%
%FSLAX46Y46*%
G04 Gerber Fmt 4.6, Leading zero omitted, Abs format (unit mm)*
G04 Created by KiCad (PCBNEW 5.1.10-88a1d61d58~90~ubuntu20.04.1) date 2022-02-11 12:02:35*
%MOMM*%
%LPD*%
G01*
G04 APERTURE LIST*
%TA.AperFunction,ComponentPad*%
%ADD10C,2.000000*%
%TD*%
%TA.AperFunction,SMDPad,CuDef*%
%ADD11R,0.350000X0.500000*%
%TD*%
%TA.AperFunction,SMDPad,CuDef*%
%ADD12R,3.100000X3.100000*%
%TD*%
%TA.AperFunction,SMDPad,CuDef*%
%ADD13R,0.850000X0.650000*%
%TD*%
%TA.AperFunction,SMDPad,CuDef*%
%ADD14R,0.900000X0.800000*%
%TD*%
%TA.AperFunction,SMDPad,CuDef*%
%ADD15C,0.100000*%
%TD*%
%TA.AperFunction,SMDPad,CuDef*%
%ADD16R,1.500000X5.080000*%
%TD*%
%TA.AperFunction,SMDPad,CuDef*%
%ADD17R,0.650000X1.060000*%
%TD*%
%TA.AperFunction,SMDPad,CuDef*%
%ADD18R,2.300000X1.000000*%
%TD*%
%TA.AperFunction,SMDPad,CuDef*%
%ADD19R,1.000000X2.300000*%
%TD*%
%TA.AperFunction,SMDPad,CuDef*%
%ADD20R,1.550000X1.300000*%
%TD*%
%TA.AperFunction,SMDPad,CuDef*%
%ADD21R,1.300000X1.550000*%
%TD*%
%TA.AperFunction,SMDPad,CuDef*%
%ADD22R,0.740000X2.400000*%
%TD*%
%TA.AperFunction,ComponentPad*%
%ADD23O,1.000000X1.000000*%
%TD*%
%TA.AperFunction,ComponentPad*%
%ADD24R,1.000000X1.000000*%
%TD*%
%TA.AperFunction,ComponentPad*%
%ADD25O,2.700000X1.200000*%
%TD*%
%TA.AperFunction,ComponentPad*%
%ADD26C,1.900000*%
%TD*%
%TA.AperFunction,SMDPad,CuDef*%
%ADD27R,0.450000X0.600000*%
%TD*%
%TA.AperFunction,SMDPad,CuDef*%
%ADD28R,0.600000X0.450000*%
%TD*%
%TA.AperFunction,ViaPad*%
%ADD29C,0.800000*%
%TD*%
%TA.AperFunction,Conductor*%
%ADD30C,1.000000*%
%TD*%
%TA.AperFunction,Conductor*%
%ADD31C,0.250000*%
%TD*%
%TA.AperFunction,Conductor*%
%ADD32C,0.500000*%
%TD*%
%TA.AperFunction,Conductor*%
%ADD33C,0.200000*%
%TD*%
%TA.AperFunction,Conductor*%
%ADD34C,0.350000*%
%TD*%
G04 APERTURE END LIST*
D10*
%TO.P,LORA_RX,1*%
%TO.N,LORA_RX*%
X163400000Y-70000000D03*
%TD*%
%TO.P,LORA_TX,1*%
%TO.N,LORA_TX*%
X169200000Y-69800000D03*
%TD*%
%TO.P,SOIL SIG,1*%
%TO.N,SOIL_SIG*%
X193200000Y-97400000D03*
%TD*%
%TO.P,VDD,1*%
%TO.N,VDD*%
X154100000Y-72800000D03*
%TD*%
%TO.P,3V3,1*%
%TO.N,+3V3*%
X179600000Y-89200000D03*
%TD*%
%TO.P,BATT,1*%
%TO.N,+BATT*%
X179600000Y-96400000D03*
%TD*%
%TO.P,VDC,1*%
%TO.N,VDC*%
X163600000Y-91600000D03*
%TD*%
%TO.P,R1,2*%
%TO.N,Net-(R1-Pad2)*%
%TA.AperFunction,SMDPad,CuDef*%
G36*
G01*
X177125000Y-100825000D02*
X177675000Y-100825000D01*
G75*
G02*
X177875000Y-101025000I0J-200000D01*
G01*
X177875000Y-101425000D01*
G75*
G02*
X177675000Y-101625000I-200000J0D01*
G01*
X177125000Y-101625000D01*
G75*
G02*
X176925000Y-101425000I0J200000D01*
G01*
X176925000Y-101025000D01*
G75*
G02*
X177125000Y-100825000I200000J0D01*
G01*
G37*
%TD.AperFunction*%
%TO.P,R1,1*%
%TO.N,+BATT*%
%TA.AperFunction,SMDPad,CuDef*%
G36*
G01*
X177125000Y-99175000D02*
X177675000Y-99175000D01*
G75*
G02*
X177875000Y-99375000I0J-200000D01*
G01*
X177875000Y-99775000D01*
G75*
G02*
X177675000Y-99975000I-200000J0D01*
G01*
X177125000Y-99975000D01*
G75*
G02*
X176925000Y-99775000I0J200000D01*
G01*
X176925000Y-99375000D01*
G75*
G02*
X177125000Y-99175000I200000J0D01*
G01*
G37*
%TD.AperFunction*%
%TD*%
%TO.P,C1,2*%
%TO.N,GND*%
%TA.AperFunction,SMDPad,CuDef*%
G36*
G01*
X182500000Y-70175000D02*
X182000000Y-70175000D01*
G75*
G02*
X181775000Y-69950000I0J225000D01*
G01*
X181775000Y-69500000D01*
G75*
G02*
X182000000Y-69275000I225000J0D01*
G01*
X182500000Y-69275000D01*
G75*
G02*
X182725000Y-69500000I0J-225000D01*
G01*
X182725000Y-69950000D01*
G75*
G02*
X182500000Y-70175000I-225000J0D01*
G01*
G37*
%TD.AperFunction*%
%TO.P,C1,1*%
%TO.N,VDD*%
%TA.AperFunction,SMDPad,CuDef*%
G36*
G01*
X182500000Y-71725000D02*
X182000000Y-71725000D01*
G75*
G02*
X181775000Y-71500000I0J225000D01*
G01*
X181775000Y-71050000D01*
G75*
G02*
X182000000Y-70825000I225000J0D01*
G01*
X182500000Y-70825000D01*
G75*
G02*
X182725000Y-71050000I0J-225000D01*
G01*
X182725000Y-71500000D01*
G75*
G02*
X182500000Y-71725000I-225000J0D01*
G01*
G37*
%TD.AperFunction*%
%TD*%
D11*
%TO.P,U4,5*%
%TO.N,GND*%
X158025000Y-82975000D03*
%TO.P,U4,6*%
%TO.N,VDD*%
X157375000Y-82975000D03*
%TO.P,U4,7*%
%TO.N,GND*%
X156725000Y-82975000D03*
%TO.P,U4,8*%
%TO.N,VDD*%
X156075000Y-82975000D03*
%TO.P,U4,1*%
%TO.N,GND*%
X156075000Y-80925000D03*
%TO.P,U4,2*%
%TO.N,VDD*%
X156725000Y-80925000D03*
%TO.P,U4,3*%
%TO.N,SDA*%
X157375000Y-80925000D03*
%TO.P,U4,4*%
%TO.N,SCL*%
X158025000Y-80925000D03*
%TD*%
D12*
%TO.P,U1,57*%
%TO.N,GND*%
X177000000Y-77000000D03*
%TO.P,U1,42*%
%TO.N,VDD*%
%TA.AperFunction,SMDPad,CuDef*%
G36*
G01*
X180015000Y-74494000D02*
X180015000Y-74306000D01*
G75*
G02*
X180021000Y-74300000I6000J0D01*
G01*
X180849000Y-74300000D01*
G75*
G02*
X180855000Y-74306000I0J-6000D01*
G01*
X180855000Y-74494000D01*
G75*
G02*
X180849000Y-74500000I-6000J0D01*
G01*
X180021000Y-74500000D01*
G75*
G02*
X180015000Y-74494000I0J6000D01*
G01*
G37*
%TD.AperFunction*%
%TO.P,U1,41*%
%TO.N,N/C*%
%TA.AperFunction,SMDPad,CuDef*%
G36*
G01*
X180015000Y-74894000D02*
X180015000Y-74706000D01*
G75*
G02*
X180021000Y-74700000I6000J0D01*
G01*
X180849000Y-74700000D01*
G75*
G02*
X180855000Y-74706000I0J-6000D01*
G01*
X180855000Y-74894000D01*
G75*
G02*
X180849000Y-74900000I-6000J0D01*
G01*
X180021000Y-74900000D01*
G75*
G02*
X180015000Y-74894000I0J6000D01*
G01*
G37*
%TD.AperFunction*%
%TO.P,U1,40*%
%TA.AperFunction,SMDPad,CuDef*%
G36*
G01*
X180015000Y-75294000D02*
X180015000Y-75106000D01*
G75*
G02*
X180021000Y-75100000I6000J0D01*
G01*
X180849000Y-75100000D01*
G75*
G02*
X180855000Y-75106000I0J-6000D01*
G01*
X180855000Y-75294000D01*
G75*
G02*
X180849000Y-75300000I-6000J0D01*
G01*
X180021000Y-75300000D01*
G75*
G02*
X180015000Y-75294000I0J6000D01*
G01*
G37*
%TD.AperFunction*%
%TO.P,U1,39*%
%TA.AperFunction,SMDPad,CuDef*%
G36*
G01*
X180015000Y-75694000D02*
X180015000Y-75506000D01*
G75*
G02*
X180021000Y-75500000I6000J0D01*
G01*
X180849000Y-75500000D01*
G75*
G02*
X180855000Y-75506000I0J-6000D01*
G01*
X180855000Y-75694000D01*
G75*
G02*
X180849000Y-75700000I-6000J0D01*
G01*
X180021000Y-75700000D01*
G75*
G02*
X180015000Y-75694000I0J6000D01*
G01*
G37*
%TD.AperFunction*%
%TO.P,U1,38*%
%TO.N,SOIL_SIG*%
%TA.AperFunction,SMDPad,CuDef*%
G36*
G01*
X180015000Y-76094000D02*
X180015000Y-75906000D01*
G75*
G02*
X180021000Y-75900000I6000J0D01*
G01*
X180849000Y-75900000D01*
G75*
G02*
X180855000Y-75906000I0J-6000D01*
G01*
X180855000Y-76094000D01*
G75*
G02*
X180849000Y-76100000I-6000J0D01*
G01*
X180021000Y-76100000D01*
G75*
G02*
X180015000Y-76094000I0J6000D01*
G01*
G37*
%TD.AperFunction*%
%TO.P,U1,37*%
%TO.N,SCL_SOIL*%
%TA.AperFunction,SMDPad,CuDef*%
G36*
G01*
X180015000Y-76494000D02*
X180015000Y-76306000D01*
G75*
G02*
X180021000Y-76300000I6000J0D01*
G01*
X180849000Y-76300000D01*
G75*
G02*
X180855000Y-76306000I0J-6000D01*
G01*
X180855000Y-76494000D01*
G75*
G02*
X180849000Y-76500000I-6000J0D01*
G01*
X180021000Y-76500000D01*
G75*
G02*
X180015000Y-76494000I0J6000D01*
G01*
G37*
%TD.AperFunction*%
%TO.P,U1,36*%
%TO.N,SDA_SOIL*%
%TA.AperFunction,SMDPad,CuDef*%
G36*
G01*
X180015000Y-76894000D02*
X180015000Y-76706000D01*
G75*
G02*
X180021000Y-76700000I6000J0D01*
G01*
X180849000Y-76700000D01*
G75*
G02*
X180855000Y-76706000I0J-6000D01*
G01*
X180855000Y-76894000D01*
G75*
G02*
X180849000Y-76900000I-6000J0D01*
G01*
X180021000Y-76900000D01*
G75*
G02*
X180015000Y-76894000I0J6000D01*
G01*
G37*
%TD.AperFunction*%
%TO.P,U1,35*%
%TO.N,N/C*%
%TA.AperFunction,SMDPad,CuDef*%
G36*
G01*
X180015000Y-77294000D02*
X180015000Y-77106000D01*
G75*
G02*
X180021000Y-77100000I6000J0D01*
G01*
X180849000Y-77100000D01*
G75*
G02*
X180855000Y-77106000I0J-6000D01*
G01*
X180855000Y-77294000D01*
G75*
G02*
X180849000Y-77300000I-6000J0D01*
G01*
X180021000Y-77300000D01*
G75*
G02*
X180015000Y-77294000I0J6000D01*
G01*
G37*
%TD.AperFunction*%
%TO.P,U1,34*%
%TA.AperFunction,SMDPad,CuDef*%
G36*
G01*
X180015000Y-77694000D02*
X180015000Y-77506000D01*
G75*
G02*
X180021000Y-77500000I6000J0D01*
G01*
X180849000Y-77500000D01*
G75*
G02*
X180855000Y-77506000I0J-6000D01*
G01*
X180855000Y-77694000D01*
G75*
G02*
X180849000Y-77700000I-6000J0D01*
G01*
X180021000Y-77700000D01*
G75*
G02*
X180015000Y-77694000I0J6000D01*
G01*
G37*
%TD.AperFunction*%
%TO.P,U1,33*%
%TO.N,VDD*%
%TA.AperFunction,SMDPad,CuDef*%
G36*
G01*
X180015000Y-78094000D02*
X180015000Y-77906000D01*
G75*
G02*
X180021000Y-77900000I6000J0D01*
G01*
X180849000Y-77900000D01*
G75*
G02*
X180855000Y-77906000I0J-6000D01*
G01*
X180855000Y-78094000D01*
G75*
G02*
X180849000Y-78100000I-6000J0D01*
G01*
X180021000Y-78100000D01*
G75*
G02*
X180015000Y-78094000I0J6000D01*
G01*
G37*
%TD.AperFunction*%
%TO.P,U1,32*%
%TO.N,N/C*%
%TA.AperFunction,SMDPad,CuDef*%
G36*
G01*
X180015000Y-78494000D02*
X180015000Y-78306000D01*
G75*
G02*
X180021000Y-78300000I6000J0D01*
G01*
X180849000Y-78300000D01*
G75*
G02*
X180855000Y-78306000I0J-6000D01*
G01*
X180855000Y-78494000D01*
G75*
G02*
X180849000Y-78500000I-6000J0D01*
G01*
X180021000Y-78500000D01*
G75*
G02*
X180015000Y-78494000I0J6000D01*
G01*
G37*
%TD.AperFunction*%
%TO.P,U1,31*%
%TA.AperFunction,SMDPad,CuDef*%
G36*
G01*
X180015000Y-78894000D02*
X180015000Y-78706000D01*
G75*
G02*
X180021000Y-78700000I6000J0D01*
G01*
X180849000Y-78700000D01*
G75*
G02*
X180855000Y-78706000I0J-6000D01*
G01*
X180855000Y-78894000D01*
G75*
G02*
X180849000Y-78900000I-6000J0D01*
G01*
X180021000Y-78900000D01*
G75*
G02*
X180015000Y-78894000I0J6000D01*
G01*
G37*
%TD.AperFunction*%
%TO.P,U1,30*%
%TA.AperFunction,SMDPad,CuDef*%
G36*
G01*
X180015000Y-79294000D02*
X180015000Y-79106000D01*
G75*
G02*
X180021000Y-79100000I6000J0D01*
G01*
X180849000Y-79100000D01*
G75*
G02*
X180855000Y-79106000I0J-6000D01*
G01*
X180855000Y-79294000D01*
G75*
G02*
X180849000Y-79300000I-6000J0D01*
G01*
X180021000Y-79300000D01*
G75*
G02*
X180015000Y-79294000I0J6000D01*
G01*
G37*
%TD.AperFunction*%
%TO.P,U1,29*%
%TO.N,DONE*%
%TA.AperFunction,SMDPad,CuDef*%
G36*
G01*
X180015000Y-79694000D02*
X180015000Y-79506000D01*
G75*
G02*
X180021000Y-79500000I6000J0D01*
G01*
X180849000Y-79500000D01*
G75*
G02*
X180855000Y-79506000I0J-6000D01*
G01*
X180855000Y-79694000D01*
G75*
G02*
X180849000Y-79700000I-6000J0D01*
G01*
X180021000Y-79700000D01*
G75*
G02*
X180015000Y-79694000I0J6000D01*
G01*
G37*
%TD.AperFunction*%
%TO.P,U1,14*%
%TO.N,N/C*%
%TA.AperFunction,SMDPad,CuDef*%
G36*
G01*
X173145000Y-79694000D02*
X173145000Y-79506000D01*
G75*
G02*
X173151000Y-79500000I6000J0D01*
G01*
X173979000Y-79500000D01*
G75*
G02*
X173985000Y-79506000I0J-6000D01*
G01*
X173985000Y-79694000D01*
G75*
G02*
X173979000Y-79700000I-6000J0D01*
G01*
X173151000Y-79700000D01*
G75*
G02*
X173145000Y-79694000I0J6000D01*
G01*
G37*
%TD.AperFunction*%
%TO.P,U1,13*%
%TA.AperFunction,SMDPad,CuDef*%
G36*
G01*
X173145000Y-79294000D02*
X173145000Y-79106000D01*
G75*
G02*
X173151000Y-79100000I6000J0D01*
G01*
X173979000Y-79100000D01*
G75*
G02*
X173985000Y-79106000I0J-6000D01*
G01*
X173985000Y-79294000D01*
G75*
G02*
X173979000Y-79300000I-6000J0D01*
G01*
X173151000Y-79300000D01*
G75*
G02*
X173145000Y-79294000I0J6000D01*
G01*
G37*
%TD.AperFunction*%
%TO.P,U1,12*%
%TO.N,SCL*%
%TA.AperFunction,SMDPad,CuDef*%
G36*
G01*
X173145000Y-78894000D02*
X173145000Y-78706000D01*
G75*
G02*
X173151000Y-78700000I6000J0D01*
G01*
X173979000Y-78700000D01*
G75*
G02*
X173985000Y-78706000I0J-6000D01*
G01*
X173985000Y-78894000D01*
G75*
G02*
X173979000Y-78900000I-6000J0D01*
G01*
X173151000Y-78900000D01*
G75*
G02*
X173145000Y-78894000I0J6000D01*
G01*
G37*
%TD.AperFunction*%
%TO.P,U1,11*%
%TO.N,SDA*%
%TA.AperFunction,SMDPad,CuDef*%
G36*
G01*
X173145000Y-78494000D02*
X173145000Y-78306000D01*
G75*
G02*
X173151000Y-78300000I6000J0D01*
G01*
X173979000Y-78300000D01*
G75*
G02*
X173985000Y-78306000I0J-6000D01*
G01*
X173985000Y-78494000D01*
G75*
G02*
X173979000Y-78500000I-6000J0D01*
G01*
X173151000Y-78500000D01*
G75*
G02*
X173145000Y-78494000I0J6000D01*
G01*
G37*
%TD.AperFunction*%
%TO.P,U1,10*%
%TO.N,VDD*%
%TA.AperFunction,SMDPad,CuDef*%
G36*
G01*
X173145000Y-78094000D02*
X173145000Y-77906000D01*
G75*
G02*
X173151000Y-77900000I6000J0D01*
G01*
X173979000Y-77900000D01*
G75*
G02*
X173985000Y-77906000I0J-6000D01*
G01*
X173985000Y-78094000D01*
G75*
G02*
X173979000Y-78100000I-6000J0D01*
G01*
X173151000Y-78100000D01*
G75*
G02*
X173145000Y-78094000I0J6000D01*
G01*
G37*
%TD.AperFunction*%
%TO.P,U1,9*%
%TO.N,N/C*%
%TA.AperFunction,SMDPad,CuDef*%
G36*
G01*
X173145000Y-77694000D02*
X173145000Y-77506000D01*
G75*
G02*
X173151000Y-77500000I6000J0D01*
G01*
X173979000Y-77500000D01*
G75*
G02*
X173985000Y-77506000I0J-6000D01*
G01*
X173985000Y-77694000D01*
G75*
G02*
X173979000Y-77700000I-6000J0D01*
G01*
X173151000Y-77700000D01*
G75*
G02*
X173145000Y-77694000I0J6000D01*
G01*
G37*
%TD.AperFunction*%
%TO.P,U1,8*%
%TA.AperFunction,SMDPad,CuDef*%
G36*
G01*
X173145000Y-77294000D02*
X173145000Y-77106000D01*
G75*
G02*
X173151000Y-77100000I6000J0D01*
G01*
X173979000Y-77100000D01*
G75*
G02*
X173985000Y-77106000I0J-6000D01*
G01*
X173985000Y-77294000D01*
G75*
G02*
X173979000Y-77300000I-6000J0D01*
G01*
X173151000Y-77300000D01*
G75*
G02*
X173145000Y-77294000I0J6000D01*
G01*
G37*
%TD.AperFunction*%
%TO.P,U1,7*%
%TO.N,LORA_RX*%
%TA.AperFunction,SMDPad,CuDef*%
G36*
G01*
X173145000Y-76894000D02*
X173145000Y-76706000D01*
G75*
G02*
X173151000Y-76700000I6000J0D01*
G01*
X173979000Y-76700000D01*
G75*
G02*
X173985000Y-76706000I0J-6000D01*
G01*
X173985000Y-76894000D01*
G75*
G02*
X173979000Y-76900000I-6000J0D01*
G01*
X173151000Y-76900000D01*
G75*
G02*
X173145000Y-76894000I0J6000D01*
G01*
G37*
%TD.AperFunction*%
%TO.P,U1,6*%
%TO.N,LORA_TX*%
%TA.AperFunction,SMDPad,CuDef*%
G36*
G01*
X173145000Y-76494000D02*
X173145000Y-76306000D01*
G75*
G02*
X173151000Y-76300000I6000J0D01*
G01*
X173979000Y-76300000D01*
G75*
G02*
X173985000Y-76306000I0J-6000D01*
G01*
X173985000Y-76494000D01*
G75*
G02*
X173979000Y-76500000I-6000J0D01*
G01*
X173151000Y-76500000D01*
G75*
G02*
X173145000Y-76494000I0J6000D01*
G01*
G37*
%TD.AperFunction*%
%TO.P,U1,5*%
%TO.N,N/C*%
%TA.AperFunction,SMDPad,CuDef*%
G36*
G01*
X173145000Y-76094000D02*
X173145000Y-75906000D01*
G75*
G02*
X173151000Y-75900000I6000J0D01*
G01*
X173979000Y-75900000D01*
G75*
G02*
X173985000Y-75906000I0J-6000D01*
G01*
X173985000Y-76094000D01*
G75*
G02*
X173979000Y-76100000I-6000J0D01*
G01*
X173151000Y-76100000D01*
G75*
G02*
X173145000Y-76094000I0J6000D01*
G01*
G37*
%TD.AperFunction*%
%TO.P,U1,4*%
%TA.AperFunction,SMDPad,CuDef*%
G36*
G01*
X173145000Y-75694000D02*
X173145000Y-75506000D01*
G75*
G02*
X173151000Y-75500000I6000J0D01*
G01*
X173979000Y-75500000D01*
G75*
G02*
X173985000Y-75506000I0J-6000D01*
G01*
X173985000Y-75694000D01*
G75*
G02*
X173979000Y-75700000I-6000J0D01*
G01*
X173151000Y-75700000D01*
G75*
G02*
X173145000Y-75694000I0J6000D01*
G01*
G37*
%TD.AperFunction*%
%TO.P,U1,3*%
%TA.AperFunction,SMDPad,CuDef*%
G36*
G01*
X173145000Y-75294000D02*
X173145000Y-75106000D01*
G75*
G02*
X173151000Y-75100000I6000J0D01*
G01*
X173979000Y-75100000D01*
G75*
G02*
X173985000Y-75106000I0J-6000D01*
G01*
X173985000Y-75294000D01*
G75*
G02*
X173979000Y-75300000I-6000J0D01*
G01*
X173151000Y-75300000D01*
G75*
G02*
X173145000Y-75294000I0J6000D01*
G01*
G37*
%TD.AperFunction*%
%TO.P,U1,2*%
%TA.AperFunction,SMDPad,CuDef*%
G36*
G01*
X173145000Y-74894000D02*
X173145000Y-74706000D01*
G75*
G02*
X173151000Y-74700000I6000J0D01*
G01*
X173979000Y-74700000D01*
G75*
G02*
X173985000Y-74706000I0J-6000D01*
G01*
X173985000Y-74894000D01*
G75*
G02*
X173979000Y-74900000I-6000J0D01*
G01*
X173151000Y-74900000D01*
G75*
G02*
X173145000Y-74894000I0J6000D01*
G01*
G37*
%TD.AperFunction*%
%TO.P,U1,1*%
%TO.N,VDD*%
%TA.AperFunction,SMDPad,CuDef*%
G36*
G01*
X173145000Y-74494000D02*
X173145000Y-74306000D01*
G75*
G02*
X173151000Y-74300000I6000J0D01*
G01*
X173979000Y-74300000D01*
G75*
G02*
X173985000Y-74306000I0J-6000D01*
G01*
X173985000Y-74494000D01*
G75*
G02*
X173979000Y-74500000I-6000J0D01*
G01*
X173151000Y-74500000D01*
G75*
G02*
X173145000Y-74494000I0J6000D01*
G01*
G37*
%TD.AperFunction*%
%TO.P,U1,56*%
%TO.N,QSPI_CSN*%
%TA.AperFunction,SMDPad,CuDef*%
G36*
G01*
X174300000Y-73965000D02*
X174300000Y-73165000D01*
G75*
G02*
X174320000Y-73145000I20000J0D01*
G01*
X174480000Y-73145000D01*
G75*
G02*
X174500000Y-73165000I0J-20000D01*
G01*
X174500000Y-73965000D01*
G75*
G02*
X174480000Y-73985000I-20000J0D01*
G01*
X174320000Y-73985000D01*
G75*
G02*
X174300000Y-73965000I0J20000D01*
G01*
G37*
%TD.AperFunction*%
%TO.P,U1,55*%
%TO.N,QSPI_SD1*%
%TA.AperFunction,SMDPad,CuDef*%
G36*
G01*
X174700000Y-73965000D02*
X174700000Y-73165000D01*
G75*
G02*
X174720000Y-73145000I20000J0D01*
G01*
X174880000Y-73145000D01*
G75*
G02*
X174900000Y-73165000I0J-20000D01*
G01*
X174900000Y-73965000D01*
G75*
G02*
X174880000Y-73985000I-20000J0D01*
G01*
X174720000Y-73985000D01*
G75*
G02*
X174700000Y-73965000I0J20000D01*
G01*
G37*
%TD.AperFunction*%
%TO.P,U1,54*%
%TO.N,QSPI_SD2*%
%TA.AperFunction,SMDPad,CuDef*%
G36*
G01*
X175100000Y-73965000D02*
X175100000Y-73165000D01*
G75*
G02*
X175120000Y-73145000I20000J0D01*
G01*
X175280000Y-73145000D01*
G75*
G02*
X175300000Y-73165000I0J-20000D01*
G01*
X175300000Y-73965000D01*
G75*
G02*
X175280000Y-73985000I-20000J0D01*
G01*
X175120000Y-73985000D01*
G75*
G02*
X175100000Y-73965000I0J20000D01*
G01*
G37*
%TD.AperFunction*%
%TO.P,U1,53*%
%TO.N,QSPI_SD0*%
%TA.AperFunction,SMDPad,CuDef*%
G36*
G01*
X175500000Y-73965000D02*
X175500000Y-73165000D01*
G75*
G02*
X175520000Y-73145000I20000J0D01*
G01*
X175680000Y-73145000D01*
G75*
G02*
X175700000Y-73165000I0J-20000D01*
G01*
X175700000Y-73965000D01*
G75*
G02*
X175680000Y-73985000I-20000J0D01*
G01*
X175520000Y-73985000D01*
G75*
G02*
X175500000Y-73965000I0J20000D01*
G01*
G37*
%TD.AperFunction*%
%TO.P,U1,52*%
%TO.N,QSPI_CLK*%
%TA.AperFunction,SMDPad,CuDef*%
G36*
G01*
X175900000Y-73965000D02*
X175900000Y-73165000D01*
G75*
G02*
X175920000Y-73145000I20000J0D01*
G01*
X176080000Y-73145000D01*
G75*
G02*
X176100000Y-73165000I0J-20000D01*
G01*
X176100000Y-73965000D01*
G75*
G02*
X176080000Y-73985000I-20000J0D01*
G01*
X175920000Y-73985000D01*
G75*
G02*
X175900000Y-73965000I0J20000D01*
G01*
G37*
%TD.AperFunction*%
%TO.P,U1,51*%
%TO.N,QSPI_SD3*%
%TA.AperFunction,SMDPad,CuDef*%
G36*
G01*
X176300000Y-73965000D02*
X176300000Y-73165000D01*
G75*
G02*
X176320000Y-73145000I20000J0D01*
G01*
X176480000Y-73145000D01*
G75*
G02*
X176500000Y-73165000I0J-20000D01*
G01*
X176500000Y-73965000D01*
G75*
G02*
X176480000Y-73985000I-20000J0D01*
G01*
X176320000Y-73985000D01*
G75*
G02*
X176300000Y-73965000I0J20000D01*
G01*
G37*
%TD.AperFunction*%
%TO.P,U1,50*%
%TO.N,+1V1*%
%TA.AperFunction,SMDPad,CuDef*%
G36*
G01*
X176700000Y-73965000D02*
X176700000Y-73165000D01*
G75*
G02*
X176720000Y-73145000I20000J0D01*
G01*
X176880000Y-73145000D01*
G75*
G02*
X176900000Y-73165000I0J-20000D01*
G01*
X176900000Y-73965000D01*
G75*
G02*
X176880000Y-73985000I-20000J0D01*
G01*
X176720000Y-73985000D01*
G75*
G02*
X176700000Y-73965000I0J20000D01*
G01*
G37*
%TD.AperFunction*%
%TO.P,U1,49*%
%TO.N,VDD*%
%TA.AperFunction,SMDPad,CuDef*%
G36*
G01*
X177100000Y-73965000D02*
X177100000Y-73165000D01*
G75*
G02*
X177120000Y-73145000I20000J0D01*
G01*
X177280000Y-73145000D01*
G75*
G02*
X177300000Y-73165000I0J-20000D01*
G01*
X177300000Y-73965000D01*
G75*
G02*
X177280000Y-73985000I-20000J0D01*
G01*
X177120000Y-73985000D01*
G75*
G02*
X177100000Y-73965000I0J20000D01*
G01*
G37*
%TD.AperFunction*%
%TO.P,U1,48*%
%TO.N,N/C*%
%TA.AperFunction,SMDPad,CuDef*%
G36*
G01*
X177500000Y-73965000D02*
X177500000Y-73165000D01*
G75*
G02*
X177520000Y-73145000I20000J0D01*
G01*
X177680000Y-73145000D01*
G75*
G02*
X177700000Y-73165000I0J-20000D01*
G01*
X177700000Y-73965000D01*
G75*
G02*
X177680000Y-73985000I-20000J0D01*
G01*
X177520000Y-73985000D01*
G75*
G02*
X177500000Y-73965000I0J20000D01*
G01*
G37*
%TD.AperFunction*%
%TO.P,U1,47*%
%TA.AperFunction,SMDPad,CuDef*%
G36*
G01*
X177900000Y-73965000D02*
X177900000Y-73165000D01*
G75*
G02*
X177920000Y-73145000I20000J0D01*
G01*
X178080000Y-73145000D01*
G75*
G02*
X178100000Y-73165000I0J-20000D01*
G01*
X178100000Y-73965000D01*
G75*
G02*
X178080000Y-73985000I-20000J0D01*
G01*
X177920000Y-73985000D01*
G75*
G02*
X177900000Y-73965000I0J20000D01*
G01*
G37*
%TD.AperFunction*%
%TO.P,U1,46*%
%TA.AperFunction,SMDPad,CuDef*%
G36*
G01*
X178300000Y-73965000D02*
X178300000Y-73165000D01*
G75*
G02*
X178320000Y-73145000I20000J0D01*
G01*
X178480000Y-73145000D01*
G75*
G02*
X178500000Y-73165000I0J-20000D01*
G01*
X178500000Y-73965000D01*
G75*
G02*
X178480000Y-73985000I-20000J0D01*
G01*
X178320000Y-73985000D01*
G75*
G02*
X178300000Y-73965000I0J20000D01*
G01*
G37*
%TD.AperFunction*%
%TO.P,U1,45*%
%TO.N,+1V1*%
%TA.AperFunction,SMDPad,CuDef*%
G36*
G01*
X178700000Y-73965000D02*
X178700000Y-73165000D01*
G75*
G02*
X178720000Y-73145000I20000J0D01*
G01*
X178880000Y-73145000D01*
G75*
G02*
X178900000Y-73165000I0J-20000D01*
G01*
X178900000Y-73965000D01*
G75*
G02*
X178880000Y-73985000I-20000J0D01*
G01*
X178720000Y-73985000D01*
G75*
G02*
X178700000Y-73965000I0J20000D01*
G01*
G37*
%TD.AperFunction*%
%TO.P,U1,44*%
%TO.N,VDD*%
%TA.AperFunction,SMDPad,CuDef*%
G36*
G01*
X179100000Y-73965000D02*
X179100000Y-73165000D01*
G75*
G02*
X179120000Y-73145000I20000J0D01*
G01*
X179280000Y-73145000D01*
G75*
G02*
X179300000Y-73165000I0J-20000D01*
G01*
X179300000Y-73965000D01*
G75*
G02*
X179280000Y-73985000I-20000J0D01*
G01*
X179120000Y-73985000D01*
G75*
G02*
X179100000Y-73965000I0J20000D01*
G01*
G37*
%TD.AperFunction*%
%TO.P,U1,43*%
%TA.AperFunction,SMDPad,CuDef*%
G36*
G01*
X179500000Y-73965000D02*
X179500000Y-73165000D01*
G75*
G02*
X179520000Y-73145000I20000J0D01*
G01*
X179680000Y-73145000D01*
G75*
G02*
X179700000Y-73165000I0J-20000D01*
G01*
X179700000Y-73965000D01*
G75*
G02*
X179680000Y-73985000I-20000J0D01*
G01*
X179520000Y-73985000D01*
G75*
G02*
X179500000Y-73965000I0J20000D01*
G01*
G37*
%TD.AperFunction*%
%TO.P,U1,28*%
%TO.N,N/C*%
%TA.AperFunction,SMDPad,CuDef*%
G36*
G01*
X179500000Y-80835000D02*
X179500000Y-80035000D01*
G75*
G02*
X179520000Y-80015000I20000J0D01*
G01*
X179680000Y-80015000D01*
G75*
G02*
X179700000Y-80035000I0J-20000D01*
G01*
X179700000Y-80835000D01*
G75*
G02*
X179680000Y-80855000I-20000J0D01*
G01*
X179520000Y-80855000D01*
G75*
G02*
X179500000Y-80835000I0J20000D01*
G01*
G37*
%TD.AperFunction*%
%TO.P,U1,27*%
%TA.AperFunction,SMDPad,CuDef*%
G36*
G01*
X179100000Y-80835000D02*
X179100000Y-80035000D01*
G75*
G02*
X179120000Y-80015000I20000J0D01*
G01*
X179280000Y-80015000D01*
G75*
G02*
X179300000Y-80035000I0J-20000D01*
G01*
X179300000Y-80835000D01*
G75*
G02*
X179280000Y-80855000I-20000J0D01*
G01*
X179120000Y-80855000D01*
G75*
G02*
X179100000Y-80835000I0J20000D01*
G01*
G37*
%TD.AperFunction*%
%TO.P,U1,26*%
%TO.N,RESET*%
%TA.AperFunction,SMDPad,CuDef*%
G36*
G01*
X178700000Y-80835000D02*
X178700000Y-80035000D01*
G75*
G02*
X178720000Y-80015000I20000J0D01*
G01*
X178880000Y-80015000D01*
G75*
G02*
X178900000Y-80035000I0J-20000D01*
G01*
X178900000Y-80835000D01*
G75*
G02*
X178880000Y-80855000I-20000J0D01*
G01*
X178720000Y-80855000D01*
G75*
G02*
X178700000Y-80835000I0J20000D01*
G01*
G37*
%TD.AperFunction*%
%TO.P,U1,25*%
%TO.N,SWD_DIO*%
%TA.AperFunction,SMDPad,CuDef*%
G36*
G01*
X178300000Y-80835000D02*
X178300000Y-80035000D01*
G75*
G02*
X178320000Y-80015000I20000J0D01*
G01*
X178480000Y-80015000D01*
G75*
G02*
X178500000Y-80035000I0J-20000D01*
G01*
X178500000Y-80835000D01*
G75*
G02*
X178480000Y-80855000I-20000J0D01*
G01*
X178320000Y-80855000D01*
G75*
G02*
X178300000Y-80835000I0J20000D01*
G01*
G37*
%TD.AperFunction*%
%TO.P,U1,24*%
%TO.N,SWD_CLK*%
%TA.AperFunction,SMDPad,CuDef*%
G36*
G01*
X177900000Y-80835000D02*
X177900000Y-80035000D01*
G75*
G02*
X177920000Y-80015000I20000J0D01*
G01*
X178080000Y-80015000D01*
G75*
G02*
X178100000Y-80035000I0J-20000D01*
G01*
X178100000Y-80835000D01*
G75*
G02*
X178080000Y-80855000I-20000J0D01*
G01*
X177920000Y-80855000D01*
G75*
G02*
X177900000Y-80835000I0J20000D01*
G01*
G37*
%TD.AperFunction*%
%TO.P,U1,23*%
%TO.N,+1V1*%
%TA.AperFunction,SMDPad,CuDef*%
G36*
G01*
X177500000Y-80835000D02*
X177500000Y-80035000D01*
G75*
G02*
X177520000Y-80015000I20000J0D01*
G01*
X177680000Y-80015000D01*
G75*
G02*
X177700000Y-80035000I0J-20000D01*
G01*
X177700000Y-80835000D01*
G75*
G02*
X177680000Y-80855000I-20000J0D01*
G01*
X177520000Y-80855000D01*
G75*
G02*
X177500000Y-80835000I0J20000D01*
G01*
G37*
%TD.AperFunction*%
%TO.P,U1,22*%
%TO.N,VDD*%
%TA.AperFunction,SMDPad,CuDef*%
G36*
G01*
X177100000Y-80835000D02*
X177100000Y-80035000D01*
G75*
G02*
X177120000Y-80015000I20000J0D01*
G01*
X177280000Y-80015000D01*
G75*
G02*
X177300000Y-80035000I0J-20000D01*
G01*
X177300000Y-80835000D01*
G75*
G02*
X177280000Y-80855000I-20000J0D01*
G01*
X177120000Y-80855000D01*
G75*
G02*
X177100000Y-80835000I0J20000D01*
G01*
G37*
%TD.AperFunction*%
%TO.P,U1,21*%
%TO.N,XOUT*%
%TA.AperFunction,SMDPad,CuDef*%
G36*
G01*
X176700000Y-80835000D02*
X176700000Y-80035000D01*
G75*
G02*
X176720000Y-80015000I20000J0D01*
G01*
X176880000Y-80015000D01*
G75*
G02*
X176900000Y-80035000I0J-20000D01*
G01*
X176900000Y-80835000D01*
G75*
G02*
X176880000Y-80855000I-20000J0D01*
G01*
X176720000Y-80855000D01*
G75*
G02*
X176700000Y-80835000I0J20000D01*
G01*
G37*
%TD.AperFunction*%
%TO.P,U1,20*%
%TO.N,XIN*%
%TA.AperFunction,SMDPad,CuDef*%
G36*
G01*
X176300000Y-80835000D02*
X176300000Y-80035000D01*
G75*
G02*
X176320000Y-80015000I20000J0D01*
G01*
X176480000Y-80015000D01*
G75*
G02*
X176500000Y-80035000I0J-20000D01*
G01*
X176500000Y-80835000D01*
G75*
G02*
X176480000Y-80855000I-20000J0D01*
G01*
X176320000Y-80855000D01*
G75*
G02*
X176300000Y-80835000I0J20000D01*
G01*
G37*
%TD.AperFunction*%
%TO.P,U1,19*%
%TO.N,GND*%
%TA.AperFunction,SMDPad,CuDef*%
G36*
G01*
X175900000Y-80835000D02*
X175900000Y-80035000D01*
G75*
G02*
X175920000Y-80015000I20000J0D01*
G01*
X176080000Y-80015000D01*
G75*
G02*
X176100000Y-80035000I0J-20000D01*
G01*
X176100000Y-80835000D01*
G75*
G02*
X176080000Y-80855000I-20000J0D01*
G01*
X175920000Y-80855000D01*
G75*
G02*
X175900000Y-80835000I0J20000D01*
G01*
G37*
%TD.AperFunction*%
%TO.P,U1,18*%
%TO.N,N/C*%
%TA.AperFunction,SMDPad,CuDef*%
G36*
G01*
X175500000Y-80835000D02*
X175500000Y-80035000D01*
G75*
G02*
X175520000Y-80015000I20000J0D01*
G01*
X175680000Y-80015000D01*
G75*
G02*
X175700000Y-80035000I0J-20000D01*
G01*
X175700000Y-80835000D01*
G75*
G02*
X175680000Y-80855000I-20000J0D01*
G01*
X175520000Y-80855000D01*
G75*
G02*
X175500000Y-80835000I0J20000D01*
G01*
G37*
%TD.AperFunction*%
%TO.P,U1,17*%
%TA.AperFunction,SMDPad,CuDef*%
G36*
G01*
X175100000Y-80835000D02*
X175100000Y-80035000D01*
G75*
G02*
X175120000Y-80015000I20000J0D01*
G01*
X175280000Y-80015000D01*
G75*
G02*
X175300000Y-80035000I0J-20000D01*
G01*
X175300000Y-80835000D01*
G75*
G02*
X175280000Y-80855000I-20000J0D01*
G01*
X175120000Y-80855000D01*
G75*
G02*
X175100000Y-80835000I0J20000D01*
G01*
G37*
%TD.AperFunction*%
%TO.P,U1,16*%
%TA.AperFunction,SMDPad,CuDef*%
G36*
G01*
X174700000Y-80835000D02*
X174700000Y-80035000D01*
G75*
G02*
X174720000Y-80015000I20000J0D01*
G01*
X174880000Y-80015000D01*
G75*
G02*
X174900000Y-80035000I0J-20000D01*
G01*
X174900000Y-80835000D01*
G75*
G02*
X174880000Y-80855000I-20000J0D01*
G01*
X174720000Y-80855000D01*
G75*
G02*
X174700000Y-80835000I0J20000D01*
G01*
G37*
%TD.AperFunction*%
%TO.P,U1,15*%
%TA.AperFunction,SMDPad,CuDef*%
G36*
G01*
X174300000Y-80835000D02*
X174300000Y-80035000D01*
G75*
G02*
X174320000Y-80015000I20000J0D01*
G01*
X174480000Y-80015000D01*
G75*
G02*
X174500000Y-80035000I0J-20000D01*
G01*
X174500000Y-80835000D01*
G75*
G02*
X174480000Y-80855000I-20000J0D01*
G01*
X174320000Y-80855000D01*
G75*
G02*
X174300000Y-80835000I0J20000D01*
G01*
G37*
%TD.AperFunction*%
%TD*%
%TO.P,U3,8*%
%TO.N,VDD*%
%TA.AperFunction,SMDPad,CuDef*%
G36*
G01*
X178700000Y-64505000D02*
X178700000Y-64805000D01*
G75*
G02*
X178550000Y-64955000I-150000J0D01*
G01*
X177250000Y-64955000D01*
G75*
G02*
X177100000Y-64805000I0J150000D01*
G01*
X177100000Y-64505000D01*
G75*
G02*
X177250000Y-64355000I150000J0D01*
G01*
X178550000Y-64355000D01*
G75*
G02*
X178700000Y-64505000I0J-150000D01*
G01*
G37*
%TD.AperFunction*%
%TO.P,U3,7*%
%TO.N,QSPI_SD3*%
%TA.AperFunction,SMDPad,CuDef*%
G36*
G01*
X178700000Y-63235000D02*
X178700000Y-63535000D01*
G75*
G02*
X178550000Y-63685000I-150000J0D01*
G01*
X177250000Y-63685000D01*
G75*
G02*
X177100000Y-63535000I0J150000D01*
G01*
X177100000Y-63235000D01*
G75*
G02*
X177250000Y-63085000I150000J0D01*
G01*
X178550000Y-63085000D01*
G75*
G02*
X178700000Y-63235000I0J-150000D01*
G01*
G37*
%TD.AperFunction*%
%TO.P,U3,6*%
%TO.N,QSPI_CLK*%
%TA.AperFunction,SMDPad,CuDef*%
G36*
G01*
X178700000Y-61965000D02*
X178700000Y-62265000D01*
G75*
G02*
X178550000Y-62415000I-150000J0D01*
G01*
X177250000Y-62415000D01*
G75*
G02*
X177100000Y-62265000I0J150000D01*
G01*
X177100000Y-61965000D01*
G75*
G02*
X177250000Y-61815000I150000J0D01*
G01*
X178550000Y-61815000D01*
G75*
G02*
X178700000Y-61965000I0J-150000D01*
G01*
G37*
%TD.AperFunction*%
%TO.P,U3,5*%
%TO.N,QSPI_SD0*%
%TA.AperFunction,SMDPad,CuDef*%
G36*
G01*
X178700000Y-60695000D02*
X178700000Y-60995000D01*
G75*
G02*
X178550000Y-61145000I-150000J0D01*
G01*
X177250000Y-61145000D01*
G75*
G02*
X177100000Y-60995000I0J150000D01*
G01*
X177100000Y-60695000D01*
G75*
G02*
X177250000Y-60545000I150000J0D01*
G01*
X178550000Y-60545000D01*
G75*
G02*
X178700000Y-60695000I0J-150000D01*
G01*
G37*
%TD.AperFunction*%
%TO.P,U3,4*%
%TO.N,GND*%
%TA.AperFunction,SMDPad,CuDef*%
G36*
G01*
X185900000Y-60695000D02*
X185900000Y-60995000D01*
G75*
G02*
X185750000Y-61145000I-150000J0D01*
G01*
X184450000Y-61145000D01*
G75*
G02*
X184300000Y-60995000I0J150000D01*
G01*
X184300000Y-60695000D01*
G75*
G02*
X184450000Y-60545000I150000J0D01*
G01*
X185750000Y-60545000D01*
G75*
G02*
X185900000Y-60695000I0J-150000D01*
G01*
G37*
%TD.AperFunction*%
%TO.P,U3,3*%
%TO.N,QSPI_SD2*%
%TA.AperFunction,SMDPad,CuDef*%
G36*
G01*
X185900000Y-61965000D02*
X185900000Y-62265000D01*
G75*
G02*
X185750000Y-62415000I-150000J0D01*
G01*
X184450000Y-62415000D01*
G75*
G02*
X184300000Y-62265000I0J150000D01*
G01*
X184300000Y-61965000D01*
G75*
G02*
X184450000Y-61815000I150000J0D01*
G01*
X185750000Y-61815000D01*
G75*
G02*
X185900000Y-61965000I0J-150000D01*
G01*
G37*
%TD.AperFunction*%
%TO.P,U3,2*%
%TO.N,QSPI_SD1*%
%TA.AperFunction,SMDPad,CuDef*%
G36*
G01*
X185900000Y-63235000D02*
X185900000Y-63535000D01*
G75*
G02*
X185750000Y-63685000I-150000J0D01*
G01*
X184450000Y-63685000D01*
G75*
G02*
X184300000Y-63535000I0J150000D01*
G01*
X184300000Y-63235000D01*
G75*
G02*
X184450000Y-63085000I150000J0D01*
G01*
X185750000Y-63085000D01*
G75*
G02*
X185900000Y-63235000I0J-150000D01*
G01*
G37*
%TD.AperFunction*%
%TO.P,U3,1*%
%TO.N,QSPI_CSN*%
%TA.AperFunction,SMDPad,CuDef*%
G36*
G01*
X185900000Y-64505000D02*
X185900000Y-64805000D01*
G75*
G02*
X185750000Y-64955000I-150000J0D01*
G01*
X184450000Y-64955000D01*
G75*
G02*
X184300000Y-64805000I0J150000D01*
G01*
X184300000Y-64505000D01*
G75*
G02*
X184450000Y-64355000I150000J0D01*
G01*
X185750000Y-64355000D01*
G75*
G02*
X185900000Y-64505000I0J-150000D01*
G01*
G37*
%TD.AperFunction*%
%TD*%
%TO.P,C5,2*%
%TO.N,GND*%
%TA.AperFunction,SMDPad,CuDef*%
G36*
G01*
X175400000Y-83500000D02*
X175400000Y-84000000D01*
G75*
G02*
X175175000Y-84225000I-225000J0D01*
G01*
X174725000Y-84225000D01*
G75*
G02*
X174500000Y-84000000I0J225000D01*
G01*
X174500000Y-83500000D01*
G75*
G02*
X174725000Y-83275000I225000J0D01*
G01*
X175175000Y-83275000D01*
G75*
G02*
X175400000Y-83500000I0J-225000D01*
G01*
G37*
%TD.AperFunction*%
%TO.P,C5,1*%
%TO.N,VDD*%
%TA.AperFunction,SMDPad,CuDef*%
G36*
G01*
X176950000Y-83500000D02*
X176950000Y-84000000D01*
G75*
G02*
X176725000Y-84225000I-225000J0D01*
G01*
X176275000Y-84225000D01*
G75*
G02*
X176050000Y-84000000I0J225000D01*
G01*
X176050000Y-83500000D01*
G75*
G02*
X176275000Y-83275000I225000J0D01*
G01*
X176725000Y-83275000D01*
G75*
G02*
X176950000Y-83500000I0J-225000D01*
G01*
G37*
%TD.AperFunction*%
%TD*%
%TO.P,C8,2*%
%TO.N,GND*%
%TA.AperFunction,SMDPad,CuDef*%
G36*
G01*
X169675000Y-74000000D02*
X169675000Y-74500000D01*
G75*
G02*
X169450000Y-74725000I-225000J0D01*
G01*
X169000000Y-74725000D01*
G75*
G02*
X168775000Y-74500000I0J225000D01*
G01*
X168775000Y-74000000D01*
G75*
G02*
X169000000Y-73775000I225000J0D01*
G01*
X169450000Y-73775000D01*
G75*
G02*
X169675000Y-74000000I0J-225000D01*
G01*
G37*
%TD.AperFunction*%
%TO.P,C8,1*%
%TO.N,VDD*%
%TA.AperFunction,SMDPad,CuDef*%
G36*
G01*
X171225000Y-74000000D02*
X171225000Y-74500000D01*
G75*
G02*
X171000000Y-74725000I-225000J0D01*
G01*
X170550000Y-74725000D01*
G75*
G02*
X170325000Y-74500000I0J225000D01*
G01*
X170325000Y-74000000D01*
G75*
G02*
X170550000Y-73775000I225000J0D01*
G01*
X171000000Y-73775000D01*
G75*
G02*
X171225000Y-74000000I0J-225000D01*
G01*
G37*
%TD.AperFunction*%
%TD*%
%TO.P,C20,2*%
%TO.N,GND*%
%TA.AperFunction,SMDPad,CuDef*%
G36*
G01*
X170550000Y-84000000D02*
X170550000Y-83500000D01*
G75*
G02*
X170775000Y-83275000I225000J0D01*
G01*
X171225000Y-83275000D01*
G75*
G02*
X171450000Y-83500000I0J-225000D01*
G01*
X171450000Y-84000000D01*
G75*
G02*
X171225000Y-84225000I-225000J0D01*
G01*
X170775000Y-84225000D01*
G75*
G02*
X170550000Y-84000000I0J225000D01*
G01*
G37*
%TD.AperFunction*%
%TO.P,C20,1*%
%TO.N,XIN*%
%TA.AperFunction,SMDPad,CuDef*%
G36*
G01*
X169000000Y-84000000D02*
X169000000Y-83500000D01*
G75*
G02*
X169225000Y-83275000I225000J0D01*
G01*
X169675000Y-83275000D01*
G75*
G02*
X169900000Y-83500000I0J-225000D01*
G01*
X169900000Y-84000000D01*
G75*
G02*
X169675000Y-84225000I-225000J0D01*
G01*
X169225000Y-84225000D01*
G75*
G02*
X169000000Y-84000000I0J225000D01*
G01*
G37*
%TD.AperFunction*%
%TD*%
D13*
%TO.P,Y1,4*%
%TO.N,GND*%
X171050000Y-86350000D03*
%TO.P,Y1,3*%
%TO.N,XOUT*%
X171050000Y-88000000D03*
%TO.P,Y1,2*%
%TO.N,GND*%
X169500000Y-88000000D03*
%TO.P,Y1,1*%
%TO.N,XIN*%
X169500000Y-86350000D03*
%TD*%
D14*
%TO.P,Q2,3*%
%TO.N,+3V3*%
X192500000Y-63450000D03*
%TO.P,Q2,2*%
%TO.N,Net-(Q2-Pad2)*%
X194500000Y-62500000D03*
%TO.P,Q2,1*%
%TO.N,VDD*%
X194500000Y-64400000D03*
%TD*%
%TA.AperFunction,SMDPad,CuDef*%
D15*
%TO.P,JP1,2*%
%TO.N,VDD*%
G36*
X193650602Y-68150000D02*
G01*
X193650602Y-68125466D01*
X193655412Y-68076635D01*
X193664984Y-68028510D01*
X193679228Y-67981555D01*
X193698005Y-67936222D01*
X193721136Y-67892949D01*
X193748396Y-67852150D01*
X193779524Y-67814221D01*
X193814221Y-67779524D01*
X193852150Y-67748396D01*
X193892949Y-67721136D01*
X193936222Y-67698005D01*
X193981555Y-67679228D01*
X194028510Y-67664984D01*
X194076635Y-67655412D01*
X194125466Y-67650602D01*
X194150000Y-67650602D01*
X194150000Y-67650000D01*
X194650000Y-67650000D01*
X194650000Y-67650602D01*
X194674534Y-67650602D01*
X194723365Y-67655412D01*
X194771490Y-67664984D01*
X194818445Y-67679228D01*
X194863778Y-67698005D01*
X194907051Y-67721136D01*
X194947850Y-67748396D01*
X194985779Y-67779524D01*
X195020476Y-67814221D01*
X195051604Y-67852150D01*
X195078864Y-67892949D01*
X195101995Y-67936222D01*
X195120772Y-67981555D01*
X195135016Y-68028510D01*
X195144588Y-68076635D01*
X195149398Y-68125466D01*
X195149398Y-68150000D01*
X195150000Y-68150000D01*
X195150000Y-68650000D01*
X193650000Y-68650000D01*
X193650000Y-68150000D01*
X193650602Y-68150000D01*
G37*
%TD.AperFunction*%
%TA.AperFunction,SMDPad,CuDef*%
%TO.P,JP1,1*%
%TO.N,+3V3*%
G36*
X195150000Y-68950000D02*
G01*
X195150000Y-69450000D01*
X195149398Y-69450000D01*
X195149398Y-69474534D01*
X195144588Y-69523365D01*
X195135016Y-69571490D01*
X195120772Y-69618445D01*
X195101995Y-69663778D01*
X195078864Y-69707051D01*
X195051604Y-69747850D01*
X195020476Y-69785779D01*
X194985779Y-69820476D01*
X194947850Y-69851604D01*
X194907051Y-69878864D01*
X194863778Y-69901995D01*
X194818445Y-69920772D01*
X194771490Y-69935016D01*
X194723365Y-69944588D01*
X194674534Y-69949398D01*
X194650000Y-69949398D01*
X194650000Y-69950000D01*
X194150000Y-69950000D01*
X194150000Y-69949398D01*
X194125466Y-69949398D01*
X194076635Y-69944588D01*
X194028510Y-69935016D01*
X193981555Y-69920772D01*
X193936222Y-69901995D01*
X193892949Y-69878864D01*
X193852150Y-69851604D01*
X193814221Y-69820476D01*
X193779524Y-69785779D01*
X193748396Y-69747850D01*
X193721136Y-69707051D01*
X193698005Y-69663778D01*
X193679228Y-69618445D01*
X193664984Y-69571490D01*
X193655412Y-69523365D01*
X193650602Y-69474534D01*
X193650602Y-69450000D01*
X193650000Y-69450000D01*
X193650000Y-68950000D01*
X195150000Y-68950000D01*
G37*
%TD.AperFunction*%
%TD*%
%TO.P,C9,2*%
%TO.N,GND*%
%TA.AperFunction,SMDPad,CuDef*%
G36*
G01*
X180350000Y-100725000D02*
X180850000Y-100725000D01*
G75*
G02*
X181075000Y-100950000I0J-225000D01*
G01*
X181075000Y-101400000D01*
G75*
G02*
X180850000Y-101625000I-225000J0D01*
G01*
X180350000Y-101625000D01*
G75*
G02*
X180125000Y-101400000I0J225000D01*
G01*
X180125000Y-100950000D01*
G75*
G02*
X180350000Y-100725000I225000J0D01*
G01*
G37*
%TD.AperFunction*%
%TO.P,C9,1*%
%TO.N,+BATT*%
%TA.AperFunction,SMDPad,CuDef*%
G36*
G01*
X180350000Y-99175000D02*
X180850000Y-99175000D01*
G75*
G02*
X181075000Y-99400000I0J-225000D01*
G01*
X181075000Y-99850000D01*
G75*
G02*
X180850000Y-100075000I-225000J0D01*
G01*
X180350000Y-100075000D01*
G75*
G02*
X180125000Y-99850000I0J225000D01*
G01*
X180125000Y-99400000D01*
G75*
G02*
X180350000Y-99175000I225000J0D01*
G01*
G37*
%TD.AperFunction*%
%TD*%
D16*
%TO.P,J6,2*%
%TO.N,GND*%
X181750000Y-42000000D03*
%TO.P,J6,3*%
X173250000Y-42000000D03*
%TO.P,J6,1*%
%TO.N,Net-(C23-Pad1)*%
X177500000Y-42000000D03*
%TD*%
D17*
%TO.P,U7,5*%
%TO.N,Net-(Q2-Pad2)*%
X199250000Y-74400000D03*
%TO.P,U7,6*%
%TO.N,+3V3*%
X198300000Y-74400000D03*
%TO.P,U7,4*%
%TO.N,DONE*%
X200200000Y-74400000D03*
%TO.P,U7,3*%
%TO.N,Net-(R11-Pad2)*%
X200200000Y-76600000D03*
%TO.P,U7,2*%
%TO.N,GND*%
X199250000Y-76600000D03*
%TO.P,U7,1*%
%TO.N,+3V3*%
X198300000Y-76600000D03*
%TD*%
D18*
%TO.P,U6,28*%
%TO.N,N/C*%
X153750000Y-60500000D03*
%TO.P,U6,27*%
X153750000Y-59250000D03*
%TO.P,U6,26*%
X153750000Y-58000000D03*
%TO.P,U6,22*%
%TO.N,GND*%
X153750000Y-53000000D03*
%TO.P,U6,23*%
%TO.N,N/C*%
X153750000Y-54250000D03*
%TO.P,U6,24*%
%TO.N,Net-(SW3-Pad1)*%
X153750000Y-55500000D03*
%TO.P,U6,25*%
%TO.N,N/C*%
X153750000Y-56750000D03*
D19*
%TO.P,U6,21*%
X156000000Y-50750000D03*
%TO.P,U6,20*%
X157250000Y-50750000D03*
%TO.P,U6,19*%
X158500000Y-50750000D03*
%TO.P,U6,15*%
%TO.N,Net-(C22-Pad1)*%
X163500000Y-50750000D03*
%TO.P,U6,16*%
%TO.N,GND*%
X162250000Y-50750000D03*
%TO.P,U6,17*%
%TO.N,RESET*%
X161000000Y-50750000D03*
%TO.P,U6,18*%
%TO.N,N/C*%
X159750000Y-50750000D03*
D18*
%TO.P,U6,14*%
X165750000Y-53000000D03*
%TO.P,U6,13*%
X165750000Y-54250000D03*
%TO.P,U6,12*%
X165750000Y-55500000D03*
%TO.P,U6,8*%
X165750000Y-60500000D03*
%TO.P,U6,9*%
%TO.N,Net-(R10-Pad1)*%
X165750000Y-59250000D03*
%TO.P,U6,10*%
%TO.N,Net-(R12-Pad1)*%
X165750000Y-58000000D03*
%TO.P,U6,11*%
%TO.N,N/C*%
X165750000Y-56750000D03*
D19*
%TO.P,U6,7*%
X163500000Y-62750000D03*
%TO.P,U6,6*%
X162250000Y-62750000D03*
%TO.P,U6,5*%
X161000000Y-62750000D03*
%TO.P,U6,1*%
%TO.N,VDD*%
X156000000Y-62750000D03*
%TO.P,U6,2*%
%TO.N,GND*%
X157250000Y-62750000D03*
%TO.P,U6,3*%
%TO.N,N/C*%
X158500000Y-62750000D03*
%TO.P,U6,4*%
X159750000Y-62750000D03*
%TD*%
D17*
%TO.P,U5,5*%
%TO.N,+3V3*%
X198400000Y-91300000D03*
%TO.P,U5,4*%
%TO.N,N/C*%
X200300000Y-91300000D03*
%TO.P,U5,3*%
%TO.N,Net-(R7-Pad1)*%
X200300000Y-93500000D03*
%TO.P,U5,2*%
%TO.N,GND*%
X199350000Y-93500000D03*
%TO.P,U5,1*%
%TO.N,Net-(C13-Pad1)*%
X198400000Y-93500000D03*
%TD*%
%TO.P,U2,5*%
%TO.N,Net-(R2-Pad2)*%
X174050000Y-94900000D03*
%TO.P,U2,4*%
%TO.N,VDC*%
X175950000Y-94900000D03*
%TO.P,U2,3*%
%TO.N,Net-(R1-Pad2)*%
X175950000Y-97100000D03*
%TO.P,U2,2*%
%TO.N,GND*%
X175000000Y-97100000D03*
%TO.P,U2,1*%
%TO.N,Net-(R3-Pad2)*%
X174050000Y-97100000D03*
%TD*%
D20*
%TO.P,LORA,2*%
%TO.N,Net-(R14-Pad2)*%
X152425000Y-40950000D03*
%TO.P,LORA,1*%
%TO.N,Net-(SW3-Pad1)*%
X152425000Y-45450000D03*
X160375000Y-45450000D03*
%TO.P,LORA,2*%
%TO.N,Net-(R14-Pad2)*%
X160375000Y-40950000D03*
%TD*%
D21*
%TO.P,NANO TMR,2*%
%TO.N,+3V3*%
X198750000Y-70975000D03*
%TO.P,NANO TMR,1*%
%TO.N,Net-(R11-Pad2)*%
X203250000Y-70975000D03*
X203250000Y-63025000D03*
%TO.P,NANO TMR,2*%
%TO.N,+3V3*%
X198750000Y-63025000D03*
%TD*%
%TO.P,RESET,2*%
%TO.N,GND*%
X198750000Y-50375000D03*
%TO.P,RESET,1*%
%TO.N,RESET*%
X203250000Y-50375000D03*
X203250000Y-42425000D03*
%TO.P,RESET,2*%
%TO.N,GND*%
X198750000Y-42425000D03*
%TD*%
%TO.P,R14,2*%
%TO.N,Net-(R14-Pad2)*%
%TA.AperFunction,SMDPad,CuDef*%
G36*
G01*
X164475000Y-42975000D02*
X163925000Y-42975000D01*
G75*
G02*
X163725000Y-42775000I0J200000D01*
G01*
X163725000Y-42375000D01*
G75*
G02*
X163925000Y-42175000I200000J0D01*
G01*
X164475000Y-42175000D01*
G75*
G02*
X164675000Y-42375000I0J-200000D01*
G01*
X164675000Y-42775000D01*
G75*
G02*
X164475000Y-42975000I-200000J0D01*
G01*
G37*
%TD.AperFunction*%
%TO.P,R14,1*%
%TO.N,GND*%
%TA.AperFunction,SMDPad,CuDef*%
G36*
G01*
X164475000Y-44625000D02*
X163925000Y-44625000D01*
G75*
G02*
X163725000Y-44425000I0J200000D01*
G01*
X163725000Y-44025000D01*
G75*
G02*
X163925000Y-43825000I200000J0D01*
G01*
X164475000Y-43825000D01*
G75*
G02*
X164675000Y-44025000I0J-200000D01*
G01*
X164675000Y-44425000D01*
G75*
G02*
X164475000Y-44625000I-200000J0D01*
G01*
G37*
%TD.AperFunction*%
%TD*%
%TO.P,R13,2*%
%TO.N,Net-(R11-Pad2)*%
%TA.AperFunction,SMDPad,CuDef*%
G36*
G01*
X193600000Y-80775000D02*
X193600000Y-80225000D01*
G75*
G02*
X193800000Y-80025000I200000J0D01*
G01*
X194200000Y-80025000D01*
G75*
G02*
X194400000Y-80225000I0J-200000D01*
G01*
X194400000Y-80775000D01*
G75*
G02*
X194200000Y-80975000I-200000J0D01*
G01*
X193800000Y-80975000D01*
G75*
G02*
X193600000Y-80775000I0J200000D01*
G01*
G37*
%TD.AperFunction*%
%TO.P,R13,1*%
%TO.N,GND*%
%TA.AperFunction,SMDPad,CuDef*%
G36*
G01*
X191950000Y-80775000D02*
X191950000Y-80225000D01*
G75*
G02*
X192150000Y-80025000I200000J0D01*
G01*
X192550000Y-80025000D01*
G75*
G02*
X192750000Y-80225000I0J-200000D01*
G01*
X192750000Y-80775000D01*
G75*
G02*
X192550000Y-80975000I-200000J0D01*
G01*
X192150000Y-80975000D01*
G75*
G02*
X191950000Y-80775000I0J200000D01*
G01*
G37*
%TD.AperFunction*%
%TD*%
%TO.P,R12,2*%
%TO.N,LORA_RX*%
%TA.AperFunction,SMDPad,CuDef*%
G36*
G01*
X171975000Y-60925000D02*
X172525000Y-60925000D01*
G75*
G02*
X172725000Y-61125000I0J-200000D01*
G01*
X172725000Y-61525000D01*
G75*
G02*
X172525000Y-61725000I-200000J0D01*
G01*
X171975000Y-61725000D01*
G75*
G02*
X171775000Y-61525000I0J200000D01*
G01*
X171775000Y-61125000D01*
G75*
G02*
X171975000Y-60925000I200000J0D01*
G01*
G37*
%TD.AperFunction*%
%TO.P,R12,1*%
%TO.N,Net-(R12-Pad1)*%
%TA.AperFunction,SMDPad,CuDef*%
G36*
G01*
X171975000Y-59275000D02*
X172525000Y-59275000D01*
G75*
G02*
X172725000Y-59475000I0J-200000D01*
G01*
X172725000Y-59875000D01*
G75*
G02*
X172525000Y-60075000I-200000J0D01*
G01*
X171975000Y-60075000D01*
G75*
G02*
X171775000Y-59875000I0J200000D01*
G01*
X171775000Y-59475000D01*
G75*
G02*
X171975000Y-59275000I200000J0D01*
G01*
G37*
%TD.AperFunction*%
%TD*%
%TO.P,R11,2*%
%TO.N,Net-(R11-Pad2)*%
%TA.AperFunction,SMDPad,CuDef*%
G36*
G01*
X193600000Y-76275000D02*
X193600000Y-75725000D01*
G75*
G02*
X193800000Y-75525000I200000J0D01*
G01*
X194200000Y-75525000D01*
G75*
G02*
X194400000Y-75725000I0J-200000D01*
G01*
X194400000Y-76275000D01*
G75*
G02*
X194200000Y-76475000I-200000J0D01*
G01*
X193800000Y-76475000D01*
G75*
G02*
X193600000Y-76275000I0J200000D01*
G01*
G37*
%TD.AperFunction*%
%TO.P,R11,1*%
%TO.N,GND*%
%TA.AperFunction,SMDPad,CuDef*%
G36*
G01*
X191950000Y-76275000D02*
X191950000Y-75725000D01*
G75*
G02*
X192150000Y-75525000I200000J0D01*
G01*
X192550000Y-75525000D01*
G75*
G02*
X192750000Y-75725000I0J-200000D01*
G01*
X192750000Y-76275000D01*
G75*
G02*
X192550000Y-76475000I-200000J0D01*
G01*
X192150000Y-76475000D01*
G75*
G02*
X191950000Y-76275000I0J200000D01*
G01*
G37*
%TD.AperFunction*%
%TD*%
%TO.P,R10,2*%
%TO.N,LORA_TX*%
%TA.AperFunction,SMDPad,CuDef*%
G36*
G01*
X168975000Y-60925000D02*
X169525000Y-60925000D01*
G75*
G02*
X169725000Y-61125000I0J-200000D01*
G01*
X169725000Y-61525000D01*
G75*
G02*
X169525000Y-61725000I-200000J0D01*
G01*
X168975000Y-61725000D01*
G75*
G02*
X168775000Y-61525000I0J200000D01*
G01*
X168775000Y-61125000D01*
G75*
G02*
X168975000Y-60925000I200000J0D01*
G01*
G37*
%TD.AperFunction*%
%TO.P,R10,1*%
%TO.N,Net-(R10-Pad1)*%
%TA.AperFunction,SMDPad,CuDef*%
G36*
G01*
X168975000Y-59275000D02*
X169525000Y-59275000D01*
G75*
G02*
X169725000Y-59475000I0J-200000D01*
G01*
X169725000Y-59875000D01*
G75*
G02*
X169525000Y-60075000I-200000J0D01*
G01*
X168975000Y-60075000D01*
G75*
G02*
X168775000Y-59875000I0J200000D01*
G01*
X168775000Y-59475000D01*
G75*
G02*
X168975000Y-59275000I200000J0D01*
G01*
G37*
%TD.AperFunction*%
%TD*%
%TO.P,R9,2*%
%TO.N,SCL*%
%TA.AperFunction,SMDPad,CuDef*%
G36*
G01*
X157525000Y-78775000D02*
X157525000Y-78225000D01*
G75*
G02*
X157725000Y-78025000I200000J0D01*
G01*
X158125000Y-78025000D01*
G75*
G02*
X158325000Y-78225000I0J-200000D01*
G01*
X158325000Y-78775000D01*
G75*
G02*
X158125000Y-78975000I-200000J0D01*
G01*
X157725000Y-78975000D01*
G75*
G02*
X157525000Y-78775000I0J200000D01*
G01*
G37*
%TD.AperFunction*%
%TO.P,R9,1*%
%TO.N,VDD*%
%TA.AperFunction,SMDPad,CuDef*%
G36*
G01*
X155875000Y-78775000D02*
X155875000Y-78225000D01*
G75*
G02*
X156075000Y-78025000I200000J0D01*
G01*
X156475000Y-78025000D01*
G75*
G02*
X156675000Y-78225000I0J-200000D01*
G01*
X156675000Y-78775000D01*
G75*
G02*
X156475000Y-78975000I-200000J0D01*
G01*
X156075000Y-78975000D01*
G75*
G02*
X155875000Y-78775000I0J200000D01*
G01*
G37*
%TD.AperFunction*%
%TD*%
%TO.P,R8,2*%
%TO.N,SDA*%
%TA.AperFunction,SMDPad,CuDef*%
G36*
G01*
X157525000Y-76675000D02*
X157525000Y-76125000D01*
G75*
G02*
X157725000Y-75925000I200000J0D01*
G01*
X158125000Y-75925000D01*
G75*
G02*
X158325000Y-76125000I0J-200000D01*
G01*
X158325000Y-76675000D01*
G75*
G02*
X158125000Y-76875000I-200000J0D01*
G01*
X157725000Y-76875000D01*
G75*
G02*
X157525000Y-76675000I0J200000D01*
G01*
G37*
%TD.AperFunction*%
%TO.P,R8,1*%
%TO.N,VDD*%
%TA.AperFunction,SMDPad,CuDef*%
G36*
G01*
X155875000Y-76675000D02*
X155875000Y-76125000D01*
G75*
G02*
X156075000Y-75925000I200000J0D01*
G01*
X156475000Y-75925000D01*
G75*
G02*
X156675000Y-76125000I0J-200000D01*
G01*
X156675000Y-76675000D01*
G75*
G02*
X156475000Y-76875000I-200000J0D01*
G01*
X156075000Y-76875000D01*
G75*
G02*
X155875000Y-76675000I0J200000D01*
G01*
G37*
%TD.AperFunction*%
%TD*%
%TO.P,R7,2*%
%TO.N,Net-(C13-Pad1)*%
%TA.AperFunction,SMDPad,CuDef*%
G36*
G01*
X198750000Y-98225000D02*
X198750000Y-98775000D01*
G75*
G02*
X198550000Y-98975000I-200000J0D01*
G01*
X198150000Y-98975000D01*
G75*
G02*
X197950000Y-98775000I0J200000D01*
G01*
X197950000Y-98225000D01*
G75*
G02*
X198150000Y-98025000I200000J0D01*
G01*
X198550000Y-98025000D01*
G75*
G02*
X198750000Y-98225000I0J-200000D01*
G01*
G37*
%TD.AperFunction*%
%TO.P,R7,1*%
%TO.N,Net-(R7-Pad1)*%
%TA.AperFunction,SMDPad,CuDef*%
G36*
G01*
X200400000Y-98225000D02*
X200400000Y-98775000D01*
G75*
G02*
X200200000Y-98975000I-200000J0D01*
G01*
X199800000Y-98975000D01*
G75*
G02*
X199600000Y-98775000I0J200000D01*
G01*
X199600000Y-98225000D01*
G75*
G02*
X199800000Y-98025000I200000J0D01*
G01*
X200200000Y-98025000D01*
G75*
G02*
X200400000Y-98225000I0J-200000D01*
G01*
G37*
%TD.AperFunction*%
%TD*%
%TO.P,R6,2*%
%TO.N,GND*%
%TA.AperFunction,SMDPad,CuDef*%
G36*
G01*
X194100000Y-92275000D02*
X194100000Y-91725000D01*
G75*
G02*
X194300000Y-91525000I200000J0D01*
G01*
X194700000Y-91525000D01*
G75*
G02*
X194900000Y-91725000I0J-200000D01*
G01*
X194900000Y-92275000D01*
G75*
G02*
X194700000Y-92475000I-200000J0D01*
G01*
X194300000Y-92475000D01*
G75*
G02*
X194100000Y-92275000I0J200000D01*
G01*
G37*
%TD.AperFunction*%
%TO.P,R6,1*%
%TO.N,VDC*%
%TA.AperFunction,SMDPad,CuDef*%
G36*
G01*
X192450000Y-92275000D02*
X192450000Y-91725000D01*
G75*
G02*
X192650000Y-91525000I200000J0D01*
G01*
X193050000Y-91525000D01*
G75*
G02*
X193250000Y-91725000I0J-200000D01*
G01*
X193250000Y-92275000D01*
G75*
G02*
X193050000Y-92475000I-200000J0D01*
G01*
X192650000Y-92475000D01*
G75*
G02*
X192450000Y-92275000I0J200000D01*
G01*
G37*
%TD.AperFunction*%
%TD*%
%TO.P,R5,2*%
%TO.N,RESET*%
%TA.AperFunction,SMDPad,CuDef*%
G36*
G01*
X195275000Y-53375000D02*
X194725000Y-53375000D01*
G75*
G02*
X194525000Y-53175000I0J200000D01*
G01*
X194525000Y-52775000D01*
G75*
G02*
X194725000Y-52575000I200000J0D01*
G01*
X195275000Y-52575000D01*
G75*
G02*
X195475000Y-52775000I0J-200000D01*
G01*
X195475000Y-53175000D01*
G75*
G02*
X195275000Y-53375000I-200000J0D01*
G01*
G37*
%TD.AperFunction*%
%TO.P,R5,1*%
%TO.N,VDD*%
%TA.AperFunction,SMDPad,CuDef*%
G36*
G01*
X195275000Y-55025000D02*
X194725000Y-55025000D01*
G75*
G02*
X194525000Y-54825000I0J200000D01*
G01*
X194525000Y-54425000D01*
G75*
G02*
X194725000Y-54225000I200000J0D01*
G01*
X195275000Y-54225000D01*
G75*
G02*
X195475000Y-54425000I0J-200000D01*
G01*
X195475000Y-54825000D01*
G75*
G02*
X195275000Y-55025000I-200000J0D01*
G01*
G37*
%TD.AperFunction*%
%TD*%
%TO.P,R4,2*%
%TO.N,VDD*%
%TA.AperFunction,SMDPad,CuDef*%
G36*
G01*
X188125000Y-67025000D02*
X188675000Y-67025000D01*
G75*
G02*
X188875000Y-67225000I0J-200000D01*
G01*
X188875000Y-67625000D01*
G75*
G02*
X188675000Y-67825000I-200000J0D01*
G01*
X188125000Y-67825000D01*
G75*
G02*
X187925000Y-67625000I0J200000D01*
G01*
X187925000Y-67225000D01*
G75*
G02*
X188125000Y-67025000I200000J0D01*
G01*
G37*
%TD.AperFunction*%
%TO.P,R4,1*%
%TO.N,QSPI_CSN*%
%TA.AperFunction,SMDPad,CuDef*%
G36*
G01*
X188125000Y-65375000D02*
X188675000Y-65375000D01*
G75*
G02*
X188875000Y-65575000I0J-200000D01*
G01*
X188875000Y-65975000D01*
G75*
G02*
X188675000Y-66175000I-200000J0D01*
G01*
X188125000Y-66175000D01*
G75*
G02*
X187925000Y-65975000I0J200000D01*
G01*
X187925000Y-65575000D01*
G75*
G02*
X188125000Y-65375000I200000J0D01*
G01*
G37*
%TD.AperFunction*%
%TD*%
%TO.P,R3,2*%
%TO.N,Net-(R3-Pad2)*%
%TA.AperFunction,SMDPad,CuDef*%
G36*
G01*
X174275000Y-101400000D02*
X173725000Y-101400000D01*
G75*
G02*
X173525000Y-101200000I0J200000D01*
G01*
X173525000Y-100800000D01*
G75*
G02*
X173725000Y-100600000I200000J0D01*
G01*
X174275000Y-100600000D01*
G75*
G02*
X174475000Y-100800000I0J-200000D01*
G01*
X174475000Y-101200000D01*
G75*
G02*
X174275000Y-101400000I-200000J0D01*
G01*
G37*
%TD.AperFunction*%
%TO.P,R3,1*%
%TO.N,Net-(D2-Pad1)*%
%TA.AperFunction,SMDPad,CuDef*%
G36*
G01*
X174275000Y-103050000D02*
X173725000Y-103050000D01*
G75*
G02*
X173525000Y-102850000I0J200000D01*
G01*
X173525000Y-102450000D01*
G75*
G02*
X173725000Y-102250000I200000J0D01*
G01*
X174275000Y-102250000D01*
G75*
G02*
X174475000Y-102450000I0J-200000D01*
G01*
X174475000Y-102850000D01*
G75*
G02*
X174275000Y-103050000I-200000J0D01*
G01*
G37*
%TD.AperFunction*%
%TD*%
%TO.P,R2,2*%
%TO.N,Net-(R2-Pad2)*%
%TA.AperFunction,SMDPad,CuDef*%
G36*
G01*
X169775000Y-95900000D02*
X169225000Y-95900000D01*
G75*
G02*
X169025000Y-95700000I0J200000D01*
G01*
X169025000Y-95300000D01*
G75*
G02*
X169225000Y-95100000I200000J0D01*
G01*
X169775000Y-95100000D01*
G75*
G02*
X169975000Y-95300000I0J-200000D01*
G01*
X169975000Y-95700000D01*
G75*
G02*
X169775000Y-95900000I-200000J0D01*
G01*
G37*
%TD.AperFunction*%
%TO.P,R2,1*%
%TO.N,GND*%
%TA.AperFunction,SMDPad,CuDef*%
G36*
G01*
X169775000Y-97550000D02*
X169225000Y-97550000D01*
G75*
G02*
X169025000Y-97350000I0J200000D01*
G01*
X169025000Y-96950000D01*
G75*
G02*
X169225000Y-96750000I200000J0D01*
G01*
X169775000Y-96750000D01*
G75*
G02*
X169975000Y-96950000I0J-200000D01*
G01*
X169975000Y-97350000D01*
G75*
G02*
X169775000Y-97550000I-200000J0D01*
G01*
G37*
%TD.AperFunction*%
%TD*%
D14*
%TO.P,Q1,3*%
%TO.N,Net-(C13-Pad1)*%
X185000000Y-93950000D03*
%TO.P,Q1,2*%
%TO.N,VDC*%
X183000000Y-94900000D03*
%TO.P,Q1,1*%
%TO.N,+BATT*%
X183000000Y-93000000D03*
%TD*%
%TO.P,L1,2*%
%TO.N,Net-(C23-Pad1)*%
%TA.AperFunction,SMDPad,CuDef*%
G36*
G01*
X172962500Y-51256250D02*
X172962500Y-50743750D01*
G75*
G02*
X173181250Y-50525000I218750J0D01*
G01*
X173618750Y-50525000D01*
G75*
G02*
X173837500Y-50743750I0J-218750D01*
G01*
X173837500Y-51256250D01*
G75*
G02*
X173618750Y-51475000I-218750J0D01*
G01*
X173181250Y-51475000D01*
G75*
G02*
X172962500Y-51256250I0J218750D01*
G01*
G37*
%TD.AperFunction*%
%TO.P,L1,1*%
%TO.N,Net-(C22-Pad1)*%
%TA.AperFunction,SMDPad,CuDef*%
G36*
G01*
X171387500Y-51256250D02*
X171387500Y-50743750D01*
G75*
G02*
X171606250Y-50525000I218750J0D01*
G01*
X172043750Y-50525000D01*
G75*
G02*
X172262500Y-50743750I0J-218750D01*
G01*
X172262500Y-51256250D01*
G75*
G02*
X172043750Y-51475000I-218750J0D01*
G01*
X171606250Y-51475000D01*
G75*
G02*
X171387500Y-51256250I0J218750D01*
G01*
G37*
%TD.AperFunction*%
%TD*%
D22*
%TO.P,J5,10*%
%TO.N,RESET*%
X190540000Y-84550000D03*
%TO.P,J5,9*%
%TO.N,GND*%
X190540000Y-88450000D03*
%TO.P,J5,8*%
%TO.N,N/C*%
X189270000Y-84550000D03*
%TO.P,J5,7*%
%TO.N,GND*%
X189270000Y-88450000D03*
%TO.P,J5,6*%
%TO.N,N/C*%
X188000000Y-84550000D03*
%TO.P,J5,5*%
%TO.N,GND*%
X188000000Y-88450000D03*
%TO.P,J5,4*%
%TO.N,SWD_CLK*%
X186730000Y-84550000D03*
%TO.P,J5,3*%
%TO.N,GND*%
X186730000Y-88450000D03*
%TO.P,J5,2*%
%TO.N,SWD_DIO*%
X185460000Y-84550000D03*
%TO.P,J5,1*%
%TO.N,+3V3*%
X185460000Y-88450000D03*
%TD*%
D23*
%TO.P,I2C,4*%
%TO.N,SDA_SOIL*%
X190190000Y-102500000D03*
%TO.P,I2C,3*%
%TO.N,SCL_SOIL*%
X191460000Y-102500000D03*
%TO.P,I2C,2*%
%TO.N,GND*%
X192730000Y-102500000D03*
D24*
%TO.P,I2C,1*%
%TO.N,VDD*%
X194000000Y-102500000D03*
%TD*%
D23*
%TO.P,J3,2*%
%TO.N,GND*%
X184000000Y-101270000D03*
D24*
%TO.P,J3,1*%
%TO.N,+BATT*%
X184000000Y-100000000D03*
%TD*%
D23*
%TO.P,ANALOG,3*%
%TO.N,GND*%
X201790000Y-102500000D03*
%TO.P,ANALOG,2*%
%TO.N,SOIL_SIG*%
X200520000Y-102500000D03*
D24*
%TO.P,ANALOG,1*%
%TO.N,VDD*%
X199250000Y-102500000D03*
%TD*%
D25*
%TO.P,J1,3*%
%TO.N,GND*%
X158000000Y-103000000D03*
%TO.P,J1,2*%
X158000000Y-99000000D03*
%TO.P,J1,1*%
%TO.N,Net-(D1-Pad2)*%
X158000000Y-95500000D03*
D26*
%TO.P,J1,*%
%TO.N,*%
X153000000Y-99000000D03*
%TD*%
D27*
%TO.P,D3,2*%
%TO.N,VDC*%
X190000000Y-91950000D03*
%TO.P,D3,1*%
%TO.N,Net-(C13-Pad1)*%
X190000000Y-94050000D03*
%TD*%
%TO.P,D2,2*%
%TO.N,VDC*%
%TA.AperFunction,SMDPad,CuDef*%
G36*
G01*
X169756250Y-101437500D02*
X169243750Y-101437500D01*
G75*
G02*
X169025000Y-101218750I0J218750D01*
G01*
X169025000Y-100781250D01*
G75*
G02*
X169243750Y-100562500I218750J0D01*
G01*
X169756250Y-100562500D01*
G75*
G02*
X169975000Y-100781250I0J-218750D01*
G01*
X169975000Y-101218750D01*
G75*
G02*
X169756250Y-101437500I-218750J0D01*
G01*
G37*
%TD.AperFunction*%
%TO.P,D2,1*%
%TO.N,Net-(D2-Pad1)*%
%TA.AperFunction,SMDPad,CuDef*%
G36*
G01*
X169756250Y-103012500D02*
X169243750Y-103012500D01*
G75*
G02*
X169025000Y-102793750I0J218750D01*
G01*
X169025000Y-102356250D01*
G75*
G02*
X169243750Y-102137500I218750J0D01*
G01*
X169756250Y-102137500D01*
G75*
G02*
X169975000Y-102356250I0J-218750D01*
G01*
X169975000Y-102793750D01*
G75*
G02*
X169756250Y-103012500I-218750J0D01*
G01*
G37*
%TD.AperFunction*%
%TD*%
D28*
%TO.P,D1,2*%
%TO.N,Net-(D1-Pad2)*%
X162950000Y-95500000D03*
%TO.P,D1,1*%
%TO.N,VDC*%
X165050000Y-95500000D03*
%TD*%
%TO.P,C23,2*%
%TO.N,GND*%
%TA.AperFunction,SMDPad,CuDef*%
G36*
G01*
X175750000Y-52075000D02*
X176250000Y-52075000D01*
G75*
G02*
X176475000Y-52300000I0J-225000D01*
G01*
X176475000Y-52750000D01*
G75*
G02*
X176250000Y-52975000I-225000J0D01*
G01*
X175750000Y-52975000D01*
G75*
G02*
X175525000Y-52750000I0J225000D01*
G01*
X175525000Y-52300000D01*
G75*
G02*
X175750000Y-52075000I225000J0D01*
G01*
G37*
%TD.AperFunction*%
%TO.P,C23,1*%
%TO.N,Net-(C23-Pad1)*%
%TA.AperFunction,SMDPad,CuDef*%
G36*
G01*
X175750000Y-50525000D02*
X176250000Y-50525000D01*
G75*
G02*
X176475000Y-50750000I0J-225000D01*
G01*
X176475000Y-51200000D01*
G75*
G02*
X176250000Y-51425000I-225000J0D01*
G01*
X175750000Y-51425000D01*
G75*
G02*
X175525000Y-51200000I0J225000D01*
G01*
X175525000Y-50750000D01*
G75*
G02*
X175750000Y-50525000I225000J0D01*
G01*
G37*
%TD.AperFunction*%
%TD*%
%TO.P,C22,2*%
%TO.N,GND*%
%TA.AperFunction,SMDPad,CuDef*%
G36*
G01*
X169000000Y-52100000D02*
X169500000Y-52100000D01*
G75*
G02*
X169725000Y-52325000I0J-225000D01*
G01*
X169725000Y-52775000D01*
G75*
G02*
X169500000Y-53000000I-225000J0D01*
G01*
X169000000Y-53000000D01*
G75*
G02*
X168775000Y-52775000I0J225000D01*
G01*
X168775000Y-52325000D01*
G75*
G02*
X169000000Y-52100000I225000J0D01*
G01*
G37*
%TD.AperFunction*%
%TO.P,C22,1*%
%TO.N,Net-(C22-Pad1)*%
%TA.AperFunction,SMDPad,CuDef*%
G36*
G01*
X169000000Y-50550000D02*
X169500000Y-50550000D01*
G75*
G02*
X169725000Y-50775000I0J-225000D01*
G01*
X169725000Y-51225000D01*
G75*
G02*
X169500000Y-51450000I-225000J0D01*
G01*
X169000000Y-51450000D01*
G75*
G02*
X168775000Y-51225000I0J225000D01*
G01*
X168775000Y-50775000D01*
G75*
G02*
X169000000Y-50550000I225000J0D01*
G01*
G37*
%TD.AperFunction*%
%TD*%
%TO.P,C21,2*%
%TO.N,XOUT*%
%TA.AperFunction,SMDPad,CuDef*%
G36*
G01*
X170575000Y-90750000D02*
X170575000Y-90250000D01*
G75*
G02*
X170800000Y-90025000I225000J0D01*
G01*
X171250000Y-90025000D01*
G75*
G02*
X171475000Y-90250000I0J-225000D01*
G01*
X171475000Y-90750000D01*
G75*
G02*
X171250000Y-90975000I-225000J0D01*
G01*
X170800000Y-90975000D01*
G75*
G02*
X170575000Y-90750000I0J225000D01*
G01*
G37*
%TD.AperFunction*%
%TO.P,C21,1*%
%TO.N,GND*%
%TA.AperFunction,SMDPad,CuDef*%
G36*
G01*
X169025000Y-90750000D02*
X169025000Y-90250000D01*
G75*
G02*
X169250000Y-90025000I225000J0D01*
G01*
X169700000Y-90025000D01*
G75*
G02*
X169925000Y-90250000I0J-225000D01*
G01*
X169925000Y-90750000D01*
G75*
G02*
X169700000Y-90975000I-225000J0D01*
G01*
X169250000Y-90975000D01*
G75*
G02*
X169025000Y-90750000I0J225000D01*
G01*
G37*
%TD.AperFunction*%
%TD*%
%TO.P,C19,2*%
%TO.N,GND*%
%TA.AperFunction,SMDPad,CuDef*%
G36*
G01*
X156925000Y-66650000D02*
X156925000Y-66150000D01*
G75*
G02*
X157150000Y-65925000I225000J0D01*
G01*
X157600000Y-65925000D01*
G75*
G02*
X157825000Y-66150000I0J-225000D01*
G01*
X157825000Y-66650000D01*
G75*
G02*
X157600000Y-66875000I-225000J0D01*
G01*
X157150000Y-66875000D01*
G75*
G02*
X156925000Y-66650000I0J225000D01*
G01*
G37*
%TD.AperFunction*%
%TO.P,C19,1*%
%TO.N,VDD*%
%TA.AperFunction,SMDPad,CuDef*%
G36*
G01*
X155375000Y-66650000D02*
X155375000Y-66150000D01*
G75*
G02*
X155600000Y-65925000I225000J0D01*
G01*
X156050000Y-65925000D01*
G75*
G02*
X156275000Y-66150000I0J-225000D01*
G01*
X156275000Y-66650000D01*
G75*
G02*
X156050000Y-66875000I-225000J0D01*
G01*
X155600000Y-66875000D01*
G75*
G02*
X155375000Y-66650000I0J225000D01*
G01*
G37*
%TD.AperFunction*%
%TD*%
%TO.P,C18,2*%
%TO.N,GND*%
%TA.AperFunction,SMDPad,CuDef*%
G36*
G01*
X199550000Y-87750000D02*
X199550000Y-87250000D01*
G75*
G02*
X199775000Y-87025000I225000J0D01*
G01*
X200225000Y-87025000D01*
G75*
G02*
X200450000Y-87250000I0J-225000D01*
G01*
X200450000Y-87750000D01*
G75*
G02*
X200225000Y-87975000I-225000J0D01*
G01*
X199775000Y-87975000D01*
G75*
G02*
X199550000Y-87750000I0J225000D01*
G01*
G37*
%TD.AperFunction*%
%TO.P,C18,1*%
%TO.N,+3V3*%
%TA.AperFunction,SMDPad,CuDef*%
G36*
G01*
X198000000Y-87750000D02*
X198000000Y-87250000D01*
G75*
G02*
X198225000Y-87025000I225000J0D01*
G01*
X198675000Y-87025000D01*
G75*
G02*
X198900000Y-87250000I0J-225000D01*
G01*
X198900000Y-87750000D01*
G75*
G02*
X198675000Y-87975000I-225000J0D01*
G01*
X198225000Y-87975000D01*
G75*
G02*
X198000000Y-87750000I0J225000D01*
G01*
G37*
%TD.AperFunction*%
%TD*%
%TO.P,C17,2*%
%TO.N,GND*%
%TA.AperFunction,SMDPad,CuDef*%
G36*
G01*
X199550000Y-83250000D02*
X199550000Y-82750000D01*
G75*
G02*
X199775000Y-82525000I225000J0D01*
G01*
X200225000Y-82525000D01*
G75*
G02*
X200450000Y-82750000I0J-225000D01*
G01*
X200450000Y-83250000D01*
G75*
G02*
X200225000Y-83475000I-225000J0D01*
G01*
X199775000Y-83475000D01*
G75*
G02*
X199550000Y-83250000I0J225000D01*
G01*
G37*
%TD.AperFunction*%
%TO.P,C17,1*%
%TO.N,+3V3*%
%TA.AperFunction,SMDPad,CuDef*%
G36*
G01*
X198000000Y-83250000D02*
X198000000Y-82750000D01*
G75*
G02*
X198225000Y-82525000I225000J0D01*
G01*
X198675000Y-82525000D01*
G75*
G02*
X198900000Y-82750000I0J-225000D01*
G01*
X198900000Y-83250000D01*
G75*
G02*
X198675000Y-83475000I-225000J0D01*
G01*
X198225000Y-83475000D01*
G75*
G02*
X198000000Y-83250000I0J225000D01*
G01*
G37*
%TD.AperFunction*%
%TD*%
%TO.P,C16,2*%
%TO.N,GND*%
%TA.AperFunction,SMDPad,CuDef*%
G36*
G01*
X157950000Y-86225000D02*
X158450000Y-86225000D01*
G75*
G02*
X158675000Y-86450000I0J-225000D01*
G01*
X158675000Y-86900000D01*
G75*
G02*
X158450000Y-87125000I-225000J0D01*
G01*
X157950000Y-87125000D01*
G75*
G02*
X157725000Y-86900000I0J225000D01*
G01*
X157725000Y-86450000D01*
G75*
G02*
X157950000Y-86225000I225000J0D01*
G01*
G37*
%TD.AperFunction*%
%TO.P,C16,1*%
%TO.N,VDD*%
%TA.AperFunction,SMDPad,CuDef*%
G36*
G01*
X157950000Y-84675000D02*
X158450000Y-84675000D01*
G75*
G02*
X158675000Y-84900000I0J-225000D01*
G01*
X158675000Y-85350000D01*
G75*
G02*
X158450000Y-85575000I-225000J0D01*
G01*
X157950000Y-85575000D01*
G75*
G02*
X157725000Y-85350000I0J225000D01*
G01*
X157725000Y-84900000D01*
G75*
G02*
X157950000Y-84675000I225000J0D01*
G01*
G37*
%TD.AperFunction*%
%TD*%
%TO.P,C15,2*%
%TO.N,GND*%
%TA.AperFunction,SMDPad,CuDef*%
G36*
G01*
X184525000Y-54250000D02*
X184525000Y-53750000D01*
G75*
G02*
X184750000Y-53525000I225000J0D01*
G01*
X185200000Y-53525000D01*
G75*
G02*
X185425000Y-53750000I0J-225000D01*
G01*
X185425000Y-54250000D01*
G75*
G02*
X185200000Y-54475000I-225000J0D01*
G01*
X184750000Y-54475000D01*
G75*
G02*
X184525000Y-54250000I0J225000D01*
G01*
G37*
%TD.AperFunction*%
%TO.P,C15,1*%
%TO.N,VDD*%
%TA.AperFunction,SMDPad,CuDef*%
G36*
G01*
X182975000Y-54250000D02*
X182975000Y-53750000D01*
G75*
G02*
X183200000Y-53525000I225000J0D01*
G01*
X183650000Y-53525000D01*
G75*
G02*
X183875000Y-53750000I0J-225000D01*
G01*
X183875000Y-54250000D01*
G75*
G02*
X183650000Y-54475000I-225000J0D01*
G01*
X183200000Y-54475000D01*
G75*
G02*
X182975000Y-54250000I0J225000D01*
G01*
G37*
%TD.AperFunction*%
%TD*%
%TO.P,C14,2*%
%TO.N,GND*%
%TA.AperFunction,SMDPad,CuDef*%
G36*
G01*
X155550000Y-86225000D02*
X156050000Y-86225000D01*
G75*
G02*
X156275000Y-86450000I0J-225000D01*
G01*
X156275000Y-86900000D01*
G75*
G02*
X156050000Y-87125000I-225000J0D01*
G01*
X155550000Y-87125000D01*
G75*
G02*
X155325000Y-86900000I0J225000D01*
G01*
X155325000Y-86450000D01*
G75*
G02*
X155550000Y-86225000I225000J0D01*
G01*
G37*
%TD.AperFunction*%
%TO.P,C14,1*%
%TO.N,VDD*%
%TA.AperFunction,SMDPad,CuDef*%
G36*
G01*
X155550000Y-84675000D02*
X156050000Y-84675000D01*
G75*
G02*
X156275000Y-84900000I0J-225000D01*
G01*
X156275000Y-85350000D01*
G75*
G02*
X156050000Y-85575000I-225000J0D01*
G01*
X155550000Y-85575000D01*
G75*
G02*
X155325000Y-85350000I0J225000D01*
G01*
X155325000Y-84900000D01*
G75*
G02*
X155550000Y-84675000I225000J0D01*
G01*
G37*
%TD.AperFunction*%
%TD*%
%TO.P,C13,2*%
%TO.N,GND*%
%TA.AperFunction,SMDPad,CuDef*%
G36*
G01*
X189750000Y-98600000D02*
X190250000Y-98600000D01*
G75*
G02*
X190475000Y-98825000I0J-225000D01*
G01*
X190475000Y-99275000D01*
G75*
G02*
X190250000Y-99500000I-225000J0D01*
G01*
X189750000Y-99500000D01*
G75*
G02*
X189525000Y-99275000I0J225000D01*
G01*
X189525000Y-98825000D01*
G75*
G02*
X189750000Y-98600000I225000J0D01*
G01*
G37*
%TD.AperFunction*%
%TO.P,C13,1*%
%TO.N,Net-(C13-Pad1)*%
%TA.AperFunction,SMDPad,CuDef*%
G36*
G01*
X189750000Y-97050000D02*
X190250000Y-97050000D01*
G75*
G02*
X190475000Y-97275000I0J-225000D01*
G01*
X190475000Y-97725000D01*
G75*
G02*
X190250000Y-97950000I-225000J0D01*
G01*
X189750000Y-97950000D01*
G75*
G02*
X189525000Y-97725000I0J225000D01*
G01*
X189525000Y-97275000D01*
G75*
G02*
X189750000Y-97050000I225000J0D01*
G01*
G37*
%TD.AperFunction*%
%TD*%
%TO.P,C12,2*%
%TO.N,GND*%
%TA.AperFunction,SMDPad,CuDef*%
G36*
G01*
X180750000Y-70175000D02*
X180250000Y-70175000D01*
G75*
G02*
X180025000Y-69950000I0J225000D01*
G01*
X180025000Y-69500000D01*
G75*
G02*
X180250000Y-69275000I225000J0D01*
G01*
X180750000Y-69275000D01*
G75*
G02*
X180975000Y-69500000I0J-225000D01*
G01*
X180975000Y-69950000D01*
G75*
G02*
X180750000Y-70175000I-225000J0D01*
G01*
G37*
%TD.AperFunction*%
%TO.P,C12,1*%
%TO.N,+1V1*%
%TA.AperFunction,SMDPad,CuDef*%
G36*
G01*
X180750000Y-71725000D02*
X180250000Y-71725000D01*
G75*
G02*
X180025000Y-71500000I0J225000D01*
G01*
X180025000Y-71050000D01*
G75*
G02*
X180250000Y-70825000I225000J0D01*
G01*
X180750000Y-70825000D01*
G75*
G02*
X180975000Y-71050000I0J-225000D01*
G01*
X180975000Y-71500000D01*
G75*
G02*
X180750000Y-71725000I-225000J0D01*
G01*
G37*
%TD.AperFunction*%
%TD*%
%TO.P,C11,2*%
%TO.N,GND*%
%TA.AperFunction,SMDPad,CuDef*%
G36*
G01*
X177250000Y-70175000D02*
X176750000Y-70175000D01*
G75*
G02*
X176525000Y-69950000I0J225000D01*
G01*
X176525000Y-69500000D01*
G75*
G02*
X176750000Y-69275000I225000J0D01*
G01*
X177250000Y-69275000D01*
G75*
G02*
X177475000Y-69500000I0J-225000D01*
G01*
X177475000Y-69950000D01*
G75*
G02*
X177250000Y-70175000I-225000J0D01*
G01*
G37*
%TD.AperFunction*%
%TO.P,C11,1*%
%TO.N,+1V1*%
%TA.AperFunction,SMDPad,CuDef*%
G36*
G01*
X177250000Y-71725000D02*
X176750000Y-71725000D01*
G75*
G02*
X176525000Y-71500000I0J225000D01*
G01*
X176525000Y-71050000D01*
G75*
G02*
X176750000Y-70825000I225000J0D01*
G01*
X177250000Y-70825000D01*
G75*
G02*
X177475000Y-71050000I0J-225000D01*
G01*
X177475000Y-71500000D01*
G75*
G02*
X177250000Y-71725000I-225000J0D01*
G01*
G37*
%TD.AperFunction*%
%TD*%
%TO.P,C10,2*%
%TO.N,GND*%
%TA.AperFunction,SMDPad,CuDef*%
G36*
G01*
X175425000Y-85500000D02*
X175425000Y-86000000D01*
G75*
G02*
X175200000Y-86225000I-225000J0D01*
G01*
X174750000Y-86225000D01*
G75*
G02*
X174525000Y-86000000I0J225000D01*
G01*
X174525000Y-85500000D01*
G75*
G02*
X174750000Y-85275000I225000J0D01*
G01*
X175200000Y-85275000D01*
G75*
G02*
X175425000Y-85500000I0J-225000D01*
G01*
G37*
%TD.AperFunction*%
%TO.P,C10,1*%
%TO.N,+1V1*%
%TA.AperFunction,SMDPad,CuDef*%
G36*
G01*
X176975000Y-85500000D02*
X176975000Y-86000000D01*
G75*
G02*
X176750000Y-86225000I-225000J0D01*
G01*
X176300000Y-86225000D01*
G75*
G02*
X176075000Y-86000000I0J225000D01*
G01*
X176075000Y-85500000D01*
G75*
G02*
X176300000Y-85275000I225000J0D01*
G01*
X176750000Y-85275000D01*
G75*
G02*
X176975000Y-85500000I0J-225000D01*
G01*
G37*
%TD.AperFunction*%
%TD*%
%TO.P,C7,2*%
%TO.N,GND*%
%TA.AperFunction,SMDPad,CuDef*%
G36*
G01*
X184100000Y-74250000D02*
X184100000Y-73750000D01*
G75*
G02*
X184325000Y-73525000I225000J0D01*
G01*
X184775000Y-73525000D01*
G75*
G02*
X185000000Y-73750000I0J-225000D01*
G01*
X185000000Y-74250000D01*
G75*
G02*
X184775000Y-74475000I-225000J0D01*
G01*
X184325000Y-74475000D01*
G75*
G02*
X184100000Y-74250000I0J225000D01*
G01*
G37*
%TD.AperFunction*%
%TO.P,C7,1*%
%TO.N,VDD*%
%TA.AperFunction,SMDPad,CuDef*%
G36*
G01*
X182550000Y-74250000D02*
X182550000Y-73750000D01*
G75*
G02*
X182775000Y-73525000I225000J0D01*
G01*
X183225000Y-73525000D01*
G75*
G02*
X183450000Y-73750000I0J-225000D01*
G01*
X183450000Y-74250000D01*
G75*
G02*
X183225000Y-74475000I-225000J0D01*
G01*
X182775000Y-74475000D01*
G75*
G02*
X182550000Y-74250000I0J225000D01*
G01*
G37*
%TD.AperFunction*%
%TD*%
%TO.P,C6,2*%
%TO.N,GND*%
%TA.AperFunction,SMDPad,CuDef*%
G36*
G01*
X169650000Y-77250000D02*
X169650000Y-77750000D01*
G75*
G02*
X169425000Y-77975000I-225000J0D01*
G01*
X168975000Y-77975000D01*
G75*
G02*
X168750000Y-77750000I0J225000D01*
G01*
X168750000Y-77250000D01*
G75*
G02*
X168975000Y-77025000I225000J0D01*
G01*
X169425000Y-77025000D01*
G75*
G02*
X169650000Y-77250000I0J-225000D01*
G01*
G37*
%TD.AperFunction*%
%TO.P,C6,1*%
%TO.N,VDD*%
%TA.AperFunction,SMDPad,CuDef*%
G36*
G01*
X171200000Y-77250000D02*
X171200000Y-77750000D01*
G75*
G02*
X170975000Y-77975000I-225000J0D01*
G01*
X170525000Y-77975000D01*
G75*
G02*
X170300000Y-77750000I0J225000D01*
G01*
X170300000Y-77250000D01*
G75*
G02*
X170525000Y-77025000I225000J0D01*
G01*
X170975000Y-77025000D01*
G75*
G02*
X171200000Y-77250000I0J-225000D01*
G01*
G37*
%TD.AperFunction*%
%TD*%
%TO.P,C4,2*%
%TO.N,GND*%
%TA.AperFunction,SMDPad,CuDef*%
G36*
G01*
X179000000Y-70175000D02*
X178500000Y-70175000D01*
G75*
G02*
X178275000Y-69950000I0J225000D01*
G01*
X178275000Y-69500000D01*
G75*
G02*
X178500000Y-69275000I225000J0D01*
G01*
X179000000Y-69275000D01*
G75*
G02*
X179225000Y-69500000I0J-225000D01*
G01*
X179225000Y-69950000D01*
G75*
G02*
X179000000Y-70175000I-225000J0D01*
G01*
G37*
%TD.AperFunction*%
%TO.P,C4,1*%
%TO.N,VDD*%
%TA.AperFunction,SMDPad,CuDef*%
G36*
G01*
X179000000Y-71725000D02*
X178500000Y-71725000D01*
G75*
G02*
X178275000Y-71500000I0J225000D01*
G01*
X178275000Y-71050000D01*
G75*
G02*
X178500000Y-70825000I225000J0D01*
G01*
X179000000Y-70825000D01*
G75*
G02*
X179225000Y-71050000I0J-225000D01*
G01*
X179225000Y-71500000D01*
G75*
G02*
X179000000Y-71725000I-225000J0D01*
G01*
G37*
%TD.AperFunction*%
%TD*%
%TO.P,C3,2*%
%TO.N,GND*%
%TA.AperFunction,SMDPad,CuDef*%
G36*
G01*
X184250000Y-70175000D02*
X183750000Y-70175000D01*
G75*
G02*
X183525000Y-69950000I0J225000D01*
G01*
X183525000Y-69500000D01*
G75*
G02*
X183750000Y-69275000I225000J0D01*
G01*
X184250000Y-69275000D01*
G75*
G02*
X184475000Y-69500000I0J-225000D01*
G01*
X184475000Y-69950000D01*
G75*
G02*
X184250000Y-70175000I-225000J0D01*
G01*
G37*
%TD.AperFunction*%
%TO.P,C3,1*%
%TO.N,VDD*%
%TA.AperFunction,SMDPad,CuDef*%
G36*
G01*
X184250000Y-71725000D02*
X183750000Y-71725000D01*
G75*
G02*
X183525000Y-71500000I0J225000D01*
G01*
X183525000Y-71050000D01*
G75*
G02*
X183750000Y-70825000I225000J0D01*
G01*
X184250000Y-70825000D01*
G75*
G02*
X184475000Y-71050000I0J-225000D01*
G01*
X184475000Y-71500000D01*
G75*
G02*
X184250000Y-71725000I-225000J0D01*
G01*
G37*
%TD.AperFunction*%
%TD*%
%TO.P,C2,2*%
%TO.N,GND*%
%TA.AperFunction,SMDPad,CuDef*%
G36*
G01*
X184050000Y-78750000D02*
X184050000Y-78250000D01*
G75*
G02*
X184275000Y-78025000I225000J0D01*
G01*
X184725000Y-78025000D01*
G75*
G02*
X184950000Y-78250000I0J-225000D01*
G01*
X184950000Y-78750000D01*
G75*
G02*
X184725000Y-78975000I-225000J0D01*
G01*
X184275000Y-78975000D01*
G75*
G02*
X184050000Y-78750000I0J225000D01*
G01*
G37*
%TD.AperFunction*%
%TO.P,C2,1*%
%TO.N,VDD*%
%TA.AperFunction,SMDPad,CuDef*%
G36*
G01*
X182500000Y-78750000D02*
X182500000Y-78250000D01*
G75*
G02*
X182725000Y-78025000I225000J0D01*
G01*
X183175000Y-78025000D01*
G75*
G02*
X183400000Y-78250000I0J-225000D01*
G01*
X183400000Y-78750000D01*
G75*
G02*
X183175000Y-78975000I-225000J0D01*
G01*
X182725000Y-78975000D01*
G75*
G02*
X182500000Y-78750000I0J225000D01*
G01*
G37*
%TD.AperFunction*%
%TD*%
D29*
%TO.N,GND*%
X187200000Y-55050000D03*
X187200000Y-59800000D03*
X178250000Y-75750000D03*
X175750000Y-75750000D03*
X178250000Y-78250000D03*
X175000000Y-99200000D03*
X182230000Y-101270000D03*
X194500000Y-89500000D03*
X199350000Y-94850000D03*
X199250000Y-78500000D03*
X191000000Y-76000000D03*
X191000000Y-80500000D03*
X173250000Y-46250000D03*
X181750000Y-46250000D03*
X167750000Y-74250000D03*
X167750000Y-77500000D03*
X178750000Y-68250000D03*
X182250000Y-68250000D03*
X184000000Y-68250000D03*
X185750000Y-78500000D03*
X185750000Y-74000000D03*
X173750000Y-83750000D03*
X175500000Y-81500000D03*
X173750000Y-85750000D03*
X177000000Y-68250000D03*
X172250000Y-83750000D03*
X183345000Y-60845000D03*
X155800000Y-87950000D03*
X158200000Y-87900000D03*
X200500002Y-89250000D03*
X200500000Y-84750000D03*
X180500000Y-68250000D03*
X169250000Y-54000000D03*
X176000000Y-54000000D03*
X162250000Y-47750000D03*
X156200000Y-53000000D03*
X157250000Y-60250000D03*
X201200000Y-43200000D03*
X171000000Y-97000000D03*
X157000000Y-81900000D03*
%TO.N,SOIL_SIG*%
X182750000Y-75249974D03*
%TO.N,SCL_SOIL*%
X182750000Y-76249987D03*
%TO.N,SDA_SOIL*%
X182749996Y-77250000D03*
%TO.N,RESET*%
X161000000Y-53000000D03*
X188600000Y-56200000D03*
%TO.N,QSPI_CSN*%
X171750000Y-69500000D03*
X181950002Y-65799998D03*
%TO.N,LORA_RX*%
X166000000Y-67400000D03*
X168200000Y-65200000D03*
%TO.N,QSPI_SD1*%
X172750000Y-70000000D03*
X179725001Y-66524999D03*
%TO.N,QSPI_SD2*%
X173750000Y-70500000D03*
X177750000Y-67250000D03*
%TO.N,DONE*%
X192600000Y-59800000D03*
X195800000Y-59800000D03*
%TO.N,VDD*%
X194500000Y-66750000D03*
X172250000Y-74250000D03*
X177500000Y-72500000D03*
X183250000Y-72500000D03*
X182500000Y-58250000D03*
X195999982Y-97750000D03*
X184999992Y-72500000D03*
X181750004Y-72500000D03*
X188500000Y-58250000D03*
X154975000Y-64775000D03*
X172250000Y-77699990D03*
X159700000Y-85000000D03*
X154350000Y-84250000D03*
X188400000Y-72400000D03*
%TO.N,+1V1*%
X177600000Y-84700000D03*
X176800000Y-74700000D03*
%TD*%
D30*
%TO.N,GND*%
X187200000Y-55050000D02*
X187200000Y-59800000D01*
D31*
X175000000Y-97100000D02*
X175000000Y-99000000D01*
D32*
X184000000Y-101270000D02*
X182230000Y-101270000D01*
X182230000Y-101270000D02*
X182230000Y-101270000D01*
X187780000Y-101270000D02*
X190000000Y-99050000D01*
X184000000Y-101270000D02*
X187780000Y-101270000D01*
X194500000Y-89500000D02*
X194500000Y-89500000D01*
X199350000Y-93500000D02*
X199350000Y-94850000D01*
X199350000Y-94850000D02*
X199350000Y-94850000D01*
X199250000Y-76600000D02*
X199250000Y-78500000D01*
X199250000Y-78500000D02*
X199250000Y-78500000D01*
X192350000Y-80500000D02*
X191000000Y-80500000D01*
X192350000Y-76000000D02*
X191000000Y-76000000D01*
X191000000Y-76000000D02*
X191000000Y-76000000D01*
X191000000Y-80500000D02*
X191000000Y-80500000D01*
D31*
X181750000Y-42000000D02*
X181750000Y-46250000D01*
X173250000Y-42000000D02*
X173250000Y-46250000D01*
X173250000Y-46250000D02*
X173250000Y-46250000D01*
X181750000Y-46250000D02*
X181750000Y-46250000D01*
D33*
X174950000Y-83750000D02*
X173750000Y-83750000D01*
X184500000Y-78500000D02*
X185750000Y-78500000D01*
X184550000Y-74000000D02*
X185750000Y-74000000D01*
X184000000Y-69725000D02*
X184000000Y-68250000D01*
X182250000Y-69725000D02*
X182250000Y-68250000D01*
X178750000Y-69725000D02*
X178750000Y-68250000D01*
X169500000Y-74250000D02*
X168000000Y-74250000D01*
X169200000Y-77500000D02*
X167750000Y-77500000D01*
X168000000Y-74250000D02*
X168000000Y-74250000D01*
X167750000Y-77500000D02*
X167750000Y-77500000D01*
X178750000Y-68250000D02*
X178750000Y-68250000D01*
X185750000Y-78500000D02*
X185750000Y-78500000D01*
X185750000Y-74000000D02*
X185750000Y-74000000D01*
X173750000Y-83750000D02*
X173750000Y-83750000D01*
X171050000Y-86450000D02*
X169500000Y-88000000D01*
X171050000Y-86350000D02*
X171050000Y-86450000D01*
X169475000Y-88025000D02*
X169500000Y-88000000D01*
X169500000Y-90475000D02*
X169475000Y-90500000D01*
X169500000Y-88000000D02*
X169500000Y-90475000D01*
X176000000Y-80435000D02*
X176000000Y-81000000D01*
X171000000Y-86300000D02*
X171050000Y-86350000D01*
X171000000Y-83750000D02*
X171000000Y-86300000D01*
D32*
X186730000Y-88450000D02*
X188000000Y-88450000D01*
X188000000Y-88450000D02*
X189270000Y-88450000D01*
X189270000Y-88450000D02*
X190540000Y-88450000D01*
X193450000Y-88450000D02*
X194500000Y-89500000D01*
X190540000Y-88450000D02*
X193450000Y-88450000D01*
D33*
X176000000Y-78000000D02*
X177000000Y-77000000D01*
X176000000Y-80435000D02*
X176000000Y-78000000D01*
X176000000Y-81000000D02*
X175500000Y-81500000D01*
X175500000Y-81500000D02*
X175500000Y-81500000D01*
X174975000Y-85750000D02*
X173750000Y-85750000D01*
X173750000Y-85750000D02*
X173750000Y-85750000D01*
X177000000Y-68250000D02*
X177000000Y-69725000D01*
X177000000Y-68250000D02*
X177000000Y-68250000D01*
X171000000Y-83750000D02*
X172000000Y-83750000D01*
X172000000Y-83750000D02*
X172250000Y-83750000D01*
X172250000Y-83750000D02*
X172250000Y-83750000D01*
D32*
X194500000Y-92000000D02*
X194500000Y-89500000D01*
X185100000Y-60845000D02*
X183345000Y-60845000D01*
X183345000Y-60845000D02*
X183345000Y-60845000D01*
D34*
X155800000Y-86725000D02*
X155800000Y-87700000D01*
X155600000Y-87950000D02*
X155600000Y-87950000D01*
X158200000Y-86675000D02*
X158200000Y-87900000D01*
D32*
X200000000Y-87500000D02*
X200000000Y-88749998D01*
X200000000Y-88749998D02*
X200500002Y-89250000D01*
X200000000Y-84250000D02*
X200500000Y-84750000D01*
X200000000Y-83000000D02*
X200000000Y-84250000D01*
D33*
X180500000Y-68500000D02*
X180500000Y-68500000D01*
X180500000Y-69725000D02*
X180500000Y-68250000D01*
D31*
X169250000Y-52550000D02*
X169250000Y-54000000D01*
X176000000Y-52525000D02*
X176000000Y-54000000D01*
X176000000Y-54000000D02*
X176000000Y-54000000D01*
D32*
X162250000Y-47750000D02*
X162250000Y-50750000D01*
X164200000Y-45800000D02*
X162250000Y-47750000D01*
X164200000Y-44225000D02*
X164200000Y-45800000D01*
X157250000Y-62750000D02*
X157250000Y-60250000D01*
X153750000Y-53000000D02*
X156200000Y-53000000D01*
X156200000Y-53000000D02*
X156200000Y-53000000D01*
X157250000Y-60250000D02*
X157250000Y-60250000D01*
X198750000Y-50375000D02*
X198750000Y-42425000D01*
X198750000Y-42425000D02*
X200025000Y-42425000D01*
X200025000Y-42425000D02*
X200425000Y-42425000D01*
X200425000Y-42425000D02*
X201200000Y-43200000D01*
X201200000Y-43200000D02*
X201200000Y-43200000D01*
X187200000Y-55050000D02*
X187200000Y-54400000D01*
X186800000Y-54000000D02*
X184975000Y-54000000D01*
X187200000Y-54400000D02*
X186800000Y-54000000D01*
X157375000Y-62875000D02*
X157250000Y-62750000D01*
X157375000Y-66400000D02*
X157375000Y-62875000D01*
X180695000Y-101270000D02*
X180600000Y-101175000D01*
X182230000Y-101270000D02*
X180695000Y-101270000D01*
D31*
X169650000Y-97000000D02*
X171000000Y-97000000D01*
X169500000Y-97150000D02*
X169650000Y-97000000D01*
X171000000Y-97000000D02*
X171000000Y-97000000D01*
D34*
X157550000Y-81900000D02*
X156350000Y-81900000D01*
X158025000Y-82375000D02*
X157550000Y-81900000D01*
X158025000Y-82975000D02*
X158025000Y-82375000D01*
X157000000Y-81900000D02*
X156350000Y-81900000D01*
X156725000Y-82175000D02*
X157000000Y-81900000D01*
X156725000Y-82975000D02*
X156725000Y-82175000D01*
X156075000Y-81625000D02*
X156350000Y-81900000D01*
X156075000Y-80925000D02*
X156075000Y-81625000D01*
D32*
%TO.N,+3V3*%
X198450000Y-91250000D02*
X198400000Y-91300000D01*
X198450000Y-87500000D02*
X198450000Y-91250000D01*
X198450000Y-83000000D02*
X198450000Y-87500000D01*
X194766998Y-70975000D02*
X198750000Y-70975000D01*
X189500000Y-76241998D02*
X194766998Y-70975000D01*
X189500000Y-81500000D02*
X189500000Y-76241998D01*
X198750000Y-70975000D02*
X198750000Y-63025000D01*
X198750000Y-63025000D02*
X196975000Y-63025000D01*
X196550000Y-63450000D02*
X192500000Y-63450000D01*
X196975000Y-63025000D02*
X196550000Y-63450000D01*
X198450000Y-83000000D02*
X195750000Y-83000000D01*
X195750000Y-83000000D02*
X194750000Y-82000000D01*
X190000000Y-82000000D02*
X189500000Y-81500000D01*
X194750000Y-82000000D02*
X190000000Y-82000000D01*
X192149989Y-86600011D02*
X195750000Y-83000000D01*
X186199987Y-86600011D02*
X192149989Y-86600011D01*
X185460000Y-87339998D02*
X186199987Y-86600011D01*
X185460000Y-88450000D02*
X185460000Y-87339998D01*
X198250000Y-76650000D02*
X198300000Y-76600000D01*
X198250000Y-82800000D02*
X198250000Y-76650000D01*
X198450000Y-83000000D02*
X198250000Y-82800000D01*
X198250000Y-71475000D02*
X198250000Y-74350000D01*
X198250000Y-74350000D02*
X198300000Y-74400000D01*
X198750000Y-70975000D02*
X198250000Y-71475000D01*
X194400000Y-70608002D02*
X194766998Y-70975000D01*
X194400000Y-69450000D02*
X194400000Y-70608002D01*
X180350000Y-88450000D02*
X179600000Y-89200000D01*
X185460000Y-88450000D02*
X180350000Y-88450000D01*
%TO.N,+BATT*%
X184000000Y-94000000D02*
X183000000Y-93000000D01*
X184000000Y-100000000D02*
X184000000Y-94000000D01*
X180975000Y-100000000D02*
X180600000Y-99625000D01*
X184000000Y-100000000D02*
X180975000Y-100000000D01*
X177450000Y-99625000D02*
X177400000Y-99575000D01*
X180600000Y-99625000D02*
X177450000Y-99625000D01*
X180600000Y-97400000D02*
X179600000Y-96400000D01*
X180600000Y-99625000D02*
X180600000Y-97400000D01*
%TO.N,Net-(C13-Pad1)*%
X198400000Y-98450000D02*
X198350000Y-98500000D01*
X198400000Y-93500000D02*
X198400000Y-98450000D01*
X198350000Y-93550000D02*
X198400000Y-93500000D01*
X192200000Y-93550000D02*
X198350000Y-93550000D01*
X191500000Y-94250000D02*
X192200000Y-93550000D01*
X190200000Y-94250000D02*
X190000000Y-94050000D01*
X191500000Y-94250000D02*
X190200000Y-94250000D01*
X185100000Y-94050000D02*
X185000000Y-93950000D01*
X190000000Y-94050000D02*
X185100000Y-94050000D01*
X190000000Y-94050000D02*
X190000000Y-97500000D01*
D31*
%TO.N,XIN*%
X169450000Y-86300000D02*
X169500000Y-86350000D01*
X169450000Y-83750000D02*
X169450000Y-86300000D01*
D33*
X169700000Y-83550000D02*
X169700000Y-83750000D01*
X175786002Y-82250000D02*
X170950000Y-82250000D01*
X176400000Y-81636002D02*
X175786002Y-82250000D01*
X170950000Y-82250000D02*
X169450000Y-83750000D01*
X176400000Y-80435000D02*
X176400000Y-81636002D01*
D31*
%TO.N,XOUT*%
X171025000Y-88025000D02*
X171050000Y-88000000D01*
X171025000Y-90500000D02*
X171025000Y-88025000D01*
D33*
X176800000Y-81801701D02*
X175851701Y-82750000D01*
X176800000Y-80435000D02*
X176800000Y-81801701D01*
X175851701Y-82750000D02*
X173500000Y-82750000D01*
X173500000Y-82750000D02*
X173000000Y-83250000D01*
X173000000Y-86050000D02*
X171050000Y-88000000D01*
X173000000Y-83250000D02*
X173000000Y-86050000D01*
D31*
%TO.N,Net-(C22-Pad1)*%
X163750000Y-51000000D02*
X171825000Y-51000000D01*
X163500000Y-50750000D02*
X163750000Y-51000000D01*
%TO.N,Net-(C23-Pad1)*%
X176000000Y-50975000D02*
X176025000Y-50975000D01*
X177500000Y-49500000D02*
X177500000Y-42000000D01*
X176025000Y-50975000D02*
X177500000Y-49500000D01*
X175975000Y-51000000D02*
X176000000Y-50975000D01*
X173400000Y-51000000D02*
X175975000Y-51000000D01*
D30*
%TO.N,Net-(D1-Pad2)*%
X158000000Y-95500000D02*
X162950000Y-95500000D01*
%TO.N,VDC*%
X165050000Y-95500000D02*
X165050000Y-95450000D01*
X165050000Y-95450000D02*
X167500000Y-93000000D01*
X167500000Y-93000000D02*
X175500000Y-93000000D01*
X175950000Y-93450000D02*
X175950000Y-94900000D01*
X175500000Y-93000000D02*
X175950000Y-93450000D01*
X181550000Y-93450000D02*
X183000000Y-94900000D01*
X165000000Y-93000000D02*
X163600000Y-91600000D01*
X167500000Y-93000000D02*
X165000000Y-93000000D01*
X175950000Y-93450000D02*
X180050000Y-93450000D01*
X180050000Y-93450000D02*
X181550000Y-93450000D01*
X192300000Y-91450000D02*
X192850000Y-92000000D01*
X182550000Y-91450000D02*
X192300000Y-91450000D01*
X181550000Y-92450000D02*
X182550000Y-91450000D01*
X181550000Y-93450000D02*
X181550000Y-92450000D01*
X165050000Y-95600000D02*
X169500000Y-100050000D01*
X169500000Y-100050000D02*
X169500000Y-101000000D01*
X165050000Y-95500000D02*
X165050000Y-95600000D01*
D31*
%TO.N,Net-(D2-Pad1)*%
X173925000Y-102575000D02*
X174000000Y-102650000D01*
D32*
X169500000Y-102575000D02*
X173925000Y-102575000D01*
D33*
%TO.N,SOIL_SIG*%
X180435000Y-76000000D02*
X181999974Y-76000000D01*
X181999974Y-76000000D02*
X182750000Y-75249974D01*
%TO.N,SCL_SOIL*%
X180435000Y-76400000D02*
X182599987Y-76400000D01*
X182599987Y-76400000D02*
X182750000Y-76249987D01*
%TO.N,SDA_SOIL*%
X182500000Y-77250000D02*
X182500000Y-77250000D01*
X182299996Y-76800000D02*
X182749996Y-77250000D01*
X180435000Y-76800000D02*
X182299996Y-76800000D01*
D31*
%TO.N,RESET*%
X190540000Y-84550000D02*
X190540000Y-83720000D01*
D33*
X190540000Y-83709998D02*
X190540000Y-84550000D01*
X188630002Y-81800000D02*
X190540000Y-83709998D01*
X179300000Y-81800000D02*
X188630002Y-81800000D01*
X178800000Y-81300000D02*
X179300000Y-81800000D01*
X178800000Y-80435000D02*
X178800000Y-81300000D01*
D31*
X161000000Y-50750000D02*
X161000000Y-53000000D01*
X161000000Y-53000000D02*
X161000000Y-53000000D01*
X200650000Y-52975000D02*
X203250000Y-50375000D01*
X195000000Y-52975000D02*
X200650000Y-52975000D01*
X203250000Y-50375000D02*
X203250000Y-42425000D01*
X188825000Y-56200000D02*
X190400000Y-54625000D01*
X188600000Y-56200000D02*
X188825000Y-56200000D01*
X190400000Y-54625000D02*
X190400000Y-54600000D01*
X192025000Y-52975000D02*
X195000000Y-52975000D01*
X190400000Y-54600000D02*
X192025000Y-52975000D01*
D33*
X188630002Y-81800000D02*
X188630002Y-75769998D01*
X191200000Y-73200000D02*
X191200000Y-62681384D01*
X191200000Y-62681384D02*
X203250000Y-50631384D01*
X188630002Y-75769998D02*
X191200000Y-73200000D01*
X203250000Y-50631384D02*
X203250000Y-50375000D01*
%TO.N,SWD_CLK*%
X186730000Y-85950000D02*
X186730000Y-84550000D01*
X186629999Y-86050001D02*
X186730000Y-85950000D01*
X181800001Y-86050001D02*
X186629999Y-86050001D01*
X178000000Y-82250000D02*
X181800001Y-86050001D01*
X178000000Y-80435000D02*
X178000000Y-82250000D01*
%TO.N,SWD_DIO*%
X181865698Y-84550000D02*
X185460000Y-84550000D01*
X180865698Y-84550000D02*
X181865698Y-84550000D01*
X178400000Y-82084302D02*
X180865698Y-84550000D01*
X178400000Y-80435000D02*
X178400000Y-82084302D01*
D31*
%TO.N,Net-(Q2-Pad2)*%
X196000000Y-61000000D02*
X194500000Y-62500000D01*
X199500000Y-61000000D02*
X196000000Y-61000000D01*
X200500000Y-62000000D02*
X199500000Y-61000000D01*
X200500000Y-72620000D02*
X200500000Y-62000000D01*
X199250000Y-73870000D02*
X200500000Y-72620000D01*
X199250000Y-74400000D02*
X199250000Y-73870000D01*
%TO.N,Net-(R2-Pad2)*%
X173450000Y-95500000D02*
X174050000Y-94900000D01*
X169500000Y-95500000D02*
X173450000Y-95500000D01*
%TO.N,Net-(R3-Pad2)*%
X174050000Y-100950000D02*
X174000000Y-101000000D01*
D32*
X174050000Y-97100000D02*
X174050000Y-100950000D01*
D33*
%TO.N,QSPI_CSN*%
X174400000Y-73565000D02*
X171750000Y-70915000D01*
X171750000Y-70915000D02*
X171750000Y-69500000D01*
X171750000Y-69500000D02*
X171750000Y-69500000D01*
D31*
X187280000Y-64655000D02*
X188400000Y-65775000D01*
X185100000Y-64655000D02*
X187280000Y-64655000D01*
X183095000Y-64655000D02*
X185100000Y-64655000D01*
X181950002Y-65799998D02*
X183095000Y-64655000D01*
D32*
%TO.N,Net-(R7-Pad1)*%
X200300000Y-98200000D02*
X200000000Y-98500000D01*
X200300000Y-93500000D02*
X200300000Y-98200000D01*
D31*
%TO.N,SDA*%
X157925000Y-76400000D02*
X158025000Y-76300000D01*
D33*
X157200000Y-77125000D02*
X157925000Y-76400000D01*
X157200000Y-79700000D02*
X157200000Y-77125000D01*
X157400000Y-79900000D02*
X157200000Y-79700000D01*
X157400000Y-80900000D02*
X157400000Y-79900000D01*
X157375000Y-80925000D02*
X157400000Y-80900000D01*
D31*
X162825000Y-78600000D02*
X170600000Y-78600000D01*
X160625000Y-76400000D02*
X162825000Y-78600000D01*
X157925000Y-76400000D02*
X160625000Y-76400000D01*
D33*
X172400000Y-78600000D02*
X170600000Y-78600000D01*
X172600000Y-78400000D02*
X172400000Y-78600000D01*
X173565000Y-78400000D02*
X172600000Y-78400000D01*
%TO.N,SCL*%
X172317151Y-79282849D02*
X171032849Y-79282849D01*
X172800000Y-78800000D02*
X172317151Y-79282849D01*
X173565000Y-78800000D02*
X172800000Y-78800000D01*
D31*
X157925000Y-78500000D02*
X158025000Y-78400000D01*
D33*
X158025000Y-78600000D02*
X157925000Y-78500000D01*
X158025000Y-80925000D02*
X158025000Y-78600000D01*
D31*
X170899473Y-79300527D02*
X171050527Y-79300527D01*
X162700527Y-79300527D02*
X170899473Y-79300527D01*
X161900000Y-78500000D02*
X162700527Y-79300527D01*
X157925000Y-78500000D02*
X161900000Y-78500000D01*
D33*
%TO.N,LORA_TX*%
X167000000Y-63575000D02*
X169250000Y-61325000D01*
X167600000Y-75400000D02*
X167000000Y-74800000D01*
X170433176Y-75400000D02*
X167600000Y-75400000D01*
X171433176Y-76400000D02*
X170433176Y-75400000D01*
X173565000Y-76400000D02*
X171433176Y-76400000D01*
X167000000Y-71800000D02*
X167000000Y-63575000D01*
X167000000Y-74800000D02*
X167000000Y-72600000D01*
X167000000Y-72600000D02*
X167000000Y-71800000D01*
X167000000Y-72000000D02*
X169200000Y-69800000D01*
X167000000Y-72600000D02*
X167000000Y-72000000D01*
D34*
%TO.N,Net-(R10-Pad1)*%
X168825000Y-59250000D02*
X169250000Y-59675000D01*
X165750000Y-59250000D02*
X168825000Y-59250000D01*
D31*
%TO.N,Net-(R11-Pad2)*%
X194000000Y-76500000D02*
X194000000Y-76000000D01*
X194000000Y-80500000D02*
X194000000Y-76500000D01*
X194000000Y-76000000D02*
X194500000Y-75500000D01*
X194500000Y-75500000D02*
X200130000Y-75500000D01*
X203250000Y-73040002D02*
X203250000Y-70975000D01*
X200790002Y-75500000D02*
X203250000Y-73040002D01*
X200130000Y-75500000D02*
X200790002Y-75500000D01*
X203250000Y-70975000D02*
X203250000Y-63025000D01*
X200200000Y-75950000D02*
X200200000Y-76600000D01*
X199750000Y-75500000D02*
X200200000Y-75950000D01*
X200130000Y-75500000D02*
X199750000Y-75500000D01*
D33*
%TO.N,LORA_RX*%
X166000000Y-74800000D02*
X166000000Y-67400000D01*
X166000000Y-67400000D02*
X166000000Y-67200000D01*
X172075000Y-61325000D02*
X168200000Y-65200000D01*
X172250000Y-61325000D02*
X172075000Y-61325000D01*
X166000000Y-76000000D02*
X166000000Y-74800000D01*
X166400000Y-76400000D02*
X166000000Y-76000000D01*
X170867478Y-76400000D02*
X166400000Y-76400000D01*
X171267478Y-76800000D02*
X170867478Y-76400000D01*
X173565000Y-76800000D02*
X171267478Y-76800000D01*
X166000000Y-67400000D02*
X163400000Y-70000000D01*
D34*
%TO.N,Net-(R12-Pad1)*%
X170575000Y-58000000D02*
X172250000Y-59675000D01*
X165750000Y-58000000D02*
X170575000Y-58000000D01*
D31*
%TO.N,Net-(R14-Pad2)*%
X164200000Y-42575000D02*
X164200000Y-42000000D01*
X163150000Y-40950000D02*
X160375000Y-40950000D01*
X164200000Y-42000000D02*
X163150000Y-40950000D01*
X160375000Y-40950000D02*
X152425000Y-40950000D01*
%TO.N,Net-(SW3-Pad1)*%
X160375000Y-45450000D02*
X152425000Y-45450000D01*
X152425000Y-45450000D02*
X151200000Y-46675000D01*
X152350000Y-55500000D02*
X153750000Y-55500000D01*
X151200000Y-54350000D02*
X152350000Y-55500000D01*
X151200000Y-46675000D02*
X151200000Y-54350000D01*
D33*
%TO.N,QSPI_SD1*%
X172750000Y-70729944D02*
X172750000Y-70000000D01*
X174800000Y-72779944D02*
X172750000Y-70729944D01*
X174800000Y-73565000D02*
X174800000Y-72779944D01*
D31*
X182865000Y-63385000D02*
X185100000Y-63385000D01*
X179725001Y-66524999D02*
X182865000Y-63385000D01*
D33*
%TO.N,QSPI_SD2*%
X173750000Y-71164246D02*
X173750000Y-70500000D01*
X175200000Y-72614246D02*
X173750000Y-71164246D01*
X175200000Y-73565000D02*
X175200000Y-72614246D01*
X173750000Y-70500000D02*
X173750000Y-70500000D01*
D31*
X182885000Y-62115000D02*
X185100000Y-62115000D01*
X177750000Y-67250000D02*
X182885000Y-62115000D01*
D33*
%TO.N,QSPI_SD0*%
X177100000Y-60845000D02*
X177900000Y-60845000D01*
X174599990Y-63345010D02*
X177100000Y-60845000D01*
X174599990Y-71448538D02*
X174599990Y-63345010D01*
X175600000Y-72448547D02*
X174599990Y-71448538D01*
X175600000Y-73565000D02*
X175600000Y-72448547D01*
%TO.N,QSPI_CLK*%
X177100000Y-62115000D02*
X177900000Y-62115000D01*
X175000000Y-64215000D02*
X177100000Y-62115000D01*
X175000000Y-71282849D02*
X175000000Y-64215000D01*
X176000000Y-72282849D02*
X175000000Y-71282849D01*
X176000000Y-73565000D02*
X176000000Y-72282849D01*
%TO.N,QSPI_SD3*%
X175500000Y-71000000D02*
X175500000Y-64985000D01*
X177100000Y-63385000D02*
X177900000Y-63385000D01*
X176400000Y-71900000D02*
X175500000Y-71000000D01*
X175500000Y-64985000D02*
X177100000Y-63385000D01*
X176400000Y-73565000D02*
X176400000Y-71900000D01*
D31*
%TO.N,DONE*%
X200200000Y-73800000D02*
X201500000Y-72500000D01*
X200200000Y-74400000D02*
X200200000Y-73800000D01*
D33*
X190450001Y-69450001D02*
X190450001Y-69450001D01*
X192600000Y-59800000D02*
X192600000Y-59800000D01*
X200200000Y-59800000D02*
X201500000Y-61100000D01*
X195800000Y-59800000D02*
X200200000Y-59800000D01*
D31*
X201500000Y-72500000D02*
X201500000Y-61100000D01*
D33*
X188000000Y-78200000D02*
X188000000Y-75286002D01*
X180435000Y-79600000D02*
X186600000Y-79600000D01*
X186600000Y-79600000D02*
X188000000Y-78200000D01*
X190450001Y-72836001D02*
X190450001Y-69450001D01*
X188000000Y-75286002D02*
X190450001Y-72836001D01*
X190450001Y-69450001D02*
X190450001Y-61949999D01*
X190450001Y-61949999D02*
X192600000Y-59800000D01*
%TO.N,VDD*%
X177775000Y-72250000D02*
X178750000Y-71275000D01*
X177200000Y-72825000D02*
X177775000Y-72250000D01*
X177200000Y-73565000D02*
X177200000Y-72825000D01*
X176500000Y-83750000D02*
X176500000Y-82667399D01*
X177200000Y-81967399D02*
X177200000Y-80435000D01*
X176500000Y-82667399D02*
X177200000Y-81967399D01*
X182950000Y-78500000D02*
X182000000Y-78500000D01*
X181500000Y-78000000D02*
X180435000Y-78000000D01*
X182000000Y-78500000D02*
X181500000Y-78000000D01*
X180835000Y-74000000D02*
X180435000Y-74400000D01*
D32*
X194500000Y-64400000D02*
X194500000Y-66750000D01*
X194500000Y-66750000D02*
X194500000Y-66750000D01*
D33*
X181500000Y-74000000D02*
X180835000Y-74000000D01*
X183000000Y-74000000D02*
X181500000Y-74000000D01*
D32*
X178700000Y-64655000D02*
X180500000Y-62855000D01*
X177900000Y-64655000D02*
X178700000Y-64655000D01*
X180500000Y-60250000D02*
X182500000Y-58250000D01*
X180500000Y-62855000D02*
X180500000Y-60250000D01*
D33*
X172500000Y-78000000D02*
X172000000Y-77500000D01*
X173565000Y-78000000D02*
X172500000Y-78000000D01*
X172000000Y-77500000D02*
X170750000Y-77500000D01*
X173024234Y-74400000D02*
X173565000Y-74400000D01*
X172874234Y-74250000D02*
X173024234Y-74400000D01*
X170775000Y-74250000D02*
X172874234Y-74250000D01*
D34*
X158375000Y-85400000D02*
X158100000Y-85125000D01*
D32*
X195999982Y-99249982D02*
X199250000Y-102500000D01*
X195999982Y-97750000D02*
X195999982Y-99249982D01*
X195999982Y-99250018D02*
X195999982Y-97750000D01*
X194000000Y-101250000D02*
X195999982Y-99250018D01*
X194000000Y-102500000D02*
X194000000Y-101250000D01*
X184500000Y-72500000D02*
X184999992Y-72500000D01*
X183000000Y-74000000D02*
X184500000Y-72500000D01*
D33*
X182500000Y-73250000D02*
X183250000Y-72500000D01*
X179915000Y-73250000D02*
X182500000Y-73250000D01*
X179600000Y-73565000D02*
X179915000Y-73250000D01*
X179750000Y-72500000D02*
X181750004Y-72500000D01*
X179200000Y-73050000D02*
X179750000Y-72500000D01*
X179200000Y-73565000D02*
X179200000Y-73050000D01*
X182250000Y-72000004D02*
X182250000Y-71275000D01*
X181750004Y-72500000D02*
X182250000Y-72000004D01*
X184000000Y-71750000D02*
X184000000Y-71275000D01*
X183250000Y-72500000D02*
X184000000Y-71750000D01*
D32*
X195000000Y-56000000D02*
X195000000Y-54625000D01*
X192750000Y-58250000D02*
X195000000Y-56000000D01*
X188500000Y-58250000D02*
X192750000Y-58250000D01*
X194400000Y-66850000D02*
X194500000Y-66750000D01*
X194400000Y-68150000D02*
X194400000Y-66850000D01*
X182500000Y-58250000D02*
X183400000Y-57350000D01*
X183400000Y-54025000D02*
X183425000Y-54000000D01*
X183400000Y-57350000D02*
X183400000Y-54025000D01*
X156000000Y-66225000D02*
X155825000Y-66400000D01*
X156000000Y-62750000D02*
X156000000Y-66225000D01*
X156000000Y-63750000D02*
X154975000Y-64775000D01*
X156000000Y-62750000D02*
X156000000Y-63750000D01*
D33*
X177200000Y-80435000D02*
X177200000Y-79400000D01*
X177200000Y-79400000D02*
X177600000Y-79000000D01*
X177600000Y-79000000D02*
X178894234Y-79000000D01*
X178894234Y-79000000D02*
X179894234Y-78000000D01*
X179894234Y-78000000D02*
X180435000Y-78000000D01*
D34*
X158200000Y-85125000D02*
X158200000Y-84600000D01*
X157375000Y-83775000D02*
X157375000Y-82975000D01*
X158200000Y-84600000D02*
X157375000Y-83775000D01*
X156075000Y-83925000D02*
X156075000Y-82975000D01*
X155800000Y-84200000D02*
X156075000Y-83925000D01*
X155800000Y-85125000D02*
X155800000Y-84200000D01*
D32*
X156275000Y-76400000D02*
X156275000Y-78500000D01*
D34*
X156300000Y-78525000D02*
X156275000Y-78500000D01*
X156725000Y-79625000D02*
X156300000Y-79200000D01*
X156300000Y-79200000D02*
X156300000Y-78525000D01*
X156725000Y-80925000D02*
X156725000Y-79625000D01*
X158200000Y-85125000D02*
X159575000Y-85125000D01*
X159575000Y-85125000D02*
X159700000Y-85000000D01*
X159700000Y-85000000D02*
X159700000Y-85000000D01*
X155800000Y-85125000D02*
X155225000Y-85125000D01*
X155225000Y-85125000D02*
X154400000Y-84300000D01*
D32*
X156275000Y-74975000D02*
X154100000Y-72800000D01*
X156275000Y-76400000D02*
X156275000Y-74975000D01*
X188400000Y-73050000D02*
X182950000Y-78500000D01*
X188400000Y-67425000D02*
X188400000Y-73050000D01*
%TO.N,Net-(R1-Pad2)*%
X175950000Y-99775000D02*
X177400000Y-101225000D01*
X175950000Y-97100000D02*
X175950000Y-99775000D01*
D33*
%TO.N,+1V1*%
X177000000Y-71800000D02*
X177000000Y-71250000D01*
X176800000Y-72000000D02*
X177000000Y-71800000D01*
X176800000Y-73565000D02*
X176800000Y-72000000D01*
X178800000Y-73565000D02*
X178800000Y-72700000D01*
X180225000Y-71275000D02*
X180500000Y-71275000D01*
X178800000Y-72700000D02*
X180225000Y-71275000D01*
X177600000Y-84700000D02*
X177600000Y-84700000D01*
X177600000Y-80435000D02*
X177600000Y-84700000D01*
X177600000Y-84700000D02*
X176550000Y-85750000D01*
X176800000Y-74700000D02*
X176800000Y-73565000D01*
X176800000Y-74700000D02*
X178500000Y-74700000D01*
X178800000Y-74400000D02*
X178800000Y-73565000D01*
X178500000Y-74700000D02*
X178800000Y-74400000D01*
%TD*%
M02*
