%TF.GenerationSoftware,KiCad,Pcbnew,6.0.2-378541a8eb~116~ubuntu20.04.1*%
%TF.CreationDate,2022-03-07T12:50:51-08:00*%
%TF.ProjectId,RP2040_WEDS,52503230-3430-45f5-9745-44532e6b6963,rev?*%
%TF.SameCoordinates,Original*%
%TF.FileFunction,Soldermask,Top*%
%TF.FilePolarity,Negative*%
%FSLAX46Y46*%
G04 Gerber Fmt 4.6, Leading zero omitted, Abs format (unit mm)*
G04 Created by KiCad (PCBNEW 6.0.2-378541a8eb~116~ubuntu20.04.1) date 2022-03-07 12:50:51*
%MOMM*%
%LPD*%
G01*
G04 APERTURE LIST*
G04 Aperture macros list*
%AMRoundRect*
0 Rectangle with rounded corners*
0 $1 Rounding radius*
0 $2 $3 $4 $5 $6 $7 $8 $9 X,Y pos of 4 corners*
0 Add a 4 corners polygon primitive as box body*
4,1,4,$2,$3,$4,$5,$6,$7,$8,$9,$2,$3,0*
0 Add four circle primitives for the rounded corners*
1,1,$1+$1,$2,$3*
1,1,$1+$1,$4,$5*
1,1,$1+$1,$6,$7*
1,1,$1+$1,$8,$9*
0 Add four rect primitives between the rounded corners*
20,1,$1+$1,$2,$3,$4,$5,0*
20,1,$1+$1,$4,$5,$6,$7,0*
20,1,$1+$1,$6,$7,$8,$9,0*
20,1,$1+$1,$8,$9,$2,$3,0*%
%AMFreePoly0*
4,1,37,0.535921,0.785921,0.550800,0.750000,0.550800,-0.750000,0.535921,-0.785921,0.500000,-0.800800,0.000000,-0.800800,-0.012526,-0.795612,-0.080872,-0.794359,-0.095090,-0.792057,-0.230405,-0.749782,-0.243405,-0.743581,-0.361415,-0.665026,-0.372153,-0.655426,-0.463373,-0.546907,-0.470984,-0.534678,-0.528079,-0.404919,-0.531952,-0.391047,-0.549535,-0.256587,-0.548147,-0.256405,-0.550800,-0.250000,
-0.550800,0.250000,-0.550314,0.251174,-0.550158,0.263925,-0.528347,0.404002,-0.524136,0.417775,-0.463888,0.546100,-0.455980,0.558139,-0.362136,0.664397,-0.351168,0.673732,-0.231273,0.749380,-0.218125,0.755261,-0.081818,0.794218,-0.067547,0.796173,-0.011991,0.795833,0.000000,0.800800,0.500000,0.800800,0.535921,0.785921,0.535921,0.785921,$1*%
%AMFreePoly1*
4,1,37,0.012350,0.795685,0.074215,0.795307,0.088460,0.793178,0.224281,0.752559,0.237356,0.746518,0.356318,0.669411,0.367173,0.659942,0.459711,0.552545,0.467470,0.540411,0.526147,0.411359,0.530190,0.397535,0.550287,0.257202,0.550800,0.250000,0.550800,-0.250000,0.550796,-0.250620,0.550647,-0.262836,0.549947,-0.270644,0.526427,-0.410445,0.522048,-0.424167,0.460236,-0.551746,
0.452182,-0.563686,0.357047,-0.668790,0.345965,-0.677991,0.225155,-0.752168,0.211936,-0.757888,0.075163,-0.795177,0.060870,-0.796957,0.011464,-0.796051,0.000000,-0.800800,-0.500000,-0.800800,-0.535921,-0.785921,-0.550800,-0.750000,-0.550800,0.750000,-0.535921,0.785921,-0.500000,0.800800,0.000000,0.800800,0.012350,0.795685,0.012350,0.795685,$1*%
G04 Aperture macros list end*
%ADD10RoundRect,0.200800X-0.650000X-0.150000X0.650000X-0.150000X0.650000X0.150000X-0.650000X0.150000X0*%
%ADD11RoundRect,0.250800X-0.275000X0.200000X-0.275000X-0.200000X0.275000X-0.200000X0.275000X0.200000X0*%
%ADD12RoundRect,0.275800X0.225000X0.250000X-0.225000X0.250000X-0.225000X-0.250000X0.225000X-0.250000X0*%
%ADD13RoundRect,0.275800X-0.225000X-0.250000X0.225000X-0.250000X0.225000X0.250000X-0.225000X0.250000X0*%
%ADD14RoundRect,0.275800X0.250000X-0.225000X0.250000X0.225000X-0.250000X0.225000X-0.250000X-0.225000X0*%
%ADD15RoundRect,0.275800X-0.250000X0.225000X-0.250000X-0.225000X0.250000X-0.225000X0.250000X0.225000X0*%
%ADD16RoundRect,0.050800X0.300000X0.225000X-0.300000X0.225000X-0.300000X-0.225000X0.300000X-0.225000X0*%
%ADD17RoundRect,0.269550X0.256250X-0.218750X0.256250X0.218750X-0.256250X0.218750X-0.256250X-0.218750X0*%
%ADD18RoundRect,0.050800X0.225000X-0.300000X0.225000X0.300000X-0.225000X0.300000X-0.225000X-0.300000X0*%
%ADD19RoundRect,0.050800X-0.850000X0.850000X-0.850000X-0.850000X0.850000X-0.850000X0.850000X0.850000X0*%
%ADD20O,1.801600X1.801600*%
%ADD21RoundRect,0.050800X0.500000X0.500000X-0.500000X0.500000X-0.500000X-0.500000X0.500000X-0.500000X0*%
%ADD22O,1.101600X1.101600*%
%ADD23RoundRect,0.269550X-0.218750X-0.256250X0.218750X-0.256250X0.218750X0.256250X-0.218750X0.256250X0*%
%ADD24RoundRect,0.200800X0.587500X0.150000X-0.587500X0.150000X-0.587500X-0.150000X0.587500X-0.150000X0*%
%ADD25RoundRect,0.200800X0.150000X-0.587500X0.150000X0.587500X-0.150000X0.587500X-0.150000X-0.587500X0*%
%ADD26RoundRect,0.250800X-0.200000X-0.275000X0.200000X-0.275000X0.200000X0.275000X-0.200000X0.275000X0*%
%ADD27RoundRect,0.250800X0.200000X0.275000X-0.200000X0.275000X-0.200000X-0.275000X0.200000X-0.275000X0*%
%ADD28RoundRect,0.050800X0.650000X-0.775000X0.650000X0.775000X-0.650000X0.775000X-0.650000X-0.775000X0*%
%ADD29RoundRect,0.050800X-0.650000X0.775000X-0.650000X-0.775000X0.650000X-0.775000X0.650000X0.775000X0*%
%ADD30RoundRect,0.056800X-0.414000X-0.094000X0.414000X-0.094000X0.414000X0.094000X-0.414000X0.094000X0*%
%ADD31RoundRect,0.070800X-0.080000X-0.400000X0.080000X-0.400000X0.080000X0.400000X-0.080000X0.400000X0*%
%ADD32RoundRect,0.050800X-1.550000X-1.550000X1.550000X-1.550000X1.550000X1.550000X-1.550000X1.550000X0*%
%ADD33RoundRect,0.200800X0.150000X-0.512500X0.150000X0.512500X-0.150000X0.512500X-0.150000X-0.512500X0*%
%ADD34RoundRect,0.050800X-0.250000X-0.175000X0.250000X-0.175000X0.250000X0.175000X-0.250000X0.175000X0*%
%ADD35RoundRect,0.050800X1.150000X-0.500000X1.150000X0.500000X-1.150000X0.500000X-1.150000X-0.500000X0*%
%ADD36RoundRect,0.050800X0.500000X1.150000X-0.500000X1.150000X-0.500000X-1.150000X0.500000X-1.150000X0*%
%ADD37RoundRect,0.050800X-1.150000X0.500000X-1.150000X-0.500000X1.150000X-0.500000X1.150000X0.500000X0*%
%ADD38RoundRect,0.050800X-0.500000X-1.150000X0.500000X-1.150000X0.500000X1.150000X-0.500000X1.150000X0*%
%ADD39RoundRect,0.050800X-0.325000X-0.425000X0.325000X-0.425000X0.325000X0.425000X-0.325000X0.425000X0*%
%ADD40RoundRect,0.050800X0.750000X2.540000X-0.750000X2.540000X-0.750000X-2.540000X0.750000X-2.540000X0*%
%ADD41FreePoly0,180.000000*%
%ADD42FreePoly1,180.000000*%
%ADD43C,2.101600*%
%ADD44RoundRect,0.250800X0.275000X-0.200000X0.275000X0.200000X-0.275000X0.200000X-0.275000X-0.200000X0*%
%ADD45RoundRect,0.050800X-0.850000X-0.850000X0.850000X-0.850000X0.850000X0.850000X-0.850000X0.850000X0*%
%ADD46RoundRect,0.050800X0.850000X-0.850000X0.850000X0.850000X-0.850000X0.850000X-0.850000X-0.850000X0*%
%ADD47RoundRect,0.050800X0.850000X0.850000X-0.850000X0.850000X-0.850000X-0.850000X0.850000X-0.850000X0*%
G04 APERTURE END LIST*
D10*
%TO.C,U3*%
X139745000Y-87995000D03*
X139745000Y-89265000D03*
X139745000Y-90535000D03*
X139745000Y-91805000D03*
X146945000Y-91805000D03*
X146945000Y-90535000D03*
X146945000Y-89265000D03*
X146945000Y-87995000D03*
%TD*%
D11*
%TO.C,R15*%
X129445000Y-87875000D03*
X129445000Y-89525000D03*
%TD*%
D12*
%TO.C,C1*%
X140605000Y-101255000D03*
X139055000Y-101255000D03*
%TD*%
D13*
%TO.C,C2*%
X152655000Y-107555000D03*
X154205000Y-107555000D03*
%TD*%
%TO.C,C3*%
X152255000Y-102455000D03*
X153805000Y-102455000D03*
%TD*%
D14*
%TO.C,C4*%
X147245000Y-97930000D03*
X147245000Y-96380000D03*
%TD*%
D15*
%TO.C,C5*%
X147030000Y-112980000D03*
X147030000Y-114530000D03*
%TD*%
D12*
%TO.C,C6*%
X140005000Y-106555000D03*
X138455000Y-106555000D03*
%TD*%
D13*
%TO.C,C7*%
X152255000Y-104155000D03*
X153805000Y-104155000D03*
%TD*%
D12*
%TO.C,C8*%
X140600000Y-103200000D03*
X139050000Y-103200000D03*
%TD*%
%TO.C,C11*%
X145475000Y-128700000D03*
X143925000Y-128700000D03*
%TD*%
D15*
%TO.C,C10*%
X150130000Y-112980000D03*
X150130000Y-114530000D03*
%TD*%
D14*
%TO.C,C12*%
X145545000Y-97930000D03*
X145545000Y-96380000D03*
%TD*%
D13*
%TO.C,C13*%
X153055000Y-98055000D03*
X154605000Y-98055000D03*
%TD*%
D14*
%TO.C,C14*%
X165400000Y-124750000D03*
X165400000Y-123200000D03*
%TD*%
D15*
%TO.C,C15*%
X126345000Y-111025000D03*
X126345000Y-112575000D03*
%TD*%
D13*
%TO.C,C16*%
X152345000Y-87900000D03*
X150795000Y-87900000D03*
%TD*%
D14*
%TO.C,C17*%
X126345000Y-108675000D03*
X126345000Y-107125000D03*
%TD*%
D13*
%TO.C,C18*%
X168370000Y-114200000D03*
X169920000Y-114200000D03*
%TD*%
D15*
%TO.C,C20*%
X121645000Y-72925000D03*
X121645000Y-74475000D03*
%TD*%
D14*
%TO.C,C21*%
X138595000Y-114475000D03*
X138595000Y-112925000D03*
%TD*%
%TO.C,C22*%
X144595000Y-114475000D03*
X144595000Y-112925000D03*
%TD*%
D15*
%TO.C,C23*%
X141845000Y-80400000D03*
X141845000Y-81950000D03*
%TD*%
%TO.C,C24*%
X147345000Y-80425000D03*
X147345000Y-81975000D03*
%TD*%
D16*
%TO.C,D1*%
X134880000Y-124555000D03*
X132780000Y-124555000D03*
%TD*%
D17*
%TO.C,D2*%
X140945000Y-132087500D03*
X140945000Y-130512500D03*
%TD*%
D18*
%TO.C,D3*%
X156145000Y-124950000D03*
X156145000Y-122850000D03*
%TD*%
D19*
%TO.C,J5*%
X171375000Y-131600000D03*
D20*
X168835000Y-131600000D03*
X166295000Y-131600000D03*
%TD*%
D19*
%TO.C,J3*%
X161525000Y-131600000D03*
D20*
X158985000Y-131600000D03*
X156445000Y-131600000D03*
X153905000Y-131600000D03*
%TD*%
D21*
%TO.C,J7*%
X163470000Y-117250000D03*
D22*
X162200000Y-117250000D03*
X163470000Y-115980000D03*
X162200000Y-115980000D03*
X163470000Y-114710000D03*
X162200000Y-114710000D03*
X163470000Y-113440000D03*
X162200000Y-113440000D03*
X163470000Y-112170000D03*
X162200000Y-112170000D03*
%TD*%
D23*
%TO.C,L1*%
X143757500Y-80400000D03*
X145332500Y-80400000D03*
%TD*%
D24*
%TO.C,Q1*%
X152982500Y-125950000D03*
X152982500Y-124050000D03*
X151107500Y-125000000D03*
%TD*%
D25*
%TO.C,Q2*%
X163880000Y-93492500D03*
X165780000Y-93492500D03*
X164830000Y-91617500D03*
%TD*%
D11*
%TO.C,R1*%
X140945000Y-122775000D03*
X140945000Y-124425000D03*
%TD*%
D26*
%TO.C,R7*%
X150720000Y-85900000D03*
X152370000Y-85900000D03*
%TD*%
%TO.C,R8*%
X164420000Y-77500000D03*
X166070000Y-77500000D03*
%TD*%
D27*
%TO.C,R9*%
X152870000Y-121300000D03*
X151220000Y-121300000D03*
%TD*%
D26*
%TO.C,R11*%
X133270000Y-108200000D03*
X134920000Y-108200000D03*
%TD*%
%TO.C,R12*%
X133270000Y-111700000D03*
X134920000Y-111700000D03*
%TD*%
D11*
%TO.C,R13*%
X127745000Y-87075000D03*
X127745000Y-88725000D03*
%TD*%
D27*
%TO.C,R14*%
X172955000Y-104155000D03*
X171305000Y-104155000D03*
%TD*%
%TO.C,R16*%
X172955000Y-106755000D03*
X171305000Y-106755000D03*
%TD*%
%TO.C,R17*%
X122870000Y-85700000D03*
X121220000Y-85700000D03*
%TD*%
D28*
%TO.C,SW1*%
X173595000Y-69525000D03*
X173595000Y-77475000D03*
X169095000Y-77475000D03*
X169095000Y-69525000D03*
%TD*%
D29*
%TO.C,SW2*%
X173080000Y-92080000D03*
X173080000Y-100030000D03*
X168580000Y-100030000D03*
X168580000Y-92080000D03*
%TD*%
%TO.C,SW3*%
X125695000Y-88525000D03*
X125695000Y-96475000D03*
X121195000Y-88525000D03*
X121195000Y-96475000D03*
%TD*%
D30*
%TO.C,U1*%
X143395000Y-103455000D03*
X143395000Y-103855000D03*
X143395000Y-104255000D03*
X143395000Y-104655000D03*
X143395000Y-105055000D03*
X143395000Y-105455000D03*
X143395000Y-105855000D03*
X143395000Y-106255000D03*
X143395000Y-106655000D03*
X143395000Y-107055000D03*
X143395000Y-107455000D03*
X143395000Y-107855000D03*
X143395000Y-108255000D03*
X143395000Y-108655000D03*
D31*
X144230000Y-109490000D03*
X144630000Y-109490000D03*
X145030000Y-109490000D03*
X145430000Y-109490000D03*
X145830000Y-109490000D03*
X146230000Y-109490000D03*
X146630000Y-109490000D03*
X147030000Y-109490000D03*
X147430000Y-109490000D03*
X147830000Y-109490000D03*
X148230000Y-109490000D03*
X148630000Y-109490000D03*
X149030000Y-109490000D03*
X149430000Y-109490000D03*
D30*
X150265000Y-108655000D03*
X150265000Y-108255000D03*
X150265000Y-107855000D03*
X150265000Y-107455000D03*
X150265000Y-107055000D03*
X150265000Y-106655000D03*
X150265000Y-106255000D03*
X150265000Y-105855000D03*
X150265000Y-105455000D03*
X150265000Y-105055000D03*
X150265000Y-104655000D03*
X150265000Y-104255000D03*
X150265000Y-103855000D03*
X150265000Y-103455000D03*
D31*
X149430000Y-102620000D03*
X149030000Y-102620000D03*
X148630000Y-102620000D03*
X148230000Y-102620000D03*
X147830000Y-102620000D03*
X147430000Y-102620000D03*
X147030000Y-102620000D03*
X146630000Y-102620000D03*
X146230000Y-102620000D03*
X145830000Y-102620000D03*
X145430000Y-102620000D03*
X145030000Y-102620000D03*
X144630000Y-102620000D03*
X144230000Y-102620000D03*
D32*
X146830000Y-106055000D03*
%TD*%
D33*
%TO.C,U2*%
X143750000Y-126237500D03*
X144700000Y-126237500D03*
X145650000Y-126237500D03*
X145650000Y-123962500D03*
X143750000Y-123962500D03*
%TD*%
D34*
%TO.C,U4*%
X130670000Y-108900000D03*
X130670000Y-109550000D03*
X130670000Y-110200000D03*
X130670000Y-110850000D03*
X128620000Y-110850000D03*
X128620000Y-110200000D03*
X128620000Y-109550000D03*
X128620000Y-108900000D03*
%TD*%
D35*
%TO.C,U6*%
X124345000Y-72950000D03*
X124345000Y-74200000D03*
X124345000Y-75450000D03*
X124345000Y-76700000D03*
X124345000Y-77950000D03*
X124345000Y-79200000D03*
X124345000Y-80450000D03*
D36*
X126595000Y-82700000D03*
X127845000Y-82700000D03*
X129095000Y-82700000D03*
X130345000Y-82700000D03*
X131595000Y-82700000D03*
X132845000Y-82700000D03*
X134095000Y-82700000D03*
D37*
X136345000Y-80450000D03*
X136345000Y-79200000D03*
X136345000Y-77950000D03*
X136345000Y-76700000D03*
X136345000Y-75450000D03*
X136345000Y-74200000D03*
X136345000Y-72950000D03*
D38*
X134095000Y-70700000D03*
X132845000Y-70700000D03*
X131595000Y-70700000D03*
X130345000Y-70700000D03*
X129095000Y-70700000D03*
X127845000Y-70700000D03*
X126595000Y-70700000D03*
%TD*%
D33*
%TO.C,U7*%
X167280000Y-106392500D03*
X168230000Y-106392500D03*
X169180000Y-106392500D03*
X169180000Y-104117500D03*
X168230000Y-104117500D03*
X167280000Y-104117500D03*
%TD*%
D39*
%TO.C,Y1*%
X140770000Y-114475000D03*
X142420000Y-114475000D03*
X142420000Y-112925000D03*
X140770000Y-112925000D03*
%TD*%
D40*
%TO.C,J8*%
X147330000Y-71055000D03*
X151580000Y-71055000D03*
X143080000Y-71055000D03*
%TD*%
D41*
%TO.C,JP1*%
X143080000Y-118355000D03*
D42*
X141780000Y-118355000D03*
%TD*%
D43*
%TO.C,TP3*%
X135145000Y-131500000D03*
%TD*%
%TO.C,TP1*%
X147530000Y-118355000D03*
%TD*%
%TO.C,TP6*%
X132145000Y-97700000D03*
%TD*%
%TO.C,TP7*%
X132145000Y-103600000D03*
%TD*%
D12*
%TO.C,C19*%
X145420000Y-121975000D03*
X143870000Y-121975000D03*
%TD*%
D44*
%TO.C,R22*%
X122345000Y-132125000D03*
X122345000Y-130475000D03*
%TD*%
D26*
%TO.C,R21*%
X168320000Y-117100000D03*
X169970000Y-117100000D03*
%TD*%
D43*
%TO.C,TP8*%
X160845000Y-125000000D03*
%TD*%
%TO.C,TP2*%
X158945000Y-101300000D03*
%TD*%
D45*
%TO.C,J6*%
X172820000Y-81250000D03*
D20*
X172820000Y-83790000D03*
X172820000Y-86330000D03*
X172820000Y-88870000D03*
%TD*%
D44*
%TO.C,R5*%
X138745000Y-132125000D03*
X138745000Y-130475000D03*
%TD*%
%TO.C,R3*%
X150645000Y-97980000D03*
X150645000Y-96330000D03*
%TD*%
D33*
%TO.C,U5*%
X169375000Y-122162500D03*
X170325000Y-122162500D03*
X171275000Y-122162500D03*
X171275000Y-119887500D03*
X169375000Y-119887500D03*
%TD*%
D12*
%TO.C,C9*%
X153805000Y-100755000D03*
X152255000Y-100755000D03*
%TD*%
D17*
%TO.C,D4*%
X125545000Y-132087500D03*
X125545000Y-130512500D03*
%TD*%
D44*
%TO.C,R20*%
X122245000Y-103625000D03*
X122245000Y-101975000D03*
%TD*%
D43*
%TO.C,TP4*%
X130545000Y-131500000D03*
%TD*%
D26*
%TO.C,R6*%
X150720000Y-83900000D03*
X152370000Y-83900000D03*
%TD*%
%TO.C,R18*%
X159895000Y-128600000D03*
X161545000Y-128600000D03*
%TD*%
D44*
%TO.C,R4*%
X148945000Y-97980000D03*
X148945000Y-96330000D03*
%TD*%
D26*
%TO.C,R19*%
X169695000Y-128600000D03*
X171345000Y-128600000D03*
%TD*%
D11*
%TO.C,R10*%
X148045000Y-122575000D03*
X148045000Y-124225000D03*
%TD*%
D43*
%TO.C,TP5*%
X158945000Y-95400000D03*
%TD*%
D46*
%TO.C,J2*%
X158345000Y-71800000D03*
D20*
X160885000Y-71800000D03*
%TD*%
D44*
%TO.C,R2*%
X148145000Y-128625000D03*
X148145000Y-126975000D03*
%TD*%
D47*
%TO.C,J4*%
X146725000Y-131600000D03*
D20*
X144185000Y-131600000D03*
%TD*%
D47*
%TO.C,J9*%
X122225000Y-124600000D03*
D20*
X122225000Y-127140000D03*
%TD*%
M02*
