%TF.GenerationSoftware,KiCad,Pcbnew,6.0.2-378541a8eb~116~ubuntu20.04.1*%
%TF.CreationDate,2022-03-07T09:24:59-08:00*%
%TF.ProjectId,RP2040_WEDS,52503230-3430-45f5-9745-44532e6b6963,rev?*%
%TF.SameCoordinates,Original*%
%TF.FileFunction,Legend,Bot*%
%TF.FilePolarity,Positive*%
%FSLAX46Y46*%
G04 Gerber Fmt 4.6, Leading zero omitted, Abs format (unit mm)*
G04 Created by KiCad (PCBNEW 6.0.2-378541a8eb~116~ubuntu20.04.1) date 2022-03-07 09:24:59*
%MOMM*%
%LPD*%
G01*
G04 APERTURE LIST*
%ADD10C,0.150000*%
%ADD11C,0.120000*%
G04 APERTURE END LIST*
D10*
X173404642Y-68942380D02*
X173166547Y-69942380D01*
X172976071Y-69228095D01*
X172785595Y-69942380D01*
X172547500Y-68942380D01*
X172166547Y-69942380D02*
X172166547Y-69275714D01*
X172166547Y-68942380D02*
X172214166Y-68990000D01*
X172166547Y-69037619D01*
X172118928Y-68990000D01*
X172166547Y-68942380D01*
X172166547Y-69037619D01*
X171547500Y-69942380D02*
X171642738Y-69894761D01*
X171690357Y-69799523D01*
X171690357Y-68942380D01*
X170737976Y-69942380D02*
X170737976Y-68942380D01*
X170737976Y-69894761D02*
X170833214Y-69942380D01*
X171023690Y-69942380D01*
X171118928Y-69894761D01*
X171166547Y-69847142D01*
X171214166Y-69751904D01*
X171214166Y-69466190D01*
X171166547Y-69370952D01*
X171118928Y-69323333D01*
X171023690Y-69275714D01*
X170833214Y-69275714D01*
X170737976Y-69323333D01*
X170261785Y-69418571D02*
X169928452Y-69418571D01*
X169785595Y-69942380D02*
X170261785Y-69942380D01*
X170261785Y-68942380D01*
X169785595Y-68942380D01*
X169357023Y-69942380D02*
X169357023Y-68942380D01*
X169118928Y-68942380D01*
X168976071Y-68990000D01*
X168880833Y-69085238D01*
X168833214Y-69180476D01*
X168785595Y-69370952D01*
X168785595Y-69513809D01*
X168833214Y-69704285D01*
X168880833Y-69799523D01*
X168976071Y-69894761D01*
X169118928Y-69942380D01*
X169357023Y-69942380D01*
X168404642Y-69894761D02*
X168261785Y-69942380D01*
X168023690Y-69942380D01*
X167928452Y-69894761D01*
X167880833Y-69847142D01*
X167833214Y-69751904D01*
X167833214Y-69656666D01*
X167880833Y-69561428D01*
X167928452Y-69513809D01*
X168023690Y-69466190D01*
X168214166Y-69418571D01*
X168309404Y-69370952D01*
X168357023Y-69323333D01*
X168404642Y-69228095D01*
X168404642Y-69132857D01*
X168357023Y-69037619D01*
X168309404Y-68990000D01*
X168214166Y-68942380D01*
X167976071Y-68942380D01*
X167833214Y-68990000D01*
X166737976Y-69275714D02*
X166499880Y-69942380D01*
X166261785Y-69275714D01*
X165357023Y-69942380D02*
X165928452Y-69942380D01*
X165642738Y-69942380D02*
X165642738Y-68942380D01*
X165737976Y-69085238D01*
X165833214Y-69180476D01*
X165928452Y-69228095D01*
X164928452Y-69847142D02*
X164880833Y-69894761D01*
X164928452Y-69942380D01*
X164976071Y-69894761D01*
X164928452Y-69847142D01*
X164928452Y-69942380D01*
X164499880Y-69037619D02*
X164452261Y-68990000D01*
X164357023Y-68942380D01*
X164118928Y-68942380D01*
X164023690Y-68990000D01*
X163976071Y-69037619D01*
X163928452Y-69132857D01*
X163928452Y-69228095D01*
X163976071Y-69370952D01*
X164547500Y-69942380D01*
X163928452Y-69942380D01*
X172976071Y-71028571D02*
X172833214Y-71076190D01*
X172785595Y-71123809D01*
X172737976Y-71219047D01*
X172737976Y-71361904D01*
X172785595Y-71457142D01*
X172833214Y-71504761D01*
X172928452Y-71552380D01*
X173309404Y-71552380D01*
X173309404Y-70552380D01*
X172976071Y-70552380D01*
X172880833Y-70600000D01*
X172833214Y-70647619D01*
X172785595Y-70742857D01*
X172785595Y-70838095D01*
X172833214Y-70933333D01*
X172880833Y-70980952D01*
X172976071Y-71028571D01*
X173309404Y-71028571D01*
X171880833Y-71552380D02*
X171880833Y-71028571D01*
X171928452Y-70933333D01*
X172023690Y-70885714D01*
X172214166Y-70885714D01*
X172309404Y-70933333D01*
X171880833Y-71504761D02*
X171976071Y-71552380D01*
X172214166Y-71552380D01*
X172309404Y-71504761D01*
X172357023Y-71409523D01*
X172357023Y-71314285D01*
X172309404Y-71219047D01*
X172214166Y-71171428D01*
X171976071Y-71171428D01*
X171880833Y-71123809D01*
X171261785Y-71552380D02*
X171357023Y-71504761D01*
X171404642Y-71409523D01*
X171404642Y-70552380D01*
X170452261Y-71552380D02*
X170452261Y-70552380D01*
X170452261Y-71504761D02*
X170547500Y-71552380D01*
X170737976Y-71552380D01*
X170833214Y-71504761D01*
X170880833Y-71457142D01*
X170928452Y-71361904D01*
X170928452Y-71076190D01*
X170880833Y-70980952D01*
X170833214Y-70933333D01*
X170737976Y-70885714D01*
X170547500Y-70885714D01*
X170452261Y-70933333D01*
X169595119Y-71504761D02*
X169690357Y-71552380D01*
X169880833Y-71552380D01*
X169976071Y-71504761D01*
X170023690Y-71409523D01*
X170023690Y-71028571D01*
X169976071Y-70933333D01*
X169880833Y-70885714D01*
X169690357Y-70885714D01*
X169595119Y-70933333D01*
X169547500Y-71028571D01*
X169547500Y-71123809D01*
X170023690Y-71219047D01*
X168737976Y-71504761D02*
X168833214Y-71552380D01*
X169023690Y-71552380D01*
X169118928Y-71504761D01*
X169166547Y-71409523D01*
X169166547Y-71028571D01*
X169118928Y-70933333D01*
X169023690Y-70885714D01*
X168833214Y-70885714D01*
X168737976Y-70933333D01*
X168690357Y-71028571D01*
X168690357Y-71123809D01*
X169166547Y-71219047D01*
X168261785Y-70885714D02*
X168261785Y-71885714D01*
X168261785Y-70933333D02*
X168166547Y-70885714D01*
X167976071Y-70885714D01*
X167880833Y-70933333D01*
X167833214Y-70980952D01*
X167785595Y-71076190D01*
X167785595Y-71361904D01*
X167833214Y-71457142D01*
X167880833Y-71504761D01*
X167976071Y-71552380D01*
X168166547Y-71552380D01*
X168261785Y-71504761D01*
X166595119Y-71552380D02*
X166595119Y-70552380D01*
X166214166Y-70552380D01*
X166118928Y-70600000D01*
X166071309Y-70647619D01*
X166023690Y-70742857D01*
X166023690Y-70885714D01*
X166071309Y-70980952D01*
X166118928Y-71028571D01*
X166214166Y-71076190D01*
X166595119Y-71076190D01*
X165166547Y-71552380D02*
X165166547Y-71028571D01*
X165214166Y-70933333D01*
X165309404Y-70885714D01*
X165499880Y-70885714D01*
X165595119Y-70933333D01*
X165166547Y-71504761D02*
X165261785Y-71552380D01*
X165499880Y-71552380D01*
X165595119Y-71504761D01*
X165642738Y-71409523D01*
X165642738Y-71314285D01*
X165595119Y-71219047D01*
X165499880Y-71171428D01*
X165261785Y-71171428D01*
X165166547Y-71123809D01*
X164690357Y-70885714D02*
X164690357Y-71552380D01*
X164690357Y-70980952D02*
X164642738Y-70933333D01*
X164547500Y-70885714D01*
X164404642Y-70885714D01*
X164309404Y-70933333D01*
X164261785Y-71028571D01*
X164261785Y-71552380D01*
X163785595Y-70885714D02*
X163785595Y-71552380D01*
X163785595Y-70980952D02*
X163737976Y-70933333D01*
X163642738Y-70885714D01*
X163499880Y-70885714D01*
X163404642Y-70933333D01*
X163357023Y-71028571D01*
X163357023Y-71552380D01*
X162452261Y-70885714D02*
X162452261Y-71552380D01*
X162880833Y-70885714D02*
X162880833Y-71409523D01*
X162833214Y-71504761D01*
X162737976Y-71552380D01*
X162595119Y-71552380D01*
X162499880Y-71504761D01*
X162452261Y-71457142D01*
X173023690Y-72162380D02*
X173023690Y-72876666D01*
X173071309Y-73019523D01*
X173166547Y-73114761D01*
X173309404Y-73162380D01*
X173404642Y-73162380D01*
X172404642Y-73162380D02*
X172499880Y-73114761D01*
X172547500Y-73067142D01*
X172595119Y-72971904D01*
X172595119Y-72686190D01*
X172547500Y-72590952D01*
X172499880Y-72543333D01*
X172404642Y-72495714D01*
X172261785Y-72495714D01*
X172166547Y-72543333D01*
X172118928Y-72590952D01*
X172071309Y-72686190D01*
X172071309Y-72971904D01*
X172118928Y-73067142D01*
X172166547Y-73114761D01*
X172261785Y-73162380D01*
X172404642Y-73162380D01*
X171690357Y-73114761D02*
X171595119Y-73162380D01*
X171404642Y-73162380D01*
X171309404Y-73114761D01*
X171261785Y-73019523D01*
X171261785Y-72971904D01*
X171309404Y-72876666D01*
X171404642Y-72829047D01*
X171547500Y-72829047D01*
X171642738Y-72781428D01*
X171690357Y-72686190D01*
X171690357Y-72638571D01*
X171642738Y-72543333D01*
X171547500Y-72495714D01*
X171404642Y-72495714D01*
X171309404Y-72543333D01*
X170880833Y-73114761D02*
X170785595Y-73162380D01*
X170595119Y-73162380D01*
X170499880Y-73114761D01*
X170452261Y-73019523D01*
X170452261Y-72971904D01*
X170499880Y-72876666D01*
X170595119Y-72829047D01*
X170737976Y-72829047D01*
X170833214Y-72781428D01*
X170880833Y-72686190D01*
X170880833Y-72638571D01*
X170833214Y-72543333D01*
X170737976Y-72495714D01*
X170595119Y-72495714D01*
X170499880Y-72543333D01*
X168690357Y-73067142D02*
X168737976Y-73114761D01*
X168880833Y-73162380D01*
X168976071Y-73162380D01*
X169118928Y-73114761D01*
X169214166Y-73019523D01*
X169261785Y-72924285D01*
X169309404Y-72733809D01*
X169309404Y-72590952D01*
X169261785Y-72400476D01*
X169214166Y-72305238D01*
X169118928Y-72210000D01*
X168976071Y-72162380D01*
X168880833Y-72162380D01*
X168737976Y-72210000D01*
X168690357Y-72257619D01*
X168261785Y-73162380D02*
X168261785Y-72162380D01*
X167833214Y-73162380D02*
X167833214Y-72638571D01*
X167880833Y-72543333D01*
X167976071Y-72495714D01*
X168118928Y-72495714D01*
X168214166Y-72543333D01*
X168261785Y-72590952D01*
X166928452Y-73162380D02*
X166928452Y-72638571D01*
X166976071Y-72543333D01*
X167071309Y-72495714D01*
X167261785Y-72495714D01*
X167357023Y-72543333D01*
X166928452Y-73114761D02*
X167023690Y-73162380D01*
X167261785Y-73162380D01*
X167357023Y-73114761D01*
X167404642Y-73019523D01*
X167404642Y-72924285D01*
X167357023Y-72829047D01*
X167261785Y-72781428D01*
X167023690Y-72781428D01*
X166928452Y-72733809D01*
X166452261Y-72495714D02*
X166452261Y-73162380D01*
X166452261Y-72590952D02*
X166404642Y-72543333D01*
X166309404Y-72495714D01*
X166166547Y-72495714D01*
X166071309Y-72543333D01*
X166023690Y-72638571D01*
X166023690Y-73162380D01*
X165118928Y-73162380D02*
X165118928Y-72162380D01*
X165118928Y-73114761D02*
X165214166Y-73162380D01*
X165404642Y-73162380D01*
X165499880Y-73114761D01*
X165547500Y-73067142D01*
X165595119Y-72971904D01*
X165595119Y-72686190D01*
X165547500Y-72590952D01*
X165499880Y-72543333D01*
X165404642Y-72495714D01*
X165214166Y-72495714D01*
X165118928Y-72543333D01*
X164499880Y-73162380D02*
X164595119Y-73114761D01*
X164642738Y-73019523D01*
X164642738Y-72162380D01*
X163737976Y-73114761D02*
X163833214Y-73162380D01*
X164023690Y-73162380D01*
X164118928Y-73114761D01*
X164166547Y-73019523D01*
X164166547Y-72638571D01*
X164118928Y-72543333D01*
X164023690Y-72495714D01*
X163833214Y-72495714D01*
X163737976Y-72543333D01*
X163690357Y-72638571D01*
X163690357Y-72733809D01*
X164166547Y-72829047D01*
X163261785Y-73162380D02*
X163261785Y-72495714D01*
X163261785Y-72686190D02*
X163214166Y-72590952D01*
X163166547Y-72543333D01*
X163071309Y-72495714D01*
X162976071Y-72495714D01*
D11*
%TO.C,J4*%
X142855000Y-130270000D02*
X142855000Y-132930000D01*
X148055000Y-132870000D02*
X148055000Y-132930000D01*
X145455000Y-132870000D02*
X145455000Y-130270000D01*
X145455000Y-130270000D02*
X142855000Y-130270000D01*
X148055000Y-132870000D02*
X145455000Y-132870000D01*
X148055000Y-132930000D02*
X142855000Y-132930000D01*
X148055000Y-131600000D02*
X148055000Y-130270000D01*
X148055000Y-130270000D02*
X146725000Y-130270000D01*
%TO.C,J9*%
X112125000Y-126760000D02*
X112125000Y-127520000D01*
X121182071Y-126760000D02*
X120785000Y-126760000D01*
X123495000Y-123330000D02*
X122225000Y-123330000D01*
X112125000Y-124980000D02*
X118125000Y-124980000D01*
X120785000Y-125870000D02*
X118125000Y-125870000D01*
X118125000Y-124640000D02*
X112125000Y-124640000D01*
X118125000Y-123270000D02*
X120785000Y-123270000D01*
X118125000Y-124280000D02*
X112125000Y-124280000D01*
X118125000Y-128470000D02*
X118125000Y-123270000D01*
X121115000Y-124980000D02*
X120785000Y-124980000D01*
X121115000Y-124220000D02*
X120785000Y-124220000D01*
X118125000Y-124760000D02*
X112125000Y-124760000D01*
X118125000Y-124220000D02*
X112125000Y-124220000D01*
X123495000Y-124600000D02*
X123495000Y-123330000D01*
X118125000Y-124400000D02*
X112125000Y-124400000D01*
X120785000Y-123270000D02*
X120785000Y-128470000D01*
X118125000Y-126760000D02*
X112125000Y-126760000D01*
X118125000Y-124520000D02*
X112125000Y-124520000D01*
X112125000Y-124220000D02*
X112125000Y-124980000D01*
X120785000Y-128470000D02*
X118125000Y-128470000D01*
X112125000Y-127520000D02*
X118125000Y-127520000D01*
X118125000Y-124880000D02*
X112125000Y-124880000D01*
X121182071Y-127520000D02*
X120785000Y-127520000D01*
%TD*%
M02*
