%TF.GenerationSoftware,KiCad,Pcbnew,(6.0.2)*%
%TF.CreationDate,2022-02-14T15:02:21-08:00*%
%TF.ProjectId,RP2040_WEDS,52503230-3430-45f5-9745-44532e6b6963,rev?*%
%TF.SameCoordinates,Original*%
%TF.FileFunction,Soldermask,Top*%
%TF.FilePolarity,Negative*%
%FSLAX46Y46*%
G04 Gerber Fmt 4.6, Leading zero omitted, Abs format (unit mm)*
G04 Created by KiCad (PCBNEW (6.0.2)) date 2022-02-14 15:02:21*
%MOMM*%
%LPD*%
G01*
G04 APERTURE LIST*
G04 Aperture macros list*
%AMRoundRect*
0 Rectangle with rounded corners*
0 $1 Rounding radius*
0 $2 $3 $4 $5 $6 $7 $8 $9 X,Y pos of 4 corners*
0 Add a 4 corners polygon primitive as box body*
4,1,4,$2,$3,$4,$5,$6,$7,$8,$9,$2,$3,0*
0 Add four circle primitives for the rounded corners*
1,1,$1+$1,$2,$3*
1,1,$1+$1,$4,$5*
1,1,$1+$1,$6,$7*
1,1,$1+$1,$8,$9*
0 Add four rect primitives between the rounded corners*
20,1,$1+$1,$2,$3,$4,$5,0*
20,1,$1+$1,$4,$5,$6,$7,0*
20,1,$1+$1,$6,$7,$8,$9,0*
20,1,$1+$1,$8,$9,$2,$3,0*%
%AMFreePoly0*
4,1,37,0.535921,0.785921,0.550800,0.750000,0.550800,-0.750000,0.535921,-0.785921,0.500000,-0.800800,0.000000,-0.800800,-0.012526,-0.795612,-0.080872,-0.794359,-0.095090,-0.792057,-0.230405,-0.749782,-0.243405,-0.743581,-0.361415,-0.665026,-0.372153,-0.655426,-0.463373,-0.546907,-0.470984,-0.534678,-0.528079,-0.404919,-0.531952,-0.391047,-0.549535,-0.256587,-0.548147,-0.256405,-0.550800,-0.250000,
-0.550800,0.250000,-0.550314,0.251174,-0.550158,0.263925,-0.528347,0.404002,-0.524136,0.417775,-0.463888,0.546100,-0.455980,0.558139,-0.362136,0.664397,-0.351168,0.673732,-0.231273,0.749380,-0.218125,0.755261,-0.081818,0.794218,-0.067547,0.796173,-0.011991,0.795833,0.000000,0.800800,0.500000,0.800800,0.535921,0.785921,0.535921,0.785921,$1*%
%AMFreePoly1*
4,1,37,0.012350,0.795685,0.074215,0.795307,0.088460,0.793178,0.224281,0.752559,0.237356,0.746518,0.356318,0.669411,0.367173,0.659942,0.459711,0.552545,0.467470,0.540411,0.526147,0.411359,0.530190,0.397535,0.550287,0.257202,0.550800,0.250000,0.550800,-0.250000,0.550796,-0.250620,0.550647,-0.262836,0.549947,-0.270644,0.526427,-0.410445,0.522048,-0.424167,0.460236,-0.551746,
0.452182,-0.563686,0.357047,-0.668790,0.345965,-0.677991,0.225155,-0.752168,0.211936,-0.757888,0.075163,-0.795177,0.060870,-0.796957,0.011464,-0.796051,0.000000,-0.800800,-0.500000,-0.800800,-0.535921,-0.785921,-0.550800,-0.750000,-0.550800,0.750000,-0.535921,0.785921,-0.500000,0.800800,0.000000,0.800800,0.012350,0.795685,0.012350,0.795685,$1*%
G04 Aperture macros list end*
%ADD10C,2.101600*%
%ADD11O,1.101600X1.101600*%
%ADD12RoundRect,0.050800X-0.500000X-0.500000X0.500000X-0.500000X0.500000X0.500000X-0.500000X0.500000X0*%
%ADD13RoundRect,0.250800X0.275000X-0.200000X0.275000X0.200000X-0.275000X0.200000X-0.275000X-0.200000X0*%
%ADD14FreePoly0,90.000000*%
%ADD15FreePoly1,90.000000*%
%ADD16RoundRect,0.275800X0.225000X0.250000X-0.225000X0.250000X-0.225000X-0.250000X0.225000X-0.250000X0*%
%ADD17RoundRect,0.250800X-0.275000X0.200000X-0.275000X-0.200000X0.275000X-0.200000X0.275000X0.200000X0*%
%ADD18RoundRect,0.275800X0.250000X-0.225000X0.250000X0.225000X-0.250000X0.225000X-0.250000X-0.225000X0*%
%ADD19RoundRect,0.050800X0.175000X-0.250000X0.175000X0.250000X-0.175000X0.250000X-0.175000X-0.250000X0*%
%ADD20RoundRect,0.050800X-1.550000X-1.550000X1.550000X-1.550000X1.550000X1.550000X-1.550000X1.550000X0*%
%ADD21RoundRect,0.056800X-0.414000X-0.094000X0.414000X-0.094000X0.414000X0.094000X-0.414000X0.094000X0*%
%ADD22RoundRect,0.070800X-0.080000X-0.400000X0.080000X-0.400000X0.080000X0.400000X-0.080000X0.400000X0*%
%ADD23RoundRect,0.200800X0.650000X0.150000X-0.650000X0.150000X-0.650000X-0.150000X0.650000X-0.150000X0*%
%ADD24RoundRect,0.275800X-0.225000X-0.250000X0.225000X-0.250000X0.225000X0.250000X-0.225000X0.250000X0*%
%ADD25RoundRect,0.050800X-0.425000X0.325000X-0.425000X-0.325000X0.425000X-0.325000X0.425000X0.325000X0*%
%ADD26RoundRect,0.050800X0.450000X0.400000X-0.450000X0.400000X-0.450000X-0.400000X0.450000X-0.400000X0*%
%ADD27RoundRect,0.275800X-0.250000X0.225000X-0.250000X-0.225000X0.250000X-0.225000X0.250000X0.225000X0*%
%ADD28RoundRect,0.050800X0.750000X2.540000X-0.750000X2.540000X-0.750000X-2.540000X0.750000X-2.540000X0*%
%ADD29RoundRect,0.050800X0.325000X-0.530000X0.325000X0.530000X-0.325000X0.530000X-0.325000X-0.530000X0*%
%ADD30RoundRect,0.050800X1.150000X-0.500000X1.150000X0.500000X-1.150000X0.500000X-1.150000X-0.500000X0*%
%ADD31RoundRect,0.050800X-0.500000X-1.150000X0.500000X-1.150000X0.500000X1.150000X-0.500000X1.150000X0*%
%ADD32RoundRect,0.050800X-1.150000X0.500000X-1.150000X-0.500000X1.150000X-0.500000X1.150000X0.500000X0*%
%ADD33RoundRect,0.050800X0.500000X1.150000X-0.500000X1.150000X-0.500000X-1.150000X0.500000X-1.150000X0*%
%ADD34RoundRect,0.050800X0.775000X0.650000X-0.775000X0.650000X-0.775000X-0.650000X0.775000X-0.650000X0*%
%ADD35RoundRect,0.050800X-0.650000X0.775000X-0.650000X-0.775000X0.650000X-0.775000X0.650000X0.775000X0*%
%ADD36RoundRect,0.250800X-0.200000X-0.275000X0.200000X-0.275000X0.200000X0.275000X-0.200000X0.275000X0*%
%ADD37RoundRect,0.250800X0.200000X0.275000X-0.200000X0.275000X-0.200000X-0.275000X0.200000X-0.275000X0*%
%ADD38RoundRect,0.050800X-0.450000X-0.400000X0.450000X-0.400000X0.450000X0.400000X-0.450000X0.400000X0*%
%ADD39RoundRect,0.269550X-0.218750X-0.256250X0.218750X-0.256250X0.218750X0.256250X-0.218750X0.256250X0*%
%ADD40RoundRect,0.050800X0.370000X-1.200000X0.370000X1.200000X-0.370000X1.200000X-0.370000X-1.200000X0*%
%ADD41RoundRect,0.050800X-0.500000X0.500000X-0.500000X-0.500000X0.500000X-0.500000X0.500000X0.500000X0*%
%ADD42RoundRect,0.050800X0.500000X-0.500000X0.500000X0.500000X-0.500000X0.500000X-0.500000X-0.500000X0*%
%ADD43O,2.801600X1.301600*%
%ADD44C,2.001600*%
%ADD45RoundRect,0.050800X0.225000X-0.300000X0.225000X0.300000X-0.225000X0.300000X-0.225000X-0.300000X0*%
%ADD46RoundRect,0.269550X0.256250X-0.218750X0.256250X0.218750X-0.256250X0.218750X-0.256250X-0.218750X0*%
%ADD47RoundRect,0.050800X0.300000X0.225000X-0.300000X0.225000X-0.300000X-0.225000X0.300000X-0.225000X0*%
G04 APERTURE END LIST*
D10*
%TO.C,VDD*%
X156100000Y-72700000D03*
%TD*%
D11*
%TO.C,USB*%
X202800000Y-58310000D03*
X202800000Y-57040000D03*
X202800000Y-55770000D03*
D12*
X202800000Y-54500000D03*
%TD*%
D13*
%TO.C,R16*%
X178600000Y-68925000D03*
X178600000Y-67275000D03*
%TD*%
%TO.C,R15*%
X180400000Y-68925000D03*
X180400000Y-67275000D03*
%TD*%
D14*
%TO.C,JP2*%
X176000000Y-93700000D03*
D15*
X176000000Y-92400000D03*
%TD*%
D16*
%TO.C,C24*%
X170775000Y-72300000D03*
X169225000Y-72300000D03*
%TD*%
D10*
%TO.C,RX*%
X163300000Y-71700000D03*
%TD*%
%TO.C,TX*%
X163200000Y-67300000D03*
%TD*%
%TO.C,SOIL*%
X193200000Y-97400000D03*
%TD*%
%TO.C,3V3*%
X179600000Y-89200000D03*
%TD*%
%TO.C,BATT*%
X179600000Y-96400000D03*
%TD*%
%TO.C,VDC*%
X167100000Y-92300000D03*
%TD*%
D17*
%TO.C,R1*%
X177400000Y-101225000D03*
X177400000Y-99575000D03*
%TD*%
D18*
%TO.C,C1*%
X184200000Y-69025000D03*
X184200000Y-70575000D03*
%TD*%
D19*
%TO.C,U4*%
X162025000Y-83050000D03*
X161375000Y-83050000D03*
X160725000Y-83050000D03*
X160075000Y-83050000D03*
X160075000Y-81000000D03*
X160725000Y-81000000D03*
X161375000Y-81000000D03*
X162025000Y-81000000D03*
%TD*%
D20*
%TO.C,U1*%
X177000000Y-77000000D03*
D21*
X180435000Y-74400000D03*
X180435000Y-74800000D03*
X180435000Y-75200000D03*
X180435000Y-75600000D03*
X180435000Y-76000000D03*
X180435000Y-76400000D03*
X180435000Y-76800000D03*
X180435000Y-77200000D03*
X180435000Y-77600000D03*
X180435000Y-78000000D03*
X180435000Y-78400000D03*
X180435000Y-78800000D03*
X180435000Y-79200000D03*
X180435000Y-79600000D03*
X173565000Y-79600000D03*
X173565000Y-79200000D03*
X173565000Y-78800000D03*
X173565000Y-78400000D03*
X173565000Y-78000000D03*
X173565000Y-77600000D03*
X173565000Y-77200000D03*
X173565000Y-76800000D03*
X173565000Y-76400000D03*
X173565000Y-76000000D03*
X173565000Y-75600000D03*
X173565000Y-75200000D03*
X173565000Y-74800000D03*
X173565000Y-74400000D03*
D22*
X174400000Y-73565000D03*
X174800000Y-73565000D03*
X175200000Y-73565000D03*
X175600000Y-73565000D03*
X176000000Y-73565000D03*
X176400000Y-73565000D03*
X176800000Y-73565000D03*
X177200000Y-73565000D03*
X177600000Y-73565000D03*
X178000000Y-73565000D03*
X178400000Y-73565000D03*
X178800000Y-73565000D03*
X179200000Y-73565000D03*
X179600000Y-73565000D03*
X179600000Y-80435000D03*
X179200000Y-80435000D03*
X178800000Y-80435000D03*
X178400000Y-80435000D03*
X178000000Y-80435000D03*
X177600000Y-80435000D03*
X177200000Y-80435000D03*
X176800000Y-80435000D03*
X176400000Y-80435000D03*
X176000000Y-80435000D03*
X175600000Y-80435000D03*
X175200000Y-80435000D03*
X174800000Y-80435000D03*
X174400000Y-80435000D03*
%TD*%
D23*
%TO.C,U3*%
X177900000Y-62905000D03*
X177900000Y-61635000D03*
X177900000Y-60365000D03*
X177900000Y-59095000D03*
X185100000Y-59095000D03*
X185100000Y-60365000D03*
X185100000Y-61635000D03*
X185100000Y-62905000D03*
%TD*%
D16*
%TO.C,C5*%
X174950000Y-83750000D03*
X176500000Y-83750000D03*
%TD*%
%TO.C,C8*%
X169225000Y-74300000D03*
X170775000Y-74300000D03*
%TD*%
D24*
%TO.C,C20*%
X171000000Y-83750000D03*
X169450000Y-83750000D03*
%TD*%
D25*
%TO.C,Y1*%
X171050000Y-86350000D03*
X171050000Y-88000000D03*
X169500000Y-88000000D03*
X169500000Y-86350000D03*
%TD*%
D26*
%TO.C,Q2*%
X193400000Y-63500000D03*
X195400000Y-62550000D03*
X195400000Y-64450000D03*
%TD*%
D15*
%TO.C,JP1*%
X194400000Y-68150000D03*
D14*
X194400000Y-69450000D03*
%TD*%
D27*
%TO.C,C9*%
X180600000Y-101175000D03*
X180600000Y-99625000D03*
%TD*%
D28*
%TO.C,J6*%
X181750000Y-42000000D03*
X173250000Y-42000000D03*
X177500000Y-42000000D03*
%TD*%
D29*
%TO.C,U7*%
X199250000Y-74400000D03*
X198300000Y-74400000D03*
X200200000Y-74400000D03*
X200200000Y-76600000D03*
X199250000Y-76600000D03*
X198300000Y-76600000D03*
%TD*%
D30*
%TO.C,U6*%
X153750000Y-60500000D03*
X153750000Y-59250000D03*
X153750000Y-58000000D03*
X153750000Y-53000000D03*
X153750000Y-54250000D03*
X153750000Y-55500000D03*
X153750000Y-56750000D03*
D31*
X156000000Y-50750000D03*
X157250000Y-50750000D03*
X158500000Y-50750000D03*
X163500000Y-50750000D03*
X162250000Y-50750000D03*
X161000000Y-50750000D03*
X159750000Y-50750000D03*
D32*
X165750000Y-53000000D03*
X165750000Y-54250000D03*
X165750000Y-55500000D03*
X165750000Y-60500000D03*
X165750000Y-59250000D03*
X165750000Y-58000000D03*
X165750000Y-56750000D03*
D33*
X163500000Y-62750000D03*
X162250000Y-62750000D03*
X161000000Y-62750000D03*
X156000000Y-62750000D03*
X157250000Y-62750000D03*
X158500000Y-62750000D03*
X159750000Y-62750000D03*
%TD*%
D29*
%TO.C,U5*%
X198400000Y-91300000D03*
X200300000Y-91300000D03*
X200300000Y-93500000D03*
X199350000Y-93500000D03*
X198400000Y-93500000D03*
%TD*%
%TO.C,U2*%
X174050000Y-95800000D03*
X175950000Y-95800000D03*
X175950000Y-98000000D03*
X175000000Y-98000000D03*
X174050000Y-98000000D03*
%TD*%
D34*
%TO.C,SW3*%
X152425000Y-40950000D03*
X152425000Y-45450000D03*
X160375000Y-45450000D03*
X160375000Y-40950000D03*
%TD*%
D35*
%TO.C,SW2*%
X198750000Y-70975000D03*
X203250000Y-70975000D03*
X203250000Y-63025000D03*
X198750000Y-63025000D03*
%TD*%
%TO.C,RESET*%
X198750000Y-50375000D03*
X203250000Y-50375000D03*
X203250000Y-42425000D03*
X198750000Y-42425000D03*
%TD*%
D13*
%TO.C,R14*%
X164200000Y-42575000D03*
X164200000Y-44225000D03*
%TD*%
D36*
%TO.C,R13*%
X194000000Y-80500000D03*
X192350000Y-80500000D03*
%TD*%
%TO.C,R12*%
X170025000Y-57600000D03*
X168375000Y-57600000D03*
%TD*%
%TO.C,R11*%
X194000000Y-76000000D03*
X192350000Y-76000000D03*
%TD*%
%TO.C,R10*%
X170025000Y-59800000D03*
X168375000Y-59800000D03*
%TD*%
%TO.C,R9*%
X161925000Y-78575000D03*
X160275000Y-78575000D03*
%TD*%
%TO.C,R8*%
X161925000Y-76475000D03*
X160275000Y-76475000D03*
%TD*%
D37*
%TO.C,R7*%
X198350000Y-98500000D03*
X200000000Y-98500000D03*
%TD*%
D36*
%TO.C,R6*%
X194500000Y-92000000D03*
X192850000Y-92000000D03*
%TD*%
D13*
%TO.C,R5*%
X192500000Y-53075000D03*
X192500000Y-54725000D03*
%TD*%
%TO.C,R4*%
X187900000Y-60775000D03*
X187900000Y-62425000D03*
%TD*%
%TO.C,R3*%
X174000000Y-101000000D03*
X174000000Y-102650000D03*
%TD*%
%TO.C,R2*%
X171200000Y-97525000D03*
X171200000Y-95875000D03*
%TD*%
D38*
%TO.C,Q1*%
X185000000Y-93950000D03*
X183000000Y-94900000D03*
X183000000Y-93000000D03*
%TD*%
D39*
%TO.C,L1*%
X173400000Y-51000000D03*
X171825000Y-51000000D03*
%TD*%
D40*
%TO.C,J5*%
X190540000Y-84550000D03*
X190540000Y-88450000D03*
X189270000Y-84550000D03*
X189270000Y-88450000D03*
X188000000Y-84550000D03*
X188000000Y-88450000D03*
X186730000Y-84550000D03*
X186730000Y-88450000D03*
X185460000Y-84550000D03*
X185460000Y-88450000D03*
%TD*%
D11*
%TO.C,J4*%
X190190000Y-102500000D03*
X191460000Y-102500000D03*
X192730000Y-102500000D03*
D41*
X194000000Y-102500000D03*
%TD*%
D11*
%TO.C,J3*%
X184000000Y-101270000D03*
D41*
X184000000Y-100000000D03*
%TD*%
D11*
%TO.C,J2*%
X201790000Y-102500000D03*
X200520000Y-102500000D03*
D42*
X199250000Y-102500000D03*
%TD*%
D43*
%TO.C,J1*%
X158000000Y-103000000D03*
X158000000Y-99000000D03*
X158000000Y-95500000D03*
D44*
X153000000Y-99000000D03*
%TD*%
D45*
%TO.C,D3*%
X190000000Y-91950000D03*
X190000000Y-94050000D03*
%TD*%
D46*
%TO.C,D2*%
X171400000Y-101012500D03*
X171400000Y-102587500D03*
%TD*%
D47*
%TO.C,D1*%
X162950000Y-95500000D03*
X165050000Y-95500000D03*
%TD*%
D27*
%TO.C,C23*%
X176000000Y-52525000D03*
X176000000Y-50975000D03*
%TD*%
%TO.C,C22*%
X169250000Y-52550000D03*
X169250000Y-51000000D03*
%TD*%
D24*
%TO.C,C21*%
X171025000Y-90500000D03*
X169475000Y-90500000D03*
%TD*%
D27*
%TO.C,C19*%
X156000000Y-68875000D03*
X156000000Y-67325000D03*
%TD*%
D24*
%TO.C,C18*%
X200000000Y-87500000D03*
X198450000Y-87500000D03*
%TD*%
%TO.C,C17*%
X200000000Y-83000000D03*
X198450000Y-83000000D03*
%TD*%
%TO.C,C16*%
X163775000Y-85175000D03*
X162225000Y-85175000D03*
%TD*%
%TO.C,C15*%
X184975000Y-54000000D03*
X183425000Y-54000000D03*
%TD*%
D16*
%TO.C,C14*%
X158225000Y-85175000D03*
X159775000Y-85175000D03*
%TD*%
D27*
%TO.C,C13*%
X190000000Y-99050000D03*
X190000000Y-97500000D03*
%TD*%
D18*
%TO.C,C12*%
X182200000Y-69025000D03*
X182200000Y-70575000D03*
%TD*%
%TO.C,C11*%
X174900000Y-67325000D03*
X174900000Y-68875000D03*
%TD*%
D16*
%TO.C,C10*%
X174975000Y-85750000D03*
X176525000Y-85750000D03*
%TD*%
D24*
%TO.C,C7*%
X184675000Y-74800000D03*
X183125000Y-74800000D03*
%TD*%
D16*
%TO.C,C6*%
X168625000Y-77500000D03*
X170175000Y-77500000D03*
%TD*%
D18*
%TO.C,C4*%
X176700000Y-67325000D03*
X176700000Y-68875000D03*
%TD*%
D24*
%TO.C,C3*%
X183125000Y-72700000D03*
X184675000Y-72700000D03*
%TD*%
%TO.C,C2*%
X184500000Y-78500000D03*
X182950000Y-78500000D03*
%TD*%
M02*
